<svg width="333" height="504" viewBox="0 0 333 504" fill="none" xmlns="http://www.w3.org/2000/svg">
<g filter="url(#filter0_d)">
<path d="M328.594 60.0742C328.594 26.9371 301.731 0.0742188 268.594 0.0742188H64.4023C31.2653 0.0742188 4.40234 26.9371 4.40234 60.0742V435.963C4.40234 469.1 31.2653 495.963 64.4024 495.963H268.594C301.731 495.963 328.594 469.1 328.594 435.963V60.0742Z" fill="white"/>
<path d="M244.655 454.2H88.3443C58.2135 454.2 33.8165 429.425 33.8165 398.914V103.797C33.778 73.2478 58.2135 48.4727 88.3443 48.4727H244.655C274.786 48.4727 299.183 73.2478 299.183 103.758V398.875C299.183 429.464 274.747 454.2 244.655 454.2Z" fill="#D34D4B"/>
<path d="M72.3684 200.85V251.266H81.8801V187.101H78.0216L60.6133 197.734V208L72.3684 200.85Z" fill="black"/>
<path d="M95.9367 234.491C97.2827 245.766 105 251.999 115.499 251.999C127.882 251.999 135.509 242.925 135.509 230.367C135.509 217.992 128.689 208.734 116.037 208.734C112.537 208.734 109.038 210.108 106.884 211.942L108.769 195.9H132.009V187.101H100.782L97.2827 222.85L103.474 224.133C106.435 220.1 110.743 217.533 115.499 217.533C122.677 217.533 125.997 222.758 125.997 230.367C125.997 238.066 122.318 243.2 115.499 243.2C110.473 243.2 106.256 240.358 105.179 232.75L95.9367 234.491Z" fill="black"/>
<path d="M148.799 244.941C148.799 248.883 151.76 251.724 155.439 251.724C159.118 251.724 162.079 248.883 162.079 244.941C162.079 241 159.118 238.158 155.439 238.158C151.76 238.158 148.799 241 148.799 244.941ZM148.799 215.333C148.799 219.275 151.76 222.117 155.439 222.117C159.118 222.117 162.079 219.275 162.079 215.333C162.079 211.392 159.118 208.55 155.439 208.55C151.76 208.55 148.799 211.392 148.799 215.333Z" fill="black"/>
<path d="M175.482 219.183C175.482 239.35 183.289 251.999 198.095 251.999C212.901 251.999 220.707 239.35 220.707 219.183C220.707 199.017 212.901 186.367 198.095 186.367C183.289 186.367 175.482 199.017 175.482 219.183ZM184.994 219.183C184.994 204.15 189.211 195.167 198.095 195.167C206.978 195.167 211.196 204.15 211.196 219.183C211.196 234.216 206.978 243.2 198.095 243.2C189.211 243.2 184.994 234.216 184.994 219.183Z" fill="black"/>
<path d="M230.426 219.183C230.426 239.35 238.233 251.999 253.039 251.999C267.845 251.999 275.652 239.35 275.652 219.183C275.652 199.017 267.845 186.367 253.039 186.367C238.233 186.367 230.426 199.017 230.426 219.183ZM239.938 219.183C239.938 204.15 244.155 195.167 253.039 195.167C261.922 195.167 266.14 204.15 266.14 219.183C266.14 234.216 261.922 243.2 253.039 243.2C244.155 243.2 239.938 234.216 239.938 219.183Z" fill="black"/>
<path d="M70.0916 66.3711C61.2512 66.3711 54.0781 73.9371 54.0781 83.2764C54.0781 92.6157 61.2512 100.182 70.0916 100.182C78.932 100.182 86.1051 92.6157 86.1051 83.2764C86.1051 73.9371 78.932 66.3711 70.0916 66.3711ZM64.5082 95.8076H62.143V75.2769H60.088V72.9125H64.5082V95.8076ZM73.62 96.241C70.2079 96.241 67.3387 93.9161 66.3306 90.6454L68.5019 89.8572C69.1998 92.1822 71.1773 93.8767 73.62 93.8767C76.6056 93.8767 79.0095 91.2759 79.0095 88.1234C79.0095 84.9709 76.6443 82.37 73.62 82.37C72.2242 82.37 71.565 82.5671 70.8283 82.8823L69.6651 80.6756L75.2097 75.1981H68.2305V72.8337H79.0871V74.7252L73.1935 80.3209L73.7751 80.2421C78.0014 80.2421 81.3747 83.5916 81.3747 88.084C81.3359 92.6157 77.8463 96.241 73.62 96.241Z" fill="#0E0F0F"/>
<path d="M264.865 430.331C273.705 430.331 280.879 422.914 280.879 413.757C280.879 404.601 273.705 397.184 264.865 397.184C256.025 397.184 248.852 404.601 248.852 413.757C248.852 422.914 256.025 430.331 264.865 430.331ZM270.448 401.511H272.814V421.639H274.869V423.957H270.448V401.511ZM261.337 401.047C264.749 401.047 267.618 403.326 268.626 406.533L266.455 407.306C265.757 405.026 263.779 403.365 261.337 403.365C258.351 403.365 255.947 405.915 255.947 409.005C255.947 412.096 258.312 414.646 261.337 414.646C262.732 414.646 263.392 414.453 264.128 414.144L265.292 416.307L259.747 421.677H266.726V423.995H255.87V422.141L261.763 416.655L261.182 416.732C256.955 416.732 253.582 413.448 253.582 409.044C253.621 404.601 257.11 401.047 261.337 401.047Z" fill="#0E0F0F"/>
<path d="M269.409 79.6702C269.18 80.554 268.875 81.4378 268.57 82.2815C268.684 79.5095 267.273 77.1794 265.175 75.5725C264.756 72.5193 264.336 69.5063 263.917 66.4531C263.879 66.2924 263.841 66.0916 263.726 66.0112C263.459 65.8505 263.192 66.1317 263.04 66.413C261.705 68.6225 260.447 70.8722 259.264 73.2023C257.091 72.9612 254.955 73.4031 253.43 74.6485C255.718 69.426 258.616 64.5248 262.01 60.0254C262.277 59.704 262.544 59.3424 262.887 59.1817C263.65 58.8603 264.489 59.3424 265.137 59.8647C268.15 62.3956 269.866 66.3326 270.324 70.3901C270.629 73.5237 270.209 76.6572 269.409 79.6702Z" fill="black"/>
<path d="M260.681 88.9378C260.024 88.4739 259.211 88.01 258.477 87.6234C257.239 87.0435 255.924 86.6955 254.57 86.5796C252.752 86.4249 250.896 86.6569 249.155 87.3141C247.84 87.8167 246.603 88.6672 245.52 89.6724C244.127 90.9868 243.006 92.6492 242.271 94.3502C242.503 94.8528 242.812 95.3554 242.89 95.4714C243.509 96.4379 244.398 97.1724 245.404 97.675C246.487 98.2162 247.763 98.4868 248.962 98.4868C251.321 98.4482 253.603 97.4044 255.46 95.9353C256.233 95.3554 256.929 94.6595 257.587 93.9636C258.902 92.4945 259.946 90.7935 260.681 88.9378ZM238.635 106.528C239.68 105.33 240.569 104.015 241.343 102.662C239.448 102.469 237.591 102.894 235.735 103.358C236.624 104.518 237.591 105.6 238.635 106.528ZM208.777 86.4636C208.622 85.5357 208.506 84.6079 208.39 83.6414C208.429 83.7574 208.467 83.8733 208.506 83.9893C209.241 87.0821 210.285 90.1363 211.562 93.0358C210.711 89.9816 209.434 87.0435 208.506 83.9893C208.467 83.796 208.429 83.6027 208.351 83.4094C208.081 82.211 207.849 81.0125 207.655 79.814C207.539 77.0305 207.887 74.247 208.661 71.6181C207.694 73.4351 207.307 75.4841 207.346 77.5718C206.959 73.9764 206.92 70.381 207.23 66.7856C207.268 66.3603 207.346 65.8578 207.733 65.7031C208.003 65.7418 208.235 65.7418 208.506 65.7804C208.583 65.8191 208.699 65.8578 208.777 65.9351C213.07 68.3707 217.556 70.9222 220.728 74.6336C221.347 75.4841 222.004 76.3733 222.623 77.2238C222.043 76.296 221.424 75.4455 220.728 74.6336C219.761 73.3192 218.794 72.0047 217.866 70.7289C217.286 69.9557 216.706 69.1439 216.087 68.4093C216.396 68.6413 216.706 68.8732 217.015 69.1052C219.568 71.1929 221.695 73.7444 223.783 76.3346C224.015 76.6053 224.209 76.8759 224.441 77.1465L224.518 77.3398C228.27 75.7161 232.64 75.4068 236.779 75.3681C238.713 75.3295 240.608 75.3681 242.542 75.4455C242.542 75.4455 242.542 75.4455 242.58 75.4455C245.868 75.5614 249.117 75.7934 252.366 76.1413C252.559 76.1413 252.752 76.18 252.946 76.2187C253.216 76.2573 253.487 76.2573 253.758 76.296C253.487 76.2573 253.216 76.2187 252.946 76.2187C253.139 75.7547 253.333 75.3295 253.565 74.8656C255.112 73.6284 257.278 73.2418 259.482 73.4738C258.825 74.7109 258.167 75.9867 257.548 77.2625C259.753 78.5383 261.803 80.162 263.543 82.0177C264.162 82.6749 265.052 83.3708 265.786 82.9068C266.367 82.5202 266.367 81.6697 266.251 80.9352C265.98 79.1955 265.748 77.4944 265.477 75.7547C267.604 77.3011 269.035 79.5434 268.919 82.211C269.229 81.3991 269.499 80.5486 269.77 79.6981C269.151 87.0435 268.3 94.4662 265.786 101.386C264.471 104.982 262.692 108.422 260.488 111.554C256.117 117.701 249.736 122.804 242.271 123.848C232.331 125.24 222.507 119.015 216.976 110.626C212.219 103.358 210.053 94.9301 208.777 86.4636ZM219.142 79.5434L218.987 79.4274C217.286 77.1852 215.507 75.0202 213.727 72.8552C213.109 72.1207 212.412 71.3088 211.484 71.1542C211.252 71.1155 211.02 71.1155 210.827 71.2315C210.401 71.4635 210.401 72.0434 210.44 72.5073C210.865 77.5331 211.562 82.5202 212.49 87.5074C212.49 87.5847 212.528 87.662 212.567 87.7394C212.799 88.0486 213.225 87.7007 213.418 87.3914C215.12 84.6079 217.054 81.979 219.142 79.5434ZM216.667 92.6105C216.783 92.4559 216.899 92.3012 217.054 92.1466C217.092 92.1853 217.092 92.2239 217.092 92.2626C218.098 94.2729 219.49 96.1672 221.269 97.559C221.966 98.1002 222.7 98.6028 223.513 98.9894C226.336 100.343 229.856 100.459 232.524 98.8348C233.182 98.4482 233.762 97.9843 234.303 97.4817C234.922 96.9404 235.502 96.3992 236.16 95.8966C235.657 94.4662 235.116 93.0358 234.342 91.7213C234.187 91.4894 234.071 91.2574 233.917 91.0255C232.95 89.595 231.673 88.3193 230.126 87.5847C228.734 86.9275 227.11 86.6569 225.563 86.7729C224.364 86.8502 223.087 87.3527 221.85 88.0873C220.07 89.1698 218.33 90.6775 217.092 92.1466C217.015 91.992 216.899 91.876 216.744 91.876C216.551 91.876 216.473 92.2626 216.667 92.2239H216.744C216.744 92.3399 216.706 92.4559 216.667 92.5719V92.6105Z" fill="black"/>
<path d="M265.786 80.7497C265.898 81.4721 265.898 82.3951 265.336 82.7965C264.623 83.2781 263.761 82.5155 263.161 81.8734C261.473 79.947 259.485 78.2614 257.348 76.937C257.948 75.6126 258.585 74.2882 259.223 73.0039C261.285 73.2447 263.386 74.0875 265.073 75.4119C265.298 77.1376 265.523 78.9437 265.786 80.7497Z" fill="#A2A1A2"/>
<path d="M263.947 66.8766C264.362 69.8148 264.776 72.7143 265.191 75.6524C263.494 74.3767 261.383 73.5648 259.309 73.3328C260.478 71.1292 261.722 68.9256 263.042 66.7993C263.193 66.5674 263.494 66.2581 263.72 66.4127C263.871 66.5287 263.909 66.722 263.947 66.8766Z" fill="#A2A1A2"/>
<path d="M258.495 87.4241C259.202 87.8406 259.947 88.382 260.617 88.8402C259.947 90.7978 258.941 92.6721 257.676 94.2132C257.787 91.8808 257.229 89.5066 256.075 87.549C255.74 87.0075 255.293 86.4244 254.734 86.3828V86.2578C256.037 86.4244 257.303 86.7993 258.495 87.4241Z" fill="white"/>
<path d="M254.29 86.4196C254.87 86.4581 255.372 86.9597 255.681 87.4999C256.84 89.3133 257.42 91.5125 257.343 93.6731C256.686 94.4062 255.99 95.0621 255.218 95.6409C253.363 97.0684 251.084 98.1102 248.727 98.1873C247.49 98.2259 246.254 97.9558 245.172 97.3771C243.936 94.9078 243.974 91.8212 245.327 89.429L245.288 89.3904C246.37 88.3487 247.606 87.5385 248.92 87.0369C250.62 86.381 252.513 86.1495 254.329 86.3038L254.29 86.4196ZM246.409 96.6826C247.027 94.4062 246.834 91.9755 247.027 89.6219C245.674 91.7054 245.443 94.4448 246.409 96.6826Z" fill="#C1B665"/>
<path d="M253.428 74.3242C253.217 74.779 252.964 75.1959 252.754 75.6506C252.543 75.6127 252.332 75.6128 252.121 75.5749C252.501 75.1201 252.922 74.7032 253.428 74.3242Z" fill="black"/>
<path d="M246.892 89.5742C246.787 92.005 246.892 94.5156 246.557 96.8667C246.034 94.5554 246.16 91.7261 246.892 89.5742Z" fill="black"/>
<path d="M245.584 89.5742C244.262 91.9954 244.223 95.07 245.468 97.5297C244.456 97.03 243.561 96.2614 242.939 95.339C242.861 95.2237 242.589 94.7241 242.316 94.2245C243.056 92.5335 244.184 90.8809 245.584 89.5742Z" fill="white"/>
<path d="M235.781 103.588C237.512 103.116 239.243 102.684 241.01 102.881C240.289 104.295 239.423 105.592 238.486 106.81C237.476 105.867 236.575 104.767 235.781 103.588Z" fill="#D76460"/>
<path d="M242.317 75.1143C240.468 75.0382 238.581 75.0382 236.694 75.0382C232.657 75.0763 228.393 75.3805 224.733 76.9779L224.657 76.7878C224.431 76.5215 224.242 76.2553 224.016 75.9891C226.506 75.2284 229.185 75.0763 231.789 75.0382C235.336 74.9622 238.845 74.9622 242.317 75.1143Z" fill="black"/>
<path d="M234.219 91.5774C234.884 92.9352 235.382 94.3729 235.781 95.8905C235.216 96.4097 234.718 96.9688 234.186 97.528C234.319 96.25 234.385 94.972 234.286 93.694C234.219 92.7355 234.086 91.777 233.82 90.8984C233.986 91.0981 234.119 91.3377 234.219 91.5774Z" fill="white"/>
<path d="M223.751 90.7316H223.477C222.501 92.6973 222.149 95.01 222.501 97.1685C223.477 95.2027 223.907 92.9672 223.751 90.7316ZM234.416 93.9308C234.533 95.1642 234.455 96.3976 234.298 97.6311C233.712 98.1321 233.126 98.5947 232.501 98.9801C229.806 100.599 226.251 100.522 223.399 99.1343C222.579 98.7489 221.836 98.2863 221.133 97.7082C220.469 94.586 220.664 91.3097 221.68 88.2647C222.969 87.5323 224.259 86.9927 225.43 86.9542C226.993 86.8385 228.595 87.0698 230.04 87.7636C231.603 88.496 232.892 89.7679 233.869 91.1941C234.181 92.0806 234.337 93.0057 234.416 93.9308Z" fill="#C1B665"/>
<path d="M223.988 90.2344C224.136 92.4837 223.73 94.8119 222.842 96.8639C222.51 94.6146 222.805 92.2864 223.767 90.2738L223.988 90.2344Z" fill="black"/>
<path d="M222.707 76.976C222.067 76.1053 221.386 75.195 220.746 74.3242C221.466 75.1554 222.107 76.0261 222.707 76.976Z" fill="black"/>
<path d="M222.053 88.2461C220.905 91.201 220.735 94.4589 221.458 97.5274C219.545 96.1636 217.972 94.3074 216.867 92.3375C216.867 92.2996 216.824 92.2617 216.824 92.2238C218.185 90.8221 220.098 89.3068 222.053 88.2461Z" fill="white"/>
<path d="M217.839 70.5204C218.821 71.8 219.804 73.0796 220.747 74.3215C217.485 70.7462 212.965 68.2247 208.603 65.8537C208.525 65.816 208.407 65.7408 208.328 65.7031C211.276 66.0042 213.673 66.6064 216.031 68.187C216.66 68.9774 217.249 69.7301 217.839 70.5204Z" fill="black"/>
<path d="M219.277 79.3078L219.44 79.4227C217.207 81.8358 215.218 84.402 213.432 87.1214C213.229 87.4278 212.741 87.7725 212.538 87.4661C212.498 87.3895 212.457 87.3129 212.457 87.2363C211.442 82.3337 210.712 77.3544 210.306 72.3752C210.265 71.9156 210.265 71.341 210.712 71.1112C210.915 70.9963 211.199 70.9963 211.402 71.0346C212.376 71.2261 213.147 71.9922 213.756 72.7199C215.624 74.9414 217.45 77.1246 219.277 79.3078Z" fill="#A2A1A2"/>
<path d="M213.433 65.3588C214.465 66.1775 215.339 67.2235 216.173 68.3605C213.79 66.4504 211.368 65.7227 208.39 65.3588C208.152 65.2224 207.914 65.1769 207.676 65.2224C209.78 64.3128 211.607 63.858 213.433 65.3588Z" fill="black"/>
<path d="M208.328 83.6055C209.321 86.7389 210.727 89.7534 211.596 92.8868C210.231 89.912 209.114 86.7786 208.328 83.6055Z" fill="black"/>
<path d="M208.499 83.4753C208.644 84.391 208.838 85.3068 208.983 86.2607C208.305 84.5437 207.869 82.7503 207.676 80.957C207.773 81.4149 207.918 81.8728 208.063 82.3306C208.257 82.7122 208.354 83.0937 208.499 83.4753Z" fill="black"/>
<path d="M208.293 83.3616C208.293 83.442 208.329 83.5224 208.329 83.6027C208.22 83.2009 208.112 82.7991 208.039 82.3973C207.93 81.9152 207.821 81.4331 207.748 80.9509C207.712 80.5089 207.676 80.067 207.676 79.625C207.821 80.8705 208.039 82.1161 208.293 83.3616Z" fill="black"/>
<path d="M208.329 65.7101C208.101 65.5136 207.905 65.5136 207.676 65.3171C207.708 65.3171 207.708 65.3171 207.741 65.1206C207.937 64.9241 208.133 65.1206 208.329 65.7101Z" fill="black"/>
<path d="M208.983 71.6719C208.216 74.2611 207.87 76.963 207.985 79.6273C207.87 78.9143 207.755 78.1638 207.678 77.4508C207.64 75.4244 208.024 73.4356 208.983 71.6719Z" fill="black"/>
<path d="M60.3647 411.153C60.6275 410.252 60.8902 409.351 61.2281 408.449C61.0779 411.271 62.5794 413.662 64.7566 415.347C65.207 418.443 65.6199 421.578 66.0704 424.674C66.1079 424.87 66.1454 425.066 66.2956 425.145C66.5583 425.301 66.8586 425.027 67.0088 424.753C68.3977 422.48 69.7115 420.167 70.9126 417.816C73.1649 418.051 75.3796 417.62 76.9561 416.327C74.5913 421.657 71.5883 426.712 68.0598 431.337C67.7971 431.689 67.5343 432.042 67.1214 432.199C66.3331 432.552 65.4698 432.042 64.7941 431.494C61.6785 428.907 59.8767 424.831 59.4263 420.716C59.0885 417.502 59.5014 414.249 60.3647 411.153Z" fill="black"/>
<path d="M92.6378 382.463C91.5537 383.709 90.5858 385.11 89.7728 386.551C91.7473 386.746 93.7219 386.318 95.6577 385.811C94.7672 384.604 93.7606 383.475 92.6378 382.463ZM72.6987 395.78C71.3049 397.338 70.2208 399.129 69.4465 401.076C70.1434 401.543 70.9952 402.088 71.7695 402.478C73.0472 403.101 74.4797 403.451 75.8735 403.607C77.8093 403.802 79.7451 403.529 81.5648 402.828C82.9586 402.283 84.2363 401.387 85.3978 400.297C86.869 398.895 88.0692 397.143 88.8048 395.352C88.5338 394.845 88.2241 394.261 88.1854 394.183C87.5272 393.171 86.598 392.353 85.5526 391.847C84.3911 391.263 83.0748 390.99 81.7971 390.99C79.3193 391.029 76.9188 392.159 74.9443 393.677C74.1312 394.339 73.3569 395.04 72.6987 395.78ZM113.158 411.044L113.312 411.161C115.132 413.537 116.991 415.834 118.849 418.132C119.507 418.91 120.243 419.767 121.211 419.962C121.443 420.001 121.714 420.001 121.908 419.884C122.333 419.65 122.333 419.027 122.295 418.521C121.869 413.186 121.133 407.89 120.127 402.633C120.127 402.556 120.088 402.439 120.049 402.4C119.817 402.088 119.352 402.439 119.159 402.789C117.378 405.71 115.364 408.474 113.158 411.044ZM110.331 402.01C112.228 400.881 114.048 399.246 115.364 397.727C115.442 397.883 115.558 398.039 115.752 398.039C115.945 398.039 116.061 397.649 115.829 397.649H115.713C115.713 397.532 115.752 397.377 115.829 397.299L115.752 397.26C115.635 397.415 115.481 397.571 115.364 397.727C115.326 397.688 115.326 397.649 115.287 397.61C114.242 395.468 112.77 393.483 110.912 392.003C110.176 391.419 109.402 390.913 108.55 390.523C105.569 389.082 101.891 388.966 99.0648 390.718C98.4066 391.146 97.7871 391.613 97.1676 392.159C96.5094 392.743 95.89 393.327 95.2318 393.833C95.7351 395.352 96.3546 396.87 97.1676 398.233C97.3225 398.467 97.4774 398.7 97.6322 398.973C98.6389 400.492 99.9939 401.816 101.62 402.633C103.091 403.334 104.795 403.607 106.421 403.49C107.66 403.334 109.015 402.789 110.331 402.01ZM124.54 406.956C124.811 408.202 125.082 409.487 125.276 410.772C125.392 413.692 125.044 416.652 124.231 419.455C125.237 417.508 125.624 415.367 125.624 413.147C126.05 416.924 126.089 420.779 125.741 424.557C125.702 424.985 125.586 425.53 125.198 425.686C124.927 425.647 124.656 425.647 124.385 425.608C124.269 425.569 124.192 425.53 124.114 425.452C119.585 422.882 114.9 420.156 111.532 416.262C110.873 415.328 110.176 414.432 109.518 413.498C110.099 414.471 110.796 415.406 111.532 416.262C112.538 417.664 113.545 419.027 114.551 420.39C115.171 421.208 115.79 422.064 116.449 422.843C116.139 422.61 115.79 422.376 115.481 422.103C112.809 419.884 110.564 417.197 108.357 414.471C108.124 414.199 107.892 413.887 107.66 413.614L107.582 413.381C103.633 415.094 99.0647 415.406 94.6898 415.484C92.6378 415.523 90.5471 415.484 88.4951 415.406C85.088 415.25 81.681 415.016 78.3126 414.666C78.119 414.666 77.9255 414.627 77.6932 414.588C77.4221 414.549 77.1124 414.51 76.8414 414.51C77.1124 414.549 77.4221 414.588 77.6932 414.627C77.4996 415.094 77.2673 415.6 77.035 416.068C75.4089 417.353 73.1246 417.82 70.8016 417.547C71.4985 416.223 72.1954 414.9 72.8536 413.537C70.5306 412.174 68.3624 410.499 66.5428 408.513C65.9233 407.851 64.9554 407.073 64.181 407.579C63.5616 407.968 63.6003 408.903 63.6777 409.643C63.9487 411.473 64.2198 413.303 64.4908 415.133C62.2452 413.498 60.7353 411.122 60.8514 408.28C60.5417 409.175 60.232 410.071 59.9609 410.967C60.6191 403.179 61.5096 395.313 64.181 387.992C65.5748 384.176 67.4332 380.554 69.7562 377.245C74.3248 370.703 81.1002 365.329 88.921 364.239C99.3745 362.759 109.712 369.379 115.558 378.257C120.514 385.811 122.798 394.729 124.153 403.724C124.308 404.697 124.463 405.71 124.579 406.683C124.54 406.566 124.502 406.45 124.463 406.294C123.689 403.023 122.604 399.791 121.211 396.715C122.101 399.986 123.456 403.062 124.463 406.294C124.424 406.566 124.502 406.761 124.54 406.956Z" fill="black"/>
<path d="M63.9457 409.46C63.8307 408.685 63.7924 407.707 64.4439 407.299C65.2105 406.769 66.1304 407.584 66.782 408.277C68.6217 410.357 70.7298 412.11 73.0295 413.537C72.3779 414.964 71.7263 416.35 70.9981 417.736C68.775 417.492 66.5137 416.595 64.7122 415.168C64.4823 413.292 64.214 411.376 63.9457 409.46Z" fill="#A2A1A2"/>
<path d="M65.9301 424.505C65.4518 421.377 65.0134 418.21 64.5352 415.082C66.4083 416.468 68.7597 417.339 71.0713 417.576C69.7959 419.952 68.401 422.327 66.9264 424.584C66.767 424.861 66.4482 425.138 66.1692 424.98C66.0098 424.901 65.9301 424.703 65.9301 424.505Z" fill="#A2A1A2"/>
<path d="M72.1139 402.663C71.3312 402.267 70.5093 401.713 69.7656 401.238C70.5093 399.259 71.6443 397.439 73.0533 395.855C72.9358 398.191 73.5621 400.565 74.8145 402.505C75.1667 403.059 75.6755 403.613 76.3017 403.653V403.811C74.8145 403.692 73.4055 403.296 72.1139 402.663Z" fill="white"/>
<path d="M76.236 403.561C75.6209 403.523 75.1211 402.983 74.775 402.443C73.5448 400.554 72.9296 398.24 73.045 395.965C73.737 395.194 74.4675 394.5 75.2748 393.883C77.2356 392.379 79.5808 391.261 82.0798 391.222C83.3485 391.183 84.6557 391.492 85.8091 392.07C87.1163 394.654 87.0778 397.893 85.6553 400.438L85.6938 400.477C84.5404 401.556 83.2716 402.443 81.8876 402.983C80.0806 403.677 78.1583 403.947 76.236 403.754V403.561ZM84.5404 392.803C83.8868 395.194 84.079 397.739 83.8868 400.245C85.2708 398.047 85.54 395.194 84.5404 392.803Z" fill="#C1B665"/>
<path d="M76.9531 416.408C77.1908 415.762 77.3889 415.063 77.6265 414.418C77.8246 414.472 78.0227 414.472 78.2603 414.525C77.8642 415.278 77.4285 415.924 76.9531 416.408Z" fill="black"/>
<path d="M83.4883 399.835C83.6887 397.379 83.4883 394.923 84.1696 392.543C85.2116 394.923 84.9311 397.72 83.4883 399.835Z" fill="black"/>
<path d="M85.4492 400.493C86.8015 397.884 86.8391 394.563 85.5619 391.875C86.6137 392.428 87.5152 393.219 88.1163 394.247C88.1914 394.366 88.4919 394.919 88.7173 395.433C88.0411 397.291 86.8766 399.07 85.4492 400.493Z" fill="white"/>
<path d="M95.9098 385.818C93.9748 386.305 92.0011 386.716 90.0273 386.529C90.8401 385.106 91.8076 383.796 92.8912 382.598C94.0135 383.571 95.0197 384.657 95.9098 385.818Z" fill="#D76460"/>
<path d="M88.7188 415.601C90.7446 415.672 92.8086 415.672 94.8344 415.672C99.1536 415.637 103.664 415.317 107.563 413.754L107.639 413.967C107.868 414.216 108.098 414.5 108.327 414.749C105.651 415.495 102.823 415.637 100.033 415.708C96.2869 415.779 92.5028 415.744 88.7188 415.601Z" fill="black"/>
<path d="M97.3969 398.376C96.4968 396.876 95.8539 395.292 95.2539 393.667C95.9825 393.083 96.7111 392.458 97.3969 391.875C97.2255 393.292 97.1397 394.667 97.2683 396.084C97.354 397.126 97.5683 398.167 97.8684 399.167C97.7398 398.876 97.5683 398.626 97.3969 398.376Z" fill="white"/>
<path d="M108.386 399.251H108.658C109.707 397.16 110.057 394.72 109.668 392.436C108.697 394.527 108.269 396.889 108.386 399.251ZM97.271 395.843C97.1544 394.527 97.2321 393.249 97.3876 391.933C97.9705 391.429 98.5923 390.926 99.2918 390.5C102.129 388.796 105.86 388.874 108.813 390.306C109.668 390.732 110.445 391.197 111.184 391.778C111.883 395.069 111.689 398.554 110.601 401.729C109.279 402.503 107.919 403.045 106.676 403.123C105.043 403.239 103.334 402.968 101.857 402.271C100.225 401.496 98.8643 400.18 97.8539 398.631C97.5042 397.779 97.3487 396.811 97.271 395.843Z" fill="#C1B665"/>
<path d="M108.354 399.172C108.216 396.912 108.632 394.577 109.498 392.543C109.844 394.765 109.533 397.138 108.597 399.172H108.354Z" fill="black"/>
<path d="M109.633 413.754C110.274 414.65 110.953 415.509 111.594 416.406C110.877 415.584 110.236 414.688 109.633 413.754Z" fill="black"/>
<path d="M110.289 401.819C111.415 398.646 111.616 395.164 110.892 391.875C112.823 393.345 114.352 395.319 115.438 397.447C115.438 397.486 115.478 397.524 115.518 397.563C114.15 399.072 112.26 400.697 110.289 401.819Z" fill="white"/>
<path d="M114.511 420.509C113.539 419.156 112.566 417.764 111.594 416.41C114.848 420.277 119.374 422.984 123.751 425.537C123.825 425.575 123.938 425.653 124.012 425.691C121.095 425.343 118.663 424.686 116.307 422.984C115.708 422.172 115.11 421.36 114.511 420.509Z" fill="black"/>
<path d="M113.057 411.135L112.902 411.021C115.138 408.519 117.142 405.828 118.915 402.985C119.108 402.644 119.57 402.302 119.802 402.606C119.84 402.681 119.879 402.757 119.879 402.833C120.881 407.951 121.613 413.106 122.037 418.3C122.076 418.793 122.076 419.361 121.652 419.627C121.459 419.74 121.189 419.74 120.958 419.702C119.956 419.513 119.223 418.717 118.607 417.921C116.68 415.722 114.83 413.447 113.057 411.135Z" fill="#A2A1A2"/>
<path d="M115.914 397.515H116.046C116.265 397.515 116.178 397.847 115.958 397.847C115.783 397.847 115.651 397.714 115.52 397.582C115.695 397.449 115.827 397.316 115.958 397.184L116.046 397.217C115.914 397.283 115.871 397.383 115.914 397.515Z" fill="black"/>
<path d="M119.1 425.544C118.002 424.854 117.026 423.983 116.172 423.039C118.734 424.636 121.378 425.253 124.55 425.58C124.794 425.689 125.078 425.762 125.322 425.689C123.045 426.415 121.093 426.778 119.1 425.544Z" fill="black"/>
<path d="M124.013 406.464C123.204 403.109 122.114 399.915 121.398 396.52C122.519 399.713 123.39 403.068 124.013 406.464Z" fill="black"/>
<path d="M124.012 406.461C124.175 406.578 124.339 406.695 124.502 406.851C124.502 406.929 124.665 407.007 124.665 407.124C124.502 406.89 124.175 406.695 124.012 406.461Z" fill="black"/>
<path d="M124.525 406.569C124.385 405.661 124.198 404.717 124.012 403.809C124.712 405.552 125.132 407.332 125.319 409.112C125.179 408.64 125.086 408.204 124.899 407.732C124.805 407.332 124.665 406.933 124.525 406.569Z" fill="black"/>
<path d="M124.701 406.729C124.701 406.652 124.668 406.576 124.668 406.461C124.766 406.882 124.864 407.264 124.962 407.685C125.06 408.182 125.158 408.641 125.256 409.138C125.289 409.559 125.322 410.018 125.322 410.439C125.158 409.215 124.929 407.991 124.701 406.729Z" fill="black"/>
<path d="M124.012 419.723C124.791 416.726 125.124 413.563 125.013 410.441C125.124 411.274 125.236 412.148 125.31 412.98C125.384 415.353 125.013 417.683 124.012 419.723Z" fill="black"/>
</g>
<defs>
<filter id="filter0_d" x="0.402344" y="0.0742188" width="332.191" height="503.889" filterUnits="userSpaceOnUse" color-interpolation-filters="sRGB">
<feFlood flood-opacity="0" result="BackgroundImageFix"/>
<feColorMatrix in="SourceAlpha" type="matrix" values="0 0 0 0 0 0 0 0 0 0 0 0 0 0 0 0 0 0 127 0"/>
<feOffset dy="4"/>
<feGaussianBlur stdDeviation="2"/>
<feColorMatrix type="matrix" values="0 0 0 0 0 0 0 0 0 0 0 0 0 0 0 0 0 0 0.25 0"/>
<feBlend mode="normal" in2="BackgroundImageFix" result="effect1_dropShadow"/>
<feBlend mode="normal" in="SourceGraphic" in2="effect1_dropShadow" result="shape"/>
</filter>
</defs>
</svg>
