<svg width="325" height="496" viewBox="0 0 325 496" fill="none" xmlns="http://www.w3.org/2000/svg">
<path d="M324.547 50.4805C324.547 22.8662 302.161 0.480469 274.547 0.480469H50.3555C22.7412 0.480469 0.355469 22.8662 0.355469 50.4805V445.114C0.355469 472.729 22.7412 495.114 50.3555 495.114H274.547C302.161 495.114 324.547 472.729 324.547 445.114V50.4805Z" fill="white"/>
<path d="M240.608 453.454H84.2974C54.1667 453.454 29.7696 428.742 29.7696 398.309V103.939C29.7311 73.4663 54.1667 48.7539 84.2974 48.7539H240.608C270.739 48.7539 295.136 73.4664 295.136 103.9V398.27C295.136 428.781 270.7 453.454 240.608 453.454Z" fill="#D34D4B"/>
<path d="M68.3215 200.747V251.036H77.8332V187.032H73.9747L56.5664 197.639V207.879L68.3215 200.747Z" fill="black"/>
<path d="M91.8898 234.303C93.2358 245.55 100.953 251.767 111.452 251.767C123.835 251.767 131.462 242.715 131.462 230.189C131.462 217.845 124.642 208.611 111.99 208.611C108.49 208.611 104.991 209.982 102.837 211.811L104.722 195.81H127.963V187.032H96.7354L93.2358 222.691L99.4274 223.971C102.389 219.948 106.696 217.388 111.452 217.388C118.63 217.388 121.95 222.6 121.95 230.189C121.95 237.869 118.271 242.989 111.452 242.989C106.427 242.989 102.209 240.155 101.132 232.566L91.8898 234.303Z" fill="black"/>
<path d="M144.752 244.727C144.752 248.658 147.713 251.493 151.392 251.493C155.071 251.493 158.032 248.658 158.032 244.727C158.032 240.795 155.071 237.961 151.392 237.961C147.713 237.961 144.752 240.795 144.752 244.727ZM144.752 215.194C144.752 219.125 147.713 221.96 151.392 221.96C155.071 221.96 158.032 219.125 158.032 215.194C158.032 211.262 155.071 208.428 151.392 208.428C147.713 208.428 144.752 211.262 144.752 215.194Z" fill="black"/>
<path d="M171.435 219.034C171.435 239.149 179.242 251.767 194.048 251.767C208.854 251.767 216.661 239.149 216.661 219.034C216.661 198.919 208.854 186.301 194.048 186.301C179.242 186.301 171.435 198.919 171.435 219.034ZM180.947 219.034C180.947 204.039 185.164 195.078 194.048 195.078C202.931 195.078 207.149 204.039 207.149 219.034C207.149 234.029 202.931 242.989 194.048 242.989C185.164 242.989 180.947 234.029 180.947 219.034Z" fill="black"/>
<path d="M226.379 219.034C226.379 239.149 234.186 251.767 248.992 251.767C263.798 251.767 271.605 239.149 271.605 219.034C271.605 198.919 263.798 186.301 248.992 186.301C234.186 186.301 226.379 198.919 226.379 219.034ZM235.891 219.034C235.891 204.039 240.108 195.078 248.992 195.078C257.875 195.078 262.093 204.039 262.093 219.034C262.093 234.029 257.875 242.989 248.992 242.989C240.108 242.989 235.891 234.029 235.891 219.034Z" fill="black"/>
<path d="M66.0447 66.6094C57.2044 66.6094 50.0312 74.1562 50.0312 83.4719C50.0312 92.7875 57.2044 100.334 66.0447 100.334C74.8851 100.334 82.0582 92.7875 82.0582 83.4719C82.0582 74.1562 74.8851 66.6094 66.0447 66.6094ZM60.4613 95.9714H58.0962V75.4927H56.0412V73.1343H60.4613V95.9714ZM69.5731 96.4037C66.1611 96.4037 63.2918 94.0847 62.2837 90.8222L64.455 90.0361C65.1529 92.3552 67.1304 94.0454 69.5731 94.0454C72.5587 94.0454 74.9627 91.4511 74.9627 88.3066C74.9627 85.1621 72.5975 82.5678 69.5731 82.5678C68.1773 82.5678 67.5181 82.7644 66.7814 83.0788L65.6182 80.8777L71.1628 75.414H64.1836V73.0557H75.0402V74.9424L69.1466 80.5239L69.7282 80.4453C73.9545 80.4453 77.3278 83.7863 77.3278 88.2673C77.2891 92.7875 73.7995 96.4037 69.5731 96.4037Z" fill="#0E0F0F"/>
<path d="M260.818 429.65C269.659 429.65 276.832 422.251 276.832 413.118C276.832 403.985 269.659 396.586 260.818 396.586C251.978 396.586 244.805 403.985 244.805 413.118C244.805 422.251 251.978 429.65 260.818 429.65ZM266.402 400.902H268.767V420.979H270.822V423.291H266.402V400.902ZM257.29 400.44C260.702 400.44 263.571 402.713 264.579 405.912L262.408 406.682C261.71 404.409 259.732 402.752 257.29 402.752C254.304 402.752 251.9 405.295 251.9 408.378C251.9 411.461 254.265 414.004 257.29 414.004C258.686 414.004 259.345 413.811 260.081 413.503L261.245 415.661L255.7 421.018H262.679V423.33H251.823V421.48L257.716 416.008L257.135 416.085C252.908 416.085 249.535 412.81 249.535 408.416C249.574 403.985 253.063 400.44 257.29 400.44Z" fill="#0E0F0F"/>
<path d="M265.362 79.872C265.133 80.7536 264.828 81.6352 264.523 82.4767C264.637 79.7117 263.226 77.3875 261.129 75.7847C260.709 72.7392 260.29 69.7338 259.87 66.6884C259.832 66.5281 259.794 66.3277 259.679 66.2476C259.412 66.0873 259.146 66.3678 258.993 66.6483C257.658 68.8522 256.4 71.0963 255.218 73.4204C253.044 73.18 250.908 73.6208 249.383 74.863C251.671 69.6537 254.569 64.7649 257.963 60.2769C258.23 59.9563 258.497 59.5957 258.84 59.4354C259.603 59.1148 260.442 59.5957 261.09 60.1166C264.103 62.6411 265.819 66.5682 266.277 70.6154C266.582 73.741 266.162 76.8666 265.362 79.872Z" fill="black"/>
<path d="M256.634 89.1212C255.977 88.6585 255.165 88.1957 254.43 87.8101C253.192 87.2317 251.877 86.8846 250.523 86.7689C248.705 86.6147 246.849 86.846 245.109 87.5016C243.794 88.0029 242.556 88.8513 241.473 89.8539C240.081 91.165 238.959 92.8232 238.224 94.5199C238.456 95.0212 238.766 95.5225 238.843 95.6382C239.462 96.6023 240.351 97.335 241.357 97.8363C242.44 98.3761 243.716 98.6461 244.915 98.6461C247.274 98.6075 249.556 97.5663 251.413 96.101C252.186 95.5225 252.883 94.8284 253.54 94.1343C254.855 92.6689 255.899 90.9722 256.634 89.1212ZM234.588 106.667C235.633 105.472 236.522 104.16 237.296 102.811C235.401 102.618 233.544 103.042 231.688 103.505C232.577 104.662 233.544 105.742 234.588 106.667ZM204.73 86.6532C204.575 85.7277 204.459 84.8022 204.343 83.8382C204.382 83.9539 204.421 84.0696 204.459 84.1852C205.194 87.2702 206.238 90.3166 207.515 93.2088C206.664 90.1624 205.387 87.2317 204.459 84.1852C204.421 83.9924 204.382 83.7996 204.304 83.6068C204.034 82.4114 203.802 81.216 203.608 80.0205C203.492 77.244 203.84 74.4676 204.614 71.8453C203.647 73.6578 203.26 75.7016 203.299 77.7839C202.912 74.1976 202.873 70.6113 203.183 67.0251C203.222 66.6009 203.299 66.0996 203.686 65.9453C203.956 65.9839 204.188 65.9839 204.459 66.0224C204.537 66.061 204.653 66.0996 204.73 66.1767C209.023 68.6061 213.51 71.1512 216.681 74.8532C217.3 75.7016 217.957 76.5885 218.576 77.4369C217.996 76.5114 217.377 75.663 216.681 74.8532C215.714 73.5421 214.747 72.231 213.819 70.9584C213.239 70.1872 212.659 69.3774 212.04 68.6447C212.349 68.876 212.659 69.1074 212.968 69.3388C215.521 71.4211 217.648 73.9663 219.737 76.5499C219.969 76.8199 220.162 77.0898 220.394 77.3597L220.471 77.5525C224.223 75.9329 228.594 75.6244 232.732 75.5859C234.666 75.5473 236.561 75.5859 238.495 75.663C238.495 75.663 238.495 75.663 238.533 75.663C241.821 75.7787 245.07 76.0101 248.319 76.3571C248.512 76.3571 248.705 76.3957 248.899 76.4342C249.17 76.4728 249.44 76.4728 249.711 76.5114C249.44 76.4728 249.17 76.4342 248.899 76.4342C249.092 75.9715 249.286 75.5473 249.518 75.0846C251.065 73.8506 253.231 73.4649 255.435 73.6963C254.778 74.9303 254.12 76.2029 253.501 77.4754C255.706 78.748 257.756 80.3676 259.496 82.2186C260.115 82.8741 261.005 83.5682 261.74 83.1055C262.32 82.7199 262.32 81.8715 262.204 81.1388C261.933 79.4035 261.701 77.7068 261.43 75.9715C263.557 77.514 264.988 79.7506 264.872 82.4114C265.182 81.6016 265.453 80.7532 265.723 79.9048C265.104 87.2317 264.254 94.6356 261.74 101.538C260.425 105.125 258.645 108.557 256.441 111.68C252.07 117.812 245.689 122.902 238.224 123.943C228.284 125.331 218.46 119.123 212.929 110.755C208.172 103.505 206.006 95.0983 204.73 86.6532ZM215.095 79.7506L214.941 79.6349C213.239 77.3983 211.46 75.2388 209.681 73.0793C209.062 72.3466 208.366 71.5368 207.437 71.3826C207.205 71.344 206.973 71.344 206.78 71.4597C206.354 71.6911 206.354 72.2695 206.393 72.7323C206.818 77.7454 207.515 82.7199 208.443 87.6944C208.443 87.7715 208.482 87.8487 208.52 87.9258C208.752 88.2343 209.178 87.8872 209.371 87.5787C211.073 84.8022 213.007 82.18 215.095 79.7506ZM212.62 92.7846C212.736 92.6304 212.852 92.4761 213.007 92.3219C213.045 92.3604 213.045 92.399 213.045 92.4376C214.051 94.4428 215.443 96.3323 217.223 97.7206C217.919 98.2605 218.654 98.7618 219.466 99.1474C222.289 100.497 225.809 100.613 228.477 98.9931C229.135 98.6075 229.715 98.1448 230.257 97.6435C230.875 97.1036 231.456 96.5637 232.113 96.0624C231.61 94.6356 231.069 93.2088 230.295 91.8977C230.141 91.6663 230.025 91.4349 229.87 91.2036C228.903 89.7768 227.627 88.5042 226.08 87.7715C224.687 87.116 223.063 86.846 221.516 86.9617C220.317 87.0388 219.04 87.5402 217.803 88.2728C216.024 89.3526 214.283 90.8565 213.045 92.3219C212.968 92.1676 212.852 92.0519 212.697 92.0519C212.504 92.0519 212.427 92.4376 212.62 92.399H212.697C212.697 92.5147 212.659 92.6304 212.62 92.7461V92.7846Z" fill="black"/>
<path d="M261.739 80.9488C261.851 81.6694 261.851 82.5901 261.289 82.9904C260.576 83.4708 259.714 82.7102 259.114 82.0697C257.426 80.1482 255.438 78.4668 253.301 77.1458C253.901 75.8247 254.538 74.5037 255.176 73.2227C257.239 73.4628 259.339 74.3035 261.026 75.6246C261.251 77.3459 261.476 79.1474 261.739 80.9488Z" fill="#A2A1A2"/>
<path d="M259.9 67.1136C260.315 70.0444 260.729 72.9365 261.144 75.8672C259.447 74.5947 257.336 73.7849 255.262 73.5535C256.431 71.3555 257.675 69.1574 258.995 67.0365C259.146 66.8051 259.447 66.4966 259.674 66.6509C259.824 66.7666 259.862 66.9594 259.9 67.1136Z" fill="#A2A1A2"/>
<path d="M254.448 87.6086C255.155 88.0241 255.9 88.5642 256.57 89.0212C255.9 90.9738 254.895 92.8434 253.629 94.3806C253.74 92.054 253.182 89.6859 252.028 87.7332C251.693 87.1931 251.246 86.6115 250.688 86.57V86.4453C251.991 86.6115 253.256 86.9854 254.448 87.6086Z" fill="white"/>
<path d="M250.244 86.6066C250.823 86.6451 251.325 87.1454 251.634 87.6842C252.794 89.493 253.373 91.6867 253.296 93.8419C252.639 94.5731 251.944 95.2273 251.171 95.8046C249.316 97.2286 247.037 98.2677 244.68 98.3447C243.444 98.3831 242.207 98.1137 241.125 97.5365C239.889 95.0734 239.928 91.9946 241.28 89.6085L241.241 89.57C242.323 88.5309 243.559 87.7227 244.873 87.2224C246.573 86.5682 248.466 86.3373 250.282 86.4912L250.244 86.6066ZM242.362 96.8437C242.98 94.5731 242.787 92.1485 242.98 89.8009C241.628 91.8791 241.396 94.6116 242.362 96.8437Z" fill="#C1B665"/>
<path d="M249.381 74.543C249.171 74.9964 248.918 75.4121 248.707 75.8655C248.496 75.8277 248.285 75.8277 248.074 75.7899C248.454 75.3365 248.875 74.9208 249.381 74.543Z" fill="black"/>
<path d="M242.845 89.7539C242.74 92.1786 242.845 94.6828 242.51 97.0279C241.988 94.7225 242.113 91.9003 242.845 89.7539Z" fill="black"/>
<path d="M241.538 89.7539C240.215 92.169 240.176 95.2358 241.421 97.6892C240.409 97.1909 239.515 96.4242 238.892 95.5041C238.814 95.3891 238.542 94.8908 238.27 94.3924C239.009 92.7057 240.137 91.0573 241.538 89.7539Z" fill="white"/>
<path d="M231.734 103.73C233.465 103.26 235.196 102.829 236.963 103.025C236.242 104.436 235.377 105.729 234.439 106.944C233.429 106.004 232.528 104.906 231.734 103.73Z" fill="#D76460"/>
<path d="M238.27 75.3288C236.421 75.2529 234.534 75.2529 232.647 75.2529C228.61 75.2909 224.346 75.5942 220.686 77.187L220.61 76.9973C220.384 76.7319 220.195 76.4664 219.969 76.201C222.459 75.4426 225.138 75.2909 227.742 75.2529C231.289 75.1771 234.798 75.1771 238.27 75.3288Z" fill="black"/>
<path d="M230.172 91.7514C230.837 93.1058 231.335 94.5399 231.734 96.0537C231.169 96.5716 230.671 97.1293 230.139 97.687C230.272 96.4122 230.338 95.1375 230.239 93.8627C230.172 92.9067 230.039 91.9506 229.773 91.0742C229.94 91.2734 230.073 91.5124 230.172 91.7514Z" fill="white"/>
<path d="M219.704 90.9055H219.43C218.454 92.8663 218.102 95.1732 218.454 97.3262C219.43 95.3654 219.86 93.1355 219.704 90.9055ZM230.369 94.0966C230.486 95.3269 230.408 96.5573 230.251 97.7876C229.665 98.2874 229.079 98.7487 228.454 99.1332C225.759 100.748 222.204 100.671 219.352 99.287C218.532 98.9025 217.79 98.4412 217.086 97.8645C216.422 94.7502 216.618 91.4822 217.633 88.4449C218.922 87.7144 220.212 87.1761 221.384 87.1377C222.946 87.0224 224.548 87.253 225.993 87.9451C227.556 88.6756 228.845 89.9443 229.822 91.3669C230.134 92.2512 230.291 93.1739 230.369 94.0966Z" fill="#C1B665"/>
<path d="M219.942 90.4141C220.089 92.6577 219.683 94.98 218.795 97.0268C218.463 94.7832 218.759 92.4609 219.72 90.4534L219.942 90.4141Z" fill="black"/>
<path d="M218.66 77.1881C218.02 76.3195 217.339 75.4115 216.699 74.543C217.42 75.372 218.06 76.2406 218.66 77.1881Z" fill="black"/>
<path d="M218.006 88.4297C216.858 91.3771 216.688 94.6268 217.411 97.6875C215.498 96.3272 213.925 94.4756 212.82 92.5107C212.82 92.4729 212.777 92.4351 212.777 92.3973C214.138 90.9992 216.051 89.4877 218.006 88.4297Z" fill="white"/>
<path d="M213.792 70.7504C214.774 72.0267 215.757 73.3031 216.7 74.5419C213.438 70.9756 208.919 68.4605 204.556 66.0955C204.478 66.0579 204.36 65.9829 204.281 65.9453C207.229 66.2456 209.626 66.8463 211.984 68.4229C212.613 69.2113 213.202 69.9621 213.792 70.7504Z" fill="black"/>
<path d="M215.23 79.5134L215.393 79.628C213.16 82.0349 211.171 84.5947 209.385 87.3072C209.182 87.6128 208.695 87.9567 208.492 87.6511C208.451 87.5746 208.41 87.4982 208.41 87.4218C207.395 82.5316 206.665 77.5649 206.259 72.5983C206.218 72.1398 206.218 71.5668 206.665 71.3375C206.868 71.2229 207.152 71.2229 207.355 71.2611C208.329 71.4522 209.1 72.2163 209.709 72.9422C211.577 75.158 213.404 77.3357 215.23 79.5134Z" fill="#A2A1A2"/>
<path d="M209.386 65.5986C210.419 66.4151 211.292 67.4585 212.126 68.5927C209.744 66.6873 207.322 65.9615 204.344 65.5986C204.105 65.4625 203.867 65.4171 203.629 65.4625C205.733 64.5552 207.56 64.1015 209.386 65.5986Z" fill="black"/>
<path d="M204.281 83.8008C205.274 86.9263 206.681 89.9331 207.549 93.0586C206.184 90.0914 205.067 86.9659 204.281 83.8008Z" fill="black"/>
<path d="M204.452 83.6681C204.597 84.5816 204.791 85.495 204.936 86.4465C204.258 84.7338 203.823 82.945 203.629 81.1562C203.726 81.613 203.871 82.0697 204.016 82.5264C204.21 82.907 204.307 83.2876 204.452 83.6681Z" fill="black"/>
<path d="M204.246 83.5592C204.246 83.6394 204.283 83.7195 204.283 83.7997C204.174 83.3989 204.065 82.9981 203.992 82.5974C203.883 82.1164 203.774 81.6355 203.702 81.1546C203.665 80.7137 203.629 80.2729 203.629 79.832C203.774 81.0744 203.992 82.3168 204.246 83.5592Z" fill="black"/>
<path d="M204.283 65.9464C204.054 65.7505 203.858 65.7505 203.629 65.5546C203.662 65.5546 203.662 65.5546 203.694 65.3586C203.89 65.1627 204.086 65.3586 204.283 65.9464Z" fill="black"/>
<path d="M204.936 71.8984C204.169 74.4812 203.823 77.1762 203.938 79.8337C203.823 79.1226 203.708 78.3739 203.632 77.6628C203.593 75.6415 203.977 73.6577 204.936 71.8984Z" fill="black"/>
<path d="M56.3178 410.522C56.5806 409.622 56.8434 408.723 57.1812 407.824C57.031 410.639 58.5325 413.023 60.7097 414.704C61.1601 417.793 61.573 420.92 62.0235 424.008C62.061 424.204 62.0986 424.399 62.2487 424.477C62.5115 424.634 62.8118 424.36 62.9619 424.086C64.3508 421.819 65.6646 419.513 66.8658 417.167C69.118 417.402 71.3327 416.972 72.9092 415.682C70.5444 420.998 67.5414 426.041 64.0129 430.654C63.7502 431.006 63.4874 431.357 63.0745 431.514C62.2862 431.866 61.4229 431.358 60.7472 430.81C57.6316 428.23 55.8299 424.165 55.3794 420.06C55.0416 416.854 55.4545 413.61 56.3178 410.522Z" fill="black"/>
<path d="M88.5909 381.904C87.5068 383.147 86.5389 384.545 85.7259 385.983C87.7004 386.177 89.675 385.749 91.6108 385.245C90.7203 384.04 89.7137 382.914 88.5909 381.904ZM68.6518 395.188C67.258 396.742 66.174 398.528 65.3996 400.47C66.0965 400.936 66.9483 401.48 67.7226 401.869C69.0003 402.49 70.4328 402.84 71.8266 402.995C73.7624 403.189 75.6983 402.917 77.5179 402.218C78.9117 401.674 80.1894 400.781 81.3509 399.694C82.8221 398.295 84.0223 396.547 84.758 394.761C84.4869 394.256 84.1772 393.673 84.1385 393.595C83.4803 392.586 82.5511 391.77 81.5058 391.265C80.3443 390.682 79.0279 390.41 77.7502 390.41C75.2724 390.449 72.872 391.576 70.8974 393.091C70.0844 393.751 69.31 394.45 68.6518 395.188ZM109.111 410.414L109.266 410.53C111.085 412.9 112.944 415.191 114.802 417.483C115.46 418.26 116.196 419.114 117.164 419.308C117.396 419.347 117.667 419.347 117.861 419.231C118.287 418.998 118.287 418.376 118.248 417.871C117.822 412.55 117.086 407.268 116.08 402.024C116.08 401.946 116.041 401.83 116.002 401.791C115.77 401.48 115.305 401.83 115.112 402.179C113.331 405.093 111.318 407.85 109.111 410.414ZM106.284 401.403C108.182 400.276 110.001 398.645 111.318 397.13C111.395 397.285 111.511 397.441 111.705 397.441C111.898 397.441 112.014 397.052 111.782 397.052H111.666C111.666 396.936 111.705 396.78 111.782 396.703L111.705 396.664C111.589 396.819 111.434 396.975 111.318 397.13C111.279 397.091 111.279 397.052 111.24 397.013C110.195 394.877 108.724 392.896 106.865 391.42C106.13 390.838 105.355 390.333 104.503 389.944C101.522 388.507 97.8442 388.391 95.0179 390.139C94.3597 390.566 93.7402 391.032 93.1208 391.576C92.4626 392.158 91.8431 392.741 91.1849 393.246C91.6882 394.761 92.3077 396.276 93.1208 397.635C93.2756 397.868 93.4305 398.101 93.5854 398.373C94.592 399.888 95.9471 401.208 97.5732 402.024C99.0444 402.723 100.748 402.995 102.374 402.879C103.613 402.723 104.968 402.179 106.284 401.403ZM120.493 406.335C120.764 407.578 121.035 408.86 121.229 410.142C121.345 413.055 120.997 416.007 120.184 418.803C121.19 416.861 121.577 414.725 121.577 412.511C122.003 416.279 122.042 420.124 121.694 423.892C121.655 424.319 121.539 424.863 121.152 425.018C120.881 424.979 120.61 424.979 120.339 424.94C120.222 424.902 120.145 424.863 120.068 424.785C115.538 422.222 110.853 419.503 107.485 415.619C106.826 414.686 106.13 413.793 105.471 412.861C106.052 413.832 106.749 414.764 107.485 415.619C108.491 417.017 109.498 418.376 110.505 419.736C111.124 420.551 111.743 421.406 112.402 422.183C112.092 421.95 111.743 421.717 111.434 421.445C108.762 419.231 106.517 416.551 104.31 413.832C104.078 413.56 103.845 413.249 103.613 412.977L103.536 412.744C99.5864 414.453 95.0179 414.764 90.6429 414.842C88.5909 414.881 86.5002 414.842 84.4482 414.764C81.0412 414.609 77.6341 414.376 74.2658 414.026C74.0722 414.026 73.8786 413.987 73.6463 413.948C73.3753 413.909 73.0655 413.871 72.7945 413.871C73.0655 413.91 73.3753 413.948 73.6463 413.987C73.4527 414.453 73.2204 414.958 72.9881 415.424C71.362 416.706 69.0777 417.172 66.7547 416.9C67.4516 415.58 68.1485 414.259 68.8067 412.9C66.4837 411.54 64.3156 409.87 62.4959 407.889C61.8764 407.229 60.9085 406.452 60.1342 406.957C59.5147 407.345 59.5534 408.278 59.6309 409.015C59.9019 410.841 60.1729 412.667 60.4439 414.492C58.1983 412.861 56.6884 410.491 56.8045 407.656C56.4948 408.549 56.1851 409.443 55.9141 410.336C56.5722 402.568 57.4627 394.722 60.1342 387.42C61.528 383.613 63.3864 380.001 65.7094 376.699C70.2779 370.174 77.0533 364.814 84.8741 363.726C95.3276 362.25 105.665 368.854 111.511 377.709C116.467 385.245 118.751 394.139 120.106 403.112C120.261 404.083 120.416 405.093 120.532 406.064C120.493 405.947 120.455 405.831 120.416 405.675C119.642 402.412 118.558 399.189 117.164 396.12C118.054 399.383 119.409 402.451 120.416 405.675C120.377 405.947 120.455 406.141 120.493 406.335Z" fill="black"/>
<path d="M59.8988 408.829C59.7838 408.056 59.7455 407.08 60.3971 406.674C61.1636 406.145 62.0835 406.958 62.7351 407.65C64.5748 409.724 66.6829 411.472 68.9826 412.896C68.331 414.319 67.6794 415.702 66.9512 417.084C64.7282 416.84 62.4668 415.946 60.6654 414.522C60.4354 412.652 60.1671 410.74 59.8988 408.829Z" fill="#A2A1A2"/>
<path d="M61.8832 423.837C61.4049 420.717 60.9665 417.557 60.4883 414.438C62.3614 415.82 64.7128 416.689 67.0244 416.926C65.7491 419.295 64.3542 421.665 62.8795 423.916C62.7201 424.192 62.4013 424.468 62.1223 424.31C61.9629 424.232 61.8832 424.034 61.8832 423.837Z" fill="#A2A1A2"/>
<path d="M68.0671 402.052C67.2843 401.657 66.4624 401.105 65.7188 400.631C66.4624 398.657 67.5974 396.841 69.0064 395.262C68.889 397.591 69.5152 399.96 70.7676 401.894C71.1199 402.447 71.6287 403 72.2549 403.039V403.197C70.7676 403.079 69.3586 402.684 68.0671 402.052Z" fill="white"/>
<path d="M72.1891 402.944C71.574 402.906 71.0742 402.367 70.7282 401.829C69.4979 399.944 68.8828 397.636 68.9981 395.367C69.6901 394.598 70.4206 393.905 71.228 393.29C73.1887 391.79 75.5339 390.674 78.0329 390.636C79.3017 390.598 80.6088 390.905 81.7622 391.482C83.0694 394.059 83.0309 397.29 81.6084 399.829L81.6469 399.867C80.4935 400.944 79.2248 401.829 77.8407 402.367C76.0337 403.06 74.1114 403.329 72.1891 403.137V402.944ZM80.4935 392.213C79.8399 394.598 80.0321 397.136 79.8399 399.636C81.224 397.444 81.4931 394.598 80.4935 392.213Z" fill="#C1B665"/>
<path d="M72.9062 415.761C73.1439 415.118 73.342 414.421 73.5797 413.777C73.7777 413.831 73.9758 413.831 74.2135 413.885C73.8173 414.635 73.3816 415.279 72.9062 415.761Z" fill="black"/>
<path d="M79.4414 399.231C79.6418 396.781 79.4414 394.331 80.1227 391.957C81.1647 394.331 80.8842 397.12 79.4414 399.231Z" fill="black"/>
<path d="M81.4023 399.89C82.7546 397.287 82.7922 393.974 81.515 391.293C82.5668 391.845 83.4684 392.634 84.0694 393.659C84.1445 393.777 84.445 394.329 84.6704 394.842C83.9943 396.695 82.8298 398.47 81.4023 399.89Z" fill="white"/>
<path d="M91.863 385.247C89.9279 385.733 87.9542 386.144 85.9805 385.957C86.7932 384.538 87.7607 383.23 88.8443 382.035C89.9666 383.006 90.9729 384.089 91.863 385.247Z" fill="#D76460"/>
<path d="M84.6719 414.959C86.6977 415.03 88.7617 415.03 90.7875 415.03C95.1067 414.995 99.617 414.676 103.516 413.117L103.592 413.33C103.822 413.578 104.051 413.861 104.28 414.109C101.605 414.853 98.7761 414.995 95.9859 415.066C92.24 415.136 88.4559 415.101 84.6719 414.959Z" fill="black"/>
<path d="M93.35 397.777C92.45 396.281 91.8071 394.701 91.207 393.08C91.9356 392.498 92.6643 391.875 93.35 391.293C93.1786 392.706 93.0929 394.078 93.2214 395.491C93.3072 396.53 93.5215 397.569 93.8215 398.567C93.6929 398.276 93.5215 398.027 93.35 397.777Z" fill="white"/>
<path d="M104.339 398.647H104.611C105.66 396.561 106.01 394.128 105.621 391.85C104.65 393.935 104.222 396.291 104.339 398.647ZM93.2241 395.248C93.1075 393.935 93.1852 392.661 93.3407 391.348C93.9236 390.845 94.5454 390.343 95.2449 389.919C98.0819 388.219 101.813 388.296 104.766 389.725C105.621 390.15 106.398 390.614 107.137 391.193C107.836 394.476 107.642 397.952 106.554 401.119C105.233 401.891 103.872 402.432 102.629 402.509C100.997 402.625 99.2866 402.355 97.8099 401.66C96.1776 400.887 94.8175 399.574 93.807 398.029C93.4573 397.179 93.3018 396.214 93.2241 395.248Z" fill="#C1B665"/>
<path d="M104.307 398.57C104.169 396.315 104.585 393.986 105.451 391.957C105.798 394.174 105.486 396.541 104.55 398.57H104.307Z" fill="black"/>
<path d="M105.586 413.117C106.227 414.011 106.906 414.868 107.547 415.762C106.83 414.943 106.189 414.049 105.586 413.117Z" fill="black"/>
<path d="M106.242 401.212C107.368 398.047 107.57 394.574 106.846 391.293C108.776 392.76 110.305 394.728 111.391 396.851C111.391 396.889 111.431 396.928 111.471 396.967C110.104 398.472 108.213 400.093 106.242 401.212Z" fill="white"/>
<path d="M110.465 419.851C109.492 418.5 108.519 417.112 107.547 415.762C110.801 419.619 115.327 422.319 119.704 424.865C119.778 424.904 119.891 424.981 119.965 425.02C117.048 424.672 114.617 424.017 112.26 422.319C111.661 421.509 111.063 420.699 110.465 419.851Z" fill="black"/>
<path d="M109.01 410.5L108.855 410.386C111.091 407.891 113.095 405.206 114.868 402.37C115.061 402.03 115.523 401.69 115.755 401.992C115.793 402.068 115.832 402.143 115.832 402.219C116.834 407.324 117.566 412.466 117.99 417.646C118.029 418.138 118.029 418.705 117.605 418.97C117.412 419.083 117.142 419.083 116.911 419.046C115.909 418.856 115.177 418.062 114.56 417.268C112.633 415.075 110.783 412.806 109.01 410.5Z" fill="#A2A1A2"/>
<path d="M111.868 396.917H111.999C112.219 396.917 112.131 397.247 111.911 397.247C111.736 397.247 111.604 397.115 111.473 396.983C111.648 396.85 111.78 396.718 111.911 396.586L111.999 396.619C111.868 396.685 111.824 396.784 111.868 396.917Z" fill="black"/>
<path d="M115.053 424.873C113.955 424.185 112.979 423.316 112.125 422.375C114.687 423.968 117.331 424.584 120.503 424.91C120.747 425.018 121.032 425.091 121.276 425.018C118.998 425.743 117.046 426.105 115.053 424.873Z" fill="black"/>
<path d="M119.966 405.841C119.157 402.494 118.067 399.309 117.352 395.922C118.472 399.107 119.344 402.454 119.966 405.841Z" fill="black"/>
<path d="M119.965 405.84C120.128 405.957 120.292 406.073 120.455 406.229C120.455 406.307 120.618 406.384 120.618 406.501C120.455 406.268 120.128 406.073 119.965 405.84Z" fill="black"/>
<path d="M120.478 405.949C120.338 405.043 120.152 404.101 119.965 403.195C120.665 404.935 121.085 406.71 121.272 408.486C121.132 408.014 121.039 407.58 120.852 407.109C120.759 406.71 120.618 406.311 120.478 405.949Z" fill="black"/>
<path d="M120.654 406.107C120.654 406.031 120.621 405.954 120.621 405.84C120.719 406.259 120.817 406.641 120.915 407.061C121.013 407.557 121.111 408.014 121.209 408.51C121.242 408.93 121.275 409.388 121.275 409.807C121.111 408.587 120.883 407.366 120.654 406.107Z" fill="black"/>
<path d="M119.965 419.066C120.744 416.077 121.077 412.922 120.966 409.809C121.077 410.639 121.189 411.511 121.263 412.341C121.337 414.707 120.966 417.032 119.965 419.066Z" fill="black"/>
</svg>
