<svg width="333" height="504" viewBox="0 0 333 504" fill="none" xmlns="http://www.w3.org/2000/svg">
<g filter="url(#filter0_d)">
<path d="M328.547 60.4805C328.547 27.3434 301.684 0.480469 268.547 0.480469H64.3555C31.2184 0.480469 4.35547 27.3434 4.35547 60.4805V435.114C4.35547 468.251 31.2184 495.114 64.3555 495.114H268.547C301.684 495.114 328.547 468.251 328.547 435.114V60.4805Z" fill="white"/>
<path d="M244.608 453.454H88.2974C58.1667 453.454 33.7696 428.742 33.7696 398.309V103.939C33.7311 73.4663 58.1667 48.7539 88.2974 48.7539H244.608C274.739 48.7539 299.136 73.4664 299.136 103.9V398.27C299.136 428.781 274.7 453.454 244.608 453.454Z" fill="#D34D4B"/>
<path d="M72.3215 200.747V251.036H81.8332V187.032H77.9747L60.5664 197.639V207.879L72.3215 200.747Z" fill="black"/>
<path d="M95.8898 234.303C97.2358 245.55 104.953 251.767 115.452 251.767C127.835 251.767 135.462 242.715 135.462 230.189C135.462 217.845 128.642 208.611 115.99 208.611C112.49 208.611 108.991 209.982 106.837 211.811L108.722 195.81H131.963V187.032H100.735L97.2358 222.691L103.427 223.971C106.389 219.948 110.696 217.388 115.452 217.388C122.63 217.388 125.95 222.6 125.95 230.189C125.95 237.869 122.271 242.989 115.452 242.989C110.427 242.989 106.209 240.155 105.132 232.566L95.8898 234.303Z" fill="black"/>
<path d="M148.752 244.727C148.752 248.658 151.713 251.493 155.392 251.493C159.071 251.493 162.032 248.658 162.032 244.727C162.032 240.795 159.071 237.961 155.392 237.961C151.713 237.961 148.752 240.795 148.752 244.727ZM148.752 215.194C148.752 219.125 151.713 221.96 155.392 221.96C159.071 221.96 162.032 219.125 162.032 215.194C162.032 211.262 159.071 208.428 155.392 208.428C151.713 208.428 148.752 211.262 148.752 215.194Z" fill="black"/>
<path d="M175.435 219.034C175.435 239.149 183.242 251.767 198.048 251.767C212.854 251.767 220.661 239.149 220.661 219.034C220.661 198.919 212.854 186.301 198.048 186.301C183.242 186.301 175.435 198.919 175.435 219.034ZM184.947 219.034C184.947 204.039 189.164 195.078 198.048 195.078C206.931 195.078 211.149 204.039 211.149 219.034C211.149 234.029 206.931 242.989 198.048 242.989C189.164 242.989 184.947 234.029 184.947 219.034Z" fill="black"/>
<path d="M230.379 219.034C230.379 239.149 238.186 251.767 252.992 251.767C267.798 251.767 275.605 239.149 275.605 219.034C275.605 198.919 267.798 186.301 252.992 186.301C238.186 186.301 230.379 198.919 230.379 219.034ZM239.891 219.034C239.891 204.039 244.108 195.078 252.992 195.078C261.875 195.078 266.093 204.039 266.093 219.034C266.093 234.029 261.875 242.989 252.992 242.989C244.108 242.989 239.891 234.029 239.891 219.034Z" fill="black"/>
<path d="M70.0447 66.6094C61.2044 66.6094 54.0312 74.1562 54.0312 83.4719C54.0312 92.7875 61.2044 100.334 70.0447 100.334C78.8851 100.334 86.0582 92.7875 86.0582 83.4719C86.0582 74.1562 78.8851 66.6094 70.0447 66.6094ZM64.4613 95.9714H62.0962V75.4927H60.0412V73.1343H64.4613V95.9714ZM73.5731 96.4037C70.1611 96.4037 67.2918 94.0847 66.2837 90.8222L68.455 90.0361C69.1529 92.3552 71.1304 94.0454 73.5731 94.0454C76.5587 94.0454 78.9627 91.4511 78.9627 88.3066C78.9627 85.1621 76.5975 82.5678 73.5731 82.5678C72.1773 82.5678 71.5181 82.7644 70.7814 83.0788L69.6182 80.8777L75.1628 75.414H68.1836V73.0557H79.0402V74.9424L73.1466 80.5239L73.7282 80.4453C77.9545 80.4453 81.3278 83.7863 81.3278 88.2673C81.2891 92.7875 77.7995 96.4037 73.5731 96.4037Z" fill="#0E0F0F"/>
<path d="M264.818 429.65C273.659 429.65 280.832 422.251 280.832 413.118C280.832 403.985 273.659 396.586 264.818 396.586C255.978 396.586 248.805 403.985 248.805 413.118C248.805 422.251 255.978 429.65 264.818 429.65ZM270.402 400.902H272.767V420.979H274.822V423.291H270.402V400.902ZM261.29 400.44C264.702 400.44 267.571 402.713 268.579 405.912L266.408 406.682C265.71 404.409 263.733 402.752 261.29 402.752C258.304 402.752 255.9 405.295 255.9 408.378C255.9 411.461 258.265 414.004 261.29 414.004C262.686 414.004 263.345 413.811 264.081 413.503L265.245 415.661L259.7 421.018H266.679V423.33H255.823V421.48L261.716 416.008L261.135 416.085C256.908 416.085 253.535 412.81 253.535 408.416C253.574 403.985 257.063 400.44 261.29 400.44Z" fill="#0E0F0F"/>
<path d="M269.362 79.872C269.133 80.7536 268.828 81.6352 268.523 82.4767C268.637 79.7117 267.226 77.3875 265.129 75.7847C264.709 72.7392 264.29 69.7338 263.87 66.6884C263.832 66.5281 263.794 66.3277 263.679 66.2476C263.412 66.0873 263.146 66.3678 262.993 66.6483C261.658 68.8522 260.4 71.0963 259.218 73.4204C257.044 73.18 254.908 73.6208 253.383 74.863C255.671 69.6537 258.569 64.7649 261.963 60.2769C262.23 59.9563 262.497 59.5957 262.84 59.4354C263.603 59.1148 264.442 59.5957 265.09 60.1166C268.103 62.6411 269.819 66.5682 270.277 70.6154C270.582 73.741 270.162 76.8666 269.362 79.872Z" fill="black"/>
<path d="M260.634 89.1212C259.977 88.6585 259.165 88.1957 258.43 87.8101C257.192 87.2317 255.877 86.8846 254.523 86.7689C252.705 86.6147 250.849 86.846 249.109 87.5016C247.794 88.0029 246.556 88.8513 245.473 89.8539C244.081 91.165 242.959 92.8232 242.224 94.5199C242.456 95.0212 242.766 95.5225 242.843 95.6382C243.462 96.6023 244.351 97.335 245.357 97.8363C246.44 98.3761 247.716 98.6461 248.915 98.6461C251.274 98.6075 253.556 97.5663 255.413 96.101C256.186 95.5225 256.883 94.8284 257.54 94.1343C258.855 92.6689 259.899 90.9722 260.634 89.1212ZM238.588 106.667C239.633 105.472 240.522 104.16 241.296 102.811C239.401 102.618 237.544 103.042 235.688 103.505C236.577 104.662 237.544 105.742 238.588 106.667ZM208.73 86.6532C208.575 85.7277 208.459 84.8022 208.343 83.8382C208.382 83.9539 208.421 84.0696 208.459 84.1852C209.194 87.2702 210.238 90.3166 211.515 93.2088C210.664 90.1624 209.387 87.2317 208.459 84.1852C208.421 83.9924 208.382 83.7996 208.304 83.6068C208.034 82.4114 207.802 81.216 207.608 80.0205C207.492 77.244 207.84 74.4676 208.614 71.8453C207.647 73.6578 207.26 75.7016 207.299 77.7839C206.912 74.1976 206.873 70.6113 207.183 67.0251C207.222 66.6009 207.299 66.0996 207.686 65.9453C207.956 65.9839 208.188 65.9839 208.459 66.0224C208.537 66.061 208.653 66.0996 208.73 66.1767C213.023 68.6061 217.51 71.1512 220.681 74.8532C221.3 75.7016 221.957 76.5885 222.576 77.4369C221.996 76.5114 221.377 75.663 220.681 74.8532C219.714 73.5421 218.747 72.231 217.819 70.9584C217.239 70.1872 216.659 69.3774 216.04 68.6447C216.349 68.876 216.659 69.1074 216.968 69.3388C219.521 71.4211 221.648 73.9663 223.737 76.5499C223.969 76.8199 224.162 77.0898 224.394 77.3597L224.471 77.5525C228.223 75.9329 232.594 75.6244 236.732 75.5859C238.666 75.5473 240.561 75.5859 242.495 75.663C242.495 75.663 242.495 75.663 242.533 75.663C245.821 75.7787 249.07 76.0101 252.319 76.3571C252.512 76.3571 252.705 76.3957 252.899 76.4342C253.17 76.4728 253.44 76.4728 253.711 76.5114C253.44 76.4728 253.17 76.4342 252.899 76.4342C253.092 75.9715 253.286 75.5473 253.518 75.0846C255.065 73.8506 257.231 73.4649 259.435 73.6963C258.778 74.9303 258.12 76.2029 257.501 77.4754C259.706 78.748 261.756 80.3676 263.496 82.2186C264.115 82.8741 265.005 83.5682 265.74 83.1055C266.32 82.7199 266.32 81.8715 266.204 81.1388C265.933 79.4035 265.701 77.7068 265.43 75.9715C267.557 77.514 268.988 79.7506 268.872 82.4114C269.182 81.6016 269.453 80.7532 269.723 79.9048C269.104 87.2317 268.254 94.6356 265.74 101.538C264.425 105.125 262.645 108.557 260.441 111.68C256.07 117.812 249.689 122.902 242.224 123.943C232.284 125.331 222.46 119.123 216.929 110.755C212.172 103.505 210.006 95.0984 208.73 86.6532ZM219.095 79.7506L218.941 79.6349C217.239 77.3983 215.46 75.2388 213.681 73.0793C213.062 72.3466 212.366 71.5368 211.437 71.3826C211.205 71.344 210.973 71.344 210.78 71.4597C210.354 71.6911 210.354 72.2695 210.393 72.7323C210.818 77.7454 211.515 82.7199 212.443 87.6944C212.443 87.7715 212.482 87.8487 212.52 87.9258C212.752 88.2343 213.178 87.8872 213.371 87.5787C215.073 84.8022 217.007 82.18 219.095 79.7506ZM216.62 92.7846C216.736 92.6304 216.852 92.4761 217.007 92.3219C217.045 92.3604 217.045 92.399 217.045 92.4376C218.051 94.4428 219.443 96.3323 221.223 97.7206C221.919 98.2605 222.654 98.7618 223.466 99.1474C226.289 100.497 229.809 100.613 232.477 98.9931C233.135 98.6075 233.715 98.1448 234.257 97.6435C234.875 97.1036 235.456 96.5637 236.113 96.0624C235.61 94.6356 235.069 93.2088 234.295 91.8977C234.141 91.6663 234.025 91.4349 233.87 91.2036C232.903 89.7768 231.627 88.5042 230.08 87.7715C228.687 87.116 227.063 86.846 225.516 86.9617C224.317 87.0388 223.04 87.5402 221.803 88.2728C220.024 89.3526 218.283 90.8565 217.045 92.3219C216.968 92.1676 216.852 92.0519 216.697 92.0519C216.504 92.0519 216.427 92.4376 216.62 92.399H216.697C216.697 92.5147 216.659 92.6304 216.62 92.7461V92.7846Z" fill="black"/>
<path d="M265.739 80.9488C265.851 81.6694 265.851 82.5901 265.289 82.9904C264.576 83.4708 263.714 82.7102 263.114 82.0697C261.426 80.1482 259.438 78.4668 257.301 77.1458C257.901 75.8247 258.538 74.5037 259.176 73.2227C261.239 73.4628 263.339 74.3035 265.026 75.6246C265.251 77.3459 265.476 79.1474 265.739 80.9488Z" fill="#A2A1A2"/>
<path d="M263.9 67.1136C264.315 70.0444 264.729 72.9365 265.144 75.8672C263.447 74.5947 261.336 73.7849 259.262 73.5535C260.431 71.3555 261.675 69.1574 262.995 67.0365C263.146 66.8051 263.447 66.4966 263.674 66.6509C263.824 66.7666 263.862 66.9594 263.9 67.1136Z" fill="#A2A1A2"/>
<path d="M258.448 87.6086C259.155 88.0241 259.9 88.5642 260.57 89.0212C259.9 90.9738 258.895 92.8434 257.629 94.3806C257.74 92.054 257.182 89.6859 256.028 87.7332C255.693 87.1931 255.246 86.6115 254.688 86.57V86.4453C255.991 86.6115 257.256 86.9854 258.448 87.6086Z" fill="white"/>
<path d="M254.244 86.6066C254.823 86.6451 255.325 87.1454 255.634 87.6842C256.794 89.493 257.373 91.6867 257.296 93.8419C256.639 94.5731 255.944 95.2273 255.171 95.8046C253.316 97.2286 251.037 98.2677 248.68 98.3447C247.444 98.3831 246.207 98.1137 245.125 97.5365C243.889 95.0734 243.928 91.9946 245.28 89.6085L245.241 89.57C246.323 88.5309 247.559 87.7227 248.873 87.2224C250.573 86.5682 252.466 86.3373 254.282 86.4912L254.244 86.6066ZM246.362 96.8437C246.98 94.5731 246.787 92.1485 246.98 89.8009C245.628 91.8791 245.396 94.6116 246.362 96.8437Z" fill="#C1B665"/>
<path d="M253.381 74.543C253.171 74.9964 252.918 75.4121 252.707 75.8655C252.496 75.8277 252.285 75.8277 252.074 75.7899C252.454 75.3365 252.875 74.9208 253.381 74.543Z" fill="black"/>
<path d="M246.845 89.7539C246.74 92.1786 246.845 94.6828 246.51 97.0279C245.988 94.7225 246.113 91.9003 246.845 89.7539Z" fill="black"/>
<path d="M245.538 89.7539C244.215 92.169 244.176 95.2358 245.421 97.6892C244.409 97.1909 243.515 96.4242 242.892 95.5041C242.814 95.3891 242.542 94.8908 242.27 94.3924C243.009 92.7057 244.137 91.0573 245.538 89.7539Z" fill="white"/>
<path d="M235.734 103.73C237.465 103.26 239.196 102.829 240.963 103.025C240.242 104.436 239.377 105.729 238.439 106.944C237.429 106.004 236.528 104.906 235.734 103.73Z" fill="#D76460"/>
<path d="M242.27 75.3288C240.421 75.2529 238.534 75.2529 236.647 75.2529C232.61 75.2909 228.346 75.5942 224.686 77.187L224.61 76.9973C224.384 76.7319 224.195 76.4664 223.969 76.201C226.459 75.4426 229.138 75.2909 231.742 75.2529C235.289 75.1771 238.798 75.1771 242.27 75.3288Z" fill="black"/>
<path d="M234.172 91.7514C234.837 93.1058 235.335 94.5399 235.734 96.0537C235.169 96.5716 234.671 97.1293 234.139 97.687C234.272 96.4122 234.338 95.1375 234.239 93.8627C234.172 92.9067 234.039 91.9506 233.773 91.0742C233.94 91.2734 234.073 91.5124 234.172 91.7514Z" fill="white"/>
<path d="M223.704 90.9055H223.43C222.454 92.8663 222.102 95.1732 222.454 97.3262C223.43 95.3654 223.86 93.1355 223.704 90.9055ZM234.369 94.0966C234.486 95.3269 234.408 96.5573 234.251 97.7876C233.665 98.2874 233.079 98.7487 232.454 99.1332C229.759 100.748 226.204 100.671 223.352 99.287C222.532 98.9025 221.79 98.4412 221.086 97.8645C220.422 94.7502 220.618 91.4822 221.633 88.4449C222.922 87.7144 224.212 87.1761 225.384 87.1377C226.946 87.0224 228.548 87.253 229.993 87.9451C231.556 88.6756 232.845 89.9443 233.822 91.3669C234.134 92.2512 234.291 93.1739 234.369 94.0966Z" fill="#C1B665"/>
<path d="M223.942 90.4141C224.089 92.6577 223.683 94.98 222.795 97.0268C222.463 94.7832 222.759 92.4609 223.72 90.4534L223.942 90.4141Z" fill="black"/>
<path d="M222.66 77.1881C222.02 76.3195 221.339 75.4115 220.699 74.543C221.42 75.372 222.06 76.2406 222.66 77.1881Z" fill="black"/>
<path d="M222.006 88.4297C220.858 91.3771 220.688 94.6268 221.411 97.6875C219.498 96.3272 217.925 94.4756 216.82 92.5107C216.82 92.4729 216.777 92.4351 216.777 92.3973C218.138 90.9992 220.051 89.4877 222.006 88.4297Z" fill="white"/>
<path d="M217.792 70.7504C218.774 72.0267 219.757 73.3031 220.7 74.5419C217.438 70.9756 212.919 68.4605 208.556 66.0955C208.478 66.0579 208.36 65.9829 208.281 65.9453C211.229 66.2456 213.626 66.8463 215.984 68.4229C216.613 69.2113 217.202 69.962 217.792 70.7504Z" fill="black"/>
<path d="M219.23 79.5134L219.393 79.628C217.16 82.0349 215.171 84.5947 213.385 87.3072C213.182 87.6128 212.695 87.9567 212.492 87.6511C212.451 87.5746 212.41 87.4982 212.41 87.4218C211.395 82.5316 210.665 77.5649 210.259 72.5983C210.218 72.1398 210.218 71.5668 210.665 71.3375C210.868 71.2229 211.152 71.2229 211.355 71.2611C212.329 71.4522 213.1 72.2163 213.709 72.9422C215.577 75.158 217.404 77.3357 219.23 79.5134Z" fill="#A2A1A2"/>
<path d="M213.386 65.5986C214.419 66.4151 215.292 67.4585 216.126 68.5927C213.744 66.6873 211.322 65.9615 208.344 65.5986C208.105 65.4625 207.867 65.4171 207.629 65.4625C209.733 64.5552 211.56 64.1015 213.386 65.5986Z" fill="black"/>
<path d="M208.281 83.8008C209.274 86.9263 210.681 89.9331 211.549 93.0586C210.184 90.0914 209.067 86.9659 208.281 83.8008Z" fill="black"/>
<path d="M208.452 83.6681C208.597 84.5816 208.791 85.495 208.936 86.4465C208.258 84.7338 207.823 82.945 207.629 81.1562C207.726 81.613 207.871 82.0697 208.016 82.5264C208.21 82.907 208.307 83.2876 208.452 83.6681Z" fill="black"/>
<path d="M208.246 83.5592C208.246 83.6394 208.283 83.7195 208.283 83.7997C208.174 83.3989 208.065 82.9981 207.992 82.5974C207.883 82.1164 207.774 81.6355 207.702 81.1546C207.665 80.7137 207.629 80.2729 207.629 79.832C207.774 81.0744 207.992 82.3168 208.246 83.5592Z" fill="black"/>
<path d="M208.283 65.9464C208.054 65.7505 207.858 65.7505 207.629 65.5546C207.662 65.5546 207.662 65.5546 207.694 65.3586C207.89 65.1627 208.086 65.3586 208.283 65.9464Z" fill="black"/>
<path d="M208.936 71.8984C208.169 74.4812 207.823 77.1762 207.938 79.8337C207.823 79.1226 207.708 78.3739 207.632 77.6628C207.593 75.6415 207.977 73.6577 208.936 71.8984Z" fill="black"/>
<path d="M60.3178 410.522C60.5806 409.622 60.8434 408.723 61.1812 407.824C61.031 410.639 62.5325 413.023 64.7097 414.704C65.1601 417.793 65.573 420.92 66.0235 424.008C66.061 424.204 66.0986 424.399 66.2487 424.477C66.5115 424.634 66.8118 424.36 66.9619 424.086C68.3508 421.819 69.6646 419.513 70.8658 417.167C73.118 417.402 75.3327 416.972 76.9092 415.682C74.5444 420.998 71.5414 426.041 68.0129 430.654C67.7502 431.006 67.4874 431.357 67.0745 431.514C66.2862 431.866 65.4229 431.358 64.7472 430.81C61.6316 428.23 59.8299 424.165 59.3794 420.06C59.0416 416.854 59.4545 413.61 60.3178 410.522Z" fill="black"/>
<path d="M92.5909 381.904C91.5068 383.147 90.5389 384.545 89.7259 385.983C91.7004 386.177 93.675 385.749 95.6108 385.245C94.7203 384.04 93.7137 382.914 92.5909 381.904ZM72.6518 395.188C71.258 396.742 70.174 398.528 69.3996 400.47C70.0965 400.936 70.9483 401.48 71.7226 401.869C73.0003 402.49 74.4328 402.84 75.8266 402.995C77.7624 403.189 79.6983 402.917 81.5179 402.218C82.9117 401.674 84.1894 400.781 85.3509 399.694C86.8221 398.295 88.0223 396.547 88.758 394.761C88.4869 394.256 88.1772 393.673 88.1385 393.595C87.4803 392.586 86.5511 391.77 85.5058 391.265C84.3443 390.682 83.0279 390.41 81.7502 390.41C79.2724 390.449 76.872 391.576 74.8974 393.091C74.0844 393.751 73.31 394.45 72.6518 395.188ZM113.111 410.414L113.266 410.53C115.085 412.9 116.944 415.191 118.802 417.483C119.46 418.26 120.196 419.114 121.164 419.308C121.396 419.347 121.667 419.347 121.861 419.231C122.287 418.998 122.287 418.376 122.248 417.871C121.822 412.55 121.086 407.268 120.08 402.024C120.08 401.946 120.041 401.83 120.002 401.791C119.77 401.48 119.305 401.83 119.112 402.179C117.331 405.093 115.318 407.85 113.111 410.414ZM110.284 401.403C112.182 400.276 114.001 398.645 115.318 397.13C115.395 397.285 115.511 397.441 115.705 397.441C115.898 397.441 116.014 397.052 115.782 397.052H115.666C115.666 396.936 115.705 396.78 115.782 396.703L115.705 396.664C115.589 396.819 115.434 396.975 115.318 397.13C115.279 397.091 115.279 397.052 115.24 397.013C114.195 394.877 112.724 392.896 110.865 391.42C110.13 390.838 109.355 390.333 108.503 389.944C105.522 388.507 101.844 388.391 99.0179 390.139C98.3597 390.566 97.7402 391.032 97.1208 391.576C96.4626 392.158 95.8431 392.741 95.1849 393.246C95.6882 394.761 96.3077 396.276 97.1208 397.635C97.2756 397.868 97.4305 398.101 97.5854 398.373C98.592 399.888 99.9471 401.208 101.573 402.024C103.044 402.723 104.748 402.995 106.374 402.879C107.613 402.723 108.968 402.179 110.284 401.403ZM124.493 406.335C124.764 407.578 125.035 408.86 125.229 410.142C125.345 413.055 124.997 416.007 124.184 418.803C125.19 416.861 125.577 414.725 125.577 412.511C126.003 416.279 126.042 420.124 125.694 423.892C125.655 424.319 125.539 424.863 125.152 425.018C124.881 424.979 124.61 424.979 124.339 424.94C124.222 424.902 124.145 424.863 124.068 424.785C119.538 422.222 114.853 419.503 111.485 415.619C110.826 414.686 110.13 413.793 109.471 412.861C110.052 413.832 110.749 414.764 111.485 415.619C112.491 417.017 113.498 418.376 114.505 419.736C115.124 420.551 115.743 421.406 116.402 422.183C116.092 421.95 115.743 421.717 115.434 421.445C112.762 419.231 110.517 416.551 108.31 413.832C108.078 413.56 107.845 413.249 107.613 412.977L107.536 412.744C103.586 414.453 99.0179 414.764 94.6429 414.842C92.5909 414.881 90.5002 414.842 88.4482 414.764C85.0412 414.609 81.6341 414.376 78.2658 414.026C78.0722 414.026 77.8786 413.987 77.6463 413.948C77.3753 413.909 77.0655 413.871 76.7945 413.871C77.0655 413.91 77.3753 413.948 77.6463 413.987C77.4527 414.453 77.2204 414.958 76.9881 415.424C75.362 416.706 73.0777 417.172 70.7547 416.9C71.4516 415.58 72.1485 414.259 72.8067 412.9C70.4837 411.54 68.3156 409.87 66.4959 407.889C65.8764 407.229 64.9085 406.452 64.1342 406.957C63.5147 407.345 63.5534 408.278 63.6309 409.015C63.9019 410.841 64.1729 412.667 64.4439 414.492C62.1983 412.861 60.6884 410.491 60.8045 407.656C60.4948 408.549 60.1851 409.443 59.9141 410.336C60.5722 402.568 61.4627 394.722 64.1342 387.42C65.528 383.613 67.3864 380.001 69.7094 376.699C74.2779 370.174 81.0533 364.814 88.8741 363.726C99.3276 362.25 109.665 368.854 115.511 377.709C120.467 385.245 122.751 394.139 124.106 403.112C124.261 404.083 124.416 405.093 124.532 406.064C124.493 405.947 124.455 405.831 124.416 405.675C123.642 402.412 122.558 399.189 121.164 396.12C122.054 399.383 123.409 402.451 124.416 405.675C124.377 405.947 124.455 406.141 124.493 406.335Z" fill="black"/>
<path d="M63.8988 408.829C63.7838 408.056 63.7455 407.08 64.3971 406.674C65.1636 406.145 66.0835 406.958 66.7351 407.65C68.5748 409.724 70.6829 411.472 72.9826 412.896C72.331 414.319 71.6794 415.702 70.9512 417.084C68.7282 416.84 66.4668 415.946 64.6654 414.522C64.4354 412.652 64.1671 410.74 63.8988 408.829Z" fill="#A2A1A2"/>
<path d="M65.8832 423.837C65.4049 420.717 64.9665 417.557 64.4883 414.438C66.3614 415.82 68.7128 416.689 71.0244 416.926C69.7491 419.295 68.3542 421.665 66.8795 423.916C66.7201 424.192 66.4013 424.468 66.1223 424.31C65.9629 424.232 65.8832 424.034 65.8832 423.837Z" fill="#A2A1A2"/>
<path d="M72.0671 402.052C71.2843 401.657 70.4624 401.105 69.7188 400.631C70.4624 398.657 71.5974 396.841 73.0064 395.262C72.889 397.591 73.5152 399.96 74.7676 401.894C75.1199 402.447 75.6287 403 76.2549 403.039V403.197C74.7676 403.079 73.3586 402.684 72.0671 402.052Z" fill="white"/>
<path d="M76.1891 402.944C75.574 402.906 75.0742 402.367 74.7282 401.829C73.4979 399.944 72.8828 397.636 72.9981 395.367C73.6901 394.598 74.4206 393.905 75.228 393.29C77.1887 391.79 79.5339 390.674 82.0329 390.636C83.3017 390.598 84.6088 390.905 85.7622 391.482C87.0694 394.059 87.0309 397.29 85.6084 399.829L85.6469 399.867C84.4935 400.944 83.2248 401.829 81.8407 402.367C80.0337 403.06 78.1114 403.329 76.1891 403.137V402.944ZM84.4935 392.213C83.8399 394.598 84.0321 397.136 83.8399 399.636C85.224 397.444 85.4931 394.598 84.4935 392.213Z" fill="#C1B665"/>
<path d="M76.9062 415.761C77.1439 415.118 77.342 414.421 77.5797 413.777C77.7777 413.831 77.9758 413.831 78.2135 413.885C77.8173 414.635 77.3816 415.279 76.9062 415.761Z" fill="black"/>
<path d="M83.4414 399.231C83.6418 396.781 83.4414 394.331 84.1227 391.957C85.1647 394.331 84.8842 397.12 83.4414 399.231Z" fill="black"/>
<path d="M85.4023 399.89C86.7546 397.287 86.7922 393.974 85.515 391.293C86.5668 391.845 87.4684 392.634 88.0694 393.659C88.1445 393.777 88.445 394.329 88.6704 394.842C87.9943 396.695 86.8298 398.47 85.4023 399.89Z" fill="white"/>
<path d="M95.863 385.247C93.9279 385.733 91.9542 386.144 89.9805 385.957C90.7932 384.538 91.7607 383.23 92.8443 382.035C93.9666 383.006 94.9729 384.089 95.863 385.247Z" fill="#D76460"/>
<path d="M88.6719 414.959C90.6977 415.03 92.7617 415.03 94.7875 415.03C99.1067 414.995 103.617 414.676 107.516 413.117L107.592 413.33C107.822 413.578 108.051 413.861 108.28 414.109C105.605 414.853 102.776 414.995 99.9859 415.066C96.24 415.136 92.4559 415.101 88.6719 414.959Z" fill="black"/>
<path d="M97.35 397.777C96.45 396.281 95.8071 394.701 95.207 393.08C95.9356 392.498 96.6643 391.875 97.35 391.293C97.1786 392.706 97.0929 394.078 97.2214 395.491C97.3072 396.53 97.5215 397.569 97.8215 398.567C97.6929 398.276 97.5215 398.027 97.35 397.777Z" fill="white"/>
<path d="M108.339 398.647H108.611C109.66 396.561 110.01 394.128 109.621 391.85C108.65 393.935 108.222 396.291 108.339 398.647ZM97.2241 395.248C97.1075 393.935 97.1852 392.661 97.3407 391.348C97.9236 390.845 98.5454 390.343 99.2449 389.919C102.082 388.219 105.813 388.296 108.766 389.725C109.621 390.15 110.398 390.614 111.137 391.193C111.836 394.476 111.642 397.952 110.554 401.119C109.233 401.891 107.872 402.432 106.629 402.509C104.997 402.625 103.287 402.355 101.81 401.66C100.178 400.887 98.8175 399.574 97.807 398.029C97.4573 397.179 97.3018 396.214 97.2241 395.248Z" fill="#C1B665"/>
<path d="M108.307 398.57C108.169 396.315 108.585 393.986 109.451 391.957C109.798 394.174 109.486 396.541 108.55 398.57H108.307Z" fill="black"/>
<path d="M109.586 413.117C110.227 414.011 110.906 414.868 111.547 415.762C110.83 414.943 110.189 414.049 109.586 413.117Z" fill="black"/>
<path d="M110.242 401.212C111.368 398.047 111.57 394.574 110.846 391.293C112.776 392.76 114.305 394.728 115.391 396.851C115.391 396.889 115.431 396.928 115.471 396.967C114.104 398.472 112.213 400.093 110.242 401.212Z" fill="white"/>
<path d="M114.465 419.851C113.492 418.5 112.519 417.112 111.547 415.762C114.801 419.619 119.327 422.319 123.704 424.865C123.778 424.904 123.891 424.981 123.965 425.02C121.048 424.672 118.617 424.017 116.26 422.319C115.661 421.509 115.063 420.699 114.465 419.851Z" fill="black"/>
<path d="M113.01 410.5L112.855 410.386C115.091 407.891 117.095 405.206 118.868 402.37C119.061 402.03 119.523 401.69 119.755 401.992C119.793 402.068 119.832 402.143 119.832 402.219C120.834 407.324 121.566 412.466 121.99 417.646C122.029 418.138 122.029 418.705 121.605 418.97C121.412 419.083 121.142 419.083 120.911 419.046C119.909 418.856 119.177 418.062 118.56 417.268C116.633 415.075 114.783 412.806 113.01 410.5Z" fill="#A2A1A2"/>
<path d="M115.868 396.917H115.999C116.219 396.917 116.131 397.247 115.911 397.247C115.736 397.247 115.604 397.115 115.473 396.983C115.648 396.85 115.78 396.718 115.911 396.586L115.999 396.619C115.868 396.685 115.824 396.784 115.868 396.917Z" fill="black"/>
<path d="M119.053 424.873C117.955 424.185 116.979 423.316 116.125 422.375C118.687 423.968 121.331 424.584 124.503 424.91C124.747 425.018 125.032 425.091 125.276 425.018C122.998 425.743 121.046 426.105 119.053 424.873Z" fill="black"/>
<path d="M123.966 405.841C123.157 402.494 122.067 399.309 121.352 395.922C122.472 399.107 123.344 402.454 123.966 405.841Z" fill="black"/>
<path d="M123.965 405.84C124.128 405.957 124.292 406.073 124.455 406.229C124.455 406.307 124.618 406.384 124.618 406.501C124.455 406.268 124.128 406.073 123.965 405.84Z" fill="black"/>
<path d="M124.478 405.949C124.338 405.043 124.152 404.101 123.965 403.195C124.665 404.935 125.085 406.71 125.272 408.486C125.132 408.014 125.039 407.58 124.852 407.109C124.759 406.71 124.618 406.311 124.478 405.949Z" fill="black"/>
<path d="M124.654 406.107C124.654 406.031 124.621 405.954 124.621 405.84C124.719 406.259 124.817 406.641 124.915 407.061C125.013 407.557 125.111 408.014 125.209 408.51C125.242 408.93 125.275 409.388 125.275 409.807C125.111 408.587 124.883 407.366 124.654 406.107Z" fill="black"/>
<path d="M123.965 419.066C124.744 416.077 125.077 412.922 124.966 409.809C125.077 410.639 125.189 411.511 125.263 412.341C125.337 414.707 124.966 417.032 123.965 419.066Z" fill="black"/>
</g>
<defs>
<filter id="filter0_d" x="0.355469" y="0.480469" width="332.191" height="502.634" filterUnits="userSpaceOnUse" color-interpolation-filters="sRGB">
<feFlood flood-opacity="0" result="BackgroundImageFix"/>
<feColorMatrix in="SourceAlpha" type="matrix" values="0 0 0 0 0 0 0 0 0 0 0 0 0 0 0 0 0 0 127 0"/>
<feOffset dy="4"/>
<feGaussianBlur stdDeviation="2"/>
<feColorMatrix type="matrix" values="0 0 0 0 0 0 0 0 0 0 0 0 0 0 0 0 0 0 0.25 0"/>
<feBlend mode="normal" in2="BackgroundImageFix" result="effect1_dropShadow"/>
<feBlend mode="normal" in="SourceGraphic" in2="effect1_dropShadow" result="shape"/>
</filter>
</defs>
</svg>
