<svg width="335" height="500" viewBox="0 0 335 500" fill="none" xmlns="http://www.w3.org/2000/svg">
<path d="M334.698 51.2657C334.757 23.6515 312.418 1.21854 284.804 1.16021L51.8046 0.668103C24.1904 0.60978 1.75741 22.9482 1.69908 50.5624L0.858484 448.561C0.800161 476.176 23.1386 498.609 50.7528 498.667L283.752 499.159C311.366 499.217 333.799 476.879 333.858 449.265L334.698 51.2657Z" fill="white"/>
<path d="M248.566 454.084L86.1397 453.741C55.5897 453.676 30.9053 428.94 30.9695 398.543L31.5985 100.706C31.6628 70.2698 56.4904 45.6773 87.0014 45.7418L249.428 46.0848C279.978 46.1493 304.662 70.8852 304.598 101.283L303.969 399.119C303.905 429.517 279.116 454.148 248.566 454.084Z" fill="#0D0E0F"/>
<path d="M53.1568 327.644L53.1193 327.499C54.403 327.213 55.6865 326.963 56.9701 326.676C57.9454 329.461 58.6564 332.282 59.1031 335.175C58.0462 335.353 56.9892 335.532 55.9323 335.674C55.0323 332.997 54.0945 330.321 53.1568 327.644Z" fill="#D9D9D9"/>
<path d="M57.1262 339.678C56.7953 338.54 56.4273 337.402 56.0965 336.225C57.1339 336.031 58.1713 335.876 59.2088 335.682C59.2453 335.918 59.2819 336.114 59.2814 336.349C59.3909 337.134 59.5003 337.957 59.9806 338.508L60.0906 339.018C59.1271 339.251 58.1267 339.484 57.1262 339.678Z" fill="black"/>
<path d="M57.1166 326.975C57.6759 326.865 58.2353 326.756 58.7946 326.683C59.5626 329.599 60.3307 332.514 61.0987 335.43C60.5824 335.503 60.0661 335.575 59.5498 335.685C59.04 332.696 58.2289 329.78 57.1166 326.975Z" fill="black"/>
<path d="M60.7524 335.895C61.1664 335.813 61.5343 335.772 61.9482 335.69C62.3596 336.815 62.7251 337.941 63.0905 339.067C62.1246 339.273 61.1586 339.48 60.1927 339.686L60.0559 339.144C59.4134 338.559 59.2773 337.684 59.1871 336.85C59.1417 336.6 59.0962 336.392 59.0967 336.142C59.6485 336.101 60.2004 336.019 60.7524 335.895Z" fill="black"/>
<path d="M59.6846 346.685C58.8496 344.398 57.9705 342.11 57.0913 339.823C58.2851 339.646 59.4789 339.435 60.6727 339.223C61.6013 339.046 62.5298 338.87 63.4584 338.693C64.0298 340.194 64.5569 341.731 65.0842 343.232C63.2283 343.014 61.5016 344.368 60.4381 345.687C60.128 346.008 59.9063 346.364 59.6846 346.685Z" fill="#D9D9D9"/>
<path d="M61.8588 335.494C61.4358 335.57 61.0599 335.608 60.6369 335.685C59.7977 332.621 58.9585 329.557 58.1194 326.494C59.7173 326.226 61.2682 325.958 62.866 325.69C63.8462 328.754 64.4973 331.856 65.1014 334.997C64.0206 335.15 62.9397 335.302 61.8588 335.494Z" fill="#D9D9D9"/>
<path d="M59.0786 347.134C59.2828 346.816 59.5277 346.463 59.7726 346.145C60.7521 344.838 62.3421 343.497 64.051 343.712C64.7788 345.978 65.4658 348.244 66.0715 350.51C65.9497 350.368 65.7872 350.226 65.6654 350.12C65.0967 349.588 64.3247 348.985 63.551 349.231C63.0215 349.407 62.7355 349.937 62.5311 350.396C62.0811 351.492 61.6311 352.588 61.3032 353.684C60.5345 351.524 59.8066 349.329 59.0786 347.134Z" fill="black"/>
<path d="M69.845 390.885C67.2797 378.728 64.3388 366.648 61.0598 354.645C61.4003 353.442 61.7784 352.239 62.1939 351.037C62.3828 350.532 62.6468 349.951 63.1354 349.757C63.8494 349.487 64.5615 350.11 65.0859 350.732C65.1982 350.888 65.3482 351.004 65.4605 351.16C66.4655 355.355 67.3202 359.55 68.0998 363.783C69.5275 363.398 70.9552 363.013 72.4205 362.627C75.5103 375.29 78.0367 388.068 79.9621 400.962C78.0823 402.045 76.2398 403.283 74.547 404.716C72.1903 400.479 70.7742 395.391 69.845 390.885Z" fill="#D9D9D9"/>
<path d="M62.2875 338.69C61.9089 337.552 61.4828 336.415 61.1042 335.277C62.1998 335.111 63.2955 334.903 64.4388 334.695C64.4387 334.737 64.4386 334.779 64.4385 334.821C64.627 335.79 64.8154 336.759 65.0038 337.727L65.0983 338.106C64.1931 338.273 63.2403 338.481 62.2875 338.69Z" fill="black"/>
<path d="M62.1206 325.907C62.5806 325.835 62.9945 325.763 63.4544 325.69C64.3219 328.582 65.1893 331.511 66.1027 334.403C65.5048 334.512 64.9529 334.584 64.355 334.692C63.7175 331.764 63.08 328.799 62.1206 325.907Z" fill="black"/>
<path d="M91.9063 330.555C92.6167 330.396 93.327 330.237 94.0374 330.119C95.4975 329.841 96.9577 329.564 98.4177 329.327C99.7594 329.129 101.14 328.932 102.482 328.775C102.636 330.618 102.829 332.461 103.102 334.304C103.023 334.344 102.944 334.384 102.825 334.424C101.245 335.382 101.122 337.585 101.158 339.428C101.228 343.554 101.298 347.68 101.408 351.806C100.864 347.679 99.9261 343.591 98.5932 339.622C98.2013 338.42 97.691 337.217 96.825 336.334C95.9196 335.451 94.4609 335.047 93.3944 335.686C92.012 336.524 91.929 338.487 92.0045 340.089C92.1934 344.015 92.4217 347.982 92.6501 351.908C91.7123 347.66 89.7879 343.61 87.0733 340.199C86.4044 339.356 85.5384 338.473 84.4341 338.391C83.2903 338.308 82.2627 339.227 81.787 340.308C81.3114 341.389 81.3088 342.59 81.3064 343.752C81.3026 345.555 81.2988 347.317 81.295 349.12C80.4323 346.715 79.3326 344.389 77.996 342.223C76.8953 340.418 75.282 338.492 73.1911 338.567C71.1791 338.643 69.6365 340.563 69.3167 342.605C68.9968 344.607 69.5448 346.652 70.0929 348.616C70.7585 350.981 71.3847 353.345 72.0109 355.71C70.5185 352.582 69.0654 349.495 67.573 346.367C66.984 345.084 66.198 343.68 64.8576 343.277C64.7394 343.236 64.6605 343.236 64.5422 343.196C64.0725 341.472 63.6027 339.789 63.0934 338.105C63.8828 337.907 64.6327 337.708 65.4221 337.509C67.5929 336.953 69.8032 336.357 71.9741 335.761C74.7765 335.005 77.579 334.21 80.3815 333.415C82.6312 332.819 84.881 332.223 87.1307 331.666C88.7095 331.269 90.2881 330.912 91.9063 330.555Z" fill="#6C6B6C"/>
<path d="M66.2867 333.696C65.5778 330.747 64.8691 327.76 64.1226 324.811C66.0051 324.442 67.9253 324.073 69.8078 323.703C70.2536 326.428 70.6978 329.937 71.106 332.699C69.5246 333.031 67.9057 333.364 66.2867 333.696Z" fill="#D9D9D9"/>
<path d="M65.082 343.695C65.1952 343.696 65.2706 343.734 65.3838 343.772C66.666 344.115 67.4179 345.481 67.9814 346.694C69.4091 349.651 70.7991 352.571 72.2269 355.529C72.5265 356.59 72.7884 357.651 73.0503 358.712C71.1314 356.057 69.0991 353.477 66.9534 351.01C66.3925 348.547 65.7562 346.121 65.082 343.695Z" fill="black"/>
<path d="M66.5813 334.638C68.2541 334.328 69.927 334.019 71.5999 333.709C71.7536 334.579 71.9076 335.344 72.0617 336.006L72.1002 336.18C69.9603 336.697 67.8203 337.214 65.6415 337.696L65.5644 337.383C65.4105 336.583 65.2566 335.783 65.1028 334.982C65.1028 334.947 65.1029 334.913 65.103 334.878C65.5698 334.809 66.0755 334.741 66.5813 334.638Z" fill="black"/>
<path d="M68.711 363.705C67.9299 359.343 67.0358 355.021 66.0664 350.699C68.2061 353.304 70.2326 356.028 72.146 358.832C72.4445 360.073 72.7429 361.313 73.0415 362.514C71.5729 362.911 70.1419 363.308 68.711 363.705Z" fill="#6C6B6C"/>
<path d="M71.6193 356.034C71.0521 353.783 70.4849 351.531 69.882 349.28C69.3855 347.41 68.8534 345.464 69.1792 343.558C69.4692 341.651 70.8672 339.785 72.6904 339.713C74.5851 339.641 76.0468 341.475 77.0441 343.193C78.2551 345.255 79.2513 347.469 80.0329 349.759C80.0298 351.208 80.0267 352.696 80.0594 354.145C79.208 351.054 77.7843 348.152 75.9309 345.593C75.3962 344.868 74.5757 344.103 73.7885 344.483C73.4664 344.635 73.2514 344.901 73.1077 345.244C72.2823 346.768 72.6357 348.676 72.9896 350.393C73.8034 354.323 74.5815 358.253 75.2881 362.22C74.6086 362.372 73.9648 362.561 73.2853 362.712C73.0018 361.529 72.7183 360.346 72.4348 359.201C72.1868 358.133 71.9031 357.065 71.6193 356.034Z" fill="black"/>
<path d="M70.1284 323.95C70.531 323.87 70.897 323.79 71.2996 323.71C71.9148 326.909 72.53 330.109 73.1086 333.308C72.523 333.429 71.9739 333.589 71.3883 333.71C70.9556 330.713 70.5246 326.906 70.1284 323.95Z" fill="black"/>
<path d="M72.9536 333.711C72.3309 330.455 71.7081 327.199 71.1224 323.943C73.1233 323.535 75.0871 323.127 77.0879 322.72C77.7479 325.893 78.4449 329.067 79.1048 332.282C77.0298 332.731 74.9917 333.221 72.9536 333.711Z" fill="#D9D9D9"/>
<path d="M72.9745 332.942C75.1657 332.536 77.3568 332.13 79.5479 331.725C79.7457 332.375 79.9035 333.059 80.1013 333.709C77.2725 334.353 74.4436 335.03 71.6147 335.708L71.5753 335.537C71.4173 334.887 71.2596 334.135 71.1021 333.28C71.6997 333.178 72.3371 333.077 72.9745 332.942Z" fill="black"/>
<path d="M73.4293 349.806C73.1059 348.066 72.7829 346.133 73.5384 344.588C73.7026 344.279 73.8995 343.97 74.1615 343.816C74.8819 343.431 75.6326 344.206 76.1217 344.941C77.8171 347.496 79.1192 350.475 79.8976 353.608C79.9254 355.927 79.9532 358.247 80.0464 360.566C78.5411 360.911 77.003 361.294 75.4975 361.716C74.8516 357.772 74.1732 353.789 73.4293 349.806Z" fill="#6C6B6C"/>
<path d="M73.0458 362.205C73.7995 362.017 74.5135 361.866 75.2671 361.716C76.4049 367.38 77.4635 373.044 78.4824 378.708C79.5795 384.867 80.6369 391.063 81.6547 397.221C81.7722 397.905 81.8898 398.552 81.9676 399.236C81.6501 399.387 81.3326 399.539 81.0151 399.728C78.9405 387.069 76.2708 374.562 73.0458 362.205Z" fill="black"/>
<path d="M78.2604 378.996C77.2413 373.285 76.1825 367.575 75.0444 361.864C76.8697 361.447 78.6949 361.067 80.5596 360.726C80.9769 369.692 82.1876 378.583 85.3824 386.979C86.6446 390.238 88.1845 393.46 88.9706 396.833C86.4704 397.594 84.0491 398.546 81.7464 399.729C81.6288 399.039 81.5509 398.388 81.4334 397.698C80.4154 391.451 79.3578 385.204 78.2604 378.996Z" fill="#D9D9D9"/>
<path d="M75.3864 405.716C75.2291 405.405 75.072 405.043 74.9542 404.732C76.7345 402.874 78.6327 401.223 80.649 399.727C80.7656 400.606 80.8427 401.486 80.9593 402.365C79.0621 403.499 77.2438 404.685 75.3864 405.716Z" fill="black"/>
<path d="M82.659 418.594C82.6591 418.555 82.6591 418.555 82.6591 418.517C91.1865 418.187 99.6365 417.588 107.972 415.754C108.206 415.716 108.401 415.678 108.635 415.601C108.674 415.601 108.674 415.601 108.712 415.601C110.504 415.181 112.258 414.567 113.934 413.799C113.413 420.549 110.128 427.679 103.892 430.443C101.944 431.288 99.8403 431.708 97.7371 432.05C93.4917 432.813 88.8182 433.42 85.0851 431.252C82.9853 430.013 81.432 428.043 79.9176 426.149C78.5974 424.449 77.2384 422.71 75.9182 421.01C77.9844 419.741 80.2832 418.936 82.659 418.594ZM102.697 424.77C102.776 424.5 102.854 424.23 102.855 423.96C102.894 423.536 102.779 423.034 102.39 422.879C102.078 422.762 101.767 422.839 101.455 422.993C100.948 423.223 100.403 423.608 100.324 424.148C100.284 424.572 100.594 425.035 100.983 425.19C101.411 425.307 102.268 425.039 102.697 424.77ZM97.4457 422.56C97.6802 422.136 97.7202 421.635 97.5654 421.21C97.4878 421.055 97.4104 420.862 97.2549 420.746C96.9828 420.514 96.5545 420.552 96.2815 420.744C95.9696 420.936 95.8132 421.245 95.7346 421.592C95.6558 422.055 95.7714 422.595 96.1212 422.904C96.4319 423.252 97.0557 422.868 97.4457 422.56ZM97.1598 428.886C97.3552 428.539 97.5895 428.192 97.6682 427.807C97.7469 427.421 97.631 426.997 97.2811 426.764C97.009 426.571 96.6195 426.609 96.3466 426.801C96.0736 426.993 95.9561 427.34 95.9554 427.687C95.954 428.343 96.5369 428.846 97.1598 428.886ZM90.549 425.091C90.3924 425.477 90.5081 426.017 90.8969 426.249C91.2858 426.482 91.7531 426.405 92.1817 426.252L92.2204 426.368C92.7657 426.292 93.1176 425.598 92.9239 425.096C92.7303 424.594 92.108 424.284 91.5628 424.36C91.1343 424.437 90.7055 424.706 90.549 425.091Z" fill="#ECD648"/>
<path d="M78.9171 331.726C78.3305 328.463 77.7111 325.198 77.1246 321.892C77.3885 321.85 77.6524 321.766 77.9162 321.724C78.5357 324.988 79.2542 328.21 80.1046 331.39C79.7087 331.516 79.3128 331.643 78.9171 331.726Z" fill="black"/>
<path d="M81.762 403.135C82.0506 402.989 82.3802 402.879 82.6688 402.733C82.79 403.836 82.87 404.939 82.8264 406.079L82.9493 406.41C81.2189 406.848 79.4886 407.285 77.7171 407.722C77.0597 407.023 76.4848 406.286 75.9511 405.513C77.9291 404.782 79.825 403.94 81.762 403.135Z" fill="#D9D9D9"/>
<path d="M79.1268 322.711C80.7909 322.359 82.4203 322.046 84.0843 321.733C84.7365 324.699 85.4233 327.665 86.1101 330.631C84.55 330.983 82.9551 331.375 81.3949 331.727C80.5348 328.761 79.7788 325.756 79.1268 322.711Z" fill="#D9D9D9"/>
<path d="M79.8539 408.728C79.5277 408.379 79.2379 408.029 78.9481 407.64C80.4746 407.178 82.0375 406.716 83.564 406.254C92.6142 403.48 101.628 400.512 110.965 399.794C110.855 400.221 110.745 400.686 110.635 401.112C102.497 402.065 94.501 404.376 86.6141 406.726C84.3606 407.419 82.1073 408.074 79.8539 408.728Z" fill="#0D0E0F"/>
<path d="M105.765 409.201C100.998 409.473 96.1567 409.503 91.5402 410.379C88.5887 410.937 85.5995 411.414 82.6106 411.73C81.2506 410.922 80.0046 409.871 78.9481 408.66C81.2947 407.98 83.6034 407.3 85.95 406.62C94.201 404.22 102.49 401.78 110.965 400.79C110.05 403.931 108.455 406.99 106.332 409.161C106.143 409.201 105.954 409.201 105.765 409.201Z" fill="#D9D9D9"/>
<path d="M80.4351 330.921C82.1387 330.499 83.88 330.12 85.5835 329.74C85.7335 330.421 85.9211 331.145 86.1088 331.869C83.9508 332.46 81.7927 333.094 79.6346 333.728C79.4471 332.919 79.2975 332.067 79.11 331.258C79.5265 331.132 79.9809 331.005 80.4351 330.921Z" fill="black"/>
<path d="M80.0995 353.667C80.0653 352.184 80.0685 350.663 80.0717 349.181C80.0754 347.426 80.0791 345.671 80.0827 343.954C80.0851 342.823 80.0876 341.653 80.5372 340.601C80.9869 339.549 81.9582 338.693 83.0395 338.734C84.0461 338.814 84.8646 339.674 85.5341 340.495C88.1 343.815 89.8816 347.72 90.8049 351.895C90.8764 353.377 90.9852 354.821 91.0567 356.303C89.798 351.971 87.6812 347.871 84.892 344.394C83.4301 347.979 83.6453 352.036 83.9355 355.898C84.0444 357.264 84.1535 358.59 84.2625 359.955C82.9196 360.187 81.5767 360.457 80.271 360.727C80.2015 358.348 80.1318 356.007 80.0995 353.667Z" fill="black"/>
<path d="M80.4764 403.728C80.2851 402.665 80.1583 401.602 79.967 400.539C80.4837 400.29 81.0005 399.979 81.5171 399.73C81.7083 400.855 81.8351 401.918 81.9617 403.043C81.4451 403.292 80.9286 403.479 80.4764 403.728Z" fill="black"/>
<path d="M82.2113 402.731C82.1401 401.894 82.0689 401.103 81.9613 400.265C84.0789 398.828 86.3053 397.67 88.6042 396.744C88.7481 397.629 88.8557 398.466 88.9632 399.35L88.963 399.443C86.628 400.229 84.438 401.433 82.2113 402.731Z" fill="#0D0E0F"/>
<path d="M105.906 409.156C105.905 409.224 105.944 409.258 105.944 409.327C97.9563 409.685 90.0066 410.486 82.1338 411.731C82.0954 411.458 82.0181 411.185 81.9407 410.912C85.0192 410.646 88.0979 410.278 91.1379 409.773C95.9318 408.999 100.919 409.009 105.789 408.781C105.828 408.917 105.867 409.02 105.906 409.156Z" fill="#0D0E0F"/>
<path d="M97.2225 397.961C99.2567 397.846 101.33 397.771 103.364 397.776C103.794 397.777 104.185 397.777 104.615 397.778C107.08 397.784 109.504 397.907 111.968 398.071C111.889 398.427 111.81 398.784 111.731 399.14C101.717 399.832 92.0101 402.861 82.2256 405.731L82.1091 405.374C82.1507 404.186 82.075 402.998 81.9602 401.77C84.3094 400.666 86.6975 399.602 89.202 399.013L89.2412 399.013C89.7108 398.895 90.1803 398.817 90.6499 398.699C92.2542 398.386 93.8973 398.231 95.5403 398.116C95.6186 398.116 95.6968 398.116 95.775 398.116C96.2836 398.038 96.7531 397.999 97.2225 397.961Z" fill="#D9D9D9"/>
<path d="M83.2031 414.735C83.1659 413.945 83.0898 413.156 82.9357 412.441C90.796 411.067 98.733 410.181 106.708 409.785C106.785 410.048 106.862 410.311 106.94 410.575C103.788 411.245 100.674 411.877 97.5223 412.51C94.448 413.142 91.3737 413.775 88.261 414.219C86.549 414.441 84.876 414.626 83.2031 414.735Z" fill="#ECD648"/>
<path d="M82.966 416.734C82.9668 416.358 82.9286 415.947 82.9294 415.57C84.6077 415.471 86.3251 415.303 88.0036 415.101C91.1264 414.697 94.2105 414.121 97.2947 413.546C100.457 412.97 103.58 412.36 106.742 411.785C106.82 411.99 106.858 412.23 106.936 412.436C103.774 413.148 100.611 413.861 97.4486 414.573C94.9498 415.15 92.4511 415.693 89.8746 416.098C87.6105 416.436 85.2686 416.637 82.966 416.734Z" fill="#0D0E0F"/>
<path d="M82.9653 417.734C82.9661 417.357 82.9669 416.942 82.9273 416.565C85.3131 416.494 87.7398 416.235 90.086 415.825C92.7152 415.378 95.3448 414.779 97.934 414.143C101.211 413.358 104.488 412.572 107.765 411.787C108.126 412.957 108.488 414.09 108.93 415.186C106.057 416.198 102.902 416.569 99.8288 416.827C94.2072 417.343 88.586 417.633 82.9653 417.734Z" fill="#ECD648"/>
<path d="M82.9651 418.734C82.9659 418.394 82.9667 418.011 82.9275 417.628C88.4876 417.555 94.0884 417.183 99.6096 416.642C102.65 416.308 105.771 415.932 108.614 414.789C108.733 415.087 108.812 415.385 108.932 415.725C100.447 417.708 91.726 418.327 82.9651 418.734Z" fill="#0D0E0F"/>
<path d="M84.1322 321.042C84.6222 320.928 85.1428 320.852 85.6328 320.738C86.1165 323.623 86.6002 326.509 87.1144 329.433C86.7163 329.509 86.3181 329.624 85.9505 329.738C85.3139 326.814 84.7077 323.928 84.1322 321.042Z" fill="black"/>
<path d="M80.0491 359.537C81.6464 359.257 83.1995 358.976 84.7967 358.737C86.1 371.712 88.1574 384.609 90.9692 397.344C90.4811 397.465 89.9486 397.585 89.4603 397.747C88.5808 394.177 86.8581 390.768 85.446 387.319C81.8721 378.433 80.5169 369.025 80.0491 359.537Z" fill="#0D0E0F"/>
<path d="M85.2656 355.09C84.9942 351.615 84.7929 347.966 86.1586 344.741C88.7653 347.869 90.7436 351.557 91.92 355.455C91.9532 356.227 92.0214 356.964 92.0546 357.736C89.8936 358.047 87.7326 358.358 85.5715 358.739C85.4696 357.511 85.3676 356.318 85.2656 355.09Z" fill="#6C6B6C"/>
<path d="M87.1555 329.743C86.4947 326.952 85.8339 324.161 85.1316 321.333C86.5069 321.15 87.8824 320.93 89.2578 320.747C90.2104 323.464 90.8295 326.254 91.1152 329.082C89.7814 329.302 88.4476 329.522 87.1555 329.743Z" fill="#D9D9D9"/>
<path d="M84.0937 360.415C86.6174 360.033 89.1403 359.69 91.662 359.424C92.3406 371.744 93.3026 384.106 94.4689 396.395C92.6784 396.635 90.9272 396.953 89.174 397.387C86.7896 385.115 85.0963 372.779 84.0937 360.415Z" fill="#D9D9D9"/>
<path d="M87.5083 329.701C88.6855 329.384 89.8258 329.066 91.003 328.749C91.0379 329.602 91.073 330.402 91.108 331.256C89.5996 331.732 88.128 332.209 86.6195 332.739C86.4375 331.886 86.2924 330.979 86.1105 330.072C86.5519 329.966 87.03 329.86 87.5083 329.701Z" fill="black"/>
<path d="M89.3974 399.659C89.3122 398.82 89.1835 397.982 88.9678 397.187C89.4464 397.056 89.9685 396.881 90.447 396.749C90.6191 397.632 90.7911 398.515 90.9632 399.397C90.4412 399.484 89.9192 399.616 89.3972 399.747L89.3537 399.747L89.3974 399.659Z" fill="#0D0E0F"/>
<path d="M89.1324 320.955C89.537 320.886 89.9416 320.817 90.3463 320.749C90.8147 322.419 91.1819 324.124 91.5828 325.83C91.7832 326.665 91.9161 327.604 92.1165 328.474C91.6107 328.543 91.1386 328.646 90.6328 328.749C90.4024 326.105 89.9023 323.496 89.1324 320.955Z" fill="black"/>
<path d="M91.4029 399.751C91.2599 398.842 91.1169 397.932 90.9739 397.023C92.533 396.481 94.0918 396.075 95.6867 395.76C95.7931 396.851 95.8632 397.988 95.9695 399.079C94.4113 399.212 92.8892 399.39 91.4029 399.751Z" fill="#0D0E0F"/>
<path d="M92.286 426.518C91.9366 426.741 91.5555 426.908 91.239 426.515C90.9542 426.179 90.8289 425.45 90.9571 424.834C91.0852 424.274 91.4034 423.826 91.7525 423.771C92.1969 423.659 92.7037 424.053 92.8607 424.838C93.0177 425.567 92.7618 426.575 92.2857 426.686L92.286 426.518Z" fill="black"/>
<path d="M92.4506 326.209C92.023 324.568 91.6312 322.927 91.1316 321.319C92.4614 321.121 93.7911 320.923 95.1208 320.758C95.8342 323.203 96.4757 325.682 97.1172 328.16C95.7515 328.358 94.3858 328.556 93.0201 328.754C92.8063 327.917 92.6645 327.013 92.4506 326.209Z" fill="#D9D9D9"/>
<path d="M91.2122 331.75C91.2141 330.877 91.1807 330.059 91.1124 329.186C91.639 329.024 92.1305 328.916 92.6571 328.753C92.7613 329.299 92.8652 329.899 93.0046 330.39C93.0043 330.499 93.0393 330.554 93.0393 330.554L93.1083 331.1C92.4762 331.371 91.8442 331.533 91.2122 331.75Z" fill="black"/>
<path d="M91.721 351.82C91.5055 348.003 91.29 344.147 91.1118 340.331C91.0406 338.734 91.1192 336.826 92.425 336.05C93.4324 335.429 94.8102 335.86 95.6654 336.68C96.5207 337.538 96.9653 338.708 97.3355 339.877C98.6316 343.696 99.5175 347.669 99.9933 351.72C100.028 352.928 100.026 354.096 100.06 355.303C99.1749 351.096 97.4321 347.081 95.0547 343.571C93.9273 348.086 94.2154 352.838 94.5036 357.511C94.5402 357.823 94.5396 358.095 94.5762 358.407C93.7562 358.522 92.9362 358.637 92.1162 358.752C92.0808 357.895 92.008 357.077 91.9725 356.221C91.9011 354.741 91.7924 353.3 91.721 351.82Z" fill="black"/>
<path d="M95.2419 395.761C93.9599 383.578 92.9089 371.32 92.0501 359.1C92.8964 358.986 93.7428 358.873 94.5892 358.759C95.371 371.017 96.1913 383.276 96.9731 395.534C96.396 395.609 95.8189 395.685 95.2419 395.761Z" fill="#0D0E0F"/>
<path d="M97.0705 329.941L97.1104 330.105C95.6181 330.298 94.1257 330.492 92.6333 330.751L92.5533 330.423C92.5533 330.423 92.5534 330.39 92.5132 330.325C92.3525 330.029 92.2322 329.701 92.112 329.34C93.6448 329.114 95.1774 328.92 96.71 328.76C96.8302 329.153 96.9503 329.547 97.0705 329.941Z" fill="black"/>
<path d="M95.2856 357.853C95.0413 353.128 94.7971 348.364 95.7602 343.759C97.7865 347.307 99.2397 351.365 100.025 355.619C100.023 356.445 100.053 357.272 100.052 358.138C98.4624 358.332 96.9048 358.525 95.3154 358.758C95.3161 358.443 95.3168 358.128 95.2856 357.853Z" fill="#6C6B6C"/>
<path d="M97.3782 395.763C96.6158 383.303 95.8158 370.843 95.0534 358.383C96.8942 358.152 98.7726 357.961 100.651 357.77C100.72 360.855 100.751 363.94 100.819 367.026C100.952 375.345 101.303 386.906 102.975 395.579C101.097 395.497 99.219 395.532 97.3782 395.763Z" fill="#D9D9D9"/>
<path d="M95.1324 319.958C95.4483 319.878 95.7642 319.839 96.1118 319.76C96.8951 322.642 97.5521 325.603 98.1142 328.564C97.7035 328.643 97.2928 328.722 96.8822 328.762C96.32 325.84 95.7262 322.879 95.1324 319.958Z" fill="black"/>
<path d="M96.1232 398.762C96.0663 397.851 96.0291 396.901 95.9722 395.99C96.2665 395.914 96.5607 395.839 96.8746 395.764C96.9118 396.713 96.9294 397.662 96.9666 398.65C96.7312 398.687 96.4959 398.687 96.2605 398.724C96.2212 398.762 96.182 398.762 96.1232 398.762Z" fill="black"/>
<path d="M96.1277 422.617C95.9486 422.186 95.8899 421.564 95.9311 420.99C95.972 420.559 96.0529 420.177 96.2134 419.938C96.3739 419.699 96.5739 419.699 96.7135 419.939C96.7932 420.083 96.8328 420.274 96.8723 420.513C96.9512 421.04 96.9299 421.662 96.8087 422.188C96.628 422.522 96.3069 423 96.1277 422.617Z" fill="black"/>
<path d="M95.9043 427.698C95.9049 427.389 95.9734 427.115 96.1323 426.909C96.291 426.738 96.5174 426.704 96.6755 426.876C96.8562 427.048 96.9232 427.46 96.8999 427.803C96.8539 428.146 96.7401 428.455 96.6037 428.729L96.6036 428.763C96.2643 428.694 95.9257 428.247 95.9043 427.698Z" fill="black"/>
<path d="M98.8461 328.081C99.9083 327.978 100.97 327.875 101.988 327.772L101.988 327.842C102.031 328.333 102.075 328.79 102.118 329.281C100.569 329.418 99.0642 329.555 97.5593 329.763L97.5155 329.587C97.3836 329.166 97.2518 328.744 97.12 328.288C97.7397 328.184 98.2707 328.15 98.8461 328.081Z" fill="black"/>
<path d="M97.1533 398.762C97.0818 397.539 97.0474 396.316 96.976 395.044C98.7913 394.803 100.643 394.709 102.458 394.811C102.604 395.838 102.787 396.817 102.97 397.796L102.969 398.53C101.043 398.575 99.0795 398.619 97.1533 398.762Z" fill="black"/>
<path d="M98.4611 328.767C97.8079 325.707 97.0447 322.648 96.1348 319.671C98.0046 319.344 99.8743 319.059 101.781 318.774C102.214 321.708 102.72 325.346 103.117 328.115C102.42 328.196 101.761 328.278 101.064 328.359C100.221 328.522 99.341 328.645 98.4611 328.767Z" fill="#D9D9D9"/>
<path d="M100.334 351.748C100.267 347.746 100.2 343.744 100.096 339.743C100.062 337.955 100.217 335.819 101.686 334.889C101.761 334.851 101.837 334.812 101.95 334.773C102.172 336.328 102.394 337.921 102.617 339.476C102.308 343.127 102.94 346.819 103.045 350.472C103.115 352.842 102.997 355.212 102.804 357.581C102.014 357.657 101.224 357.694 100.396 357.77C100.398 356.954 100.362 356.1 100.364 355.284C100.366 354.157 100.369 352.953 100.334 351.748Z" fill="black"/>
<path d="M100.25 367.192C100.169 364.116 100.132 361.04 100.05 357.964C100.971 357.888 101.891 357.812 102.855 357.775C102.675 360.033 102.407 362.291 102.227 364.549C101.821 370.427 102.115 376.346 103.11 382.188C103.89 386.706 105.063 391.264 104.966 395.78C104.265 395.74 103.52 395.699 102.819 395.659C100.865 387.011 100.452 375.486 100.25 367.192Z" fill="black"/>
<path d="M101.437 425.715C101.099 425.522 100.885 424.993 100.917 424.416C100.95 423.743 101.381 423.263 101.811 422.975C102.058 422.832 102.304 422.688 102.549 422.833C102.856 423.026 102.916 423.651 102.915 424.18C102.914 424.516 102.852 424.853 102.79 425.189C102.42 425.573 101.744 425.908 101.437 425.715Z" fill="black"/>
<path d="M104.23 327.918C104.645 327.902 105.098 327.885 105.513 327.868C106.381 327.835 107.211 327.802 108.079 327.786C108.079 328.014 108.116 328.242 108.116 328.47C106.87 328.59 105.587 328.64 104.304 328.69C103.587 328.724 102.908 328.74 102.228 328.774C102.191 328.528 102.154 328.3 102.117 328.054L102.117 328.019C102.796 327.985 103.513 327.952 104.23 327.918Z" fill="black"/>
<path d="M102.692 335.349C102.475 333.41 102.259 331.471 102.116 329.532C102.778 329.449 103.478 329.366 104.141 329.326C105.392 329.202 106.644 329.12 107.86 328.786C107.892 330.935 107.961 333.085 107.993 335.234C108.027 336.751 108.06 338.269 108.094 339.786C107.655 338.521 107.142 337.255 106.261 336.326C105.38 335.271 103.872 334.72 102.692 335.349Z" fill="#D9D9D9"/>
<path d="M103.136 318.891C103.331 318.852 103.526 318.814 103.748 318.775C104.269 321.723 104.735 324.672 105.118 327.66C104.812 327.698 104.479 327.737 104.173 327.776C103.845 325.142 103.464 321.682 103.136 318.891Z" fill="black"/>
<path d="M104.525 357.267C105.087 351.241 104.31 345.211 103.498 339.182C103.498 339.143 103.498 339.104 103.498 339.065C103.568 338.249 103.742 337.316 104.396 336.928C105.015 336.58 105.77 336.892 106.353 337.283C106.936 337.673 107.45 338.14 107.93 338.647C108.244 352.88 108.694 367.153 110.657 381.196C111.334 386.019 112.183 390.882 111.932 395.781C111.931 396.131 111.896 396.442 111.861 396.792C110.317 396.128 108.634 395.735 106.986 395.46C106.436 395.381 105.887 395.302 105.303 395.262C105.381 390.712 104.463 386.199 103.855 381.687C103.077 375.852 102.849 369.941 103.17 364.069C103.278 361.814 103.489 359.559 103.666 357.304C103.94 357.305 104.215 357.266 104.525 357.267Z" fill="#D9D9D9"/>
<path d="M103.819 339.775C103.579 337.884 103.34 335.945 103.101 334.054C104.4 333.395 106.02 333.966 107.072 335.15C108.002 336.191 108.566 337.611 109.09 339.03C109.09 339.077 109.09 339.077 109.09 339.124C108.524 338.509 107.877 337.94 107.229 337.466C106.541 336.992 105.65 336.565 104.919 337.036C104.148 337.507 103.943 338.641 103.859 339.633C103.859 339.681 103.819 339.728 103.819 339.775Z" fill="black"/>
<path d="M103.438 350.682C103.368 347.059 102.933 343.396 103.149 339.774C103.761 345.749 104.347 351.725 103.918 357.698C103.709 357.736 103.501 357.736 103.267 357.774C103.402 355.384 103.485 353.033 103.438 350.682Z" fill="#6C6B6C"/>
<path d="M103.539 397.183C103.336 396.432 103.175 395.603 102.973 394.773C103.626 394.814 104.319 394.855 104.972 394.896C104.971 395.646 104.928 396.396 104.804 397.185L104.803 397.777C104.354 397.776 103.946 397.775 103.497 397.775L103.539 397.183Z" fill="black"/>
<path d="M105.238 327.778C104.652 324.61 103.938 321.483 103.139 318.357C104.708 318.152 106.233 317.947 107.802 317.783L107.885 318.533C107.963 321.534 108.042 324.575 108.12 327.576C107.145 327.657 106.213 327.697 105.238 327.778Z" fill="#D9D9D9"/>
<path d="M104.967 398.519L104.968 397.956C105.041 397.244 105.079 396.531 105.116 395.782C105.691 395.82 106.301 395.897 106.875 395.973C108.597 396.239 110.32 396.618 111.97 397.259C111.933 397.746 111.86 398.271 111.751 398.796C109.454 398.641 107.192 398.561 104.967 398.519Z" fill="black"/>
<path d="M91.3367 222.711L91.3789 202.75L99.5052 202.767C103.379 202.775 106.28 204.557 106.273 208.028C106.27 209.566 105.34 211.221 104.118 211.85C105.842 212.682 107.354 214.342 107.349 216.906C107.341 220.654 104.684 222.778 100.221 222.769L91.3367 222.75L91.3367 222.711ZM95.7839 210.373L98.9839 210.379C100.836 210.383 101.89 209.794 101.893 208.413C101.896 207.033 100.845 206.439 98.9922 206.435L95.7922 206.428L95.7839 210.373ZM95.7655 219.091L99.176 219.098C101.66 219.103 102.883 218.435 102.887 216.581C102.89 214.727 101.671 214.054 99.1866 214.049L95.7761 214.041L95.7655 219.091V219.091Z" fill="white"/>
<path d="M111.341 222.753L111.383 202.793L115.522 202.802L115.506 210.415L119.765 210.424C123.984 210.433 126.486 212.845 126.478 216.632C126.47 220.379 123.957 222.82 119.739 222.811L111.341 222.793L111.341 222.753ZM115.488 219.133L118.711 219.14C121.06 219.145 122.215 218.477 122.219 216.623C122.223 214.769 121.07 214.096 118.722 214.091L115.498 214.084L115.488 219.133ZM131.201 222.795L131.243 202.835L135.383 202.844L135.341 222.804L131.201 222.795Z" fill="white"/>
<path d="M149.757 201.875C154.05 201.884 156.803 203.774 158.371 207.504L154.705 209.099C153.764 206.893 152.152 205.607 149.749 205.602C146.283 205.595 144.701 208.517 144.693 212.365C144.685 216.172 146.215 219.141 149.72 219.148C152.084 219.153 153.701 217.874 154.691 215.672L158.35 217.283C156.767 220.966 153.966 222.884 149.713 222.875C143.371 222.862 140.349 217.966 140.361 212.396C140.373 206.705 143.416 201.862 149.757 201.875Z" fill="white"/>
<path d="M161.371 206.535L161.379 202.898L175.379 202.928L175.371 206.564L170.27 206.554L170.236 222.917L166.363 222.909L166.398 206.545L161.371 206.535Z" fill="white"/>
<path d="M186.848 210.118L190.235 210.125L190.237 209.24C190.242 206.706 188.493 205.696 186.43 205.692C184.833 205.689 183.43 206.571 182.765 208.38L179.068 207.567C179.893 204.149 182.7 201.943 186.515 201.951C191.109 201.96 194.375 204.019 194.362 210.013L194.335 222.646L190.909 222.638L190.526 219.982C189.237 221.87 187.25 222.952 184.408 222.946C181.138 222.939 178.339 221.003 178.348 216.738C178.318 212.554 181.788 210.107 186.848 210.118ZM185.038 219.247C187.53 219.252 190.219 217.608 190.227 214.068L190.228 213.625L186.685 213.618C184.194 213.613 182.634 214.816 182.63 216.747C182.588 218.195 183.326 219.243 185.038 219.247Z" fill="white"/>
<path d="M199.341 222.937L199.383 202.977L207.001 202.993C210.633 203 213.353 204.781 213.345 208.253C213.342 209.791 212.47 211.446 211.324 212.075C212.941 212.907 214.358 214.566 214.353 217.13C214.345 220.878 211.854 223.003 207.669 222.994L199.341 222.977L199.341 222.937ZM203.511 210.599L206.511 210.605C208.248 210.609 209.236 210.019 209.239 208.638C209.242 207.258 208.257 206.664 206.52 206.66L203.52 206.654L203.511 210.599ZM203.493 219.317L206.69 219.323C209.019 219.328 210.165 218.66 210.169 216.806C210.173 214.952 209.03 214.279 206.701 214.274L203.504 214.267L203.493 219.317Z" fill="white"/>
<path d="M218.341 223.019L218.383 203.02L222.466 203.028L222.449 211.012L229.651 203.043L234.872 203.054L226.53 212.246L235.341 223.055L230.119 223.044L222.444 213.463L222.424 223.028L218.341 223.019V223.019Z" fill="white"/>
<path d="M245.852 210.243L249.239 210.25L249.241 209.365C249.246 206.831 247.497 205.821 245.433 205.817C243.837 205.814 242.434 206.696 241.768 208.505L238.072 207.692C238.897 204.274 241.704 202.068 245.519 202.076C250.113 202.085 253.378 204.144 253.366 210.138L253.339 222.771L249.913 222.763L249.53 220.107C248.241 221.995 246.253 223.077 243.412 223.071C240.142 223.064 237.343 221.128 237.352 216.863C237.322 212.679 240.792 210.232 245.852 210.243ZM244.081 219.372C246.573 219.377 249.262 217.733 249.27 214.193L249.271 213.75L245.728 213.743C243.237 213.738 241.677 214.941 241.673 216.872C241.592 218.32 242.368 219.368 244.081 219.372Z" fill="white"/>
<path d="M61.2624 259.687L61.3047 239.688L65.628 239.697L65.6111 247.681L73.2354 239.713L78.7642 239.724L69.9319 248.915L79.2624 259.725L73.7335 259.714L65.606 250.131L65.5858 259.697L61.2624 259.687V259.687Z" fill="white"/>
<path d="M90.3008 239.748C96.606 239.761 100.291 244.556 100.279 250.269C100.266 256.022 96.5616 260.761 90.2564 260.748C83.9512 260.734 80.2665 255.939 80.2786 250.227C80.2907 244.514 83.9955 239.734 90.3008 239.748ZM90.2642 257.046C93.9188 257.054 95.8537 253.679 95.8609 250.259C95.868 246.88 93.9877 243.457 90.2929 243.449C86.6383 243.441 84.7035 246.816 84.6963 250.236C84.689 253.655 86.5694 257.039 90.2642 257.046Z" fill="white"/>
<path d="M104.259 259.777L104.301 239.777L108.191 239.786L108.175 247.335L115.395 247.35L115.41 239.801L119.301 239.809L119.259 259.809L115.368 259.801L115.387 250.987L108.167 250.971L108.149 259.786L104.259 259.777Z" fill="white"/>
<path d="M126.259 259.824L126.301 239.824L130.144 239.832L130.127 247.817L136.906 239.847L141.82 239.857L133.967 249.05L142.259 259.858L137.344 259.848L130.122 250.267L130.101 259.832L126.259 259.824V259.824Z" fill="white"/>
<path d="M143.301 239.859L147.673 239.869L152.371 253.308L156.968 239.888L161.301 239.897L151.158 267.876L147.062 267.867L150.311 258.817L143.301 239.859Z" fill="white"/>
<path d="M164.242 267.902L164.3 240.214L168.3 240.222L168.295 242.481C168.913 241.353 171.032 239.917 173.608 239.922C179.378 239.934 182.293 243.796 182.279 250.104C182.266 256.218 179.373 260.262 173.489 260.25C171.066 260.245 169.145 259.034 168.263 257.747L168.242 267.911L164.242 267.902ZM173.035 256.627C175.919 256.633 178.04 254.146 178.049 250.057C178.057 246.007 175.986 243.471 173.063 243.465C170.178 243.459 168.057 245.946 168.049 250.035C168.04 254.124 170.15 256.621 173.035 256.627Z" fill="white"/>
<path d="M195.675 239.969C199.968 239.978 202.721 241.867 204.289 245.598L200.622 247.193C199.682 244.987 198.07 243.701 195.667 243.696C192.201 243.689 190.619 246.611 190.611 250.458C190.603 254.266 192.133 257.234 195.638 257.242C198.002 257.247 199.619 255.968 200.609 253.766L204.268 255.377C202.685 259.06 199.884 260.978 195.631 260.969C189.289 260.956 186.267 256.06 186.279 250.489C186.29 244.839 189.334 239.956 195.675 239.969Z" fill="white"/>
<path d="M208.259 259.996L208.301 239.996L212.45 240.005L212.434 247.554L220.135 247.571L220.151 240.021L224.301 240.03L224.259 260.03L220.109 260.021L220.128 251.207L212.427 251.191L212.408 260.005L208.259 259.996Z" fill="white"/>
<path d="M230.263 260.003L230.305 240.043L234.265 240.051L234.249 247.665L238.323 247.673C242.36 247.682 244.754 250.093 244.746 253.88C244.738 257.628 242.334 260.068 238.297 260.06L230.262 260.043L230.263 260.003ZM234.231 256.343L237.315 256.35C239.562 256.354 240.667 255.686 240.671 253.832C240.675 251.978 239.572 251.305 237.326 251.3L234.241 251.294L234.231 256.343ZM249.264 260.044L249.306 240.083L253.305 240.092L253.262 260.052L249.264 260.044Z" fill="white"/>
<path d="M257.259 260.102L264.021 249.562L258.027 240.103L262.588 240.113L266.288 246.01L270.014 240.128L274.574 240.138L268.541 249.572L275.258 260.14L270.698 260.13L266.233 253.124L261.738 260.111L257.259 260.102Z" fill="white"/>
<path d="M121.148 313.812L121.206 286.124L125.206 286.133L125.202 288.391C125.819 287.263 127.938 285.827 130.515 285.832C136.284 285.844 139.199 289.706 139.186 296.015C139.173 302.129 136.279 306.173 130.395 306.16C127.972 306.155 126.051 304.944 125.169 303.657L125.148 313.821L121.148 313.812ZM129.941 302.576C132.825 302.583 134.946 300.095 134.955 296.006C134.963 291.956 132.892 289.42 129.969 289.414C127.084 289.408 124.963 291.896 124.955 295.985C124.985 300.074 127.056 302.57 129.941 302.576Z" fill="white"/>
<path d="M150.677 293.651L154.064 293.658L154.066 292.815C154.071 290.402 152.321 289.44 150.258 289.436C148.662 289.432 147.259 290.272 146.593 291.995L142.897 291.221C143.721 287.966 146.528 285.865 150.343 285.873C154.937 285.882 158.203 287.843 158.191 293.552L158.165 305.583L154.74 305.575L154.356 303.046C153.067 304.844 151.08 305.874 148.238 305.868C144.968 305.861 142.169 304.016 142.178 299.955C142.147 295.97 145.617 293.64 150.677 293.651ZM148.907 302.345C151.399 302.35 154.088 300.785 154.095 297.413L154.096 296.992L150.554 296.984C148.062 296.979 146.503 298.125 146.499 299.964C146.418 301.343 147.155 302.341 148.907 302.345Z" fill="white"/>
<path d="M173.138 277.781L174.703 277.784C176.191 277.787 176.993 277.315 177.568 275.933L180.048 275.938C180.039 280.049 177.938 281.467 174.657 281.46L172.978 281.457C169.888 281.45 167.67 283.619 167.394 287.729C168.58 286.625 170.681 285.286 173.428 285.292C178.96 285.303 182.193 290.014 182.181 295.626C182.169 301.278 178.649 305.935 172.659 305.922C166.822 305.91 163.169 301.199 163.186 293.254C163.21 281.713 167.187 277.768 173.138 277.781ZM172.667 302.246C176.139 302.254 177.977 298.938 177.984 295.578C177.991 292.258 176.205 288.894 172.695 288.887C169.223 288.879 167.385 292.196 167.378 295.555C167.409 298.915 169.195 302.239 172.667 302.246Z" fill="white"/>
<path d="M195.703 285.969C201.693 285.982 205.193 290.549 205.182 295.989C205.17 301.468 201.651 305.982 195.661 305.969C189.671 305.957 186.171 301.39 186.182 295.949C186.193 290.509 189.751 285.957 195.703 285.969ZM195.668 302.444C199.14 302.452 200.978 299.237 200.985 295.98C200.992 292.762 199.206 289.502 195.696 289.494C192.224 289.487 190.386 292.701 190.379 295.958C190.41 299.215 192.196 302.437 195.668 302.444Z" fill="white"/>
<path d="M208.199 289.632L208.207 285.996L222.207 286.026L222.199 289.662L217.112 289.651L217.077 306.015L213.215 306.007L213.25 289.643L208.199 289.632Z" fill="white"/>
<path d="M75.6458 77.6755L75.6562 72.7148L76.5582 72.7167L77.6508 75.3175L78.7543 72.7214L79.6562 72.7233L79.6457 77.7233L78.8222 77.7215L78.8296 74.1782L77.8839 76.3416L77.4133 76.3406L76.4767 74.1733L76.4692 77.7166L75.6457 77.7148L75.6458 77.6755Z" fill="white"/>
<path d="M80.6523 72.7266L81.7952 72.729L83.7886 75.868L85.5571 72.7369L86.6523 72.7392L83.0682 78.7317L82.0682 78.7296L83.263 76.7096L80.6523 72.7266Z" fill="white"/>
<path d="M89.3776 76.2242C89.4812 76.6932 89.7596 77.0063 90.1782 77.0071C90.6317 77.0081 90.9463 76.6963 90.9475 76.1494C90.9487 75.5634 90.6704 75.2113 90.182 75.2103C90.0425 75.21 89.9378 75.2488 89.833 75.2877L89.4504 74.779L90.2904 73.4527L88.895 73.4497L88.8965 72.7466L91.4081 72.7519L91.4076 73.0253L90.2878 74.6636C90.3576 74.6638 90.3926 74.6248 90.4623 74.6249C91.1949 74.6265 91.6472 75.1743 91.6452 76.1509C91.6432 77.0884 90.979 77.751 90.1418 77.7493C89.3395 77.7476 88.7476 77.1994 88.6448 76.3008L89.3776 76.2242Z" fill="white"/>
<path d="M95.6728 72.7582C96.962 72.7609 97.654 73.8311 97.6513 75.0906L97.6506 75.4341L94.3779 75.4272C94.4089 76.3815 94.9365 77.0314 95.6637 77.033C96.2918 77.0343 96.7223 76.6917 97.0211 76.0816L97.5824 76.4263C97.1174 77.4559 96.4556 77.7598 95.6622 77.7582C94.4391 77.7556 93.6479 76.6852 93.6509 75.273C93.6869 73.899 94.4166 72.7555 95.6728 72.7582ZM96.9249 74.7074C96.7942 73.9437 96.3655 73.4848 95.6712 73.4834C95.0101 73.482 94.5793 73.9772 94.4455 74.7021L96.9249 74.7074Z" fill="white"/>
<path d="M100.645 77.7297L100.656 72.7184L101.229 72.7196L101.221 76.498L103.029 72.7234L103.656 72.7247L103.645 77.7759L103.073 77.7746L103.081 73.9962L101.273 77.7708L100.645 77.7695L100.645 77.7297ZM101.833 70.772C101.832 71.0504 101.941 71.2097 102.132 71.2101C102.323 71.2105 102.432 71.0119 102.433 70.7733L102.897 70.7743C102.895 71.3708 102.567 71.8474 102.131 71.8465C101.694 71.8456 101.368 71.3676 101.369 70.771L101.833 70.772Z" fill="white"/>
<path d="M57.6307 84.5245L57.6322 83.8349L59.8457 81.6844L59.8436 82.6757L58.2583 84.181L59.8372 85.693L59.8351 86.6843L57.6307 84.5245ZM59.4218 84.5283L59.4232 83.8386L61.6367 81.6881L61.6346 82.6795L60.0493 84.1848L61.6282 85.6967L61.6261 86.6881L59.4218 84.5283Z" fill="white"/>
<path d="M64.6258 87.6914L64.6274 86.9357L65.8436 86.9383L65.8541 81.9667L64.6628 82.9983L64.6647 82.0835L66.2082 80.6947L66.4244 80.6952L66.4112 86.9395L67.6274 86.942L67.6258 87.6977L64.6258 87.6914V87.6914Z" fill="white"/>
<path d="M81.6201 87.7305L81.6328 81.7305L85.6328 81.7389L85.6201 87.7389L84.7966 87.7372L84.8074 82.6348L82.4544 82.6298L82.4437 87.7322L81.6201 87.7305Z" fill="white"/>
<path d="M88.6198 89.7422L88.6365 81.8311L89.1704 81.8322L89.1688 82.5878C89.3477 82.1437 89.7045 81.7444 90.1621 81.7454C91.1028 81.7474 91.6342 82.9485 91.6306 84.6374C91.6269 86.3707 91.0906 87.5252 90.1499 87.5232C89.6923 87.5222 89.3371 87.1659 89.1601 86.7211L89.1538 89.6989L88.6199 89.6977L88.6198 89.7422ZM90.1008 86.7231C90.7109 86.7244 91.0687 85.8807 91.0712 84.6807C91.0737 83.4807 90.7196 82.6355 90.1094 82.6342C89.4992 82.6329 89.1415 83.4766 89.139 84.6766C89.111 85.8765 89.4906 86.7218 90.1008 86.7231Z" fill="white"/>
<path d="M94.624 87.7578L94.6367 81.7578L95.2094 81.759L95.2 86.2472L97.0094 81.7628L97.6367 81.7641L97.624 87.7641L97.024 87.7629L97.0335 83.2747L95.224 87.7591L94.624 87.7578Z" fill="white"/>
<path d="M100.624 87.7695L100.637 81.7695L101.313 81.771L102.13 84.8908L102.96 81.7744L103.637 81.7759L103.624 87.7759L103.006 87.7745L103.015 83.5226L102.304 86.1195L101.951 86.1188L101.251 83.5189L101.242 87.7708L100.624 87.7695Z" fill="white"/>
<path d="M108.157 81.7866C109.769 81.79 110.634 83.0743 110.631 84.5857L110.63 84.9979L106.539 84.9893C106.578 86.1344 107.237 86.9144 108.147 86.9163C108.932 86.918 109.47 86.5069 109.843 85.7749L110.545 86.1886C109.964 87.424 109.136 87.7887 108.145 87.7866C106.616 87.7833 105.627 86.4988 105.63 84.8041C105.634 83.1553 106.587 81.7833 108.157 81.7866ZM109.681 84.1257C109.518 83.2093 108.982 82.6586 108.114 82.6567C107.288 82.655 106.749 83.2493 106.582 84.1191L109.681 84.1257Z" fill="white"/>
<path d="M111.635 82.6906L111.637 81.793L116.637 81.8035L116.635 82.7012L114.617 82.6969L114.606 87.7993L113.685 87.7973L113.696 82.695L111.635 82.6906Z" fill="white"/>
<path d="M117.626 86.8047L117.628 85.8133L119.594 84.3088L117.635 82.7961L117.637 81.8047L120.373 83.9656L120.371 84.6553L117.626 86.8047ZM119.885 86.8094L119.887 85.8181L121.854 84.3136L119.894 82.8008L119.896 81.8095L122.632 83.9704L122.631 84.6601L119.885 86.8094Z" fill="white"/>
</svg>
