<svg width="342" height="505" viewBox="0 0 342 505" fill="none" xmlns="http://www.w3.org/2000/svg">
<g filter="url(#filter0_d)">
<path d="M337.933 50.738C337.991 23.2517 315.653 0.92253 288.038 0.864477L55.0389 0.374645C27.4248 0.316592 4.99178 22.5516 4.93346 50.0379L4.09286 446.194C4.03454 473.681 26.373 496.01 53.9872 496.068L286.987 496.558C314.601 496.616 337.034 474.381 337.092 446.894L337.933 50.738Z" fill="white"/>
<path d="M251.8 451.693L89.3741 451.351C58.824 451.287 34.1396 426.666 34.2038 396.409L34.8329 99.9514C34.8972 69.6557 59.7248 45.1771 90.2358 45.2412L252.662 45.5827C283.212 45.6469 307.896 70.2683 307.832 100.525L307.203 396.983C307.139 427.24 282.35 451.757 251.8 451.693Z" fill="#0D0E0F"/>
<path d="M56.3911 325.835L56.3537 325.691C57.6373 325.406 58.9209 325.156 60.2045 324.871C61.1798 327.644 61.8908 330.451 62.3375 333.331C61.2805 333.508 60.2236 333.686 59.1666 333.828C58.2666 331.163 57.3289 328.499 56.3911 325.835Z" fill="#D9D9D9"/>
<path d="M60.3606 337.816C60.0297 336.683 59.6617 335.55 59.3309 334.378C60.3683 334.186 61.4057 334.032 62.4431 333.839C62.4797 334.073 62.5163 334.268 62.5158 334.502C62.6253 335.283 62.7346 336.103 63.2149 336.651L63.325 337.158C62.3615 337.391 61.361 337.623 60.3606 337.816Z" fill="black"/>
<path d="M60.3509 325.169C60.9103 325.06 61.4697 324.951 62.029 324.879C62.797 327.781 63.5651 330.683 64.3331 333.585C63.8168 333.657 63.3005 333.729 62.7842 333.838C62.2743 330.864 61.4633 327.961 60.3509 325.169Z" fill="black"/>
<path d="M63.9868 334.051C64.4007 333.969 64.7686 333.928 65.1826 333.846C65.594 334.966 65.9595 336.087 66.3249 337.208C65.3589 337.413 64.393 337.618 63.427 337.824L63.2902 337.284C62.6478 336.702 62.5117 335.831 62.4215 335.001C62.3761 334.752 62.3305 334.545 62.3311 334.296C62.8829 334.256 63.4348 334.174 63.9868 334.051Z" fill="black"/>
<path d="M62.919 344.789C62.084 342.512 61.2049 340.235 60.3257 337.958C61.5195 337.783 62.7133 337.572 63.9071 337.361C64.8356 337.185 65.7642 337.009 66.6928 336.834C67.2642 338.328 67.7913 339.858 68.3185 341.352C66.4626 341.135 64.736 342.482 63.6724 343.795C63.3624 344.114 63.1406 344.469 62.919 344.789Z" fill="#D9D9D9"/>
<path d="M65.0931 333.651C64.6702 333.728 64.2942 333.766 63.8713 333.842C63.0321 330.792 62.1929 327.743 61.3537 324.693C62.9516 324.426 64.5025 324.159 66.1004 323.893C67.0805 326.943 67.7317 330.03 68.3358 333.157C67.2549 333.309 66.1741 333.461 65.0931 333.651Z" fill="#D9D9D9"/>
<path d="M62.313 345.235C62.5172 344.919 62.7621 344.567 63.007 344.251C63.9865 342.949 65.5765 341.615 67.2854 341.829C68.0131 344.085 68.7002 346.34 69.3059 348.596C69.1841 348.454 69.0216 348.313 68.8997 348.207C68.3311 347.678 67.5591 347.078 66.7853 347.322C66.2559 347.497 65.9699 348.025 65.7654 348.483C65.3154 349.573 64.8655 350.664 64.5376 351.755C63.7689 349.605 63.0409 347.42 62.313 345.235Z" fill="black"/>
<path d="M73.0794 388.784C70.5141 376.684 67.5732 364.659 64.2942 352.712C64.6347 351.514 65.0127 350.317 65.4283 349.12C65.6171 348.618 65.8812 348.039 66.3698 347.847C67.0838 347.578 67.7959 348.198 68.3203 348.817C68.4326 348.972 68.5825 349.088 68.6949 349.243C69.6998 353.419 70.5546 357.594 71.3342 361.808C72.7619 361.424 74.1896 361.041 75.6549 360.657C78.7447 373.262 81.2711 385.981 83.1964 398.814C81.3167 399.892 79.4741 401.125 77.7814 402.551C75.4247 398.334 74.0086 393.269 73.0794 388.784Z" fill="#D9D9D9"/>
<path d="M65.5219 336.832C65.1433 335.699 64.7171 334.567 64.3386 333.434C65.4342 333.269 66.5299 333.062 67.6732 332.855C67.6731 332.897 67.673 332.938 67.6729 332.98C67.8613 333.945 68.0498 334.909 68.2382 335.873L68.3326 336.251C67.4275 336.417 66.4747 336.624 65.5219 336.832Z" fill="black"/>
<path d="M65.355 324.109C65.8149 324.037 66.2289 323.965 66.6888 323.893C67.5563 326.772 68.4236 329.687 69.3371 332.566C68.7391 332.674 68.1873 332.746 67.5893 332.854C66.9518 329.939 66.3144 326.988 65.355 324.109Z" fill="black"/>
<path d="M95.1406 328.734C95.851 328.576 96.5614 328.418 97.2717 328.3C98.7319 328.024 100.192 327.748 101.652 327.511C102.994 327.315 104.375 327.118 105.716 326.962C105.87 328.796 106.064 330.631 106.336 332.466C106.257 332.505 106.178 332.545 106.06 332.585C104.48 333.538 104.357 335.731 104.392 337.565C104.462 341.673 104.532 345.78 104.642 349.887C104.099 345.779 103.16 341.71 101.828 337.759C101.436 336.562 100.925 335.365 100.059 334.486C99.154 333.607 97.6953 333.205 96.6288 333.841C95.2464 334.675 95.1633 336.629 95.2388 338.224C95.4278 342.132 95.6561 346.08 95.8845 349.988C94.9467 345.76 93.0223 341.728 90.3076 338.333C89.6388 337.494 88.7728 336.615 87.6684 336.533C86.5246 336.451 85.497 337.366 85.0214 338.442C84.5457 339.517 84.5432 340.714 84.5407 341.87C84.5369 343.664 84.5332 345.419 84.5294 347.213C83.6666 344.819 82.567 342.504 81.2304 340.348C80.1296 338.551 78.5163 336.634 76.4254 336.709C74.4134 336.785 72.8709 338.695 72.551 340.728C72.2312 342.721 72.7792 344.756 73.3273 346.711C73.9929 349.065 74.6191 351.419 75.2452 353.773C73.7528 350.659 72.2998 347.586 70.8074 344.473C70.2184 343.195 69.4324 341.798 68.092 341.397C67.9737 341.357 67.8948 341.356 67.7766 341.316C67.3069 339.601 66.837 337.925 66.3278 336.249C67.1171 336.052 67.8671 335.854 68.6565 335.656C70.8273 335.102 73.0376 334.509 75.2085 333.915C78.0109 333.164 80.8134 332.372 83.6158 331.58C85.8656 330.987 88.1154 330.394 90.3651 329.84C91.9438 329.445 93.5225 329.089 95.1406 328.734Z" fill="#6C6B6C"/>
<path d="M69.521 331.861C68.8122 328.925 68.1035 325.952 67.357 323.017C69.2395 322.649 71.1597 322.282 73.0422 321.914C73.488 324.626 73.9322 328.119 74.3404 330.868C72.759 331.199 71.14 331.53 69.521 331.861Z" fill="#D9D9D9"/>
<path d="M68.3164 341.812C68.4296 341.813 68.505 341.851 68.6181 341.889C69.9004 342.231 70.6523 343.589 71.2157 344.797C72.6435 347.741 74.0335 350.647 75.4612 353.591C75.7609 354.647 76.0228 355.704 76.2847 356.76C74.3658 354.117 72.3335 351.548 70.1878 349.093C69.6269 346.641 68.9905 344.227 68.3164 341.812Z" fill="black"/>
<path d="M69.8156 332.797C71.4885 332.489 73.1614 332.181 74.8343 331.873C74.988 332.739 75.1419 333.501 75.2961 334.159L75.3346 334.332C73.1946 334.847 71.0546 335.362 68.8758 335.842L68.7987 335.53C68.6449 334.734 68.491 333.937 68.3371 333.14C68.3372 333.106 68.3373 333.071 68.3373 333.036C68.8042 332.968 69.3099 332.9 69.8156 332.797Z" fill="black"/>
<path d="M71.9454 361.731C71.1643 357.389 70.2701 353.087 69.3008 348.785C71.4404 351.378 73.467 354.089 75.3804 356.88C75.6788 358.115 75.9773 359.35 76.2758 360.545C74.8073 360.94 73.3763 361.335 71.9454 361.731Z" fill="#6C6B6C"/>
<path d="M74.8537 354.095C74.2865 351.854 73.7193 349.613 73.1164 347.372C72.6199 345.511 72.0878 343.574 72.4135 341.677C72.7035 339.779 74.1016 337.922 75.9248 337.85C77.8195 337.778 79.2812 339.603 80.2785 341.313C81.4895 343.366 82.4857 345.57 83.2673 347.849C83.2642 349.292 83.2611 350.772 83.2937 352.215C82.4424 349.138 81.0186 346.25 79.1653 343.703C78.6306 342.98 77.8101 342.219 77.0228 342.597C76.7008 342.748 76.4858 343.014 76.342 343.355C75.5167 344.872 75.8701 346.771 76.2239 348.48C77.0378 352.392 77.8159 356.303 78.5224 360.253C77.843 360.403 77.1991 360.592 76.5196 360.742C76.2362 359.565 75.9527 358.387 75.6691 357.248C75.4212 356.184 75.1375 355.121 74.8537 354.095Z" fill="black"/>
<path d="M73.3628 322.16C73.7654 322.08 74.1314 322 74.534 321.92C75.1492 325.105 75.7644 328.29 76.343 331.475C75.7574 331.595 75.2083 331.755 74.6226 331.874C74.19 328.891 73.759 325.102 73.3628 322.16Z" fill="black"/>
<path d="M76.188 331.875C75.5652 328.634 74.9425 325.393 74.3568 322.152C76.3576 321.746 78.3215 321.34 80.3223 320.934C80.9823 324.093 81.6793 327.252 82.3392 330.452C80.2641 330.899 78.2261 331.387 76.188 331.875Z" fill="#D9D9D9"/>
<path d="M76.2089 331.112C78.4 330.708 80.5912 330.304 82.7823 329.901C82.98 330.548 83.1379 331.228 83.3356 331.875C80.5068 332.516 77.678 333.191 74.8491 333.865L74.8096 333.695C74.6517 333.048 74.494 332.299 74.3365 331.448C74.9341 331.347 75.5715 331.247 76.2089 331.112Z" fill="black"/>
<path d="M76.6636 347.895C76.3402 346.163 76.0172 344.239 76.7728 342.701C76.937 342.394 77.1339 342.086 77.3959 341.933C78.1163 341.55 78.867 342.321 79.3561 343.053C81.0515 345.596 82.3536 348.561 83.132 351.679C83.1598 353.988 83.1876 356.296 83.2808 358.605C81.7755 358.948 80.2374 359.33 78.7319 359.75C78.086 355.824 77.4075 351.86 76.6636 347.895Z" fill="#6C6B6C"/>
<path d="M76.2802 360.238C77.0339 360.05 77.7479 359.9 78.5015 359.751C79.6393 365.389 80.6979 371.027 81.7167 376.665C82.8139 382.795 83.8713 388.962 84.8891 395.092C85.0066 395.773 85.1242 396.416 85.202 397.097C84.8845 397.248 84.567 397.399 84.2494 397.587C82.1748 384.987 79.5052 372.537 76.2802 360.238Z" fill="black"/>
<path d="M81.4948 376.95C80.4757 371.266 79.4169 365.582 78.2788 359.898C80.1041 359.482 81.9292 359.105 83.794 358.765C84.2113 367.69 85.422 376.539 88.6167 384.897C89.879 388.141 91.4189 391.347 92.205 394.705C89.7048 395.462 87.2835 396.41 84.9807 397.588C84.8632 396.901 84.7853 396.252 84.6677 395.566C83.6498 389.348 82.5921 383.13 81.4948 376.95Z" fill="#D9D9D9"/>
<path d="M78.6208 403.547C78.4635 403.238 78.3064 402.877 78.1886 402.568C79.9689 400.718 81.8671 399.075 83.8834 397.586C84 398.462 84.0771 399.337 84.1936 400.213C82.2965 401.341 80.4782 402.522 78.6208 403.547Z" fill="black"/>
<path d="M85.8933 416.364C85.8934 416.326 85.8934 416.326 85.8935 416.287C94.4209 415.96 102.871 415.363 111.207 413.537C111.44 413.499 111.635 413.462 111.869 413.385C111.908 413.385 111.908 413.385 111.947 413.385C113.739 412.967 115.492 412.356 117.168 411.592C116.647 418.31 113.362 425.407 107.127 428.159C105.178 428.999 103.075 429.417 100.972 429.758C96.726 430.518 92.0526 431.122 88.3195 428.964C86.2196 427.731 84.6664 425.769 83.152 423.884C81.8318 422.192 80.4728 420.461 79.1526 418.769C81.2188 417.506 83.5176 416.705 85.8933 416.364ZM105.932 422.512C106.01 422.243 106.088 421.974 106.089 421.706C106.129 421.283 106.013 420.784 105.624 420.629C105.313 420.514 105.001 420.59 104.689 420.743C104.183 420.972 103.637 421.355 103.558 421.892C103.518 422.315 103.829 422.776 104.218 422.93C104.646 423.046 105.503 422.779 105.932 422.512ZM100.68 420.312C100.915 419.89 100.955 419.391 100.8 418.968C100.722 418.814 100.645 418.622 100.489 418.507C100.217 418.276 99.7888 418.313 99.5159 418.505C99.204 418.696 99.0476 419.003 98.969 419.348C98.8902 419.809 99.0058 420.347 99.3556 420.655C99.6663 421.001 100.29 420.618 100.68 420.312ZM100.394 426.609C100.59 426.263 100.824 425.918 100.903 425.535C100.981 425.151 100.865 424.728 100.515 424.497C100.243 424.304 99.8539 424.342 99.581 424.533C99.308 424.725 99.1905 425.07 99.1897 425.416C99.1884 426.068 99.7713 426.569 100.394 426.609ZM93.7833 422.832C93.6268 423.215 93.7424 423.753 94.1313 423.984C94.5201 424.216 94.9875 424.14 95.4161 423.987L95.4548 424.102C96.0001 424.027 96.3519 423.336 96.1583 422.837C95.9647 422.337 95.3424 422.029 94.7972 422.104C94.3687 422.18 93.9399 422.448 93.7833 422.832Z" fill="#ECD648"/>
<path d="M82.1514 329.899C81.5649 326.65 80.9454 323.401 80.359 320.11C80.6228 320.069 80.8868 319.985 81.1506 319.943C81.7701 323.192 82.4885 326.399 83.339 329.564C82.9431 329.69 82.5472 329.815 82.1514 329.899Z" fill="black"/>
<path d="M84.9964 400.977C85.285 400.831 85.6146 400.722 85.9032 400.577C86.0244 401.675 86.1044 402.773 86.0608 403.907L86.1836 404.237C84.4533 404.672 82.7229 405.108 80.9514 405.543C80.2941 404.846 79.7192 404.113 79.1855 403.344C81.1635 402.616 83.0594 401.778 84.9964 400.977Z" fill="#D9D9D9"/>
<path d="M82.3612 320.925C84.0253 320.574 85.6547 320.263 87.3187 319.952C87.9709 322.904 88.6577 325.856 89.3445 328.808C87.7843 329.159 86.1894 329.549 84.6293 329.9C83.7692 326.947 83.0132 323.956 82.3612 320.925Z" fill="#D9D9D9"/>
<path d="M83.0883 406.546C82.7621 406.198 82.4723 405.85 82.1825 405.463C83.709 405.003 85.2719 404.543 86.7984 404.083C95.8485 401.322 104.863 398.367 114.199 397.653C114.089 398.078 113.979 398.541 113.869 398.965C105.731 399.914 97.7354 402.214 89.8485 404.552C87.595 405.243 85.3416 405.894 83.0883 406.546Z" fill="#0D0E0F"/>
<path d="M108.999 407.017C104.233 407.287 99.3911 407.317 94.7746 408.19C91.8231 408.745 88.8339 409.22 85.845 409.535C84.485 408.73 83.239 407.684 82.1825 406.479C84.529 405.802 86.8378 405.125 89.1844 404.448C97.4354 402.059 105.724 399.63 114.199 398.645C113.285 401.772 111.69 404.817 109.567 406.978C109.378 407.018 109.188 407.017 108.999 407.017Z" fill="#D9D9D9"/>
<path d="M83.6695 329.099C85.3731 328.679 87.1144 328.301 88.8179 327.924C88.9678 328.602 89.1555 329.322 89.3431 330.043C87.1851 330.631 85.027 331.262 82.8689 331.893C82.6815 331.088 82.5319 330.24 82.3444 329.435C82.7609 329.309 83.2152 329.183 83.6695 329.099Z" fill="black"/>
<path d="M83.3339 351.738C83.2997 350.263 83.3029 348.749 83.306 347.273C83.3098 345.526 83.3135 343.779 83.3171 342.071C83.3195 340.945 83.3219 339.78 83.7716 338.733C84.2213 337.686 85.1926 336.834 86.2739 336.875C87.2805 336.954 88.099 337.81 88.7685 338.627C91.3343 341.932 93.1159 345.819 94.0393 349.975C94.1108 351.45 94.2196 352.887 94.291 354.362C93.0324 350.05 90.9156 345.969 88.1263 342.508C86.6645 346.077 86.8797 350.115 87.1698 353.959C87.2788 355.318 87.3879 356.639 87.4969 357.998C86.154 358.228 84.811 358.497 83.5054 358.766C83.4358 356.397 83.3662 354.068 83.3339 351.738Z" fill="black"/>
<path d="M83.7108 401.568C83.5195 400.511 83.3927 399.453 83.2014 398.395C83.7181 398.147 84.2349 397.837 84.7515 397.589C84.9427 398.709 85.0695 399.767 85.1961 400.887C84.6795 401.135 84.1629 401.321 83.7108 401.568Z" fill="black"/>
<path d="M85.4457 400.574C85.3745 399.741 85.3033 398.954 85.1957 398.12C87.3133 396.689 89.5397 395.537 91.8385 394.616C91.9825 395.495 92.0901 396.329 92.1976 397.209L92.1974 397.301C89.8624 398.084 87.6724 399.283 85.4457 400.574Z" fill="#0D0E0F"/>
<path d="M109.14 406.971C109.14 407.038 109.179 407.072 109.178 407.14C101.191 407.497 93.2409 408.294 85.3682 409.533C85.3298 409.262 85.2524 408.99 85.1751 408.719C88.2536 408.454 91.3323 408.087 94.3723 407.584C99.1662 406.814 104.153 406.824 109.024 406.597C109.062 406.733 109.101 406.835 109.14 406.971Z" fill="#0D0E0F"/>
<path d="M100.457 395.827C102.491 395.713 104.564 395.638 106.598 395.643C107.028 395.644 107.42 395.644 107.85 395.645C110.314 395.65 112.739 395.774 115.202 395.937C115.123 396.291 115.045 396.646 114.966 397.001C104.951 397.689 95.2445 400.704 85.46 403.561L85.3434 403.206C85.3851 402.024 85.3093 400.841 85.1946 399.619C87.5437 398.52 89.9319 397.46 92.4364 396.874L92.4755 396.874C92.9451 396.757 93.4147 396.679 93.8843 396.562C95.4886 396.25 97.1317 396.096 98.7747 395.981C98.8529 395.981 98.9312 395.981 99.0094 395.981C99.518 395.904 99.9875 395.865 100.457 395.827Z" fill="#D9D9D9"/>
<path d="M86.4375 412.524C86.4003 411.738 86.3241 410.952 86.1701 410.241C94.0304 408.873 101.967 407.992 109.942 407.597C110.02 407.859 110.097 408.121 110.174 408.383C107.022 409.05 103.909 409.68 100.757 410.309C97.6824 410.939 94.6081 411.569 91.4953 412.011C89.7834 412.232 88.1104 412.416 86.4375 412.524Z" fill="#ECD648"/>
<path d="M86.2003 414.516C86.2011 414.141 86.163 413.732 86.1638 413.357C87.842 413.258 89.5595 413.091 91.2379 412.89C94.3608 412.488 97.4449 411.915 100.529 411.342C103.691 410.769 106.814 410.162 109.977 409.589C110.054 409.794 110.093 410.033 110.17 410.237C107.008 410.946 103.845 411.656 100.683 412.365C98.1842 412.939 95.6855 413.479 93.109 413.883C90.8449 414.219 88.503 414.419 86.2003 414.516Z" fill="#0D0E0F"/>
<path d="M86.1996 415.511C86.2004 415.136 86.2013 414.723 86.1617 414.347C88.5475 414.277 90.9742 414.019 93.3203 413.611C95.9496 413.166 98.5792 412.57 101.168 411.937C104.445 411.155 107.722 410.373 110.999 409.591C111.361 410.756 111.722 411.884 112.165 412.974C109.292 413.982 106.137 414.351 103.063 414.608C97.4415 415.122 91.8204 415.41 86.1996 415.511Z" fill="#ECD648"/>
<path d="M86.1995 416.505C86.2002 416.166 86.201 415.785 86.1619 415.404C91.722 415.331 97.3228 414.961 102.844 414.422C105.885 414.09 109.005 413.715 111.848 412.577C111.967 412.874 112.047 413.171 112.166 413.51C103.682 415.483 94.9604 416.1 86.1995 416.505Z" fill="#0D0E0F"/>
<path d="M87.3665 319.267C87.8566 319.153 88.3771 319.078 88.8672 318.964C89.3509 321.836 89.8346 324.709 90.3488 327.619C89.9507 327.695 89.5525 327.809 89.1849 327.923C88.5482 325.012 87.9421 322.14 87.3665 319.267Z" fill="black"/>
<path d="M83.2834 357.58C84.8808 357.301 86.4338 357.022 88.0311 356.783C89.3344 369.699 91.3918 382.536 94.2036 395.212C93.7155 395.332 93.1829 395.452 92.6947 395.613C91.8151 392.06 90.0925 388.667 88.6804 385.234C85.1064 376.389 83.7513 367.024 83.2834 357.58Z" fill="#0D0E0F"/>
<path d="M88.5 353.155C88.2286 349.697 88.0273 346.064 89.393 342.854C91.9996 345.968 93.978 349.639 95.1544 353.518C95.1876 354.287 95.2558 355.02 95.289 355.789C93.128 356.098 90.967 356.408 88.8059 356.788C88.704 355.565 88.602 354.378 88.5 353.155Z" fill="#6C6B6C"/>
<path d="M90.3898 327.927C89.7291 325.15 89.0683 322.372 88.3659 319.557C89.7413 319.375 91.1168 319.156 92.4922 318.974C93.4448 321.678 94.0639 324.455 94.3496 327.269C93.0158 327.489 91.682 327.708 90.3898 327.927Z" fill="#D9D9D9"/>
<path d="M87.3281 358.457C89.8518 358.077 92.3747 357.735 94.8963 357.471C95.5749 369.733 96.5369 382.038 97.7032 394.27C95.9128 394.509 94.1616 394.825 92.4084 395.257C90.0239 383.043 88.3307 370.763 87.3281 358.457Z" fill="#D9D9D9"/>
<path d="M90.7427 327.884C91.9198 327.568 93.0602 327.252 94.2373 326.936C94.2723 327.786 94.3074 328.582 94.3424 329.431C92.834 329.906 91.3624 330.381 89.8539 330.908C89.6719 330.059 89.5267 329.156 89.3448 328.253C89.7862 328.148 90.2644 328.043 90.7427 327.884Z" fill="black"/>
<path d="M92.6318 397.516C92.5466 396.682 92.4179 395.847 92.2022 395.056C92.6807 394.926 93.2028 394.751 93.6814 394.62C93.8534 395.499 94.0255 396.378 94.1975 397.256C93.6756 397.343 93.1536 397.474 92.6316 397.604L92.5881 397.604L92.6318 397.516Z" fill="#0D0E0F"/>
<path d="M92.3667 319.18C92.7714 319.112 93.176 319.044 93.5807 318.975C94.049 320.638 94.4162 322.335 94.8171 324.033C95.0176 324.864 95.1505 325.799 95.3509 326.665C94.8451 326.733 94.373 326.836 93.8671 326.939C93.6368 324.307 93.1367 321.709 92.3667 319.18Z" fill="black"/>
<path d="M94.6373 397.611C94.4943 396.706 94.3513 395.801 94.2082 394.896C95.7674 394.356 97.3262 393.952 98.9211 393.639C99.0275 394.725 99.0975 395.856 99.2039 396.942C97.6457 397.075 96.1235 397.252 94.6373 397.611Z" fill="#0D0E0F"/>
<path d="M95.5204 424.251C95.1709 424.473 94.7899 424.64 94.4734 424.249C94.1886 423.913 94.0632 423.188 94.1914 422.575C94.3195 422.017 94.6377 421.572 94.9868 421.517C95.4313 421.406 95.9381 421.798 96.095 422.579C96.2521 423.304 95.9962 424.308 95.52 424.418L95.5204 424.251Z" fill="black"/>
<path d="M95.685 324.41C95.2573 322.777 94.8656 321.143 94.366 319.543C95.6957 319.346 97.0255 319.149 98.3552 318.985C99.0686 321.419 99.7101 323.886 100.352 326.352C98.9859 326.549 97.6202 326.746 96.2545 326.944C96.0407 326.11 95.8989 325.21 95.685 324.41Z" fill="#D9D9D9"/>
<path d="M94.4466 329.924C94.4484 329.055 94.4151 328.241 94.3467 327.372C94.8734 327.21 95.3649 327.103 95.8915 326.941C95.9956 327.484 96.0996 328.081 96.2389 328.57C96.2387 328.679 96.2737 328.733 96.2737 328.733L96.3427 329.276C95.7105 329.546 95.0786 329.708 94.4466 329.924Z" fill="black"/>
<path d="M94.9553 349.902C94.7398 346.103 94.5244 342.265 94.3462 338.466C94.275 336.876 94.3536 334.977 95.6594 334.205C96.6668 333.587 98.0445 334.016 98.8998 334.832C99.755 335.686 100.2 336.85 100.57 338.014C101.866 341.815 102.752 345.771 103.228 349.803C103.262 351.004 103.26 352.167 103.295 353.369C102.409 349.181 100.666 345.185 98.2891 341.691C97.1617 346.185 97.4497 350.915 97.738 355.567C97.7746 355.877 97.774 356.148 97.8106 356.458C96.9906 356.573 96.1706 356.687 95.3506 356.802C95.3151 355.949 95.2423 355.135 95.2069 354.282C95.1355 352.809 95.0267 351.375 94.9553 349.902Z" fill="black"/>
<path d="M98.4762 393.636C97.1943 381.51 96.1432 369.308 95.2844 357.145C96.1308 357.032 96.9772 356.919 97.8236 356.806C98.6054 369.008 99.4257 381.209 100.207 393.41C99.6304 393.486 99.0533 393.561 98.4762 393.636Z" fill="#0D0E0F"/>
<path d="M100.305 328.123L100.345 328.286C98.8525 328.479 97.3601 328.671 95.8676 328.929L95.7877 328.603C95.7877 328.603 95.7877 328.57 95.7476 328.505C95.5869 328.211 95.4666 327.884 95.3464 327.525C96.8791 327.3 98.4118 327.107 99.9444 326.947C100.065 327.339 100.185 327.731 100.305 328.123Z" fill="black"/>
<path d="M98.5199 355.905C98.2757 351.202 98.0315 346.459 98.9946 341.876C101.021 345.408 102.474 349.447 103.26 353.681C103.258 354.504 103.288 355.327 103.286 356.189C101.697 356.382 100.139 356.574 98.5498 356.806C98.5505 356.493 98.5511 356.179 98.5199 355.905Z" fill="#6C6B6C"/>
<path d="M100.613 393.642C99.8501 381.239 99.0502 368.837 98.2877 356.434C100.129 356.205 102.007 356.015 103.885 355.824C103.954 358.895 103.985 361.967 104.054 365.038C104.186 373.318 104.537 384.825 106.209 393.459C104.331 393.377 102.453 393.412 100.613 393.642Z" fill="#D9D9D9"/>
<path d="M98.3668 318.187C98.6827 318.108 98.9986 318.069 99.3461 317.99C100.13 320.859 100.786 323.806 101.349 326.754C100.938 326.833 100.527 326.911 100.117 326.95C99.5543 324.043 98.9606 321.095 98.3668 318.187Z" fill="black"/>
<path d="M99.3576 396.627C99.3007 395.72 99.2634 394.775 99.2065 393.867C99.5008 393.792 99.7951 393.717 100.109 393.643C100.146 394.588 100.164 395.533 100.201 396.515C99.9656 396.553 99.7303 396.552 99.4949 396.59C99.4556 396.627 99.4164 396.627 99.3576 396.627Z" fill="black"/>
<path d="M99.3621 420.369C99.183 419.94 99.1243 419.321 99.1655 418.75C99.2064 418.321 99.2872 417.94 99.4478 417.703C99.6083 417.465 99.8083 417.465 99.9478 417.704C100.028 417.847 100.067 418.037 100.107 418.275C100.186 418.799 100.164 419.418 100.043 419.942C99.8624 420.275 99.5413 420.75 99.3621 420.369Z" fill="black"/>
<path d="M99.1386 425.428C99.1393 425.121 99.2078 424.848 99.3666 424.643C99.5254 424.473 99.7518 424.439 99.9099 424.61C100.091 424.781 100.158 425.191 100.134 425.533C100.088 425.874 99.9744 426.181 99.8381 426.454L99.838 426.488C99.4987 426.419 99.1601 425.975 99.1386 425.428Z" fill="black"/>
<path d="M102.08 326.271C103.143 326.169 104.205 326.066 105.223 325.963L105.223 326.033C105.266 326.522 105.309 326.976 105.352 327.465C103.803 327.602 102.299 327.738 100.794 327.945L100.75 327.77C100.618 327.351 100.486 326.931 100.354 326.477C100.974 326.374 101.505 326.34 102.08 326.271Z" fill="black"/>
<path d="M100.388 396.626C100.316 395.409 100.282 394.192 100.21 392.925C102.026 392.686 103.878 392.592 105.692 392.693C105.838 393.716 106.021 394.691 106.205 395.665L106.203 396.395C104.277 396.44 102.314 396.484 100.388 396.626Z" fill="black"/>
<path d="M101.696 326.955C101.042 323.91 100.279 320.864 99.3692 317.901C101.239 317.576 103.109 317.292 105.015 317.008C105.449 319.929 105.954 323.55 106.351 326.306C105.655 326.387 104.995 326.468 104.298 326.549C103.455 326.712 102.575 326.833 101.696 326.955Z" fill="#D9D9D9"/>
<path d="M103.568 349.83C103.501 345.846 103.435 341.863 103.33 337.88C103.296 336.101 103.451 333.974 104.92 333.049C104.996 333.011 105.071 332.972 105.184 332.934C105.406 334.481 105.629 336.067 105.851 337.614C105.542 341.249 106.174 344.924 106.279 348.559C106.349 350.918 106.232 353.277 106.039 355.636C105.248 355.711 104.458 355.748 103.631 355.824C103.632 355.012 103.597 354.161 103.598 353.349C103.601 352.227 103.603 351.029 103.568 349.83Z" fill="black"/>
<path d="M103.484 365.203C103.403 362.141 103.366 359.08 103.285 356.018C104.205 355.942 105.125 355.867 106.09 355.83C105.91 358.077 105.642 360.325 105.462 362.572C105.055 368.423 105.349 374.314 106.345 380.13C107.124 384.627 108.297 389.163 108.2 393.659C107.499 393.618 106.754 393.578 106.053 393.538C104.1 384.93 103.686 373.458 103.484 365.203Z" fill="black"/>
<path d="M104.671 423.455C104.334 423.263 104.12 422.736 104.152 422.162C104.184 421.492 104.615 421.015 105.046 420.728C105.292 420.585 105.538 420.442 105.784 420.586C106.09 420.778 106.15 421.401 106.149 421.927C106.149 422.262 106.087 422.597 106.024 422.932C105.655 423.314 104.978 423.647 104.671 423.455Z" fill="black"/>
<path d="M107.464 326.109C107.88 326.092 108.332 326.076 108.748 326.059C109.616 326.026 110.446 325.993 111.314 325.977C111.313 326.204 111.351 326.431 111.35 326.659C110.105 326.778 108.821 326.828 107.538 326.878C106.821 326.911 106.142 326.927 105.463 326.96C105.425 326.716 105.388 326.489 105.351 326.244L105.351 326.209C106.03 326.176 106.747 326.142 107.464 326.109Z" fill="black"/>
<path d="M105.927 333.506C105.71 331.576 105.493 329.646 105.35 327.716C106.013 327.634 106.712 327.551 107.375 327.511C108.627 327.387 109.878 327.306 111.094 326.973C111.126 329.113 111.195 331.252 111.227 333.392C111.261 334.902 111.295 336.412 111.328 337.923C110.889 336.663 110.377 335.404 109.495 334.479C108.614 333.428 107.106 332.88 105.927 333.506Z" fill="#D9D9D9"/>
<path d="M106.371 317.125C106.565 317.086 106.76 317.048 106.982 317.009C107.504 319.944 107.97 322.879 108.352 325.853C108.047 325.891 107.713 325.93 107.408 325.968C107.08 323.347 106.698 319.903 106.371 317.125Z" fill="black"/>
<path d="M107.759 355.324C108.321 349.326 107.544 343.325 106.732 337.323C106.732 337.285 106.732 337.246 106.732 337.207C106.803 336.394 106.977 335.466 107.63 335.08C108.249 334.733 109.004 335.044 109.587 335.433C110.171 335.821 110.685 336.286 111.165 336.791C111.478 350.958 111.929 365.165 113.892 379.142C114.568 383.943 115.417 388.784 115.166 393.66C115.165 394.009 115.13 394.318 115.095 394.667C113.551 394.005 111.868 393.615 110.22 393.34C109.671 393.262 109.121 393.183 108.537 393.143C108.616 388.615 107.698 384.123 107.089 379.631C106.311 373.823 106.083 367.939 106.405 362.095C106.513 359.851 106.723 357.606 106.9 355.361C107.175 355.362 107.45 355.324 107.759 355.324Z" fill="#D9D9D9"/>
<path d="M107.053 337.911C106.814 336.029 106.575 334.099 106.335 332.217C107.634 331.561 109.254 332.129 110.306 333.307C111.236 334.344 111.801 335.757 112.325 337.17C112.325 337.217 112.325 337.217 112.325 337.264C111.758 336.651 111.111 336.085 110.463 335.613C109.775 335.141 108.884 334.716 108.153 335.185C107.382 335.654 107.177 336.782 107.094 337.77C107.094 337.817 107.053 337.864 107.053 337.911Z" fill="black"/>
<path d="M106.672 348.768C106.602 345.162 106.167 341.516 106.383 337.91C106.995 343.858 107.581 349.806 107.152 355.752C106.944 355.79 106.736 355.789 106.501 355.827C106.637 353.449 106.72 351.109 106.672 348.768Z" fill="#6C6B6C"/>
<path d="M106.773 395.054C106.571 394.307 106.409 393.482 106.207 392.656C106.86 392.697 107.554 392.738 108.207 392.778C108.205 393.525 108.163 394.271 108.039 395.057L108.037 395.646C107.588 395.645 107.18 395.644 106.731 395.643L106.773 395.054Z" fill="black"/>
<path d="M108.473 325.97C107.886 322.817 107.172 319.705 106.374 316.592C107.942 316.388 109.468 316.184 111.036 316.022L111.119 316.768C111.198 319.754 111.276 322.782 111.354 325.769C110.38 325.849 109.447 325.889 108.473 325.97Z" fill="#D9D9D9"/>
<path d="M108.201 396.385L108.202 395.825C108.276 395.116 108.313 394.407 108.351 393.66C108.925 393.699 109.535 393.775 110.109 393.851C111.832 394.116 113.554 394.493 115.204 395.131C115.167 395.616 115.094 396.138 114.985 396.661C112.688 396.506 110.427 396.427 108.201 396.385Z" fill="black"/>
<path d="M94.5711 221.388L94.6133 201.52L102.74 201.537C106.613 201.545 109.515 203.318 109.507 206.773C109.504 208.304 108.574 209.952 107.352 210.577C109.077 211.405 110.589 213.058 110.583 215.61C110.576 219.34 107.918 221.455 103.455 221.446L94.571 221.427L94.5711 221.388ZM99.0182 209.107L102.218 209.114C104.071 209.118 105.125 208.531 105.128 207.157C105.131 205.782 104.079 205.191 102.227 205.187L99.0266 205.18L99.0182 209.107ZM98.9998 217.785L102.41 217.792C104.895 217.797 106.117 217.132 106.121 215.287C106.125 213.441 104.905 212.771 102.421 212.766L99.0105 212.759L98.9998 217.785V217.785Z" fill="white"/>
<path d="M114.575 221.431L114.617 201.562L118.756 201.571L118.74 209.149L122.999 209.158C127.218 209.167 129.72 211.568 129.712 215.337C129.704 219.067 127.192 221.496 122.973 221.488L114.575 221.47L114.575 221.431ZM118.722 217.827L121.946 217.834C124.294 217.839 125.45 217.174 125.454 215.328C125.458 213.483 124.305 212.813 121.957 212.808L118.733 212.801L118.722 217.827ZM134.436 221.472L134.478 201.604L138.617 201.613L138.575 221.481L134.436 221.472Z" fill="white"/>
<path d="M152.991 200.649C157.285 200.658 160.038 202.538 161.605 206.251L157.939 207.839C156.998 205.643 155.386 204.363 152.983 204.358C149.517 204.351 147.936 207.26 147.928 211.089C147.92 214.879 149.449 217.834 152.955 217.841C155.318 217.846 156.936 216.573 157.925 214.381L161.585 215.985C160.001 219.651 157.201 221.56 152.947 221.551C146.606 221.538 143.583 216.665 143.595 211.12C143.607 205.456 146.65 200.635 152.991 200.649Z" fill="white"/>
<path d="M164.606 205.287L164.613 201.668L178.613 201.697L178.606 205.317L173.505 205.306L173.47 221.594L169.598 221.586L169.632 205.298L164.606 205.287Z" fill="white"/>
<path d="M190.083 208.854L193.47 208.861L193.471 207.98C193.477 205.457 191.727 204.452 189.664 204.448C188.068 204.445 186.665 205.323 185.999 207.123L182.302 206.315C183.127 202.913 185.935 200.716 189.75 200.724C194.343 200.734 197.609 202.783 197.596 208.749L197.57 221.323L194.144 221.316L193.76 218.672C192.472 220.551 190.484 221.629 187.642 221.623C184.372 221.616 181.573 219.688 181.582 215.443C181.552 211.278 185.022 208.843 190.083 208.854ZM188.273 217.94C190.764 217.945 193.454 216.309 193.461 212.785L193.462 212.345L189.92 212.337C187.428 212.332 185.869 213.53 185.864 215.452C185.822 216.894 186.56 217.936 188.273 217.94Z" fill="white"/>
<path d="M202.575 221.614L202.617 201.746L210.236 201.762C213.867 201.77 216.587 203.542 216.58 206.998C216.576 208.529 215.705 210.176 214.559 210.802C216.175 211.63 217.593 213.282 217.587 215.834C217.579 219.565 215.088 221.68 210.904 221.671L202.575 221.653L202.575 221.614ZM206.746 209.333L209.746 209.339C211.483 209.343 212.471 208.756 212.474 207.382C212.477 206.007 211.491 205.416 209.754 205.413L206.754 205.406L206.746 209.333ZM206.727 218.011L209.925 218.017C212.254 218.022 213.4 217.357 213.404 215.512C213.408 213.666 212.264 212.996 209.935 212.991L206.738 212.985L206.727 218.011Z" fill="white"/>
<path d="M221.575 221.696L221.617 201.789L225.7 201.798L225.683 209.745L232.885 201.813L238.107 201.824L229.764 210.973L238.575 221.732L233.353 221.721L225.678 212.184L225.658 221.705L221.575 221.696V221.696Z" fill="white"/>
<path d="M249.087 208.979L252.473 208.986L252.475 208.105C252.481 205.582 250.731 204.577 248.668 204.573C247.072 204.57 245.668 205.448 245.003 207.248L241.306 206.44C242.131 203.038 244.939 200.841 248.754 200.849C253.347 200.859 256.613 202.908 256.6 208.874L256.573 221.448L253.148 221.441L252.764 218.797C251.475 220.676 249.488 221.754 246.646 221.748C243.376 221.741 240.577 219.813 240.586 215.568C240.556 211.403 244.026 208.968 249.087 208.979ZM247.316 218.065C249.807 218.07 252.497 216.434 252.504 212.91L252.505 212.47L248.963 212.462C246.471 212.457 244.911 213.655 244.907 215.577C244.826 217.019 245.603 218.061 247.316 218.065Z" fill="white"/>
<path d="M64.4968 258.196L64.5391 238.289L68.8624 238.298L68.8455 246.245L76.4698 238.314L81.9986 238.326L73.1662 247.474L82.4968 258.234L76.9679 258.223L68.8403 248.685L68.8201 258.206L64.4968 258.196V258.196Z" fill="white"/>
<path d="M93.5351 238.349C99.8403 238.362 103.525 243.135 103.513 248.822C103.501 254.548 99.796 259.265 93.4908 259.252C87.1856 259.239 83.5009 254.466 83.513 248.78C83.525 243.093 87.2299 238.336 93.5351 238.349ZM93.4986 255.568C97.1532 255.576 99.0881 252.216 99.0953 248.812C99.1024 245.449 97.2221 242.041 93.5273 242.033C89.8727 242.025 87.9379 245.385 87.9306 248.789C87.9234 252.192 89.8038 255.56 93.4986 255.568Z" fill="white"/>
<path d="M107.493 258.282L107.535 238.375L111.425 238.383L111.409 245.898L118.629 245.913L118.645 238.398L122.535 238.407L122.493 258.314L118.603 258.306L118.621 249.532L111.402 249.517L111.383 258.291L107.493 258.282Z" fill="white"/>
<path d="M129.493 258.329L129.535 238.422L133.378 238.43L133.361 246.377L140.14 238.444L145.055 238.455L137.202 247.605L145.493 258.363L140.578 258.353L133.356 248.816L133.336 258.337L129.493 258.329V258.329Z" fill="white"/>
<path d="M146.535 238.457L150.907 238.466L155.605 251.843L160.203 238.486L164.535 238.495L154.393 266.344L150.297 266.335L153.545 257.326L146.535 238.457Z" fill="white"/>
<path d="M167.476 266.37L167.534 238.81L171.534 238.819L171.53 241.067C172.147 239.944 174.266 238.514 176.843 238.52C182.612 238.532 185.527 242.375 185.514 248.655C185.501 254.741 182.608 258.766 176.723 258.753C174.3 258.748 172.379 257.543 171.497 256.262L171.476 266.379L167.476 266.37ZM176.269 255.148C179.154 255.154 181.274 252.677 181.283 248.607C181.292 244.576 179.22 242.052 176.297 242.046C173.412 242.04 171.292 244.516 171.283 248.586C171.274 252.656 173.384 255.142 176.269 255.148Z" fill="white"/>
<path d="M198.909 238.567C203.203 238.576 205.956 240.456 207.523 244.169L203.857 245.757C202.916 243.561 201.304 242.281 198.901 242.276C195.435 242.269 193.854 245.178 193.846 249.007C193.838 252.797 195.367 255.752 198.873 255.759C201.236 255.764 202.854 254.491 203.843 252.299L207.503 253.903C205.919 257.569 203.119 259.478 198.865 259.469C192.524 259.456 189.501 254.583 189.513 249.038C189.525 243.414 192.568 238.553 198.909 238.567Z" fill="white"/>
<path d="M211.493 258.501L211.535 238.594L215.685 238.602L215.669 246.117L223.37 246.133L223.386 238.619L227.535 238.627L227.493 258.535L223.343 258.526L223.362 249.753L215.661 249.736L215.643 258.51L211.493 258.501Z" fill="white"/>
<path d="M233.497 258.509L233.539 238.641L237.499 238.649L237.483 246.227L241.558 246.236C245.594 246.244 247.988 248.644 247.98 252.414C247.972 256.144 245.568 258.573 241.532 258.565L233.497 258.548L233.497 258.509ZM237.465 254.865L240.549 254.872C242.796 254.877 243.902 254.211 243.906 252.366C243.91 250.52 242.807 249.851 240.56 249.846L237.476 249.839L237.465 254.865ZM252.499 258.549L252.541 238.681L256.539 238.689L256.497 258.557L252.499 258.549Z" fill="white"/>
<path d="M260.493 258.607L267.255 248.116L261.262 238.701L265.822 238.71L269.523 244.58L273.248 238.726L277.809 238.736L271.775 248.126L278.493 258.644L273.932 258.635L269.467 251.662L264.973 258.616L260.493 258.607Z" fill="white"/>
<path d="M124.382 312.07L124.441 284.509L128.441 284.518L128.436 286.766C129.054 285.643 131.172 284.213 133.749 284.219C139.518 284.231 142.433 288.075 142.42 294.354C142.407 300.44 139.514 304.465 133.629 304.453C131.206 304.448 129.286 303.242 128.404 301.961L128.382 312.078L124.382 312.07ZM133.175 300.886C136.06 300.892 138.181 298.415 138.189 294.345C138.198 290.314 136.126 287.79 133.203 287.784C130.318 287.778 128.198 290.254 128.189 294.324C128.219 298.394 130.291 300.879 133.175 300.886Z" fill="white"/>
<path d="M153.912 292.002L157.299 292.009L157.3 291.17C157.305 288.767 155.556 287.81 153.492 287.806C151.896 287.803 150.493 288.639 149.828 290.353L146.131 289.583C146.955 286.343 149.763 284.251 153.578 284.259C158.171 284.269 161.437 286.221 161.425 291.903L161.4 303.878L157.974 303.871L157.59 301.353C156.302 303.143 154.314 304.168 151.472 304.162C148.202 304.155 145.403 302.319 145.412 298.277C145.381 294.31 148.851 291.991 153.912 292.002ZM152.142 300.655C154.633 300.66 157.322 299.102 157.33 295.746L157.33 295.327L153.788 295.319C151.296 295.314 149.737 296.455 149.733 298.286C149.652 299.658 150.39 300.651 152.142 300.655Z" fill="white"/>
<path d="M176.373 276.206L177.937 276.209C179.425 276.212 180.227 275.742 180.802 274.366L183.282 274.371C183.274 278.463 181.172 279.875 177.891 279.868L176.212 279.864C173.122 279.858 170.905 282.017 170.629 286.108C171.814 285.009 173.915 283.676 176.662 283.682C182.194 283.693 185.427 288.382 185.415 293.968C185.403 299.594 181.884 304.23 175.894 304.217C170.056 304.205 166.404 299.515 166.42 291.607C166.445 280.119 170.421 276.193 176.373 276.206ZM175.901 300.558C179.373 300.565 181.212 297.264 181.219 293.92C181.226 290.616 179.44 287.268 175.93 287.26C172.458 287.253 170.619 290.554 170.612 293.898C170.643 297.242 172.43 300.551 175.901 300.558Z" fill="white"/>
<path d="M198.937 284.356C204.927 284.369 208.428 288.914 208.416 294.33C208.405 299.783 204.885 304.276 198.895 304.263C192.905 304.251 189.405 299.705 189.416 294.29C189.428 288.874 192.986 284.343 198.937 284.356ZM198.903 300.755C202.375 300.762 204.213 297.562 204.22 294.321C204.226 291.117 202.44 287.872 198.93 287.864C195.458 287.857 193.62 291.057 193.613 294.298C193.644 297.54 195.431 300.747 198.903 300.755Z" fill="white"/>
<path d="M211.434 288.002L211.441 284.383L225.441 284.412L225.434 288.032L220.346 288.021L220.312 304.309L216.45 304.301L216.484 288.013L211.434 288.002Z" fill="white"/>
<path d="M78.8801 77.0236L78.8906 72.0859L79.7926 72.0878L80.8851 74.6765L81.9887 72.0925L82.8906 72.0943L82.8801 77.0712L82.0565 77.0695L82.064 73.5426L81.1183 75.6959L80.6477 75.6949L79.7111 73.5376L79.7036 77.0645L78.8801 77.0628L78.8801 77.0236Z" fill="white"/>
<path d="M83.8867 72.0977L85.0296 72.1001L87.0229 75.2246L88.7915 72.108L89.8867 72.1103L86.3026 78.075L85.3026 78.0729L86.4974 76.0623L83.8867 72.0977Z" fill="white"/>
<path d="M92.6119 75.5792C92.7156 76.046 92.994 76.3576 93.4126 76.3585C93.8661 76.3595 94.1807 76.0491 94.1819 75.5047C94.1831 74.9215 93.9048 74.571 93.4164 74.57C93.2769 74.5697 93.1721 74.6083 93.0674 74.647L92.6848 74.1407L93.5248 72.8205L92.1294 72.8176L92.1309 72.1177L94.6425 72.123L94.6419 72.3952L93.5222 74.0258C93.592 74.026 93.6269 73.9872 93.6967 73.9873C94.4293 73.9889 94.8816 74.5341 94.8795 75.5062C94.8776 76.4393 94.2134 77.0989 93.3762 77.0972C92.5738 77.0955 91.982 76.5499 91.8792 75.6554L92.6119 75.5792Z" fill="white"/>
<path d="M98.9072 72.1292C100.196 72.1319 100.888 73.1972 100.886 74.4509L100.885 74.7928L97.6123 74.7859C97.6433 75.7358 98.1709 76.3827 98.8981 76.3842C99.5262 76.3856 99.9567 76.0446 100.256 75.4373L100.817 75.7804C100.352 76.8052 99.69 77.1077 98.8966 77.1061C97.6735 77.1035 96.8823 76.0381 96.8853 74.6324C96.9213 73.2648 97.651 72.1266 98.9072 72.1292ZM100.159 74.0694C100.029 73.3093 99.5998 72.8525 98.9056 72.8511C98.2445 72.8497 97.8137 73.3427 97.6799 74.0642L100.159 74.0694Z" fill="white"/>
<path d="M103.88 77.0803L103.89 72.0922L104.463 72.0934L104.455 75.8543L106.263 72.0972L106.89 72.0985L106.88 77.1262L106.307 77.125L106.315 73.3641L104.507 77.1212L103.88 77.1199L103.88 77.0803ZM105.067 70.1548C105.067 70.4319 105.175 70.5905 105.366 70.5909C105.557 70.5913 105.667 70.3936 105.667 70.1561L106.131 70.157C106.13 70.7509 105.801 71.2252 105.365 71.2243C104.929 71.2234 104.602 70.7477 104.604 70.1538L105.067 70.1548Z" fill="white"/>
<path d="M60.8651 83.8434L60.8665 83.1569L63.08 81.0164L63.0779 82.0032L61.4927 83.5015L63.0716 85.0064L63.0695 85.9932L60.8651 83.8434ZM62.6561 83.8471L62.6576 83.1607L64.8711 81.0201L64.869 82.0069L63.2837 83.5052L64.8626 85.0102L64.8605 85.997L62.6561 83.8471Z" fill="white"/>
<path d="M67.8602 86.9949L67.8618 86.2427L69.078 86.2453L69.0885 81.2967L67.8972 82.3235L67.8991 81.413L69.4426 80.0306L69.6588 80.0311L69.6456 86.2465L70.8618 86.249L70.8602 87.0012L67.8602 86.9949V86.9949Z" fill="white"/>
<path d="M84.8545 87.0347L84.8672 81.0625L88.8672 81.0709L88.8545 87.0431L88.031 87.0414L88.0418 81.9627L85.6888 81.9577L85.678 87.0364L84.8545 87.0347Z" fill="white"/>
<path d="M91.8542 89.0372L91.8709 81.1627L92.4048 81.1638L92.4032 81.9159C92.5821 81.4739 92.9389 81.0765 93.3965 81.0774C94.3372 81.0794 94.8686 82.275 94.865 83.956C94.8613 85.6813 94.325 86.8304 93.3843 86.8284C92.9267 86.8275 92.5715 86.4728 92.3945 86.0301L92.3882 88.9941L91.8543 88.9929L91.8542 89.0372ZM93.3352 86.032C93.9453 86.0333 94.303 85.1935 94.3056 83.9991C94.3081 82.8047 93.954 81.9634 93.3438 81.9621C92.7336 81.9608 92.3759 82.8006 92.3734 83.995C92.3454 85.1894 92.725 86.0308 93.3352 86.032Z" fill="white"/>
<path d="M97.8584 87.0621L97.8711 81.0898L98.4438 81.091L98.4343 85.5584L100.244 81.0948L100.871 81.0962L100.858 87.0684L100.258 87.0671L100.268 82.5997L98.4584 87.0633L97.8584 87.0621Z" fill="white"/>
<path d="M103.858 87.0738L103.871 81.1016L104.548 81.103L105.365 84.2084L106.195 81.1064L106.871 81.1079L106.858 87.0801L106.241 87.0788L106.25 82.8465L105.538 85.4314L105.185 85.4307L104.485 82.8428L104.476 87.0751L103.858 87.0738Z" fill="white"/>
<path d="M111.392 81.1186C113.003 81.122 113.868 82.4003 113.865 83.9047L113.864 84.315L109.773 84.3064C109.812 85.4463 110.472 86.2227 111.381 86.2246C112.166 86.2262 112.704 85.8171 113.078 85.0884L113.779 85.5002C113.198 86.7299 112.371 87.0929 111.379 87.0908C109.85 87.0876 108.861 85.809 108.865 84.1222C108.868 82.481 109.822 81.1153 111.392 81.1186ZM112.916 83.4469C112.752 82.5347 112.216 81.9865 111.349 81.9847C110.522 81.983 109.984 82.5745 109.817 83.4403L112.916 83.4469Z" fill="white"/>
<path d="M114.869 82.0185L114.871 81.125L119.871 81.1355L119.869 82.029L117.852 82.0247L117.841 87.1035L116.92 87.1015L116.931 82.0228L114.869 82.0185Z" fill="white"/>
<path d="M120.861 86.1136L120.863 85.1268L122.829 83.6293L120.869 82.1235L120.871 81.1367L123.607 83.2877L123.606 83.9741L120.861 86.1136ZM123.12 86.1183L123.122 85.1315L125.088 83.634L123.128 82.1283L123.13 81.1415L125.867 83.2924L125.865 83.9789L123.12 86.1183Z" fill="white"/>
</g>
<defs>
<filter id="filter0_d" x="0.09375" y="0.375" width="341.84" height="504.183" filterUnits="userSpaceOnUse" color-interpolation-filters="sRGB">
<feFlood flood-opacity="0" result="BackgroundImageFix"/>
<feColorMatrix in="SourceAlpha" type="matrix" values="0 0 0 0 0 0 0 0 0 0 0 0 0 0 0 0 0 0 127 0"/>
<feOffset dy="4"/>
<feGaussianBlur stdDeviation="2"/>
<feColorMatrix type="matrix" values="0 0 0 0 0 0 0 0 0 0 0 0 0 0 0 0 0 0 0.25 0"/>
<feBlend mode="normal" in2="BackgroundImageFix" result="effect1_dropShadow"/>
<feBlend mode="normal" in="SourceGraphic" in2="effect1_dropShadow" result="shape"/>
</filter>
</defs>
</svg>
