<svg width="343" height="508" viewBox="0 0 343 508" fill="none" xmlns="http://www.w3.org/2000/svg">
<g filter="url(#filter0_d)">
<path d="M338.698 51.2657C338.757 23.6515 316.418 1.21854 288.804 1.16021L55.8046 0.668103C28.1904 0.60978 5.75741 22.9482 5.69908 50.5624L4.85848 448.561C4.80016 476.176 27.1386 498.609 54.7528 498.667L287.752 499.159C315.366 499.217 337.799 476.879 337.858 449.265L338.698 51.2657Z" fill="white"/>
<path d="M252.566 454.084L90.1397 453.741C59.5897 453.676 34.9053 428.94 34.9695 398.543L35.5985 100.706C35.6628 70.2698 60.4904 45.6773 91.0014 45.7418L253.428 46.0848C283.978 46.1493 308.662 70.8852 308.598 101.283L307.969 399.119C307.905 429.517 283.116 454.148 252.566 454.084Z" fill="#0D0E0F"/>
<path d="M57.1568 327.644L57.1193 327.499C58.403 327.213 59.6865 326.963 60.9701 326.676C61.9454 329.461 62.6564 332.282 63.1031 335.175C62.0462 335.353 60.9892 335.532 59.9323 335.674C59.0323 332.997 58.0945 330.321 57.1568 327.644Z" fill="#D9D9D9"/>
<path d="M61.1262 339.678C60.7953 338.54 60.4273 337.402 60.0965 336.225C61.1339 336.031 62.1713 335.876 63.2088 335.682C63.2453 335.918 63.2819 336.114 63.2814 336.349C63.3909 337.134 63.5003 337.957 63.9806 338.508L64.0906 339.018C63.1271 339.251 62.1267 339.484 61.1262 339.678Z" fill="black"/>
<path d="M61.1166 326.975C61.6759 326.865 62.2353 326.756 62.7946 326.683C63.5626 329.599 64.3307 332.514 65.0987 335.43C64.5824 335.503 64.0661 335.575 63.5498 335.685C63.04 332.696 62.2289 329.78 61.1166 326.975Z" fill="black"/>
<path d="M64.7524 335.895C65.1664 335.813 65.5343 335.772 65.9482 335.69C66.3596 336.815 66.7251 337.941 67.0905 339.067C66.1246 339.273 65.1586 339.48 64.1927 339.686L64.0559 339.144C63.4134 338.559 63.2773 337.684 63.1871 336.85C63.1417 336.6 63.0962 336.392 63.0967 336.142C63.6485 336.101 64.2004 336.019 64.7524 335.895Z" fill="black"/>
<path d="M63.6846 346.685C62.8496 344.398 61.9705 342.11 61.0913 339.823C62.2851 339.646 63.4789 339.435 64.6727 339.223C65.6013 339.046 66.5298 338.87 67.4584 338.693C68.0298 340.194 68.5569 341.731 69.0842 343.232C67.2283 343.014 65.5016 344.368 64.4381 345.687C64.128 346.008 63.9063 346.364 63.6846 346.685Z" fill="#D9D9D9"/>
<path d="M65.8588 335.494C65.4358 335.57 65.0599 335.608 64.6369 335.685C63.7977 332.621 62.9585 329.557 62.1194 326.494C63.7173 326.226 65.2682 325.958 66.866 325.69C67.8462 328.754 68.4973 331.856 69.1014 334.997C68.0206 335.15 66.9397 335.302 65.8588 335.494Z" fill="#D9D9D9"/>
<path d="M63.0786 347.134C63.2828 346.816 63.5277 346.463 63.7726 346.145C64.7521 344.838 66.3421 343.497 68.051 343.712C68.7788 345.978 69.4658 348.244 70.0715 350.51C69.9497 350.368 69.7872 350.226 69.6654 350.12C69.0967 349.588 68.3247 348.985 67.551 349.231C67.0215 349.407 66.7355 349.937 66.5311 350.396C66.0811 351.492 65.6311 352.588 65.3032 353.684C64.5345 351.524 63.8066 349.329 63.0786 347.134Z" fill="black"/>
<path d="M73.845 390.885C71.2797 378.728 68.3388 366.648 65.0598 354.645C65.4003 353.442 65.7784 352.239 66.1939 351.037C66.3828 350.532 66.6468 349.951 67.1354 349.757C67.8494 349.487 68.5615 350.11 69.0859 350.732C69.1982 350.888 69.3482 351.004 69.4605 351.16C70.4655 355.355 71.3202 359.55 72.0998 363.783C73.5275 363.398 74.9552 363.013 76.4205 362.627C79.5103 375.29 82.0367 388.068 83.9621 400.962C82.0823 402.045 80.2398 403.283 78.547 404.716C76.1903 400.479 74.7742 395.391 73.845 390.885Z" fill="#D9D9D9"/>
<path d="M66.2875 338.69C65.9089 337.552 65.4828 336.415 65.1042 335.277C66.1998 335.111 67.2955 334.903 68.4388 334.695C68.4387 334.737 68.4386 334.779 68.4385 334.821C68.627 335.79 68.8154 336.759 69.0038 337.727L69.0983 338.106C68.1931 338.273 67.2403 338.481 66.2875 338.69Z" fill="black"/>
<path d="M66.1206 325.907C66.5806 325.835 66.9945 325.763 67.4544 325.69C68.3219 328.582 69.1893 331.511 70.1027 334.403C69.5048 334.512 68.9529 334.584 68.355 334.692C67.7175 331.764 67.08 328.799 66.1206 325.907Z" fill="black"/>
<path d="M95.9063 330.555C96.6167 330.396 97.327 330.237 98.0374 330.119C99.4975 329.841 100.958 329.564 102.418 329.327C103.759 329.129 105.14 328.932 106.482 328.775C106.636 330.618 106.829 332.461 107.102 334.304C107.023 334.344 106.944 334.384 106.825 334.424C105.245 335.382 105.122 337.585 105.158 339.428C105.228 343.554 105.298 347.68 105.408 351.806C104.864 347.679 103.926 343.591 102.593 339.622C102.201 338.42 101.691 337.217 100.825 336.334C99.9196 335.451 98.4609 335.047 97.3944 335.686C96.012 336.524 95.929 338.487 96.0045 340.089C96.1934 344.015 96.4217 347.982 96.6501 351.908C95.7123 347.66 93.7879 343.61 91.0733 340.199C90.4044 339.356 89.5384 338.473 88.4341 338.391C87.2903 338.308 86.2627 339.227 85.787 340.308C85.3114 341.389 85.3088 342.59 85.3064 343.752C85.3026 345.555 85.2988 347.317 85.295 349.12C84.4323 346.715 83.3326 344.389 81.996 342.223C80.8953 340.418 79.282 338.492 77.1911 338.567C75.1791 338.643 73.6365 340.563 73.3167 342.605C72.9968 344.607 73.5448 346.652 74.0929 348.616C74.7585 350.981 75.3847 353.345 76.0109 355.71C74.5185 352.582 73.0654 349.495 71.573 346.367C70.984 345.084 70.198 343.68 68.8576 343.277C68.7394 343.236 68.6605 343.236 68.5422 343.196C68.0725 341.472 67.6027 339.789 67.0934 338.105C67.8828 337.907 68.6327 337.708 69.4221 337.509C71.5929 336.953 73.8032 336.357 75.9741 335.761C78.7765 335.005 81.579 334.21 84.3815 333.415C86.6312 332.819 88.881 332.223 91.1307 331.666C92.7095 331.269 94.2881 330.912 95.9063 330.555Z" fill="#6C6B6C"/>
<path d="M70.2867 333.696C69.5778 330.747 68.8691 327.76 68.1226 324.811C70.0051 324.442 71.9253 324.073 73.8078 323.703C74.2536 326.428 74.6978 329.937 75.106 332.699C73.5246 333.031 71.9057 333.364 70.2867 333.696Z" fill="#D9D9D9"/>
<path d="M69.082 343.695C69.1952 343.696 69.2706 343.734 69.3838 343.772C70.666 344.115 71.4179 345.481 71.9814 346.694C73.4091 349.651 74.7991 352.571 76.2269 355.529C76.5265 356.59 76.7884 357.651 77.0503 358.712C75.1314 356.057 73.0991 353.477 70.9534 351.01C70.3925 348.547 69.7562 346.121 69.082 343.695Z" fill="black"/>
<path d="M70.5813 334.638C72.2541 334.328 73.927 334.019 75.5999 333.709C75.7536 334.579 75.9076 335.344 76.0617 336.006L76.1002 336.18C73.9603 336.697 71.8203 337.214 69.6415 337.696L69.5644 337.383C69.4105 336.583 69.2566 335.783 69.1028 334.982C69.1028 334.947 69.1029 334.913 69.103 334.878C69.5698 334.809 70.0755 334.741 70.5813 334.638Z" fill="black"/>
<path d="M72.711 363.705C71.9299 359.343 71.0358 355.021 70.0664 350.699C72.2061 353.304 74.2326 356.028 76.146 358.832C76.4445 360.073 76.7429 361.313 77.0415 362.514C75.5729 362.911 74.1419 363.308 72.711 363.705Z" fill="#6C6B6C"/>
<path d="M75.6193 356.034C75.0521 353.783 74.4849 351.531 73.882 349.28C73.3855 347.41 72.8534 345.464 73.1792 343.558C73.4692 341.651 74.8672 339.785 76.6904 339.713C78.5851 339.641 80.0468 341.475 81.0441 343.193C82.2551 345.255 83.2513 347.469 84.0329 349.759C84.0298 351.208 84.0267 352.696 84.0594 354.145C83.208 351.054 81.7843 348.152 79.9309 345.593C79.3962 344.868 78.5757 344.103 77.7885 344.483C77.4664 344.635 77.2514 344.901 77.1077 345.244C76.2823 346.768 76.6357 348.676 76.9896 350.393C77.8034 354.323 78.5815 358.253 79.2881 362.22C78.6086 362.372 77.9648 362.561 77.2853 362.712C77.0018 361.529 76.7183 360.346 76.4348 359.201C76.1868 358.133 75.9031 357.065 75.6193 356.034Z" fill="black"/>
<path d="M74.1284 323.95C74.531 323.87 74.897 323.79 75.2996 323.71C75.9148 326.909 76.53 330.109 77.1086 333.308C76.523 333.429 75.9739 333.589 75.3883 333.71C74.9556 330.713 74.5246 326.906 74.1284 323.95Z" fill="black"/>
<path d="M76.9536 333.711C76.3309 330.455 75.7081 327.199 75.1224 323.943C77.1233 323.535 79.0871 323.127 81.0879 322.72C81.7479 325.893 82.4449 329.067 83.1048 332.282C81.0298 332.731 78.9917 333.221 76.9536 333.711Z" fill="#D9D9D9"/>
<path d="M76.9745 332.942C79.1657 332.536 81.3568 332.13 83.5479 331.725C83.7457 332.375 83.9035 333.059 84.1013 333.709C81.2725 334.353 78.4436 335.03 75.6147 335.708L75.5753 335.537C75.4173 334.887 75.2596 334.135 75.1021 333.28C75.6997 333.178 76.3371 333.077 76.9745 332.942Z" fill="black"/>
<path d="M77.4293 349.806C77.1059 348.066 76.7829 346.133 77.5384 344.588C77.7026 344.279 77.8995 343.97 78.1615 343.816C78.8819 343.431 79.6326 344.206 80.1217 344.941C81.8171 347.496 83.1192 350.475 83.8976 353.608C83.9254 355.927 83.9532 358.247 84.0464 360.566C82.5411 360.911 81.003 361.294 79.4975 361.716C78.8516 357.772 78.1732 353.789 77.4293 349.806Z" fill="#6C6B6C"/>
<path d="M77.0458 362.205C77.7995 362.017 78.5135 361.866 79.2671 361.716C80.4049 367.38 81.4635 373.044 82.4824 378.708C83.5795 384.867 84.6369 391.063 85.6547 397.221C85.7722 397.905 85.8898 398.552 85.9676 399.236C85.6501 399.387 85.3326 399.539 85.0151 399.728C82.9405 387.069 80.2708 374.562 77.0458 362.205Z" fill="black"/>
<path d="M82.2604 378.996C81.2413 373.285 80.1825 367.575 79.0444 361.864C80.8697 361.447 82.6949 361.067 84.5596 360.726C84.9769 369.692 86.1876 378.583 89.3824 386.979C90.6446 390.238 92.1845 393.46 92.9706 396.833C90.4704 397.594 88.0491 398.546 85.7464 399.729C85.6288 399.039 85.5509 398.388 85.4334 397.698C84.4154 391.451 83.3578 385.204 82.2604 378.996Z" fill="#D9D9D9"/>
<path d="M79.3864 405.716C79.2291 405.405 79.072 405.043 78.9542 404.732C80.7345 402.874 82.6327 401.223 84.649 399.727C84.7656 400.606 84.8427 401.486 84.9593 402.365C83.0621 403.499 81.2438 404.685 79.3864 405.716Z" fill="black"/>
<path d="M86.659 418.594C86.6591 418.555 86.6591 418.555 86.6591 418.517C95.1865 418.187 103.637 417.588 111.972 415.754C112.206 415.716 112.401 415.678 112.635 415.601C112.674 415.601 112.674 415.601 112.712 415.601C114.504 415.181 116.258 414.567 117.934 413.799C117.413 420.549 114.128 427.679 107.892 430.443C105.944 431.288 103.84 431.708 101.737 432.05C97.4917 432.813 92.8182 433.42 89.0851 431.252C86.9853 430.013 85.432 428.043 83.9176 426.149C82.5974 424.449 81.2384 422.71 79.9182 421.01C81.9844 419.741 84.2832 418.936 86.659 418.594ZM106.697 424.77C106.776 424.5 106.854 424.23 106.855 423.96C106.894 423.536 106.779 423.034 106.39 422.879C106.078 422.762 105.767 422.839 105.455 422.993C104.948 423.223 104.403 423.608 104.324 424.148C104.284 424.572 104.594 425.035 104.983 425.19C105.411 425.307 106.268 425.039 106.697 424.77ZM101.446 422.56C101.68 422.136 101.72 421.635 101.565 421.21C101.488 421.055 101.41 420.862 101.255 420.746C100.983 420.514 100.554 420.552 100.282 420.744C99.9696 420.936 99.8132 421.245 99.7346 421.592C99.6558 422.055 99.7714 422.595 100.121 422.904C100.432 423.252 101.056 422.868 101.446 422.56ZM101.16 428.886C101.355 428.539 101.59 428.192 101.668 427.807C101.747 427.421 101.631 426.997 101.281 426.764C101.009 426.571 100.62 426.609 100.347 426.801C100.074 426.993 99.9561 427.34 99.9554 427.687C99.954 428.343 100.537 428.846 101.16 428.886ZM94.549 425.091C94.3924 425.477 94.5081 426.017 94.8969 426.249C95.2858 426.482 95.7531 426.405 96.1817 426.252L96.2204 426.368C96.7657 426.292 97.1176 425.598 96.9239 425.096C96.7303 424.594 96.108 424.284 95.5628 424.36C95.1343 424.437 94.7055 424.706 94.549 425.091Z" fill="#ECD648"/>
<path d="M82.9171 331.726C82.3305 328.463 81.7111 325.198 81.1246 321.892C81.3885 321.85 81.6524 321.766 81.9162 321.724C82.5357 324.988 83.2542 328.21 84.1046 331.39C83.7087 331.516 83.3128 331.643 82.9171 331.726Z" fill="black"/>
<path d="M85.762 403.135C86.0506 402.989 86.3802 402.879 86.6688 402.733C86.79 403.836 86.87 404.939 86.8264 406.079L86.9493 406.41C85.2189 406.848 83.4886 407.285 81.7171 407.722C81.0597 407.023 80.4848 406.286 79.9511 405.513C81.9291 404.782 83.825 403.94 85.762 403.135Z" fill="#D9D9D9"/>
<path d="M83.1268 322.711C84.7909 322.359 86.4203 322.046 88.0843 321.733C88.7365 324.699 89.4233 327.665 90.1101 330.631C88.55 330.983 86.9551 331.375 85.3949 331.727C84.5348 328.761 83.7788 325.756 83.1268 322.711Z" fill="#D9D9D9"/>
<path d="M83.8539 408.728C83.5277 408.379 83.2379 408.029 82.9481 407.64C84.4746 407.178 86.0375 406.716 87.564 406.254C96.6142 403.48 105.628 400.512 114.965 399.794C114.855 400.221 114.745 400.686 114.635 401.112C106.497 402.065 98.501 404.376 90.6141 406.726C88.3606 407.419 86.1073 408.074 83.8539 408.728Z" fill="#0D0E0F"/>
<path d="M109.765 409.201C104.998 409.473 100.157 409.503 95.5402 410.379C92.5887 410.937 89.5995 411.414 86.6106 411.73C85.2506 410.922 84.0046 409.871 82.9481 408.66C85.2947 407.98 87.6034 407.3 89.95 406.62C98.201 404.22 106.49 401.78 114.965 400.79C114.05 403.931 112.455 406.99 110.332 409.161C110.143 409.201 109.954 409.201 109.765 409.201Z" fill="#D9D9D9"/>
<path d="M84.4351 330.921C86.1387 330.499 87.88 330.12 89.5835 329.74C89.7335 330.421 89.9211 331.145 90.1088 331.869C87.9508 332.46 85.7927 333.094 83.6346 333.728C83.4471 332.919 83.2975 332.067 83.11 331.258C83.5265 331.132 83.9809 331.005 84.4351 330.921Z" fill="black"/>
<path d="M84.0995 353.667C84.0653 352.184 84.0685 350.663 84.0717 349.181C84.0754 347.426 84.0791 345.671 84.0827 343.954C84.0851 342.823 84.0876 341.653 84.5372 340.601C84.9869 339.549 85.9582 338.693 87.0395 338.734C88.0461 338.814 88.8646 339.674 89.5341 340.495C92.1 343.815 93.8816 347.72 94.8049 351.895C94.8764 353.377 94.9852 354.821 95.0567 356.303C93.798 351.971 91.6812 347.871 88.892 344.394C87.4301 347.979 87.6453 352.036 87.9355 355.898C88.0444 357.264 88.1535 358.59 88.2625 359.955C86.9196 360.187 85.5767 360.457 84.271 360.727C84.2015 358.348 84.1318 356.007 84.0995 353.667Z" fill="black"/>
<path d="M84.4764 403.728C84.2851 402.665 84.1583 401.602 83.967 400.539C84.4837 400.29 85.0005 399.979 85.5171 399.73C85.7083 400.855 85.8351 401.918 85.9617 403.043C85.4451 403.292 84.9286 403.479 84.4764 403.728Z" fill="black"/>
<path d="M86.2113 402.731C86.1401 401.894 86.0689 401.103 85.9613 400.265C88.0789 398.828 90.3053 397.67 92.6042 396.744C92.7481 397.629 92.8557 398.466 92.9632 399.35L92.963 399.443C90.628 400.229 88.438 401.433 86.2113 402.731Z" fill="#0D0E0F"/>
<path d="M109.906 409.156C109.905 409.224 109.944 409.258 109.944 409.327C101.956 409.685 94.0066 410.486 86.1338 411.731C86.0954 411.458 86.0181 411.185 85.9407 410.912C89.0192 410.646 92.0979 410.278 95.1379 409.773C99.9318 408.999 104.919 409.009 109.789 408.781C109.828 408.917 109.867 409.02 109.906 409.156Z" fill="#0D0E0F"/>
<path d="M101.223 397.961C103.257 397.846 105.33 397.771 107.364 397.776C107.794 397.777 108.185 397.777 108.615 397.778C111.08 397.784 113.504 397.907 115.968 398.071C115.889 398.427 115.81 398.784 115.731 399.14C105.717 399.832 96.0101 402.861 86.2256 405.731L86.1091 405.374C86.1507 404.186 86.075 402.998 85.9602 401.77C88.3094 400.666 90.6975 399.602 93.202 399.013L93.2412 399.013C93.7108 398.895 94.1803 398.817 94.6499 398.699C96.2542 398.386 97.8973 398.231 99.5403 398.116C99.6186 398.116 99.6968 398.116 99.775 398.116C100.284 398.038 100.753 397.999 101.223 397.961Z" fill="#D9D9D9"/>
<path d="M87.2031 414.735C87.1659 413.945 87.0898 413.156 86.9357 412.441C94.796 411.067 102.733 410.181 110.708 409.785C110.785 410.048 110.862 410.311 110.94 410.575C107.788 411.245 104.674 411.877 101.522 412.51C98.448 413.142 95.3737 413.775 92.261 414.219C90.549 414.441 88.876 414.626 87.2031 414.735Z" fill="#ECD648"/>
<path d="M86.966 416.734C86.9668 416.358 86.9286 415.947 86.9294 415.57C88.6077 415.471 90.3251 415.303 92.0036 415.101C95.1264 414.697 98.2105 414.121 101.295 413.546C104.457 412.97 107.58 412.36 110.742 411.785C110.82 411.99 110.858 412.23 110.936 412.436C107.774 413.148 104.611 413.861 101.449 414.573C98.9498 415.15 96.4511 415.693 93.8746 416.098C91.6105 416.436 89.2686 416.637 86.966 416.734Z" fill="#0D0E0F"/>
<path d="M86.9653 417.734C86.9661 417.357 86.9669 416.942 86.9273 416.565C89.3131 416.494 91.7398 416.235 94.086 415.825C96.7152 415.378 99.3448 414.779 101.934 414.143C105.211 413.358 108.488 412.572 111.765 411.787C112.126 412.957 112.488 414.09 112.93 415.186C110.057 416.198 106.902 416.569 103.829 416.827C98.2072 417.343 92.586 417.633 86.9653 417.734Z" fill="#ECD648"/>
<path d="M86.9651 418.734C86.9659 418.394 86.9667 418.011 86.9275 417.628C92.4876 417.555 98.0884 417.183 103.61 416.642C106.65 416.308 109.771 415.932 112.614 414.789C112.733 415.087 112.812 415.385 112.932 415.725C104.447 417.708 95.726 418.327 86.9651 418.734Z" fill="#0D0E0F"/>
<path d="M88.1322 321.042C88.6222 320.928 89.1428 320.852 89.6328 320.738C90.1165 323.623 90.6002 326.509 91.1144 329.433C90.7163 329.509 90.3181 329.624 89.9505 329.738C89.3139 326.814 88.7077 323.928 88.1322 321.042Z" fill="black"/>
<path d="M84.0491 359.537C85.6464 359.257 87.1995 358.976 88.7967 358.737C90.1 371.712 92.1574 384.609 94.9692 397.344C94.4811 397.465 93.9486 397.585 93.4603 397.747C92.5808 394.177 90.8581 390.768 89.446 387.319C85.8721 378.433 84.5169 369.025 84.0491 359.537Z" fill="#0D0E0F"/>
<path d="M89.2656 355.09C88.9942 351.615 88.7929 347.966 90.1586 344.741C92.7653 347.869 94.7436 351.557 95.92 355.455C95.9532 356.227 96.0214 356.964 96.0546 357.736C93.8936 358.047 91.7326 358.358 89.5715 358.739C89.4696 357.511 89.3676 356.318 89.2656 355.09Z" fill="#6C6B6C"/>
<path d="M91.1555 329.743C90.4947 326.952 89.8339 324.161 89.1316 321.333C90.5069 321.15 91.8824 320.93 93.2578 320.747C94.2104 323.464 94.8295 326.254 95.1152 329.082C93.7814 329.302 92.4476 329.522 91.1555 329.743Z" fill="#D9D9D9"/>
<path d="M88.0937 360.415C90.6174 360.033 93.1403 359.69 95.662 359.424C96.3406 371.744 97.3026 384.106 98.4689 396.395C96.6784 396.635 94.9272 396.953 93.174 397.387C90.7896 385.115 89.0963 372.779 88.0937 360.415Z" fill="#D9D9D9"/>
<path d="M91.5083 329.701C92.6855 329.384 93.8258 329.066 95.003 328.749C95.0379 329.602 95.073 330.402 95.108 331.256C93.5996 331.732 92.128 332.209 90.6195 332.739C90.4375 331.886 90.2924 330.979 90.1105 330.072C90.5519 329.966 91.03 329.86 91.5083 329.701Z" fill="black"/>
<path d="M93.3974 399.659C93.3122 398.82 93.1835 397.982 92.9678 397.187C93.4464 397.056 93.9685 396.881 94.447 396.749C94.6191 397.632 94.7911 398.515 94.9632 399.397C94.4412 399.484 93.9192 399.616 93.3972 399.747L93.3537 399.747L93.3974 399.659Z" fill="#0D0E0F"/>
<path d="M93.1324 320.955C93.537 320.886 93.9416 320.817 94.3463 320.749C94.8147 322.419 95.1819 324.124 95.5828 325.83C95.7832 326.665 95.9161 327.604 96.1165 328.474C95.6107 328.543 95.1386 328.646 94.6328 328.749C94.4024 326.105 93.9023 323.496 93.1324 320.955Z" fill="black"/>
<path d="M95.4029 399.751C95.2599 398.842 95.1169 397.932 94.9739 397.023C96.533 396.481 98.0918 396.075 99.6867 395.76C99.7931 396.851 99.8632 397.988 99.9695 399.079C98.4113 399.212 96.8892 399.39 95.4029 399.751Z" fill="#0D0E0F"/>
<path d="M96.286 426.518C95.9366 426.741 95.5555 426.908 95.239 426.515C94.9542 426.179 94.8289 425.45 94.9571 424.834C95.0852 424.274 95.4034 423.826 95.7525 423.771C96.1969 423.659 96.7037 424.053 96.8607 424.838C97.0177 425.567 96.7618 426.575 96.2857 426.686L96.286 426.518Z" fill="black"/>
<path d="M96.4506 326.209C96.023 324.568 95.6312 322.927 95.1316 321.319C96.4614 321.121 97.7911 320.923 99.1208 320.758C99.8342 323.203 100.476 325.682 101.117 328.16C99.7515 328.358 98.3858 328.556 97.0201 328.754C96.8063 327.917 96.6645 327.013 96.4506 326.209Z" fill="#D9D9D9"/>
<path d="M95.2122 331.75C95.2141 330.877 95.1807 330.059 95.1124 329.186C95.639 329.024 96.1305 328.916 96.6571 328.753C96.7613 329.299 96.8652 329.899 97.0046 330.39C97.0043 330.499 97.0393 330.554 97.0393 330.554L97.1083 331.1C96.4762 331.371 95.8442 331.533 95.2122 331.75Z" fill="black"/>
<path d="M95.721 351.82C95.5055 348.003 95.29 344.147 95.1118 340.331C95.0406 338.734 95.1192 336.826 96.425 336.05C97.4324 335.429 98.8102 335.86 99.6654 336.68C100.521 337.538 100.965 338.708 101.335 339.877C102.632 343.696 103.517 347.669 103.993 351.72C104.028 352.928 104.026 354.096 104.06 355.303C103.175 351.096 101.432 347.081 99.0547 343.571C97.9273 348.086 98.2154 352.838 98.5036 357.511C98.5402 357.823 98.5396 358.095 98.5762 358.407C97.7562 358.522 96.9362 358.637 96.1162 358.752C96.0808 357.895 96.008 357.077 95.9725 356.221C95.9011 354.741 95.7924 353.3 95.721 351.82Z" fill="black"/>
<path d="M99.2419 395.761C97.9599 383.578 96.9089 371.32 96.0501 359.1C96.8964 358.986 97.7428 358.873 98.5892 358.759C99.371 371.017 100.191 383.276 100.973 395.534C100.396 395.609 99.8189 395.685 99.2419 395.761Z" fill="#0D0E0F"/>
<path d="M101.07 329.941L101.11 330.105C99.6181 330.298 98.1257 330.492 96.6333 330.751L96.5533 330.423C96.5533 330.423 96.5534 330.39 96.5132 330.325C96.3525 330.029 96.2322 329.701 96.112 329.34C97.6448 329.114 99.1774 328.92 100.71 328.76C100.83 329.153 100.95 329.547 101.07 329.941Z" fill="black"/>
<path d="M99.2856 357.853C99.0413 353.128 98.7971 348.364 99.7602 343.759C101.787 347.307 103.24 351.365 104.025 355.619C104.023 356.445 104.053 357.272 104.052 358.138C102.462 358.332 100.905 358.525 99.3154 358.758C99.3161 358.443 99.3168 358.128 99.2856 357.853Z" fill="#6C6B6C"/>
<path d="M101.378 395.763C100.616 383.303 99.8158 370.843 99.0534 358.383C100.894 358.152 102.773 357.961 104.651 357.77C104.72 360.855 104.751 363.94 104.819 367.026C104.952 375.345 105.303 386.906 106.975 395.579C105.097 395.497 103.219 395.532 101.378 395.763Z" fill="#D9D9D9"/>
<path d="M99.1324 319.958C99.4483 319.878 99.7642 319.839 100.112 319.76C100.895 322.642 101.552 325.603 102.114 328.564C101.704 328.643 101.293 328.722 100.882 328.762C100.32 325.84 99.7262 322.879 99.1324 319.958Z" fill="black"/>
<path d="M100.123 398.762C100.066 397.851 100.029 396.901 99.9722 395.99C100.266 395.914 100.561 395.839 100.875 395.764C100.912 396.713 100.929 397.662 100.967 398.65C100.731 398.687 100.496 398.687 100.261 398.724C100.221 398.762 100.182 398.762 100.123 398.762Z" fill="black"/>
<path d="M100.128 422.617C99.9486 422.186 99.8899 421.564 99.9311 420.99C99.972 420.559 100.053 420.177 100.213 419.938C100.374 419.699 100.574 419.699 100.713 419.939C100.793 420.083 100.833 420.274 100.872 420.513C100.951 421.04 100.93 421.662 100.809 422.188C100.628 422.522 100.307 423 100.128 422.617Z" fill="black"/>
<path d="M99.9043 427.698C99.9049 427.389 99.9734 427.115 100.132 426.909C100.291 426.738 100.517 426.704 100.675 426.876C100.856 427.048 100.923 427.46 100.9 427.803C100.854 428.146 100.74 428.455 100.604 428.729L100.604 428.763C100.264 428.694 99.9257 428.247 99.9043 427.698Z" fill="black"/>
<path d="M102.846 328.081C103.908 327.978 104.97 327.875 105.988 327.772L105.988 327.842C106.031 328.333 106.075 328.79 106.118 329.281C104.569 329.418 103.064 329.555 101.559 329.763L101.515 329.587C101.384 329.166 101.252 328.744 101.12 328.288C101.74 328.184 102.271 328.15 102.846 328.081Z" fill="black"/>
<path d="M101.153 398.762C101.082 397.539 101.047 396.316 100.976 395.044C102.791 394.803 104.643 394.709 106.458 394.811C106.604 395.838 106.787 396.817 106.97 397.796L106.969 398.53C105.043 398.575 103.08 398.619 101.153 398.762Z" fill="black"/>
<path d="M102.461 328.767C101.808 325.707 101.045 322.648 100.135 319.671C102.005 319.344 103.874 319.059 105.781 318.774C106.214 321.708 106.72 325.346 107.117 328.115C106.42 328.196 105.761 328.278 105.064 328.359C104.221 328.522 103.341 328.645 102.461 328.767Z" fill="#D9D9D9"/>
<path d="M104.334 351.748C104.267 347.746 104.2 343.744 104.096 339.743C104.062 337.955 104.217 335.819 105.686 334.889C105.761 334.851 105.837 334.812 105.95 334.773C106.172 336.328 106.394 337.921 106.617 339.476C106.308 343.127 106.94 346.819 107.045 350.472C107.115 352.842 106.997 355.212 106.804 357.581C106.014 357.657 105.224 357.694 104.396 357.77C104.398 356.954 104.362 356.1 104.364 355.284C104.366 354.157 104.369 352.953 104.334 351.748Z" fill="black"/>
<path d="M104.25 367.192C104.169 364.116 104.132 361.04 104.05 357.964C104.971 357.888 105.891 357.812 106.855 357.775C106.675 360.033 106.407 362.291 106.227 364.549C105.821 370.427 106.115 376.346 107.11 382.188C107.89 386.706 109.063 391.264 108.966 395.78C108.265 395.74 107.52 395.699 106.819 395.659C104.865 387.011 104.452 375.486 104.25 367.192Z" fill="black"/>
<path d="M105.437 425.715C105.099 425.522 104.885 424.993 104.917 424.416C104.95 423.743 105.381 423.263 105.811 422.975C106.058 422.832 106.304 422.688 106.549 422.833C106.856 423.026 106.916 423.651 106.915 424.18C106.914 424.516 106.852 424.853 106.79 425.189C106.42 425.573 105.744 425.908 105.437 425.715Z" fill="black"/>
<path d="M108.23 327.918C108.645 327.902 109.098 327.885 109.513 327.868C110.381 327.835 111.211 327.802 112.079 327.786C112.079 328.014 112.116 328.242 112.116 328.47C110.87 328.59 109.587 328.64 108.304 328.69C107.587 328.724 106.908 328.74 106.228 328.774C106.191 328.528 106.154 328.3 106.117 328.054L106.117 328.019C106.796 327.985 107.513 327.952 108.23 327.918Z" fill="black"/>
<path d="M106.692 335.349C106.475 333.41 106.259 331.471 106.116 329.532C106.778 329.449 107.478 329.366 108.141 329.326C109.392 329.202 110.644 329.12 111.86 328.786C111.892 330.935 111.961 333.085 111.993 335.234C112.027 336.751 112.06 338.269 112.094 339.786C111.655 338.521 111.142 337.255 110.261 336.326C109.38 335.271 107.872 334.72 106.692 335.349Z" fill="#D9D9D9"/>
<path d="M107.136 318.891C107.331 318.852 107.526 318.814 107.748 318.775C108.269 321.723 108.735 324.672 109.118 327.66C108.812 327.698 108.479 327.737 108.173 327.776C107.845 325.142 107.464 321.682 107.136 318.891Z" fill="black"/>
<path d="M108.525 357.267C109.087 351.241 108.31 345.211 107.498 339.182C107.498 339.143 107.498 339.104 107.498 339.065C107.568 338.249 107.742 337.316 108.396 336.928C109.015 336.58 109.77 336.892 110.353 337.283C110.936 337.673 111.45 338.14 111.93 338.647C112.244 352.88 112.694 367.153 114.657 381.196C115.334 386.019 116.183 390.882 115.932 395.781C115.931 396.131 115.896 396.442 115.861 396.792C114.317 396.128 112.634 395.735 110.986 395.46C110.436 395.381 109.887 395.302 109.303 395.262C109.381 390.712 108.463 386.199 107.855 381.687C107.077 375.852 106.849 369.941 107.17 364.069C107.278 361.814 107.489 359.559 107.666 357.304C107.94 357.305 108.215 357.266 108.525 357.267Z" fill="#D9D9D9"/>
<path d="M107.819 339.775C107.579 337.884 107.34 335.945 107.101 334.054C108.4 333.395 110.02 333.966 111.072 335.15C112.002 336.191 112.566 337.611 113.09 339.03C113.09 339.077 113.09 339.077 113.09 339.124C112.524 338.509 111.877 337.94 111.229 337.466C110.541 336.992 109.65 336.565 108.919 337.036C108.148 337.507 107.943 338.641 107.859 339.633C107.859 339.681 107.819 339.728 107.819 339.775Z" fill="black"/>
<path d="M107.438 350.682C107.368 347.059 106.933 343.396 107.149 339.774C107.761 345.749 108.347 351.725 107.918 357.698C107.709 357.736 107.501 357.736 107.267 357.774C107.402 355.384 107.485 353.033 107.438 350.682Z" fill="#6C6B6C"/>
<path d="M107.539 397.183C107.336 396.432 107.175 395.603 106.973 394.773C107.626 394.814 108.319 394.855 108.972 394.896C108.971 395.646 108.928 396.396 108.804 397.185L108.803 397.777C108.354 397.776 107.946 397.775 107.497 397.775L107.539 397.183Z" fill="black"/>
<path d="M109.238 327.778C108.652 324.61 107.938 321.483 107.139 318.357C108.708 318.152 110.233 317.947 111.802 317.783L111.885 318.533C111.963 321.534 112.042 324.575 112.12 327.576C111.145 327.657 110.213 327.697 109.238 327.778Z" fill="#D9D9D9"/>
<path d="M108.967 398.519L108.968 397.956C109.041 397.244 109.079 396.531 109.116 395.782C109.691 395.82 110.301 395.897 110.875 395.973C112.597 396.239 114.32 396.618 115.97 397.259C115.933 397.746 115.86 398.271 115.751 398.796C113.454 398.641 111.192 398.561 108.967 398.519Z" fill="black"/>
<path d="M95.3367 222.711L95.3789 202.75L103.505 202.767C107.379 202.775 110.28 204.557 110.273 208.028C110.27 209.566 109.34 211.221 108.118 211.85C109.842 212.682 111.354 214.342 111.349 216.906C111.341 220.654 108.684 222.778 104.221 222.769L95.3367 222.75L95.3367 222.711ZM99.7839 210.373L102.984 210.379C104.836 210.383 105.89 209.794 105.893 208.413C105.896 207.033 104.845 206.439 102.992 206.435L99.7922 206.428L99.7839 210.373ZM99.7655 219.091L103.176 219.098C105.66 219.103 106.883 218.435 106.887 216.581C106.89 214.727 105.671 214.054 103.187 214.049L99.7761 214.041L99.7655 219.091V219.091Z" fill="white"/>
<path d="M115.341 222.753L115.383 202.793L119.522 202.802L119.506 210.415L123.765 210.424C127.984 210.433 130.486 212.845 130.478 216.632C130.47 220.379 127.957 222.82 123.739 222.811L115.341 222.793L115.341 222.753ZM119.488 219.133L122.711 219.14C125.06 219.145 126.215 218.477 126.219 216.623C126.223 214.769 125.07 214.096 122.722 214.091L119.498 214.084L119.488 219.133ZM135.201 222.795L135.243 202.835L139.383 202.844L139.341 222.804L135.201 222.795Z" fill="white"/>
<path d="M153.757 201.875C158.05 201.884 160.803 203.774 162.371 207.504L158.705 209.099C157.764 206.893 156.152 205.607 153.749 205.602C150.283 205.595 148.701 208.517 148.693 212.365C148.685 216.172 150.215 219.141 153.72 219.148C156.084 219.153 157.701 217.874 158.691 215.672L162.35 217.283C160.767 220.966 157.966 222.884 153.713 222.875C147.371 222.862 144.349 217.966 144.361 212.396C144.373 206.705 147.416 201.862 153.757 201.875Z" fill="white"/>
<path d="M165.371 206.535L165.379 202.898L179.379 202.928L179.371 206.564L174.27 206.554L174.236 222.917L170.363 222.909L170.398 206.545L165.371 206.535Z" fill="white"/>
<path d="M190.848 210.118L194.235 210.125L194.237 209.24C194.242 206.706 192.493 205.696 190.43 205.692C188.833 205.689 187.43 206.571 186.765 208.38L183.068 207.567C183.893 204.149 186.7 201.943 190.515 201.951C195.109 201.96 198.375 204.019 198.362 210.013L198.335 222.646L194.909 222.638L194.526 219.982C193.237 221.87 191.25 222.952 188.408 222.946C185.138 222.939 182.339 221.003 182.348 216.738C182.318 212.554 185.788 210.107 190.848 210.118ZM189.038 219.247C191.53 219.252 194.219 217.608 194.227 214.068L194.228 213.625L190.685 213.618C188.194 213.613 186.634 214.816 186.63 216.747C186.588 218.195 187.326 219.243 189.038 219.247Z" fill="white"/>
<path d="M203.341 222.937L203.383 202.977L211.001 202.993C214.633 203 217.353 204.781 217.345 208.253C217.342 209.791 216.47 211.446 215.324 212.075C216.941 212.907 218.358 214.566 218.353 217.13C218.345 220.878 215.854 223.003 211.669 222.994L203.341 222.977L203.341 222.937ZM207.511 210.599L210.511 210.605C212.248 210.609 213.236 210.019 213.239 208.638C213.242 207.258 212.257 206.664 210.52 206.66L207.52 206.654L207.511 210.599ZM207.493 219.317L210.69 219.323C213.019 219.328 214.165 218.66 214.169 216.806C214.173 214.952 213.03 214.279 210.701 214.274L207.504 214.267L207.493 219.317Z" fill="white"/>
<path d="M222.341 223.019L222.383 203.02L226.466 203.028L226.449 211.012L233.651 203.043L238.872 203.054L230.53 212.246L239.341 223.055L234.119 223.044L226.444 213.463L226.424 223.028L222.341 223.019V223.019Z" fill="white"/>
<path d="M249.852 210.243L253.239 210.25L253.241 209.365C253.246 206.831 251.497 205.821 249.433 205.817C247.837 205.814 246.434 206.696 245.768 208.505L242.072 207.692C242.897 204.274 245.704 202.068 249.519 202.076C254.113 202.085 257.378 204.144 257.366 210.138L257.339 222.771L253.913 222.763L253.53 220.107C252.241 221.995 250.253 223.077 247.412 223.071C244.142 223.064 241.343 221.128 241.352 216.863C241.322 212.679 244.792 210.232 249.852 210.243ZM248.081 219.372C250.573 219.377 253.262 217.733 253.27 214.193L253.271 213.75L249.728 213.743C247.237 213.738 245.677 214.941 245.673 216.872C245.592 218.32 246.368 219.368 248.081 219.372Z" fill="white"/>
<path d="M65.2624 259.687L65.3047 239.688L69.628 239.697L69.6111 247.681L77.2354 239.713L82.7642 239.724L73.9319 248.915L83.2624 259.725L77.7335 259.714L69.606 250.131L69.5858 259.697L65.2624 259.687V259.687Z" fill="white"/>
<path d="M94.3008 239.748C100.606 239.761 104.291 244.556 104.279 250.269C104.266 256.022 100.562 260.761 94.2564 260.748C87.9512 260.734 84.2665 255.939 84.2786 250.227C84.2907 244.514 87.9955 239.734 94.3008 239.748ZM94.2642 257.046C97.9188 257.054 99.8537 253.679 99.8609 250.259C99.868 246.88 97.9877 243.457 94.2929 243.449C90.6383 243.441 88.7035 246.816 88.6963 250.236C88.689 253.655 90.5694 257.039 94.2642 257.046Z" fill="white"/>
<path d="M108.259 259.777L108.301 239.777L112.191 239.786L112.175 247.335L119.395 247.35L119.41 239.801L123.301 239.809L123.259 259.809L119.368 259.801L119.387 250.987L112.167 250.971L112.149 259.786L108.259 259.777Z" fill="white"/>
<path d="M130.259 259.824L130.301 239.824L134.144 239.832L134.127 247.817L140.906 239.847L145.82 239.857L137.967 249.05L146.259 259.858L141.344 259.848L134.122 250.267L134.101 259.832L130.259 259.824V259.824Z" fill="white"/>
<path d="M147.301 239.859L151.673 239.869L156.371 253.308L160.968 239.888L165.301 239.897L155.158 267.876L151.062 267.867L154.311 258.817L147.301 239.859Z" fill="white"/>
<path d="M168.242 267.902L168.3 240.214L172.3 240.222L172.295 242.481C172.913 241.353 175.032 239.917 177.608 239.922C183.378 239.934 186.293 243.796 186.279 250.104C186.266 256.218 183.373 260.262 177.489 260.25C175.066 260.245 173.145 259.034 172.263 257.747L172.242 267.911L168.242 267.902ZM177.035 256.627C179.919 256.633 182.04 254.146 182.049 250.057C182.057 246.007 179.986 243.471 177.063 243.465C174.178 243.459 172.057 245.946 172.049 250.035C172.04 254.124 174.15 256.621 177.035 256.627Z" fill="white"/>
<path d="M199.675 239.969C203.968 239.978 206.721 241.867 208.289 245.598L204.622 247.193C203.682 244.987 202.07 243.701 199.667 243.696C196.201 243.689 194.619 246.611 194.611 250.458C194.603 254.266 196.133 257.234 199.638 257.242C202.002 257.247 203.619 255.968 204.609 253.766L208.268 255.377C206.685 259.06 203.884 260.978 199.631 260.969C193.289 260.956 190.267 256.06 190.279 250.489C190.29 244.839 193.334 239.956 199.675 239.969Z" fill="white"/>
<path d="M212.259 259.996L212.301 239.996L216.45 240.005L216.434 247.554L224.135 247.571L224.151 240.021L228.301 240.03L228.259 260.03L224.109 260.021L224.128 251.207L216.427 251.191L216.408 260.005L212.259 259.996Z" fill="white"/>
<path d="M234.263 260.003L234.305 240.043L238.265 240.051L238.249 247.665L242.323 247.673C246.36 247.682 248.754 250.093 248.746 253.88C248.738 257.628 246.334 260.068 242.297 260.06L234.262 260.043L234.263 260.003ZM238.231 256.343L241.315 256.35C243.562 256.354 244.667 255.686 244.671 253.832C244.675 251.978 243.572 251.305 241.326 251.3L238.241 251.294L238.231 256.343ZM253.264 260.044L253.306 240.083L257.305 240.092L257.262 260.052L253.264 260.044Z" fill="white"/>
<path d="M261.259 260.102L268.021 249.562L262.027 240.103L266.588 240.113L270.288 246.01L274.014 240.128L278.574 240.138L272.541 249.572L279.258 260.14L274.698 260.13L270.233 253.124L265.738 260.111L261.259 260.102Z" fill="white"/>
<path d="M125.148 313.812L125.206 286.124L129.206 286.133L129.202 288.391C129.819 287.263 131.938 285.827 134.515 285.832C140.284 285.844 143.199 289.706 143.186 296.015C143.173 302.129 140.279 306.173 134.395 306.16C131.972 306.155 130.051 304.944 129.169 303.657L129.148 313.821L125.148 313.812ZM133.941 302.576C136.825 302.583 138.946 300.095 138.955 296.006C138.963 291.956 136.892 289.42 133.969 289.414C131.084 289.408 128.963 291.896 128.955 295.985C128.985 300.074 131.056 302.57 133.941 302.576Z" fill="white"/>
<path d="M154.677 293.651L158.064 293.658L158.066 292.815C158.071 290.402 156.321 289.44 154.258 289.436C152.662 289.432 151.259 290.272 150.593 291.995L146.897 291.221C147.721 287.966 150.528 285.865 154.343 285.873C158.937 285.882 162.203 287.843 162.191 293.552L162.165 305.583L158.74 305.575L158.356 303.046C157.067 304.844 155.08 305.874 152.238 305.868C148.968 305.861 146.169 304.016 146.178 299.955C146.147 295.97 149.617 293.64 154.677 293.651ZM152.907 302.345C155.399 302.35 158.088 300.785 158.095 297.413L158.096 296.992L154.554 296.984C152.062 296.979 150.503 298.125 150.499 299.964C150.418 301.343 151.155 302.341 152.907 302.345Z" fill="white"/>
<path d="M177.138 277.781L178.703 277.784C180.191 277.787 180.993 277.315 181.568 275.933L184.048 275.938C184.039 280.049 181.938 281.467 178.657 281.46L176.978 281.457C173.888 281.45 171.67 283.619 171.394 287.729C172.58 286.625 174.681 285.286 177.428 285.292C182.96 285.303 186.193 290.014 186.181 295.626C186.169 301.278 182.649 305.935 176.659 305.922C170.822 305.91 167.169 301.199 167.186 293.254C167.21 281.713 171.187 277.768 177.138 277.781ZM176.667 302.246C180.139 302.254 181.977 298.938 181.984 295.578C181.991 292.258 180.205 288.894 176.695 288.887C173.223 288.879 171.385 292.196 171.378 295.555C171.409 298.915 173.195 302.239 176.667 302.246Z" fill="white"/>
<path d="M199.703 285.969C205.693 285.982 209.193 290.549 209.182 295.989C209.17 301.468 205.651 305.982 199.661 305.969C193.671 305.957 190.171 301.39 190.182 295.949C190.193 290.509 193.751 285.957 199.703 285.969ZM199.668 302.444C203.14 302.452 204.978 299.237 204.985 295.98C204.992 292.762 203.206 289.502 199.696 289.494C196.224 289.487 194.386 292.701 194.379 295.958C194.41 299.215 196.196 302.437 199.668 302.444Z" fill="white"/>
<path d="M212.199 289.632L212.207 285.996L226.207 286.026L226.199 289.662L221.112 289.651L221.077 306.015L217.215 306.007L217.25 289.643L212.199 289.632Z" fill="white"/>
<path d="M79.6458 77.6755L79.6562 72.7148L80.5582 72.7167L81.6508 75.3175L82.7543 72.7214L83.6562 72.7233L83.6457 77.7233L82.8222 77.7215L82.8296 74.1782L81.8839 76.3416L81.4133 76.3406L80.4767 74.1733L80.4692 77.7166L79.6457 77.7148L79.6458 77.6755Z" fill="white"/>
<path d="M84.6523 72.7266L85.7952 72.729L87.7886 75.868L89.5571 72.7369L90.6523 72.7392L87.0682 78.7317L86.0682 78.7296L87.263 76.7096L84.6523 72.7266Z" fill="white"/>
<path d="M93.3776 76.2242C93.4812 76.6932 93.7596 77.0063 94.1782 77.0071C94.6317 77.0081 94.9463 76.6963 94.9475 76.1494C94.9487 75.5634 94.6704 75.2113 94.182 75.2103C94.0425 75.21 93.9378 75.2488 93.833 75.2877L93.4504 74.779L94.2904 73.4527L92.895 73.4497L92.8965 72.7466L95.4081 72.7519L95.4076 73.0253L94.2878 74.6636C94.3576 74.6638 94.3926 74.6248 94.4623 74.6249C95.1949 74.6265 95.6472 75.1743 95.6452 76.1509C95.6432 77.0884 94.979 77.751 94.1418 77.7493C93.3395 77.7476 92.7476 77.1994 92.6448 76.3008L93.3776 76.2242Z" fill="white"/>
<path d="M99.6728 72.7582C100.962 72.7609 101.654 73.8311 101.651 75.0906L101.651 75.4341L98.3779 75.4272C98.4089 76.3815 98.9365 77.0314 99.6637 77.033C100.292 77.0343 100.722 76.6917 101.021 76.0816L101.582 76.4263C101.117 77.4559 100.456 77.7598 99.6622 77.7582C98.4391 77.7556 97.6479 76.6852 97.6509 75.273C97.6869 73.899 98.4166 72.7555 99.6728 72.7582ZM100.925 74.7074C100.794 73.9437 100.365 73.4848 99.6712 73.4834C99.0101 73.482 98.5793 73.9772 98.4455 74.7021L100.925 74.7074Z" fill="white"/>
<path d="M104.645 77.7297L104.656 72.7184L105.229 72.7196L105.221 76.498L107.029 72.7234L107.656 72.7247L107.645 77.7759L107.073 77.7746L107.081 73.9962L105.273 77.7708L104.645 77.7695L104.645 77.7297ZM105.833 70.772C105.832 71.0504 105.941 71.2097 106.132 71.2101C106.323 71.2105 106.432 71.0119 106.433 70.7733L106.897 70.7743C106.895 71.3708 106.567 71.8474 106.131 71.8465C105.694 71.8456 105.368 71.3676 105.369 70.771L105.833 70.772Z" fill="white"/>
<path d="M61.6307 84.5245L61.6322 83.8349L63.8457 81.6844L63.8436 82.6757L62.2583 84.181L63.8372 85.693L63.8351 86.6843L61.6307 84.5245ZM63.4218 84.5283L63.4232 83.8386L65.6367 81.6881L65.6346 82.6795L64.0493 84.1848L65.6282 85.6967L65.6261 86.6881L63.4218 84.5283Z" fill="white"/>
<path d="M68.6258 87.6914L68.6274 86.9357L69.8436 86.9383L69.8541 81.9667L68.6628 82.9983L68.6647 82.0835L70.2082 80.6947L70.4244 80.6952L70.4112 86.9395L71.6274 86.942L71.6258 87.6977L68.6258 87.6914V87.6914Z" fill="white"/>
<path d="M85.6201 87.7305L85.6328 81.7305L89.6328 81.7389L89.6201 87.7389L88.7966 87.7372L88.8074 82.6348L86.4544 82.6298L86.4437 87.7322L85.6201 87.7305Z" fill="white"/>
<path d="M92.6198 89.7422L92.6365 81.8311L93.1704 81.8322L93.1688 82.5878C93.3477 82.1437 93.7045 81.7444 94.1621 81.7454C95.1028 81.7474 95.6342 82.9485 95.6306 84.6374C95.6269 86.3707 95.0906 87.5252 94.1499 87.5232C93.6923 87.5222 93.3371 87.1659 93.1601 86.7211L93.1538 89.6989L92.6199 89.6977L92.6198 89.7422ZM94.1008 86.7231C94.7109 86.7244 95.0687 85.8807 95.0712 84.6807C95.0737 83.4807 94.7196 82.6355 94.1094 82.6342C93.4992 82.6329 93.1415 83.4766 93.139 84.6766C93.111 85.8765 93.4906 86.7218 94.1008 86.7231Z" fill="white"/>
<path d="M98.624 87.7578L98.6367 81.7578L99.2094 81.759L99.2 86.2472L101.009 81.7628L101.637 81.7641L101.624 87.7641L101.024 87.7629L101.034 83.2747L99.224 87.7591L98.624 87.7578Z" fill="white"/>
<path d="M104.624 87.7695L104.637 81.7695L105.313 81.771L106.13 84.8908L106.96 81.7744L107.637 81.7759L107.624 87.7759L107.006 87.7745L107.015 83.5226L106.304 86.1195L105.951 86.1188L105.251 83.5189L105.242 87.7708L104.624 87.7695Z" fill="white"/>
<path d="M112.157 81.7866C113.769 81.79 114.634 83.0743 114.631 84.5857L114.63 84.9979L110.539 84.9893C110.578 86.1344 111.237 86.9144 112.147 86.9163C112.932 86.918 113.47 86.5069 113.843 85.7749L114.545 86.1886C113.964 87.424 113.136 87.7887 112.145 87.7866C110.616 87.7833 109.627 86.4988 109.63 84.8041C109.634 83.1553 110.587 81.7833 112.157 81.7866ZM113.681 84.1257C113.518 83.2093 112.982 82.6586 112.114 82.6567C111.288 82.655 110.749 83.2493 110.582 84.1191L113.681 84.1257Z" fill="white"/>
<path d="M115.635 82.6906L115.637 81.793L120.637 81.8035L120.635 82.7012L118.617 82.6969L118.606 87.7993L117.685 87.7973L117.696 82.695L115.635 82.6906Z" fill="white"/>
<path d="M121.626 86.8047L121.628 85.8133L123.594 84.3088L121.635 82.7961L121.637 81.8047L124.373 83.9656L124.371 84.6553L121.626 86.8047ZM123.885 86.8094L123.887 85.8181L125.854 84.3136L123.894 82.8008L123.896 81.8095L126.632 83.9704L126.631 84.6601L123.885 86.8094Z" fill="white"/>
</g>
<defs>
<filter id="filter0_d" x="0.753906" y="0.5625" width="342.051" height="506.702" filterUnits="userSpaceOnUse" color-interpolation-filters="sRGB">
<feFlood flood-opacity="0" result="BackgroundImageFix"/>
<feColorMatrix in="SourceAlpha" type="matrix" values="0 0 0 0 0 0 0 0 0 0 0 0 0 0 0 0 0 0 127 0"/>
<feOffset dy="4"/>
<feGaussianBlur stdDeviation="2"/>
<feColorMatrix type="matrix" values="0 0 0 0 0 0 0 0 0 0 0 0 0 0 0 0 0 0 0.25 0"/>
<feBlend mode="normal" in2="BackgroundImageFix" result="effect1_dropShadow"/>
<feBlend mode="normal" in="SourceGraphic" in2="effect1_dropShadow" result="shape"/>
</filter>
</defs>
</svg>
