<svg width="327" height="489" viewBox="0 0 327 489" fill="none" xmlns="http://www.w3.org/2000/svg">
<path d="M326.416 50.0625C326.416 22.4483 304.031 0.0625 276.416 0.0625H50.8047C23.1905 0.0625 0.804687 22.4482 0.804687 50.0625L0.804687 438.48C0.804687 466.094 23.1905 488.48 50.8047 488.48H276.416C304.031 488.48 326.416 466.094 326.416 438.48L326.416 50.0625Z" fill="white"/>
<path d="M242.395 444.256H84.8232C54.6868 444.256 30.2852 419.816 30.2852 389.718L30.2852 98.8232C30.2852 68.6868 54.7253 44.2852 84.8232 44.2852H242.395C272.531 44.2852 296.933 68.7253 296.933 98.8232L296.933 389.718C296.933 419.855 272.531 444.256 242.395 444.256Z" fill="#D34D4B"/>
<path d="M223.122 84.7368C222.429 84.5829 221.698 84.4674 221.005 84.5829C219.966 84.7753 219.081 85.4681 218.465 86.3533C218.042 87.0076 217.734 87.7004 217.464 88.4317C218.503 89.6248 219.735 90.818 221.313 90.818C222.699 90.818 223.892 89.8558 224.585 88.6626C225.277 87.4695 225.508 86.0839 225.739 84.7368C224.931 85.1217 224.046 84.9292 223.122 84.7368ZM209.882 97.3995C209.69 97.2455 209.536 97.0916 209.343 96.9376C209.189 96.7837 209.035 96.6682 208.92 96.5143C208.612 96.2063 208.343 95.8599 208.073 95.5136C207.881 95.2826 207.727 95.0517 207.573 94.7823C207.342 94.3974 207.111 94.0125 206.918 93.5891C206.726 93.1658 206.534 92.7039 206.38 92.242C205.725 90.2406 205.571 88.0468 206.11 86.0069C206.688 83.6591 208.035 81.4653 208.073 79.079C208.15 74.4989 203.57 70.0342 205.61 65.9545C209.151 67.7634 210.767 72.1896 214.347 73.9601C217.002 75.3071 220.005 74.8838 222.853 73.7676C224.893 70.1112 227.163 66.6088 229.704 63.2603C230.127 62.683 230.897 62.0671 231.436 62.529C231.282 66.1469 231.782 69.8033 232.898 73.2673C233.668 74.2295 234.399 75.1917 235.169 76.1154C243.867 87.1231 252.604 98.1693 262.188 108.446C265.96 112.487 270.116 116.99 270.309 122.532C270.347 124.303 269.501 126.304 270.886 127.382C271.54 127.882 274.235 127.459 274.927 127.882C276.313 128.729 276.428 131.038 276.698 132.616C277.314 136.504 276.852 140.545 277.198 144.471C277.583 148.704 277.776 153.092 276.428 157.095C275.12 160.982 272.118 164.523 268.153 165.447C267.807 175.108 266.691 184.922 262.996 193.89C261.995 196.276 260.802 198.624 259.032 200.51C257.223 202.434 254.875 203.781 252.527 205.051C247.947 207.592 242.597 210.055 237.671 208.208C234.091 206.86 231.705 203.55 229.55 200.394C228.895 199.432 228.241 198.431 228.049 197.315C227.895 196.161 228.357 194.852 229.396 194.429C231.089 193.736 232.706 195.545 233.783 197.046C235.438 199.317 237.594 201.472 240.365 202.088C243.559 202.819 246.908 201.318 249.525 199.394C254.336 195.814 257.839 190.618 259.763 184.922C261.649 179.264 262.034 173.145 261.341 167.217C261.149 167.487 260.725 167.602 260.34 167.679C255.26 168.411 250.064 168.488 244.983 167.795C244.137 167.679 243.213 167.525 242.482 167.063C241.25 166.294 240.711 164.831 240.095 163.523C237.902 158.904 233.976 155.401 230.55 151.591C227.125 147.781 224.046 143.162 224.2 138.043C224.354 132.924 229.203 127.805 234.13 129.152C234.014 119.261 233.706 108.754 228.395 100.402C227.895 99.6318 227.317 98.8236 226.509 98.4002C224.623 97.3995 222.391 98.6696 220.389 99.3239C216.925 100.556 212.769 99.7473 209.882 97.3995ZM211.152 87.8159C210.729 87.2385 210.267 86.7382 209.767 86.1994C209.497 85.9299 209.228 85.6605 208.881 85.4681C208.766 85.4296 208.65 85.3911 208.535 85.3526C207.688 85.1987 206.995 85.8145 206.495 86.5842C206.264 88.0083 206.918 89.5863 208.112 90.3946C209.343 91.2413 211.114 91.2798 212.384 90.4716C212.499 90.3946 212.615 90.3176 212.653 90.1637C212.692 90.0482 212.615 89.8942 212.538 89.7788C212.114 89.163 211.653 88.4702 211.152 87.8159Z" fill="black"/>
<path d="M225.775 84.8141C225.544 86.1612 225.313 87.5468 224.62 88.7399C223.928 89.9331 222.696 90.8953 221.349 90.8953C219.771 90.8953 218.539 89.7021 217.5 88.509C217.769 87.7777 218.077 87.0464 218.501 86.4306C219.117 85.5454 219.963 84.8141 221.041 84.6602C220.541 85.6993 220.772 87.1234 221.002 88.2396C221.041 88.3935 221.079 88.5475 221.195 88.6245C221.349 88.7399 221.541 88.7399 221.734 88.6629C222.388 88.432 222.85 87.8162 223.042 87.1234C223.196 86.5076 223.235 85.5069 223.196 84.8141C224.043 84.9296 224.928 85.122 225.775 84.8141Z" fill="#D5BF4B"/>
<path d="M223.121 84.7378C223.16 85.4306 223.16 86.4313 222.967 87.0471C222.775 87.7399 222.313 88.3557 221.659 88.5867C221.466 88.6251 221.274 88.6636 221.12 88.5482C221.004 88.4712 220.966 88.3172 220.928 88.1633C220.697 87.0471 220.466 85.623 220.966 84.5839C221.697 84.4684 222.429 84.6223 223.121 84.7378Z" fill="black"/>
<path d="M212.538 89.8937C212.615 90.0092 212.653 90.1247 212.653 90.2786C212.615 90.3941 212.499 90.5095 212.384 90.5865C211.114 91.3948 209.343 91.3563 208.112 90.5095C206.919 89.6628 206.264 88.1233 206.495 86.6992C206.996 85.9294 207.688 85.2751 208.535 85.4676C208.651 85.506 208.766 85.5445 208.881 85.583L208.843 85.66C208.458 86.3528 208.112 87.0841 208.073 87.8923C208.073 88.7006 208.458 89.5473 209.189 89.8552C209.844 90.1247 210.844 88.7776 211.152 87.9308C211.653 88.4697 212.114 89.1624 212.538 89.8937Z" fill="#D5BF4B"/>
<path d="M209.768 86.2391C210.268 86.7394 210.73 87.2783 211.153 87.8556C210.845 88.7408 209.845 90.0494 209.19 89.78C208.459 89.4721 208.074 88.6254 208.074 87.8171C208.074 87.0089 208.421 86.2776 208.844 85.5848L208.882 85.5078C209.229 85.6618 209.537 85.9697 209.768 86.2391Z" fill="black"/>
<path d="M209.38 96.939C209.534 97.0929 209.726 97.2469 209.919 97.4009C207.725 98.9019 205.416 100.172 202.952 101.173C202.798 101.25 202.606 101.288 202.529 101.134C202.452 101.019 202.529 100.903 202.568 100.788C203.491 99.1713 205.3 98.2476 206.994 97.4393C207.648 97.1314 208.302 96.8235 208.995 96.5156C209.072 96.6696 209.226 96.8235 209.38 96.939Z" fill="black"/>
<path d="M207.609 94.8203C207.763 95.0512 207.917 95.3207 208.11 95.5516C205.569 96.5138 202.413 97.9379 199.873 98.2458C199.488 98.2843 199.026 98.3228 198.68 98.1303C198.642 97.9379 198.872 97.7839 199.065 97.7069C201.682 96.5138 204.8 95.5131 207.609 94.8203Z" fill="black"/>
<path d="M206.418 92.2812C206.572 92.7431 206.764 93.1665 206.957 93.6283C204.378 93.9363 201.337 94.1287 198.797 93.9362C198.528 93.9362 198.22 93.8978 198.027 93.7053C199.028 92.8586 200.414 92.6661 201.722 92.5507C203.262 92.3967 204.84 92.2812 206.418 92.2812Z" fill="black"/>
<path fill-rule="evenodd" clip-rule="evenodd" d="M230.651 62.7145C230.372 62.865 230.094 63.1398 229.892 63.4142L229.89 63.4168C227.356 66.7577 225.09 70.2525 223.054 73.9014C223.054 73.9014 223.054 73.9013 223.054 73.9014L222.477 74.9404L222.141 74.7535L222.718 73.7143C224.762 70.0509 227.037 66.541 229.583 63.1853C229.805 62.8828 230.123 62.5617 230.469 62.3756C230.816 62.1886 231.239 62.1184 231.594 62.423L231.665 62.4839L231.661 62.5773C231.508 66.1719 232.005 69.8052 233.115 73.2475C233.535 74.5095 234.032 75.7331 234.606 76.9185L234.259 77.0861C233.678 75.8854 233.175 74.6461 232.749 73.3683L232.748 73.3664C231.636 69.9138 231.131 66.2711 231.273 62.6638C231.102 62.562 230.894 62.5836 230.651 62.7145Z" fill="black"/>
<path fill-rule="evenodd" clip-rule="evenodd" d="M230.738 70.7725L230.738 70.7724L231.041 70.5352C231.734 71.4207 232.426 72.3043 233.117 73.1491L233.118 73.1507L233.118 73.1508C233.397 73.4992 233.67 73.8459 233.94 74.1901C234.421 74.8019 234.895 75.4057 235.387 75.9959L235.39 75.9998L235.39 75.9998C244.089 87.0084 252.821 98.0484 262.399 108.318C264.283 110.337 266.276 112.484 267.821 114.824C269.367 117.165 270.473 119.711 270.571 122.529L270.571 122.532C270.581 122.989 270.534 123.458 270.482 123.911C270.474 123.981 270.466 124.05 270.457 124.119C270.412 124.502 270.369 124.873 270.355 125.228C270.322 126.064 270.456 126.752 271.073 127.233C271.127 127.274 271.214 127.314 271.339 127.348C271.464 127.381 271.614 127.406 271.786 127.424C272.131 127.46 272.542 127.467 272.965 127.472C273.001 127.473 273.037 127.473 273.074 127.473C273.457 127.478 273.844 127.482 274.181 127.508C274.365 127.522 274.539 127.543 274.692 127.575C274.842 127.607 274.984 127.652 275.098 127.722C275.856 128.185 276.248 129.036 276.487 129.929C276.656 130.558 276.755 131.239 276.845 131.856C276.883 132.114 276.919 132.361 276.958 132.588L276.958 132.59C277.269 134.55 277.307 136.545 277.312 138.532C277.312 138.817 277.312 139.102 277.312 139.386C277.312 141.09 277.312 142.784 277.46 144.457C277.845 148.691 278.042 153.115 276.681 157.16L276.499 157.099L276.681 157.16C275.359 161.088 272.317 164.694 268.269 165.638C268.268 165.638 268.268 165.638 268.267 165.638L268.26 165.64C268.113 165.677 267.94 165.72 267.762 165.72V165.335C267.888 165.335 268.018 165.304 268.177 165.264L268.18 165.263C272.059 164.359 275.021 160.883 276.316 157.037C277.649 153.076 277.461 148.725 277.077 144.492L277.077 144.491C276.927 142.8 276.927 141.087 276.927 139.383C276.927 139.1 276.927 138.816 276.927 138.533C276.922 136.547 276.883 134.579 276.578 132.651C276.536 132.406 276.499 132.149 276.46 131.885C276.372 131.278 276.278 130.635 276.115 130.029C275.883 129.161 275.525 128.434 274.897 128.05C274.837 128.014 274.744 127.98 274.612 127.952C274.482 127.924 274.327 127.905 274.151 127.891C273.828 127.867 273.453 127.863 273.067 127.858C273.031 127.858 272.996 127.858 272.96 127.857C272.541 127.852 272.112 127.845 271.746 127.807C271.563 127.788 271.39 127.76 271.239 127.719C271.09 127.679 270.949 127.623 270.839 127.538L270.838 127.538C270.071 126.941 269.936 126.09 269.97 125.213C269.985 124.841 270.03 124.454 270.076 124.07C270.084 124.003 270.092 123.935 270.099 123.867C270.152 123.414 270.196 122.969 270.187 122.542C270.092 119.819 269.023 117.342 267.5 115.036C265.976 112.728 264.005 110.603 262.117 108.581L262.117 108.581C252.528 98.2981 243.787 87.2464 235.09 76.2404C234.595 75.6471 234.115 75.0357 233.632 74.421C233.363 74.0782 233.092 73.7343 232.819 73.392C232.125 72.5437 231.431 71.6571 230.738 70.7725Z" fill="black"/>
<path fill-rule="evenodd" clip-rule="evenodd" d="M205.517 65.7344L205.69 65.8227C207.495 66.745 208.815 68.3196 210.105 69.858L210.118 69.8732C211.422 71.4282 212.697 72.9445 214.426 73.8282C217.012 75.1394 219.989 74.7731 222.772 73.6292L222.774 73.6282C224.219 73.0578 225.592 72.2575 226.857 71.4148L227.07 71.735C225.794 72.5854 224.397 73.4015 222.917 73.9857C220.082 75.1507 216.978 75.5538 214.252 74.1713L214.252 74.171C212.446 73.2487 211.126 71.6741 209.836 70.1357L209.823 70.1205C208.564 68.6184 207.331 67.1524 205.69 66.2579C204.832 68.161 205.412 70.1632 206.262 72.2975C206.402 72.649 206.55 73.0047 206.698 73.3633C207.01 74.1154 207.328 74.8805 207.592 75.6466C207.984 76.7826 208.268 77.944 208.258 79.1202L208.258 79.1216C208.238 80.3675 207.882 81.5375 207.467 82.6773C207.361 82.9692 207.251 83.2583 207.141 83.5462C206.82 84.3916 206.502 85.2268 206.29 86.0923M205.517 65.7344L205.43 65.908ZM205.43 65.908C204.368 68.0317 205.03 70.2434 205.905 72.4399ZM205.905 72.4399C206.049 72.8023 206.199 73.1638 206.349 73.5252ZM206.349 73.5252C206.658 74.271 206.968 75.0169 207.228 75.7721ZM207.228 75.7721C207.613 76.8886 207.882 78.0026 207.873 79.1163ZM207.873 79.1163C207.854 80.2949 207.517 81.4147 207.105 82.5455C207.003 82.8261 206.896 83.1081 206.788 83.3919C206.464 84.2431 206.135 85.11 205.916 86.0006C205.406 88.0774 205.524 90.3079 206.189 92.3414L206.19 92.3425C206.311 92.7063 206.456 93.0486 206.603 93.3953C206.647 93.4972 206.69 93.5994 206.733 93.7027L206.734 93.7056L206.736 93.7084C206.933 94.1417 207.168 94.5344 207.398 94.9166L207.403 94.9248L207.405 94.9286C207.444 94.9866 207.484 95.05 207.526 95.1164C207.641 95.2961 207.769 95.498 207.916 95.6738L207.917 95.6758C208.184 96.0191 208.46 96.3735 208.776 96.6899L209.2 97.1133C209.361 97.2748 209.56 97.4342 209.749 97.5852L209.753 97.5884C209.753 97.5885 209.753 97.5887 209.754 97.5888C212.69 99.9767 216.876 100.799 220.518 99.6236C220.931 99.4912 221.35 99.3353 221.767 99.1802C221.871 99.1418 221.974 99.1033 222.077 99.0654C222.598 98.8732 223.115 98.6908 223.625 98.5587C224.645 98.2943 225.609 98.2384 226.49 98.6877C227.249 99.0855 227.803 99.8157 228.301 100.619L228.302 100.622C233.573 108.85 233.886 119.194 234.004 129.021C231.543 128.451 229.133 129.424 227.312 131.15C225.431 132.933 224.155 135.539 224.077 138.154C223.92 143.352 227.085 148.02 230.476 151.836L230.477 151.836C231.236 152.681 232.02 153.511 232.802 154.339C232.904 154.446 233.006 154.554 233.108 154.662C233.992 155.598 234.87 156.535 235.709 157.497C237.388 159.42 238.905 161.435 239.991 163.721C240.067 163.883 240.143 164.049 240.22 164.217C240.447 164.717 240.683 165.233 240.961 165.709C241.335 166.348 241.797 166.936 242.449 167.343C243.22 167.83 244.144 167.987 245.028 168.102C250.124 168.758 255.337 168.72 260.433 167.987C260.635 167.966 260.855 167.925 261.055 167.844C261.256 167.763 261.449 167.636 261.574 167.436L261.578 167.428L261.711 167.163L261.716 167.135C261.747 166.946 261.673 166.789 261.562 166.681C261.456 166.578 261.315 166.515 261.181 166.49C261.052 166.466 260.894 166.472 260.769 166.55C260.702 166.592 260.645 166.655 260.615 166.739C260.585 166.822 260.587 166.91 260.608 166.996L260.981 166.902C260.978 166.889 260.977 166.88 260.977 166.874C260.994 166.866 261.039 166.856 261.111 166.869C261.184 166.883 261.252 166.916 261.294 166.957C261.324 166.987 261.338 167.016 261.338 167.049L261.243 167.239C261.175 167.344 261.062 167.426 260.91 167.488C260.755 167.55 260.573 167.586 260.391 167.604L260.386 167.605L260.382 167.605C255.319 168.334 250.141 168.372 245.077 167.72C244.192 167.605 243.346 167.454 242.654 167.017L242.653 167.017C242.074 166.655 241.651 166.126 241.293 165.514C241.026 165.057 240.802 164.567 240.576 164.072C240.498 163.901 240.42 163.728 240.339 163.557L240.339 163.557C239.231 161.225 237.688 159.179 235.999 157.244C235.155 156.276 234.272 155.334 233.388 154.398C233.286 154.29 233.184 154.182 233.082 154.074C232.299 153.246 231.519 152.42 230.763 151.579C227.381 147.774 224.31 143.205 224.462 138.166C224.537 135.662 225.763 133.149 227.577 131.429C229.39 129.71 231.768 128.804 234.148 129.455L234.395 129.522L234.392 129.267C234.276 119.386 234.011 108.821 228.627 100.416C228.124 99.6035 227.525 98.7951 226.668 98.3463L226.666 98.3453C225.662 97.833 224.586 97.9118 223.528 98.1861C222.999 98.3234 222.466 98.5115 221.944 98.7042C221.838 98.7431 221.734 98.7821 221.629 98.8209C221.213 98.9757 220.804 99.1278 220.4 99.2572C216.884 100.392 212.833 99.5971 209.996 97.2898L209.995 97.2888C209.8 97.1331 209.617 96.9861 209.472 96.8411L209.048 96.4178C208.75 96.1197 208.488 95.783 208.217 95.435L208.215 95.4324L208.213 95.4299C208.083 95.2737 207.975 95.1038 207.865 94.9304C207.82 94.8602 207.775 94.7895 207.728 94.7189C207.498 94.335 207.274 93.9612 207.087 93.5518C207.042 93.4439 206.998 93.3389 206.954 93.2358C206.808 92.8922 206.671 92.5689 206.555 92.2214C205.911 90.2523 205.798 88.0951 206.29 86.0923" fill="black"/>
<path fill-rule="evenodd" clip-rule="evenodd" d="M267.336 166.527H267.72V166.95H267.336V166.527Z" fill="black"/>
<path fill-rule="evenodd" clip-rule="evenodd" d="M262.803 193.895C266.485 184.959 267.6 175.172 267.946 165.48L268.331 165.494C267.984 175.201 266.867 185.043 263.159 194.042L263.158 194.043C262.155 196.436 260.951 198.809 259.157 200.72C257.324 202.67 254.951 204.03 252.604 205.299C250.312 206.571 247.814 207.831 245.265 208.539C242.715 209.248 240.102 209.409 237.588 208.467C233.943 207.095 231.526 203.73 229.376 200.582C228.725 199.624 228.044 198.59 227.844 197.427L227.843 197.423L227.843 197.42C227.683 196.219 228.155 194.799 229.308 194.329C230.243 193.947 231.143 194.266 231.92 194.839C232.695 195.41 233.383 196.258 233.924 197.012C235.572 199.272 237.691 201.379 240.392 201.979L240.393 201.979C243.504 202.691 246.793 201.231 249.396 199.318C254.171 195.765 257.652 190.604 259.565 184.94C261.441 179.314 261.825 173.223 261.135 167.319L261.134 167.308V167.219H261.518V167.285C262.212 173.231 261.826 179.376 259.931 185.062L259.93 185.063C257.995 190.791 254.471 196.021 249.625 199.627L249.624 199.628C246.992 201.563 243.585 203.105 240.307 202.354C237.466 201.723 235.275 199.519 233.613 197.238L233.612 197.237C233.076 196.49 232.417 195.683 231.691 195.148C230.967 194.614 230.212 194.376 229.454 194.686C228.529 195.062 228.077 196.257 228.224 197.365C228.409 198.433 229.037 199.399 229.694 200.365C231.854 203.529 234.21 206.784 237.723 208.106C240.136 209.011 242.661 208.864 245.162 208.168C247.665 207.472 250.131 206.231 252.419 204.962L252.421 204.961C254.769 203.69 257.091 202.356 258.876 200.457C260.623 198.597 261.805 196.274 262.803 193.895Z" fill="black"/>
<path fill-rule="evenodd" clip-rule="evenodd" d="M223.106 84.9249C222.417 84.7718 221.716 84.6639 221.062 84.7729L221.058 84.7736L221.058 84.7736C220.054 84.917 219.249 85.6008 218.649 86.463C218.26 87.0279 217.969 87.6985 217.711 88.3876C218.746 89.5698 219.914 90.6642 221.377 90.6642C222.633 90.6642 223.81 89.7613 224.482 88.6047C225.102 87.5372 225.343 86.3069 225.559 85.06C224.74 85.278 223.88 85.0932 223.107 84.9251L223.106 84.9249ZM217.272 88.4864C217.242 88.5792 217.209 88.6734 217.174 88.7713L217.173 88.7742C217.125 88.907 217.075 89.0466 217.035 89.1873L217.405 89.293C217.442 89.1653 217.488 89.0365 217.536 88.9008L217.537 88.8979C217.548 88.8683 217.558 88.8383 217.569 88.808C218.571 89.9295 219.801 91.0491 221.377 91.0491C222.815 91.0491 224.101 90.0276 224.815 88.798C225.516 87.5902 225.755 86.1957 225.981 84.8759C225.985 84.8533 225.989 84.8306 225.993 84.808L226.051 84.466L225.73 84.5974C224.948 84.9174 224.085 84.7439 223.189 84.5491C222.493 84.3944 221.732 84.2716 221.001 84.3929C219.851 84.5581 218.964 85.3362 218.332 86.2436L218.332 86.2436L218.332 86.2445C217.938 86.8174 217.644 87.4824 217.391 88.1452L217.161 88.3755L217.272 88.4864Z" fill="black"/>
<path fill-rule="evenodd" clip-rule="evenodd" d="M220.513 86.3517C220.488 85.7109 220.556 85.0594 220.825 84.5L221.172 84.667C220.941 85.1467 220.874 85.7269 220.897 86.3369C220.92 86.9442 221.033 87.5649 221.147 88.12C221.167 88.1986 221.183 88.2587 221.204 88.3084C221.225 88.3569 221.244 88.3776 221.259 88.3877L221.263 88.3906L221.268 88.3938C221.351 88.4561 221.466 88.4689 221.62 88.4076L221.623 88.4061L221.627 88.4048C222.205 88.2008 222.632 87.6476 222.814 86.9976C222.96 86.4084 222.999 85.4313 222.962 84.7481L222.961 84.7428V84.5452L223.346 84.545V84.732C223.385 85.4333 223.347 86.4524 223.186 87.0934L223.185 87.0983C222.981 87.8316 222.487 88.5079 221.759 88.7665C221.529 88.8572 221.264 88.8694 221.041 88.7048C220.943 88.6381 220.887 88.5449 220.85 88.46C220.815 88.3783 220.793 88.2885 220.775 88.2161L220.772 88.2057L220.771 88.2019C220.655 87.6419 220.537 86.9939 220.513 86.3517Z" fill="black"/>
<path fill-rule="evenodd" clip-rule="evenodd" d="M206.325 86.5145C206.323 86.5167 206.322 86.5189 206.321 86.5212L206.319 86.5241C206.12 86.8417 205.96 87.1611 205.84 87.4822L206.2 87.6174C206.216 87.5758 206.232 87.5342 206.249 87.4925C206.316 88.7304 206.962 89.9429 207.987 90.6703L207.989 90.672C209.284 91.5622 211.138 91.6026 212.474 90.7527L212.477 90.7505C212.607 90.6642 212.764 90.5186 212.823 90.3433L212.832 90.3137V90.2825C212.832 90.0908 212.783 89.9392 212.687 89.7941C212.262 89.0987 211.797 88.4017 211.293 87.7423C210.866 87.1595 210.399 86.6153 209.894 86.1096C209.623 85.8008 209.332 85.5054 208.946 85.334L208.938 85.3303L208.574 85.2089L208.564 85.2068C208.076 85.0959 207.637 85.2325 207.263 85.491C206.909 85.7351 206.606 86.0913 206.356 86.467L206.348 86.463C206.339 86.4807 206.332 86.4978 206.325 86.5145ZM206.675 86.6831C206.674 86.6863 206.674 86.6917 206.674 86.703V86.7185L206.672 86.7338C206.453 88.0835 207.075 89.5503 208.209 90.3556C209.376 91.1577 211.061 91.1943 212.266 90.4291C212.352 90.371 212.418 90.3002 212.447 90.2463C212.441 90.1506 212.415 90.08 212.364 90.0043L212.362 90.0012L212.36 89.9979C211.94 89.3094 211.481 88.6224 210.986 87.9746L210.984 87.9715C210.566 87.402 210.111 86.8706 209.617 86.3773L209.613 86.3727L209.609 86.3679C209.344 86.0654 209.1 85.8258 208.798 85.6894L208.47 85.5801C208.115 85.5021 207.787 85.5966 207.481 85.8078C207.182 86.0143 206.911 86.3283 206.675 86.6831Z" fill="black"/>
<path fill-rule="evenodd" clip-rule="evenodd" d="M207.867 87.8088C207.908 86.9531 208.274 86.1884 208.661 85.4922L208.998 85.6791C208.615 86.3671 208.289 87.0636 208.252 87.8225C208.254 88.583 208.617 89.3361 209.25 89.6032C209.339 89.6396 209.461 89.6306 209.625 89.5431C209.788 89.4559 209.967 89.3039 210.145 89.108C210.499 88.7172 210.812 88.1913 210.957 87.7931C210.997 87.6725 211.023 87.5881 211.023 87.5101H211.408C211.408 87.6572 211.361 87.7984 211.325 87.906C211.324 87.9098 211.323 87.9136 211.321 87.9173L211.32 87.9223L211.32 87.9222C211.157 88.3705 210.816 88.9402 210.43 89.3664C210.237 89.5796 210.023 89.7667 209.806 89.8827C209.589 89.9983 209.34 90.0568 209.103 89.9588L209.101 89.9583L209.101 89.9582C208.273 89.6097 207.867 88.6722 207.867 87.818V87.8134L207.867 87.8088Z" fill="black"/>
<path fill-rule="evenodd" clip-rule="evenodd" d="M201.695 92.3603C203.237 92.2062 204.785 92.0898 206.375 92.1286L206.366 92.5134C204.8 92.4752 203.269 92.5897 201.732 92.7434L201.73 92.7436L201.73 92.7436C200.512 92.8511 199.284 93.0235 198.355 93.6882C198.477 93.7297 198.627 93.7451 198.788 93.7451H198.795L198.803 93.7456C201.325 93.9367 204.39 93.7457 206.924 93.4386L206.936 93.4372H206.948C207.019 93.4372 207.071 93.437 207.156 93.4085L207.278 93.7737C207.139 93.8199 207.04 93.822 206.959 93.822C204.417 94.1296 201.333 94.3225 198.781 94.1299C198.509 94.1293 198.132 94.0927 197.882 93.8427L197.734 93.6948L197.894 93.5597C198.947 92.669 200.391 92.4754 201.695 92.3603Z" fill="black"/>
<path fill-rule="evenodd" clip-rule="evenodd" d="M207.748 94.5937C207.808 94.5838 207.851 94.5762 207.892 94.5625L208.014 94.9276C207.942 94.9517 207.871 94.9634 207.816 94.9726L207.811 94.9734C207.752 94.9833 207.709 94.9909 207.668 95.0046L207.66 95.007L207.653 95.0089C204.851 95.6997 201.745 96.6971 199.14 97.8463L199.137 97.8476L199.134 97.8489C199.05 97.8822 198.968 97.929 198.915 97.979C198.912 97.9813 198.91 97.9837 198.908 97.9859C199.167 98.0749 199.48 98.0512 199.85 98.0176C201.097 97.8661 202.504 97.4395 203.923 96.9263C204.777 96.6177 205.625 96.2821 206.442 95.9582C206.989 95.7418 207.522 95.5307 208.035 95.3363C208.314 95.217 208.592 95.1376 208.857 95.0618L208.862 95.0604L208.968 95.4305C208.697 95.5079 208.439 95.5818 208.183 95.6917L208.179 95.6933L208.175 95.6948C207.673 95.8849 207.143 96.0949 206.596 96.3115C205.771 96.6379 204.91 96.979 204.054 97.2883C202.627 97.8043 201.186 98.2434 199.894 98.4001L199.891 98.4004L199.888 98.4007C199.879 98.4015 199.87 98.4024 199.86 98.4032C199.458 98.4399 198.983 98.4833 198.584 98.2618L198.506 98.2186L198.489 98.1313C198.451 97.9406 198.553 97.7908 198.652 97.6982C198.751 97.6048 198.879 97.5365 198.988 97.4928C201.614 96.3342 204.739 95.3314 207.554 94.6369C207.623 94.6146 207.69 94.6033 207.743 94.5945L207.748 94.5937Z" fill="black"/>
<path fill-rule="evenodd" clip-rule="evenodd" d="M209.141 96.2035C209.245 96.1562 209.354 96.1066 209.454 96.0664L209.597 96.4238C209.506 96.4603 209.405 96.5064 209.298 96.555L209.295 96.5561C209.193 96.6026 209.086 96.6513 208.987 96.691C208.335 96.9977 207.682 97.3053 206.989 97.613C205.293 98.4225 203.55 99.3208 202.658 100.867C202.65 100.89 202.641 100.912 202.634 100.93C202.632 100.935 202.63 100.94 202.628 100.944C202.617 100.972 202.611 100.991 202.607 101.007C202.604 101.017 202.604 101.023 202.604 101.025C202.604 101.026 202.604 101.026 202.604 101.026L202.611 101.036L202.614 101.043C202.619 101.045 202.627 101.047 202.641 101.047C202.66 101.047 202.683 101.043 202.707 101.036C202.73 101.029 202.749 101.019 202.761 101.011L202.777 101.001L202.795 100.993C205.244 99.9983 207.542 98.7349 209.725 97.2409L209.727 97.2396L209.727 97.2396C209.782 97.2032 209.846 97.1571 209.914 97.1084L209.916 97.1072C209.982 97.06 210.052 97.0104 210.112 96.9702L210.325 97.2904C210.271 97.3269 210.206 97.373 210.138 97.4216L210.136 97.4228C210.071 97.4698 210.002 97.5191 209.942 97.5592C207.742 99.0638 205.427 100.338 202.956 101.343C202.869 101.396 202.754 101.431 202.641 101.431C202.521 101.431 202.362 101.387 202.277 101.23C202.206 101.116 202.211 101.001 202.233 100.913C202.244 100.871 202.259 100.832 202.271 100.802C202.274 100.795 202.276 100.788 202.279 100.782C202.288 100.76 202.294 100.743 202.3 100.726L202.306 100.708L202.315 100.691C203.274 99.0145 205.141 98.0686 206.826 97.2646L206.831 97.2623L206.831 97.2624C207.521 96.9554 208.174 96.6484 208.828 96.3404L208.833 96.338L208.839 96.3358C208.93 96.2993 209.032 96.2532 209.138 96.2046L209.141 96.2035Z" fill="black"/>
<path d="M104.964 405.116C105.656 405.27 106.388 405.386 107.08 405.27C108.12 405.078 109.005 404.385 109.582 403.5C110.006 402.846 110.313 402.153 110.583 401.422C109.544 400.228 108.312 399.035 106.772 399.035C105.425 399.035 104.194 399.997 103.501 401.152C102.808 402.345 102.577 403.692 102.346 405.039C103.193 404.732 104.078 404.924 104.964 405.116ZM118.204 392.492C118.396 392.646 118.55 392.8 118.742 392.954C118.896 393.108 119.05 393.224 119.166 393.377C119.474 393.685 119.743 394.032 120.013 394.378C120.205 394.609 120.359 394.84 120.513 395.109C120.744 395.494 120.975 395.879 121.167 396.303C121.36 396.726 121.552 397.188 121.706 397.65C122.36 399.651 122.514 401.845 121.975 403.885C121.398 406.233 120.051 408.388 120.013 410.813C119.936 415.354 124.516 419.819 122.437 423.899C118.896 422.09 117.28 417.702 113.739 415.893C111.083 414.546 108.081 414.969 105.271 416.086C103.232 419.742 100.961 423.244 98.4205 426.554C97.9972 427.132 97.2274 427.709 96.6885 427.286C96.8425 423.668 96.3422 420.05 95.226 416.586C94.4562 415.624 93.7249 414.7 92.9552 413.738C84.2568 402.73 75.5969 391.722 66.0133 381.485C62.2414 377.443 58.0847 372.979 57.9307 367.436C57.8923 365.666 58.739 363.664 57.3534 362.587C56.6991 362.086 54.0049 362.51 53.3121 362.086C51.965 361.24 51.8111 358.93 51.5417 357.352C50.9259 353.465 51.3877 349.462 51.0413 345.536C50.6564 341.303 50.464 336.954 51.8111 332.912C53.0812 329.025 56.1218 325.484 60.0476 324.56C60.3555 314.9 61.5102 305.124 65.2051 296.194C66.2058 293.808 67.3604 291.46 69.1309 289.574C70.9398 287.65 73.2876 286.303 75.5969 285.033C80.177 282.531 85.4884 280.068 90.3765 281.877C93.9559 283.185 96.3421 286.495 98.459 289.651C99.1133 290.614 99.7676 291.576 99.9216 292.73C100.076 293.847 99.6137 295.194 98.5745 295.617C96.881 296.31 95.2645 294.501 94.1868 293C92.5318 290.729 90.3765 288.574 87.6053 287.958C84.4108 287.227 81.1008 288.689 78.4451 290.652C73.634 294.193 70.1316 299.427 68.2456 305.085C66.3597 310.743 65.9748 316.824 66.6676 322.751C66.8601 322.482 67.2834 322.366 67.6683 322.289C72.7488 321.558 77.9062 321.481 82.9867 322.174C83.8334 322.289 84.7187 322.443 85.4884 322.905C86.7201 323.675 87.2589 325.138 87.8747 326.446C90.0685 331.065 93.9944 334.567 97.3813 338.339C100.807 342.149 103.886 346.73 103.732 351.849C103.578 356.929 98.7284 362.048 93.8019 360.701C93.9174 370.592 94.2253 381.023 99.5367 389.375C100.037 390.144 100.614 390.953 101.423 391.376C103.309 392.377 105.502 391.107 107.542 390.452C111.199 389.336 115.317 390.144 118.204 392.492ZM116.933 402.037C117.357 402.615 117.819 403.115 118.319 403.654C118.588 403.923 118.858 404.193 119.204 404.347C119.32 404.385 119.435 404.424 119.551 404.462C120.397 404.616 121.09 404 121.591 403.23C121.821 401.806 121.167 400.228 119.974 399.42C118.742 398.573 116.972 398.535 115.702 399.343C115.586 399.42 115.471 399.497 115.432 399.651C115.394 399.767 115.471 399.92 115.548 400.036C115.971 400.69 116.395 401.383 116.933 402.037Z" fill="black"/>
<path d="M102.348 405.04C102.579 403.693 102.81 402.308 103.502 401.153C104.195 399.96 105.427 398.998 106.774 399.036C108.313 399.036 109.583 400.229 110.584 401.423C110.315 402.154 110.007 402.847 109.583 403.501C109.006 404.386 108.121 405.117 107.082 405.271C107.582 404.232 107.351 402.847 107.12 401.692C107.082 401.538 107.043 401.384 106.928 401.307C106.774 401.192 106.581 401.192 106.389 401.269C105.735 401.5 105.273 402.115 105.08 402.808C104.926 403.424 104.888 404.425 104.926 405.117C104.08 404.925 103.194 404.733 102.348 405.04Z" fill="#D5BF4B"/>
<path d="M104.962 405.118C104.923 404.425 104.923 403.424 105.115 402.808C105.308 402.116 105.77 401.5 106.424 401.269C106.617 401.23 106.809 401.192 106.963 401.307C107.078 401.384 107.117 401.538 107.155 401.692C107.386 402.808 107.617 404.233 107.117 405.272C106.386 405.387 105.693 405.233 104.962 405.118Z" fill="black"/>
<path d="M115.545 399.998C115.468 399.883 115.43 399.767 115.43 399.613C115.468 399.498 115.584 399.383 115.699 399.306C116.969 398.497 118.701 398.536 119.971 399.383C121.164 400.229 121.819 401.769 121.588 403.193C121.087 403.963 120.395 404.617 119.548 404.424C119.432 404.386 119.317 404.348 119.202 404.309L119.24 404.232C119.625 403.539 119.971 402.808 120.01 402C120.01 401.191 119.625 400.345 118.894 400.037C118.239 399.767 117.239 401.114 116.931 401.961C116.392 401.384 115.969 400.691 115.545 399.998Z" fill="#D5BF4B"/>
<path d="M118.28 403.655C117.78 403.155 117.318 402.616 116.895 402.038C117.202 401.153 118.203 399.845 118.857 400.114C119.589 400.422 119.974 401.269 119.974 402.077C119.974 402.885 119.627 403.616 119.204 404.309L119.165 404.386C118.857 404.194 118.55 403.924 118.28 403.655Z" fill="black"/>
<path d="M118.707 392.957C118.553 392.803 118.36 392.649 118.168 392.495C120.323 390.994 122.671 389.724 125.134 388.724C125.288 388.647 125.481 388.608 125.558 388.762C125.635 388.878 125.558 388.993 125.519 389.108C124.596 390.725 122.787 391.649 121.093 392.457C120.439 392.765 119.784 393.073 119.13 393.381C119.015 393.227 118.861 393.073 118.707 392.957Z" fill="black"/>
<path d="M120.473 395.07C120.319 394.839 120.165 394.57 119.973 394.339C122.513 393.415 125.669 391.953 128.171 391.645C128.556 391.606 129.017 391.568 129.364 391.76C129.402 391.953 129.171 392.107 128.979 392.184C126.362 393.377 123.244 394.377 120.473 395.07Z" fill="black"/>
<path d="M121.668 397.575C121.514 397.113 121.321 396.69 121.129 396.228C123.708 395.92 126.748 395.766 129.288 395.92C129.558 395.92 129.866 395.958 130.058 396.151C129.058 396.997 127.672 397.19 126.363 397.305C124.785 397.498 123.246 397.613 121.668 397.575Z" fill="black"/>
<path fill-rule="evenodd" clip-rule="evenodd" d="M93.8543 412.766C94.4352 413.966 94.9387 415.206 95.3647 416.483L95.3653 416.485C96.4771 419.936 96.9817 423.539 96.8414 427.143C97.0131 427.233 97.223 427.21 97.4647 427.083C97.7443 426.937 98.0216 426.671 98.2214 426.399L98.2239 426.396C100.758 423.094 103.024 419.599 105.059 415.95C105.059 415.95 105.059 415.951 105.059 415.95L105.637 414.911L105.973 415.098L105.396 416.137C103.352 419.801 101.076 423.311 98.5305 426.628C98.307 426.933 97.9884 427.244 97.6431 427.424C97.2973 427.605 96.8799 427.674 96.5258 427.395L96.4482 427.334L96.4524 427.236C96.6053 423.642 96.1083 420.047 94.9992 416.604C94.5785 415.342 94.0814 414.119 93.5078 412.933L93.8543 412.766Z" fill="black"/>
<path fill-rule="evenodd" clip-rule="evenodd" d="M60.4637 324.635C60.3375 324.635 60.207 324.667 60.0485 324.706L60.0459 324.707L60.0459 324.707C56.204 325.611 53.2042 329.087 51.9482 332.931L51.9479 332.932C50.6146 336.932 50.8024 341.245 51.1872 345.478L51.1872 345.479C51.3365 347.17 51.3365 348.876 51.3364 350.572C51.3364 350.854 51.3364 351.136 51.3371 351.418C51.3419 353.394 51.3806 355.353 51.6858 357.28C51.7241 357.505 51.7596 357.74 51.7961 357.982C51.8907 358.608 51.9915 359.276 52.1626 359.902C52.3998 360.77 52.7583 361.498 53.3676 361.882C53.4274 361.918 53.5207 361.952 53.6519 361.98C53.7817 362.007 53.9371 362.027 54.1128 362.04C54.4356 362.065 54.8105 362.069 55.197 362.073C55.2325 362.074 55.268 362.074 55.3036 362.074C55.7232 362.079 56.1519 362.086 56.5176 362.125C56.7009 362.144 56.8735 362.172 57.0247 362.212C57.1739 362.253 57.3146 362.309 57.4245 362.393L57.4258 362.394C58.1931 362.991 58.3282 363.842 58.2937 364.718C58.2791 365.09 58.2335 365.478 58.1883 365.861C58.1803 365.929 58.1723 365.997 58.1645 366.064C58.1123 366.517 58.0681 366.963 58.0773 367.391C58.1531 370.113 59.2119 372.58 60.73 374.876C62.2496 377.175 64.2202 379.29 66.1082 381.312C75.4626 391.306 83.9367 402.031 92.4193 412.766C92.6328 413.037 92.8464 413.307 93.06 413.577C93.445 414.058 93.8202 414.53 94.1953 415.001L94.1955 415.001C94.5708 415.473 94.9458 415.944 95.3305 416.425L95.3317 416.427C95.6774 416.868 96.0231 417.3 96.3696 417.734C96.7159 418.166 97.063 418.6 97.4101 419.044L97.107 419.281C96.7614 418.839 96.4156 418.407 96.0691 417.974C95.723 417.541 95.3762 417.108 95.0293 416.665C94.6445 416.184 94.2692 415.712 93.8942 415.241L93.894 415.241C93.5188 414.769 93.1438 414.298 92.7591 413.817L92.7584 413.816C92.546 413.548 92.3336 413.279 92.1212 413.01C83.6357 402.271 75.1703 391.556 65.827 381.575L65.8268 381.575C63.9429 379.557 61.9493 377.418 60.409 375.089C58.8674 372.757 57.7709 370.22 57.6926 367.401L57.6926 367.4C57.6826 366.943 57.7298 366.474 57.7822 366.02C57.7902 365.951 57.7983 365.882 57.8064 365.813C57.8516 365.429 57.8952 365.059 57.9092 364.703C57.942 363.868 57.8078 363.179 57.1901 362.698C57.1365 362.658 57.05 362.618 56.9244 362.584C56.8003 362.55 56.6497 362.526 56.4775 362.508C56.1324 362.471 55.7216 362.464 55.2992 362.459C55.2631 362.459 55.2268 362.459 55.1905 362.458C54.8073 362.454 54.4195 362.45 54.0833 362.424C53.8988 362.41 53.7249 362.389 53.5722 362.356C53.4216 362.324 53.2794 362.279 53.166 362.21L53.1639 362.209C52.4269 361.745 52.0351 360.896 51.7913 360.004C51.6139 359.354 51.5076 358.65 51.412 358.017C51.3763 357.781 51.3421 357.554 51.3062 357.344L51.3058 357.342L51.3058 357.342C50.9954 355.382 50.957 353.396 50.9522 351.418C50.9515 351.135 50.9515 350.852 50.9515 350.569C50.9515 348.873 50.9515 347.186 50.8039 345.513C50.4189 341.278 50.2218 336.894 51.5825 332.811C52.8668 328.881 55.9475 325.276 59.9564 324.332L59.9649 324.33C60.1123 324.293 60.2858 324.25 60.4637 324.25V324.635Z" fill="black"/>
<path fill-rule="evenodd" clip-rule="evenodd" d="M67.7508 322.057C72.8472 321.324 78.0207 321.285 83.1171 321.942C84.0014 322.057 84.9259 322.214 85.6967 322.701C85.6968 322.701 85.6966 322.701 85.6967 322.701L85.5943 322.864L85.6963 322.701C85.6964 322.701 85.6966 322.701 85.6967 322.701C86.3488 323.109 86.8106 323.695 87.1845 324.335C87.4624 324.81 87.698 325.327 87.9259 325.826C88.0026 325.995 88.0784 326.161 88.1547 326.323L88.155 326.323C89.2217 328.609 90.7289 330.614 92.4024 332.528C93.2392 333.484 94.116 334.416 94.9995 335.349C95.0901 335.445 95.1808 335.54 95.2715 335.636C96.0645 336.473 96.86 337.312 97.6303 338.169C101.061 341.985 104.186 346.614 104.03 351.813C103.951 354.428 102.675 357.025 100.794 358.798C98.9735 360.515 96.5635 361.478 94.1032 360.907C94.1022 360.824 94.1012 360.74 94.1002 360.657L93.9078 360.659L93.857 360.845C93.9391 360.867 94.0212 360.888 94.1032 360.907C94.2214 370.733 94.572 381.039 99.8047 389.23L99.8062 389.232C100.304 390.036 100.858 390.766 101.617 391.164C101.617 391.164 101.616 391.163 101.616 391.163L101.528 391.335L101.618 391.164C101.618 391.164 101.617 391.164 101.617 391.164C102.498 391.613 103.462 391.557 104.482 391.293C104.992 391.161 105.509 390.978 106.03 390.786C106.133 390.748 106.236 390.71 106.34 390.671C106.757 390.516 107.176 390.36 107.588 390.228L107.648 390.411L107.589 390.228C107.589 390.228 107.589 390.228 107.588 390.228M118.315 392.263C118.315 392.263 118.315 392.262 118.314 392.262ZM118.315 392.263L118.32 392.266C118.508 392.417 118.707 392.577 118.869 392.738L119.296 393.165L119.3 393.17C119.607 393.516 119.88 393.827 120.153 394.178C120.299 394.353 120.428 394.555 120.542 394.735C120.584 394.801 120.625 394.865 120.663 394.923L120.666 394.927L120.668 394.93L120.671 394.934C120.9 395.317 121.136 395.71 121.333 396.143L121.334 396.146L121.335 396.149C121.378 396.252 121.422 396.354 121.465 396.456C121.612 396.803 121.758 397.145 121.879 397.509L121.879 397.51C122.544 399.543 122.662 401.774 122.153 403.851C121.933 404.743 121.603 405.617 121.279 406.474C121.171 406.758 121.065 407.04 120.963 407.32C120.551 408.456 120.214 409.576 120.195 410.736C120.177 411.84 120.439 412.946 120.818 414.057C121.077 414.814 121.386 415.562 121.695 416.311C121.842 416.666 121.989 417.021 122.13 417.378C123 419.569 123.662 421.781 122.6 423.905L122.513 424.078L122.34 423.99C120.534 423.068 119.224 421.493 117.943 419.954L117.931 419.939C116.636 418.384 115.371 416.868 113.642 415.985C111.057 414.674 108.119 415.04 105.336 416.183C103.886 416.794 102.512 417.557 101.25 418.398L101.037 418.078C102.316 417.225 103.712 416.449 105.187 415.828L105.189 415.828C108.024 414.662 111.09 414.259 113.816 415.642L113.817 415.642C115.622 416.564 116.933 418.139 118.214 419.678L118.226 419.693C119.477 421.195 120.7 422.661 122.34 423.555C123.198 421.652 122.618 419.65 121.773 417.52C121.635 417.174 121.491 416.824 121.345 416.472C121.033 415.717 120.716 414.95 120.454 414.182C120.068 413.051 119.791 411.897 119.81 410.73M87.8063 326.486C87.7257 326.315 87.6473 326.143 87.569 325.972C87.3433 325.477 87.1194 324.986 86.8522 324.529C86.4949 323.918 86.0716 323.389 85.4923 323.027L85.4915 323.026C84.7999 322.59 83.9538 322.439 83.0677 322.323C78.0046 321.671 72.8648 321.71 67.8016 322.438L67.7975 322.439L67.7933 322.439C67.6111 322.458 67.4288 322.493 67.274 322.556C67.1223 322.618 67.0093 322.7 66.9412 322.805L66.8459 322.995C66.8461 323.028 66.8599 323.057 66.8904 323.087C66.9322 323.128 66.9999 323.161 67.0733 323.175C67.1445 323.188 67.1899 323.177 67.2068 323.169C67.2068 323.164 67.206 323.155 67.2026 323.141L67.576 323.048C67.5974 323.134 67.5988 323.222 67.5689 323.305C67.5386 323.389 67.4817 323.452 67.415 323.494C67.2895 323.572 67.132 323.577 67.0029 323.553C66.8694 323.528 66.7278 323.466 66.6216 323.362C66.5111 323.255 66.4368 323.098 66.4682 322.909L66.4729 322.881L66.6054 322.616L66.6103 322.608C66.735 322.408 66.9283 322.281 67.1293 322.199C67.3291 322.119 67.5493 322.077 67.7508 322.057" fill="black"/>
<path fill-rule="evenodd" clip-rule="evenodd" d="M60.8918 323.555H60.5078V323.133H60.8918V323.555Z" fill="black"/>
<path fill-rule="evenodd" clip-rule="evenodd" d="M82.9584 282.021C80.4695 282.717 78.0128 283.949 75.7247 285.199C73.4135 286.47 71.0918 287.804 69.3065 289.703C67.5608 291.563 66.4169 293.884 65.4181 296.265C61.7364 305.163 60.6214 314.912 60.2753 324.603L59.8906 324.589C60.2373 314.882 61.3545 305.079 65.0626 296.118L65.0629 296.117C66.0654 293.726 67.2308 291.352 69.0259 289.44C70.8584 287.49 73.2322 286.13 75.5395 284.861L75.54 284.861C77.832 283.609 80.321 282.359 82.8547 281.65C85.39 280.941 87.9839 280.77 90.4782 281.693C94.1245 283.026 96.5419 286.392 98.6539 289.541C98.654 289.541 98.6541 289.541 98.6542 289.541L98.6656 289.558C99.3113 290.508 99.9876 291.502 100.148 292.702C100.148 292.702 100.148 292.702 100.148 292.702L99.9569 292.728L100.148 292.701C100.148 292.701 100.148 292.702 100.148 292.702C100.229 293.293 100.148 293.944 99.9078 294.506C99.6675 295.069 99.261 295.557 98.6824 295.792C98.6823 295.792 98.6825 295.792 98.6824 295.792C97.7472 296.175 96.8475 295.856 96.0709 295.283C95.2954 294.711 94.6077 293.864 94.0662 293.11C94.0664 293.11 94.0665 293.11 94.0666 293.11L94.2221 292.997L94.0658 293.109C94.0659 293.109 94.0661 293.11 94.0662 293.11C92.4187 290.849 90.2991 288.743 87.5989 288.143L87.5977 288.143C84.4857 287.43 81.2349 288.852 78.5948 290.804L78.5945 290.804C73.8197 294.318 70.3387 299.518 68.4635 305.143C66.5881 310.769 66.2039 316.821 66.8941 322.726L66.8954 322.737V322.825H66.5105V322.76C66.5109 322.763 66.5114 322.767 66.5118 322.771L66.7029 322.748H66.5105V322.76C65.8169 316.813 66.2031 310.707 68.0984 305.021C69.9951 299.331 73.5188 294.062 78.366 290.494L78.4804 290.649L78.3663 290.494C78.3662 290.494 78.3661 290.494 78.366 290.494C81.0371 288.52 84.4061 287.017 87.683 287.767C87.6828 287.767 87.6826 287.767 87.6824 287.767L87.6406 287.955L87.6836 287.767C87.6834 287.767 87.6832 287.767 87.683 287.767C90.5245 288.399 92.7153 290.603 94.3777 292.884L94.3785 292.885C94.9146 293.631 95.5739 294.439 96.2992 294.973C97.0236 295.507 97.7788 295.746 98.537 295.436C98.9975 295.248 99.3418 294.851 99.5538 294.355C99.7659 293.859 99.8386 293.278 99.7663 292.754L99.7662 292.753C99.6192 291.651 98.9944 290.726 98.3352 289.757L98.3345 289.756C96.213 286.593 93.8579 283.339 90.3457 282.055L90.345 282.054C87.9514 281.168 85.4457 281.325 82.9584 282.021Z" fill="black"/>
<path fill-rule="evenodd" clip-rule="evenodd" d="M106.8 399.265C105.549 399.229 104.373 400.128 103.701 401.286L103.699 401.288C103.079 402.321 102.839 403.55 102.622 404.8C103.408 404.606 104.26 404.758 105.037 404.927C105.767 405.081 106.428 405.188 107.082 405.079L107.085 405.079C108.053 404.935 108.896 404.249 109.454 403.394C109.842 402.795 110.132 402.16 110.386 401.485C109.4 400.327 108.209 399.265 106.806 399.265H106.803L106.8 399.265ZM110.824 401.395C110.856 401.293 110.893 401.189 110.932 401.081L110.933 401.078C110.98 400.945 111.03 400.806 111.07 400.665L110.7 400.559C110.664 400.687 110.618 400.816 110.569 400.951L110.568 400.954C110.556 400.99 110.543 401.026 110.53 401.063C109.562 399.96 108.32 398.881 106.808 398.88C105.367 398.84 104.082 399.864 103.368 401.092C102.666 402.262 102.427 403.657 102.202 404.975C102.198 404.998 102.194 405.021 102.19 405.044L102.133 405.377L102.448 405.257C103.196 404.972 104.066 405.11 104.956 405.303L104.957 405.303C105.688 405.457 106.412 405.581 107.143 405.459C108.253 405.294 109.18 404.518 109.776 403.604L109.777 403.603C110.15 403.026 110.434 402.422 110.68 401.795L110.711 401.826L110.983 401.554L110.824 401.395Z" fill="black"/>
<path fill-rule="evenodd" clip-rule="evenodd" d="M107.034 401.147C107.131 401.214 107.188 401.307 107.225 401.392C107.26 401.474 107.282 401.563 107.3 401.636L107.303 401.647L107.304 401.651C107.419 402.229 107.538 402.877 107.562 403.514C107.587 404.151 107.519 404.793 107.25 405.352L106.903 405.185C107.134 404.705 107.201 404.134 107.178 403.529C107.154 402.927 107.042 402.307 106.927 401.731C106.908 401.653 106.892 401.593 106.871 401.543C106.85 401.495 106.831 401.474 106.816 401.464L106.811 401.461L106.807 401.458C106.724 401.396 106.608 401.383 106.455 401.444L106.452 401.446L106.448 401.447C105.87 401.651 105.442 402.204 105.261 402.854C105.114 403.443 105.075 404.421 105.113 405.104L105.114 405.109V405.307L104.729 405.307V405.12C104.69 404.419 104.728 403.399 104.888 402.758L104.89 402.754C105.093 402.02 105.588 401.344 106.316 401.085C106.545 400.995 106.811 400.982 107.034 401.147Z" fill="black"/>
<path fill-rule="evenodd" clip-rule="evenodd" d="M115.762 399.464C115.676 399.522 115.61 399.593 115.581 399.647C115.586 399.742 115.613 399.813 115.663 399.889L115.665 399.892L115.667 399.895C116.088 400.584 116.546 401.271 117.042 401.918L117.044 401.922C117.462 402.491 117.917 403.022 118.41 403.516C118.682 403.787 118.925 404.028 119.23 404.165L119.558 404.274C119.913 404.352 120.241 404.258 120.547 404.047C120.846 403.84 121.118 403.525 121.354 403.17L121.356 403.159C121.575 401.81 120.953 400.344 119.82 399.538C118.612 398.734 116.965 398.7 115.762 399.464ZM121.777 402.367C121.7 401.141 121.056 399.944 120.041 399.223L120.038 399.221L120.036 399.22C118.705 398.332 116.89 398.29 115.554 399.14L115.55 399.143C115.421 399.229 115.264 399.374 115.205 399.55L115.195 399.579V399.611C115.195 399.802 115.245 399.954 115.341 400.099C115.766 400.794 116.231 401.491 116.735 402.151C117.164 402.735 117.631 403.281 118.138 403.788L118.149 403.799C118.411 404.061 118.702 404.352 119.081 404.521L119.09 404.524L119.454 404.646L119.463 404.648C119.951 404.759 120.391 404.622 120.765 404.364C121.11 404.126 121.406 403.781 121.652 403.416L121.68 403.43C121.703 403.384 121.718 403.342 121.728 403.301C121.918 402.993 122.071 402.683 122.188 402.372L121.828 402.237C121.811 402.28 121.794 402.324 121.777 402.367Z" fill="black"/>
<path fill-rule="evenodd" clip-rule="evenodd" d="M118.22 399.969C118.436 399.854 118.685 399.795 118.923 399.893L118.924 399.894L118.924 399.894C119.752 400.242 120.158 401.18 120.158 402.034V402.039L120.158 402.043C120.117 402.899 119.751 403.664 119.364 404.36L119.028 404.173C119.41 403.485 119.736 402.789 119.773 402.03C119.772 401.269 119.409 400.516 118.776 400.249C118.686 400.213 118.565 400.222 118.401 400.309C118.237 400.396 118.058 400.548 117.881 400.744C117.527 401.135 117.214 401.661 117.068 402.059C117.028 402.18 117.002 402.264 117.002 402.342H116.617C116.617 402.195 116.664 402.054 116.7 401.946C116.702 401.942 116.703 401.939 116.704 401.935L116.706 401.93L116.706 401.93C116.869 401.482 117.209 400.912 117.596 400.486C117.789 400.273 118.002 400.086 118.22 399.969Z" fill="black"/>
<path fill-rule="evenodd" clip-rule="evenodd" d="M129.247 395.761C129.519 395.761 129.896 395.798 130.146 396.048L130.294 396.196L130.134 396.331C129.081 397.222 127.636 397.415 126.333 397.53C124.791 397.684 123.204 397.801 121.653 397.762L121.662 397.377C123.19 397.415 124.759 397.301 126.296 397.147L126.298 397.147L126.298 397.147C127.516 397.039 128.744 396.867 129.673 396.202C129.551 396.161 129.401 396.146 129.24 396.146H129.233L129.225 396.145C126.703 395.954 123.676 396.145 121.103 396.452L121.092 396.453H121.08C121.009 396.453 120.957 396.454 120.872 396.482L120.75 396.117C120.889 396.071 120.988 396.069 121.069 396.069C123.649 395.761 126.695 395.568 129.247 395.761Z" fill="black"/>
<path fill-rule="evenodd" clip-rule="evenodd" d="M128.14 391.487C128.542 391.45 129.017 391.407 129.416 391.628L129.494 391.672L129.511 391.759C129.549 391.95 129.447 392.099 129.348 392.192C129.249 392.285 129.121 392.353 129.013 392.397C126.424 393.556 123.261 394.559 120.485 395.253C120.416 395.276 120.348 395.287 120.295 395.296L120.29 395.296C120.23 395.306 120.187 395.314 120.146 395.328L120.025 394.962C120.097 394.938 120.167 394.927 120.222 394.918L120.227 394.917C120.287 394.907 120.33 394.899 120.371 394.886L120.378 394.883L120.385 394.881C123.149 394.19 126.294 393.193 128.859 392.044L128.863 392.043L128.866 392.041C128.95 392.008 129.032 391.961 129.085 391.911C129.088 391.909 129.09 391.906 129.092 391.904C128.833 391.815 128.52 391.839 128.15 391.872C126.903 392.024 125.506 392.451 124.096 392.964C123.269 393.265 122.449 393.591 121.655 393.907C121.09 394.132 120.537 394.352 120.003 394.554C119.724 394.673 119.446 394.752 119.181 394.828L119.176 394.83L119.07 394.46C119.341 394.382 119.599 394.308 119.856 394.198L119.859 394.197L119.863 394.195C120.383 393.998 120.934 393.779 121.5 393.554C122.303 393.235 123.137 392.903 123.965 392.602C125.383 392.086 126.814 391.647 128.106 391.49L128.109 391.49L128.112 391.489C128.121 391.489 128.13 391.488 128.14 391.487Z" fill="black"/>
<path fill-rule="evenodd" clip-rule="evenodd" d="M125.716 388.659C125.787 388.773 125.782 388.887 125.76 388.975C125.75 389.017 125.735 389.056 125.723 389.086C125.72 389.093 125.717 389.1 125.715 389.107C125.706 389.129 125.699 389.145 125.693 389.163L125.687 389.182L125.676 389.2C124.68 390.874 122.855 391.818 121.168 392.624L121.167 392.624L119.199 393.55L119.193 393.553C119.102 393.589 119 393.635 118.894 393.684L118.891 393.685C118.787 393.732 118.678 393.782 118.577 393.822L118.435 393.465C118.526 393.428 118.627 393.382 118.734 393.333L118.737 393.332C118.839 393.286 118.946 393.237 119.045 393.197L121.002 392.277C121.002 392.276 121.002 392.276 121.002 392.276C122.696 391.468 124.405 390.569 125.336 389.02C125.344 388.998 125.352 388.976 125.359 388.959C125.361 388.953 125.363 388.949 125.365 388.944C125.376 388.916 125.383 388.897 125.387 388.882C125.389 388.871 125.39 388.865 125.39 388.863C125.39 388.863 125.39 388.862 125.389 388.862L125.383 388.852L125.379 388.845C125.375 388.844 125.366 388.842 125.352 388.842C125.333 388.842 125.31 388.845 125.287 388.853C125.263 388.86 125.244 388.869 125.233 388.877L125.217 388.887L125.199 388.895C122.787 389.89 120.451 391.154 118.268 392.648L118.266 392.649C118.212 392.685 118.147 392.731 118.079 392.78L118.077 392.781C118.011 392.828 117.942 392.878 117.881 392.918L117.668 392.598C117.723 392.562 117.787 392.515 117.855 392.467L117.857 392.466C117.923 392.419 117.992 392.369 118.052 392.329C120.252 390.824 122.606 389.55 125.037 388.545C125.124 388.493 125.239 388.457 125.352 388.457C125.473 388.457 125.631 388.501 125.716 388.659Z" fill="black"/>
<path d="M151.435 226.375V217.736H127.14L145.046 194.971C148.646 190.382 150.265 185.523 150.265 180.574C150.265 169.327 142.617 162.668 131.999 162.668C121.741 162.668 114.363 169.866 113.643 179.224L122.641 180.934C123.361 175.175 126.51 171.306 131.999 171.306C137.758 171.306 140.637 175.175 140.637 180.934C140.637 184.623 139.738 187.503 135.598 192.632L112.383 222.415V226.375H151.435Z" fill="black"/>
<path d="M173.825 176.885V226.375H183.363V163.388H179.494L162.037 173.826V183.903L173.825 176.885Z" fill="black"/>
<path d="M198.973 220.166C198.973 224.035 201.943 226.824 205.632 226.824C209.321 226.824 212.29 224.035 212.29 220.166C212.29 216.297 209.321 213.507 205.632 213.507C201.943 213.507 198.973 216.297 198.973 220.166Z" fill="black"/>
<path d="M112.023 284.944C112.023 304.74 119.852 317.157 134.699 317.157C149.546 317.157 157.374 304.74 157.374 284.944C157.374 265.148 149.546 252.731 134.699 252.731C119.852 252.731 112.023 265.148 112.023 284.944ZM121.561 284.944C121.561 270.187 125.791 261.369 134.699 261.369C143.607 261.369 147.836 270.187 147.836 284.944C147.836 299.701 143.607 308.519 134.699 308.519C125.791 308.519 121.561 299.701 121.561 284.944Z" fill="black"/>
<path d="M192.793 303.84V316.437H202.331V303.84H209.71V295.202H202.331V253.451H192.253L165.619 299.521V303.84H192.793ZM192.793 267.848V295.202H177.497L192.793 267.848Z" fill="black"/>
<path d="M222.611 310.229C222.611 314.098 225.58 316.887 229.269 316.887C232.959 316.887 235.928 314.098 235.928 310.229C235.928 306.359 232.959 303.57 229.269 303.57C225.58 303.57 222.611 306.359 222.611 310.229Z" fill="black"/>
<path d="M66.7383 65.5312C57.9245 65.5312 50.7656 72.921 50.7656 82.0428C50.7656 91.1645 57.9245 98.5543 66.7383 98.5543C75.5521 98.5543 82.711 91.1645 82.711 82.0428C82.6725 72.921 75.5521 65.5312 66.7383 65.5312ZM61.1575 94.2436H58.8097V74.1911H56.7313V71.8818H61.119V94.2436H61.1575ZM70.2407 94.7054C66.8538 94.7054 63.9671 92.4346 62.9664 89.2401L65.1218 88.4703C65.8146 90.7411 67.816 92.3961 70.2023 92.3961C73.2044 92.3961 75.5521 89.8944 75.5521 86.7768C75.5521 83.6978 73.1659 81.1575 70.2023 81.1575C68.8167 81.1575 68.1239 81.35 67.4311 81.6579L66.2764 79.5025L71.7803 74.1911H64.8139V71.8818H75.6291V73.7293L69.7404 79.1946L70.3177 79.1176C74.5514 79.1176 77.8999 82.3892 77.8999 86.7768C77.9384 91.1645 74.4745 94.7054 70.2407 94.7054Z" fill="#0E0F0F"/>
<path d="M262.258 424.242C271.072 424.242 278.231 416.852 278.231 407.73C278.231 398.609 271.072 391.219 262.258 391.219C253.444 391.219 246.285 398.609 246.285 407.73C246.324 416.814 253.444 424.242 262.258 424.242ZM267.839 395.529H270.186V415.582H272.265V417.891H267.877V395.529H267.839ZM258.717 395.068C262.104 395.068 264.991 397.338 265.991 400.533L263.836 401.303C263.143 399.032 261.142 397.377 258.755 397.377C255.753 397.377 253.406 399.879 253.406 402.996C253.406 406.075 255.792 408.616 258.755 408.616C260.141 408.616 260.834 408.423 261.527 408.115L262.681 410.271L257.177 415.582H264.144V417.891H253.329V416.044L259.217 410.578L258.64 410.655C254.406 410.655 251.058 407.384 251.058 402.996C251.058 398.609 254.522 395.068 258.717 395.068Z" fill="#0E0F0F"/>
</svg>
