<svg width="335" height="497" viewBox="0 0 335 497" fill="none" xmlns="http://www.w3.org/2000/svg">
<g filter="url(#filter0_d)">
<path d="M330.416 60.0625C330.416 26.9254 303.553 0.0625 270.416 0.0625H64.8047C31.6676 0.0625 4.80469 26.9254 4.80469 60.0624L4.80469 428.48C4.80469 461.617 31.6677 488.48 64.8048 488.48H270.416C303.553 488.48 330.416 461.617 330.416 428.48L330.416 60.0625Z" fill="white"/>
<path d="M246.395 444.256H88.8232C58.6868 444.256 34.2852 419.816 34.2852 389.718L34.2852 98.8232C34.2852 68.6868 58.7253 44.2852 88.8232 44.2852H246.395C276.531 44.2852 300.933 68.7253 300.933 98.8232L300.933 389.718C300.933 419.855 276.531 444.256 246.395 444.256Z" fill="#D34D4B"/>
<path d="M227.122 84.7368C226.429 84.5828 225.698 84.4674 225.005 84.5829C223.966 84.7753 223.081 85.4681 222.465 86.3533C222.042 87.0076 221.734 87.7004 221.464 88.4317C222.503 89.6248 223.735 90.818 225.313 90.818C226.699 90.818 227.892 89.8558 228.585 88.6626C229.277 87.4695 229.508 86.0839 229.739 84.7368C228.931 85.1217 228.046 84.9292 227.122 84.7368ZM213.882 97.3995C213.69 97.2455 213.536 97.0916 213.343 96.9376C213.189 96.7837 213.035 96.6682 212.92 96.5143C212.612 96.2063 212.343 95.8599 212.073 95.5135C211.881 95.2826 211.727 95.0517 211.573 94.7823C211.342 94.3974 211.111 94.0125 210.918 93.5891C210.726 93.1658 210.534 92.7039 210.38 92.242C209.725 90.2406 209.571 88.0468 210.11 86.0069C210.688 83.6591 212.035 81.4653 212.073 79.079C212.15 74.4989 207.57 70.0342 209.61 65.9545C213.151 67.7634 214.767 72.1896 218.347 73.9601C221.002 75.3071 224.005 74.8838 226.853 73.7676C228.893 70.1112 231.163 66.6088 233.704 63.2603C234.127 62.683 234.897 62.0671 235.436 62.529C235.282 66.1469 235.782 69.8033 236.898 73.2673C237.668 74.2295 238.399 75.1917 239.169 76.1154C247.867 87.1231 256.604 98.1693 266.188 108.446C269.96 112.487 274.116 116.99 274.309 122.532C274.347 124.303 273.501 126.304 274.886 127.382C275.54 127.882 278.235 127.459 278.927 127.882C280.313 128.729 280.428 131.038 280.698 132.616C281.314 136.504 280.852 140.545 281.198 144.471C281.583 148.704 281.776 153.092 280.428 157.095C279.12 160.982 276.118 164.523 272.153 165.447C271.807 175.108 270.691 184.922 266.996 193.89C265.995 196.276 264.802 198.624 263.032 200.51C261.223 202.434 258.875 203.781 256.527 205.051C251.947 207.592 246.597 210.055 241.671 208.208C238.091 206.86 235.705 203.55 233.55 200.394C232.895 199.432 232.241 198.431 232.049 197.315C231.895 196.161 232.357 194.852 233.396 194.429C235.089 193.736 236.706 195.545 237.783 197.046C239.438 199.317 241.594 201.472 244.365 202.088C247.559 202.819 250.908 201.318 253.525 199.394C258.336 195.814 261.839 190.618 263.763 184.922C265.649 179.264 266.034 173.145 265.341 167.217C265.149 167.487 264.725 167.602 264.34 167.679C259.26 168.411 254.064 168.488 248.983 167.795C248.137 167.679 247.213 167.525 246.482 167.063C245.25 166.294 244.711 164.831 244.095 163.523C241.902 158.904 237.976 155.401 234.55 151.591C231.125 147.781 228.046 143.162 228.2 138.043C228.354 132.924 233.203 127.805 238.13 129.152C238.014 119.261 237.706 108.754 232.395 100.402C231.895 99.6318 231.317 98.8236 230.509 98.4002C228.623 97.3995 226.391 98.6696 224.389 99.3239C220.925 100.556 216.769 99.7473 213.882 97.3995ZM215.152 87.8159C214.729 87.2385 214.267 86.7382 213.767 86.1994C213.497 85.9299 213.228 85.6605 212.881 85.4681C212.766 85.4296 212.65 85.3911 212.535 85.3526C211.688 85.1987 210.995 85.8145 210.495 86.5842C210.264 88.0083 210.918 89.5863 212.112 90.3946C213.343 91.2413 215.114 91.2798 216.384 90.4716C216.499 90.3946 216.615 90.3176 216.653 90.1637C216.692 90.0482 216.615 89.8942 216.538 89.7788C216.114 89.163 215.653 88.4702 215.152 87.8159Z" fill="black"/>
<path d="M229.775 84.8141C229.544 86.1612 229.313 87.5468 228.62 88.7399C227.928 89.9331 226.696 90.8953 225.349 90.8953C223.771 90.8953 222.539 89.7021 221.5 88.509C221.769 87.7777 222.077 87.0464 222.501 86.4306C223.117 85.5454 223.963 84.8141 225.041 84.6602C224.541 85.6993 224.772 87.1234 225.002 88.2396C225.041 88.3935 225.079 88.5475 225.195 88.6245C225.349 88.7399 225.541 88.7399 225.734 88.6629C226.388 88.432 226.85 87.8162 227.042 87.1234C227.196 86.5076 227.235 85.5069 227.196 84.8141C228.043 84.9296 228.928 85.122 229.775 84.8141Z" fill="#D5BF4B"/>
<path d="M227.121 84.7378C227.16 85.4306 227.16 86.4313 226.967 87.0471C226.775 87.7399 226.313 88.3557 225.659 88.5867C225.466 88.6251 225.274 88.6636 225.12 88.5482C225.004 88.4712 224.966 88.3172 224.928 88.1633C224.697 87.0471 224.466 85.623 224.966 84.5839C225.697 84.4684 226.429 84.6223 227.121 84.7378Z" fill="black"/>
<path d="M216.538 89.8937C216.615 90.0092 216.653 90.1247 216.653 90.2786C216.615 90.3941 216.499 90.5095 216.384 90.5865C215.114 91.3948 213.343 91.3563 212.112 90.5095C210.919 89.6628 210.264 88.1233 210.495 86.6992C210.996 85.9294 211.688 85.2751 212.535 85.4676C212.651 85.506 212.766 85.5445 212.881 85.583L212.843 85.66C212.458 86.3528 212.112 87.0841 212.073 87.8923C212.073 88.7006 212.458 89.5473 213.189 89.8552C213.844 90.1247 214.844 88.7776 215.152 87.9308C215.653 88.4697 216.114 89.1624 216.538 89.8937Z" fill="#D5BF4B"/>
<path d="M213.768 86.2391C214.268 86.7394 214.73 87.2783 215.153 87.8556C214.845 88.7408 213.845 90.0494 213.19 89.78C212.459 89.4721 212.074 88.6254 212.074 87.8171C212.074 87.0089 212.421 86.2776 212.844 85.5848L212.882 85.5078C213.229 85.6618 213.537 85.9697 213.768 86.2391Z" fill="black"/>
<path d="M213.38 96.939C213.534 97.0929 213.726 97.2469 213.919 97.4009C211.725 98.9019 209.416 100.172 206.952 101.173C206.798 101.25 206.606 101.288 206.529 101.134C206.452 101.019 206.529 100.903 206.568 100.788C207.491 99.1713 209.3 98.2476 210.994 97.4393C211.648 97.1314 212.302 96.8235 212.995 96.5156C213.072 96.6696 213.226 96.8235 213.38 96.939Z" fill="black"/>
<path d="M211.609 94.8203C211.763 95.0512 211.917 95.3207 212.11 95.5516C209.569 96.5138 206.413 97.9379 203.873 98.2458C203.488 98.2843 203.026 98.3228 202.68 98.1303C202.642 97.9379 202.872 97.7839 203.065 97.7069C205.682 96.5138 208.8 95.5131 211.609 94.8203Z" fill="black"/>
<path d="M210.418 92.2812C210.572 92.7431 210.764 93.1665 210.957 93.6283C208.378 93.9363 205.337 94.1287 202.797 93.9362C202.528 93.9362 202.22 93.8978 202.027 93.7053C203.028 92.8586 204.414 92.6661 205.722 92.5507C207.262 92.3967 208.84 92.2812 210.418 92.2812Z" fill="black"/>
<path fill-rule="evenodd" clip-rule="evenodd" d="M234.651 62.7145C234.372 62.865 234.094 63.1398 233.892 63.4142L233.89 63.4168C231.356 66.7577 229.09 70.2525 227.054 73.9014C227.054 73.9014 227.054 73.9013 227.054 73.9014L226.477 74.9404L226.141 74.7535L226.718 73.7143C228.762 70.0509 231.037 66.541 233.583 63.1853C233.805 62.8828 234.123 62.5617 234.469 62.3756C234.816 62.1886 235.239 62.1184 235.594 62.423L235.665 62.4839L235.661 62.5773C235.508 66.1719 236.005 69.8052 237.115 73.2475C237.535 74.5095 238.032 75.7331 238.606 76.9185L238.259 77.0861C237.678 75.8854 237.175 74.6461 236.749 73.3683L236.748 73.3664C235.636 69.9138 235.131 66.2711 235.273 62.6638C235.102 62.562 234.894 62.5836 234.651 62.7145Z" fill="black"/>
<path fill-rule="evenodd" clip-rule="evenodd" d="M234.738 70.7725L234.738 70.7724L235.041 70.5352C235.734 71.4207 236.426 72.3043 237.117 73.1491L237.118 73.1507L237.118 73.1508C237.397 73.4992 237.67 73.8459 237.94 74.1901C238.421 74.8019 238.895 75.4057 239.387 75.9959L239.39 75.9998L239.39 75.9998C248.089 87.0084 256.821 98.0484 266.399 108.318C268.283 110.337 270.276 112.484 271.821 114.824C273.367 117.165 274.473 119.711 274.571 122.529L274.571 122.532C274.581 122.989 274.534 123.458 274.482 123.911C274.474 123.981 274.466 124.05 274.457 124.119C274.412 124.502 274.369 124.873 274.355 125.228C274.322 126.064 274.456 126.752 275.073 127.233C275.127 127.274 275.214 127.314 275.339 127.348C275.464 127.381 275.614 127.406 275.786 127.424C276.131 127.46 276.542 127.467 276.965 127.472C277.001 127.473 277.037 127.473 277.074 127.473C277.457 127.478 277.844 127.482 278.181 127.508C278.365 127.522 278.539 127.543 278.692 127.575C278.842 127.607 278.984 127.652 279.098 127.722C279.856 128.185 280.248 129.036 280.487 129.929C280.656 130.558 280.755 131.239 280.845 131.856C280.883 132.114 280.919 132.361 280.958 132.588L280.958 132.59C281.269 134.55 281.307 136.545 281.312 138.532C281.312 138.817 281.312 139.102 281.312 139.386C281.312 141.09 281.312 142.784 281.46 144.457C281.845 148.691 282.042 153.115 280.681 157.16L280.499 157.099L280.681 157.16C279.359 161.088 276.317 164.694 272.269 165.638C272.268 165.638 272.268 165.638 272.267 165.638L272.26 165.64C272.113 165.677 271.94 165.72 271.762 165.72V165.335C271.888 165.335 272.018 165.304 272.177 165.264L272.18 165.263C276.059 164.359 279.021 160.883 280.316 157.037C281.649 153.076 281.461 148.725 281.077 144.492L281.077 144.491C280.927 142.8 280.927 141.087 280.927 139.383C280.927 139.1 280.927 138.816 280.927 138.533C280.922 136.547 280.883 134.579 280.578 132.651C280.536 132.406 280.499 132.149 280.46 131.885C280.372 131.278 280.278 130.635 280.115 130.029C279.883 129.161 279.525 128.434 278.897 128.05C278.837 128.014 278.744 127.98 278.612 127.952C278.482 127.924 278.327 127.905 278.151 127.891C277.828 127.867 277.453 127.863 277.067 127.858C277.031 127.858 276.996 127.858 276.96 127.857C276.541 127.852 276.112 127.845 275.746 127.807C275.563 127.788 275.39 127.76 275.239 127.719C275.09 127.679 274.949 127.623 274.839 127.538L274.838 127.538C274.071 126.941 273.936 126.09 273.97 125.213C273.985 124.841 274.03 124.454 274.076 124.07C274.084 124.003 274.092 123.935 274.099 123.867C274.152 123.414 274.196 122.969 274.187 122.542C274.092 119.819 273.023 117.342 271.5 115.036C269.976 112.728 268.005 110.603 266.117 108.581L266.117 108.581C256.528 98.2981 247.787 87.2464 239.09 76.2404C238.595 75.6471 238.115 75.0357 237.632 74.421C237.363 74.0782 237.092 73.7343 236.819 73.392C236.125 72.5437 235.431 71.6571 234.738 70.7725Z" fill="black"/>
<path fill-rule="evenodd" clip-rule="evenodd" d="M209.517 65.7344L209.69 65.8227C211.495 66.745 212.815 68.3196 214.105 69.858L214.118 69.8732C215.422 71.4282 216.697 72.9445 218.426 73.8282C221.012 75.1394 223.989 74.7731 226.772 73.6292L226.774 73.6282C228.219 73.0578 229.592 72.2575 230.857 71.4148L231.07 71.735C229.794 72.5854 228.397 73.4015 226.917 73.9857C224.082 75.1507 220.978 75.5538 218.252 74.1713L218.252 74.171C216.446 73.2487 215.126 71.6741 213.836 70.1357L213.823 70.1205C212.564 68.6184 211.331 67.1524 209.69 66.2579C208.832 68.161 209.412 70.1632 210.262 72.2975C210.402 72.649 210.55 73.0047 210.698 73.3633C211.01 74.1154 211.328 74.8805 211.592 75.6466C211.984 76.7826 212.268 77.944 212.258 79.1202L212.258 79.1216C212.238 80.3675 211.882 81.5375 211.467 82.6773C211.361 82.9692 211.251 83.2583 211.141 83.5462C210.82 84.3916 210.502 85.2268 210.29 86.0923M209.517 65.7344L209.43 65.908L209.517 65.7344ZM209.43 65.908C208.368 68.0317 209.03 70.2434 209.905 72.4399L209.43 65.908ZM209.905 72.4399C210.049 72.8023 210.199 73.1638 210.349 73.5252L209.905 72.4399ZM210.349 73.5252C210.658 74.271 210.968 75.0169 211.228 75.7721L210.349 73.5252ZM211.228 75.7721C211.613 76.8886 211.882 78.0026 211.873 79.1163L211.228 75.7721ZM211.873 79.1163C211.854 80.2949 211.517 81.4147 211.105 82.5455C211.003 82.8261 210.896 83.1081 210.788 83.3919C210.464 84.2431 210.135 85.11 209.916 86.0006C209.406 88.0774 209.524 90.3079 210.189 92.3414L210.19 92.3425C210.311 92.7063 210.456 93.0486 210.603 93.3953C210.647 93.4972 210.69 93.5994 210.733 93.7027L210.734 93.7056L210.736 93.7084C210.933 94.1417 211.168 94.5344 211.398 94.9166L211.403 94.9248L211.405 94.9286C211.444 94.9866 211.484 95.05 211.526 95.1164C211.641 95.2961 211.769 95.498 211.916 95.6738L211.917 95.6758C212.184 96.0191 212.46 96.3735 212.776 96.6899L213.2 97.1133C213.361 97.2748 213.56 97.4342 213.749 97.5852L213.753 97.5884C213.753 97.5885 213.753 97.5887 213.754 97.5888C216.69 99.9767 220.876 100.799 224.518 99.6236C224.931 99.4912 225.35 99.3353 225.767 99.1802C225.871 99.1418 225.974 99.1033 226.077 99.0653C226.598 98.8731 227.115 98.6908 227.625 98.5587C228.645 98.2943 229.609 98.2384 230.49 98.6877C231.249 99.0855 231.803 99.8157 232.301 100.619L232.302 100.622C237.573 108.85 237.886 119.194 238.004 129.021C235.543 128.451 233.133 129.424 231.312 131.15C229.431 132.933 228.155 135.539 228.077 138.154C227.92 143.352 231.085 148.02 234.476 151.836L234.477 151.836C235.236 152.681 236.02 153.511 236.802 154.339C236.904 154.446 237.006 154.554 237.108 154.662C237.992 155.598 238.87 156.535 239.709 157.497C241.388 159.42 242.905 161.435 243.991 163.721C244.067 163.883 244.143 164.049 244.22 164.217C244.447 164.717 244.683 165.233 244.961 165.709C245.335 166.348 245.797 166.936 246.449 167.343C247.22 167.83 248.144 167.987 249.028 168.102C254.124 168.758 259.337 168.72 264.433 167.987C264.635 167.966 264.855 167.925 265.055 167.844C265.256 167.763 265.449 167.636 265.574 167.436L265.578 167.428L265.711 167.163L265.716 167.135C265.747 166.946 265.673 166.789 265.562 166.681C265.456 166.578 265.315 166.515 265.181 166.49C265.052 166.466 264.894 166.472 264.769 166.55C264.702 166.592 264.645 166.655 264.615 166.739C264.585 166.822 264.587 166.91 264.608 166.996L264.981 166.902C264.978 166.889 264.977 166.88 264.977 166.874C264.994 166.866 265.039 166.856 265.111 166.869C265.184 166.883 265.252 166.916 265.294 166.957C265.324 166.987 265.338 167.016 265.338 167.049L265.243 167.239C265.175 167.344 265.062 167.426 264.91 167.488C264.755 167.55 264.573 167.586 264.391 167.604L264.386 167.605L264.382 167.605C259.319 168.334 254.141 168.372 249.077 167.72C248.192 167.605 247.346 167.454 246.654 167.017L246.653 167.017C246.074 166.655 245.651 166.126 245.293 165.514C245.026 165.057 244.802 164.567 244.576 164.072C244.498 163.901 244.42 163.728 244.339 163.557L244.339 163.557C243.231 161.225 241.688 159.179 239.999 157.244C239.155 156.276 238.272 155.334 237.388 154.398C237.286 154.29 237.184 154.182 237.082 154.074C236.299 153.246 235.519 152.42 234.763 151.579C231.381 147.774 228.31 143.205 228.462 138.166C228.537 135.662 229.763 133.149 231.577 131.429C233.39 129.71 235.768 128.804 238.148 129.455L238.395 129.522L238.392 129.267C238.276 119.386 238.011 108.821 232.627 100.416C232.124 99.6035 231.525 98.7951 230.668 98.3463L230.666 98.3453C229.662 97.833 228.586 97.9118 227.528 98.1861C226.999 98.3234 226.466 98.5115 225.944 98.7042C225.838 98.7431 225.734 98.7821 225.629 98.8209C225.213 98.9757 224.804 99.1278 224.4 99.2572C220.884 100.392 216.833 99.5971 213.996 97.2898L213.995 97.2888C213.8 97.1331 213.617 96.9861 213.472 96.8411L213.048 96.4178C212.75 96.1197 212.488 95.783 212.217 95.435L212.215 95.4324L212.213 95.4299C212.083 95.2737 211.975 95.1038 211.865 94.9304C211.82 94.8602 211.775 94.7895 211.728 94.7189C211.498 94.335 211.274 93.9612 211.087 93.5518C211.042 93.4439 210.998 93.3389 210.954 93.2358C210.808 92.8922 210.671 92.5689 210.555 92.2214C209.911 90.2523 209.798 88.0951 210.29 86.0923" fill="black"/>
<path fill-rule="evenodd" clip-rule="evenodd" d="M271.336 166.527H271.72V166.95H271.336V166.527Z" fill="black"/>
<path fill-rule="evenodd" clip-rule="evenodd" d="M266.803 193.895C270.485 184.959 271.6 175.172 271.946 165.48L272.331 165.494C271.984 175.201 270.867 185.043 267.159 194.042L267.158 194.043C266.155 196.436 264.951 198.809 263.157 200.72C261.324 202.67 258.951 204.03 256.604 205.299C254.312 206.571 251.814 207.831 249.265 208.539C246.715 209.248 244.102 209.409 241.588 208.467C237.943 207.095 235.526 203.73 233.376 200.582C232.725 199.624 232.044 198.59 231.844 197.427L231.843 197.423L231.843 197.42C231.683 196.219 232.155 194.799 233.308 194.329C234.243 193.947 235.143 194.266 235.92 194.839C236.695 195.41 237.383 196.258 237.924 197.012C239.572 199.272 241.691 201.379 244.392 201.979L244.393 201.979C247.504 202.691 250.793 201.231 253.396 199.318C258.171 195.765 261.652 190.604 263.565 184.94C265.441 179.314 265.825 173.223 265.135 167.319L265.134 167.308V167.219H265.518V167.285C266.212 173.231 265.826 179.376 263.931 185.062L263.93 185.063C261.995 190.791 258.471 196.021 253.625 199.627L253.624 199.628C250.992 201.563 247.585 203.105 244.307 202.354C241.466 201.723 239.275 199.519 237.613 197.238L237.612 197.237C237.076 196.49 236.417 195.683 235.691 195.148C234.967 194.614 234.212 194.376 233.454 194.686C232.529 195.062 232.077 196.257 232.224 197.365C232.409 198.433 233.037 199.399 233.694 200.365C235.854 203.529 238.21 206.784 241.723 208.106C244.136 209.011 246.661 208.864 249.162 208.168C251.665 207.472 254.131 206.231 256.419 204.962L256.421 204.961C258.769 203.69 261.091 202.356 262.876 200.457C264.623 198.597 265.805 196.274 266.803 193.895Z" fill="black"/>
<path fill-rule="evenodd" clip-rule="evenodd" d="M227.106 84.9249C226.417 84.7718 225.716 84.6639 225.062 84.7729L225.058 84.7736L225.058 84.7736C224.054 84.917 223.249 85.6008 222.649 86.463C222.26 87.0279 221.969 87.6985 221.711 88.3876C222.746 89.5698 223.914 90.6642 225.377 90.6642C226.633 90.6642 227.81 89.7613 228.482 88.6047C229.102 87.5372 229.343 86.3069 229.559 85.06C228.74 85.278 227.88 85.0932 227.107 84.9251L227.106 84.9249ZM221.272 88.4864C221.242 88.5792 221.209 88.6734 221.174 88.7713L221.173 88.7742C221.125 88.907 221.075 89.0466 221.035 89.1873L221.405 89.293C221.442 89.1653 221.488 89.0365 221.536 88.9008L221.537 88.8979C221.548 88.8683 221.558 88.8383 221.569 88.808C222.571 89.9295 223.801 91.0491 225.377 91.0491C226.815 91.0491 228.101 90.0276 228.815 88.798C229.516 87.5902 229.755 86.1957 229.981 84.8759C229.985 84.8533 229.989 84.8306 229.993 84.808L230.051 84.466L229.73 84.5974C228.948 84.9174 228.085 84.7439 227.189 84.5491C226.493 84.3944 225.732 84.2716 225.001 84.3929C223.851 84.5581 222.964 85.3362 222.332 86.2436L222.332 86.2436L222.332 86.2445C221.938 86.8174 221.644 87.4824 221.391 88.1452L221.161 88.3755L221.272 88.4864Z" fill="black"/>
<path fill-rule="evenodd" clip-rule="evenodd" d="M224.513 86.3517C224.488 85.7109 224.556 85.0594 224.825 84.5L225.172 84.667C224.941 85.1467 224.874 85.7269 224.897 86.3369C224.92 86.9442 225.033 87.5649 225.147 88.12C225.167 88.1986 225.183 88.2587 225.204 88.3084C225.225 88.3569 225.244 88.3776 225.259 88.3877L225.263 88.3906L225.268 88.3938C225.351 88.4561 225.466 88.4689 225.62 88.4076L225.623 88.4061L225.627 88.4048C226.205 88.2008 226.632 87.6476 226.814 86.9976C226.96 86.4084 226.999 85.4313 226.962 84.7481L226.961 84.7428V84.5452L227.346 84.545V84.732C227.385 85.4333 227.347 86.4524 227.186 87.0934L227.185 87.0983C226.981 87.8316 226.487 88.5079 225.759 88.7665C225.529 88.8572 225.264 88.8694 225.041 88.7048C224.943 88.6381 224.887 88.5449 224.85 88.46C224.815 88.3783 224.793 88.2885 224.775 88.2161L224.772 88.2057L224.771 88.2019C224.655 87.6419 224.537 86.9939 224.513 86.3517Z" fill="black"/>
<path fill-rule="evenodd" clip-rule="evenodd" d="M210.325 86.5145C210.323 86.5167 210.322 86.5189 210.321 86.5212L210.319 86.5241C210.12 86.8417 209.96 87.1611 209.84 87.4822L210.2 87.6174C210.216 87.5758 210.232 87.5342 210.249 87.4925C210.316 88.7304 210.962 89.9429 211.987 90.6703L211.989 90.672C213.284 91.5622 215.138 91.6026 216.474 90.7527L216.477 90.7505C216.607 90.6642 216.764 90.5186 216.823 90.3433L216.832 90.3137V90.2825C216.832 90.0908 216.783 89.9392 216.687 89.7941C216.262 89.0987 215.797 88.4017 215.293 87.7423C214.866 87.1595 214.399 86.6153 213.894 86.1096C213.623 85.8008 213.332 85.5054 212.946 85.334L212.938 85.3303L212.574 85.2089L212.564 85.2068C212.076 85.0959 211.637 85.2325 211.263 85.491C210.909 85.7351 210.606 86.0913 210.356 86.467L210.348 86.463C210.339 86.4807 210.332 86.4978 210.325 86.5145ZM210.675 86.6831C210.674 86.6863 210.674 86.6917 210.674 86.703V86.7185L210.672 86.7338C210.453 88.0835 211.075 89.5503 212.209 90.3556C213.376 91.1577 215.061 91.1943 216.266 90.4291C216.352 90.371 216.418 90.3002 216.447 90.2463C216.441 90.1506 216.415 90.08 216.364 90.0043L216.362 90.0012L216.36 89.9979C215.94 89.3094 215.481 88.6224 214.986 87.9746L214.984 87.9715C214.566 87.402 214.111 86.8706 213.617 86.3773L213.613 86.3727L213.609 86.3679C213.344 86.0654 213.1 85.8258 212.798 85.6894L212.47 85.5801C212.115 85.5021 211.787 85.5966 211.481 85.8078C211.182 86.0143 210.911 86.3283 210.675 86.6831Z" fill="black"/>
<path fill-rule="evenodd" clip-rule="evenodd" d="M211.867 87.8088C211.908 86.9531 212.274 86.1884 212.661 85.4922L212.998 85.6791C212.615 86.3671 212.289 87.0636 212.252 87.8225C212.254 88.583 212.617 89.3361 213.25 89.6032C213.339 89.6396 213.461 89.6306 213.625 89.5431C213.788 89.4559 213.967 89.3039 214.145 89.108C214.499 88.7172 214.812 88.1913 214.957 87.7931C214.997 87.6725 215.023 87.5881 215.023 87.5101H215.408C215.408 87.6572 215.361 87.7984 215.325 87.906C215.324 87.9098 215.323 87.9136 215.321 87.9173L215.32 87.9223L215.32 87.9222C215.157 88.3705 214.816 88.9402 214.43 89.3664C214.237 89.5796 214.023 89.7667 213.806 89.8827C213.589 89.9983 213.34 90.0568 213.103 89.9588L213.101 89.9583L213.101 89.9582C212.273 89.6097 211.867 88.6722 211.867 87.818V87.8134L211.867 87.8088Z" fill="black"/>
<path fill-rule="evenodd" clip-rule="evenodd" d="M205.695 92.3603C207.237 92.2062 208.785 92.0898 210.375 92.1286L210.366 92.5134C208.8 92.4752 207.269 92.5897 205.732 92.7434L205.73 92.7436L205.73 92.7436C204.512 92.8511 203.284 93.0235 202.355 93.6882C202.477 93.7297 202.627 93.7451 202.788 93.7451H202.795L202.803 93.7456C205.325 93.9367 208.39 93.7457 210.924 93.4386L210.936 93.4372H210.948C211.019 93.4372 211.071 93.437 211.156 93.4085L211.278 93.7737C211.139 93.8199 211.04 93.822 210.959 93.822C208.417 94.1296 205.333 94.3225 202.781 94.1299C202.509 94.1293 202.132 94.0927 201.882 93.8427L201.734 93.6948L201.894 93.5597C202.947 92.669 204.391 92.4754 205.695 92.3603Z" fill="black"/>
<path fill-rule="evenodd" clip-rule="evenodd" d="M211.748 94.5937C211.808 94.5838 211.851 94.5762 211.892 94.5625L212.014 94.9276C211.942 94.9517 211.871 94.9634 211.816 94.9726L211.811 94.9734C211.752 94.9833 211.709 94.9909 211.668 95.0046L211.66 95.007L211.653 95.0089C208.851 95.6997 205.745 96.6971 203.14 97.8463L203.137 97.8476L203.134 97.8489C203.05 97.8822 202.968 97.929 202.915 97.979C202.912 97.9813 202.91 97.9837 202.908 97.9859C203.167 98.0749 203.48 98.0512 203.85 98.0176C205.097 97.8661 206.504 97.4395 207.923 96.9263C208.777 96.6177 209.625 96.2821 210.442 95.9582C210.989 95.7418 211.522 95.5307 212.035 95.3363C212.314 95.217 212.592 95.1376 212.857 95.0618L212.862 95.0604L212.968 95.4305C212.697 95.5079 212.439 95.5818 212.183 95.6917L212.179 95.6933L212.175 95.6948C211.673 95.8849 211.143 96.0949 210.596 96.3115C209.771 96.6379 208.91 96.979 208.054 97.2883C206.627 97.8043 205.186 98.2434 203.894 98.4001L203.891 98.4004L203.888 98.4007C203.879 98.4015 203.87 98.4024 203.86 98.4032C203.458 98.4399 202.983 98.4833 202.584 98.2618L202.506 98.2186L202.489 98.1313C202.451 97.9406 202.553 97.7908 202.652 97.6982C202.751 97.6048 202.879 97.5365 202.988 97.4928C205.614 96.3342 208.739 95.3314 211.554 94.6369C211.623 94.6146 211.69 94.6033 211.743 94.5945L211.748 94.5937Z" fill="black"/>
<path fill-rule="evenodd" clip-rule="evenodd" d="M213.141 96.2035C213.245 96.1562 213.354 96.1066 213.454 96.0664L213.597 96.4238C213.506 96.4603 213.405 96.5064 213.298 96.555L213.295 96.5561C213.193 96.6026 213.086 96.6513 212.987 96.691C212.335 96.9977 211.682 97.3053 210.989 97.613C209.293 98.4225 207.55 99.3208 206.658 100.867C206.65 100.89 206.641 100.912 206.634 100.93C206.632 100.935 206.63 100.94 206.628 100.944C206.617 100.972 206.611 100.991 206.607 101.007C206.604 101.017 206.604 101.023 206.604 101.025C206.604 101.026 206.604 101.026 206.604 101.026L206.611 101.036L206.614 101.043C206.619 101.045 206.627 101.047 206.641 101.047C206.66 101.047 206.683 101.043 206.707 101.036C206.73 101.029 206.749 101.019 206.761 101.011L206.777 101.001L206.795 100.993C209.244 99.9983 211.542 98.7349 213.725 97.2409L213.727 97.2396L213.727 97.2396C213.782 97.2032 213.846 97.1571 213.914 97.1084L213.916 97.1072C213.982 97.06 214.052 97.0104 214.112 96.9702L214.325 97.2904C214.271 97.3269 214.206 97.373 214.138 97.4216L214.136 97.4228C214.071 97.4698 214.002 97.5191 213.942 97.5592C211.742 99.0638 209.427 100.338 206.956 101.343C206.869 101.396 206.754 101.431 206.641 101.431C206.521 101.431 206.362 101.387 206.277 101.23C206.206 101.116 206.211 101.001 206.233 100.913C206.244 100.871 206.259 100.832 206.271 100.802C206.274 100.795 206.276 100.788 206.279 100.782C206.288 100.76 206.294 100.743 206.3 100.726L206.306 100.708L206.315 100.691C207.274 99.0145 209.141 98.0686 210.826 97.2646L210.831 97.2623L210.831 97.2624C211.521 96.9554 212.174 96.6484 212.828 96.3404L212.833 96.338L212.839 96.3358C212.93 96.2993 213.032 96.2532 213.138 96.2046L213.141 96.2035Z" fill="black"/>
<path d="M108.964 405.116C109.656 405.27 110.388 405.386 111.08 405.27C112.12 405.078 113.005 404.385 113.582 403.5C114.006 402.846 114.313 402.153 114.583 401.422C113.544 400.228 112.312 399.035 110.772 399.035C109.425 399.035 108.194 399.997 107.501 401.152C106.808 402.345 106.577 403.692 106.346 405.039C107.193 404.732 108.078 404.924 108.964 405.116ZM122.204 392.492C122.396 392.646 122.55 392.8 122.742 392.954C122.896 393.108 123.05 393.224 123.166 393.377C123.474 393.685 123.743 394.032 124.013 394.378C124.205 394.609 124.359 394.84 124.513 395.109C124.744 395.494 124.975 395.879 125.167 396.303C125.36 396.726 125.552 397.188 125.706 397.65C126.36 399.651 126.514 401.845 125.975 403.885C125.398 406.233 124.051 408.388 124.013 410.813C123.936 415.354 128.516 419.819 126.437 423.899C122.896 422.09 121.28 417.702 117.739 415.893C115.083 414.546 112.081 414.969 109.271 416.086C107.232 419.742 104.961 423.244 102.421 426.554C101.997 427.132 101.227 427.709 100.689 427.286C100.843 423.668 100.342 420.05 99.226 416.586C98.4562 415.624 97.7249 414.7 96.9552 413.738C88.2568 402.73 79.5969 391.722 70.0133 381.485C66.2414 377.443 62.0847 372.979 61.9307 367.436C61.8923 365.666 62.739 363.664 61.3534 362.587C60.6991 362.086 58.0049 362.51 57.3121 362.086C55.965 361.24 55.8111 358.93 55.5417 357.352C54.9259 353.465 55.3877 349.462 55.0413 345.536C54.6564 341.303 54.464 336.954 55.8111 332.912C57.0812 329.025 60.1218 325.484 64.0476 324.56C64.3555 314.9 65.5102 305.124 69.2051 296.194C70.2058 293.808 71.3604 291.46 73.1309 289.574C74.9398 287.65 77.2876 286.303 79.5969 285.033C84.177 282.531 89.4884 280.068 94.3764 281.877C97.9559 283.185 100.342 286.495 102.459 289.651C103.113 290.614 103.768 291.576 103.922 292.73C104.076 293.847 103.614 295.194 102.574 295.617C100.881 296.31 99.2645 294.501 98.1868 293C96.5318 290.729 94.3764 288.574 91.6053 287.958C88.4108 287.227 85.1007 288.689 82.4451 290.652C77.634 294.193 74.1316 299.427 72.2456 305.085C70.3597 310.743 69.9748 316.824 70.6676 322.751C70.8601 322.482 71.2834 322.366 71.6683 322.289C76.7488 321.558 81.9062 321.481 86.9867 322.174C87.8334 322.289 88.7187 322.443 89.4884 322.905C90.7201 323.675 91.2589 325.138 91.8747 326.446C94.0685 331.065 97.9944 334.567 101.381 338.339C104.807 342.149 107.886 346.73 107.732 351.849C107.578 356.929 102.728 362.048 97.8019 360.701C97.9174 370.592 98.2253 381.023 103.537 389.375C104.037 390.144 104.614 390.953 105.423 391.376C107.309 392.377 109.502 391.107 111.542 390.452C115.199 389.336 119.317 390.144 122.204 392.492ZM120.933 402.037C121.357 402.615 121.819 403.115 122.319 403.654C122.588 403.923 122.858 404.193 123.204 404.347C123.32 404.385 123.435 404.424 123.551 404.462C124.397 404.616 125.09 404 125.591 403.23C125.821 401.806 125.167 400.228 123.974 399.42C122.742 398.573 120.972 398.535 119.702 399.343C119.586 399.42 119.471 399.497 119.432 399.651C119.394 399.767 119.471 399.92 119.548 400.036C119.971 400.69 120.395 401.383 120.933 402.037Z" fill="black"/>
<path d="M106.348 405.04C106.579 403.693 106.81 402.308 107.502 401.153C108.195 399.96 109.427 398.998 110.774 399.036C112.313 399.036 113.583 400.229 114.584 401.423C114.315 402.154 114.007 402.847 113.583 403.501C113.006 404.386 112.121 405.117 111.082 405.271C111.582 404.232 111.351 402.847 111.12 401.692C111.082 401.538 111.043 401.384 110.928 401.307C110.774 401.192 110.581 401.192 110.389 401.269C109.735 401.5 109.273 402.115 109.08 402.808C108.926 403.424 108.888 404.425 108.926 405.117C108.08 404.925 107.194 404.733 106.348 405.04Z" fill="#D5BF4B"/>
<path d="M108.962 405.118C108.923 404.425 108.923 403.424 109.115 402.808C109.308 402.116 109.77 401.5 110.424 401.269C110.617 401.23 110.809 401.192 110.963 401.307C111.078 401.384 111.117 401.538 111.155 401.692C111.386 402.808 111.617 404.233 111.117 405.272C110.386 405.387 109.693 405.233 108.962 405.118Z" fill="black"/>
<path d="M119.545 399.998C119.468 399.883 119.43 399.767 119.43 399.613C119.468 399.498 119.584 399.383 119.699 399.306C120.969 398.497 122.701 398.536 123.971 399.383C125.164 400.229 125.819 401.769 125.588 403.193C125.087 403.963 124.395 404.617 123.548 404.424C123.432 404.386 123.317 404.348 123.202 404.309L123.24 404.232C123.625 403.539 123.971 402.808 124.01 402C124.01 401.191 123.625 400.345 122.894 400.037C122.239 399.767 121.239 401.114 120.931 401.961C120.392 401.384 119.969 400.691 119.545 399.998Z" fill="#D5BF4B"/>
<path d="M122.28 403.655C121.78 403.155 121.318 402.616 120.895 402.038C121.202 401.153 122.203 399.845 122.857 400.114C123.589 400.422 123.974 401.269 123.974 402.077C123.974 402.885 123.627 403.616 123.204 404.309L123.165 404.386C122.857 404.194 122.55 403.924 122.28 403.655Z" fill="black"/>
<path d="M122.707 392.957C122.553 392.803 122.36 392.649 122.168 392.495C124.323 390.994 126.671 389.724 129.134 388.724C129.288 388.647 129.481 388.608 129.558 388.762C129.635 388.878 129.558 388.993 129.519 389.108C128.596 390.725 126.787 391.649 125.093 392.457C124.439 392.765 123.784 393.073 123.13 393.381C123.015 393.227 122.861 393.073 122.707 392.957Z" fill="black"/>
<path d="M124.473 395.07C124.319 394.839 124.165 394.57 123.973 394.339C126.513 393.415 129.669 391.953 132.171 391.645C132.556 391.606 133.017 391.568 133.364 391.76C133.402 391.953 133.171 392.107 132.979 392.184C130.362 393.377 127.244 394.377 124.473 395.07Z" fill="black"/>
<path d="M125.668 397.575C125.514 397.113 125.321 396.69 125.129 396.228C127.708 395.92 130.748 395.766 133.288 395.92C133.558 395.92 133.866 395.958 134.058 396.151C133.058 396.997 131.672 397.19 130.363 397.305C128.785 397.498 127.246 397.613 125.668 397.575Z" fill="black"/>
<path fill-rule="evenodd" clip-rule="evenodd" d="M97.8543 412.766C98.4352 413.966 98.9387 415.206 99.3647 416.483L99.3653 416.485C100.477 419.936 100.982 423.539 100.841 427.143C101.013 427.233 101.223 427.21 101.465 427.083C101.744 426.937 102.022 426.671 102.221 426.399L102.224 426.396C104.758 423.094 107.024 419.599 109.059 415.95C109.059 415.95 109.059 415.951 109.059 415.95L109.637 414.911L109.973 415.098L109.396 416.137C107.352 419.801 105.076 423.311 102.531 426.628C102.307 426.933 101.988 427.244 101.643 427.424C101.297 427.605 100.88 427.674 100.526 427.395L100.448 427.334L100.452 427.236C100.605 423.642 100.108 420.047 98.9992 416.604C98.5785 415.342 98.0814 414.119 97.5078 412.933L97.8543 412.766Z" fill="black"/>
<path fill-rule="evenodd" clip-rule="evenodd" d="M64.4637 324.635C64.3375 324.635 64.207 324.667 64.0485 324.706L64.0459 324.707L64.0459 324.707C60.204 325.611 57.2042 329.087 55.9482 332.931L55.9479 332.932C54.6146 336.932 54.8024 341.245 55.1872 345.478L55.1872 345.479C55.3365 347.17 55.3365 348.876 55.3364 350.572C55.3364 350.854 55.3364 351.136 55.3371 351.418C55.3419 353.394 55.3806 355.353 55.6858 357.28C55.7241 357.505 55.7596 357.74 55.7961 357.982C55.8907 358.608 55.9915 359.276 56.1626 359.902C56.3998 360.77 56.7583 361.498 57.3676 361.882C57.4274 361.918 57.5207 361.952 57.6519 361.98C57.7817 362.007 57.9371 362.027 58.1128 362.04C58.4356 362.065 58.8105 362.069 59.197 362.073C59.2325 362.074 59.268 362.074 59.3036 362.074C59.7232 362.079 60.1519 362.086 60.5176 362.125C60.7009 362.144 60.8735 362.172 61.0247 362.212C61.1739 362.253 61.3146 362.309 61.4245 362.393L61.4258 362.394C62.1931 362.991 62.3282 363.842 62.2937 364.718C62.2791 365.09 62.2335 365.478 62.1883 365.861C62.1803 365.929 62.1723 365.997 62.1645 366.064C62.1123 366.517 62.0681 366.963 62.0773 367.391C62.1531 370.113 63.2119 372.58 64.73 374.876C66.2496 377.175 68.2202 379.29 70.1082 381.312C79.4626 391.306 87.9367 402.031 96.4193 412.766C96.6328 413.037 96.8464 413.307 97.06 413.577C97.445 414.058 97.8202 414.53 98.1954 415.001L98.1955 415.001C98.5708 415.473 98.9458 415.944 99.3305 416.425L99.3317 416.427C99.6774 416.868 100.023 417.3 100.37 417.734C100.716 418.166 101.063 418.6 101.41 419.044L101.107 419.281C100.761 418.839 100.416 418.407 100.069 417.974C99.723 417.541 99.3762 417.108 99.0293 416.665C98.6445 416.184 98.2692 415.712 97.8942 415.241L97.894 415.241C97.5188 414.769 97.1438 414.298 96.7591 413.817L96.7584 413.816C96.546 413.548 96.3336 413.279 96.1212 413.01C87.6357 402.271 79.1703 391.556 69.827 381.575L69.8268 381.575C67.9429 379.557 65.9493 377.418 64.409 375.089C62.8674 372.757 61.7709 370.22 61.6926 367.401L61.6926 367.4C61.6826 366.943 61.7298 366.474 61.7822 366.02C61.7902 365.951 61.7983 365.882 61.8064 365.813C61.8516 365.429 61.8952 365.059 61.9092 364.703C61.942 363.868 61.8078 363.179 61.1901 362.698C61.1365 362.658 61.05 362.618 60.9244 362.584C60.8003 362.55 60.6497 362.526 60.4775 362.508C60.1324 362.471 59.7216 362.464 59.2992 362.459C59.2631 362.459 59.2268 362.459 59.1905 362.458C58.8073 362.454 58.4195 362.45 58.0833 362.424C57.8988 362.41 57.7249 362.389 57.5722 362.356C57.4216 362.324 57.2794 362.279 57.166 362.21L57.1639 362.209C56.4269 361.745 56.0351 360.896 55.7913 360.004C55.6139 359.354 55.5076 358.65 55.412 358.017C55.3763 357.781 55.3421 357.554 55.3062 357.344L55.3058 357.342L55.3058 357.342C54.9954 355.382 54.957 353.396 54.9522 351.418C54.9515 351.135 54.9515 350.852 54.9515 350.569C54.9515 348.873 54.9515 347.186 54.8039 345.513C54.4189 341.278 54.2218 336.894 55.5825 332.811C56.8668 328.881 59.9475 325.276 63.9564 324.332L63.9649 324.33C64.1123 324.293 64.2858 324.25 64.4637 324.25V324.635Z" fill="black"/>
<path fill-rule="evenodd" clip-rule="evenodd" d="M71.7508 322.057C76.8472 321.324 82.0207 321.285 87.1171 321.942C88.0014 322.057 88.9259 322.214 89.6967 322.701C89.6968 322.701 89.6966 322.701 89.6967 322.701L89.5943 322.864L89.6963 322.701C89.6964 322.701 89.6966 322.701 89.6967 322.701C90.3488 323.109 90.8106 323.695 91.1845 324.335C91.4624 324.81 91.698 325.327 91.9259 325.826C92.0026 325.995 92.0784 326.161 92.1547 326.323L92.155 326.323C93.2217 328.609 94.7289 330.614 96.4024 332.528C97.2392 333.484 98.116 334.416 98.9995 335.349C99.0901 335.445 99.1808 335.54 99.2715 335.636C100.064 336.473 100.86 337.312 101.63 338.169C105.061 341.985 108.186 346.614 108.03 351.813C107.951 354.428 106.675 357.025 104.794 358.798C102.973 360.515 100.563 361.478 98.1032 360.907C98.1022 360.824 98.1012 360.74 98.1002 360.657L97.9078 360.659L97.857 360.845C97.9391 360.867 98.0212 360.888 98.1032 360.907C98.2214 370.733 98.572 381.039 103.805 389.23L103.806 389.232C104.304 390.036 104.858 390.766 105.617 391.164C105.617 391.164 105.616 391.163 105.616 391.163L105.528 391.335L105.618 391.164C105.618 391.164 105.617 391.164 105.617 391.164C106.498 391.613 107.462 391.557 108.482 391.293C108.992 391.161 109.509 390.978 110.03 390.786C110.133 390.748 110.236 390.71 110.34 390.671C110.757 390.516 111.176 390.36 111.588 390.228L111.648 390.411L111.589 390.228C111.589 390.228 111.589 390.228 111.588 390.228M122.315 392.263C122.315 392.263 122.315 392.262 122.314 392.262L122.315 392.263ZM122.315 392.263L122.32 392.266C122.508 392.417 122.707 392.577 122.869 392.738L123.296 393.165L123.3 393.17C123.607 393.516 123.88 393.827 124.153 394.178C124.299 394.353 124.428 394.555 124.542 394.735C124.584 394.801 124.625 394.865 124.663 394.923L124.666 394.927L124.668 394.93L124.671 394.934C124.9 395.317 125.136 395.71 125.333 396.143L125.334 396.146L125.335 396.149C125.378 396.252 125.422 396.354 125.465 396.456C125.612 396.803 125.758 397.145 125.879 397.509L125.879 397.51C126.544 399.543 126.662 401.774 126.153 403.851C125.933 404.743 125.603 405.617 125.279 406.474C125.171 406.758 125.065 407.04 124.963 407.32C124.551 408.456 124.214 409.576 124.195 410.736C124.177 411.84 124.439 412.946 124.818 414.057C125.077 414.814 125.386 415.562 125.695 416.311C125.842 416.666 125.989 417.021 126.13 417.378C127 419.569 127.662 421.781 126.6 423.905L126.513 424.078L126.34 423.99C124.534 423.068 123.224 421.493 121.943 419.954L121.931 419.939C120.636 418.384 119.371 416.868 117.642 415.985C115.057 414.674 112.119 415.04 109.336 416.183C107.886 416.794 106.512 417.557 105.25 418.398L105.037 418.078C106.316 417.225 107.712 416.449 109.187 415.828L109.189 415.828C112.024 414.662 115.09 414.259 117.816 415.642L117.817 415.642C119.622 416.564 120.933 418.139 122.214 419.678L122.226 419.693C123.477 421.195 124.7 422.661 126.34 423.555C127.198 421.652 126.618 419.65 125.773 417.52C125.635 417.174 125.491 416.824 125.345 416.472C125.033 415.717 124.716 414.95 124.454 414.182C124.068 413.051 123.791 411.897 123.81 410.73M91.8063 326.486C91.7257 326.315 91.6473 326.143 91.569 325.972C91.3433 325.477 91.1194 324.986 90.8522 324.529C90.4949 323.918 90.0716 323.389 89.4923 323.027L89.4915 323.026C88.7999 322.59 87.9538 322.439 87.0677 322.323C82.0046 321.671 76.8648 321.71 71.8016 322.438L71.7975 322.439L71.7933 322.439C71.6111 322.458 71.4288 322.493 71.274 322.556C71.1223 322.618 71.0093 322.7 70.9412 322.805L70.8459 322.995C70.8461 323.028 70.8599 323.057 70.8904 323.087C70.9322 323.128 70.9999 323.161 71.0733 323.175C71.1445 323.188 71.1899 323.177 71.2068 323.169C71.2068 323.164 71.206 323.155 71.2026 323.141L71.576 323.048C71.5974 323.134 71.5988 323.222 71.5689 323.305C71.5386 323.389 71.4817 323.452 71.415 323.494C71.2895 323.572 71.132 323.577 71.0029 323.553C70.8694 323.528 70.7278 323.466 70.6216 323.362C70.5111 323.255 70.4368 323.098 70.4682 322.909L70.4729 322.881L70.6054 322.616L70.6103 322.608C70.735 322.408 70.9283 322.281 71.1293 322.199C71.3291 322.119 71.5493 322.077 71.7508 322.057" fill="black"/>
<path fill-rule="evenodd" clip-rule="evenodd" d="M64.8918 323.555H64.5078V323.133H64.8918V323.555Z" fill="black"/>
<path fill-rule="evenodd" clip-rule="evenodd" d="M86.9584 282.021C84.4695 282.717 82.0128 283.949 79.7247 285.199C77.4135 286.47 75.0918 287.804 73.3065 289.703C71.5608 291.563 70.4169 293.884 69.4181 296.265C65.7364 305.163 64.6214 314.912 64.2753 324.603L63.8906 324.589C64.2373 314.882 65.3545 305.079 69.0626 296.118L69.0629 296.117C70.0654 293.726 71.2308 291.352 73.0259 289.44C74.8584 287.49 77.2322 286.13 79.5395 284.861L79.54 284.861C81.832 283.609 84.321 282.359 86.8547 281.65C89.39 280.941 91.9839 280.77 94.4782 281.693C98.1245 283.026 100.542 286.392 102.654 289.541C102.654 289.541 102.654 289.541 102.654 289.541L102.666 289.558C103.311 290.508 103.988 291.502 104.148 292.702C104.148 292.702 104.148 292.702 104.148 292.702L103.957 292.728L104.148 292.701C104.148 292.701 104.148 292.702 104.148 292.702C104.229 293.293 104.148 293.944 103.908 294.506C103.668 295.069 103.261 295.557 102.682 295.792C102.682 295.792 102.683 295.792 102.682 295.792C101.747 296.175 100.847 295.856 100.071 295.283C99.2954 294.711 98.6077 293.864 98.0662 293.11C98.0664 293.11 98.0665 293.11 98.0666 293.11L98.2221 292.997L98.0658 293.109C98.0659 293.109 98.0661 293.11 98.0662 293.11C96.4187 290.849 94.2991 288.743 91.5989 288.143L91.5977 288.143C88.4857 287.43 85.2349 288.852 82.5948 290.804L82.5945 290.804C77.8197 294.318 74.3387 299.518 72.4635 305.143C70.5881 310.769 70.2039 316.821 70.8941 322.726L70.8954 322.737V322.825H70.5105V322.76C70.5109 322.763 70.5114 322.767 70.5118 322.771L70.7029 322.748H70.5105V322.76C69.8169 316.813 70.2031 310.707 72.0984 305.021C73.9951 299.331 77.5188 294.062 82.366 290.494L82.4804 290.649L82.3663 290.494C82.3662 290.494 82.3661 290.494 82.366 290.494C85.0371 288.52 88.4061 287.017 91.683 287.767C91.6828 287.767 91.6826 287.767 91.6824 287.767L91.6406 287.955L91.6836 287.767C91.6834 287.767 91.6832 287.767 91.683 287.767C94.5245 288.399 96.7153 290.603 98.3777 292.884L98.3785 292.885C98.9146 293.631 99.5739 294.439 100.299 294.973C101.024 295.507 101.779 295.746 102.537 295.436C102.998 295.248 103.342 294.851 103.554 294.355C103.766 293.859 103.839 293.278 103.766 292.754L103.766 292.753C103.619 291.651 102.994 290.726 102.335 289.757L102.335 289.756C100.213 286.593 97.8579 283.339 94.3457 282.055L94.345 282.054C91.9514 281.168 89.4457 281.325 86.9584 282.021Z" fill="black"/>
<path fill-rule="evenodd" clip-rule="evenodd" d="M110.8 399.265C109.549 399.229 108.373 400.128 107.701 401.286L107.699 401.288C107.079 402.321 106.839 403.55 106.622 404.8C107.408 404.606 108.26 404.758 109.037 404.927C109.767 405.081 110.428 405.188 111.082 405.079L111.085 405.079C112.053 404.935 112.896 404.249 113.454 403.394C113.842 402.795 114.132 402.16 114.386 401.485C113.4 400.327 112.209 399.265 110.806 399.265H110.803L110.8 399.265ZM114.824 401.395C114.856 401.293 114.893 401.189 114.932 401.081L114.933 401.078C114.98 400.945 115.03 400.806 115.07 400.665L114.7 400.559C114.664 400.687 114.618 400.816 114.569 400.951L114.568 400.954C114.556 400.99 114.543 401.026 114.53 401.063C113.562 399.96 112.32 398.881 110.808 398.88C109.367 398.84 108.082 399.864 107.368 401.092C106.666 402.262 106.427 403.657 106.202 404.975C106.198 404.998 106.194 405.021 106.19 405.044L106.133 405.377L106.448 405.257C107.196 404.972 108.066 405.11 108.956 405.303L108.957 405.303C109.688 405.457 110.412 405.581 111.143 405.459C112.253 405.294 113.18 404.518 113.776 403.604L113.777 403.603C114.15 403.026 114.434 402.422 114.68 401.795L114.711 401.826L114.983 401.554L114.824 401.395Z" fill="black"/>
<path fill-rule="evenodd" clip-rule="evenodd" d="M111.034 401.147C111.131 401.214 111.188 401.307 111.225 401.392C111.26 401.474 111.282 401.563 111.3 401.636L111.303 401.647L111.304 401.651C111.419 402.229 111.538 402.877 111.562 403.514C111.587 404.151 111.519 404.793 111.25 405.352L110.903 405.185C111.134 404.705 111.201 404.134 111.178 403.529C111.154 402.927 111.042 402.307 110.927 401.731C110.908 401.653 110.892 401.593 110.871 401.543C110.85 401.495 110.831 401.474 110.816 401.464L110.811 401.461L110.807 401.458C110.724 401.396 110.608 401.383 110.455 401.444L110.452 401.446L110.448 401.447C109.87 401.651 109.442 402.204 109.261 402.854C109.114 403.443 109.075 404.421 109.113 405.104L109.114 405.109V405.307L108.729 405.307V405.12C108.69 404.419 108.728 403.399 108.888 402.758L108.89 402.754C109.093 402.02 109.588 401.344 110.316 401.085C110.545 400.995 110.811 400.982 111.034 401.147Z" fill="black"/>
<path fill-rule="evenodd" clip-rule="evenodd" d="M119.762 399.464C119.676 399.522 119.61 399.593 119.581 399.647C119.586 399.742 119.613 399.813 119.663 399.889L119.665 399.892L119.667 399.895C120.088 400.584 120.546 401.271 121.042 401.918L121.044 401.922C121.462 402.491 121.917 403.022 122.41 403.516C122.682 403.787 122.925 404.028 123.23 404.165L123.558 404.274C123.913 404.352 124.241 404.258 124.547 404.047C124.846 403.84 125.118 403.525 125.354 403.17L125.356 403.159C125.575 401.81 124.953 400.344 123.82 399.538C122.612 398.734 120.965 398.7 119.762 399.464ZM125.777 402.367C125.7 401.141 125.056 399.944 124.041 399.223L124.038 399.221L124.036 399.22C122.705 398.332 120.89 398.29 119.554 399.14L119.55 399.143C119.421 399.229 119.264 399.374 119.205 399.55L119.195 399.579V399.611C119.195 399.802 119.245 399.954 119.341 400.099C119.766 400.794 120.231 401.491 120.735 402.151C121.164 402.735 121.631 403.281 122.138 403.788L122.149 403.799C122.411 404.061 122.702 404.352 123.081 404.521L123.09 404.524L123.454 404.646L123.463 404.648C123.951 404.759 124.391 404.622 124.765 404.364C125.11 404.126 125.406 403.781 125.652 403.416L125.68 403.43C125.703 403.384 125.718 403.342 125.728 403.301C125.918 402.993 126.071 402.683 126.188 402.372L125.828 402.237C125.811 402.28 125.794 402.324 125.777 402.367Z" fill="black"/>
<path fill-rule="evenodd" clip-rule="evenodd" d="M122.22 399.969C122.436 399.854 122.685 399.795 122.923 399.893L122.924 399.894L122.924 399.894C123.752 400.242 124.158 401.18 124.158 402.034V402.039L124.158 402.043C124.117 402.899 123.751 403.664 123.364 404.36L123.028 404.173C123.41 403.485 123.736 402.789 123.773 402.03C123.772 401.269 123.409 400.516 122.776 400.249C122.686 400.213 122.565 400.222 122.401 400.309C122.237 400.396 122.058 400.548 121.881 400.744C121.527 401.135 121.214 401.661 121.068 402.059C121.028 402.18 121.002 402.264 121.002 402.342H120.617C120.617 402.195 120.664 402.054 120.7 401.946C120.702 401.942 120.703 401.939 120.704 401.935L120.706 401.93L120.706 401.93C120.869 401.482 121.209 400.912 121.596 400.486C121.789 400.273 122.002 400.086 122.22 399.969Z" fill="black"/>
<path fill-rule="evenodd" clip-rule="evenodd" d="M133.247 395.761C133.519 395.761 133.896 395.798 134.146 396.048L134.294 396.196L134.134 396.331C133.081 397.222 131.636 397.415 130.333 397.53C128.791 397.684 127.204 397.801 125.653 397.762L125.662 397.377C127.19 397.415 128.759 397.301 130.296 397.147L130.298 397.147L130.298 397.147C131.516 397.039 132.744 396.867 133.673 396.202C133.551 396.161 133.401 396.146 133.24 396.146H133.233L133.225 396.145C130.703 395.954 127.676 396.145 125.103 396.452L125.092 396.453H125.08C125.009 396.453 124.957 396.454 124.872 396.482L124.75 396.117C124.889 396.071 124.988 396.069 125.069 396.069C127.649 395.761 130.695 395.568 133.247 395.761Z" fill="black"/>
<path fill-rule="evenodd" clip-rule="evenodd" d="M132.14 391.487C132.542 391.45 133.017 391.407 133.416 391.628L133.494 391.672L133.511 391.759C133.549 391.95 133.447 392.099 133.348 392.192C133.249 392.285 133.121 392.353 133.013 392.397C130.424 393.556 127.261 394.559 124.485 395.253C124.416 395.276 124.348 395.287 124.295 395.296L124.29 395.296C124.23 395.306 124.187 395.314 124.146 395.328L124.025 394.962C124.097 394.938 124.167 394.927 124.222 394.918L124.227 394.917C124.287 394.907 124.33 394.899 124.371 394.886L124.378 394.883L124.385 394.881C127.149 394.19 130.294 393.193 132.859 392.044L132.863 392.043L132.866 392.041C132.95 392.008 133.032 391.961 133.085 391.911C133.088 391.909 133.09 391.906 133.092 391.904C132.833 391.815 132.52 391.839 132.15 391.872C130.903 392.024 129.506 392.451 128.096 392.964C127.269 393.265 126.449 393.591 125.655 393.907C125.09 394.132 124.537 394.352 124.003 394.554C123.724 394.673 123.446 394.752 123.181 394.828L123.176 394.83L123.07 394.46C123.341 394.382 123.599 394.308 123.856 394.198L123.859 394.197L123.863 394.195C124.383 393.998 124.934 393.779 125.5 393.554C126.303 393.235 127.137 392.903 127.965 392.602C129.383 392.086 130.814 391.647 132.106 391.49L132.109 391.49L132.112 391.489C132.121 391.489 132.13 391.488 132.14 391.487Z" fill="black"/>
<path fill-rule="evenodd" clip-rule="evenodd" d="M129.716 388.659C129.787 388.773 129.782 388.887 129.76 388.975C129.75 389.017 129.735 389.056 129.723 389.086C129.72 389.093 129.717 389.1 129.715 389.107C129.706 389.129 129.699 389.145 129.693 389.163L129.687 389.182L129.676 389.2C128.68 390.874 126.855 391.818 125.168 392.624L125.167 392.624L123.199 393.55L123.193 393.553C123.102 393.589 123 393.635 122.894 393.684L122.891 393.685C122.787 393.732 122.678 393.782 122.577 393.822L122.435 393.465C122.526 393.428 122.627 393.382 122.734 393.333L122.737 393.332C122.839 393.286 122.946 393.237 123.045 393.197L125.002 392.277C125.002 392.276 125.002 392.276 125.002 392.276C126.696 391.468 128.405 390.569 129.336 389.02C129.344 388.998 129.352 388.976 129.359 388.959C129.361 388.953 129.363 388.949 129.365 388.944C129.376 388.916 129.383 388.897 129.387 388.882C129.389 388.871 129.39 388.865 129.39 388.863C129.39 388.863 129.39 388.862 129.389 388.862L129.383 388.852L129.379 388.845C129.375 388.844 129.366 388.842 129.352 388.842C129.333 388.842 129.31 388.845 129.287 388.853C129.263 388.86 129.244 388.869 129.233 388.877L129.217 388.887L129.199 388.895C126.787 389.89 124.451 391.154 122.268 392.648L122.266 392.649C122.212 392.685 122.147 392.731 122.079 392.78L122.077 392.781C122.011 392.828 121.942 392.878 121.881 392.918L121.668 392.598C121.723 392.562 121.787 392.515 121.855 392.467L121.857 392.466C121.923 392.419 121.992 392.369 122.052 392.329C124.252 390.824 126.606 389.55 129.037 388.545C129.124 388.493 129.239 388.457 129.352 388.457C129.473 388.457 129.631 388.501 129.716 388.659Z" fill="black"/>
<path d="M155.435 226.375V217.736H131.14L149.046 194.971C152.646 190.382 154.265 185.523 154.265 180.574C154.265 169.327 146.617 162.668 135.999 162.668C125.741 162.668 118.363 169.866 117.643 179.224L126.641 180.934C127.361 175.175 130.51 171.306 135.999 171.306C141.758 171.306 144.637 175.175 144.637 180.934C144.637 184.623 143.738 187.503 139.598 192.632L116.383 222.415V226.375H155.435Z" fill="black"/>
<path d="M177.825 176.885V226.375H187.363V163.388H183.494L166.037 173.826V183.903L177.825 176.885Z" fill="black"/>
<path d="M202.973 220.166C202.973 224.035 205.943 226.824 209.632 226.824C213.321 226.824 216.29 224.035 216.29 220.166C216.29 216.297 213.321 213.507 209.632 213.507C205.943 213.507 202.973 216.297 202.973 220.166Z" fill="black"/>
<path d="M116.023 284.944C116.023 304.74 123.852 317.157 138.699 317.157C153.546 317.157 161.374 304.74 161.374 284.944C161.374 265.148 153.546 252.731 138.699 252.731C123.852 252.731 116.023 265.148 116.023 284.944ZM125.561 284.944C125.561 270.187 129.791 261.369 138.699 261.369C147.607 261.369 151.836 270.187 151.836 284.944C151.836 299.701 147.607 308.519 138.699 308.519C129.791 308.519 125.561 299.701 125.561 284.944Z" fill="black"/>
<path d="M196.793 303.84V316.437H206.331V303.84H213.71V295.202H206.331V253.451H196.253L169.619 299.521V303.84H196.793ZM196.793 267.848V295.202H181.497L196.793 267.848Z" fill="black"/>
<path d="M226.611 310.229C226.611 314.098 229.58 316.887 233.269 316.887C236.959 316.887 239.928 314.098 239.928 310.229C239.928 306.359 236.959 303.57 233.269 303.57C229.58 303.57 226.611 306.359 226.611 310.229Z" fill="black"/>
<path d="M70.7383 65.5312C61.9245 65.5312 54.7656 72.921 54.7656 82.0428C54.7656 91.1645 61.9245 98.5543 70.7383 98.5543C79.5521 98.5543 86.711 91.1645 86.711 82.0428C86.6725 72.921 79.5521 65.5312 70.7383 65.5312ZM65.1575 94.2436H62.8097V74.1911H60.7313V71.8818H65.119V94.2436H65.1575ZM74.2407 94.7054C70.8538 94.7054 67.9671 92.4346 66.9664 89.2401L69.1218 88.4703C69.8146 90.7411 71.816 92.3961 74.2023 92.3961C77.2044 92.3961 79.5521 89.8944 79.5521 86.7768C79.5521 83.6978 77.1659 81.1575 74.2023 81.1575C72.8167 81.1575 72.1239 81.35 71.4311 81.6579L70.2764 79.5025L75.7803 74.1911H68.8139V71.8818H79.6291V73.7293L73.7404 79.1946L74.3177 79.1176C78.5514 79.1176 81.8999 82.3892 81.8999 86.7768C81.9384 91.1645 78.4745 94.7054 74.2407 94.7054Z" fill="#0E0F0F"/>
<path d="M266.258 424.242C275.072 424.242 282.231 416.852 282.231 407.73C282.231 398.609 275.072 391.219 266.258 391.219C257.444 391.219 250.285 398.609 250.285 407.73C250.324 416.814 257.444 424.242 266.258 424.242ZM271.839 395.529H274.186V415.582H276.265V417.891H271.877V395.529H271.839ZM262.717 395.068C266.104 395.068 268.991 397.338 269.991 400.533L267.836 401.303C267.143 399.032 265.142 397.377 262.755 397.377C259.753 397.377 257.406 399.879 257.406 402.996C257.406 406.075 259.792 408.616 262.755 408.616C264.141 408.616 264.834 408.423 265.527 408.115L266.681 410.271L261.177 415.582H268.144V417.891H257.329V416.044L263.217 410.578L262.64 410.655C258.406 410.655 255.058 407.384 255.058 402.996C255.058 398.609 258.522 395.068 262.717 395.068Z" fill="#0E0F0F"/>
</g>
<defs>
<filter id="filter0_d" x="0.804688" y="0.0625" width="333.612" height="496.418" filterUnits="userSpaceOnUse" color-interpolation-filters="sRGB">
<feFlood flood-opacity="0" result="BackgroundImageFix"/>
<feColorMatrix in="SourceAlpha" type="matrix" values="0 0 0 0 0 0 0 0 0 0 0 0 0 0 0 0 0 0 127 0"/>
<feOffset dy="4"/>
<feGaussianBlur stdDeviation="2"/>
<feColorMatrix type="matrix" values="0 0 0 0 0 0 0 0 0 0 0 0 0 0 0 0 0 0 0.25 0"/>
<feBlend mode="normal" in2="BackgroundImageFix" result="effect1_dropShadow"/>
<feBlend mode="normal" in="SourceGraphic" in2="effect1_dropShadow" result="shape"/>
</filter>
</defs>
</svg>
