<svg width="340" height="505" viewBox="0 0 340 505" fill="none" xmlns="http://www.w3.org/2000/svg">
<g filter="url(#filter0_d)">
<path d="M335.731 60.2695C335.731 27.1324 308.869 0.269531 275.731 0.269531H64.6719C31.5348 0.269531 4.67187 27.1324 4.67187 60.2695L4.67187 436.859C4.67187 469.996 31.5348 496.859 64.6719 496.859H275.731C308.869 496.859 335.731 469.996 335.731 436.859L335.731 60.2695Z" fill="white"/>
<path d="M250.303 451.894H90.0951C59.4544 451.894 34.6445 427.045 34.6445 396.443L34.6445 100.681C34.6445 70.0404 59.4936 45.2305 90.0951 45.2305H250.303C280.944 45.2305 305.753 70.0795 305.753 100.681L305.753 396.443C305.753 427.084 280.944 451.894 250.303 451.894Z" fill="#D34D4B"/>
<path d="M230.713 86.3611C230.009 86.2045 229.265 86.0872 228.561 86.2046C227.504 86.4002 226.604 87.1046 225.978 88.0046C225.547 88.6699 225.234 89.3743 224.96 90.1178C226.017 91.3309 227.269 92.544 228.874 92.544C230.282 92.544 231.496 91.5657 232.2 90.3526C232.904 89.1395 233.139 87.7307 233.374 86.3611C232.552 86.7524 231.652 86.5567 230.713 86.3611ZM217.251 99.2356C217.056 99.0791 216.899 98.9226 216.704 98.766C216.547 98.6095 216.39 98.4921 216.273 98.3356C215.96 98.0225 215.686 97.6703 215.412 97.3181C215.217 97.0833 215.06 96.8486 214.903 96.5746C214.669 96.1833 214.434 95.792 214.238 95.3615C214.043 94.9311 213.847 94.4615 213.69 93.9919C213.025 91.957 212.869 89.7265 213.416 87.6524C214.003 85.2654 215.373 83.0348 215.412 80.6086C215.49 75.9519 210.834 71.4125 212.908 67.2645C216.508 69.1037 218.151 73.6039 221.791 75.404C224.491 76.7737 227.543 76.3432 230.439 75.2084C232.513 71.4908 234.822 67.9297 237.405 64.5252C237.835 63.9382 238.618 63.3121 239.166 63.7817C239.009 67.4602 239.518 71.1777 240.653 74.6996C241.435 75.6779 242.179 76.6563 242.961 77.5954C251.805 88.7873 260.688 100.018 270.432 110.467C274.267 114.576 278.494 119.154 278.689 124.789C278.728 126.589 277.867 128.624 279.276 129.72C279.941 130.228 282.681 129.798 283.385 130.228C284.794 131.089 284.911 133.437 285.185 135.042C285.811 138.994 285.342 143.103 285.694 147.094C286.085 151.399 286.281 155.86 284.911 159.93C283.581 163.882 280.528 167.482 276.498 168.422C276.146 178.244 275.011 188.223 271.254 197.34C270.237 199.767 269.023 202.154 267.223 204.071C265.384 206.028 262.997 207.397 260.61 208.689C255.953 211.272 250.514 213.776 245.505 211.898C241.866 210.528 239.439 207.163 237.248 203.954C236.583 202.975 235.918 201.958 235.722 200.823C235.565 199.649 236.035 198.319 237.091 197.888C238.813 197.184 240.457 199.023 241.553 200.549C243.235 202.858 245.427 205.049 248.244 205.676C251.492 206.419 254.897 204.893 257.558 202.936C262.449 199.297 266.01 194.014 267.967 188.223C269.884 182.47 270.276 176.248 269.571 170.222C269.376 170.496 268.945 170.613 268.554 170.691C263.388 171.435 258.106 171.513 252.94 170.809C252.079 170.691 251.14 170.535 250.396 170.065C249.144 169.283 248.596 167.795 247.97 166.465C245.74 161.769 241.748 158.208 238.265 154.334C234.783 150.46 231.652 145.764 231.809 140.559C231.965 135.355 236.896 130.15 241.905 131.52C241.787 121.463 241.474 110.78 236.074 102.288C235.565 101.505 234.978 100.684 234.157 100.253C232.239 99.2356 229.969 100.527 227.935 101.192C224.413 102.444 220.186 101.623 217.251 99.2356ZM218.543 89.4917C218.112 88.9047 217.643 88.396 217.134 87.8481C216.86 87.5742 216.586 87.3003 216.234 87.1046C216.117 87.0655 215.999 87.0263 215.882 86.9872C215.021 86.8307 214.316 87.4568 213.808 88.2394C213.573 89.6873 214.238 91.2918 215.451 92.1135C216.704 92.9744 218.504 93.0136 219.795 92.1918C219.912 92.1135 220.03 92.0353 220.069 91.8787C220.108 91.7613 220.03 91.6048 219.952 91.4874C219.521 90.8613 219.051 90.1569 218.543 89.4917Z" fill="black"/>
<path d="M233.41 86.4378C233.175 87.8074 232.94 89.2162 232.236 90.4293C231.531 91.6424 230.279 92.6207 228.909 92.6207C227.305 92.6207 226.053 91.4076 224.996 90.1945C225.27 89.451 225.583 88.7075 226.014 88.0813C226.64 87.1813 227.501 86.4378 228.596 86.2812C228.088 87.3378 228.322 88.7857 228.557 89.9206C228.596 90.0771 228.635 90.2336 228.753 90.3119C228.909 90.4293 229.105 90.4293 229.301 90.351C229.966 90.1162 230.435 89.4901 230.631 88.7857C230.788 88.1596 230.827 87.1422 230.788 86.4378C231.649 86.5552 232.549 86.7508 233.41 86.4378Z" fill="#D5BF4B"/>
<path d="M230.713 86.3622C230.752 87.0666 230.752 88.084 230.557 88.7101C230.361 89.4145 229.891 90.0406 229.226 90.2754C229.03 90.3145 228.835 90.3537 228.678 90.2363C228.561 90.158 228.522 90.0015 228.483 89.8449C228.248 88.7101 228.013 87.2622 228.522 86.2056C229.265 86.0882 230.009 86.2448 230.713 86.3622Z" fill="black"/>
<path d="M219.952 91.6051C220.03 91.7225 220.07 91.8399 220.07 91.9964C220.031 92.1138 219.913 92.2312 219.796 92.3094C218.504 93.1312 216.704 93.0921 215.452 92.2312C214.239 91.3703 213.574 89.805 213.808 88.3571C214.317 87.5744 215.022 86.9092 215.882 87.1048C216 87.144 216.117 87.1831 216.235 87.2222L216.196 87.3005C215.804 88.0049 215.452 88.7484 215.413 89.5702C215.413 90.392 215.804 91.2529 216.548 91.5659C217.213 91.8399 218.23 90.4702 218.543 89.6093C219.052 90.1572 219.522 90.8615 219.952 91.6051Z" fill="#D5BF4B"/>
<path d="M217.136 87.888C217.645 88.3968 218.114 88.9446 218.545 89.5316C218.232 90.4317 217.214 91.7621 216.549 91.4882C215.805 91.1752 215.414 90.3143 215.414 89.4925C215.414 88.6707 215.766 87.9272 216.197 87.2228L216.236 87.1445C216.588 87.3011 216.901 87.6141 217.136 87.888Z" fill="black"/>
<path d="M216.741 98.7664C216.898 98.9229 217.093 99.0794 217.289 99.236C215.059 100.762 212.711 102.054 210.206 103.071C210.05 103.149 209.854 103.188 209.776 103.032C209.697 102.914 209.776 102.797 209.815 102.68C210.754 101.036 212.593 100.097 214.315 99.2751C214.98 98.9621 215.646 98.649 216.35 98.3359C216.428 98.4925 216.585 98.649 216.741 98.7664Z" fill="black"/>
<path d="M214.942 96.6133C215.099 96.8481 215.255 97.122 215.451 97.3568C212.868 98.3351 209.66 99.783 207.077 100.096C206.685 100.135 206.216 100.174 205.864 99.9787C205.825 99.783 206.059 99.6265 206.255 99.5482C208.916 98.3351 212.086 97.3177 214.942 96.6133Z" fill="black"/>
<path d="M213.73 94.0312C213.887 94.5008 214.082 94.9313 214.278 95.4009C211.656 95.7139 208.565 95.9096 205.982 95.7139C205.708 95.7139 205.395 95.6748 205.199 95.4791C206.217 94.6182 207.625 94.4226 208.956 94.3052C210.521 94.1486 212.126 94.0312 213.73 94.0312Z" fill="black"/>
<path fill-rule="evenodd" clip-rule="evenodd" d="M238.368 63.969C238.084 64.1219 237.801 64.4014 237.596 64.6804L237.594 64.683C235.017 68.0798 232.714 71.633 230.644 75.343C230.644 75.343 230.644 75.3429 230.644 75.343L230.057 76.3994L229.715 76.2094L230.302 75.1528C232.38 71.4281 234.693 67.8595 237.282 64.4477C237.507 64.1401 237.831 63.8136 238.182 63.6244C238.535 63.4342 238.965 63.3629 239.327 63.6726L239.399 63.7345L239.395 63.8295C239.239 67.4842 239.745 71.1783 240.872 74.6781C241.3 75.9613 241.806 77.2054 242.389 78.4106L242.036 78.581C241.446 77.3603 240.934 76.1002 240.501 74.801L240.5 74.7991C239.369 71.2887 238.856 67.5851 239 63.9174C238.826 63.8139 238.615 63.8358 238.368 63.969Z" fill="black"/>
<path fill-rule="evenodd" clip-rule="evenodd" d="M238.453 72.1632L238.453 72.1631L238.761 71.9219C239.466 72.8222 240.169 73.7206 240.872 74.5796L240.873 74.5812L240.873 74.5812C241.157 74.9355 241.434 75.288 241.708 75.638C242.197 76.2601 242.679 76.8739 243.179 77.474L243.183 77.4779L243.183 77.4779C252.027 88.6708 260.906 99.8955 270.643 110.337C272.559 112.39 274.586 114.573 276.157 116.952C277.729 119.332 278.853 121.92 278.953 124.786L278.953 124.789C278.963 125.253 278.915 125.73 278.861 126.191C278.853 126.262 278.845 126.332 278.837 126.402C278.791 126.792 278.747 127.169 278.732 127.53C278.699 128.38 278.835 129.079 279.463 129.568C279.518 129.61 279.606 129.65 279.734 129.685C279.86 129.719 280.013 129.744 280.188 129.763C280.539 129.799 280.957 129.807 281.386 129.812C281.423 129.812 281.46 129.812 281.497 129.813C281.886 129.817 282.28 129.821 282.622 129.848C282.81 129.862 282.987 129.883 283.142 129.916C283.295 129.949 283.44 129.995 283.555 130.065C284.326 130.536 284.724 131.401 284.967 132.309C285.139 132.949 285.24 133.641 285.331 134.269C285.37 134.531 285.406 134.782 285.446 135.013L285.446 135.015C285.762 137.007 285.801 139.036 285.806 141.057C285.806 141.346 285.806 141.636 285.806 141.925C285.806 143.657 285.806 145.379 285.957 147.081C286.348 151.386 286.548 155.884 285.164 159.996L284.979 159.934L285.164 159.996C283.82 163.99 280.728 167.656 276.612 168.616C276.611 168.616 276.611 168.616 276.61 168.616L276.603 168.618C276.453 168.655 276.277 168.699 276.096 168.699V168.308C276.224 168.308 276.357 168.276 276.518 168.236L276.521 168.235C280.466 167.316 283.477 163.782 284.794 159.871C286.149 155.844 285.958 151.42 285.567 147.116L285.567 147.115C285.415 145.396 285.415 143.654 285.415 141.922C285.415 141.634 285.415 141.345 285.414 141.058C285.409 139.038 285.37 137.037 285.06 135.077C285.017 134.828 284.979 134.567 284.94 134.299C284.85 133.681 284.754 133.027 284.589 132.411C284.353 131.529 283.989 130.789 283.351 130.399C283.29 130.362 283.195 130.327 283.061 130.299C282.929 130.271 282.771 130.252 282.592 130.238C282.264 130.213 281.883 130.208 281.49 130.204C281.454 130.204 281.418 130.203 281.382 130.203C280.955 130.198 280.519 130.191 280.147 130.152C279.961 130.132 279.785 130.104 279.632 130.063C279.48 130.022 279.337 129.964 279.225 129.879L279.224 129.878C278.444 129.271 278.306 128.406 278.341 127.515C278.356 127.137 278.403 126.743 278.449 126.353C278.457 126.284 278.465 126.215 278.473 126.146C278.526 125.686 278.571 125.233 278.561 124.798C278.465 122.03 277.379 119.512 275.83 117.167C274.28 114.82 272.276 112.66 270.357 110.604L270.357 110.604C260.607 100.149 251.72 88.9128 242.877 77.7226C242.375 77.1193 241.886 76.4977 241.395 75.8728C241.121 75.5242 240.847 75.1745 240.568 74.8265C239.863 73.964 239.157 73.0626 238.453 72.1632Z" fill="black"/>
<path fill-rule="evenodd" clip-rule="evenodd" d="M212.813 67.0391L212.989 67.1289C214.824 68.0666 216.166 69.6675 217.478 71.2317L217.491 71.2471C218.817 72.8282 220.113 74.3698 221.871 75.2683C224.5 76.6015 227.526 76.229 230.356 75.066L230.359 75.0649C231.828 74.485 233.224 73.6714 234.509 72.8145L234.726 73.1401C233.429 74.0048 232.008 74.8345 230.504 75.4285C227.621 76.6129 224.465 77.0228 221.694 75.6171L221.694 75.6169C219.858 74.6792 218.516 73.0782 217.204 71.514L217.191 71.4986C215.91 69.9713 214.657 68.4808 212.989 67.5714C212.117 69.5063 212.706 71.542 213.57 73.712C213.713 74.0693 213.863 74.431 214.014 74.7957C214.331 75.5603 214.654 76.3382 214.922 77.1172C215.321 78.2722 215.61 79.453 215.6 80.6489L215.6 80.6503C215.58 81.917 215.218 83.1066 214.795 84.2655C214.687 84.5622 214.576 84.8562 214.464 85.1489C214.138 86.0084 213.815 86.8577 213.598 87.7377M212.813 67.0391L212.724 67.2156ZM212.724 67.2156C211.645 69.3748 212.318 71.6236 213.207 73.8568ZM213.207 73.8568C213.354 74.2253 213.506 74.5928 213.659 74.9603ZM213.659 74.9603C213.973 75.7185 214.288 76.4769 214.553 77.2447ZM214.553 77.2447C214.944 78.38 215.218 79.5126 215.208 80.6448ZM215.208 80.6448C215.189 81.8432 214.847 82.9818 214.428 84.1315C214.324 84.4167 214.215 84.7035 214.105 84.992C213.776 85.8574 213.441 86.7389 213.218 87.6443C212.7 89.7559 212.82 92.0237 213.496 94.0913L213.497 94.0924C213.62 94.4622 213.768 94.8103 213.917 95.1627C213.961 95.2664 214.006 95.3703 214.049 95.4754L214.051 95.4782L214.052 95.4811C214.252 95.9216 214.492 96.3209 214.725 96.7095L214.73 96.7179L214.732 96.7217C214.772 96.7807 214.813 96.8451 214.856 96.9127C214.972 97.0954 215.103 97.3006 215.252 97.4794L215.253 97.4815C215.525 97.8305 215.805 98.1908 216.127 98.5125L216.557 98.943C216.721 99.1072 216.924 99.2693 217.116 99.4228L217.12 99.426C217.12 99.4262 217.12 99.4263 217.12 99.4265C220.106 101.854 224.362 102.69 228.065 101.495C228.484 101.361 228.911 101.202 229.335 101.045C229.44 101.005 229.545 100.966 229.65 100.928C230.18 100.732 230.705 100.547 231.223 100.413C232.26 100.144 233.241 100.087 234.137 100.544C234.908 100.948 235.472 101.691 235.978 102.508L235.979 102.51C241.338 110.876 241.657 121.393 241.776 131.385C239.274 130.805 236.824 131.794 234.973 133.549C233.06 135.362 231.763 138.012 231.683 140.67C231.524 145.956 234.741 150.702 238.189 154.581L238.19 154.582C238.962 155.441 239.759 156.284 240.555 157.126C240.658 157.235 240.762 157.345 240.865 157.455C241.764 158.407 242.657 159.359 243.51 160.337C245.217 162.292 246.759 164.341 247.863 166.665C247.941 166.83 248.018 166.999 248.096 167.17C248.328 167.678 248.567 168.203 248.85 168.686C249.23 169.337 249.7 169.933 250.363 170.348C251.146 170.843 252.086 171.002 252.985 171.12C258.166 171.787 263.466 171.748 268.648 171.002C268.853 170.982 269.076 170.94 269.28 170.857C269.484 170.775 269.68 170.645 269.807 170.442L269.812 170.434L269.947 170.165L269.952 170.136C269.984 169.944 269.908 169.785 269.796 169.675C269.688 169.57 269.544 169.506 269.408 169.481C269.277 169.457 269.117 169.462 268.989 169.542C268.921 169.584 268.863 169.648 268.833 169.734C268.802 169.818 268.804 169.908 268.825 169.995L269.205 169.9C269.202 169.886 269.201 169.877 269.201 169.871C269.218 169.863 269.264 169.852 269.337 169.866C269.411 169.88 269.48 169.914 269.523 169.955C269.554 169.985 269.568 170.015 269.568 170.048L269.471 170.242C269.402 170.349 269.287 170.432 269.133 170.495C268.975 170.559 268.79 170.595 268.604 170.613L268.6 170.614L268.596 170.614C263.448 171.355 258.183 171.394 253.035 170.731C252.134 170.614 251.274 170.461 250.571 170.017L250.57 170.016C249.981 169.648 249.551 169.11 249.188 168.489C248.916 168.024 248.688 167.525 248.459 167.022C248.379 166.848 248.299 166.673 248.217 166.499L248.217 166.498C247.091 164.127 245.522 162.047 243.805 160.08C242.946 159.096 242.049 158.138 241.15 157.186C241.046 157.076 240.942 156.966 240.839 156.857C240.043 156.015 239.25 155.175 238.481 154.32C235.042 150.451 231.92 145.806 232.074 140.682C232.151 138.136 233.397 135.582 235.242 133.833C237.086 132.085 239.503 131.164 241.923 131.825L242.174 131.894L242.17 131.634C242.053 121.588 241.783 110.847 236.31 102.301C235.798 101.475 235.189 100.653 234.317 100.197L234.316 100.196C233.295 99.6747 232.201 99.7549 231.125 100.034C230.587 100.173 230.046 100.365 229.514 100.561C229.407 100.6 229.301 100.64 229.194 100.679C228.771 100.837 228.355 100.991 227.945 101.123C224.37 102.276 220.251 101.468 217.367 99.1224L217.365 99.1214C217.168 98.9631 216.981 98.8136 216.834 98.6663L216.403 98.2358C216.1 97.9328 215.834 97.5905 215.558 97.2366L215.556 97.234L215.554 97.2315C215.422 97.0726 215.312 96.8998 215.2 96.7235C215.154 96.6522 215.108 96.5803 215.061 96.5086C214.826 96.1182 214.599 95.7381 214.409 95.3219C214.364 95.2122 214.318 95.1055 214.274 95.0006C214.125 94.6513 213.986 94.3226 213.868 93.9693C213.214 91.9672 213.099 89.774 213.598 87.7377" fill="black"/>
<path fill-rule="evenodd" clip-rule="evenodd" d="M275.664 169.52H276.054V169.949H275.664V169.52Z" fill="black"/>
<path fill-rule="evenodd" clip-rule="evenodd" d="M271.057 197.343C274.8 188.257 275.934 178.306 276.286 168.453L276.677 168.467C276.324 178.336 275.188 188.343 271.418 197.493L271.418 197.494C270.398 199.926 269.174 202.339 267.349 204.283C265.486 206.265 263.073 207.647 260.687 208.938C258.357 210.231 255.816 211.512 253.225 212.232C250.632 212.953 247.975 213.117 245.42 212.158C241.714 210.764 239.256 207.343 237.07 204.142C236.408 203.168 235.716 202.117 235.512 200.934L235.512 200.93L235.511 200.927C235.349 199.706 235.829 198.263 237.001 197.785C237.952 197.396 238.867 197.72 239.656 198.302C240.445 198.884 241.144 199.745 241.694 200.512C243.37 202.81 245.525 204.952 248.27 205.562L248.271 205.562C251.435 206.287 254.778 204.802 257.425 202.857C262.28 199.244 265.819 193.997 267.765 188.238C269.671 182.518 270.062 176.326 269.36 170.322L269.359 170.311V170.221H269.75V170.288C270.456 176.334 270.063 182.581 268.136 188.362L268.136 188.363C266.168 194.187 262.585 199.505 257.658 203.171L257.657 203.172C254.981 205.139 251.516 206.707 248.184 205.944C245.295 205.302 243.068 203.061 241.378 200.742L241.377 200.741C240.832 199.982 240.162 199.161 239.424 198.617C238.688 198.075 237.92 197.832 237.149 198.147C236.209 198.53 235.75 199.745 235.899 200.871C236.087 201.957 236.725 202.939 237.393 203.921C239.59 207.138 241.985 210.448 245.557 211.792C248.01 212.712 250.577 212.562 253.12 211.855C255.665 211.148 258.173 209.885 260.498 208.595L260.5 208.594C262.888 207.302 265.249 205.946 267.064 204.015C268.84 202.123 270.042 199.762 271.057 197.343Z" fill="black"/>
<path fill-rule="evenodd" clip-rule="evenodd" d="M230.696 86.5518C229.995 86.3961 229.283 86.2864 228.618 86.3973L228.613 86.398L228.613 86.398C227.593 86.5437 226.774 87.239 226.164 88.1156C225.769 88.69 225.473 89.3718 225.211 90.0725C226.263 91.2744 227.451 92.3872 228.938 92.3872C230.215 92.3872 231.412 91.4692 232.095 90.2932C232.725 89.2079 232.97 87.957 233.19 86.6892C232.357 86.9109 231.483 86.7229 230.696 86.552L230.696 86.5518ZM224.764 90.1729C224.734 90.2673 224.7 90.3631 224.664 90.4626L224.663 90.4655C224.615 90.6005 224.564 90.7424 224.523 90.8855L224.9 90.993C224.937 90.8632 224.983 90.7322 225.033 90.5942L225.034 90.5913C225.045 90.5611 225.055 90.5307 225.066 90.4999C226.085 91.6401 227.335 92.7785 228.938 92.7785C230.4 92.7785 231.707 91.7399 232.433 90.4897C233.146 89.2617 233.389 87.8439 233.619 86.502C233.623 86.479 233.627 86.456 233.631 86.433L233.691 86.0852L233.364 86.2188C232.569 86.5442 231.691 86.3678 230.78 86.1697C230.072 86.0125 229.299 85.8876 228.556 86.0109C227.386 86.1788 226.484 86.97 225.842 87.8926L225.842 87.8926L225.842 87.8935C225.441 88.476 225.142 89.1521 224.886 89.826L224.651 90.0602L224.764 90.1729Z" fill="black"/>
<path fill-rule="evenodd" clip-rule="evenodd" d="M228.059 87.9999C228.034 87.3483 228.103 86.686 228.377 86.1172L228.73 86.2869C228.495 86.7747 228.427 87.3646 228.451 87.9849C228.474 88.6023 228.588 89.2334 228.705 89.7978C228.725 89.8776 228.741 89.9387 228.763 89.9893C228.784 90.0386 228.803 90.0596 228.818 90.0699L228.823 90.0729L228.827 90.0762C228.912 90.1394 229.029 90.1524 229.185 90.0902L229.189 90.0887L229.193 90.0873C229.78 89.8799 230.215 89.3175 230.399 88.6566C230.548 88.0575 230.588 87.0641 230.549 86.3694L230.549 86.364V86.1632L230.94 86.1629V86.3531C230.98 87.0661 230.941 88.1022 230.778 88.754L230.777 88.7589C230.57 89.5045 230.067 90.1921 229.327 90.455C229.093 90.5473 228.823 90.5597 228.597 90.3923C228.498 90.3245 228.44 90.2297 228.403 90.1435C228.367 90.0604 228.344 89.9691 228.326 89.8954L228.323 89.8849L228.323 89.881C228.205 89.3116 228.085 88.6528 228.059 87.9999Z" fill="black"/>
<path fill-rule="evenodd" clip-rule="evenodd" d="M213.634 88.1659C213.632 88.1682 213.631 88.1705 213.629 88.1727L213.628 88.1757C213.426 88.4987 213.263 88.8234 213.141 89.1498L213.507 89.2872C213.523 89.245 213.539 89.2027 213.557 89.1603C213.625 90.4189 214.282 91.6517 215.324 92.3913L215.326 92.393C216.643 93.2981 218.528 93.3392 219.886 92.4751L219.889 92.4728C220.021 92.3851 220.181 92.2371 220.24 92.0588L220.25 92.0287V91.9969C220.25 91.802 220.2 91.6479 220.102 91.5005C219.67 90.7933 219.198 90.0847 218.685 89.4143C218.25 88.8218 217.776 88.2684 217.263 87.7543C216.988 87.4403 216.691 87.1399 216.299 86.9657L216.29 86.9619L215.92 86.8385L215.911 86.8363C215.415 86.7236 214.968 86.8625 214.587 87.1253C214.228 87.3735 213.92 87.7357 213.666 88.1176L213.658 88.1136C213.649 88.1316 213.641 88.149 213.634 88.1659ZM213.989 88.3373C213.989 88.3406 213.989 88.3461 213.989 88.3576V88.3734L213.987 88.389C213.764 89.7612 214.396 91.2525 215.549 92.0713C216.736 92.8868 218.45 92.924 219.674 92.1461C219.762 92.087 219.829 92.015 219.858 91.9602C219.853 91.8629 219.826 91.7911 219.774 91.7141L219.772 91.7109L219.77 91.7076C219.342 91.0076 218.877 90.3091 218.373 89.6505L218.371 89.6473C217.946 89.0683 217.483 88.528 216.981 88.0264L216.977 88.0218L216.972 88.0169C216.703 87.7093 216.455 87.4657 216.148 87.3271L215.815 87.2159C215.454 87.1366 215.121 87.2327 214.809 87.4474C214.505 87.6574 214.23 87.9766 213.989 88.3373Z" fill="black"/>
<path fill-rule="evenodd" clip-rule="evenodd" d="M215.199 89.4843C215.241 88.6142 215.613 87.8368 216.006 87.1289L216.349 87.3189C215.96 88.0184 215.628 88.7266 215.591 89.4982C215.592 90.2714 215.961 91.0372 216.605 91.3087C216.696 91.3457 216.819 91.3366 216.986 91.2476C217.152 91.159 217.334 91.0043 217.515 90.8053C217.875 90.4078 218.193 89.8732 218.341 89.4683C218.382 89.3457 218.408 89.2599 218.408 89.1805H218.799C218.799 89.3301 218.751 89.4737 218.715 89.5831C218.714 89.587 218.712 89.5908 218.711 89.5946L218.709 89.5996L218.709 89.5996C218.544 90.0554 218.197 90.6346 217.805 91.068C217.608 91.2847 217.392 91.4749 217.17 91.5929C216.95 91.7104 216.697 91.7699 216.455 91.6703L216.454 91.6697L216.454 91.6697C215.612 91.3153 215.199 90.3621 215.199 89.4936V89.4889L215.199 89.4843Z" fill="black"/>
<path fill-rule="evenodd" clip-rule="evenodd" d="M208.926 94.1104C210.493 93.9537 212.067 93.8354 213.684 93.8748L213.674 94.266C212.082 94.2272 210.526 94.3437 208.963 94.4999L208.961 94.5001L208.961 94.5001C207.723 94.6094 206.473 94.7847 205.529 95.4605C205.654 95.5027 205.806 95.5183 205.97 95.5183H205.977L205.985 95.5189C208.549 95.7132 211.666 95.519 214.242 95.2067L214.254 95.2053H214.266C214.338 95.2053 214.391 95.2051 214.478 95.1762L214.602 95.5474C214.461 95.5945 214.36 95.5965 214.278 95.5966C211.693 95.9093 208.558 96.1054 205.962 95.9096C205.686 95.909 205.303 95.8717 205.049 95.6176L204.898 95.4672L205.061 95.3298C206.131 94.4243 207.6 94.2274 208.926 94.1104Z" fill="black"/>
<path fill-rule="evenodd" clip-rule="evenodd" d="M215.079 96.3833C215.14 96.3732 215.184 96.3655 215.225 96.3516L215.349 96.7228C215.276 96.7473 215.204 96.7592 215.148 96.7685L215.143 96.7693C215.083 96.7795 215.039 96.7871 214.997 96.8011L214.99 96.8035L214.982 96.8054C212.134 97.5077 208.975 98.5218 206.327 99.6903L206.324 99.6916L206.32 99.6929C206.236 99.7268 206.152 99.7743 206.098 99.8252C206.095 99.8276 206.093 99.83 206.091 99.8322C206.355 99.9228 206.673 99.8987 207.049 99.8645C208.317 99.7104 209.747 99.2767 211.19 98.7549C212.058 98.4412 212.92 98.0999 213.751 97.7706C214.307 97.5506 214.849 97.3359 215.371 97.1383C215.655 97.017 215.937 96.9362 216.207 96.8592L216.212 96.8578L216.319 97.234C216.044 97.3128 215.782 97.3879 215.521 97.4997L215.517 97.5013L215.513 97.5028C215.003 97.6961 214.463 97.9096 213.907 98.1298C213.069 98.4617 212.193 98.8085 211.323 99.1229C209.872 99.6476 208.407 100.094 207.093 100.253L207.09 100.254L207.087 100.254C207.078 100.255 207.069 100.256 207.059 100.257C206.65 100.294 206.167 100.338 205.761 100.113L205.682 100.069L205.665 99.9801C205.626 99.7862 205.73 99.6339 205.83 99.5397C205.932 99.4448 206.062 99.3753 206.172 99.3309C208.843 98.1529 212.019 97.1333 214.881 96.4272C214.952 96.4045 215.02 96.3931 215.074 96.3841L215.079 96.3833Z" fill="black"/>
<path fill-rule="evenodd" clip-rule="evenodd" d="M216.495 98.0183C216.601 97.9702 216.712 97.9197 216.814 97.8789L216.959 98.2422C216.866 98.2794 216.763 98.3263 216.654 98.3757L216.652 98.3768C216.548 98.424 216.439 98.4736 216.338 98.514C215.676 98.8258 215.011 99.1385 214.307 99.4514C212.583 100.274 210.811 101.188 209.904 102.76C209.896 102.783 209.887 102.805 209.879 102.824C209.877 102.829 209.875 102.834 209.874 102.838C209.862 102.867 209.855 102.886 209.851 102.902C209.849 102.913 209.848 102.919 209.848 102.921C209.848 102.921 209.849 102.921 209.849 102.922L209.856 102.932L209.859 102.939C209.864 102.94 209.872 102.942 209.887 102.942C209.906 102.942 209.929 102.939 209.953 102.931C209.977 102.924 209.996 102.914 210.008 102.907L210.025 102.896L210.043 102.888C212.533 101.877 214.869 100.592 217.089 99.0731L217.091 99.0717L217.091 99.0717C217.147 99.0347 217.212 98.9878 217.281 98.9384L217.283 98.9372C217.35 98.8891 217.421 98.8387 217.482 98.7978L217.699 99.1234C217.644 99.1604 217.578 99.2073 217.509 99.2568L217.507 99.258C217.44 99.3058 217.37 99.3559 217.309 99.3967C215.073 100.926 212.719 102.222 210.206 103.244C210.118 103.298 210.001 103.334 209.887 103.334C209.764 103.334 209.603 103.289 209.517 103.129C209.444 103.013 209.449 102.896 209.472 102.807C209.483 102.764 209.498 102.724 209.51 102.694C209.513 102.687 209.515 102.68 209.518 102.673C209.527 102.651 209.534 102.634 209.54 102.616L209.546 102.598L209.555 102.581C210.53 100.876 212.428 99.9146 214.141 99.0971L214.146 99.0948L214.146 99.0949C214.848 98.7828 215.512 98.4706 216.177 98.1575L216.182 98.155L216.188 98.1528C216.281 98.1157 216.384 98.0688 216.492 98.0194L216.495 98.0183Z" fill="black"/>
<path d="M110.57 412.103C111.274 412.259 112.018 412.377 112.722 412.259C113.779 412.064 114.679 411.359 115.266 410.459C115.696 409.794 116.009 409.09 116.283 408.346C115.226 407.133 113.974 405.92 112.409 405.92C111.039 405.92 109.787 406.898 109.083 408.072C108.378 409.285 108.143 410.655 107.909 412.025C108.77 411.712 109.67 411.907 110.57 412.103ZM124.031 399.267C124.227 399.424 124.383 399.581 124.579 399.737C124.736 399.894 124.892 400.011 125.01 400.168C125.323 400.481 125.597 400.833 125.87 401.185C126.066 401.42 126.223 401.655 126.379 401.928C126.614 402.32 126.849 402.711 127.044 403.142C127.24 403.572 127.436 404.042 127.592 404.511C128.258 406.546 128.414 408.777 127.866 410.851C127.279 413.238 125.91 415.429 125.87 417.894C125.792 422.512 130.449 427.051 128.336 431.199C124.736 429.36 123.092 424.899 119.492 423.06C116.792 421.69 113.739 422.121 110.883 423.256C108.809 426.973 106.5 430.534 103.917 433.9C103.487 434.487 102.704 435.074 102.156 434.643C102.313 430.965 101.804 427.286 100.669 423.764C99.8866 422.786 99.1431 421.847 98.3604 420.869C89.5165 409.677 80.7117 398.485 70.9678 388.076C67.1328 383.967 62.9065 379.427 62.75 373.792C62.7108 371.992 63.5718 369.957 62.163 368.862C61.4977 368.353 58.7585 368.783 58.0541 368.353C56.6845 367.492 56.5279 365.144 56.254 363.54C55.6279 359.587 56.0975 355.517 55.7453 351.526C55.354 347.221 55.1583 342.799 56.5279 338.691C57.8193 334.738 60.9108 331.138 64.9023 330.199C65.2153 320.377 66.3893 310.437 70.146 301.358C71.1634 298.932 72.3374 296.545 74.1375 294.628C75.9767 292.671 78.3638 291.301 80.7117 290.01C85.3685 287.466 90.7687 284.962 95.7385 286.801C99.3779 288.132 101.804 291.497 103.956 294.706C104.622 295.684 105.287 296.662 105.443 297.836C105.6 298.971 105.13 300.341 104.074 300.771C102.352 301.476 100.708 299.637 99.6126 298.11C97.93 295.802 95.7385 293.61 92.921 292.984C89.673 292.241 86.3076 293.728 83.6075 295.723C78.716 299.323 75.1549 304.645 73.2374 310.398C71.32 316.15 70.9286 322.333 71.633 328.36C71.8287 328.086 72.2591 327.968 72.6505 327.89C77.8159 327.147 83.0597 327.068 88.2251 327.773C89.086 327.89 89.9861 328.047 90.7687 328.516C92.021 329.299 92.5688 330.786 93.1949 332.116C95.4255 336.812 99.417 340.373 102.861 344.208C106.343 348.082 109.474 352.739 109.317 357.944C109.161 363.109 104.23 368.314 99.2213 366.944C99.3387 377.001 99.6518 387.606 105.052 396.098C105.561 396.88 106.148 397.702 106.97 398.133C108.887 399.15 111.118 397.859 113.192 397.193C116.909 396.059 121.096 396.88 124.031 399.267ZM122.74 408.972C123.17 409.559 123.64 410.068 124.149 410.616C124.423 410.89 124.696 411.164 125.049 411.32C125.166 411.359 125.283 411.398 125.401 411.438C126.262 411.594 126.966 410.968 127.475 410.185C127.71 408.737 127.044 407.133 125.831 406.311C124.579 405.45 122.779 405.411 121.488 406.233C121.37 406.311 121.253 406.39 121.214 406.546C121.175 406.663 121.253 406.82 121.331 406.937C121.762 407.603 122.192 408.307 122.74 408.972Z" fill="black"/>
<path d="M107.91 412.024C108.145 410.654 108.38 409.245 109.084 408.071C109.789 406.858 111.041 405.88 112.41 405.919C113.976 405.919 115.267 407.132 116.284 408.345C116.011 409.089 115.698 409.793 115.267 410.458C114.68 411.358 113.78 412.102 112.723 412.259C113.232 411.202 112.997 409.793 112.763 408.619C112.723 408.463 112.684 408.306 112.567 408.228C112.41 408.111 112.215 408.111 112.019 408.189C111.354 408.424 110.884 409.05 110.689 409.754C110.532 410.38 110.493 411.398 110.532 412.102C109.671 411.906 108.771 411.711 107.91 412.024Z" fill="#D5BF4B"/>
<path d="M110.567 412.105C110.528 411.4 110.528 410.383 110.724 409.757C110.92 409.052 111.389 408.426 112.054 408.191C112.25 408.152 112.446 408.113 112.602 408.231C112.72 408.309 112.759 408.465 112.798 408.622C113.033 409.757 113.267 411.205 112.759 412.261C112.015 412.379 111.311 412.222 110.567 412.105Z" fill="black"/>
<path d="M121.328 406.899C121.25 406.781 121.211 406.664 121.211 406.507C121.25 406.39 121.367 406.272 121.485 406.194C122.776 405.372 124.537 405.412 125.829 406.272C127.042 407.133 127.707 408.699 127.472 410.147C126.963 410.929 126.259 411.594 125.398 411.399C125.281 411.36 125.163 411.321 125.046 411.281L125.085 411.203C125.476 410.499 125.829 409.755 125.868 408.933C125.868 408.112 125.476 407.251 124.733 406.938C124.068 406.664 123.05 408.033 122.737 408.894C122.189 408.307 121.759 407.603 121.328 406.899Z" fill="#D5BF4B"/>
<path d="M124.108 410.617C123.599 410.108 123.13 409.561 122.699 408.974C123.012 408.073 124.03 406.743 124.695 407.017C125.438 407.33 125.83 408.191 125.83 409.013C125.83 409.834 125.478 410.578 125.047 411.282L125.008 411.361C124.695 411.165 124.382 410.891 124.108 410.617Z" fill="black"/>
<path d="M124.544 399.74C124.387 399.584 124.192 399.427 123.996 399.271C126.188 397.744 128.575 396.453 131.079 395.436C131.236 395.357 131.431 395.318 131.51 395.475C131.588 395.592 131.51 395.71 131.47 395.827C130.531 397.471 128.692 398.41 126.97 399.232C126.305 399.545 125.64 399.858 124.974 400.171C124.857 400.014 124.7 399.858 124.544 399.74Z" fill="black"/>
<path d="M126.337 401.89C126.18 401.655 126.024 401.381 125.828 401.146C128.411 400.207 131.62 398.72 134.163 398.407C134.555 398.368 135.024 398.329 135.376 398.524C135.416 398.72 135.181 398.877 134.985 398.955C132.324 400.168 129.154 401.185 126.337 401.89Z" fill="black"/>
<path d="M127.552 404.436C127.395 403.966 127.2 403.535 127.004 403.066C129.626 402.753 132.717 402.596 135.3 402.753C135.574 402.753 135.887 402.792 136.083 402.988C135.065 403.849 133.656 404.044 132.326 404.162C130.721 404.357 129.156 404.475 127.552 404.436Z" fill="black"/>
<path fill-rule="evenodd" clip-rule="evenodd" d="M99.2741 419.875C99.8648 421.096 100.377 422.356 100.81 423.655L100.81 423.657C101.941 427.165 102.454 430.828 102.311 434.493C102.486 434.585 102.699 434.561 102.945 434.432C103.229 434.283 103.511 434.014 103.714 433.736L103.717 433.733C106.293 430.376 108.597 426.823 110.667 423.113C110.667 423.113 110.667 423.113 110.667 423.113L111.254 422.057L111.596 422.247L111.009 423.303C108.931 427.028 106.617 430.597 104.029 433.97C103.801 434.279 103.477 434.595 103.126 434.779C102.775 434.963 102.35 435.032 101.99 434.75L101.911 434.688L101.916 434.587C102.071 430.933 101.566 427.278 100.438 423.778C100.01 422.495 99.505 421.251 98.9219 420.045L99.2741 419.875Z" fill="black"/>
<path fill-rule="evenodd" clip-rule="evenodd" d="M65.3254 330.27C65.1971 330.27 65.0644 330.302 64.9032 330.343L64.9006 330.343L64.9006 330.343C60.9944 331.262 57.9444 334.797 56.6674 338.705L56.6671 338.706C55.3115 342.773 55.5024 347.159 55.8937 351.462L55.8937 351.463C56.0455 353.183 56.0454 354.917 56.0454 356.641C56.0454 356.928 56.0454 357.215 56.0461 357.501C56.051 359.51 56.0903 361.502 56.4006 363.462C56.4395 363.69 56.4757 363.929 56.5128 364.175C56.6089 364.812 56.7115 365.491 56.8854 366.127C57.1266 367.01 57.491 367.75 58.1105 368.14C58.1713 368.177 58.2662 368.212 58.3997 368.24C58.5316 368.268 58.6896 368.288 58.8682 368.301C59.1964 368.327 59.5776 368.331 59.9706 368.335C60.0066 368.335 60.0428 368.336 60.079 368.336C60.5056 368.341 60.9414 368.348 61.3133 368.387C61.4996 368.407 61.6751 368.435 61.8288 368.476C61.9805 368.517 62.1236 368.575 62.2354 368.66L62.2366 368.661C63.0168 369.268 63.1542 370.133 63.1191 371.024C63.1043 371.402 63.0578 371.797 63.0119 372.186C63.0038 372.255 62.9957 372.324 62.9877 372.393C62.9346 372.853 62.8897 373.306 62.8991 373.741C62.9761 376.51 64.0526 379.018 65.5962 381.352C67.1411 383.689 69.1448 385.839 71.0643 387.896C80.5752 398.056 89.1912 408.961 97.8156 419.876C98.0328 420.151 98.2499 420.426 98.4671 420.701C98.8585 421.19 99.24 421.669 99.6214 422.149L99.6216 422.149C100.003 422.628 100.384 423.107 100.776 423.596L100.777 423.598C101.128 424.047 101.48 424.486 101.832 424.927C102.184 425.367 102.537 425.808 102.89 426.259L102.582 426.5C102.23 426.051 101.879 425.611 101.527 425.171C101.175 424.731 100.822 424.29 100.469 423.84C100.078 423.351 99.6965 422.871 99.3152 422.392L99.3151 422.392C98.9336 421.913 98.5522 421.434 98.1611 420.945L98.1604 420.944C97.9444 420.67 97.7285 420.397 97.5126 420.124C88.8851 409.205 80.278 398.311 70.7784 388.163L70.7782 388.163C68.8628 386.111 66.8358 383.937 65.2698 381.568C63.7024 379.197 62.5875 376.618 62.5079 373.752L62.5079 373.751C62.4978 373.286 62.5458 372.809 62.599 372.348C62.6072 372.277 62.6154 372.207 62.6236 372.137C62.6696 371.747 62.7139 371.37 62.7281 371.009C62.7615 370.159 62.6251 369.459 61.997 368.971C61.9425 368.929 61.8546 368.889 61.7269 368.854C61.6007 368.82 61.4475 368.795 61.2725 368.777C60.9217 368.74 60.5039 368.732 60.0745 368.728C60.0377 368.727 60.0009 368.727 59.964 368.726C59.5744 368.722 59.1801 368.718 58.8383 368.692C58.6506 368.677 58.4739 368.656 58.3186 368.623C58.1654 368.59 58.0209 368.544 57.9056 368.474L57.9035 368.473C57.1541 368.001 56.7558 367.138 56.5079 366.231C56.3275 365.57 56.2194 364.854 56.1222 364.211C56.0859 363.971 56.0511 363.74 56.0147 363.527L56.0143 363.524L56.0143 363.524C55.6986 361.532 55.6597 359.513 55.6548 357.502C55.6541 357.214 55.6541 356.926 55.6541 356.638C55.654 354.914 55.654 353.199 55.5039 351.497C55.1125 347.192 54.9122 342.734 56.2956 338.583C57.6014 334.587 60.7337 330.922 64.8096 329.963L64.8183 329.961C64.9681 329.923 65.1446 329.879 65.3254 329.879V330.27Z" fill="black"/>
<path fill-rule="evenodd" clip-rule="evenodd" d="M72.7333 327.649C77.915 326.903 83.1751 326.864 88.3567 327.531C89.2558 327.649 90.1958 327.809 90.9795 328.303C90.9796 328.303 90.9794 328.303 90.9795 328.303L90.8754 328.469L90.9791 328.303C90.9792 328.303 90.9794 328.303 90.9795 328.303C91.6425 328.718 92.112 329.315 92.4922 329.965C92.7747 330.448 93.0143 330.973 93.246 331.481C93.324 331.652 93.4011 331.821 93.4786 331.986L93.4789 331.986C94.5635 334.311 96.0958 336.349 97.7974 338.294C98.6482 339.267 99.5397 340.215 100.438 341.163C100.53 341.26 100.622 341.358 100.714 341.455C101.521 342.306 102.33 343.159 103.113 344.03C106.601 347.91 109.779 352.617 109.62 357.902C109.54 360.561 108.242 363.202 106.33 365.004C104.478 366.75 102.028 367.729 99.5266 367.149C99.5256 367.064 99.5246 366.979 99.5236 366.895L99.3279 366.897L99.2763 367.086C99.3598 367.109 99.4432 367.13 99.5266 367.149C99.6468 377.139 100.003 387.618 105.324 395.945L105.325 395.948C105.831 396.765 106.395 397.507 107.166 397.912C107.166 397.912 107.165 397.911 107.165 397.911L107.076 398.085L107.167 397.912C107.167 397.912 107.166 397.912 107.166 397.912C108.062 398.368 109.042 398.312 110.079 398.043C110.598 397.908 111.123 397.723 111.653 397.528C111.758 397.489 111.863 397.45 111.968 397.411C112.392 397.253 112.818 397.095 113.238 396.96L113.298 397.146L113.238 396.96C113.238 396.96 113.238 396.96 113.238 396.96M124.144 399.029C124.144 399.029 124.143 399.029 124.143 399.029ZM124.144 399.029L124.148 399.033C124.34 399.186 124.543 399.348 124.707 399.512L125.141 399.947L125.145 399.951C125.458 400.303 125.735 400.619 126.012 400.976C126.161 401.155 126.291 401.36 126.408 401.543C126.451 401.61 126.492 401.675 126.531 401.734L126.534 401.737L126.536 401.741L126.538 401.745C126.772 402.134 127.011 402.534 127.212 402.974L127.213 402.977L127.214 402.98C127.258 403.085 127.302 403.189 127.346 403.292C127.496 403.645 127.644 403.993 127.767 404.363L127.767 404.364C128.443 406.432 128.563 408.699 128.045 410.811C127.822 411.718 127.486 412.607 127.157 413.479C127.048 413.767 126.939 414.053 126.836 414.338C126.417 415.494 126.074 416.632 126.055 417.811C126.036 418.933 126.303 420.059 126.689 421.189C126.952 421.958 127.266 422.718 127.58 423.479C127.729 423.841 127.879 424.202 128.023 424.565C128.907 426.793 129.58 429.042 128.5 431.201L128.412 431.377L128.236 431.287C126.4 430.349 125.067 428.748 123.766 427.184L123.753 427.169C122.437 425.587 121.15 424.046 119.392 423.148C116.764 421.815 113.777 422.187 110.947 423.35C109.473 423.97 108.076 424.747 106.793 425.602L106.576 425.276C107.877 424.409 109.296 423.62 110.796 422.989L110.798 422.988C113.681 421.803 116.798 421.393 119.57 422.799L119.57 422.799C121.406 423.737 122.739 425.339 124.041 426.903L124.053 426.918C125.325 428.445 126.568 429.936 128.236 430.845C129.108 428.91 128.518 426.874 127.659 424.709C127.519 424.357 127.372 424.002 127.224 423.643C126.907 422.876 126.585 422.096 126.318 421.315C125.926 420.165 125.644 418.992 125.664 417.805M93.1244 332.152C93.0425 331.978 92.9627 331.803 92.8831 331.629C92.6536 331.126 92.426 330.627 92.1543 330.162C91.7911 329.541 91.3607 329.003 90.7717 328.635L90.7709 328.634C90.0677 328.19 89.2074 328.037 88.3065 327.92C83.1587 327.257 77.9328 327.296 72.785 328.037L72.7808 328.037L72.7765 328.038C72.5913 328.056 72.406 328.092 72.2485 328.156C72.0943 328.219 71.9795 328.302 71.9101 328.409L71.8133 328.603C71.8135 328.636 71.8275 328.666 71.8585 328.696C71.9011 328.737 71.9699 328.771 72.0445 328.785C72.1169 328.799 72.163 328.788 72.1803 328.78C72.1802 328.774 72.1794 328.765 72.1759 328.751L72.5556 328.656C72.5773 328.743 72.5787 328.833 72.5484 328.917C72.5176 329.003 72.4597 329.067 72.3919 329.109C72.2643 329.189 72.1042 329.195 71.9729 329.17C71.8372 329.145 71.6932 329.081 71.5853 328.976C71.4729 328.866 71.3973 328.707 71.4292 328.515L71.4341 328.486L71.5688 328.217L71.5737 328.209C71.7006 328.006 71.8971 327.876 72.1015 327.794C72.3046 327.711 72.5284 327.669 72.7333 327.649" fill="black"/>
<path fill-rule="evenodd" clip-rule="evenodd" d="M65.7615 329.172H65.3711V328.742H65.7615V329.172Z" fill="black"/>
<path fill-rule="evenodd" clip-rule="evenodd" d="M88.1959 286.943C85.6653 287.651 83.1675 288.903 80.8412 290.174C78.4914 291.467 76.1308 292.823 74.3156 294.754C72.5407 296.645 71.3776 299.004 70.3621 301.426C66.6189 310.472 65.4852 320.384 65.1333 330.238L64.7422 330.224C65.0947 320.354 66.2306 310.387 70.0007 301.276L70.001 301.275C71.0203 298.845 72.2052 296.43 74.0303 294.486C75.8935 292.504 78.307 291.121 80.6529 289.831L80.6534 289.831C82.9837 288.558 85.5144 287.287 88.0905 286.566C90.6682 285.845 93.3055 285.672 95.8415 286.61C99.5488 287.966 102.007 291.388 104.154 294.589C104.154 294.589 104.154 294.589 104.154 294.589L104.166 294.606C104.822 295.572 105.51 296.583 105.673 297.803C105.673 297.803 105.673 297.803 105.673 297.803L105.479 297.829L105.673 297.802C105.673 297.802 105.673 297.803 105.673 297.803C105.756 298.404 105.673 299.066 105.429 299.637C105.185 300.209 104.771 300.705 104.183 300.945C104.183 300.945 104.183 300.945 104.183 300.945C103.232 301.334 102.317 301.009 101.528 300.427C100.739 299.846 100.04 298.984 99.4896 298.218C99.4897 298.218 99.4899 298.218 99.49 298.218L99.6481 298.103L99.4892 298.217C99.4893 298.217 99.4895 298.217 99.4896 298.218C97.8145 295.919 95.6595 293.778 92.914 293.168L92.9128 293.167C89.7488 292.443 86.4436 293.889 83.7593 295.873L83.759 295.873C78.9043 299.446 75.3651 304.733 73.4585 310.452C71.5518 316.173 71.1611 322.326 71.8628 328.33L71.8641 328.341V328.43H71.4728V328.364C71.4733 328.367 71.4737 328.371 71.4741 328.375L71.6685 328.352H71.4728V328.364C70.7676 322.318 71.1603 316.11 73.0873 310.329C75.0157 304.543 78.5984 299.186 83.5267 295.558L83.643 295.716L83.527 295.558C83.5269 295.558 83.5268 295.558 83.5267 295.558C86.2424 293.551 89.6678 292.023 92.9995 292.786C92.9993 292.786 92.9991 292.786 92.9989 292.786L92.9565 292.977L93.0001 292.786C92.9999 292.786 92.9997 292.786 92.9995 292.786C95.8887 293.428 98.1161 295.669 99.8062 297.988L99.8071 297.989C100.352 298.748 101.022 299.569 101.76 300.112C102.496 300.655 103.264 300.898 104.035 300.583C104.503 300.392 104.853 299.988 105.069 299.484C105.285 298.979 105.359 298.389 105.285 297.856L105.285 297.855C105.136 296.734 104.5 295.794 103.83 294.808L103.829 294.807C101.672 291.591 99.2778 288.283 95.7068 286.977L95.7061 286.977C93.2725 286.077 90.7248 286.236 88.1959 286.943Z" fill="black"/>
<path fill-rule="evenodd" clip-rule="evenodd" d="M112.437 406.15C111.165 406.114 109.969 407.028 109.285 408.205L109.284 408.208C108.654 409.258 108.409 410.507 108.189 411.778C108.988 411.581 109.854 411.735 110.644 411.907C111.387 412.063 112.059 412.173 112.723 412.062L112.727 412.061C113.711 411.916 114.568 411.218 115.135 410.348C115.529 409.739 115.824 409.094 116.083 408.408C115.08 407.23 113.869 406.15 112.442 406.15H112.44L112.437 406.15ZM116.528 408.316C116.561 408.212 116.598 408.107 116.638 407.997L116.639 407.994C116.687 407.859 116.738 407.717 116.779 407.574L116.402 407.466C116.365 407.596 116.319 407.727 116.269 407.865L116.268 407.868C116.255 407.904 116.242 407.941 116.229 407.978C115.245 406.857 113.982 405.76 112.445 405.759C110.98 405.718 109.673 406.76 108.948 408.007C108.234 409.198 107.991 410.616 107.761 411.956C107.757 411.98 107.753 412.003 107.749 412.026L107.691 412.364L108.012 412.242C108.773 411.952 109.657 412.093 110.562 412.29L110.563 412.29C111.307 412.446 112.042 412.572 112.786 412.448C113.914 412.28 114.857 411.491 115.463 410.562L115.463 410.561C115.843 409.975 116.132 409.361 116.381 408.722L116.413 408.754L116.69 408.477L116.528 408.316Z" fill="black"/>
<path fill-rule="evenodd" clip-rule="evenodd" d="M112.674 408.063C112.773 408.131 112.831 408.226 112.868 408.312C112.904 408.395 112.926 408.486 112.945 408.56L112.948 408.571L112.949 408.576C113.066 409.163 113.186 409.822 113.211 410.47C113.237 411.118 113.168 411.77 112.894 412.338L112.541 412.169C112.776 411.681 112.844 411.1 112.82 410.485C112.797 409.873 112.683 409.242 112.566 408.657C112.546 408.578 112.53 408.517 112.508 408.466C112.487 408.417 112.468 408.396 112.453 408.386L112.448 408.383L112.444 408.379C112.359 408.316 112.242 408.303 112.086 408.365L112.082 408.367L112.078 408.368C111.491 408.576 111.056 409.138 110.872 409.799C110.723 410.398 110.683 411.391 110.722 412.086L110.722 412.092V412.292L110.331 412.293V412.102C110.291 411.389 110.33 410.353 110.493 409.702L110.494 409.697C110.701 408.951 111.204 408.263 111.944 408.001C112.178 407.908 112.448 407.896 112.674 408.063Z" fill="black"/>
<path fill-rule="evenodd" clip-rule="evenodd" d="M121.549 406.351C121.461 406.41 121.394 406.482 121.365 406.537C121.37 406.634 121.397 406.706 121.449 406.783L121.451 406.786L121.453 406.789C121.88 407.489 122.346 408.188 122.85 408.846L122.852 408.849C123.277 409.428 123.74 409.969 124.242 410.47C124.518 410.747 124.765 410.991 125.074 411.131L125.408 411.242C125.769 411.321 126.102 411.225 126.413 411.01C126.718 410.8 126.994 410.48 127.235 410.118L127.236 410.108C127.459 408.736 126.827 407.245 125.675 406.426C124.447 405.609 122.772 405.574 121.549 406.351ZM127.664 409.302C127.586 408.055 126.932 406.838 125.899 406.105L125.897 406.104L125.894 406.102C124.541 405.2 122.696 405.157 121.337 406.022L121.334 406.024C121.202 406.112 121.042 406.26 120.983 406.438L120.973 406.468V406.5C120.973 406.695 121.023 406.849 121.121 406.996C121.553 407.703 122.025 408.412 122.538 409.082C122.974 409.677 123.45 410.232 123.965 410.747L123.976 410.758C124.242 411.025 124.538 411.321 124.924 411.492L124.932 411.496L125.303 411.619L125.312 411.621C125.808 411.734 126.255 411.595 126.636 411.332C126.986 411.09 127.287 410.74 127.538 410.369L127.565 410.383C127.589 410.336 127.605 410.293 127.614 410.252C127.807 409.939 127.964 409.624 128.082 409.308L127.716 409.17C127.699 409.214 127.682 409.258 127.664 409.302Z" fill="black"/>
<path fill-rule="evenodd" clip-rule="evenodd" d="M124.047 406.866C124.267 406.749 124.52 406.689 124.762 406.789L124.764 406.789L124.764 406.789C125.605 407.144 126.018 408.097 126.018 408.965V408.97L126.018 408.975C125.976 409.845 125.604 410.622 125.211 411.33L124.869 411.14C125.257 410.441 125.589 409.732 125.627 408.961C125.625 408.188 125.256 407.422 124.613 407.15C124.522 407.113 124.398 407.122 124.231 407.211C124.065 407.3 123.883 407.455 123.703 407.654C123.343 408.051 123.024 408.586 122.877 408.991C122.836 409.113 122.809 409.199 122.809 409.278H122.418C122.418 409.129 122.466 408.985 122.502 408.876C122.504 408.872 122.505 408.868 122.506 408.864L122.508 408.859L122.508 408.859C122.674 408.404 123.02 407.824 123.413 407.391C123.609 407.174 123.826 406.984 124.047 406.866Z" fill="black"/>
<path fill-rule="evenodd" clip-rule="evenodd" d="M135.26 402.586C135.537 402.587 135.92 402.624 136.174 402.878L136.324 403.029L136.162 403.166C135.092 404.072 133.623 404.268 132.297 404.385C130.73 404.542 129.116 404.66 127.539 404.621L127.549 404.23C129.102 404.269 130.697 404.152 132.259 403.996L132.262 403.996L132.262 403.996C133.5 403.886 134.749 403.711 135.693 403.035C135.569 402.993 135.417 402.977 135.253 402.977H135.246L135.238 402.977C132.673 402.783 129.596 402.977 126.98 403.289L126.969 403.291H126.957C126.884 403.291 126.832 403.291 126.745 403.32L126.621 402.948C126.762 402.901 126.863 402.899 126.945 402.899C129.568 402.587 132.665 402.39 135.26 402.586Z" fill="black"/>
<path fill-rule="evenodd" clip-rule="evenodd" d="M134.135 398.241C134.544 398.204 135.028 398.16 135.433 398.385L135.512 398.429L135.53 398.518C135.569 398.712 135.465 398.864 135.364 398.958C135.263 399.053 135.133 399.122 135.023 399.167C132.39 400.345 129.174 401.365 126.353 402.071C126.282 402.093 126.213 402.105 126.159 402.114L126.154 402.115C126.094 402.125 126.05 402.132 126.008 402.146L125.884 401.775C125.958 401.751 126.029 401.739 126.085 401.729L126.09 401.729C126.151 401.718 126.195 401.711 126.236 401.697L126.244 401.694L126.251 401.693C129.061 400.99 132.258 399.976 134.867 398.808L134.87 398.806L134.874 398.805C134.959 398.771 135.042 398.724 135.096 398.673C135.099 398.67 135.101 398.668 135.104 398.666C134.84 398.575 134.522 398.599 134.145 398.633C132.878 398.787 131.458 399.221 130.024 399.743C129.183 400.049 128.35 400.38 127.542 400.702C126.967 400.93 126.405 401.154 125.863 401.36C125.579 401.481 125.296 401.562 125.027 401.639L125.022 401.64L124.914 401.264C125.19 401.185 125.452 401.11 125.713 400.998L125.716 400.997L125.72 400.995C126.249 400.795 126.809 400.572 127.385 400.343C128.2 400.019 129.049 399.681 129.89 399.375C131.332 398.85 132.787 398.404 134.101 398.245L134.104 398.244L134.107 398.244C134.116 398.243 134.126 398.242 134.135 398.241Z" fill="black"/>
<path fill-rule="evenodd" clip-rule="evenodd" d="M131.671 395.365C131.744 395.481 131.738 395.598 131.716 395.687C131.705 395.73 131.69 395.769 131.678 395.8C131.675 395.807 131.672 395.814 131.67 395.821C131.661 395.843 131.654 395.86 131.648 395.877L131.641 395.898L131.631 395.916C130.618 397.617 128.762 398.578 127.046 399.397L127.046 399.397L125.045 400.339L125.039 400.341C124.946 400.378 124.843 400.425 124.734 400.474L124.732 400.476C124.626 400.524 124.515 400.574 124.413 400.615L124.268 400.252C124.36 400.214 124.464 400.168 124.572 400.118L124.575 400.117C124.679 400.07 124.788 400.02 124.888 399.98L126.878 399.044C126.878 399.043 126.878 399.043 126.878 399.043C128.6 398.222 130.338 397.308 131.284 395.732C131.292 395.71 131.301 395.688 131.308 395.67C131.31 395.665 131.312 395.66 131.314 395.656C131.325 395.627 131.332 395.608 131.336 395.592C131.339 395.581 131.339 395.575 131.339 395.573C131.339 395.573 131.339 395.572 131.339 395.572L131.332 395.562L131.328 395.555C131.324 395.553 131.315 395.551 131.301 395.551C131.282 395.551 131.258 395.555 131.234 395.562C131.21 395.57 131.191 395.579 131.18 395.587L131.164 395.598L131.146 395.605C128.693 396.617 126.318 397.902 124.099 399.421L124.097 399.422C124.041 399.459 123.975 399.506 123.906 399.555L123.904 399.557C123.837 399.605 123.767 399.655 123.705 399.696L123.488 399.37C123.544 399.333 123.61 399.286 123.679 399.237L123.68 399.236C123.747 399.188 123.817 399.138 123.879 399.097C126.115 397.567 128.509 396.271 130.981 395.25C131.069 395.196 131.186 395.16 131.301 395.16C131.424 395.16 131.585 395.205 131.671 395.365Z" fill="black"/>
<path d="M157.825 230.366V221.583H133.124L151.329 198.437C154.989 193.772 156.636 188.831 156.636 183.8C156.636 172.364 148.859 165.594 138.064 165.594C127.634 165.594 120.133 172.913 119.401 182.427L128.549 184.166C129.281 178.31 132.483 174.376 138.064 174.376C143.919 174.376 146.847 178.31 146.847 184.166C146.847 187.916 145.932 190.844 141.723 196.059L118.12 226.341V230.366H157.825Z" fill="black"/>
<path d="M180.589 180.049V230.366H190.287V166.326H186.353L168.605 176.938V187.185L180.589 180.049Z" fill="black"/>
<path d="M206.158 224.054C206.158 227.988 209.178 230.824 212.928 230.824C216.679 230.824 219.698 227.988 219.698 224.054C219.698 220.12 216.679 217.284 212.928 217.284C209.178 217.284 206.158 220.12 206.158 224.054Z" fill="black"/>
<path d="M117.754 289.916C117.754 310.043 125.713 322.668 140.809 322.668C155.904 322.668 163.863 310.043 163.863 289.916C163.863 269.789 155.904 257.163 140.809 257.163C125.713 257.163 117.754 269.789 117.754 289.916ZM127.451 289.916C127.451 274.912 131.751 265.946 140.809 265.946C149.866 265.946 154.166 274.912 154.166 289.916C154.166 304.919 149.866 313.885 140.809 313.885C131.751 313.885 127.451 304.919 127.451 289.916Z" fill="black"/>
<path d="M199.875 309.128V321.936H209.573V309.128H217.075V300.345H209.573V257.895H199.326L172.246 304.736V309.128H199.875ZM199.875 272.533V300.345H184.322L199.875 272.533Z" fill="black"/>
<path d="M230.192 315.623C230.192 319.557 233.211 322.393 236.962 322.393C240.712 322.393 243.732 319.557 243.732 315.623C243.732 311.689 240.712 308.853 236.962 308.853C233.211 308.853 230.192 311.689 230.192 315.623Z" fill="black"/>
<path d="M71.7087 66.8359C62.7474 66.8359 55.4688 74.3493 55.4688 83.6237C55.4688 92.8981 62.7474 100.411 71.7087 100.411C80.67 100.411 87.9486 92.8981 87.9486 83.6237C87.9095 74.3493 80.67 66.8359 71.7087 66.8359ZM66.0345 96.0287H63.6474V75.6407H61.5343V73.2928H65.9953V96.0287H66.0345ZM75.2697 96.4983C71.8261 96.4983 68.8911 94.1894 67.8737 90.9415L70.0651 90.1588C70.7695 92.4676 72.8044 94.1503 75.2306 94.1503C78.2829 94.1503 80.67 91.6067 80.67 88.437C80.67 85.3064 78.2438 82.7237 75.2306 82.7237C73.8218 82.7237 73.1174 82.9193 72.4131 83.2324L71.2391 81.041L76.835 75.6407H69.7521V73.2928H80.7482V75.1711L74.761 80.7279L75.348 80.6497C79.6525 80.6497 83.0571 83.9759 83.0571 88.437C83.0962 92.8981 79.5743 96.4983 75.2697 96.4983Z" fill="#0E0F0F"/>
<path d="M270.502 431.548C279.463 431.548 286.742 424.035 286.742 414.76C286.742 405.486 279.463 397.973 270.502 397.973C261.54 397.973 254.262 405.486 254.262 414.76C254.301 423.996 261.54 431.548 270.502 431.548ZM276.176 402.355H278.563V422.743H280.676V425.091H276.215V402.355H276.176ZM266.901 401.886C270.345 401.886 273.28 404.195 274.297 407.443L272.106 408.225C271.402 405.917 269.367 404.234 266.941 404.234C263.888 404.234 261.501 406.777 261.501 409.947C261.501 413.078 263.927 415.66 266.941 415.66C268.349 415.66 269.054 415.465 269.758 415.152L270.932 417.343L265.336 422.743H272.419V425.091H261.423V423.213L267.41 417.656L266.823 417.735C262.519 417.735 259.114 414.408 259.114 409.947C259.114 405.486 262.636 401.886 266.901 401.886Z" fill="#0E0F0F"/>
</g>
<defs>
<filter id="filter0_d" x="0.671875" y="0.269531" width="339.06" height="504.589" filterUnits="userSpaceOnUse" color-interpolation-filters="sRGB">
<feFlood flood-opacity="0" result="BackgroundImageFix"/>
<feColorMatrix in="SourceAlpha" type="matrix" values="0 0 0 0 0 0 0 0 0 0 0 0 0 0 0 0 0 0 127 0"/>
<feOffset dy="4"/>
<feGaussianBlur stdDeviation="2"/>
<feColorMatrix type="matrix" values="0 0 0 0 0 0 0 0 0 0 0 0 0 0 0 0 0 0 0.25 0"/>
<feBlend mode="normal" in2="BackgroundImageFix" result="effect1_dropShadow"/>
<feBlend mode="normal" in="SourceGraphic" in2="effect1_dropShadow" result="shape"/>
</filter>
</defs>
</svg>
