<svg width="340" height="505" viewBox="0 0 340 505" fill="none" xmlns="http://www.w3.org/2000/svg">
<g filter="url(#filter0_d)">
<path d="M335.88 60.3398C335.88 27.2028 309.017 0.339844 275.88 0.339844L64.418 0.339844C31.2809 0.339844 4.41797 27.2027 4.41797 60.3398L4.41797 436.176C4.41797 469.313 31.2808 496.176 64.4179 496.176H275.88C309.017 496.176 335.88 469.313 335.88 436.176V60.3398Z" fill="white"/>
<path d="M249.769 451.323H90.5311C59.5308 451.323 34.4297 426.251 34.4297 395.375L34.4297 101.222C34.4297 70.3061 59.5704 45.2734 90.5311 45.2734L249.769 45.2734C280.769 45.2734 305.87 70.3456 305.87 101.222V395.375C305.87 426.251 280.769 451.323 249.769 451.323Z" fill="#0D0E0F"/>
<path d="M78.0508 77.1733V72.2773H78.9218L80.0304 74.8043L81.1389 72.2773H82.0099V77.1733H81.1785V73.6988L80.2679 75.8309H79.7928L78.8822 73.6988V77.1733H78.0508Z" fill="white"/>
<path d="M83.7539 72.2773H84.6645L86.3274 75.8704L87.7923 72.2773H88.6633L85.7335 79.1475H84.9021L85.8523 76.818L83.7539 72.2773Z" fill="white"/>
<path d="M91.159 75.7519C91.2778 76.2257 91.5945 76.5416 92.03 76.5416C92.5447 76.5416 92.9011 76.2257 92.9011 75.6729C92.9011 75.0807 92.5843 74.7648 92.0696 74.7648C91.9509 74.7648 91.7925 74.8043 91.6737 74.8438L91.2778 74.3305L92.1884 73.0275H90.6047V72.2773H93.4157V72.5537L92.1884 74.1726C92.2676 74.1726 92.3072 74.1726 92.3864 74.1726C93.2178 74.1726 93.6929 74.7253 93.6929 75.6729C93.6929 76.6206 92.9802 77.2918 92.03 77.2918C91.1194 77.2918 90.486 76.7785 90.3672 75.8704L91.159 75.7519Z" fill="white"/>
<path d="M98.2031 72.1992C99.7076 72.1992 100.539 73.2653 100.539 74.5682V74.9236H96.6986C96.7382 75.9107 97.3321 76.5424 98.2031 76.5424C98.9553 76.5424 99.4304 76.1871 99.7868 75.5553L100.42 75.9107C99.8659 76.9373 99.1137 77.2926 98.2031 77.2926C96.7778 77.2926 95.8672 76.1871 95.8672 74.7657C95.8672 73.3442 96.7382 72.1992 98.2031 72.1992ZM99.668 74.1734C99.5096 73.3837 99.0345 72.9494 98.2031 72.9494C97.4113 72.9494 96.9362 73.4232 96.7382 74.1734H99.668Z" fill="white"/>
<path d="M102.09 77.174V72.278H102.921V75.95L105.455 72.278H106.326V77.174H105.495V73.502L102.961 77.174H102.09ZM103.792 70.3828C103.792 70.6592 103.951 70.8171 104.228 70.8171C104.505 70.8171 104.663 70.6592 104.663 70.3828H105.297C105.297 70.9751 104.861 71.4489 104.228 71.4489C103.594 71.4489 103.159 70.9751 103.159 70.3828H103.792Z" fill="white"/>
<path d="M59.2891 84.2027V83.6105L62.1397 81.6758V82.5444L60.1205 83.8869L62.1397 85.2293V86.098L59.2891 84.2027ZM61.6646 84.2027V83.6105L64.5152 81.6758V82.5444L62.496 83.8869L64.5152 85.2293V86.098L61.6646 84.2027Z" fill="white"/>
<path d="M66.0586 86.8854V86.1352H67.8006V81.2787L66.0982 82.3053V81.3971L68.3153 80.0547H68.6321V86.1352H70.3741V86.8854H66.0586Z" fill="white"/>
<path d="M72.5541 84.9541C72.6729 85.7833 73.1084 86.2176 73.9002 86.2176C74.692 86.2176 75.2463 85.7043 75.2463 84.7962C75.2463 83.8881 74.692 83.3748 73.9002 83.3748C73.7022 83.3748 73.5043 83.3748 73.3063 83.4933L72.95 83.0194L74.4941 80.8873H72.0394V80.0977H75.761V80.374L74.019 82.7036C74.0982 82.6641 74.2169 82.6641 74.2961 82.6641C75.3255 82.6641 76.1173 83.4933 76.1173 84.7567C76.1173 86.0597 75.2067 86.9678 73.9002 86.9678C72.752 86.9678 71.8414 86.2176 71.7227 85.0331L72.5541 84.9541Z" fill="white"/>
<path d="M84.0703 86.8882V81.9922H88.0295V86.8882H87.1981V82.7424H84.8621V86.8882H84.0703Z" fill="white"/>
<path d="M90.0898 88.8983V82.0282H90.9213V82.6599C91.1984 82.2651 91.7527 81.9492 92.4258 81.9492C93.8511 81.9492 94.6825 82.9758 94.6825 84.4762C94.6825 85.9766 93.8906 87.0031 92.4258 87.0031C91.7527 87.0031 91.1984 86.6873 90.9213 86.2924V88.8983H90.0898ZM92.3466 86.2529C93.2968 86.2529 93.8511 85.5028 93.8511 84.4762C93.8511 83.4101 93.2968 82.6994 92.3466 82.6994C91.3964 82.6994 90.8421 83.4496 90.8421 84.4762C90.8421 85.5028 91.3964 86.2529 92.3466 86.2529Z" fill="white"/>
<path d="M96.0273 86.8882V81.9922H96.8588V85.6642L99.3926 81.9922H100.264V86.8882H99.4322V83.2162L96.8984 86.8882H96.0273Z" fill="white"/>
<path d="M102.203 86.8882V81.9922H103.074L104.183 84.5191L105.291 81.9922H106.162V86.8882H105.331V83.4136L104.42 85.5457H103.945L103.035 83.4136V86.8882H102.203Z" fill="white"/>
<path d="M110.325 81.9141C111.83 81.9141 112.661 82.9801 112.661 84.2831V84.6384H108.821C108.861 85.6255 109.454 86.2573 110.325 86.2573C111.078 86.2573 111.553 85.9019 111.909 85.2702L112.543 85.6255C111.988 86.6521 111.236 87.0075 110.325 87.0075C108.9 87.0075 107.99 85.9019 107.99 84.4805C107.95 83.0986 108.861 81.9141 110.325 81.9141ZM111.79 83.8882C111.632 83.0986 111.157 82.6642 110.325 82.6642C109.534 82.6642 109.058 83.1381 108.861 83.8882H111.79Z" fill="white"/>
<path d="M114.078 82.7424V81.9922H118.512V82.7424H116.691V86.8882H115.86V82.7424H114.078Z" fill="white"/>
<path d="M119.707 86.1374V85.2688L121.726 83.9263L119.707 82.5839V81.6758L122.558 83.6105V84.2027L119.707 86.1374ZM122.043 86.1374V85.2688L124.062 83.9263L122.043 82.5839V81.6758L124.894 83.6105V84.2027L122.043 86.1374Z" fill="white"/>
<path d="M252.818 421.43V426.286H251.946L250.878 423.759L249.809 426.286H248.938V421.43H249.729V424.865L250.64 422.772H251.115L252.026 424.865V421.43H252.818Z" fill="white"/>
<path d="M247.19 426.287H246.279L244.656 422.734L243.23 426.287H242.359L245.25 419.496H246.041L245.091 421.786L247.19 426.287Z" fill="white"/>
<path d="M239.858 422.851C239.739 422.377 239.462 422.101 238.987 422.101C238.512 422.101 238.156 422.417 238.156 422.97C238.156 423.562 238.472 423.878 238.987 423.878C239.106 423.878 239.264 423.838 239.343 423.799L239.739 424.312L238.829 425.615H240.373V426.365H237.601V426.089L238.829 424.509C238.75 424.509 238.71 424.509 238.631 424.509C237.799 424.509 237.324 423.957 237.324 423.009C237.324 422.101 238.037 421.43 238.947 421.43C239.819 421.43 240.492 421.943 240.61 422.851H239.858Z" fill="white"/>
<path d="M232.859 426.327C231.354 426.327 230.562 425.261 230.562 423.997V423.642H234.363C234.324 422.694 233.73 422.063 232.859 422.063C232.107 422.063 231.631 422.418 231.315 423.01L230.681 422.655C231.236 421.628 231.988 421.312 232.898 421.312C234.324 421.312 235.234 422.418 235.234 423.8C235.195 425.221 234.324 426.327 232.859 426.327ZM231.434 424.392C231.592 425.142 232.067 425.616 232.898 425.616C233.69 425.616 234.165 425.142 234.324 424.392H231.434Z" fill="white"/>
<path d="M229.056 421.43V426.286H228.264V422.654L225.73 426.286H224.859V421.43H225.651V425.062L228.185 421.43H229.056ZM227.393 428.142C227.393 427.866 227.235 427.708 226.958 427.708C226.681 427.708 226.522 427.866 226.522 428.142H225.889C225.889 427.55 226.324 427.076 226.958 427.076C227.552 427.076 228.027 427.55 228.027 428.142H227.393Z" fill="white"/>
<path d="M271.382 414.482V415.074L268.531 416.969V416.1L270.55 414.758L268.531 413.415V412.547L271.382 414.482ZM269.046 414.482V415.074L266.195 416.969V416.1L268.214 414.758L266.195 413.415V412.547L269.046 414.482Z" fill="white"/>
<path d="M264.686 411.801V412.551H262.944V417.328L264.646 416.341V417.21L262.469 418.552H262.152V412.551H260.41V411.801H264.686Z" fill="white"/>
<path d="M258.239 413.772C258.12 412.983 257.685 412.509 256.893 412.509C256.101 412.509 255.547 413.022 255.547 413.93C255.547 414.838 256.101 415.352 256.893 415.352C257.091 415.352 257.289 415.352 257.487 415.233L257.843 415.668L256.299 417.76H258.714V418.51H255.032V418.234L256.735 415.904C256.655 415.944 256.537 415.944 256.457 415.944C255.428 415.944 254.676 415.115 254.676 413.891C254.676 412.627 255.586 411.68 256.853 411.68C257.962 411.68 258.912 412.43 258.991 413.614L258.239 413.772Z" fill="white"/>
<path d="M246.873 411.801V416.657H242.953V411.801H243.745V415.907H246.041V411.801H246.873Z" fill="white"/>
<path d="M240.896 409.863V416.655H240.104V416.023C239.827 416.378 239.272 416.733 238.639 416.733C237.214 416.733 236.422 415.707 236.422 414.246C236.422 412.785 237.214 411.759 238.639 411.759C239.312 411.759 239.866 412.074 240.104 412.469V409.903H240.896V409.863ZM238.679 412.469C237.768 412.469 237.214 413.18 237.214 414.246C237.214 415.312 237.768 416.023 238.679 416.023C239.589 416.023 240.144 415.273 240.144 414.246C240.144 413.219 239.589 412.469 238.679 412.469Z" fill="white"/>
<path d="M235.037 411.801V416.657H234.245V413.025L231.711 416.657H230.84V411.801H231.632V415.433L234.166 411.801H235.037Z" fill="white"/>
<path d="M228.935 411.801V416.657H228.064L226.995 414.13L225.926 416.657H225.055V411.801H225.847V415.236L226.757 413.143H227.232L228.143 415.236V411.801H228.935Z" fill="white"/>
<path d="M220.898 416.733C219.393 416.733 218.602 415.667 218.602 414.404V414.048H222.402C222.363 413.101 221.769 412.469 220.898 412.469C220.146 412.469 219.671 412.824 219.354 413.417L218.72 413.061C219.275 412.035 220.027 411.719 220.937 411.719C222.363 411.719 223.273 412.824 223.273 414.206C223.234 415.588 222.363 416.733 220.898 416.733ZM219.473 414.798C219.631 415.549 220.106 416.022 220.937 416.022C221.729 416.022 222.204 415.549 222.363 414.798H219.473Z" fill="white"/>
<path d="M217.219 415.946V416.696H212.824V415.946H214.606V411.84H215.398V415.946H217.219Z" fill="white"/>
<path d="M211.596 412.586V413.455L209.577 414.797L211.596 416.139V417.008L208.746 415.113V414.521L211.596 412.586ZM209.3 412.586V413.455L207.281 414.797L209.3 416.139V417.008L206.449 415.113V414.521L209.3 412.586Z" fill="white"/>
<path d="M106.222 182.517V170.844H112.55V182.517C112.55 184.747 113.01 186.439 113.93 187.594C114.866 188.749 116.142 189.326 117.76 189.326C119.41 189.326 120.702 189.097 121.638 188.638C122.59 188.179 123.589 187.42 124.636 186.36V170.844H130.964V204.866H124.636V193.264C122.653 194.656 119.989 195.352 116.642 195.352C113.422 195.352 110.877 194.3 109.005 192.197C107.15 190.077 106.222 186.851 106.222 182.517Z" fill="white"/>
<path d="M135.746 185.53V180.381H154.945V185.53H148.379V204.866H142.336V185.53H135.746Z" fill="white"/>
<path d="M161.154 201.687C158.918 199.299 157.8 196.278 157.8 192.624C157.8 188.954 158.918 185.933 161.154 183.561C163.406 181.172 166.443 179.978 170.266 179.978C174.104 179.978 177.141 181.172 179.377 183.561C181.63 185.933 182.756 188.954 182.756 192.624C182.756 196.278 181.63 199.299 179.377 201.687C177.141 204.06 174.104 205.246 170.266 205.246C166.443 205.246 163.406 204.06 161.154 201.687ZM165.793 187.309C164.683 188.749 164.128 190.52 164.128 192.624C164.128 194.727 164.683 196.499 165.793 197.938C166.903 199.378 168.394 200.097 170.266 200.097C172.153 200.097 173.644 199.378 174.738 197.938C175.849 196.499 176.404 194.727 176.404 192.624C176.404 190.52 175.849 188.749 174.738 187.309C173.644 185.87 172.153 185.15 170.266 185.15C168.394 185.15 166.903 185.87 165.793 187.309Z" fill="white"/>
<path d="M104.699 250.21C104.699 243.409 105.809 238.553 108.03 235.643C110.266 232.717 113.414 231.254 117.475 231.254H119.211C121.035 231.254 122.257 230.495 122.875 228.976H126.634C126.634 233.99 124.279 236.505 119.568 236.521H117.665C113.51 236.521 111.297 238.672 111.027 242.974C112.883 241.25 115.207 240.388 117.998 240.388C121.598 240.388 124.437 241.566 126.515 243.923C128.609 246.264 129.655 249.301 129.655 253.034C129.655 256.719 128.498 259.748 126.182 262.121C123.882 264.477 120.845 265.656 117.07 265.656C113.311 265.656 110.306 264.264 108.054 261.48C105.817 258.696 104.699 254.94 104.699 250.21ZM112.693 247.719C111.583 249.159 111.027 250.93 111.027 253.034C111.027 255.137 111.583 256.909 112.693 258.348C113.803 259.788 115.294 260.507 117.165 260.507C119.053 260.507 120.544 259.788 121.638 258.348C122.748 256.909 123.303 255.137 123.303 253.034C123.303 250.93 122.748 249.159 121.638 247.719C120.544 246.28 119.053 245.56 117.165 245.56C115.294 245.56 113.803 246.28 112.693 247.719Z" fill="white"/>
<path d="M134.866 265.276V240.791H140.908V250.116H145.381C147.982 250.116 150.044 250.804 151.566 252.18C153.105 253.556 153.874 255.398 153.874 257.708C153.874 260.001 153.105 261.836 151.566 263.212C150.044 264.588 147.982 265.276 145.381 265.276H134.866ZM140.908 260.128H144.31C146.578 260.128 147.712 259.321 147.712 257.708C147.728 256.079 146.594 255.264 144.31 255.264H140.908V260.128ZM158.989 265.276V240.791H165.032V265.276H158.989Z" fill="white"/>
<path d="M169.719 265.276V260.128C171.146 260.128 172.201 259.867 172.883 259.345C173.581 258.823 173.993 257.937 174.12 256.688L175.714 240.791H193.604V265.276H187.561V245.94H181.328L179.853 258.87C179.695 260.294 179.346 261.448 178.807 262.334C178.283 263.22 177.522 263.876 176.523 264.303C175.539 264.731 174.556 264.999 173.573 265.11C172.589 265.221 171.305 265.276 169.719 265.276Z" fill="white"/>
<path d="M202.549 262.097C200.313 259.709 199.195 256.688 199.195 253.034C199.195 249.364 200.313 246.343 202.549 243.971C204.802 241.582 207.839 240.388 211.661 240.388C215.499 240.388 218.537 241.582 220.773 243.971C223.025 246.343 224.151 249.364 224.151 253.034C224.151 256.688 223.025 259.709 220.773 262.097C218.537 264.47 215.499 265.656 211.661 265.656C207.839 265.656 204.802 264.47 202.549 262.097ZM207.189 247.719C206.078 249.159 205.523 250.93 205.523 253.034C205.523 255.137 206.078 256.909 207.189 258.348C208.299 259.788 209.79 260.507 211.661 260.507C213.549 260.507 215.039 259.788 216.134 258.348C217.244 256.909 217.799 255.137 217.799 253.034C217.799 250.93 217.244 249.159 216.134 247.719C215.039 246.28 213.549 245.56 211.661 245.56C209.79 245.56 208.299 246.28 207.189 247.719Z" fill="white"/>
<path d="M106.507 325.686V301.201H126.634V325.686H120.591L120.591 306.35H112.55L112.55 325.686H106.507Z" fill="white"/>
<path d="M135.698 322.507C133.462 320.119 132.344 317.098 132.344 313.444C132.344 309.774 133.462 306.753 135.698 304.381C137.95 301.992 140.988 300.798 144.81 300.798C148.648 300.798 151.685 301.992 153.922 304.381C156.174 306.753 157.3 309.774 157.3 313.444C157.3 317.098 156.174 320.119 153.922 322.507C151.685 324.88 148.648 326.066 144.81 326.066C140.988 326.066 137.95 324.88 135.698 322.507ZM140.337 308.129C139.227 309.569 138.672 311.34 138.672 313.444C138.672 315.548 139.227 317.319 140.337 318.758C141.448 320.198 142.938 320.917 144.81 320.917C146.697 320.917 148.188 320.198 149.283 318.758C150.393 317.319 150.948 315.548 150.948 313.444C150.948 311.34 150.393 309.569 149.283 308.129C148.188 306.69 146.697 305.97 144.81 305.97C142.938 305.97 141.448 306.69 140.337 308.129Z" fill="white"/>
<path d="M164.58 322.483C162.502 320.079 161.463 317.066 161.463 313.444C161.463 309.822 162.502 306.809 164.58 304.404C166.658 302 169.615 300.798 173.454 300.798C179.005 300.798 182.724 303.131 184.611 307.797L179.211 309.98C177.879 307.291 175.96 305.954 173.454 305.97C171.598 305.97 170.186 306.658 169.219 308.034C168.267 309.41 167.792 311.214 167.792 313.444C167.792 315.674 168.267 317.477 169.219 318.853C170.186 320.229 171.598 320.917 173.454 320.917C175.96 320.917 177.879 319.573 179.211 316.884L184.611 319.067C182.724 323.733 179.005 326.066 173.454 326.066C169.615 326.066 166.658 324.872 164.58 322.483Z" fill="white"/>
<path d="M187.657 325.686V320.538C189.084 320.538 190.139 320.277 190.821 319.755C191.519 319.233 191.931 318.347 192.058 317.098L193.652 301.201H211.542V325.686H205.499V306.35H199.266L197.791 319.28C197.633 320.704 197.284 321.859 196.745 322.744C196.221 323.63 195.46 324.286 194.461 324.713C193.477 325.141 192.494 325.409 191.511 325.52C190.527 325.631 189.243 325.686 187.657 325.686Z" fill="white"/>
<path d="M217.799 317.881C217.355 316.441 217.133 314.962 217.133 313.444C217.133 311.925 217.355 310.447 217.799 309.007C218.259 307.552 218.933 306.208 219.821 304.974C220.725 303.724 221.962 302.72 223.533 301.961C225.119 301.186 226.919 300.798 228.933 300.798C230.884 300.798 232.621 301.178 234.143 301.937C235.666 302.68 236.863 303.661 237.736 304.879C238.624 306.081 239.282 307.37 239.71 308.746C240.154 310.122 240.376 311.506 240.376 312.898V315.389H223.461C223.525 316.876 224.064 318.173 225.079 319.28C226.11 320.372 227.506 320.917 229.266 320.917C231.772 320.917 233.755 319.66 235.214 317.145L240.091 318.924C238.013 323.685 234.294 326.066 228.933 326.066C226.919 326.066 225.119 325.686 223.533 324.927C221.962 324.168 220.725 323.163 219.821 321.914C218.933 320.664 218.259 319.32 217.799 317.881ZM223.604 310.621H234.191C233.509 307.505 231.756 305.954 228.933 305.97C227.506 305.97 226.316 306.421 225.364 307.323C224.413 308.224 223.826 309.324 223.604 310.621Z" fill="white"/>
<path d="M244.159 298.71C244.555 296.575 245.571 294.803 247.204 293.396C248.838 291.988 250.923 291.284 253.461 291.284C256.189 291.284 258.37 291.98 260.003 293.372C261.653 294.764 262.478 296.63 262.478 298.971C262.478 300.79 261.946 302.198 260.884 303.194C259.837 304.191 258.124 305.148 255.745 306.065C254.127 306.714 253.033 307.251 252.462 307.679C251.891 308.09 251.605 308.62 251.605 309.268C251.605 309.79 251.772 310.201 252.105 310.502C252.454 310.802 252.874 310.953 253.366 310.953C254.698 310.953 255.626 310.209 256.149 308.722L260.432 310.336C259.877 311.886 258.988 313.112 257.767 314.013C256.562 314.899 255.095 315.342 253.366 315.342C251.383 315.342 249.766 314.765 248.513 313.61C247.26 312.455 246.633 310.961 246.633 309.126C246.633 306.247 248.394 304.136 251.915 302.791C253.802 302.079 255.079 301.439 255.745 300.869C256.427 300.284 256.768 299.588 256.768 298.781C256.768 297.959 256.474 297.35 255.888 296.955C255.317 296.543 254.555 296.338 253.604 296.338C251.494 296.338 250.114 297.421 249.464 299.588L244.159 298.71ZM249.321 321.985C249.321 320.846 249.718 319.881 250.511 319.091C251.304 318.3 252.256 317.904 253.366 317.904C254.476 317.904 255.428 318.308 256.221 319.114C257.014 319.905 257.41 320.862 257.41 321.985C257.41 323.092 257.022 324.033 256.245 324.808C255.467 325.583 254.508 325.971 253.366 325.971C252.224 325.971 251.264 325.583 250.487 324.808C249.71 324.033 249.321 323.092 249.321 321.985Z" fill="white"/>
<path d="M276.256 81.2042C280.77 87.3637 281.799 95.3789 279.978 102.841C278.988 102.328 277.88 101.933 276.811 101.538C272.931 100.077 269.169 98.1427 265.725 95.8132C264.814 95.1814 263.824 94.5102 262.716 94.4707C262.558 94.4707 262.399 94.4707 262.241 94.5102C262.162 92.7334 261.805 90.9567 261.33 89.2194C260.618 86.5345 259.549 83.8891 257.688 81.7965C257.331 81.4016 256.936 81.0068 256.5 80.6909C258.796 77.5717 261.093 74.413 263.31 71.2148C268.457 73.5444 273.01 76.7426 276.256 81.2042Z" fill="#F8EED1"/>
<path d="M276.809 101.497C277.878 101.892 278.947 102.287 279.977 102.8C279.185 105.959 277.918 109.039 276.136 111.802C272.177 107.459 268.02 103.314 263.665 99.3651C262.754 100.194 261.883 101.063 260.973 101.892C261.527 100.352 261.962 98.7729 262.16 97.1541C262.279 96.2459 262.279 95.3378 262.24 94.4692C262.398 94.4297 262.556 94.4297 262.715 94.4297C263.823 94.4692 264.813 95.1404 265.724 95.7721C269.208 98.1017 272.929 100.036 276.809 101.497Z" fill="#0D0E0F"/>
<path d="M276.133 111.8C275.539 112.708 274.906 113.616 274.233 114.445C271.382 117.92 267.859 120.723 263.899 122.816C264.493 120.249 265.206 117.683 266.037 115.195C262.632 115.195 259.267 115.195 255.862 115.195C255.348 115.195 254.833 115.195 254.358 114.998C253.962 114.84 253.645 114.603 253.328 114.327C252.932 113.971 252.497 113.577 252.141 113.182C252.735 112.945 253.328 112.629 253.883 112.313C257.248 110.22 259.228 106.509 260.613 102.837C260.732 102.561 260.851 102.245 260.93 101.968C261.841 101.139 262.712 100.271 263.622 99.4414C268.017 103.35 272.174 107.496 276.133 111.8Z" fill="#F8EED1"/>
<path d="M255.906 115.197C259.311 115.197 262.677 115.197 266.082 115.197C265.21 117.685 264.498 120.251 263.944 122.818C262.597 123.528 261.172 124.2 259.747 124.752C260.539 122.581 261.568 120.488 262.795 118.553C260.499 117.606 258.124 116.974 255.669 116.619C254.956 116.54 254.244 116.461 253.571 116.263C252.145 115.868 250.878 115 250.047 113.855C250.799 113.697 251.512 113.46 252.224 113.184C252.62 113.578 253.016 113.973 253.412 114.329C253.729 114.605 254.046 114.842 254.442 115C254.837 115.158 255.392 115.197 255.906 115.197Z" fill="#0D0E0F"/>
<path d="M258.046 69.0391C259.867 69.6708 261.649 70.3815 263.391 71.1712C261.174 74.3694 258.878 77.528 256.581 80.6473C255.631 79.8576 254.562 79.2653 253.414 78.91C254.8 75.5539 256.344 72.2767 258.046 69.0391Z" fill="#0D0E0F"/>
<path d="M262.278 94.5078C262.318 95.4159 262.318 96.3241 262.199 97.1927C262.001 98.8115 261.566 100.391 261.011 101.931C260.972 101.97 260.893 102.01 260.853 102.089C258.873 100.707 257.131 98.9695 255.746 96.9558C255.191 97.7455 254.716 98.6536 254.4 99.6012C254.4 99.1274 254.4 98.6536 254.4 98.1798C254.4 97.2717 254.36 96.3635 254.32 95.4554C254.479 95.4159 254.597 95.3765 254.756 95.337C256.735 94.8237 258.953 95.258 260.615 96.4425C260.457 95.4949 261.328 94.6657 262.278 94.5078Z" fill="#0D0E0F"/>
<path d="M256.583 80.688C257.018 81.0434 257.375 81.3987 257.771 81.7936C259.632 83.8467 260.7 86.5316 261.413 89.2165C261.888 90.9538 262.245 92.7306 262.324 94.5073C261.374 94.7047 260.503 95.4944 260.661 96.442C258.998 95.2575 256.781 94.8232 254.801 95.3365C254.643 95.376 254.524 95.4154 254.366 95.4549C254.207 92.3357 253.693 89.256 251.753 86.887C249.813 84.4785 245.933 83.6888 242.37 83.6493C241.459 83.4914 240.548 83.4914 239.598 83.6493C239.281 83.6888 238.965 83.7678 238.688 83.8862C238.806 82.2674 239.242 80.6486 239.915 79.1482C240.034 78.9113 240.152 78.6349 240.113 78.3585C240.073 78.2006 240.034 78.0426 239.915 77.9242C242.686 77.4504 245.576 77.4504 248.348 78.0031C249.021 78.1216 249.734 78.319 250.367 78.5954C251.396 78.5164 252.426 78.6349 253.416 78.9508C254.564 79.3061 255.633 79.8984 256.583 80.688Z" fill="#B2AC9D"/>
<path d="M252.178 113.185C251.465 113.461 250.753 113.698 250.001 113.856C247.823 114.33 245.487 114.369 243.23 114.251C242.953 114.251 242.637 114.211 242.359 114.211C242.597 113.501 243.983 113.185 243.903 112.356C243.151 111.645 242.716 110.658 242.597 109.631C242.637 109.434 242.637 109.236 242.637 109.039C242.993 109.118 243.389 109.157 243.745 109.197C246.833 109.552 250.278 109.118 252.336 106.788C254.039 104.893 254.356 102.208 254.395 99.6024C254.712 98.6548 255.147 97.7862 255.741 96.957C257.127 98.9312 258.869 100.669 260.849 102.09C260.888 102.05 260.967 102.011 261.007 101.932C260.888 102.248 260.809 102.524 260.69 102.801C259.265 106.473 257.325 110.184 253.96 112.277C253.366 112.632 252.772 112.908 252.178 113.185Z" fill="#B2AC9D"/>
<path d="M262.758 118.515C261.531 120.45 260.501 122.542 259.709 124.714C254.444 126.767 248.663 127.754 242.962 127.636C243.239 125.543 243.754 123.45 244.506 121.476C244.665 121.042 244.863 120.608 244.863 120.134C244.863 119.778 244.783 119.463 244.665 119.147C244.189 117.686 243.477 116.264 242.566 115.001C242.447 114.843 242.329 114.685 242.289 114.488C242.289 114.369 242.289 114.29 242.329 114.172C242.606 114.211 242.923 114.211 243.2 114.211C245.456 114.33 247.792 114.29 249.97 113.816C250.841 115.001 252.108 115.87 253.494 116.225C254.167 116.422 254.879 116.462 255.592 116.58C258.086 116.936 260.462 117.607 262.758 118.515Z" fill="#F8EED1"/>
<path d="M258.044 69.041C256.342 72.2392 254.797 75.5558 253.412 78.9119C252.422 78.5961 251.393 78.4381 250.363 78.5566C249.73 78.2802 249.017 78.0828 248.344 77.9643C245.573 77.4115 242.682 77.4115 239.911 77.8853C239.832 77.7669 239.753 77.6879 239.634 77.5695C238.05 75.9506 236.466 74.3318 234.883 72.6735C236.269 70.5414 237.496 68.3698 238.565 66.0797C241.732 65.5664 244.979 65.6454 248.146 66.3166V66.2771C251.472 67.0668 254.797 67.9355 258.044 69.041Z" fill="#F8EED1"/>
<path d="M254.397 98.1384C254.397 98.6122 254.397 99.086 254.397 99.5598C254.318 99.7573 254.278 99.9547 254.239 100.152C251.427 100.428 248.616 100.586 245.766 100.507C245.33 100.192 244.934 99.8362 244.578 99.4414C248.141 99.8362 250.913 96.4801 254.357 95.4141C254.357 96.3222 254.397 97.2698 254.397 98.1384Z" fill="#0D0E0F"/>
<path d="M242.365 83.6094C245.929 83.6489 249.809 84.478 251.749 86.847C253.689 89.2161 254.203 92.2958 254.362 95.415C250.957 96.4811 248.146 99.8372 244.583 99.4423C244.939 99.8372 245.335 100.193 245.77 100.508C248.581 100.548 251.432 100.429 254.243 100.153C254.282 99.9556 254.362 99.7582 254.401 99.5608C254.362 102.167 254.045 104.812 252.343 106.747C250.284 109.076 246.8 109.511 243.751 109.155C243.395 109.116 242.999 109.076 242.643 108.997C242.643 108.879 242.643 108.721 242.603 108.603C242.603 108.721 242.563 108.839 242.563 108.997C239.198 108.445 235.991 107.102 233.22 105.088C232.428 104.536 231.715 103.904 231.161 103.114C230.527 102.206 230.171 101.14 229.973 100.035C231.834 101.022 233.814 101.772 235.872 102.325C237.06 100.587 238.287 98.8106 239.475 97.0733C238.367 97.9814 237.218 98.8896 235.833 99.2844C234.447 99.6792 232.784 99.4028 231.913 98.2578C231.28 97.4287 231.082 96.1652 230.092 95.8098C230.052 95.7703 229.973 95.7703 229.934 95.7703C230.409 92.1773 232.072 88.7423 234.724 86.2548C235.516 85.5046 236.427 84.8334 237.416 84.3201C237.694 85.623 238.09 86.847 238.961 87.8341C238.683 86.4917 238.604 85.1492 238.723 83.8068C239.792 83.6883 241.059 83.6094 242.365 83.6094Z" fill="#797873"/>
<path d="M244.663 119.146C244.782 119.462 244.861 119.778 244.861 120.133C244.861 120.607 244.663 121.041 244.505 121.476C243.713 123.45 243.198 125.503 242.961 127.635C242.683 127.635 242.446 127.635 242.169 127.596C241.496 127.556 240.823 127.517 240.15 127.477C240.15 123.095 239.952 118.672 239.516 114.29C239.516 114.132 239.477 114.013 239.477 113.855C240.427 113.974 241.377 114.092 242.327 114.171C242.288 114.25 242.288 114.369 242.288 114.487C242.327 114.685 242.446 114.843 242.565 115C243.475 116.264 244.188 117.685 244.663 119.146Z" fill="#0D0E0F"/>
<path d="M243.871 112.314C243.911 113.143 242.525 113.498 242.327 114.17C241.377 114.091 240.427 114.012 239.477 113.854C239.477 113.498 239.516 113.143 239.754 112.867C239.991 112.59 240.348 112.472 240.664 112.314C241.694 111.801 242.406 110.734 242.604 109.629C242.683 110.616 243.119 111.603 243.871 112.314Z" fill="#0D0E0F"/>
<path d="M242.601 108.996C242.601 109.194 242.601 109.391 242.561 109.588C242.521 109.391 242.521 109.194 242.561 108.996H242.601Z" fill="#0D0E0F"/>
<path d="M242.599 108.996C242.559 108.996 242.559 108.996 242.52 108.996C242.52 108.878 242.52 108.759 242.559 108.602C242.599 108.759 242.599 108.878 242.599 108.996Z" fill="#0D0E0F"/>
<path d="M242.563 109C242.563 109.197 242.563 109.394 242.563 109.592C242.365 110.737 241.653 111.763 240.623 112.277C240.307 112.435 239.95 112.553 239.713 112.829C239.475 113.106 239.436 113.461 239.436 113.817C235.595 113.264 231.834 112.158 228.588 110.066C225.895 108.328 223.639 105.841 222.332 102.959C223.243 103.393 224.074 103.946 224.787 104.656C224.985 104.854 225.183 105.091 225.46 105.091C225.856 105.13 226.133 104.735 226.331 104.38C227.241 102.761 228.152 101.142 229.023 99.5234C229.34 99.6814 229.617 99.8788 229.934 100.037C230.132 101.142 230.488 102.208 231.121 103.116C231.676 103.906 232.428 104.498 233.18 105.091C235.991 107.104 239.198 108.447 242.563 109Z" fill="#B2AC9D"/>
<path d="M242.37 83.611C241.063 83.611 239.796 83.69 238.688 83.8084C239.004 83.7295 239.281 83.6505 239.598 83.5715C240.509 83.4531 241.459 83.4926 242.37 83.611Z" fill="#797873"/>
<path d="M240.108 78.3171C240.147 78.5935 240.029 78.8699 239.91 79.1068C239.237 80.6072 238.801 82.1865 238.682 83.8448C238.247 83.9633 237.811 84.1607 237.376 84.3581C237.099 82.9367 236.94 81.3969 236.465 80.0149C236.347 79.6991 236.228 79.3437 235.911 79.1858C235.792 79.1068 235.673 79.0673 235.555 79.0673C236.98 78.5146 238.445 78.1197 239.91 77.8828C240.029 78.0013 240.108 78.1592 240.108 78.3171Z" fill="#0D0E0F"/>
<path d="M239.676 77.5683C239.756 77.6473 239.874 77.7657 239.953 77.8842C238.449 78.1605 236.984 78.5554 235.598 79.0687C235.44 79.0292 235.282 79.0292 235.123 79.0292C232.391 79.0292 229.66 78.9897 226.928 78.9897C226.096 76.5417 227.007 73.8963 227.601 71.4088C227.72 70.9745 227.799 70.5402 227.838 70.0664C231.125 68.0922 234.767 66.7103 238.528 66.0785C238.568 66.0785 238.607 66.0785 238.647 66.0391C237.578 68.3291 236.351 70.5007 234.965 72.6328C236.509 74.3306 238.093 75.9495 239.676 77.5683Z" fill="#0D0E0F"/>
<path d="M239.47 114.329C239.906 118.712 240.103 123.094 240.103 127.517C233.215 126.924 226.326 124.674 221.495 119.817C218.566 116.856 216.507 113.105 215.161 109.196C214.488 107.261 213.973 105.248 213.656 103.234C216.309 101.852 219.635 101.773 222.366 103.037C223.673 105.919 225.93 108.406 228.622 110.144C231.868 112.236 235.63 113.342 239.47 113.895C239.47 114.013 239.47 114.171 239.47 114.329Z" fill="#F8EED1"/>
<path d="M239.475 97.1155C238.287 98.8527 237.06 100.63 235.872 102.367C233.813 101.814 231.834 101.064 229.973 100.077C229.933 99.7609 229.894 99.445 229.854 99.1291C229.735 98.0236 229.775 96.918 229.933 95.8125C229.973 95.8125 230.052 95.852 230.092 95.852C231.082 96.2073 231.28 97.4708 231.913 98.3C232.784 99.445 234.447 99.7214 235.833 99.3265C237.218 98.9317 238.366 98.0236 239.475 97.1155Z" fill="#0D0E0F"/>
<path d="M238.682 83.8477C238.563 85.1901 238.642 86.572 238.919 87.875C238.008 86.8879 237.613 85.6639 237.375 84.3609C237.771 84.1635 238.206 83.9661 238.682 83.8477Z" fill="#0D0E0F"/>
<path d="M236.465 80.0566C236.941 81.4385 237.059 82.9389 237.376 84.3998C236.386 84.913 235.515 85.5843 234.684 86.3345C232.031 88.8219 230.329 92.257 229.893 95.85C229.577 95.7711 229.26 95.8105 228.943 95.8105C226.37 96.008 223.796 96.1659 221.223 96.4423C221.421 94.626 221.975 92.8493 222.727 91.191C223.163 90.2433 223.677 89.2957 224.232 88.4271C224.469 88.3086 224.707 88.2297 224.944 88.1902C224.865 88.0323 224.786 87.8743 224.707 87.7164C226.884 84.5577 229.854 81.9123 233.259 80.175C234.011 79.7802 234.763 79.4643 235.555 79.1484C235.674 79.1879 235.792 79.2274 235.911 79.2669C236.228 79.3853 236.347 79.7407 236.465 80.0566Z" fill="#B2AC9D"/>
<path d="M235.08 79.0722C235.239 79.0722 235.397 79.0722 235.555 79.1117C234.763 79.4275 234.011 79.7434 233.259 80.1382C229.854 81.915 226.885 84.5209 224.707 87.6796C222.926 84.1261 221.461 80.3751 220.312 76.5847C222.411 74.0183 224.984 71.8467 227.795 70.1094C227.716 70.5832 227.637 71.0175 227.558 71.4518C226.964 73.9788 226.053 76.5847 226.885 79.0327C229.617 79.0327 232.348 79.0327 235.08 79.0722Z" fill="#F8EED1"/>
<path d="M229.849 99.1277C229.888 99.4436 229.928 99.7595 229.968 100.075C229.651 99.9174 229.374 99.7595 229.057 99.562C228.146 101.181 227.236 102.8 226.365 104.419C226.167 104.774 225.89 105.169 225.494 105.129C225.217 105.129 224.979 104.892 224.821 104.695C224.108 103.984 223.277 103.431 222.366 102.997C221.574 101.26 221.139 99.4041 221.178 97.4694C221.178 97.1141 221.218 96.7587 221.257 96.4428C223.831 96.1664 226.404 95.969 228.978 95.8111C229.295 95.7716 229.611 95.7716 229.928 95.8506C229.77 96.9166 229.73 98.0222 229.849 99.1277Z" fill="#0D0E0F"/>
<path d="M224.713 87.6758C224.793 87.8337 224.872 87.9916 224.951 88.1496C224.713 88.1891 224.476 88.268 224.238 88.3865C224.397 88.1496 224.555 87.9127 224.713 87.6758Z" fill="#B2AC9D"/>
<path d="M224.705 87.6774C224.546 87.9143 224.388 88.1512 224.23 88.3881C223.675 88.625 223.161 89.0198 222.765 89.4541C220.983 86.4139 219.32 83.2947 217.855 80.057C218.291 79.3068 218.806 78.5566 219.32 77.8459C219.637 77.4116 219.993 76.9773 220.31 76.543C221.458 80.3729 222.923 84.0843 224.705 87.6774Z" fill="#0D0E0F"/>
<path d="M222.766 89.4518C223.161 88.978 223.676 88.6226 224.23 88.3857C223.676 89.2939 223.161 90.202 222.726 91.1496C221.974 92.8079 221.419 94.5847 221.221 96.4009C218.529 96.6773 215.837 97.0721 213.184 97.6249C213.145 91.4655 214.689 85.306 217.817 80.0547C219.321 83.2923 220.944 86.4116 222.766 89.4518Z" fill="#F8EED1"/>
<path d="M221.221 96.4414C221.182 96.7968 221.182 97.1521 221.142 97.468C221.102 99.4027 221.538 101.258 222.33 102.996C219.638 101.732 216.272 101.811 213.62 103.193C213.342 101.377 213.184 99.5211 213.145 97.6654C215.837 97.0731 218.529 96.7178 221.221 96.4414Z" fill="#0D0E0F"/>
<path d="M61.9829 412.591C57.7466 406.826 56.7964 399.285 58.4989 392.336C59.4491 392.81 60.4389 393.165 61.4682 393.56C65.1107 394.942 68.5947 396.758 71.8413 398.93C72.7123 399.522 73.6229 400.154 74.6523 400.193C74.8106 400.193 74.9294 400.193 75.0878 400.154C75.167 401.812 75.4837 403.47 75.9192 405.089C76.5923 407.616 77.6216 410.064 79.3241 412.038C79.6408 412.433 80.0367 412.749 80.4327 413.104C78.2551 416.026 76.1172 418.987 74.0584 421.988C69.3074 419.777 65.0711 416.776 61.9829 412.591Z" fill="#F8EED1"/>
<path d="M61.4694 393.599C60.4796 393.204 59.4502 392.849 58.5 392.375C59.2127 389.414 60.44 386.531 62.1028 383.965C65.8245 388.032 69.7044 391.901 73.7824 395.613C74.6138 394.823 75.4452 394.033 76.2767 393.244C75.762 394.665 75.3265 396.165 75.1681 397.666C75.0493 398.495 75.0493 399.363 75.0889 400.193C74.9305 400.232 74.8118 400.232 74.6534 400.232C73.624 400.193 72.7134 399.561 71.8424 398.969C68.5959 396.758 65.1118 394.981 61.4694 393.599Z" fill="#0D0E0F"/>
<path d="M62.1016 383.965C62.6558 383.097 63.2497 382.268 63.8832 381.478C66.5358 378.24 69.8615 375.634 73.5436 373.66C72.9893 376.069 72.3162 378.477 71.5244 380.807C74.6917 380.807 77.8591 380.807 81.0264 380.807C81.5015 380.807 82.0162 380.807 82.4517 381.004C82.808 381.162 83.1248 381.399 83.4019 381.636C83.7978 381.991 84.1541 382.347 84.5105 382.702C83.9562 382.939 83.4019 383.215 82.8872 383.531C79.7199 385.466 77.8986 388.94 76.5525 392.415C76.4338 392.691 76.3546 392.968 76.2358 393.244C75.4044 394.034 74.5729 394.823 73.7415 395.613C69.7032 391.902 65.8232 387.993 62.1016 383.965Z" fill="#F8EED1"/>
<path d="M81.0684 380.807C77.9011 380.807 74.7337 380.807 71.5664 380.807C72.3582 378.477 73.0313 376.068 73.5856 373.66C74.8525 372.989 76.159 372.397 77.5052 371.844C76.7529 373.857 75.8027 375.832 74.6546 377.648C76.7925 378.516 79.0492 379.148 81.306 379.425C81.979 379.504 82.6125 379.583 83.2855 379.74C84.5921 380.096 85.7798 380.925 86.6112 381.991C85.8986 382.149 85.2255 382.346 84.5525 382.623C84.1961 382.267 83.8398 381.912 83.4439 381.557C83.1668 381.32 82.85 381.043 82.4937 380.925C82.0582 380.807 81.5435 380.807 81.0684 380.807Z" fill="#0D0E0F"/>
<path d="M79.0511 423.96C77.3486 423.368 75.6858 422.697 74.0625 421.946C76.1609 418.946 78.2592 416.024 80.4368 413.062C81.3078 413.773 82.3372 414.365 83.3665 414.721C82.0996 417.879 80.6743 420.959 79.0511 423.96Z" fill="#0D0E0F"/>
<path d="M75.0862 400.154C75.0466 399.324 75.0466 398.456 75.1654 397.627C75.3237 396.126 75.7592 394.626 76.2739 393.204C76.3135 393.165 76.3531 393.125 76.4323 393.086C78.2931 394.389 79.9164 396.008 81.2229 397.863C81.7772 397.113 82.1731 396.284 82.4898 395.376C82.4898 395.81 82.4898 396.284 82.4898 396.718C82.4898 397.548 82.4898 398.416 82.569 399.245C82.4502 399.285 82.2919 399.324 82.1731 399.364C80.3123 399.838 78.2535 399.443 76.6698 398.298C76.7886 399.206 75.9572 399.996 75.0862 400.154Z" fill="#0D0E0F"/>
<path d="M80.4347 413.103C80.0388 412.787 79.6825 412.432 79.3262 412.037C77.5841 410.102 76.5943 407.615 75.9213 405.088C75.4858 403.469 75.169 401.81 75.0898 400.152C76.0005 399.994 76.7923 399.205 76.6339 398.336C78.2176 399.441 80.2764 399.836 82.1372 399.402C82.2559 399.363 82.4143 399.323 82.5331 399.284C82.6914 402.205 83.1665 405.088 84.9878 407.299C86.809 409.549 90.4118 410.299 93.7771 410.339C94.6481 410.457 95.4796 410.497 96.3506 410.339C96.6277 410.299 96.9445 410.221 97.2216 410.142C97.1028 411.681 96.7069 413.182 96.0734 414.564C95.9547 414.801 95.8359 415.038 95.8755 415.314C95.9151 415.472 95.9547 415.59 96.0734 415.709C93.4604 416.183 90.7681 416.143 88.1551 415.63C87.5216 415.511 86.8882 415.353 86.2943 415.077C85.3441 415.156 84.3543 415.038 83.4437 414.722C82.3351 414.406 81.3057 413.814 80.4347 413.103Z" fill="#B2AC9D"/>
<path d="M84.5486 382.662C85.2217 382.386 85.8948 382.188 86.6074 382.031C88.6662 381.557 90.8437 381.557 92.9421 381.675C93.2192 381.675 93.4964 381.715 93.7735 381.715C93.5755 382.386 92.269 382.702 92.3086 383.452C93.0213 384.123 93.4172 385.031 93.5359 385.979C93.4964 386.176 93.4964 386.334 93.4964 386.532C93.14 386.492 92.8233 386.413 92.467 386.374C89.5768 386.058 86.3303 386.453 84.3903 388.624C82.8066 390.401 82.4899 392.889 82.4503 395.337C82.1731 396.205 81.7376 397.034 81.1833 397.824C79.8768 395.968 78.2536 394.349 76.3927 393.046C76.3532 393.086 76.3136 393.125 76.2344 393.165C76.3532 392.889 76.4323 392.612 76.5511 392.336C77.8576 388.901 79.7184 385.387 82.8858 383.452C83.4401 383.176 83.9943 382.899 84.5486 382.662Z" fill="#B2AC9D"/>
<path d="M74.6562 377.648C75.8044 375.832 76.7942 373.858 77.5069 371.844C82.4558 369.909 87.8403 369.001 93.1852 369.12C92.9476 371.094 92.4725 373.028 91.7203 374.884C91.5619 375.279 91.4035 375.713 91.3639 376.148C91.3639 376.464 91.4431 376.779 91.5619 377.056C91.9974 378.438 92.6705 379.741 93.5415 380.925C93.6603 381.083 93.779 381.241 93.8186 381.399C93.8186 381.517 93.8186 381.596 93.8186 381.675C93.5415 381.636 93.2643 381.636 92.9872 381.636C90.8888 381.518 88.7113 381.557 86.6525 381.991C85.8607 380.886 84.673 380.057 83.3268 379.741C82.6934 379.583 82.0203 379.504 81.3472 379.425C79.0509 379.148 76.7942 378.556 74.6562 377.648Z" fill="#F8EED1"/>
<path d="M79.0469 423.962C80.6701 420.961 82.0954 417.881 83.402 414.723C84.3126 415.039 85.2628 415.157 86.2526 415.078C86.8464 415.354 87.4799 415.512 88.1134 415.631C90.7264 416.144 93.4187 416.144 96.0317 415.71C96.1109 415.828 96.1901 415.907 96.2693 415.986C97.7341 417.526 99.2386 419.026 100.704 420.566C99.4366 422.54 98.2884 424.594 97.2591 426.726C94.2897 427.2 91.2411 427.16 88.3113 426.489V426.528C85.1836 425.857 82.0558 425.028 79.0469 423.962Z" fill="#F8EED1"/>
<path d="M82.4453 396.759C82.4453 396.324 82.4453 395.85 82.4453 395.416C82.5245 395.219 82.5641 395.061 82.6037 394.863C85.2167 394.587 87.8694 394.468 90.522 394.547C90.9179 394.824 91.3138 395.179 91.6702 395.535C88.3445 395.179 85.7314 398.298 82.5245 399.285C82.4849 398.417 82.4453 397.588 82.4453 396.759Z" fill="#0D0E0F"/>
<path d="M90.522 394.51C87.8694 394.471 85.2167 394.55 82.6037 394.826C82.5641 395.024 82.4849 395.181 82.4453 395.379C82.4849 392.931 82.8016 390.443 84.3853 388.667C86.3253 386.495 89.5718 386.1 92.462 386.416C92.8183 386.456 93.1351 386.495 93.4914 386.574C93.4914 386.693 93.4914 386.811 93.531 386.929C93.531 386.811 93.5706 386.693 93.5706 386.574C96.6983 387.127 99.7073 388.351 102.32 390.246C103.033 390.759 103.746 391.352 104.26 392.062C104.854 392.891 105.171 393.918 105.369 394.945C103.627 394.036 101.766 393.286 99.8657 392.812C98.7175 394.471 97.6089 396.09 96.4608 397.748C97.4902 396.919 98.5987 396.05 99.8657 395.655C101.172 395.3 102.716 395.537 103.548 396.603C104.142 397.393 104.34 398.577 105.25 398.893C105.29 398.932 105.369 398.932 105.408 398.932C104.973 402.289 103.389 405.487 100.935 407.816C100.182 408.527 99.351 409.159 98.4404 409.633C98.2028 408.409 97.8069 407.264 96.9755 406.355C97.2526 407.579 97.3318 408.882 97.213 410.146C96.1836 410.264 94.9959 410.383 93.7685 410.343C90.4428 410.304 86.8004 409.554 84.9792 407.303C83.158 405.092 82.6829 402.21 82.5245 399.288C85.7314 398.301 88.3445 395.142 91.6702 395.537C91.3138 395.142 90.9575 394.787 90.522 394.51Z" fill="#797873"/>
<path d="M91.5573 377.096C91.4782 376.781 91.3594 376.504 91.3594 376.188C91.3594 375.754 91.5177 375.32 91.7157 374.925C92.4283 373.069 92.943 371.134 93.1806 369.16C93.4181 369.16 93.6953 369.16 93.9328 369.2C94.5663 369.239 95.1998 369.279 95.8332 369.318C95.8332 373.424 96.0312 377.57 96.4271 381.676C96.4271 381.795 96.4667 381.953 96.4667 382.071C95.5561 381.953 94.6851 381.874 93.7745 381.795C93.8141 381.716 93.8141 381.598 93.7745 381.519C93.7349 381.321 93.6161 381.163 93.4973 381.045C92.6659 379.781 91.9928 378.478 91.5573 377.096Z" fill="#0D0E0F"/>
<path d="M92.3056 383.491C92.266 382.702 93.5329 382.386 93.7705 381.754C94.6811 381.833 95.5521 381.912 96.4627 382.03C96.4627 382.386 96.4231 382.702 96.2252 382.978C96.0272 383.254 95.6709 383.373 95.3542 383.531C94.404 384.004 93.7309 384.992 93.5329 386.058C93.4538 385.071 93.0182 384.123 92.3056 383.491Z" fill="#0D0E0F"/>
<path d="M93.5 386.572C93.5 386.375 93.5 386.217 93.539 386.02C93.539 386.217 93.578 386.375 93.539 386.572H93.5Z" fill="#0D0E0F"/>
<path d="M93.5 386.57H93.539C93.539 386.689 93.539 386.807 93.5 386.926C93.5 386.807 93.5 386.689 93.5 386.57Z" fill="#0D0E0F"/>
<path d="M93.5391 386.572C93.5391 386.375 93.5391 386.177 93.5391 386.02C93.6974 384.953 94.3705 383.966 95.3603 383.493C95.677 383.335 95.9937 383.216 96.2313 382.94C96.4293 382.663 96.4688 382.348 96.4688 381.992C100.072 382.505 103.595 383.532 106.644 385.506C109.138 387.125 111.276 389.494 112.503 392.179C111.672 391.784 110.88 391.271 110.207 390.6C110.009 390.402 109.811 390.205 109.574 390.205C109.217 390.205 108.94 390.56 108.782 390.876C107.95 392.376 107.079 393.916 106.248 395.417C105.971 395.259 105.694 395.101 105.417 394.943C105.258 393.916 104.902 392.929 104.308 392.061C103.793 391.35 103.081 390.758 102.368 390.244C99.7154 388.389 96.7064 387.125 93.5391 386.572Z" fill="#B2AC9D"/>
<path d="M93.7344 410.342C94.9617 410.342 96.1495 410.263 97.1789 410.145C96.9017 410.223 96.6246 410.302 96.3078 410.342C95.4764 410.5 94.6054 410.46 93.7344 410.342Z" fill="#797873"/>
<path d="M95.832 415.315C95.7924 415.038 95.9112 414.801 96.0299 414.564C96.6634 413.182 97.0593 411.682 97.1781 410.142C97.6136 410.024 98.0095 409.826 98.4054 409.629C98.6826 410.971 98.8014 412.393 99.2369 413.696C99.3556 414.012 99.4744 414.327 99.7516 414.485C99.8703 414.564 99.9891 414.604 100.108 414.604C98.8014 415.117 97.4157 415.472 96.0299 415.709C95.9112 415.591 95.832 415.433 95.832 415.315Z" fill="#0D0E0F"/>
<path d="M96.2727 415.987C96.1935 415.908 96.0747 415.79 96.0352 415.711C97.4209 415.474 98.8066 415.079 100.113 414.605C100.271 414.645 100.43 414.645 100.588 414.645C103.122 414.645 105.696 414.645 108.229 414.684C109.021 416.975 108.15 419.423 107.596 421.792C107.517 422.186 107.438 422.621 107.358 423.055C104.31 424.911 100.865 426.214 97.3813 426.766C97.3417 426.766 97.3021 426.766 97.2625 426.806C98.2919 424.674 99.44 422.621 100.707 420.646C99.2025 419.028 97.7376 417.527 96.2727 415.987Z" fill="#0D0E0F"/>
<path d="M96.422 381.597C96.0261 377.49 95.8281 373.384 95.8281 369.238C102.282 369.791 108.735 371.884 113.248 376.424C116.02 379.188 117.92 382.702 119.187 386.374C119.821 388.19 120.296 390.046 120.573 391.981C118.118 393.284 114.951 393.323 112.417 392.139C111.19 389.454 109.091 387.085 106.557 385.466C103.509 383.492 99.9853 382.465 96.3824 381.952C96.4616 381.873 96.422 381.755 96.422 381.597Z" fill="#F8EED1"/>
<path d="M96.4258 397.705C97.5739 396.047 98.6825 394.428 99.8307 392.77C101.731 393.283 103.592 393.994 105.334 394.902C105.374 395.178 105.413 395.494 105.453 395.77C105.532 396.797 105.532 397.863 105.413 398.89C105.374 398.89 105.294 398.85 105.255 398.85C104.344 398.534 104.146 397.35 103.552 396.56C102.76 395.494 101.177 395.217 99.8703 395.612C98.5637 396.007 97.4552 396.876 96.4258 397.705Z" fill="#0D0E0F"/>
<path d="M97.179 410.146C97.2977 408.882 97.2185 407.619 96.9414 406.355C97.7728 407.264 98.1292 408.409 98.4063 409.633C98.0104 409.83 97.6145 409.988 97.179 410.146Z" fill="#0D0E0F"/>
<path d="M99.2416 413.695C98.8061 412.392 98.6873 410.97 98.4102 409.628C99.3208 409.154 100.152 408.522 100.904 407.812C103.359 405.482 104.982 402.284 105.378 398.928C105.655 399.007 105.972 398.967 106.249 398.967C108.664 398.809 111.079 398.612 113.495 398.375C113.336 400.073 112.782 401.731 112.069 403.31C111.673 404.219 111.198 405.087 110.644 405.916C110.446 405.995 110.208 406.074 109.971 406.153C110.05 406.311 110.129 406.43 110.208 406.588C108.189 409.549 105.418 411.997 102.211 413.655C101.498 414.011 100.786 414.326 100.033 414.603C99.9146 414.563 99.7959 414.563 99.6771 414.484C99.4791 414.287 99.3604 413.971 99.2416 413.695Z" fill="#B2AC9D"/>
<path d="M100.545 414.605C100.387 414.605 100.229 414.605 100.07 414.566C100.823 414.29 101.535 413.974 102.248 413.618C105.455 411.96 108.226 409.512 110.245 406.551C111.908 409.907 113.294 413.381 114.363 416.935C112.383 419.343 110.008 421.397 107.355 422.976C107.395 422.542 107.474 422.147 107.593 421.712C108.147 419.343 108.978 416.895 108.226 414.605C105.653 414.645 103.119 414.605 100.545 414.605Z" fill="#F8EED1"/>
<path d="M105.455 395.81C105.415 395.533 105.376 395.218 105.336 394.941C105.613 395.099 105.89 395.257 106.167 395.415C106.999 393.915 107.87 392.375 108.701 390.874C108.899 390.558 109.137 390.203 109.493 390.203C109.77 390.203 109.968 390.44 110.127 390.598C110.8 391.269 111.552 391.782 112.423 392.177C113.175 393.796 113.571 395.573 113.531 397.35C113.531 397.666 113.492 397.981 113.492 398.337C111.077 398.574 108.662 398.771 106.247 398.929C105.969 398.968 105.653 398.968 105.376 398.89C105.534 397.902 105.534 396.876 105.455 395.81Z" fill="#0D0E0F"/>
<path d="M110.249 406.55C110.17 406.392 110.091 406.274 110.012 406.116C110.249 406.076 110.447 405.997 110.685 405.879C110.566 406.116 110.408 406.313 110.249 406.55Z" fill="#B2AC9D"/>
<path d="M110.246 406.549C110.404 406.312 110.523 406.115 110.682 405.878C111.196 405.641 111.671 405.286 112.067 404.852C113.77 407.694 115.274 410.616 116.66 413.656C116.224 414.367 115.789 415.038 115.274 415.71C114.958 416.104 114.641 416.539 114.324 416.934C113.295 413.38 111.909 409.905 110.246 406.549Z" fill="#0D0E0F"/>
<path d="M112.065 404.851C111.669 405.286 111.194 405.641 110.68 405.878C111.194 405.049 111.669 404.18 112.105 403.272C112.818 401.693 113.332 400.034 113.53 398.336C116.064 398.06 118.558 397.705 121.053 397.191C121.092 402.956 119.667 408.721 116.698 413.656C115.312 410.655 113.768 407.734 112.065 404.851Z" fill="#F8EED1"/>
<path d="M113.534 398.337C113.573 398.021 113.573 397.705 113.573 397.35C113.613 395.534 113.177 393.796 112.465 392.177C114.999 393.362 118.126 393.283 120.621 392.02C120.898 393.717 121.056 395.455 121.056 397.192C118.562 397.745 116.028 398.1 113.534 398.337Z" fill="#0D0E0F"/>
</g>
<defs>
<filter id="filter0_d" x="0.417969" y="0.339844" width="339.462" height="503.836" filterUnits="userSpaceOnUse" color-interpolation-filters="sRGB">
<feFlood flood-opacity="0" result="BackgroundImageFix"/>
<feColorMatrix in="SourceAlpha" type="matrix" values="0 0 0 0 0 0 0 0 0 0 0 0 0 0 0 0 0 0 127 0"/>
<feOffset dy="4"/>
<feGaussianBlur stdDeviation="2"/>
<feColorMatrix type="matrix" values="0 0 0 0 0 0 0 0 0 0 0 0 0 0 0 0 0 0 0.25 0"/>
<feBlend mode="normal" in2="BackgroundImageFix" result="effect1_dropShadow"/>
<feBlend mode="normal" in="SourceGraphic" in2="effect1_dropShadow" result="shape"/>
</filter>
</defs>
</svg>
