<svg width="332" height="497" viewBox="0 0 332 497" fill="none" xmlns="http://www.w3.org/2000/svg">
<path d="M331.88 50.3398C331.88 22.7256 309.494 0.339844 281.88 0.339844L50.418 0.339844C22.8037 0.339844 0.417969 22.7256 0.417969 50.3398L0.417969 446.176C0.417969 473.79 22.8037 496.176 50.4179 496.176H281.88C309.494 496.176 331.88 473.79 331.88 446.176V50.3398Z" fill="white"/>
<path d="M245.769 451.323H86.5311C55.5308 451.323 30.4297 426.251 30.4297 395.375L30.4297 101.222C30.4297 70.3061 55.5704 45.2734 86.5311 45.2734L245.769 45.2734C276.769 45.2734 301.87 70.3456 301.87 101.222V395.375C301.87 426.251 276.769 451.323 245.769 451.323Z" fill="#0D0E0F"/>
<path d="M74.0508 77.1733V72.2773H74.9218L76.0304 74.8043L77.1389 72.2773H78.0099V77.1733H77.1785V73.6988L76.2679 75.8309H75.7928L74.8822 73.6988V77.1733H74.0508Z" fill="white"/>
<path d="M79.7539 72.2773H80.6645L82.3274 75.8704L83.7923 72.2773H84.6633L81.7335 79.1475H80.9021L81.8523 76.818L79.7539 72.2773Z" fill="white"/>
<path d="M87.159 75.7519C87.2778 76.2257 87.5945 76.5416 88.03 76.5416C88.5447 76.5416 88.9011 76.2257 88.9011 75.6729C88.9011 75.0807 88.5843 74.7648 88.0696 74.7648C87.9509 74.7648 87.7925 74.8043 87.6737 74.8438L87.2778 74.3305L88.1884 73.0275H86.6047V72.2773H89.4157V72.5537L88.1884 74.1726C88.2676 74.1726 88.3072 74.1726 88.3864 74.1726C89.2178 74.1726 89.6929 74.7253 89.6929 75.6729C89.6929 76.6206 88.9802 77.2918 88.03 77.2918C87.1194 77.2918 86.486 76.7785 86.3672 75.8704L87.159 75.7519Z" fill="white"/>
<path d="M94.2031 72.1992C95.7076 72.1992 96.539 73.2653 96.539 74.5682V74.9236H92.6986C92.7382 75.9107 93.3321 76.5424 94.2031 76.5424C94.9553 76.5424 95.4304 76.1871 95.7868 75.5553L96.4202 75.9107C95.8659 76.9373 95.1137 77.2926 94.2031 77.2926C92.7778 77.2926 91.8672 76.1871 91.8672 74.7657C91.8672 73.3442 92.7382 72.1992 94.2031 72.1992ZM95.668 74.1734C95.5096 73.3837 95.0345 72.9494 94.2031 72.9494C93.4113 72.9494 92.9362 73.4232 92.7382 74.1734H95.668Z" fill="white"/>
<path d="M98.0898 77.174V72.278H98.9213V75.95L101.455 72.278H102.326V77.174H101.495V73.502L98.9609 77.174H98.0898ZM99.7923 70.3828C99.7923 70.6592 99.9507 70.8171 100.228 70.8171C100.505 70.8171 100.663 70.6592 100.663 70.3828H101.297C101.297 70.9751 100.861 71.4489 100.228 71.4489C99.5943 71.4489 99.1588 70.9751 99.1588 70.3828H99.7923Z" fill="white"/>
<path d="M55.2891 84.2027V83.6105L58.1397 81.6758V82.5444L56.1205 83.8869L58.1397 85.2293V86.098L55.2891 84.2027ZM57.6646 84.2027V83.6105L60.5152 81.6758V82.5444L58.496 83.8869L60.5152 85.2293V86.098L57.6646 84.2027Z" fill="white"/>
<path d="M62.0586 86.8854V86.1352H63.8006V81.2787L62.0982 82.3053V81.3971L64.3153 80.0547H64.6321V86.1352H66.3741V86.8854H62.0586V86.8854Z" fill="white"/>
<path d="M68.5541 84.9541C68.6729 85.7833 69.1084 86.2176 69.9002 86.2176C70.692 86.2176 71.2463 85.7043 71.2463 84.7962C71.2463 83.8881 70.692 83.3748 69.9002 83.3748C69.7022 83.3748 69.5043 83.3748 69.3063 83.4933L68.95 83.0194L70.4941 80.8873H68.0394V80.0977H71.761V80.374L70.019 82.7036C70.0982 82.6641 70.2169 82.6641 70.2961 82.6641C71.3255 82.6641 72.1173 83.4933 72.1173 84.7567C72.1173 86.0597 71.2067 86.9678 69.9002 86.9678C68.752 86.9678 67.8414 86.2176 67.7227 85.0331L68.5541 84.9541Z" fill="white"/>
<path d="M80.0703 86.8882V81.9922H84.0295V86.8882H83.1981V82.7424H80.8621V86.8882H80.0703Z" fill="white"/>
<path d="M86.0898 88.8983V82.0282H86.9213V82.6599C87.1984 82.2651 87.7527 81.9492 88.4258 81.9492C89.8511 81.9492 90.6825 82.9758 90.6825 84.4762C90.6825 85.9766 89.8906 87.0031 88.4258 87.0031C87.7527 87.0031 87.1984 86.6873 86.9213 86.2924V88.8983H86.0898V88.8983ZM88.3466 86.2529C89.2968 86.2529 89.8511 85.5028 89.8511 84.4762C89.8511 83.4101 89.2968 82.6994 88.3466 82.6994C87.3964 82.6994 86.8421 83.4496 86.8421 84.4762C86.8421 85.5028 87.3964 86.2529 88.3466 86.2529Z" fill="white"/>
<path d="M92.0273 86.8882V81.9922H92.8588V85.6642L95.3926 81.9922H96.2637V86.8882H95.4322V83.2162L92.8984 86.8882H92.0273Z" fill="white"/>
<path d="M98.2031 86.8882V81.9922H99.0741L100.183 84.5191L101.291 81.9922H102.162V86.8882H101.331V83.4136L100.42 85.5457H99.9452L99.0346 83.4136V86.8882H98.2031Z" fill="white"/>
<path d="M106.325 81.9141C107.83 81.9141 108.661 82.9801 108.661 84.2831V84.6384H104.821C104.861 85.6255 105.454 86.2573 106.325 86.2573C107.078 86.2573 107.553 85.9019 107.909 85.2702L108.543 85.6255C107.988 86.6521 107.236 87.0075 106.325 87.0075C104.9 87.0075 103.99 85.9019 103.99 84.4805C103.95 83.0986 104.861 81.9141 106.325 81.9141ZM107.79 83.8882C107.632 83.0986 107.157 82.6642 106.325 82.6642C105.534 82.6642 105.058 83.1381 104.861 83.8882H107.79Z" fill="white"/>
<path d="M110.078 82.7424V81.9922H114.512V82.7424H112.691V86.8882H111.86V82.7424H110.078Z" fill="white"/>
<path d="M115.707 86.1374V85.2688L117.726 83.9263L115.707 82.5839V81.6758L118.558 83.6105V84.2027L115.707 86.1374ZM118.043 86.1374V85.2688L120.062 83.9263L118.043 82.5839V81.6758L120.894 83.6105V84.2027L118.043 86.1374Z" fill="white"/>
<path d="M248.818 421.43V426.286H247.946L246.878 423.759L245.809 426.286H244.938V421.43H245.729V424.865L246.64 422.772H247.115L248.026 424.865V421.43H248.818Z" fill="white"/>
<path d="M243.19 426.287H242.279L240.656 422.734L239.23 426.287H238.359L241.25 419.496H242.041L241.091 421.786L243.19 426.287Z" fill="white"/>
<path d="M235.858 422.851C235.739 422.377 235.462 422.101 234.987 422.101C234.512 422.101 234.156 422.417 234.156 422.97C234.156 423.562 234.472 423.878 234.987 423.878C235.106 423.878 235.264 423.838 235.343 423.799L235.739 424.312L234.829 425.615H236.373V426.365H233.601V426.089L234.829 424.509C234.75 424.509 234.71 424.509 234.631 424.509C233.799 424.509 233.324 423.957 233.324 423.009C233.324 422.101 234.037 421.43 234.947 421.43C235.819 421.43 236.492 421.943 236.61 422.851H235.858Z" fill="white"/>
<path d="M228.859 426.327C227.354 426.327 226.562 425.261 226.562 423.997V423.642H230.363C230.324 422.694 229.73 422.063 228.859 422.063C228.107 422.063 227.631 422.418 227.315 423.01L226.681 422.655C227.236 421.628 227.988 421.312 228.898 421.312C230.324 421.312 231.234 422.418 231.234 423.8C231.195 425.221 230.324 426.327 228.859 426.327ZM227.434 424.392C227.592 425.142 228.067 425.616 228.898 425.616C229.69 425.616 230.165 425.142 230.324 424.392H227.434Z" fill="white"/>
<path d="M225.056 421.43V426.286H224.264V422.654L221.73 426.286H220.859V421.43H221.651V425.062L224.185 421.43H225.056ZM223.393 428.142C223.393 427.866 223.235 427.708 222.958 427.708C222.681 427.708 222.522 427.866 222.522 428.142H221.889C221.889 427.55 222.324 427.076 222.958 427.076C223.552 427.076 224.027 427.55 224.027 428.142H223.393Z" fill="white"/>
<path d="M267.382 414.482V415.074L264.531 416.969V416.1L266.55 414.758L264.531 413.415V412.547L267.382 414.482ZM265.046 414.482V415.074L262.195 416.969V416.1L264.214 414.758L262.195 413.415V412.547L265.046 414.482Z" fill="white"/>
<path d="M260.686 411.801V412.551H258.944V417.328L260.646 416.341V417.21L258.469 418.552H258.152V412.551H256.41V411.801H260.686Z" fill="white"/>
<path d="M254.239 413.772C254.12 412.983 253.685 412.509 252.893 412.509C252.101 412.509 251.547 413.022 251.547 413.93C251.547 414.838 252.101 415.352 252.893 415.352C253.091 415.352 253.289 415.352 253.487 415.233L253.843 415.668L252.299 417.76H254.714V418.51H251.032V418.234L252.735 415.904C252.655 415.944 252.537 415.944 252.457 415.944C251.428 415.944 250.676 415.115 250.676 413.891C250.676 412.627 251.586 411.68 252.853 411.68C253.962 411.68 254.912 412.43 254.991 413.614L254.239 413.772Z" fill="white"/>
<path d="M242.873 411.801V416.657H238.953V411.801H239.745V415.907H242.041V411.801H242.873Z" fill="white"/>
<path d="M236.896 409.863V416.655H236.104V416.023C235.827 416.378 235.272 416.733 234.639 416.733C233.214 416.733 232.422 415.707 232.422 414.246C232.422 412.785 233.214 411.759 234.639 411.759C235.312 411.759 235.866 412.074 236.104 412.469V409.903H236.896V409.863ZM234.679 412.469C233.768 412.469 233.214 413.18 233.214 414.246C233.214 415.312 233.768 416.023 234.679 416.023C235.589 416.023 236.144 415.273 236.144 414.246C236.144 413.219 235.589 412.469 234.679 412.469Z" fill="white"/>
<path d="M231.037 411.801V416.657H230.245V413.025L227.711 416.657H226.84V411.801H227.632V415.433L230.166 411.801H231.037Z" fill="white"/>
<path d="M224.935 411.801V416.657H224.064L222.995 414.13L221.926 416.657H221.055V411.801H221.847V415.236L222.757 413.143H223.232L224.143 415.236V411.801H224.935Z" fill="white"/>
<path d="M216.898 416.733C215.393 416.733 214.602 415.667 214.602 414.404V414.048H218.402C218.363 413.101 217.769 412.469 216.898 412.469C216.146 412.469 215.671 412.824 215.354 413.417L214.72 413.061C215.275 412.035 216.027 411.719 216.937 411.719C218.363 411.719 219.273 412.824 219.273 414.206C219.234 415.588 218.363 416.733 216.898 416.733ZM215.473 414.798C215.631 415.549 216.106 416.022 216.937 416.022C217.729 416.022 218.204 415.549 218.363 414.798H215.473Z" fill="white"/>
<path d="M213.219 415.946V416.696H208.824V415.946H210.606V411.84H211.398V415.946H213.219Z" fill="white"/>
<path d="M207.596 412.586V413.455L205.577 414.797L207.596 416.139V417.008L204.746 415.113V414.521L207.596 412.586ZM205.3 412.586V413.455L203.281 414.797L205.3 416.139V417.008L202.449 415.113V414.521L205.3 412.586Z" fill="white"/>
<path d="M102.222 182.517V170.844H108.55V182.517C108.55 184.747 109.01 186.439 109.93 187.594C110.866 188.749 112.142 189.326 113.76 189.326C115.41 189.326 116.702 189.097 117.638 188.638C118.59 188.179 119.589 187.42 120.636 186.36V170.844H126.964V204.866H120.636V193.264C118.653 194.656 115.989 195.352 112.642 195.352C109.422 195.352 106.877 194.3 105.005 192.197C103.15 190.077 102.222 186.851 102.222 182.517Z" fill="white"/>
<path d="M131.746 185.53V180.381H150.945V185.53H144.379V204.866H138.336V185.53H131.746Z" fill="white"/>
<path d="M157.154 201.687C154.918 199.299 153.8 196.278 153.8 192.624C153.8 188.954 154.918 185.933 157.154 183.561C159.406 181.172 162.443 179.978 166.266 179.978C170.104 179.978 173.141 181.172 175.377 183.561C177.63 185.933 178.756 188.954 178.756 192.624C178.756 196.278 177.63 199.299 175.377 201.687C173.141 204.06 170.104 205.246 166.266 205.246C162.443 205.246 159.406 204.06 157.154 201.687ZM161.793 187.309C160.683 188.749 160.128 190.52 160.128 192.624C160.128 194.727 160.683 196.499 161.793 197.938C162.903 199.378 164.394 200.097 166.266 200.097C168.153 200.097 169.644 199.378 170.738 197.938C171.849 196.499 172.404 194.727 172.404 192.624C172.404 190.52 171.849 188.749 170.738 187.309C169.644 185.87 168.153 185.15 166.266 185.15C164.394 185.15 162.903 185.87 161.793 187.309Z" fill="white"/>
<path d="M100.699 250.21C100.699 243.409 101.809 238.553 104.03 235.643C106.266 232.717 109.414 231.254 113.475 231.254H115.211C117.035 231.254 118.257 230.495 118.875 228.976H122.634C122.634 233.99 120.279 236.505 115.568 236.521H113.665C109.51 236.521 107.297 238.672 107.027 242.974C108.883 241.25 111.207 240.388 113.998 240.388C117.598 240.388 120.437 241.566 122.515 243.923C124.609 246.264 125.655 249.301 125.655 253.034C125.655 256.719 124.498 259.748 122.182 262.121C119.882 264.477 116.845 265.656 113.07 265.656C109.311 265.656 106.306 264.264 104.054 261.48C101.817 258.696 100.699 254.94 100.699 250.21ZM108.693 247.719C107.583 249.159 107.027 250.93 107.027 253.034C107.027 255.137 107.583 256.909 108.693 258.348C109.803 259.788 111.294 260.507 113.165 260.507C115.053 260.507 116.544 259.788 117.638 258.348C118.748 256.909 119.303 255.137 119.303 253.034C119.303 250.93 118.748 249.159 117.638 247.719C116.544 246.28 115.053 245.56 113.165 245.56C111.294 245.56 109.803 246.28 108.693 247.719Z" fill="white"/>
<path d="M130.866 265.276V240.791H136.908V250.116H141.381C143.982 250.116 146.044 250.804 147.566 252.18C149.105 253.556 149.874 255.398 149.874 257.708C149.874 260.001 149.105 261.836 147.566 263.212C146.044 264.588 143.982 265.276 141.381 265.276H130.866ZM136.908 260.128H140.31C142.578 260.128 143.712 259.321 143.712 257.708C143.728 256.079 142.594 255.264 140.31 255.264H136.908V260.128ZM154.989 265.276V240.791H161.032V265.276H154.989Z" fill="white"/>
<path d="M165.719 265.276V260.128C167.146 260.128 168.201 259.867 168.883 259.345C169.581 258.823 169.993 257.937 170.12 256.688L171.714 240.791H189.604V265.276H183.561V245.94H177.328L175.853 258.87C175.695 260.294 175.346 261.448 174.807 262.334C174.283 263.22 173.522 263.876 172.523 264.303C171.539 264.731 170.556 264.999 169.573 265.11C168.589 265.221 167.305 265.276 165.719 265.276Z" fill="white"/>
<path d="M198.549 262.097C196.313 259.709 195.195 256.688 195.195 253.034C195.195 249.364 196.313 246.343 198.549 243.971C200.802 241.582 203.839 240.388 207.661 240.388C211.499 240.388 214.537 241.582 216.773 243.971C219.025 246.343 220.151 249.364 220.151 253.034C220.151 256.688 219.025 259.709 216.773 262.097C214.537 264.47 211.499 265.656 207.661 265.656C203.839 265.656 200.802 264.47 198.549 262.097ZM203.189 247.719C202.078 249.159 201.523 250.93 201.523 253.034C201.523 255.137 202.078 256.909 203.189 258.348C204.299 259.788 205.79 260.507 207.661 260.507C209.549 260.507 211.039 259.788 212.134 258.348C213.244 256.909 213.799 255.137 213.799 253.034C213.799 250.93 213.244 249.159 212.134 247.719C211.039 246.28 209.549 245.56 207.661 245.56C205.79 245.56 204.299 246.28 203.189 247.719Z" fill="white"/>
<path d="M102.507 325.686V301.201H122.634V325.686H116.591L116.591 306.35H108.55L108.55 325.686H102.507Z" fill="white"/>
<path d="M131.698 322.507C129.462 320.119 128.344 317.098 128.344 313.444C128.344 309.774 129.462 306.753 131.698 304.381C133.95 301.992 136.988 300.798 140.81 300.798C144.648 300.798 147.685 301.992 149.922 304.381C152.174 306.753 153.3 309.774 153.3 313.444C153.3 317.098 152.174 320.119 149.922 322.507C147.685 324.88 144.648 326.066 140.81 326.066C136.988 326.066 133.95 324.88 131.698 322.507ZM136.337 308.129C135.227 309.569 134.672 311.34 134.672 313.444C134.672 315.548 135.227 317.319 136.337 318.758C137.448 320.198 138.938 320.917 140.81 320.917C142.697 320.917 144.188 320.198 145.283 318.758C146.393 317.319 146.948 315.548 146.948 313.444C146.948 311.34 146.393 309.569 145.283 308.129C144.188 306.69 142.697 305.97 140.81 305.97C138.938 305.97 137.448 306.69 136.337 308.129Z" fill="white"/>
<path d="M160.58 322.483C158.502 320.079 157.463 317.066 157.463 313.444C157.463 309.822 158.502 306.809 160.58 304.404C162.658 302 165.615 300.798 169.454 300.798C175.005 300.798 178.724 303.131 180.611 307.797L175.211 309.98C173.879 307.291 171.96 305.954 169.454 305.97C167.598 305.97 166.186 306.658 165.219 308.034C164.267 309.41 163.792 311.214 163.792 313.444C163.792 315.674 164.267 317.477 165.219 318.853C166.186 320.229 167.598 320.917 169.454 320.917C171.96 320.917 173.879 319.573 175.211 316.884L180.611 319.067C178.724 323.733 175.005 326.066 169.454 326.066C165.615 326.066 162.658 324.872 160.58 322.483Z" fill="white"/>
<path d="M183.657 325.686V320.538C185.084 320.538 186.139 320.277 186.821 319.755C187.519 319.233 187.931 318.347 188.058 317.098L189.652 301.201H207.542V325.686H201.499V306.35H195.266L193.791 319.28C193.633 320.704 193.284 321.859 192.745 322.744C192.221 323.63 191.46 324.286 190.461 324.713C189.477 325.141 188.494 325.409 187.511 325.52C186.527 325.631 185.243 325.686 183.657 325.686Z" fill="white"/>
<path d="M213.799 317.881C213.355 316.441 213.133 314.962 213.133 313.444C213.133 311.925 213.355 310.447 213.799 309.007C214.259 307.552 214.933 306.208 215.821 304.974C216.725 303.724 217.962 302.72 219.533 301.961C221.119 301.186 222.919 300.798 224.933 300.798C226.884 300.798 228.621 301.178 230.143 301.937C231.666 302.68 232.863 303.661 233.736 304.879C234.624 306.081 235.282 307.37 235.71 308.746C236.154 310.122 236.376 311.506 236.376 312.898V315.389H219.461C219.525 316.876 220.064 318.173 221.079 319.28C222.11 320.372 223.506 320.917 225.266 320.917C227.772 320.917 229.755 319.66 231.214 317.145L236.091 318.924C234.013 323.685 230.294 326.066 224.933 326.066C222.919 326.066 221.119 325.686 219.533 324.927C217.962 324.168 216.725 323.163 215.821 321.914C214.933 320.664 214.259 319.32 213.799 317.881ZM219.604 310.621H230.191C229.509 307.505 227.756 305.954 224.933 305.97C223.506 305.97 222.316 306.421 221.364 307.323C220.413 308.224 219.826 309.324 219.604 310.621Z" fill="white"/>
<path d="M240.159 298.71C240.555 296.575 241.571 294.803 243.204 293.396C244.838 291.988 246.923 291.284 249.461 291.284C252.189 291.284 254.37 291.98 256.003 293.372C257.653 294.764 258.478 296.63 258.478 298.971C258.478 300.79 257.946 302.198 256.884 303.194C255.837 304.191 254.124 305.148 251.745 306.065C250.127 306.714 249.033 307.251 248.462 307.679C247.891 308.09 247.605 308.62 247.605 309.268C247.605 309.79 247.772 310.201 248.105 310.502C248.454 310.802 248.874 310.953 249.366 310.953C250.698 310.953 251.626 310.209 252.149 308.722L256.432 310.336C255.877 311.886 254.988 313.112 253.767 314.013C252.562 314.899 251.095 315.342 249.366 315.342C247.383 315.342 245.766 314.765 244.513 313.61C243.26 312.455 242.633 310.961 242.633 309.126C242.633 306.247 244.394 304.136 247.915 302.791C249.802 302.079 251.079 301.439 251.745 300.869C252.427 300.284 252.768 299.588 252.768 298.781C252.768 297.959 252.474 297.35 251.888 296.955C251.317 296.543 250.555 296.338 249.604 296.338C247.494 296.338 246.114 297.421 245.464 299.588L240.159 298.71ZM245.321 321.985C245.321 320.846 245.718 319.881 246.511 319.091C247.304 318.3 248.256 317.904 249.366 317.904C250.476 317.904 251.428 318.308 252.221 319.114C253.014 319.905 253.41 320.862 253.41 321.985C253.41 323.092 253.022 324.033 252.245 324.808C251.467 325.583 250.508 325.971 249.366 325.971C248.224 325.971 247.264 325.583 246.487 324.808C245.71 324.033 245.321 323.092 245.321 321.985Z" fill="white"/>
<path d="M272.256 81.2042C276.77 87.3637 277.799 95.3789 275.978 102.841C274.988 102.328 273.88 101.933 272.811 101.538C268.931 100.077 265.169 98.1427 261.725 95.8132C260.814 95.1814 259.824 94.5102 258.716 94.4707C258.558 94.4707 258.399 94.4707 258.241 94.5102C258.162 92.7334 257.805 90.9567 257.33 89.2194C256.618 86.5345 255.549 83.8891 253.688 81.7965C253.331 81.4016 252.936 81.0068 252.5 80.6909C254.796 77.5717 257.093 74.413 259.31 71.2148C264.457 73.5444 269.01 76.7426 272.256 81.2042Z" fill="#F8EED1"/>
<path d="M272.809 101.497C273.878 101.892 274.947 102.287 275.977 102.8C275.185 105.959 273.918 109.039 272.136 111.802C268.177 107.459 264.02 103.314 259.665 99.3651C258.754 100.194 257.883 101.063 256.973 101.892C257.527 100.352 257.962 98.7729 258.16 97.1541C258.279 96.2459 258.279 95.3378 258.24 94.4692C258.398 94.4297 258.556 94.4297 258.715 94.4297C259.823 94.4692 260.813 95.1404 261.724 95.7721C265.208 98.1017 268.929 100.036 272.809 101.497Z" fill="#0D0E0F"/>
<path d="M272.133 111.8C271.539 112.708 270.906 113.616 270.233 114.445C267.382 117.92 263.859 120.723 259.899 122.816C260.493 120.249 261.206 117.683 262.037 115.195C258.632 115.195 255.267 115.195 251.862 115.195C251.348 115.195 250.833 115.195 250.358 114.998C249.962 114.84 249.645 114.603 249.328 114.327C248.932 113.971 248.497 113.577 248.141 113.182C248.735 112.945 249.328 112.629 249.883 112.313C253.248 110.22 255.228 106.509 256.613 102.837C256.732 102.561 256.851 102.245 256.93 101.968C257.841 101.139 258.712 100.271 259.622 99.4414C264.017 103.35 268.174 107.496 272.133 111.8Z" fill="#F8EED1"/>
<path d="M251.906 115.197C255.311 115.197 258.677 115.197 262.082 115.197C261.21 117.685 260.498 120.251 259.944 122.818C258.597 123.528 257.172 124.2 255.747 124.752C256.539 122.581 257.568 120.488 258.795 118.553C256.499 117.606 254.124 116.974 251.669 116.619C250.956 116.54 250.244 116.461 249.571 116.263C248.145 115.868 246.878 115 246.047 113.855C246.799 113.697 247.512 113.46 248.224 113.184C248.62 113.578 249.016 113.973 249.412 114.329C249.729 114.605 250.046 114.842 250.442 115C250.837 115.158 251.392 115.197 251.906 115.197Z" fill="#0D0E0F"/>
<path d="M254.046 69.0391C255.867 69.6708 257.649 70.3815 259.391 71.1712C257.174 74.3694 254.878 77.528 252.581 80.6473C251.631 79.8576 250.562 79.2653 249.414 78.91C250.8 75.5539 252.344 72.2767 254.046 69.0391Z" fill="#0D0E0F"/>
<path d="M258.278 94.5078C258.318 95.4159 258.318 96.3241 258.199 97.1927C258.001 98.8115 257.566 100.391 257.011 101.931C256.972 101.97 256.893 102.01 256.853 102.089C254.873 100.707 253.131 98.9695 251.746 96.9558C251.191 97.7455 250.716 98.6536 250.4 99.6012C250.4 99.1274 250.4 98.6536 250.4 98.1798C250.4 97.2717 250.36 96.3635 250.32 95.4554C250.479 95.4159 250.597 95.3765 250.756 95.337C252.735 94.8237 254.953 95.258 256.615 96.4425C256.457 95.4949 257.328 94.6657 258.278 94.5078Z" fill="#0D0E0F"/>
<path d="M252.583 80.688C253.018 81.0434 253.375 81.3987 253.771 81.7936C255.632 83.8467 256.7 86.5316 257.413 89.2165C257.888 90.9538 258.245 92.7306 258.324 94.5073C257.374 94.7047 256.503 95.4944 256.661 96.442C254.998 95.2575 252.781 94.8232 250.801 95.3365C250.643 95.376 250.524 95.4154 250.366 95.4549C250.207 92.3357 249.693 89.256 247.753 86.887C245.813 84.4785 241.933 83.6888 238.37 83.6493C237.459 83.4914 236.548 83.4914 235.598 83.6493C235.281 83.6888 234.965 83.7678 234.688 83.8862C234.806 82.2674 235.242 80.6486 235.915 79.1482C236.034 78.9113 236.152 78.6349 236.113 78.3585C236.073 78.2006 236.034 78.0426 235.915 77.9242C238.686 77.4504 241.576 77.4504 244.348 78.0031C245.021 78.1216 245.734 78.319 246.367 78.5954C247.396 78.5164 248.426 78.6349 249.416 78.9508C250.564 79.3061 251.633 79.8984 252.583 80.688Z" fill="#B2AC9D"/>
<path d="M248.178 113.185C247.465 113.461 246.753 113.698 246.001 113.856C243.823 114.33 241.487 114.369 239.23 114.251C238.953 114.251 238.637 114.211 238.359 114.211C238.597 113.501 239.983 113.185 239.903 112.356C239.151 111.645 238.716 110.658 238.597 109.631C238.637 109.434 238.637 109.236 238.637 109.039C238.993 109.118 239.389 109.157 239.745 109.197C242.833 109.552 246.278 109.118 248.336 106.788C250.039 104.893 250.356 102.208 250.395 99.6024C250.712 98.6548 251.147 97.7862 251.741 96.957C253.127 98.9312 254.869 100.669 256.849 102.09C256.888 102.05 256.967 102.011 257.007 101.932C256.888 102.248 256.809 102.524 256.69 102.801C255.265 106.473 253.325 110.184 249.96 112.277C249.366 112.632 248.772 112.908 248.178 113.185Z" fill="#B2AC9D"/>
<path d="M258.758 118.515C257.531 120.45 256.501 122.542 255.709 124.714C250.444 126.767 244.663 127.754 238.962 127.636C239.239 125.543 239.754 123.45 240.506 121.476C240.665 121.042 240.863 120.608 240.863 120.134C240.863 119.778 240.783 119.463 240.665 119.147C240.189 117.686 239.477 116.264 238.566 115.001C238.447 114.843 238.329 114.685 238.289 114.488C238.289 114.369 238.289 114.29 238.329 114.172C238.606 114.211 238.923 114.211 239.2 114.211C241.456 114.33 243.792 114.29 245.97 113.816C246.841 115.001 248.108 115.87 249.494 116.225C250.167 116.422 250.879 116.462 251.592 116.58C254.086 116.936 256.462 117.607 258.758 118.515Z" fill="#F8EED1"/>
<path d="M254.044 69.041C252.342 72.2392 250.797 75.5558 249.412 78.9119C248.422 78.5961 247.393 78.4381 246.363 78.5566C245.73 78.2802 245.017 78.0828 244.344 77.9643C241.573 77.4115 238.682 77.4115 235.911 77.8853C235.832 77.7669 235.753 77.6879 235.634 77.5695C234.05 75.9506 232.466 74.3318 230.883 72.6735C232.269 70.5414 233.496 68.3698 234.565 66.0797C237.732 65.5664 240.979 65.6454 244.146 66.3166V66.2771C247.472 67.0668 250.797 67.9355 254.044 69.041Z" fill="#F8EED1"/>
<path d="M250.397 98.1384C250.397 98.6122 250.397 99.086 250.397 99.5598C250.318 99.7573 250.278 99.9547 250.239 100.152C247.427 100.428 244.616 100.586 241.766 100.507C241.33 100.192 240.934 99.8362 240.578 99.4414C244.141 99.8362 246.913 96.4801 250.357 95.4141C250.357 96.3222 250.397 97.2698 250.397 98.1384Z" fill="#0D0E0F"/>
<path d="M238.365 83.6094C241.929 83.6489 245.809 84.478 247.749 86.847C249.689 89.2161 250.203 92.2958 250.362 95.415C246.957 96.4811 244.146 99.8372 240.583 99.4423C240.939 99.8372 241.335 100.193 241.77 100.508C244.581 100.548 247.432 100.429 250.243 100.153C250.282 99.9556 250.362 99.7582 250.401 99.5608C250.362 102.167 250.045 104.812 248.343 106.747C246.284 109.076 242.8 109.511 239.751 109.155C239.395 109.116 238.999 109.076 238.643 108.997C238.643 108.879 238.643 108.721 238.603 108.603C238.603 108.721 238.563 108.839 238.563 108.997C235.198 108.445 231.991 107.102 229.22 105.088C228.428 104.536 227.715 103.904 227.161 103.114C226.527 102.206 226.171 101.14 225.973 100.035C227.834 101.022 229.814 101.772 231.872 102.325C233.06 100.587 234.287 98.8106 235.475 97.0733C234.367 97.9814 233.218 98.8896 231.833 99.2844C230.447 99.6792 228.784 99.4028 227.913 98.2578C227.28 97.4287 227.082 96.1652 226.092 95.8098C226.052 95.7703 225.973 95.7703 225.934 95.7703C226.409 92.1773 228.072 88.7423 230.724 86.2548C231.516 85.5046 232.427 84.8334 233.416 84.3201C233.694 85.623 234.09 86.847 234.961 87.8341C234.683 86.4917 234.604 85.1492 234.723 83.8068C235.792 83.6883 237.059 83.6094 238.365 83.6094Z" fill="#797873"/>
<path d="M240.663 119.146C240.782 119.462 240.861 119.778 240.861 120.133C240.861 120.607 240.663 121.041 240.505 121.476C239.713 123.45 239.198 125.503 238.961 127.635C238.683 127.635 238.446 127.635 238.169 127.596C237.496 127.556 236.823 127.517 236.15 127.477C236.15 123.095 235.952 118.672 235.516 114.29C235.516 114.132 235.477 114.013 235.477 113.855C236.427 113.974 237.377 114.092 238.327 114.171C238.288 114.25 238.288 114.369 238.288 114.487C238.327 114.685 238.446 114.843 238.565 115C239.475 116.264 240.188 117.685 240.663 119.146Z" fill="#0D0E0F"/>
<path d="M239.871 112.314C239.911 113.143 238.525 113.498 238.327 114.17C237.377 114.091 236.427 114.012 235.477 113.854C235.477 113.498 235.516 113.143 235.754 112.867C235.991 112.59 236.348 112.472 236.664 112.314C237.694 111.801 238.406 110.734 238.604 109.629C238.683 110.616 239.119 111.603 239.871 112.314Z" fill="#0D0E0F"/>
<path d="M238.601 108.996C238.601 109.194 238.601 109.391 238.561 109.588C238.521 109.391 238.521 109.194 238.561 108.996H238.601Z" fill="#0D0E0F"/>
<path d="M238.599 108.996C238.559 108.996 238.559 108.996 238.52 108.996C238.52 108.878 238.52 108.759 238.559 108.602C238.599 108.759 238.599 108.878 238.599 108.996Z" fill="#0D0E0F"/>
<path d="M238.563 109C238.563 109.197 238.563 109.394 238.563 109.592C238.365 110.737 237.653 111.763 236.623 112.277C236.307 112.435 235.95 112.553 235.713 112.829C235.475 113.106 235.436 113.461 235.436 113.817C231.595 113.264 227.834 112.158 224.588 110.066C221.895 108.328 219.639 105.841 218.332 102.959C219.243 103.393 220.074 103.946 220.787 104.656C220.985 104.854 221.183 105.091 221.46 105.091C221.856 105.13 222.133 104.735 222.331 104.38C223.241 102.761 224.152 101.142 225.023 99.5234C225.34 99.6814 225.617 99.8788 225.934 100.037C226.132 101.142 226.488 102.208 227.121 103.116C227.676 103.906 228.428 104.498 229.18 105.091C231.991 107.104 235.198 108.447 238.563 109Z" fill="#B2AC9D"/>
<path d="M238.37 83.611C237.063 83.611 235.796 83.69 234.688 83.8084C235.004 83.7295 235.281 83.6505 235.598 83.5715C236.509 83.4531 237.459 83.4926 238.37 83.611Z" fill="#797873"/>
<path d="M236.108 78.3171C236.147 78.5935 236.029 78.8699 235.91 79.1068C235.237 80.6072 234.801 82.1865 234.682 83.8448C234.247 83.9633 233.811 84.1607 233.376 84.3581C233.099 82.9367 232.94 81.3969 232.465 80.0149C232.347 79.6991 232.228 79.3437 231.911 79.1858C231.792 79.1068 231.673 79.0673 231.555 79.0673C232.98 78.5146 234.445 78.1197 235.91 77.8828C236.029 78.0013 236.108 78.1592 236.108 78.3171Z" fill="#0D0E0F"/>
<path d="M235.676 77.5683C235.756 77.6473 235.874 77.7657 235.953 77.8842C234.449 78.1605 232.984 78.5554 231.598 79.0687C231.44 79.0292 231.282 79.0292 231.123 79.0292C228.391 79.0292 225.66 78.9897 222.928 78.9897C222.096 76.5417 223.007 73.8963 223.601 71.4088C223.72 70.9745 223.799 70.5402 223.838 70.0664C227.125 68.0922 230.767 66.7103 234.528 66.0785C234.568 66.0785 234.607 66.0785 234.647 66.0391C233.578 68.3291 232.351 70.5007 230.965 72.6328C232.509 74.3306 234.093 75.9495 235.676 77.5683Z" fill="#0D0E0F"/>
<path d="M235.47 114.329C235.906 118.712 236.103 123.094 236.103 127.517C229.215 126.924 222.326 124.674 217.495 119.817C214.566 116.856 212.507 113.105 211.161 109.196C210.488 107.261 209.973 105.248 209.656 103.234C212.309 101.852 215.635 101.773 218.366 103.037C219.673 105.919 221.93 108.406 224.622 110.144C227.868 112.236 231.63 113.342 235.47 113.895C235.47 114.013 235.47 114.171 235.47 114.329Z" fill="#F8EED1"/>
<path d="M235.475 97.1155C234.287 98.8527 233.06 100.63 231.872 102.367C229.813 101.814 227.834 101.064 225.973 100.077C225.933 99.7609 225.894 99.445 225.854 99.1291C225.735 98.0236 225.775 96.918 225.933 95.8125C225.973 95.8125 226.052 95.852 226.092 95.852C227.082 96.2073 227.28 97.4708 227.913 98.3C228.784 99.445 230.447 99.7214 231.833 99.3265C233.218 98.9317 234.366 98.0236 235.475 97.1155Z" fill="#0D0E0F"/>
<path d="M234.682 83.8477C234.563 85.1901 234.642 86.572 234.919 87.875C234.008 86.8879 233.613 85.6639 233.375 84.3609C233.771 84.1635 234.206 83.9661 234.682 83.8477Z" fill="#0D0E0F"/>
<path d="M232.465 80.0566C232.941 81.4385 233.059 82.9389 233.376 84.3998C232.386 84.913 231.515 85.5843 230.684 86.3345C228.031 88.8219 226.329 92.257 225.893 95.85C225.577 95.7711 225.26 95.8105 224.943 95.8105C222.37 96.008 219.796 96.1659 217.223 96.4423C217.421 94.626 217.975 92.8493 218.727 91.191C219.163 90.2433 219.677 89.2957 220.232 88.4271C220.469 88.3086 220.707 88.2297 220.944 88.1902C220.865 88.0323 220.786 87.8743 220.707 87.7164C222.884 84.5577 225.854 81.9123 229.259 80.175C230.011 79.7802 230.763 79.4643 231.555 79.1484C231.674 79.1879 231.792 79.2274 231.911 79.2669C232.228 79.3853 232.347 79.7407 232.465 80.0566Z" fill="#B2AC9D"/>
<path d="M231.08 79.0722C231.239 79.0722 231.397 79.0722 231.555 79.1117C230.763 79.4275 230.011 79.7434 229.259 80.1382C225.854 81.915 222.885 84.5209 220.707 87.6796C218.926 84.1261 217.461 80.3751 216.312 76.5847C218.411 74.0183 220.984 71.8467 223.795 70.1094C223.716 70.5832 223.637 71.0175 223.558 71.4518C222.964 73.9788 222.053 76.5847 222.885 79.0327C225.617 79.0327 228.348 79.0327 231.08 79.0722Z" fill="#F8EED1"/>
<path d="M225.849 99.1277C225.888 99.4436 225.928 99.7595 225.968 100.075C225.651 99.9174 225.374 99.7595 225.057 99.562C224.146 101.181 223.236 102.8 222.365 104.419C222.167 104.774 221.89 105.169 221.494 105.129C221.217 105.129 220.979 104.892 220.821 104.695C220.108 103.984 219.277 103.431 218.366 102.997C217.574 101.26 217.139 99.4041 217.178 97.4694C217.178 97.1141 217.218 96.7587 217.257 96.4428C219.831 96.1664 222.404 95.969 224.978 95.8111C225.295 95.7716 225.611 95.7716 225.928 95.8506C225.77 96.9166 225.73 98.0222 225.849 99.1277Z" fill="#0D0E0F"/>
<path d="M220.713 87.6758C220.793 87.8337 220.872 87.9916 220.951 88.1496C220.713 88.1891 220.476 88.268 220.238 88.3865C220.397 88.1496 220.555 87.9127 220.713 87.6758Z" fill="#B2AC9D"/>
<path d="M220.705 87.6774C220.546 87.9143 220.388 88.1512 220.23 88.3881C219.675 88.625 219.161 89.0198 218.765 89.4541C216.983 86.4139 215.32 83.2947 213.855 80.057C214.291 79.3068 214.806 78.5566 215.32 77.8459C215.637 77.4116 215.993 76.9773 216.31 76.543C217.458 80.3729 218.923 84.0843 220.705 87.6774Z" fill="#0D0E0F"/>
<path d="M218.766 89.4518C219.161 88.978 219.676 88.6226 220.23 88.3857C219.676 89.2939 219.161 90.202 218.726 91.1496C217.974 92.8079 217.419 94.5847 217.221 96.4009C214.529 96.6773 211.837 97.0721 209.184 97.6249C209.145 91.4655 210.689 85.306 213.817 80.0547C215.321 83.2923 216.944 86.4116 218.766 89.4518Z" fill="#F8EED1"/>
<path d="M217.221 96.4414C217.182 96.7968 217.182 97.1521 217.142 97.468C217.102 99.4027 217.538 101.258 218.33 102.996C215.638 101.732 212.272 101.811 209.62 103.193C209.342 101.377 209.184 99.5211 209.145 97.6654C211.837 97.0731 214.529 96.7178 217.221 96.4414Z" fill="#0D0E0F"/>
<path d="M57.9829 412.591C53.7466 406.826 52.7964 399.285 54.4989 392.336C55.4491 392.81 56.4389 393.165 57.4682 393.56C61.1107 394.942 64.5947 396.758 67.8413 398.93C68.7123 399.522 69.6229 400.154 70.6523 400.193C70.8106 400.193 70.9294 400.193 71.0878 400.154C71.167 401.812 71.4837 403.47 71.9192 405.089C72.5923 407.616 73.6216 410.064 75.3241 412.038C75.6408 412.433 76.0367 412.749 76.4327 413.104C74.2551 416.026 72.1172 418.987 70.0584 421.988C65.3074 419.777 61.0711 416.776 57.9829 412.591Z" fill="#F8EED1"/>
<path d="M57.4694 393.599C56.4796 393.204 55.4502 392.849 54.5 392.375C55.2127 389.414 56.44 386.531 58.1028 383.965C61.8245 388.032 65.7044 391.901 69.7824 395.613C70.6138 394.823 71.4452 394.033 72.2767 393.244C71.762 394.665 71.3265 396.165 71.1681 397.666C71.0493 398.495 71.0493 399.363 71.0889 400.193C70.9305 400.232 70.8118 400.232 70.6534 400.232C69.624 400.193 68.7134 399.561 67.8424 398.969C64.5959 396.758 61.1118 394.981 57.4694 393.599Z" fill="#0D0E0F"/>
<path d="M58.1016 383.965C58.6558 383.097 59.2497 382.268 59.8832 381.478C62.5358 378.24 65.8615 375.634 69.5436 373.66C68.9893 376.069 68.3162 378.477 67.5244 380.807C70.6917 380.807 73.8591 380.807 77.0264 380.807C77.5015 380.807 78.0162 380.807 78.4517 381.004C78.808 381.162 79.1247 381.399 79.4019 381.636C79.7978 381.991 80.1541 382.347 80.5105 382.702C79.9562 382.939 79.4019 383.215 78.8872 383.531C75.7199 385.466 73.8986 388.94 72.5525 392.415C72.4338 392.691 72.3546 392.968 72.2358 393.244C71.4044 394.034 70.5729 394.823 69.7415 395.613C65.7032 391.902 61.8232 387.993 58.1016 383.965Z" fill="#F8EED1"/>
<path d="M77.0684 380.807C73.9011 380.807 70.7337 380.807 67.5664 380.807C68.3582 378.477 69.0313 376.068 69.5856 373.66C70.8525 372.989 72.159 372.397 73.5052 371.844C72.7529 373.857 71.8027 375.832 70.6546 377.648C72.7925 378.516 75.0492 379.148 77.306 379.425C77.979 379.504 78.6125 379.583 79.2855 379.74C80.5921 380.096 81.7798 380.925 82.6112 381.991C81.8986 382.149 81.2255 382.346 80.5525 382.623C80.1961 382.267 79.8398 381.912 79.4439 381.557C79.1668 381.32 78.85 381.043 78.4937 380.925C78.0582 380.807 77.5435 380.807 77.0684 380.807Z" fill="#0D0E0F"/>
<path d="M75.0511 423.96C73.3486 423.368 71.6858 422.697 70.0625 421.946C72.1609 418.946 74.2592 416.024 76.4368 413.062C77.3078 413.773 78.3372 414.365 79.3665 414.721C78.0996 417.879 76.6743 420.959 75.0511 423.96Z" fill="#0D0E0F"/>
<path d="M71.0862 400.153C71.0466 399.324 71.0466 398.456 71.1654 397.627C71.3237 396.126 71.7592 394.626 72.2739 393.204C72.3135 393.165 72.3531 393.125 72.4323 393.086C74.2931 394.389 75.9164 396.008 77.2229 397.863C77.7772 397.113 78.1731 396.284 78.4898 395.376C78.4898 395.81 78.4898 396.284 78.4898 396.718C78.4898 397.548 78.4898 398.416 78.569 399.245C78.4502 399.285 78.2919 399.324 78.1731 399.364C76.3123 399.838 74.2535 399.443 72.6698 398.298C72.7886 399.206 71.9572 399.996 71.0862 400.153Z" fill="#0D0E0F"/>
<path d="M76.4347 413.103C76.0388 412.787 75.6825 412.432 75.3262 412.037C73.5841 410.102 72.5943 407.615 71.9213 405.088C71.4858 403.469 71.169 401.81 71.0898 400.152C72.0005 399.994 72.7923 399.205 72.6339 398.336C74.2176 399.441 76.2764 399.836 78.1372 399.402C78.2559 399.363 78.4143 399.323 78.5331 399.284C78.6914 402.205 79.1665 405.088 80.9878 407.299C82.809 409.549 86.4118 410.299 89.7771 410.339C90.6481 410.457 91.4796 410.497 92.3506 410.339C92.6277 410.299 92.9444 410.221 93.2216 410.142C93.1028 411.681 92.7069 413.182 92.0734 414.564C91.9547 414.801 91.8359 415.038 91.8755 415.314C91.9151 415.472 91.9547 415.59 92.0734 415.709C89.4604 416.183 86.7681 416.143 84.1551 415.63C83.5216 415.511 82.8882 415.353 82.2943 415.077C81.3441 415.156 80.3543 415.038 79.4437 414.722C78.3351 414.406 77.3057 413.814 76.4347 413.103Z" fill="#B2AC9D"/>
<path d="M80.5486 382.662C81.2217 382.386 81.8948 382.188 82.6074 382.031C84.6662 381.557 86.8437 381.557 88.9421 381.675C89.2192 381.675 89.4964 381.715 89.7735 381.715C89.5755 382.386 88.269 382.702 88.3086 383.452C89.0213 384.123 89.4172 385.031 89.5359 385.979C89.4964 386.176 89.4964 386.334 89.4964 386.532C89.14 386.492 88.8233 386.413 88.467 386.374C85.5768 386.058 82.3303 386.453 80.3903 388.624C78.8066 390.401 78.4899 392.889 78.4503 395.337C78.1731 396.205 77.7376 397.034 77.1833 397.824C75.8768 395.968 74.2536 394.349 72.3927 393.046C72.3532 393.086 72.3136 393.125 72.2344 393.165C72.3532 392.889 72.4323 392.612 72.5511 392.336C73.8576 388.901 75.7184 385.387 78.8858 383.452C79.4401 383.176 79.9943 382.899 80.5486 382.662Z" fill="#B2AC9D"/>
<path d="M70.6562 377.648C71.8044 375.832 72.7942 373.858 73.5069 371.844C78.4558 369.909 83.8403 369.001 89.1852 369.12C88.9476 371.094 88.4725 373.028 87.7203 374.884C87.5619 375.279 87.4035 375.713 87.3639 376.148C87.3639 376.464 87.4431 376.779 87.5619 377.056C87.9974 378.438 88.6705 379.741 89.5415 380.925C89.6603 381.083 89.779 381.241 89.8186 381.399C89.8186 381.517 89.8186 381.596 89.8186 381.675C89.5415 381.636 89.2643 381.636 88.9872 381.636C86.8888 381.518 84.7113 381.557 82.6525 381.991C81.8607 380.886 80.673 380.057 79.3268 379.741C78.6934 379.583 78.0203 379.504 77.3472 379.425C75.0509 379.148 72.7942 378.556 70.6562 377.648Z" fill="#F8EED1"/>
<path d="M75.0469 423.962C76.6701 420.961 78.0954 417.881 79.402 414.723C80.3126 415.039 81.2628 415.157 82.2526 415.078C82.8464 415.354 83.4799 415.512 84.1134 415.631C86.7264 416.144 89.4187 416.144 92.0317 415.71C92.1109 415.828 92.1901 415.907 92.2693 415.986C93.7342 417.526 95.2386 419.026 96.7035 420.566C95.4366 422.54 94.2884 424.594 93.2591 426.726C90.2897 427.2 87.2411 427.16 84.3113 426.489V426.528C81.1836 425.857 78.0558 425.028 75.0469 423.962Z" fill="#F8EED1"/>
<path d="M78.4453 396.759C78.4453 396.324 78.4453 395.85 78.4453 395.416C78.5245 395.219 78.5641 395.061 78.6037 394.863C81.2167 394.587 83.8694 394.468 86.522 394.547C86.9179 394.824 87.3138 395.179 87.6702 395.535C84.3445 395.179 81.7314 398.298 78.5245 399.285C78.4849 398.417 78.4453 397.588 78.4453 396.759Z" fill="#0D0E0F"/>
<path d="M86.522 394.51C83.8694 394.471 81.2167 394.55 78.6037 394.826C78.5641 395.024 78.4849 395.181 78.4453 395.379C78.4849 392.931 78.8016 390.443 80.3853 388.667C82.3253 386.495 85.5718 386.1 88.462 386.416C88.8183 386.456 89.1351 386.495 89.4914 386.574C89.4914 386.693 89.4914 386.811 89.531 386.929C89.531 386.811 89.5706 386.693 89.5706 386.574C92.6983 387.127 95.7073 388.351 98.3203 390.246C99.033 390.759 99.7456 391.352 100.26 392.062C100.854 392.891 101.171 393.918 101.369 394.945C99.6269 394.036 97.7661 393.286 95.8657 392.812C94.7175 394.471 93.6089 396.09 92.4608 397.748C93.4902 396.919 94.5987 396.05 95.8657 395.655C97.1722 395.3 98.7163 395.537 99.5477 396.603C100.142 397.393 100.34 398.577 101.25 398.893C101.29 398.932 101.369 398.932 101.408 398.932C100.973 402.289 99.3893 405.487 96.9346 407.816C96.1824 408.527 95.351 409.159 94.4404 409.633C94.2028 408.409 93.8069 407.264 92.9755 406.355C93.2526 407.579 93.3318 408.882 93.213 410.146C92.1836 410.264 90.9959 410.383 89.7685 410.343C86.4428 410.304 82.8004 409.554 80.9792 407.303C79.158 405.092 78.6829 402.21 78.5245 399.288C81.7314 398.301 84.3445 395.142 87.6702 395.537C87.3138 395.142 86.9575 394.787 86.522 394.51Z" fill="#797873"/>
<path d="M87.5573 377.096C87.4782 376.781 87.3594 376.504 87.3594 376.188C87.3594 375.754 87.5177 375.32 87.7157 374.925C88.4283 373.069 88.943 371.134 89.1806 369.16C89.4181 369.16 89.6953 369.16 89.9328 369.2C90.5663 369.239 91.1998 369.279 91.8332 369.318C91.8332 373.424 92.0312 377.57 92.4271 381.676C92.4271 381.795 92.4667 381.953 92.4667 382.071C91.5561 381.953 90.6851 381.874 89.7745 381.795C89.8141 381.716 89.8141 381.598 89.7745 381.519C89.7349 381.321 89.6161 381.163 89.4973 381.045C88.6659 379.781 87.9928 378.478 87.5573 377.096Z" fill="#0D0E0F"/>
<path d="M88.3056 383.491C88.266 382.702 89.5329 382.386 89.7705 381.754C90.6811 381.833 91.5521 381.912 92.4627 382.03C92.4627 382.386 92.4231 382.702 92.2252 382.978C92.0272 383.254 91.6709 383.373 91.3542 383.531C90.404 384.004 89.7309 384.992 89.5329 386.058C89.4538 385.071 89.0182 384.123 88.3056 383.491Z" fill="#0D0E0F"/>
<path d="M89.5 386.572C89.5 386.375 89.5 386.217 89.539 386.02C89.539 386.217 89.578 386.375 89.539 386.572H89.5Z" fill="#0D0E0F"/>
<path d="M89.5 386.57H89.539C89.539 386.689 89.539 386.807 89.5 386.926C89.5 386.807 89.5 386.689 89.5 386.57Z" fill="#0D0E0F"/>
<path d="M89.5391 386.572C89.5391 386.375 89.5391 386.177 89.5391 386.02C89.6974 384.953 90.3705 383.966 91.3603 383.493C91.677 383.335 91.9937 383.216 92.2313 382.94C92.4293 382.663 92.4688 382.348 92.4688 381.992C96.0717 382.505 99.5954 383.532 102.644 385.506C105.138 387.125 107.276 389.494 108.503 392.179C107.672 391.784 106.88 391.271 106.207 390.6C106.009 390.402 105.811 390.205 105.574 390.205C105.217 390.205 104.94 390.56 104.782 390.876C103.95 392.376 103.079 393.916 102.248 395.417C101.971 395.259 101.694 395.101 101.417 394.943C101.258 393.916 100.902 392.929 100.308 392.061C99.7933 391.35 99.0807 390.758 98.368 390.244C95.7154 388.389 92.7064 387.125 89.5391 386.572Z" fill="#B2AC9D"/>
<path d="M89.7344 410.342C90.9617 410.342 92.1495 410.263 93.1789 410.145C92.9017 410.223 92.6246 410.302 92.3078 410.342C91.4764 410.5 90.6054 410.46 89.7344 410.342Z" fill="#797873"/>
<path d="M91.832 415.315C91.7924 415.038 91.9112 414.801 92.0299 414.564C92.6634 413.182 93.0593 411.682 93.1781 410.142C93.6136 410.024 94.0095 409.826 94.4054 409.629C94.6826 410.971 94.8014 412.393 95.2369 413.696C95.3556 414.012 95.4744 414.327 95.7516 414.485C95.8703 414.564 95.9891 414.604 96.1079 414.604C94.8014 415.117 93.4157 415.472 92.0299 415.709C91.9112 415.591 91.832 415.433 91.832 415.315Z" fill="#0D0E0F"/>
<path d="M92.2727 415.987C92.1935 415.908 92.0747 415.79 92.0352 415.711C93.4209 415.474 94.8066 415.079 96.1131 414.605C96.2715 414.645 96.4298 414.645 96.5882 414.645C99.1221 414.645 101.696 414.645 104.229 414.684C105.021 416.975 104.15 419.423 103.596 421.792C103.517 422.186 103.438 422.621 103.358 423.055C100.31 424.911 96.8653 426.214 93.3813 426.766C93.3417 426.766 93.3021 426.766 93.2625 426.806C94.2919 424.674 95.44 422.621 96.707 420.646C95.2025 419.028 93.7376 417.527 92.2727 415.987Z" fill="#0D0E0F"/>
<path d="M92.422 381.597C92.0261 377.49 91.8281 373.384 91.8281 369.238C98.2816 369.791 104.735 371.884 109.248 376.424C112.02 379.188 113.92 382.702 115.187 386.374C115.821 388.19 116.296 390.046 116.573 391.981C114.118 393.284 110.951 393.323 108.417 392.139C107.19 389.454 105.091 387.085 102.557 385.466C99.5089 383.492 95.9853 382.465 92.3824 381.952C92.4616 381.873 92.422 381.755 92.422 381.597Z" fill="#F8EED1"/>
<path d="M92.4258 397.705C93.5739 396.047 94.6825 394.428 95.8307 392.77C97.7311 393.283 99.5919 393.994 101.334 394.902C101.374 395.178 101.413 395.494 101.453 395.77C101.532 396.797 101.532 397.863 101.413 398.89C101.374 398.89 101.294 398.85 101.255 398.85C100.344 398.534 100.146 397.35 99.5523 396.56C98.7605 395.494 97.1768 395.217 95.8703 395.612C94.5637 396.007 93.4552 396.876 92.4258 397.705Z" fill="#0D0E0F"/>
<path d="M93.179 410.146C93.2977 408.882 93.2185 407.619 92.9414 406.355C93.7728 407.264 94.1292 408.409 94.4063 409.633C94.0104 409.83 93.6145 409.988 93.179 410.146Z" fill="#0D0E0F"/>
<path d="M95.2416 413.695C94.8061 412.392 94.6873 410.97 94.4102 409.628C95.3208 409.154 96.1522 408.522 96.9044 407.812C99.3591 405.482 100.982 402.284 101.378 398.928C101.655 399.007 101.972 398.967 102.249 398.967C104.664 398.809 107.079 398.612 109.495 398.375C109.336 400.073 108.782 401.731 108.069 403.31C107.673 404.219 107.198 405.087 106.644 405.916C106.446 405.995 106.208 406.074 105.971 406.153C106.05 406.311 106.129 406.43 106.208 406.588C104.189 409.549 101.418 411.997 98.211 413.655C97.4983 414.011 96.7857 414.326 96.0334 414.603C95.9146 414.563 95.7959 414.563 95.6771 414.484C95.4791 414.287 95.3604 413.971 95.2416 413.695Z" fill="#B2AC9D"/>
<path d="M96.5454 414.605C96.387 414.605 96.2287 414.605 96.0703 414.566C96.8226 414.29 97.5352 413.974 98.2479 413.618C101.455 411.96 104.226 409.512 106.245 406.551C107.908 409.907 109.294 413.381 110.363 416.935C108.383 419.343 106.008 421.397 103.355 422.976C103.395 422.542 103.474 422.147 103.593 421.712C104.147 419.343 104.978 416.895 104.226 414.605C101.653 414.645 99.1189 414.605 96.5454 414.605Z" fill="#F8EED1"/>
<path d="M101.455 395.81C101.415 395.533 101.376 395.218 101.336 394.941C101.613 395.099 101.89 395.257 102.167 395.415C102.999 393.915 103.87 392.375 104.701 390.874C104.899 390.558 105.137 390.203 105.493 390.203C105.77 390.203 105.968 390.44 106.127 390.598C106.8 391.269 107.552 391.782 108.423 392.177C109.175 393.796 109.571 395.573 109.531 397.35C109.531 397.666 109.492 397.981 109.492 398.337C107.077 398.574 104.662 398.771 102.247 398.929C101.969 398.968 101.653 398.968 101.376 398.89C101.534 397.902 101.534 396.876 101.455 395.81Z" fill="#0D0E0F"/>
<path d="M106.249 406.55C106.17 406.392 106.091 406.274 106.012 406.116C106.249 406.076 106.447 405.997 106.685 405.879C106.566 406.116 106.408 406.313 106.249 406.55Z" fill="#B2AC9D"/>
<path d="M106.246 406.549C106.404 406.312 106.523 406.115 106.682 405.878C107.196 405.641 107.671 405.286 108.067 404.852C109.77 407.694 111.274 410.616 112.66 413.656C112.224 414.367 111.789 415.038 111.274 415.71C110.958 416.104 110.641 416.539 110.324 416.934C109.295 413.38 107.909 409.905 106.246 406.549Z" fill="#0D0E0F"/>
<path d="M108.065 404.851C107.669 405.286 107.194 405.641 106.68 405.878C107.194 405.049 107.669 404.18 108.105 403.272C108.818 401.693 109.332 400.034 109.53 398.336C112.064 398.06 114.558 397.705 117.053 397.191C117.092 402.956 115.667 408.721 112.698 413.656C111.312 410.655 109.768 407.734 108.065 404.851Z" fill="#F8EED1"/>
<path d="M109.534 398.337C109.573 398.021 109.573 397.705 109.573 397.35C109.613 395.534 109.177 393.796 108.465 392.177C110.999 393.362 114.126 393.283 116.621 392.02C116.898 393.717 117.056 395.455 117.056 397.192C114.562 397.745 112.028 398.1 109.534 398.337Z" fill="#0D0E0F"/>
</svg>
