<svg width="340" height="505" viewBox="0 0 340 505" fill="none" xmlns="http://www.w3.org/2000/svg">
<g filter="url(#filter0_d)">
<path d="M335.735 60.0742C335.735 26.9371 308.872 0.0742187 275.735 0.0742187L64.2734 0.0742187C31.1364 0.0742187 4.27344 26.9371 4.27344 60.0742L4.27344 436.663C4.27344 469.8 31.1363 496.663 64.2734 496.663H275.735C308.872 496.663 335.735 469.8 335.735 436.663V60.0742Z" fill="white"/>
<path d="M249.624 451.741H90.3866C59.3863 451.741 34.2852 426.63 34.2852 395.707L34.2852 101.108C34.2852 70.1449 59.4259 45.0742 90.3866 45.0742L249.624 45.0742C280.625 45.0742 305.726 70.1844 305.726 101.108V395.707C305.726 426.63 280.625 451.741 249.624 451.741Z" fill="#0D0E0F"/>
<path d="M77.9062 77.0245V72.1211H78.7773L79.8858 74.6519L80.9944 72.1211H81.8654V77.0245H81.034V73.5447L80.1234 75.68H79.6483L78.7377 73.5447V77.0245H77.9062Z" fill="white"/>
<path d="M83.6094 72.1211H84.52L86.1828 75.7196L87.6477 72.1211H88.5187L85.589 79.0017H84.7575L85.7077 76.6686L83.6094 72.1211Z" fill="white"/>
<path d="M91.0145 75.6009C91.1333 76.0755 91.45 76.3918 91.8855 76.3918C92.4002 76.3918 92.7565 76.0755 92.7565 75.5218C92.7565 74.9287 92.4398 74.6123 91.9251 74.6123C91.8063 74.6123 91.648 74.6519 91.5292 74.6914L91.1333 74.1774L92.0439 72.8724H90.4602V72.1211H93.2712V72.3979L92.0439 74.0192C92.1231 74.0192 92.1626 74.0192 92.2418 74.0192C93.0733 74.0192 93.5484 74.5728 93.5484 75.5218C93.5484 76.4709 92.8357 77.1431 91.8855 77.1431C90.9749 77.1431 90.3414 76.6291 90.2227 75.7196L91.0145 75.6009Z" fill="white"/>
<path d="M98.0586 72.043C99.563 72.043 100.394 73.1106 100.394 74.4156V74.7715H96.5541C96.5937 75.7601 97.1875 76.3928 98.0586 76.3928C98.8108 76.3928 99.2859 76.0369 99.6422 75.4042L100.276 75.7601C99.7214 76.7882 98.9692 77.1441 98.0586 77.1441C96.6333 77.1441 95.7227 76.0369 95.7227 74.6133C95.7227 73.1897 96.5937 72.043 98.0586 72.043ZM99.5235 74.0201C99.3651 73.2293 98.89 72.7943 98.0586 72.7943C97.2667 72.7943 96.7916 73.2688 96.5937 74.0201H99.5235Z" fill="white"/>
<path d="M101.945 77.0242V72.1208H102.777V75.7983L105.311 72.1208H106.182V77.0242H105.35V73.3466L102.816 77.0242H101.945ZM103.648 70.2227C103.648 70.4995 103.806 70.6576 104.083 70.6576C104.36 70.6576 104.519 70.4995 104.519 70.2227H105.152C105.152 70.8158 104.717 71.2903 104.083 71.2903C103.45 71.2903 103.014 70.8158 103.014 70.2227H103.648Z" fill="white"/>
<path d="M59.1445 84.0659V83.4728L61.9951 81.5352V82.4051L59.976 83.7496L61.9951 85.0941V85.964L59.1445 84.0659ZM61.52 84.0659V83.4728L64.3706 81.5352V82.4051L62.3515 83.7496L64.3706 85.0941V85.964L61.52 84.0659Z" fill="white"/>
<path d="M65.9141 86.7512V85.9999H67.6561V81.136L65.9537 82.1641V81.2546L68.1708 79.9102H68.4875V85.9999H70.2296V86.7512H65.9141V86.7512Z" fill="white"/>
<path d="M72.4096 84.817C72.5283 85.6474 72.9638 86.0824 73.7557 86.0824C74.5475 86.0824 75.1018 85.5683 75.1018 84.6588C75.1018 83.7493 74.5475 83.2352 73.7557 83.2352C73.5577 83.2352 73.3598 83.2352 73.1618 83.3539L72.8055 82.8793L74.3495 80.744H71.8949V79.9531H75.6165V80.2299L73.8744 82.563C73.9536 82.5235 74.0724 82.5235 74.1516 82.5235C75.181 82.5235 75.9728 83.3539 75.9728 84.6193C75.9728 85.9242 75.0622 86.8337 73.7557 86.8337C72.6075 86.8337 71.6969 86.0824 71.5781 84.8961L72.4096 84.817Z" fill="white"/>
<path d="M83.9258 86.755V81.8516H87.8849V86.755H87.0535V82.6029H84.7176V86.755H83.9258Z" fill="white"/>
<path d="M89.9453 88.7683V81.8877H90.7767V82.5204C91.0539 82.1249 91.6082 81.8086 92.2812 81.8086C93.7065 81.8086 94.538 82.8367 94.538 84.3394C94.538 85.842 93.7461 86.8702 92.2812 86.8702C91.6082 86.8702 91.0539 86.5538 90.7767 86.1584V88.7683H89.9453V88.7683ZM92.202 86.1189C93.1522 86.1189 93.7065 85.3675 93.7065 84.3394C93.7065 83.2717 93.1522 82.5599 92.202 82.5599C91.2518 82.5599 90.6976 83.3113 90.6976 84.3394C90.6976 85.3675 91.2518 86.1189 92.202 86.1189Z" fill="white"/>
<path d="M95.8828 86.755V81.8516H96.7142V85.5291L99.2481 81.8516H100.119V86.755H99.2877V83.0774L96.7538 86.755H95.8828Z" fill="white"/>
<path d="M102.059 86.755V81.8516H102.93L104.038 84.3824L105.147 81.8516H106.018V86.755H105.186V83.2751L104.276 85.4105H103.801L102.89 83.2751V86.755H102.059Z" fill="white"/>
<path d="M110.181 81.7734C111.685 81.7734 112.517 82.8411 112.517 84.1461V84.5019H108.676C108.716 85.4905 109.31 86.1232 110.181 86.1232C110.933 86.1232 111.408 85.7673 111.765 85.1346L112.398 85.4905C111.844 86.5187 111.092 86.8746 110.181 86.8746C108.756 86.8746 107.845 85.7673 107.845 84.3438C107.805 82.9597 108.716 81.7734 110.181 81.7734ZM111.646 83.7506C111.487 82.9597 111.012 82.5248 110.181 82.5248C109.389 82.5248 108.914 82.9993 108.716 83.7506H111.646Z" fill="white"/>
<path d="M113.934 82.6029V81.8516H118.368V82.6029H116.547V86.755H115.715V82.6029H113.934Z" fill="white"/>
<path d="M119.562 86.0036V85.1336L121.582 83.7891L119.562 82.4447V81.5352L122.413 83.4728V84.0659L119.562 86.0036ZM121.898 86.0036V85.1336L123.918 83.7891L121.898 82.4447V81.5352L124.749 83.4728V84.0659L121.898 86.0036Z" fill="white"/>
<path d="M252.673 421.805V426.669H251.802L250.733 424.138L249.664 426.669H248.793V421.805H249.585V425.245L250.495 423.149H250.971L251.881 425.245V421.805H252.673Z" fill="white"/>
<path d="M247.045 426.669H246.134L244.511 423.11L243.086 426.669H242.215L245.105 419.867H245.897L244.947 422.161L247.045 426.669Z" fill="white"/>
<path d="M239.714 423.228C239.595 422.754 239.318 422.477 238.843 422.477C238.367 422.477 238.011 422.793 238.011 423.347C238.011 423.94 238.328 424.256 238.843 424.256C238.961 424.256 239.12 424.217 239.199 424.177L239.595 424.691L238.684 425.996H240.228V426.748H237.457V426.471L238.684 424.889C238.605 424.889 238.565 424.889 238.486 424.889C237.655 424.889 237.18 424.335 237.18 423.386C237.18 422.477 237.892 421.805 238.803 421.805C239.674 421.805 240.347 422.319 240.466 423.228H239.714Z" fill="white"/>
<path d="M232.714 426.71C231.21 426.71 230.418 425.642 230.418 424.376V424.021H234.219C234.179 423.072 233.585 422.439 232.714 422.439C231.962 422.439 231.487 422.795 231.17 423.388L230.537 423.032C231.091 422.004 231.843 421.688 232.754 421.688C234.179 421.688 235.09 422.795 235.09 424.179C235.05 425.602 234.179 426.71 232.714 426.71ZM231.289 424.772C231.447 425.523 231.922 425.998 232.754 425.998C233.546 425.998 234.021 425.523 234.179 424.772H231.289Z" fill="white"/>
<path d="M228.912 421.805V426.669H228.12V423.031L225.586 426.669H224.715V421.805H225.507V425.443L228.041 421.805H228.912ZM227.249 428.527C227.249 428.25 227.09 428.092 226.813 428.092C226.536 428.092 226.378 428.25 226.378 428.527H225.744C225.744 427.934 226.18 427.459 226.813 427.459C227.407 427.459 227.882 427.934 227.882 428.527H227.249Z" fill="white"/>
<path d="M271.237 414.844V415.437L268.387 417.335V416.465L270.406 415.121L268.387 413.776V412.906L271.237 414.844ZM268.901 414.844V415.437L266.051 417.335V416.465L268.07 415.121L266.051 413.776V412.906L268.901 414.844Z" fill="white"/>
<path d="M264.542 412.16V412.911H262.8V417.696L264.502 416.708V417.578L262.324 418.922H262.008V412.911H260.266V412.16H264.542Z" fill="white"/>
<path d="M258.095 414.135C257.976 413.344 257.54 412.869 256.748 412.869C255.957 412.869 255.402 413.384 255.402 414.293C255.402 415.203 255.957 415.717 256.748 415.717C256.946 415.717 257.144 415.717 257.342 415.598L257.699 416.033L256.155 418.129H258.57V418.88H254.888V418.603L256.59 416.27C256.511 416.31 256.392 416.31 256.313 416.31C255.283 416.31 254.531 415.479 254.531 414.253C254.531 412.988 255.442 412.039 256.709 412.039C257.817 412.039 258.768 412.79 258.847 413.977L258.095 414.135Z" fill="white"/>
<path d="M246.728 412.16V417.024H242.809V412.16H243.6V416.273H245.897V412.16H246.728Z" fill="white"/>
<path d="M240.751 410.219V417.02H239.959V416.388C239.682 416.743 239.128 417.099 238.494 417.099C237.069 417.099 236.277 416.071 236.277 414.608C236.277 413.145 237.069 412.117 238.494 412.117C239.168 412.117 239.722 412.433 239.959 412.829V410.258H240.751V410.219ZM238.534 412.829C237.623 412.829 237.069 413.54 237.069 414.608C237.069 415.676 237.623 416.388 238.534 416.388C239.445 416.388 239.999 415.636 239.999 414.608C239.999 413.58 239.445 412.829 238.534 412.829Z" fill="white"/>
<path d="M234.892 412.16V417.024H234.1V413.386L231.566 417.024H230.695V412.16H231.487V415.798L234.021 412.16H234.892Z" fill="white"/>
<path d="M228.79 412.16V417.024H227.919L226.85 414.493L225.781 417.024H224.91V412.16H225.702V415.6L226.613 413.505H227.088L227.998 415.6V412.16H228.79Z" fill="white"/>
<path d="M220.753 417.1C219.249 417.1 218.457 416.032 218.457 414.767V414.411H222.258C222.218 413.462 221.624 412.829 220.753 412.829C220.001 412.829 219.526 413.185 219.209 413.778L218.576 413.423C219.13 412.394 219.882 412.078 220.793 412.078C222.218 412.078 223.129 413.185 223.129 414.569C223.089 415.953 222.218 417.1 220.753 417.1ZM219.328 415.162C219.486 415.914 219.962 416.388 220.793 416.388C221.585 416.388 222.06 415.914 222.218 415.162H219.328Z" fill="white"/>
<path d="M217.074 416.312V417.063H212.68V416.312H214.461V412.199H215.253V416.312H217.074Z" fill="white"/>
<path d="M211.452 412.945V413.815L209.432 415.16L211.452 416.504V417.374L208.601 415.476V414.883L211.452 412.945ZM209.155 412.945V413.815L207.136 415.16L209.155 416.504V417.374L206.305 415.476V414.883L209.155 412.945Z" fill="white"/>
<path d="M106.077 182.527V170.836H112.406V182.527C112.406 184.76 112.865 186.455 113.785 187.612C114.721 188.768 115.998 189.346 117.616 189.346C119.265 189.346 120.558 189.117 121.494 188.657C122.445 188.198 123.444 187.437 124.491 186.376V170.836H130.819V204.91H124.491V193.291C122.509 194.685 119.844 195.382 116.498 195.382C113.278 195.382 110.732 194.328 108.861 192.221C107.005 190.099 106.077 186.867 106.077 182.527Z" fill="white"/>
<path d="M135.601 185.544V180.388H154.8V185.544H148.234V204.91H142.191V185.544H135.601Z" fill="white"/>
<path d="M161.009 201.726C158.773 199.334 157.655 196.308 157.655 192.649C157.655 188.974 158.773 185.948 161.009 183.572C163.262 181.18 166.299 179.984 170.121 179.984C173.959 179.984 176.997 181.18 179.233 183.572C181.485 185.948 182.611 188.974 182.611 192.649C182.611 196.308 181.485 199.334 179.233 201.726C176.997 204.102 173.959 205.29 170.121 205.29C166.299 205.29 163.262 204.102 161.009 201.726ZM165.649 187.326C164.538 188.768 163.983 190.542 163.983 192.649C163.983 194.756 164.538 196.53 165.649 197.972C166.759 199.413 168.25 200.134 170.121 200.134C172.009 200.134 173.499 199.413 174.594 197.972C175.704 196.53 176.259 194.756 176.259 192.649C176.259 190.542 175.704 188.768 174.594 187.326C173.499 185.885 172.009 185.164 170.121 185.164C168.25 185.164 166.759 185.885 165.649 187.326Z" fill="white"/>
<path d="M104.555 250.323C104.555 243.511 105.665 238.648 107.885 235.734C110.122 232.803 113.27 231.338 117.33 231.338H119.067C120.891 231.338 122.112 230.577 122.731 229.057H126.489C126.489 234.078 124.134 236.597 119.424 236.613H117.52C113.365 236.613 111.153 238.767 110.883 243.076C112.739 241.349 115.062 240.486 117.854 240.486C121.454 240.486 124.293 241.666 126.371 244.026C128.464 246.371 129.511 249.412 129.511 253.151C129.511 256.842 128.353 259.875 126.037 262.251C123.738 264.612 120.7 265.792 116.926 265.792C113.167 265.792 110.161 264.398 107.909 261.61C105.673 258.822 104.555 255.06 104.555 250.323ZM112.548 247.828C111.438 249.27 110.883 251.044 110.883 253.151C110.883 255.258 111.438 257.032 112.548 258.473C113.659 259.915 115.149 260.636 117.021 260.636C118.908 260.636 120.399 259.915 121.494 258.473C122.604 257.032 123.159 255.258 123.159 253.151C123.159 251.044 122.604 249.27 121.494 247.828C120.399 246.387 118.908 245.666 117.021 245.666C115.149 245.666 113.659 246.387 112.548 247.828Z" fill="white"/>
<path d="M134.721 265.412V240.89H140.764V250.228H145.236C147.837 250.228 149.899 250.917 151.422 252.295C152.96 253.674 153.73 255.519 153.73 257.832C153.73 260.129 152.96 261.966 151.422 263.344C149.899 264.723 147.837 265.412 145.236 265.412H134.721ZM140.764 260.255H144.166C146.434 260.255 147.568 259.448 147.568 257.832C147.584 256.2 146.45 255.384 144.166 255.384H140.764V260.255ZM158.845 265.412V240.89H164.887V265.412H158.845Z" fill="white"/>
<path d="M169.574 265.412V260.255C171.001 260.255 172.056 259.994 172.738 259.471C173.436 258.949 173.848 258.061 173.975 256.81L175.569 240.89H193.46V265.412H187.417V246.046H181.184L179.709 258.996C179.55 260.422 179.201 261.578 178.662 262.465C178.139 263.352 177.377 264.01 176.378 264.438C175.395 264.865 174.411 265.135 173.428 265.245C172.445 265.356 171.16 265.412 169.574 265.412Z" fill="white"/>
<path d="M202.405 262.228C200.169 259.836 199.05 256.81 199.05 253.151C199.05 249.476 200.169 246.45 202.405 244.074C204.657 241.682 207.694 240.486 211.517 240.486C215.355 240.486 218.392 241.682 220.628 244.074C222.881 246.45 224.007 249.476 224.007 253.151C224.007 256.81 222.881 259.836 220.628 262.228C218.392 264.604 215.355 265.792 211.517 265.792C207.694 265.792 204.657 264.604 202.405 262.228ZM207.044 247.828C205.934 249.27 205.379 251.044 205.379 253.151C205.379 255.258 205.934 257.032 207.044 258.473C208.154 259.915 209.645 260.636 211.517 260.636C213.404 260.636 214.895 259.915 215.989 258.473C217.099 257.032 217.655 255.258 217.655 253.151C217.655 251.044 217.099 249.27 215.989 247.828C214.895 246.387 213.404 245.666 211.517 245.666C209.645 245.666 208.154 246.387 207.044 247.828Z" fill="white"/>
<path d="M106.363 325.913V301.392H126.489V325.913H120.447L120.447 306.548H112.406L112.406 325.913H106.363Z" fill="white"/>
<path d="M135.554 322.729C133.317 320.337 132.199 317.312 132.199 313.652C132.199 309.977 133.317 306.952 135.554 304.576C137.806 302.184 140.843 300.988 144.665 300.988C148.504 300.988 151.541 302.184 153.777 304.576C156.029 306.952 157.155 309.977 157.155 313.652C157.155 317.312 156.029 320.337 153.777 322.729C151.541 325.106 148.504 326.294 144.665 326.294C140.843 326.294 137.806 325.106 135.554 322.729ZM140.193 308.33C139.083 309.771 138.527 311.546 138.527 313.652C138.527 315.759 139.083 317.534 140.193 318.975C141.303 320.417 142.794 321.137 144.665 321.137C146.553 321.137 148.044 320.417 149.138 318.975C150.248 317.534 150.803 315.759 150.803 313.652C150.803 311.546 150.248 309.771 149.138 308.33C148.044 306.888 146.553 306.168 144.665 306.168C142.794 306.168 141.303 306.888 140.193 308.33Z" fill="white"/>
<path d="M164.435 322.706C162.358 320.298 161.319 317.28 161.319 313.652C161.319 310.025 162.358 307.007 164.435 304.599C166.513 302.191 169.471 300.988 173.309 300.988C178.86 300.988 182.579 303.324 184.467 307.997L179.066 310.183C177.734 307.49 175.815 306.152 173.309 306.168C171.453 306.168 170.042 306.857 169.074 308.235C168.123 309.613 167.647 311.419 167.647 313.652C167.647 315.886 168.123 317.692 169.074 319.07C170.042 320.448 171.453 321.137 173.309 321.137C175.815 321.137 177.734 319.791 179.066 317.098L184.467 319.284C182.579 323.957 178.86 326.294 173.309 326.294C169.471 326.294 166.513 325.098 164.435 322.706Z" fill="white"/>
<path d="M187.512 325.913V320.757C188.939 320.757 189.994 320.496 190.676 319.973C191.374 319.45 191.786 318.563 191.913 317.312L193.507 301.392H211.398V325.913H205.355V306.548H199.122L197.647 319.498C197.488 320.924 197.139 322.08 196.6 322.967C196.077 323.854 195.315 324.512 194.316 324.939C193.333 325.367 192.349 325.636 191.366 325.747C190.383 325.858 189.098 325.913 187.512 325.913Z" fill="white"/>
<path d="M217.655 318.096C217.21 316.654 216.988 315.173 216.988 313.652C216.988 312.132 217.21 310.651 217.655 309.209C218.115 307.752 218.789 306.405 219.677 305.17C220.581 303.918 221.818 302.912 223.388 302.152C224.974 301.376 226.774 300.988 228.789 300.988C230.739 300.988 232.476 301.368 233.999 302.128C235.521 302.873 236.719 303.855 237.591 305.075C238.479 306.278 239.137 307.57 239.566 308.948C240.01 310.326 240.232 311.712 240.232 313.106V315.601H223.317C223.38 317.09 223.919 318.389 224.934 319.498C225.965 320.591 227.361 321.137 229.122 321.137C231.628 321.137 233.61 319.878 235.069 317.359L239.946 319.141C237.869 323.91 234.149 326.294 228.789 326.294C226.774 326.294 224.974 325.913 223.388 325.153C221.818 324.393 220.581 323.387 219.677 322.135C218.789 320.884 218.115 319.537 217.655 318.096ZM223.459 310.825H234.046C233.364 307.704 231.612 306.152 228.789 306.168C227.361 306.168 226.172 306.619 225.22 307.522C224.268 308.425 223.681 309.526 223.459 310.825Z" fill="white"/>
<path d="M244.014 298.897C244.411 296.758 245.426 294.984 247.06 293.574C248.693 292.164 250.779 291.459 253.316 291.459C256.044 291.459 258.225 292.156 259.859 293.55C261.508 294.944 262.333 296.813 262.333 299.158C262.333 300.98 261.802 302.389 260.739 303.387C259.692 304.385 257.979 305.344 255.6 306.263C253.983 306.912 252.888 307.451 252.317 307.878C251.746 308.29 251.461 308.821 251.461 309.47C251.461 309.993 251.627 310.405 251.96 310.706C252.309 311.007 252.73 311.158 253.221 311.158C254.554 311.158 255.481 310.413 256.005 308.924L260.287 310.54C259.732 312.092 258.844 313.32 257.623 314.223C256.417 315.11 254.95 315.553 253.221 315.553C251.239 315.553 249.621 314.975 248.368 313.819C247.115 312.662 246.489 311.165 246.489 309.328C246.489 306.445 248.249 304.33 251.77 302.984C253.657 302.271 254.934 301.629 255.6 301.059C256.282 300.473 256.623 299.776 256.623 298.968C256.623 298.144 256.33 297.534 255.743 297.138C255.172 296.726 254.411 296.52 253.459 296.52C251.35 296.52 249.97 297.606 249.32 299.776L244.014 298.897ZM249.177 322.207C249.177 321.066 249.573 320.1 250.366 319.308C251.159 318.516 252.111 318.12 253.221 318.12C254.332 318.12 255.283 318.524 256.076 319.332C256.869 320.124 257.266 321.082 257.266 322.207C257.266 323.316 256.877 324.258 256.1 325.034C255.323 325.81 254.363 326.199 253.221 326.199C252.079 326.199 251.12 325.81 250.343 325.034C249.566 324.258 249.177 323.316 249.177 322.207Z" fill="white"/>
<path d="M276.112 81.0631C280.625 87.2319 281.655 95.2593 279.833 102.733C278.844 102.219 277.735 101.824 276.666 101.428C272.786 99.965 269.025 98.0273 265.58 95.6943C264.67 95.0616 263.68 94.3893 262.571 94.3498C262.413 94.3498 262.255 94.3498 262.096 94.3893C262.017 92.6099 261.661 90.8304 261.186 89.0905C260.473 86.4015 259.404 83.7521 257.543 81.6563C257.187 81.2608 256.791 80.8654 256.355 80.5491C258.652 77.4251 260.948 74.2616 263.165 71.0586C268.312 73.3917 272.865 76.5947 276.112 81.0631Z" fill="#F8EED1"/>
<path d="M276.665 101.387C277.734 101.782 278.803 102.178 279.832 102.692C279.04 105.855 277.773 108.94 275.992 111.708C272.033 107.358 267.875 103.206 263.52 99.2515C262.61 100.082 261.739 100.952 260.828 101.782C261.382 100.24 261.818 98.6584 262.016 97.0371C262.135 96.1276 262.135 95.2181 262.095 94.3481C262.253 94.3086 262.412 94.3086 262.57 94.3086C263.679 94.3481 264.669 95.0204 265.579 95.6531C269.063 97.9861 272.785 99.9238 276.665 101.387Z" fill="#0D0E0F"/>
<path d="M275.989 111.705C275.395 112.615 274.761 113.524 274.088 114.355C271.238 117.835 267.714 120.642 263.755 122.738C264.349 120.168 265.061 117.597 265.893 115.106C262.488 115.106 259.123 115.106 255.718 115.106C255.203 115.106 254.688 115.106 254.213 114.908C253.817 114.75 253.501 114.513 253.184 114.236C252.788 113.88 252.352 113.485 251.996 113.089C252.59 112.852 253.184 112.536 253.738 112.219C257.103 110.124 259.083 106.406 260.469 102.729C260.587 102.452 260.706 102.136 260.785 101.859C261.696 101.028 262.567 100.159 263.478 99.3281C267.872 103.243 272.029 107.395 275.989 111.705Z" fill="#F8EED1"/>
<path d="M255.762 115.107C259.167 115.107 262.532 115.107 265.937 115.107C265.066 117.598 264.353 120.168 263.799 122.738C262.453 123.45 261.028 124.123 259.602 124.676C260.394 122.501 261.424 120.405 262.651 118.468C260.355 117.519 257.979 116.886 255.524 116.53C254.812 116.451 254.099 116.372 253.426 116.174C252.001 115.779 250.734 114.909 249.902 113.762C250.655 113.604 251.367 113.367 252.08 113.09C252.476 113.485 252.872 113.881 253.268 114.237C253.584 114.513 253.901 114.751 254.297 114.909C254.693 115.067 255.247 115.107 255.762 115.107Z" fill="#0D0E0F"/>
<path d="M257.902 68.8789C259.723 69.5116 261.505 70.2234 263.247 71.0143C261.029 74.2173 258.733 77.3808 256.437 80.5047C255.487 79.7139 254.418 79.1207 253.27 78.7648C254.655 75.4036 256.199 72.1215 257.902 68.8789Z" fill="#0D0E0F"/>
<path d="M262.134 94.3867C262.173 95.2962 262.173 96.2057 262.055 97.0757C261.857 98.697 261.421 100.279 260.867 101.821C260.827 101.86 260.748 101.9 260.708 101.979C258.729 100.595 256.987 98.8551 255.601 96.8384C255.047 97.6293 254.572 98.5388 254.255 99.4878C254.255 99.0133 254.255 98.5388 254.255 98.0643C254.255 97.1548 254.215 96.2453 254.176 95.3358C254.334 95.2962 254.453 95.2567 254.611 95.2171C256.591 94.7031 258.808 95.138 260.471 96.3244C260.312 95.3753 261.183 94.5449 262.134 94.3867Z" fill="#0D0E0F"/>
<path d="M256.438 80.5482C256.874 80.9041 257.23 81.26 257.626 81.6554C259.487 83.7117 260.556 86.4007 261.269 89.0896C261.744 90.8296 262.1 92.609 262.179 94.3885C261.229 94.5862 260.358 95.3771 260.516 96.3261C258.854 95.1398 256.636 94.7048 254.657 95.2189C254.498 95.2584 254.38 95.298 254.221 95.3375C254.063 92.2136 253.548 89.1292 251.608 86.7566C249.668 84.3444 245.788 83.5535 242.225 83.514C241.314 83.3558 240.404 83.3558 239.454 83.514C239.137 83.5535 238.82 83.6326 238.543 83.7513C238.662 82.13 239.097 80.5087 239.77 79.006C239.889 78.7688 240.008 78.492 239.968 78.2152C239.929 78.057 239.889 77.8988 239.77 77.7802C242.542 77.3056 245.432 77.3056 248.203 77.8593C248.876 77.9779 249.589 78.1756 250.223 78.4524C251.252 78.3733 252.281 78.492 253.271 78.8083C254.419 79.1642 255.488 79.7574 256.438 80.5482Z" fill="#B2AC9D"/>
<path d="M252.034 113.092C251.321 113.369 250.608 113.606 249.856 113.765C247.678 114.239 245.343 114.279 243.086 114.16C242.809 114.16 242.492 114.12 242.215 114.12C242.452 113.409 243.838 113.092 243.759 112.262C243.007 111.55 242.571 110.561 242.452 109.533C242.492 109.336 242.492 109.138 242.492 108.94C242.848 109.019 243.244 109.059 243.601 109.098C246.689 109.454 250.133 109.019 252.192 106.686C253.894 104.788 254.211 102.099 254.251 99.4893C254.567 98.5402 255.003 97.6703 255.597 96.8398C256.983 98.817 258.725 100.557 260.704 101.981C260.744 101.941 260.823 101.901 260.863 101.822C260.744 102.139 260.665 102.415 260.546 102.692C259.12 106.37 257.18 110.087 253.815 112.183C253.221 112.539 252.627 112.815 252.034 113.092Z" fill="#B2AC9D"/>
<path d="M262.613 118.432C261.386 120.37 260.357 122.466 259.565 124.641C254.299 126.697 248.519 127.685 242.818 127.567C243.095 125.471 243.609 123.375 244.362 121.398C244.52 120.963 244.718 120.528 244.718 120.054C244.718 119.698 244.639 119.381 244.52 119.065C244.045 117.602 243.332 116.178 242.422 114.913C242.303 114.755 242.184 114.597 242.145 114.399C242.145 114.28 242.145 114.201 242.184 114.082C242.461 114.122 242.778 114.122 243.055 114.122C245.312 114.241 247.648 114.201 249.825 113.727C250.696 114.913 251.963 115.783 253.349 116.139C254.022 116.336 254.735 116.376 255.447 116.495C257.942 116.851 260.317 117.523 262.613 118.432Z" fill="#F8EED1"/>
<path d="M257.899 68.8819C256.197 72.085 254.653 75.4066 253.267 78.7678C252.277 78.4515 251.248 78.2933 250.219 78.412C249.585 78.1351 248.873 77.9374 248.199 77.8188C245.428 77.2652 242.538 77.2652 239.766 77.7397C239.687 77.6211 239.608 77.542 239.489 77.4234C237.906 75.8021 236.322 74.1808 234.738 72.52C236.124 70.3846 237.351 68.2097 238.42 65.9162C241.588 65.4021 244.834 65.4812 248.001 66.1534V66.1139C251.327 66.9048 254.653 67.7747 257.899 68.8819Z" fill="#F8EED1"/>
<path d="M254.252 98.0254C254.252 98.4999 254.252 98.9744 254.252 99.449C254.173 99.6467 254.134 99.8444 254.094 100.042C251.283 100.319 248.472 100.477 245.621 100.398C245.186 100.082 244.79 99.7258 244.434 99.3303C247.997 99.7258 250.768 96.3646 254.213 95.2969C254.213 96.2064 254.252 97.1554 254.252 98.0254Z" fill="#0D0E0F"/>
<path d="M242.221 83.4727C245.784 83.5122 249.664 84.3426 251.604 86.7152C253.544 89.0879 254.059 92.1723 254.217 95.2962C250.812 96.3639 248.001 99.7251 244.438 99.3296C244.794 99.7251 245.19 100.081 245.626 100.397C248.437 100.437 251.287 100.318 254.098 100.041C254.138 99.8437 254.217 99.646 254.257 99.4483C254.217 102.058 253.9 104.708 252.198 106.645C250.139 108.978 246.655 109.413 243.607 109.057C243.25 109.018 242.854 108.978 242.498 108.899C242.498 108.781 242.498 108.622 242.458 108.504C242.458 108.622 242.419 108.741 242.419 108.899C239.054 108.346 235.847 107.001 233.075 104.984C232.283 104.431 231.571 103.798 231.016 103.007C230.383 102.098 230.027 101.03 229.829 99.9228C231.689 100.911 233.669 101.663 235.728 102.216C236.916 100.476 238.143 98.6969 239.331 96.957C238.222 97.8665 237.074 98.776 235.688 99.1715C234.303 99.5669 232.64 99.2901 231.769 98.1433C231.135 97.3129 230.937 96.0475 229.947 95.6916C229.908 95.6521 229.829 95.6521 229.789 95.6521C230.264 92.0536 231.927 88.6133 234.58 86.1221C235.372 85.3708 236.282 84.6985 237.272 84.1844C237.549 85.4894 237.945 86.7152 238.816 87.7038C238.539 86.3593 238.46 85.0149 238.578 83.6704C239.647 83.5517 240.914 83.4727 242.221 83.4727Z" fill="#797873"/>
<path d="M244.519 119.064C244.637 119.381 244.716 119.697 244.716 120.053C244.716 120.528 244.519 120.963 244.36 121.398C243.568 123.375 243.054 125.431 242.816 127.566C242.539 127.566 242.301 127.566 242.024 127.527C241.351 127.487 240.678 127.448 240.005 127.408C240.005 123.019 239.807 118.59 239.372 114.201C239.372 114.042 239.332 113.924 239.332 113.766C240.282 113.884 241.232 114.003 242.183 114.082C242.143 114.161 242.143 114.28 242.143 114.398C242.183 114.596 242.301 114.754 242.42 114.912C243.331 116.178 244.043 117.601 244.519 119.064Z" fill="#0D0E0F"/>
<path d="M243.727 112.22C243.766 113.051 242.381 113.407 242.183 114.079C241.232 114 240.282 113.921 239.332 113.762C239.332 113.407 239.372 113.051 239.609 112.774C239.847 112.497 240.203 112.378 240.52 112.22C241.549 111.706 242.262 110.638 242.46 109.531C242.539 110.52 242.974 111.508 243.727 112.22Z" fill="#0D0E0F"/>
<path d="M242.456 108.898C242.456 109.096 242.456 109.294 242.416 109.492C242.377 109.294 242.377 109.096 242.416 108.898H242.456Z" fill="#0D0E0F"/>
<path d="M242.454 108.899C242.415 108.899 242.415 108.899 242.375 108.899C242.375 108.781 242.375 108.662 242.415 108.504C242.454 108.662 242.454 108.781 242.454 108.899Z" fill="#0D0E0F"/>
<path d="M242.419 108.901C242.419 109.098 242.419 109.296 242.419 109.494C242.221 110.641 241.508 111.669 240.479 112.183C240.162 112.341 239.806 112.46 239.568 112.736C239.331 113.013 239.291 113.369 239.291 113.725C235.451 113.171 231.689 112.064 228.443 109.968C225.751 108.228 223.494 105.737 222.188 102.85C223.098 103.285 223.93 103.839 224.642 104.551C224.84 104.749 225.038 104.986 225.315 104.986C225.711 105.025 225.988 104.63 226.186 104.274C227.097 102.653 228.007 101.031 228.878 99.4102C229.195 99.5683 229.472 99.766 229.789 99.9242C229.987 101.031 230.343 102.099 230.977 103.009C231.531 103.799 232.283 104.393 233.036 104.986C235.847 107.003 239.054 108.347 242.419 108.901Z" fill="#B2AC9D"/>
<path d="M242.225 83.4745C240.918 83.4745 239.652 83.5535 238.543 83.6722C238.86 83.5931 239.137 83.514 239.454 83.4349C240.364 83.3163 241.314 83.3558 242.225 83.4745Z" fill="#797873"/>
<path d="M239.963 78.1733C240.003 78.4501 239.884 78.7269 239.765 78.9641C239.092 80.4668 238.657 82.0485 238.538 83.7094C238.102 83.828 237.667 84.0257 237.231 84.2234C236.954 82.7999 236.796 81.2577 236.321 79.8736C236.202 79.5573 236.083 79.2014 235.766 79.0432C235.648 78.9641 235.529 78.9246 235.41 78.9246C236.835 78.371 238.3 77.9755 239.765 77.7383C239.884 77.8569 239.963 78.0151 239.963 78.1733Z" fill="#0D0E0F"/>
<path d="M239.532 77.4217C239.611 77.5008 239.73 77.6194 239.809 77.7381C238.304 78.0149 236.84 78.4103 235.454 78.9244C235.295 78.8848 235.137 78.8848 234.979 78.8848C232.247 78.8848 229.515 78.8453 226.783 78.8453C225.952 76.3936 226.862 73.7442 227.456 71.2529C227.575 70.818 227.654 70.383 227.694 69.9085C230.98 67.9313 234.622 66.5472 238.384 65.9145C238.423 65.9145 238.463 65.9145 238.502 65.875C237.433 68.1685 236.206 70.3434 234.82 72.4788C236.364 74.1792 237.948 75.8004 239.532 77.4217Z" fill="#0D0E0F"/>
<path d="M239.326 114.238C239.761 118.627 239.959 123.017 239.959 127.446C233.07 126.853 226.181 124.599 221.351 119.735C218.421 116.769 216.362 113.012 215.016 109.097C214.343 107.16 213.828 105.143 213.512 103.126C216.164 101.742 219.49 101.663 222.222 102.929C223.528 105.815 225.785 108.307 228.477 110.046C231.724 112.142 235.485 113.25 239.326 113.803C239.326 113.922 239.326 114.08 239.326 114.238Z" fill="#F8EED1"/>
<path d="M239.33 97.0003C238.143 98.7402 236.915 100.52 235.728 102.26C233.669 101.706 231.689 100.955 229.828 99.966C229.789 99.6497 229.749 99.3333 229.71 99.017C229.591 97.9098 229.63 96.8025 229.789 95.6953C229.828 95.6953 229.908 95.7349 229.947 95.7349C230.937 96.0907 231.135 97.3561 231.768 98.1866C232.639 99.3333 234.302 99.6101 235.688 99.2147C237.074 98.8193 238.222 97.9098 239.33 97.0003Z" fill="#0D0E0F"/>
<path d="M238.537 83.7109C238.418 85.0554 238.497 86.4394 238.775 87.7444C237.864 86.7558 237.468 85.5299 237.23 84.225C237.626 84.0273 238.062 83.8296 238.537 83.7109Z" fill="#0D0E0F"/>
<path d="M236.321 79.9134C236.796 81.2974 236.915 82.8001 237.232 84.2632C236.242 84.7773 235.371 85.4495 234.539 86.2008C231.887 88.6921 230.184 92.1324 229.749 95.7308C229.432 95.6518 229.115 95.6913 228.799 95.6913C226.225 95.889 223.652 96.0472 221.078 96.324C221.276 94.505 221.83 92.7255 222.583 91.0647C223.018 90.1157 223.533 89.1666 224.087 88.2967C224.325 88.178 224.562 88.0989 224.8 88.0594C224.721 87.9012 224.641 87.743 224.562 87.5849C226.74 84.4214 229.709 81.772 233.114 80.032C233.866 79.6366 234.618 79.3203 235.41 79.0039C235.529 79.0434 235.648 79.083 235.767 79.1225C236.083 79.2412 236.202 79.5971 236.321 79.9134Z" fill="#B2AC9D"/>
<path d="M234.936 78.9295C235.094 78.9295 235.252 78.9295 235.411 78.9691C234.619 79.2854 233.867 79.6018 233.114 79.9972C229.71 81.7767 226.74 84.3865 224.563 87.55C222.781 83.9911 221.316 80.2345 220.168 76.4383C222.266 73.8679 224.84 71.693 227.651 69.9531C227.572 70.4276 227.492 70.8626 227.413 71.2976C226.819 73.8284 225.909 76.4383 226.74 78.89C229.472 78.89 232.204 78.89 234.936 78.9295Z" fill="#F8EED1"/>
<path d="M229.704 99.0156C229.744 99.332 229.784 99.6483 229.823 99.9647C229.506 99.8065 229.229 99.6483 228.912 99.4506C228.002 101.072 227.091 102.693 226.22 104.314C226.022 104.67 225.745 105.066 225.349 105.026C225.072 105.026 224.835 104.789 224.676 104.591C223.964 103.879 223.132 103.326 222.221 102.891C221.43 101.151 220.994 99.2924 221.034 97.3548C221.034 96.9989 221.073 96.643 221.113 96.3266C223.686 96.0498 226.26 95.8521 228.833 95.6939C229.15 95.6544 229.467 95.6544 229.783 95.7335C229.625 96.8012 229.586 97.9084 229.704 99.0156Z" fill="#0D0E0F"/>
<path d="M224.569 87.5469C224.648 87.705 224.727 87.8632 224.806 88.0214C224.569 88.0609 224.331 88.14 224.094 88.2587C224.252 88.0214 224.41 87.7841 224.569 87.5469Z" fill="#B2AC9D"/>
<path d="M224.56 87.5458C224.402 87.7831 224.244 88.0204 224.085 88.2576C223.531 88.4949 223.016 88.8903 222.62 89.3253C220.839 86.2804 219.176 83.1565 217.711 79.9139C218.146 79.1626 218.661 78.4113 219.176 77.6995C219.493 77.2645 219.849 76.8295 220.166 76.3945C221.314 80.2303 222.779 83.9474 224.56 87.5458Z" fill="#0D0E0F"/>
<path d="M222.621 89.3254C223.017 88.8509 223.532 88.495 224.086 88.2578C223.532 89.1673 223.017 90.0768 222.581 91.0258C221.829 92.6866 221.275 94.4661 221.077 96.2851C218.385 96.5619 215.692 96.9574 213.04 97.511C213 91.3422 214.544 85.1734 217.672 79.9141C219.177 83.1566 220.8 86.2806 222.621 89.3254Z" fill="#F8EED1"/>
<path d="M221.077 96.3242C221.037 96.6801 221.037 97.036 220.998 97.3524C220.958 99.29 221.393 101.149 222.185 102.888C219.493 101.623 216.128 101.702 213.475 103.086C213.198 101.267 213.04 99.4086 213 97.5501C215.692 96.9569 218.384 96.601 221.077 96.3242Z" fill="#0D0E0F"/>
<path d="M61.8384 412.954C57.6021 407.18 56.6519 399.628 58.3543 392.668C59.3045 393.142 60.2943 393.498 61.3237 393.894C64.9661 395.278 68.4502 397.097 71.6967 399.272C72.5677 399.865 73.4784 400.498 74.5077 400.537C74.6661 400.537 74.7849 400.537 74.9432 400.498C75.0224 402.158 75.3392 403.819 75.7747 405.441C76.4477 407.971 77.4771 410.423 79.1796 412.4C79.4963 412.796 79.8922 413.112 80.2881 413.468C78.1106 416.394 75.9726 419.36 73.9139 422.365C69.1629 420.151 64.9265 417.145 61.8384 412.954Z" fill="#F8EED1"/>
<path d="M61.3248 393.934C60.3351 393.538 59.3057 393.182 58.3555 392.708C59.0681 389.742 60.2955 386.855 61.9583 384.285C65.6799 388.358 69.5599 392.233 73.6379 395.951C74.4693 395.16 75.3007 394.369 76.1321 393.578C75.6174 395.001 75.1819 396.504 75.0236 398.007C74.9048 398.837 74.9048 399.707 74.9444 400.538C74.786 400.577 74.6672 400.577 74.5089 400.577C73.4795 400.538 72.5689 399.905 71.6979 399.312C68.4513 397.097 64.9673 395.318 61.3248 393.934Z" fill="#0D0E0F"/>
<path d="M61.957 384.286C62.5113 383.416 63.1052 382.585 63.7387 381.794C66.3913 378.552 69.717 375.942 73.399 373.965C72.8447 376.377 72.1717 378.789 71.3799 381.122C74.5472 381.122 77.7145 381.122 80.8819 381.122C81.357 381.122 81.8717 381.122 82.3072 381.32C82.6635 381.478 82.9802 381.715 83.2574 381.953C83.6533 382.309 84.0096 382.664 84.3659 383.02C83.8116 383.258 83.2574 383.534 82.7427 383.851C79.5753 385.788 77.7541 389.268 76.408 392.748C76.2892 393.025 76.21 393.302 76.0913 393.578C75.2598 394.369 74.4284 395.16 73.597 395.951C69.5586 392.234 65.6786 388.319 61.957 384.286Z" fill="#F8EED1"/>
<path d="M80.9239 381.121C77.7565 381.121 74.5892 381.121 71.4219 381.121C72.2137 378.788 72.8868 376.376 73.441 373.964C74.708 373.291 76.0145 372.698 77.3606 372.145C76.6084 374.161 75.6582 376.138 74.51 377.957C76.648 378.827 78.9047 379.46 81.1614 379.737C81.8345 379.816 82.468 379.895 83.141 380.053C84.4475 380.409 85.6353 381.24 86.4667 382.307C85.7541 382.465 85.081 382.663 84.4079 382.94C84.0516 382.584 83.6953 382.228 83.2994 381.872C83.0222 381.635 82.7055 381.358 82.3492 381.24C81.9137 381.121 81.399 381.121 80.9239 381.121Z" fill="#0D0E0F"/>
<path d="M78.9065 424.34C77.2041 423.747 75.5412 423.074 73.918 422.323C76.0163 419.318 78.1147 416.392 80.2922 413.426C81.1632 414.138 82.1926 414.731 83.222 415.087C81.9551 418.25 80.5298 421.334 78.9065 424.34Z" fill="#0D0E0F"/>
<path d="M74.9416 400.496C74.9021 399.666 74.9021 398.796 75.0208 397.965C75.1792 396.463 75.6147 394.96 76.1294 393.537C76.169 393.497 76.2086 393.458 76.2878 393.418C78.1486 394.723 79.7718 396.344 81.0784 398.203C81.6326 397.451 82.0286 396.621 82.3453 395.711C82.3453 396.146 82.3453 396.621 82.3453 397.056C82.3453 397.886 82.3453 398.756 82.4245 399.587C82.3057 399.626 82.1473 399.666 82.0286 399.705C80.1677 400.18 78.109 399.784 76.5253 398.638C76.6441 399.547 75.8127 400.338 74.9416 400.496Z" fill="#0D0E0F"/>
<path d="M80.2902 413.465C79.8943 413.149 79.5379 412.793 79.1816 412.397C77.4396 410.46 76.4498 407.969 75.7767 405.438C75.3412 403.816 75.0245 402.156 74.9453 400.495C75.8559 400.337 76.6478 399.546 76.4894 398.676C78.0731 399.783 80.1318 400.178 81.9926 399.743C82.1114 399.704 82.2698 399.664 82.3885 399.625C82.5469 402.551 83.022 405.438 84.8432 407.652C86.6645 409.906 90.2673 410.658 93.6326 410.697C94.5036 410.816 95.335 410.855 96.206 410.697C96.4832 410.658 96.7999 410.578 97.0771 410.499C96.9583 412.042 96.5624 413.544 95.9289 414.928C95.8101 415.165 95.6914 415.403 95.7309 415.68C95.7705 415.838 95.8101 415.956 95.9289 416.075C93.3159 416.549 90.6236 416.51 88.0106 415.996C87.3771 415.877 86.7436 415.719 86.1498 415.442C85.1996 415.521 84.2098 415.403 83.2992 415.086C82.1906 414.77 81.1612 414.177 80.2902 413.465Z" fill="#B2AC9D"/>
<path d="M84.4041 382.98C85.0772 382.703 85.7502 382.506 86.4629 382.348C88.5216 381.873 90.6992 381.873 92.7975 381.992C93.0747 381.992 93.3518 382.031 93.629 382.031C93.431 382.703 92.1245 383.02 92.1641 383.771C92.8767 384.443 93.2726 385.353 93.3914 386.302C93.3518 386.5 93.3518 386.658 93.3518 386.856C92.9955 386.816 92.6788 386.737 92.3224 386.697C89.4322 386.381 86.1857 386.776 84.2457 388.951C82.6621 390.731 82.3453 393.222 82.3057 395.674C82.0286 396.544 81.5931 397.374 81.0388 398.165C79.7323 396.306 78.109 394.685 76.2482 393.38C76.2086 393.42 76.169 393.459 76.0898 393.499C76.2086 393.222 76.2878 392.945 76.4066 392.668C77.7131 389.228 79.5739 385.709 82.7412 383.771C83.2955 383.494 83.8498 383.218 84.4041 382.98Z" fill="#B2AC9D"/>
<path d="M74.5117 377.958C75.6599 376.139 76.6497 374.162 77.3623 372.145C82.3113 370.207 87.6958 369.298 93.0406 369.417C92.8031 371.394 92.328 373.331 91.5757 375.19C91.4174 375.585 91.259 376.02 91.2194 376.455C91.2194 376.772 91.2986 377.088 91.4174 377.365C91.8529 378.749 92.5259 380.054 93.397 381.24C93.5157 381.398 93.6345 381.556 93.6741 381.715C93.6741 381.833 93.6741 381.912 93.6741 381.991C93.397 381.952 93.1198 381.952 92.8427 381.952C90.7443 381.833 88.5668 381.873 86.508 382.308C85.7162 381.201 84.5284 380.37 83.1823 380.054C82.5488 379.896 81.8758 379.816 81.2027 379.737C78.9064 379.461 76.6497 378.867 74.5117 377.958Z" fill="#F8EED1"/>
<path d="M78.9023 424.343C80.5256 421.338 81.9509 418.253 83.2574 415.09C84.168 415.406 85.1182 415.525 86.108 415.446C86.7019 415.723 87.3354 415.881 87.9688 415.999C90.5819 416.513 93.2741 416.513 95.8872 416.078C95.9664 416.197 96.0455 416.276 96.1247 416.355C97.5896 417.897 99.0941 419.4 100.559 420.942C99.2921 422.919 98.1439 424.976 97.1145 427.111C94.1451 427.586 91.0966 427.546 88.1668 426.874V426.913C85.0391 426.241 81.9113 425.411 78.9023 424.343Z" fill="#F8EED1"/>
<path d="M82.3008 397.098C82.3008 396.663 82.3008 396.188 82.3008 395.753C82.38 395.556 82.4196 395.397 82.4591 395.2C85.0722 394.923 87.7248 394.804 90.3775 394.883C90.7734 395.16 91.1693 395.516 91.5256 395.872C88.1999 395.516 85.5869 398.64 82.38 399.629C82.3404 398.759 82.3008 397.928 82.3008 397.098Z" fill="#0D0E0F"/>
<path d="M90.3775 394.847C87.7248 394.807 85.0722 394.886 82.4591 395.163C82.4196 395.361 82.3404 395.519 82.3008 395.717C82.3404 393.265 82.6571 390.774 84.2408 388.994C86.1808 386.82 89.4273 386.424 92.3175 386.74C92.6738 386.78 92.9905 386.82 93.3469 386.899C93.3469 387.017 93.3469 387.136 93.3865 387.255C93.3865 387.136 93.426 387.017 93.426 386.899C96.5538 387.452 99.5628 388.678 102.176 390.576C102.888 391.09 103.601 391.683 104.116 392.395C104.71 393.226 105.026 394.254 105.224 395.282C103.482 394.372 101.622 393.621 99.7211 393.147C98.573 394.807 97.4644 396.429 96.3162 398.09C97.3456 397.259 98.4542 396.389 99.7211 395.994C101.028 395.638 102.572 395.875 103.403 396.943C103.997 397.734 104.195 398.92 105.106 399.236C105.145 399.276 105.224 399.276 105.264 399.276C104.828 402.637 103.245 405.84 100.79 408.173C100.038 408.885 99.2064 409.518 98.2958 409.992C98.0583 408.766 97.6624 407.62 96.8309 406.71C97.1081 407.936 97.1873 409.241 97.0685 410.506C96.0391 410.625 94.8513 410.743 93.624 410.704C90.2983 410.664 86.6559 409.913 84.8346 407.659C83.0134 405.445 82.5383 402.558 82.38 399.632C85.5869 398.643 88.1999 395.48 91.5256 395.875C91.1693 395.48 90.813 395.124 90.3775 394.847Z" fill="#797873"/>
<path d="M91.4128 377.405C91.3336 377.089 91.2148 376.812 91.2148 376.496C91.2148 376.061 91.3732 375.626 91.5712 375.23C92.2838 373.372 92.7985 371.434 93.0361 369.457C93.2736 369.457 93.5508 369.457 93.7883 369.497C94.4218 369.536 95.0552 369.576 95.6887 369.615C95.6887 373.728 95.8867 377.88 96.2826 381.992C96.2826 382.111 96.3222 382.269 96.3222 382.388C95.4116 382.269 94.5405 382.19 93.6299 382.111C93.6695 382.032 93.6695 381.913 93.6299 381.834C93.5903 381.636 93.4716 381.478 93.3528 381.36C92.5214 380.094 91.8483 378.789 91.4128 377.405Z" fill="#0D0E0F"/>
<path d="M92.1611 383.81C92.1215 383.019 93.3884 382.703 93.626 382.07C94.5366 382.149 95.4076 382.228 96.3182 382.347C96.3182 382.703 96.2786 383.019 96.0806 383.296C95.8827 383.573 95.5264 383.692 95.2096 383.85C94.2594 384.324 93.5864 385.313 93.3884 386.381C93.3092 385.392 92.8737 384.443 92.1611 383.81Z" fill="#0D0E0F"/>
<path d="M93.3555 386.897C93.3555 386.7 93.3555 386.541 93.3945 386.344C93.3945 386.541 93.4335 386.7 93.3945 386.897H93.3555Z" fill="#0D0E0F"/>
<path d="M93.3555 386.895H93.3945C93.3945 387.013 93.3945 387.132 93.3555 387.25C93.3555 387.132 93.3555 387.013 93.3555 386.895Z" fill="#0D0E0F"/>
<path d="M93.3945 386.896C93.3945 386.698 93.3945 386.5 93.3945 386.342C93.5529 385.274 94.226 384.286 95.2157 383.811C95.5325 383.653 95.8492 383.534 96.0868 383.258C96.2847 382.981 96.3243 382.664 96.3243 382.309C99.9272 382.823 103.451 383.851 106.499 385.828C108.994 387.449 111.132 389.822 112.359 392.511C111.528 392.115 110.736 391.601 110.063 390.929C109.865 390.731 109.667 390.534 109.429 390.534C109.073 390.534 108.796 390.89 108.637 391.206C107.806 392.709 106.935 394.251 106.103 395.753C105.826 395.595 105.549 395.437 105.272 395.279C105.114 394.251 104.757 393.262 104.163 392.392C103.649 391.68 102.936 391.087 102.223 390.573C99.5708 388.715 96.5619 387.449 93.3945 386.896Z" fill="#B2AC9D"/>
<path d="M93.5898 410.702C94.8172 410.702 96.0049 410.623 97.0343 410.504C96.7572 410.583 96.48 410.662 96.1633 410.702C95.3319 410.86 94.4609 410.82 93.5898 410.702Z" fill="#797873"/>
<path d="M95.6875 415.683C95.6479 415.406 95.7666 415.168 95.8854 414.931C96.5189 413.547 96.9148 412.045 97.0336 410.502C97.4691 410.384 97.865 410.186 98.2609 409.988C98.5381 411.333 98.6568 412.756 99.0923 414.061C99.2111 414.378 99.3299 414.694 99.607 414.852C99.7258 414.931 99.8446 414.971 99.9634 414.971C98.6568 415.485 97.2711 415.841 95.8854 416.078C95.7666 415.959 95.6875 415.801 95.6875 415.683Z" fill="#0D0E0F"/>
<path d="M96.1282 416.357C96.049 416.278 95.9302 416.159 95.8906 416.08C97.2763 415.843 98.662 415.447 99.9686 414.973C100.127 415.012 100.285 415.012 100.444 415.012C102.978 415.012 105.551 415.012 108.085 415.052C108.877 417.345 108.006 419.797 107.451 422.17C107.372 422.565 107.293 423 107.214 423.435C104.165 425.294 100.721 426.598 97.2367 427.152C97.1972 427.152 97.1576 427.152 97.118 427.192C98.1474 425.056 99.2955 423 100.562 421.023C99.058 419.402 97.5931 417.899 96.1282 416.357Z" fill="#0D0E0F"/>
<path d="M96.2775 381.912C95.8816 377.8 95.6836 373.687 95.6836 369.535C102.137 370.089 108.59 372.185 113.104 376.732C115.875 379.5 117.776 383.02 119.043 386.697C119.676 388.516 120.151 390.375 120.428 392.312C117.974 393.617 114.806 393.657 112.273 392.47C111.045 389.781 108.947 387.409 106.413 385.788C103.364 383.81 99.8407 382.782 96.2379 382.268C96.3171 382.189 96.2775 382.07 96.2775 381.912Z" fill="#F8EED1"/>
<path d="M96.2812 398.045C97.4294 396.384 98.538 394.762 99.6861 393.102C101.587 393.616 103.447 394.327 105.189 395.237C105.229 395.514 105.269 395.83 105.308 396.107C105.387 397.135 105.387 398.203 105.269 399.231C105.229 399.231 105.15 399.191 105.11 399.191C104.2 398.875 104.002 397.689 103.408 396.898C102.616 395.83 101.032 395.553 99.7257 395.949C98.4192 396.344 97.3106 397.214 96.2812 398.045Z" fill="#0D0E0F"/>
<path d="M97.0344 410.503C97.1532 409.238 97.074 407.972 96.7969 406.707C97.6283 407.617 97.9846 408.763 98.2618 409.989C97.8658 410.187 97.4699 410.345 97.0344 410.503Z" fill="#0D0E0F"/>
<path d="M99.0971 414.058C98.6615 412.753 98.5428 411.329 98.2656 409.985C99.1762 409.51 100.008 408.878 100.76 408.166C103.215 405.833 104.838 402.63 105.234 399.268C105.511 399.348 105.828 399.308 106.105 399.308C108.52 399.15 110.935 398.952 113.35 398.715C113.192 400.415 112.637 402.076 111.925 403.658C111.529 404.567 111.054 405.437 110.499 406.268C110.301 406.347 110.064 406.426 109.826 406.505C109.906 406.663 109.985 406.782 110.064 406.94C108.045 409.906 105.273 412.357 102.066 414.018C101.354 414.374 100.641 414.69 99.8889 414.967C99.7701 414.928 99.6513 414.928 99.5326 414.849C99.3346 414.651 99.2158 414.335 99.0971 414.058Z" fill="#B2AC9D"/>
<path d="M100.401 414.973C100.243 414.973 100.084 414.973 99.9258 414.934C100.678 414.657 101.391 414.34 102.103 413.985C105.31 412.324 108.082 409.872 110.101 406.906C111.764 410.267 113.149 413.747 114.218 417.306C112.239 419.718 109.863 421.775 107.211 423.356C107.25 422.921 107.329 422.526 107.448 422.091C108.002 419.718 108.834 417.267 108.082 414.973C105.508 415.013 102.974 414.973 100.401 414.973Z" fill="#F8EED1"/>
<path d="M105.31 396.146C105.271 395.87 105.231 395.553 105.191 395.276C105.469 395.435 105.746 395.593 106.023 395.751C106.854 394.248 107.725 392.706 108.557 391.203C108.755 390.887 108.992 390.531 109.349 390.531C109.626 390.531 109.824 390.769 109.982 390.927C110.655 391.599 111.407 392.113 112.278 392.508C113.031 394.13 113.426 395.909 113.387 397.689C113.387 398.005 113.347 398.321 113.347 398.677C110.932 398.914 108.517 399.112 106.102 399.27C105.825 399.31 105.508 399.31 105.231 399.231C105.389 398.242 105.389 397.214 105.31 396.146Z" fill="#0D0E0F"/>
<path d="M110.105 406.903C110.026 406.745 109.946 406.626 109.867 406.468C110.105 406.428 110.303 406.349 110.54 406.23C110.421 406.468 110.263 406.665 110.105 406.903Z" fill="#B2AC9D"/>
<path d="M110.102 406.904C110.26 406.666 110.379 406.469 110.537 406.231C111.052 405.994 111.527 405.638 111.923 405.203C113.625 408.05 115.13 410.977 116.515 414.021C116.08 414.733 115.644 415.405 115.13 416.078C114.813 416.473 114.496 416.908 114.18 417.303C113.15 413.745 111.764 410.265 110.102 406.904Z" fill="#0D0E0F"/>
<path d="M111.921 405.203C111.525 405.638 111.05 405.994 110.535 406.231C111.05 405.4 111.525 404.53 111.96 403.621C112.673 402.039 113.188 400.378 113.386 398.678C115.92 398.401 118.414 398.045 120.908 397.531C120.948 403.305 119.522 409.078 116.553 414.021C115.167 411.016 113.623 408.089 111.921 405.203Z" fill="#F8EED1"/>
<path d="M113.389 398.679C113.429 398.362 113.429 398.046 113.429 397.69C113.468 395.871 113.033 394.131 112.32 392.51C114.854 393.696 117.982 393.617 120.476 392.352C120.753 394.052 120.912 395.792 120.912 397.532C118.417 398.085 115.884 398.441 113.389 398.679Z" fill="#0D0E0F"/>
</g>
<defs>
<filter id="filter0_d" x="0.273438" y="0.0742188" width="339.462" height="504.589" filterUnits="userSpaceOnUse" color-interpolation-filters="sRGB">
<feFlood flood-opacity="0" result="BackgroundImageFix"/>
<feColorMatrix in="SourceAlpha" type="matrix" values="0 0 0 0 0 0 0 0 0 0 0 0 0 0 0 0 0 0 127 0"/>
<feOffset dy="4"/>
<feGaussianBlur stdDeviation="2"/>
<feColorMatrix type="matrix" values="0 0 0 0 0 0 0 0 0 0 0 0 0 0 0 0 0 0 0.25 0"/>
<feBlend mode="normal" in2="BackgroundImageFix" result="effect1_dropShadow"/>
<feBlend mode="normal" in="SourceGraphic" in2="effect1_dropShadow" result="shape"/>
</filter>
</defs>
</svg>
