<svg width="500" height="444" viewBox="0 0 500 444" fill="none" xmlns="http://www.w3.org/2000/svg">
<path d="M496.34 6.21875H3.12695V443.583H496.34V6.21875Z" fill="black"/>
<path fill-rule="evenodd" clip-rule="evenodd" d="M0.126953 0.21875H499.489V443.732H0.126953V0.21875ZM6.27547 6.36727V437.583H493.341V6.36727H6.27547Z" fill="white"/>
<path fill-rule="evenodd" clip-rule="evenodd" d="M0.126953 0.21875H499.489V73.0787H0.126953V0.21875ZM6.27547 6.36727V66.9302H493.341V6.36727H6.27547Z" fill="white"/>
<path fill-rule="evenodd" clip-rule="evenodd" d="M66.0378 58.8259L20.1289 20.9101L27.307 12.2188L73.2159 50.1346L66.0378 58.8259Z" fill="white"/>
<path fill-rule="evenodd" clip-rule="evenodd" d="M20.1309 51.0569L67.167 12.2188L74.3442 20.9109L27.308 59.749L20.1309 51.0569Z" fill="white"/>
<path d="M95.127 41.0859V30.5046H99.1975C100.305 30.5046 101.176 30.7438 101.812 31.2223C102.448 31.6939 102.766 32.4185 102.766 33.396C102.766 33.7719 102.67 34.1376 102.478 34.4931C102.294 34.8417 102.055 35.1151 101.761 35.3133C102.253 35.5526 102.656 35.908 102.971 36.3797C103.285 36.8445 103.442 37.3776 103.442 37.9792C103.442 39.0181 103.121 39.7974 102.478 40.3169C101.843 40.8295 100.968 41.0859 99.8537 41.0859H95.127ZM97.7313 38.8609H99.1565C100.25 38.8609 100.797 38.4952 100.797 37.7638C100.797 37.0051 100.25 36.6291 99.1565 36.636H97.7313V38.8609ZM97.7313 34.37H99.0539C99.8537 34.37 100.254 34.0761 100.254 33.4883C100.254 32.9004 99.8537 32.6065 99.0539 32.6065H97.7313V34.37Z" fill="white"/>
<path d="M105.626 41.0859V30.5046H108.231V34.5341H110.158C111.279 34.5341 112.168 34.8314 112.824 35.4261C113.487 36.0208 113.819 36.8171 113.819 37.8151C113.819 38.8062 113.487 39.5992 112.824 40.1938C112.168 40.7885 111.279 41.0859 110.158 41.0859H105.626ZM108.231 38.8609H109.697C110.674 38.8609 111.163 38.5123 111.163 37.8151C111.17 37.111 110.681 36.759 109.697 36.759H108.231V38.8609ZM116.023 41.0859V30.5046H118.627V41.0859H116.023Z" fill="white"/>
<path d="M125.579 30.5046H128.204L130.664 37.1384L132.971 30.5046H135.576L130.121 45.3717H127.599L129.424 40.4092L125.579 30.5046Z" fill="white"/>
<path d="M137.309 41.0859V30.5046H141.379C142.486 30.5046 143.358 30.7438 143.994 31.2223C144.629 31.6939 144.947 32.4185 144.947 33.396C144.947 33.7719 144.851 34.1376 144.66 34.4931C144.476 34.8417 144.236 35.1151 143.942 35.3133C144.435 35.5526 144.838 35.908 145.152 36.3797C145.467 36.8445 145.624 37.3776 145.624 37.9792C145.624 39.0181 145.303 39.7974 144.66 40.3169C144.024 40.8295 143.149 41.0859 142.035 41.0859H137.309ZM139.913 38.8609H141.338C142.432 38.8609 142.979 38.4952 142.979 37.7638C142.979 37.0051 142.432 36.6291 141.338 36.636H139.913V38.8609ZM139.913 34.37H141.236C142.035 34.37 142.435 34.0761 142.435 33.4883C142.435 32.9004 142.035 32.6065 141.236 32.6065H139.913V34.37Z" fill="white"/>
<path d="M147.603 37.7126C147.411 37.0905 147.316 36.4514 147.316 35.7952C147.316 35.139 147.411 34.4999 147.603 33.8779C147.801 33.249 148.091 32.668 148.474 32.1348C148.864 31.5948 149.397 31.1608 150.074 30.8327C150.757 30.4977 151.533 30.3303 152.401 30.3303C153.242 30.3303 153.99 30.4943 154.647 30.8224C155.303 31.1437 155.819 31.5675 156.195 32.0938C156.578 32.6133 156.861 33.1704 157.046 33.7651C157.237 34.3598 157.333 34.9579 157.333 35.5594V36.636H150.043C150.07 37.2785 150.303 37.839 150.74 38.3175C151.185 38.7892 151.786 39.025 152.545 39.025C153.625 39.025 154.479 38.4816 155.108 37.3947L157.21 38.1637C156.315 40.2212 154.712 41.2499 152.401 41.2499C151.533 41.2499 150.757 41.0859 150.074 40.7578C149.397 40.4297 148.864 39.9956 148.474 39.4556C148.091 38.9156 147.801 38.3346 147.603 37.7126ZM150.105 34.5751H154.667C154.373 33.2285 153.618 32.5586 152.401 32.5655C151.786 32.5655 151.273 32.7603 150.863 33.1499C150.453 33.5395 150.2 34.0146 150.105 34.5751Z" fill="white"/>
<path d="M159.681 45.3717V30.5046H162.285V31.5914C162.456 31.2838 162.774 30.9967 163.239 30.7302C163.71 30.4636 164.247 30.3303 164.849 30.3303C166.4 30.3303 167.593 30.8258 168.427 31.817C169.261 32.8013 169.678 34.1274 169.678 35.7952C169.678 37.4631 169.261 38.7892 168.427 39.7735C167.593 40.7578 166.4 41.2499 164.849 41.2499C164.329 41.2499 163.83 41.1405 163.352 40.9218C162.88 40.6962 162.525 40.4297 162.285 40.1221V45.3717H159.681ZM162.726 33.4165C162.275 33.977 162.049 34.7699 162.049 35.7952C162.049 36.8137 162.275 37.6066 162.726 38.174C163.184 38.7413 163.769 39.025 164.479 39.025C165.197 39.025 165.785 38.7379 166.243 38.1637C166.708 37.5895 166.94 36.8 166.94 35.7952C166.94 34.7836 166.708 33.9941 166.243 33.4267C165.785 32.8526 165.197 32.5655 164.479 32.5655C163.769 32.5655 163.184 32.8491 162.726 33.4165Z" fill="white"/>
<path d="M171.759 37.7126C171.568 37.0905 171.472 36.4514 171.472 35.7952C171.472 35.139 171.568 34.4999 171.759 33.8779C171.957 33.249 172.248 32.668 172.631 32.1348C173.02 31.5948 173.554 31.1608 174.23 30.8327C174.914 30.4977 175.69 30.3303 176.558 30.3303C177.398 30.3303 178.147 30.4943 178.803 30.8224C179.459 31.1437 179.975 31.5675 180.351 32.0938C180.734 32.6133 181.018 33.1704 181.202 33.7651C181.394 34.3598 181.49 34.9579 181.49 35.5594V36.636H174.2C174.227 37.2785 174.459 37.839 174.897 38.3175C175.341 38.7892 175.943 39.025 176.701 39.025C177.781 39.025 178.636 38.4816 179.265 37.3947L181.366 38.1637C180.471 40.2212 178.868 41.2499 176.558 41.2499C175.69 41.2499 174.914 41.0859 174.23 40.7578C173.554 40.4297 173.02 39.9956 172.631 39.4556C172.248 38.9156 171.957 38.3346 171.759 37.7126ZM174.261 34.5751H178.824C178.53 33.2285 177.774 32.5586 176.558 32.5655C175.943 32.5655 175.43 32.7603 175.02 33.1499C174.61 33.5395 174.357 34.0146 174.261 34.5751Z" fill="white"/>
<path d="M183.92 41.0859V30.5046H186.524V34.3495H190.051V30.5046H192.655V41.0859H190.051V36.5745H186.524V41.0859H183.92Z" fill="white"/>
<path d="M195.526 41.0859V30.5046H198.13V34.5341H200.058C201.179 34.5341 202.068 34.8314 202.724 35.4261C203.387 36.0208 203.718 36.8171 203.718 37.8151C203.718 38.8062 203.387 39.5992 202.724 40.1938C202.068 40.7885 201.179 41.0859 200.058 41.0859H195.526ZM198.13 38.8609H199.597C200.574 38.8609 201.063 38.5123 201.063 37.8151C201.07 37.111 200.581 36.759 199.597 36.759H198.13V38.8609ZM205.923 41.0859V30.5046H208.527V41.0859H205.923Z" fill="white"/>
<path d="M210.732 44.3566L212.3 38.0202H215.807L212.557 44.3566H210.732Z" fill="white"/>
<path d="M223.835 35.9798V30.5046H226.439V35.0365C226.439 36.2122 226.945 36.8 227.957 36.8C228.811 36.8 229.553 36.1643 230.182 34.8929V30.5046H232.786V41.0859H230.182V37.9997C229.69 38.4303 229.211 38.731 228.746 38.9019C228.288 39.0728 227.731 39.1583 227.075 39.1583C226.098 39.1583 225.312 38.8814 224.717 38.3278C224.129 37.7673 223.835 36.9846 223.835 35.9798Z" fill="white"/>
<path d="M235.319 32.7295V30.5046H243.593V32.7295H240.763V41.0859H238.159V32.7295H235.319Z" fill="white"/>
<path d="M246.269 39.7119C245.305 38.6798 244.823 37.3742 244.823 35.7952C244.823 34.2094 245.305 32.9038 246.269 31.8785C247.24 30.8464 248.549 30.3303 250.196 30.3303C251.85 30.3303 253.159 30.8464 254.123 31.8785C255.094 32.9038 255.579 34.2094 255.579 35.7952C255.579 37.3742 255.094 38.6798 254.123 39.7119C253.159 40.7373 251.85 41.2499 250.196 41.2499C248.549 41.2499 247.24 40.7373 246.269 39.7119ZM248.268 33.4985C247.79 34.1205 247.551 34.8861 247.551 35.7952C247.551 36.7043 247.79 37.4699 248.268 38.0919C248.747 38.714 249.39 39.025 250.196 39.025C251.01 39.025 251.652 38.714 252.124 38.0919C252.602 37.4699 252.841 36.7043 252.841 35.7952C252.841 34.8861 252.602 34.1205 252.124 33.4985C251.652 32.8765 251.01 32.5655 250.196 32.5655C249.39 32.5655 248.747 32.8765 248.268 33.4985Z" fill="white"/>
<path d="M261.844 41.0859L265.35 35.4364L262.285 30.5046H265.022L266.745 33.2524L268.467 30.5046H271.195L268.129 35.4364L271.635 41.0859H268.908L266.745 37.6408L264.581 41.0859H261.844Z" fill="white"/>
<path d="M274.158 39.7119C273.194 38.6798 272.712 37.3742 272.712 35.7952C272.712 34.2094 273.194 32.9038 274.158 31.8785C275.128 30.8464 276.437 30.3303 278.085 30.3303C279.739 30.3303 281.048 30.8464 282.012 31.8785C282.982 32.9038 283.468 34.2094 283.468 35.7952C283.468 37.3742 282.982 38.6798 282.012 39.7119C281.048 40.7373 279.739 41.2499 278.085 41.2499C276.437 41.2499 275.128 40.7373 274.158 39.7119ZM276.157 33.4985C275.679 34.1205 275.439 34.8861 275.439 35.7952C275.439 36.7043 275.679 37.4699 276.157 38.0919C276.636 38.714 277.278 39.025 278.085 39.025C278.898 39.025 279.541 38.714 280.012 38.0919C280.491 37.4699 280.73 36.7043 280.73 35.7952C280.73 34.8861 280.491 34.1205 280.012 33.4985C279.541 32.8765 278.898 32.5655 278.085 32.5655C277.278 32.5655 276.636 32.8765 276.157 33.4985Z" fill="white"/>
<path d="M284.247 32.7295V30.5046H292.521V32.7295H289.691V41.0859H287.087V32.7295H284.247Z" fill="white"/>
<path d="M294.592 41.0859V30.5046H297.197V37.0359L300.826 30.5046H303.666V41.0859H301.062V34.5546L297.422 41.0859H294.592Z" fill="white"/>
<path d="M305.533 32.7295V30.5046H313.807V32.7295H310.977V41.0859H308.373V32.7295H305.533Z" fill="white"/>
<path d="M315.324 37.7126C315.133 37.0905 315.037 36.4514 315.037 35.7952C315.037 35.139 315.133 34.4999 315.324 33.8779C315.523 33.249 315.813 32.668 316.196 32.1348C316.585 31.5948 317.119 31.1608 317.795 30.8327C318.479 30.4977 319.255 30.3303 320.123 30.3303C320.964 30.3303 321.712 30.4943 322.368 30.8224C323.024 31.1437 323.541 31.5675 323.916 32.0938C324.299 32.6133 324.583 33.1704 324.767 33.7651C324.959 34.3598 325.055 34.9579 325.055 35.5594V36.636H317.765C317.792 37.2785 318.024 37.839 318.462 38.3175C318.906 38.7892 319.508 39.025 320.266 39.025C321.346 39.025 322.201 38.4816 322.83 37.3947L324.932 38.1637C324.036 40.2212 322.433 41.2499 320.123 41.2499C319.255 41.2499 318.479 41.0859 317.795 40.7578C317.119 40.4297 316.585 39.9956 316.196 39.4556C315.813 38.9156 315.523 38.3346 315.324 37.7126ZM317.826 34.5751H322.389C322.095 33.2285 321.34 32.5586 320.123 32.5655C319.508 32.5655 318.995 32.7603 318.585 33.1499C318.175 33.5395 317.922 34.0146 317.826 34.5751Z" fill="white"/>
<path d="M333.257 39.7017C332.362 38.6627 331.914 37.3605 331.914 35.7952C331.914 34.2299 332.362 32.9277 333.257 31.8888C334.153 30.8498 335.427 30.3303 337.082 30.3303C339.474 30.3303 341.077 31.3385 341.89 33.355L339.563 34.2983C338.989 33.1362 338.162 32.5586 337.082 32.5655C336.282 32.5655 335.673 32.8628 335.257 33.4575C334.846 34.0522 334.641 34.8314 334.641 35.7952C334.641 36.759 334.846 37.5383 335.257 38.1329C335.673 38.7276 336.282 39.025 337.082 39.025C338.162 39.025 338.989 38.444 339.563 37.2819L341.89 38.2252C341.077 40.2417 339.474 41.2499 337.082 41.2499C335.427 41.2499 334.153 40.7338 333.257 39.7017Z" fill="white"/>
<path d="M343.787 41.0859V30.5046H346.391V34.6776H347.817C348.042 33.3926 348.62 32.3467 349.549 31.5402C350.479 30.7336 351.665 30.3303 353.107 30.3303C354.761 30.3303 356.07 30.8464 357.034 31.8785C357.998 32.9038 358.48 34.2094 358.48 35.7952C358.48 37.3742 357.998 38.6798 357.034 39.7119C356.07 40.7373 354.761 41.2499 353.107 41.2499C351.651 41.2499 350.459 40.8535 349.529 40.0605C348.599 39.2608 348.029 38.2081 347.817 36.9026H346.391V41.0859H343.787ZM351.169 33.4985C350.698 34.1205 350.462 34.8861 350.462 35.7952C350.462 36.7043 350.698 37.4699 351.169 38.0919C351.648 38.714 352.294 39.025 353.107 39.025C353.921 39.025 354.563 38.714 355.035 38.0919C355.513 37.4699 355.753 36.7043 355.753 35.7952C355.753 34.8861 355.513 34.1205 355.035 33.4985C354.563 32.8765 353.921 32.5655 353.107 32.5655C352.294 32.5655 351.648 32.8765 351.169 33.4985Z" fill="white"/>
<path d="M360.131 38.8609H361.013L362.356 30.5046H369.933V38.8609H370.712L370.394 43.4749H368.128V41.0859H362.715V43.4749H360.459L360.131 38.8609ZM363.555 38.8609H367.328V32.7295H364.499L363.555 38.8609Z" fill="white"/>
<path d="M372.373 38.0407C372.373 36.988 372.79 36.1472 373.624 35.5184C374.458 34.8895 375.545 34.5751 376.884 34.5751H378.648V34.1137C378.648 33.0747 378.033 32.5586 376.802 32.5655C375.866 32.5655 375.258 32.9688 374.977 33.7753L372.773 33.2729C372.944 32.3912 373.391 31.6803 374.116 31.1403C374.841 30.6003 375.736 30.3303 376.802 30.3303C379.769 30.3303 381.252 31.8102 381.252 34.7699V41.0859H379.109L378.843 39.7427C378.016 40.7475 376.929 41.2499 375.582 41.2499C374.646 41.2499 373.877 40.9731 373.275 40.4194C372.674 39.8589 372.373 39.066 372.373 38.0407ZM375.1 37.9997C375.1 38.2799 375.193 38.5226 375.377 38.7276C375.569 38.9259 375.842 39.025 376.197 39.025C376.84 39.025 377.407 38.8233 377.899 38.42C378.398 38.0167 378.648 37.4904 378.648 36.841V36.636H376.905C375.702 36.636 375.1 37.0905 375.1 37.9997Z" fill="white"/>
<path d="M389.25 41.0859V30.5046H397.924V41.0859H395.32V32.7295H391.854V41.0859H389.25Z" fill="white"/>
<path d="M400.795 45.3717V30.5046H403.399V31.5914C403.57 31.2838 403.888 30.9967 404.353 30.7302C404.824 30.4636 405.361 30.3303 405.962 30.3303C407.514 30.3303 408.707 30.8258 409.541 31.817C410.375 32.8013 410.792 34.1274 410.792 35.7952C410.792 37.4631 410.375 38.7892 409.541 39.7735C408.707 40.7578 407.514 41.2499 405.962 41.2499C405.443 41.2499 404.944 41.1405 404.465 40.9218C403.994 40.6962 403.638 40.4297 403.399 40.1221V45.3717H400.795ZM403.84 33.4165C403.389 33.977 403.163 34.7699 403.163 35.7952C403.163 36.8137 403.389 37.6066 403.84 38.174C404.298 38.7413 404.882 39.025 405.593 39.025C406.311 39.025 406.899 38.7379 407.357 38.1637C407.822 37.5895 408.054 36.8 408.054 35.7952C408.054 34.7836 407.822 33.9941 407.357 33.4267C406.899 32.8526 406.311 32.5655 405.593 32.5655C404.882 32.5655 404.298 32.8491 403.84 33.4165Z" fill="white"/>
<path d="M413.201 41.0859V30.5046H415.806V37.0359L419.435 30.5046H422.275V41.0859H419.671V34.5546L416.031 41.0859H413.201Z" fill="white"/>
<path d="M425.136 41.0859V30.5046H427.74V37.0359L431.37 30.5046H434.21V41.0859H431.606V34.5546L427.966 41.0859H425.136ZM427.197 26.3828H429.104C429.104 26.5537 429.155 26.6972 429.258 26.8134C429.367 26.9228 429.504 26.9775 429.668 26.9775C429.839 26.9775 429.975 26.9228 430.078 26.8134C430.187 26.6972 430.242 26.5537 430.242 26.3828H432.149C432.149 27.0117 431.92 27.5517 431.462 28.0028C431.011 28.4539 430.413 28.6795 429.668 28.6795C428.93 28.6795 428.331 28.4539 427.874 28.0028C427.422 27.5517 427.197 27.0117 427.197 26.3828Z" fill="white"/>
<path d="M436.527 32.7295V30.5046H444.802V32.7295H441.972V41.0859H439.367V32.7295H436.527Z" fill="white"/>
<path d="M446.873 41.0859V30.5046H449.477V37.0359L453.107 30.5046H455.947V41.0859H453.342V34.5546L449.703 41.0859H446.873Z" fill="white"/>
<path d="M458.5 29.428C458.671 28.5052 459.108 27.7396 459.812 27.1313C460.516 26.5229 461.415 26.2188 462.509 26.2188C463.684 26.2188 464.624 26.5195 465.328 27.121C466.039 27.7225 466.395 28.5291 466.395 29.5408C466.395 30.3269 466.166 30.9352 465.708 31.3658C465.257 31.7965 464.518 32.21 463.493 32.6065C462.796 32.8867 462.324 33.1191 462.078 33.3037C461.832 33.4814 461.709 33.7104 461.709 33.9907C461.709 34.2162 461.781 34.394 461.924 34.5238C462.075 34.6537 462.256 34.7186 462.468 34.7186C463.042 34.7186 463.442 34.3974 463.667 33.7548L465.513 34.4521C465.274 35.1219 464.891 35.6517 464.365 36.0413C463.845 36.4241 463.213 36.6155 462.468 36.6155C461.613 36.6155 460.916 36.366 460.376 35.867C459.836 35.368 459.566 34.7221 459.566 33.9291C459.566 32.6851 460.325 31.7726 461.842 31.1915C462.656 30.8839 463.206 30.6071 463.493 30.361C463.787 30.1081 463.934 29.8074 463.934 29.4588C463.934 29.1033 463.807 28.8401 463.555 28.6693C463.308 28.4915 462.98 28.4027 462.57 28.4027C461.661 28.4027 461.066 28.8709 460.786 29.8074L458.5 29.428ZM460.725 39.4864C460.725 38.9942 460.896 38.5773 461.237 38.2355C461.579 37.8937 461.989 37.7228 462.468 37.7228C462.946 37.7228 463.356 37.8971 463.698 38.2457C464.04 38.5875 464.211 39.001 464.211 39.4864C464.211 39.9648 464.043 40.3716 463.708 40.7065C463.373 41.0414 462.96 41.2089 462.468 41.2089C461.976 41.2089 461.562 41.0414 461.227 40.7065C460.892 40.3716 460.725 39.9648 460.725 39.4864Z" fill="white"/>
<path d="M66.7324 160.219V124.945H80.3018C83.9932 124.945 86.8984 125.743 89.0176 127.338C91.1367 128.91 92.1963 131.326 92.1963 134.584C92.1963 135.837 91.8773 137.056 91.2393 138.241C90.624 139.403 89.8265 140.315 88.8467 140.976C90.4873 141.773 91.8317 142.958 92.8799 144.53C93.9281 146.08 94.4521 147.857 94.4521 149.862C94.4521 153.326 93.3812 155.924 91.2393 157.655C89.1201 159.364 86.2035 160.219 82.4893 160.219H66.7324ZM75.4141 152.802H80.165C83.8109 152.802 85.6338 151.583 85.6338 149.145C85.6338 146.615 83.8109 145.362 80.165 145.385H75.4141V152.802ZM75.4141 137.831H79.8232C82.4893 137.831 83.8223 136.851 83.8223 134.892C83.8223 132.932 82.4893 131.952 79.8232 131.952H75.4141V137.831ZM101.732 160.219V124.945H110.414V138.378H116.84C120.577 138.378 123.539 139.369 125.727 141.352C127.937 143.334 129.042 145.989 129.042 149.315C129.042 152.619 127.937 155.263 125.727 157.245C123.539 159.228 120.577 160.219 116.84 160.219H101.732ZM110.414 152.802H115.302C118.56 152.802 120.189 151.64 120.189 149.315C120.212 146.968 118.583 145.795 115.302 145.795H110.414V152.802ZM136.391 160.219V124.945H145.072V160.219H136.391ZM157.138 155.604C154.153 152.141 152.66 147.8 152.66 142.582C152.66 137.364 154.153 133.023 157.138 129.56C160.123 126.096 164.372 124.364 169.887 124.364C177.862 124.364 183.205 127.725 185.917 134.447L178.158 137.592C176.244 133.718 173.487 131.793 169.887 131.815C167.221 131.815 165.193 132.807 163.803 134.789C162.436 136.771 161.752 139.369 161.752 142.582C161.752 145.795 162.436 148.393 163.803 150.375C165.193 152.357 167.221 153.349 169.887 153.349C173.487 153.349 176.244 151.412 178.158 147.538L185.917 150.683C183.205 157.405 177.862 160.766 169.887 160.766C164.372 160.766 160.123 159.045 157.138 155.604ZM190.36 132.362V124.945H217.943V132.362H208.51V160.219H199.828V132.362H190.36ZM221.635 150.067C221.635 146.558 223.025 143.756 225.805 141.659C228.585 139.563 232.208 138.515 236.674 138.515H242.553V136.977C242.553 133.513 240.502 131.793 236.4 131.815C233.279 131.815 231.251 133.16 230.316 135.849L222.968 134.174C223.537 131.234 225.03 128.865 227.445 127.064C229.861 125.264 232.846 124.364 236.4 124.364C246.29 124.364 251.234 129.298 251.234 139.164V160.219H244.091L243.202 155.741C240.445 159.091 236.822 160.766 232.333 160.766C229.211 160.766 226.648 159.843 224.643 157.997C222.637 156.129 221.635 153.485 221.635 150.067ZM230.727 149.931C230.727 150.865 231.034 151.674 231.649 152.357C232.287 153.018 233.199 153.349 234.384 153.349C236.526 153.349 238.417 152.676 240.058 151.332C241.721 149.988 242.553 148.233 242.553 146.068V145.385H236.742C232.732 145.385 230.727 146.9 230.727 149.931ZM259.711 160.219V124.945H273.28C276.972 124.945 279.877 125.743 281.996 127.338C284.115 128.91 285.175 131.326 285.175 134.584C285.175 135.837 284.856 137.056 284.218 138.241C283.603 139.403 282.805 140.315 281.825 140.976C283.466 141.773 284.81 142.958 285.858 144.53C286.907 146.08 287.431 147.857 287.431 149.862C287.431 153.326 286.36 155.924 284.218 157.655C282.099 159.364 279.182 160.219 275.468 160.219H259.711ZM268.393 152.802H273.144C276.789 152.802 278.612 151.583 278.612 149.145C278.612 146.615 276.789 145.362 273.144 145.385H268.393V152.802ZM268.393 137.831H272.802C275.468 137.831 276.801 136.851 276.801 134.892C276.801 132.932 275.468 131.952 272.802 131.952H268.393V137.831ZM294.779 160.219V124.945H303.461V138.788L314.945 124.945H325.644L311.493 141.181L326.566 160.219H315.902L303.461 143.573V160.219H294.779ZM329.438 150.067C329.438 146.558 330.827 143.756 333.607 141.659C336.387 139.563 340.01 138.515 344.477 138.515H350.355V136.977C350.355 133.513 348.305 131.793 344.203 131.815C341.081 131.815 339.053 133.16 338.119 135.849L330.771 134.174C331.34 131.234 332.833 128.865 335.248 127.064C337.663 125.264 340.648 124.364 344.203 124.364C354.092 124.364 359.037 129.298 359.037 139.164V160.219H351.894L351.005 155.741C348.248 159.091 344.625 160.766 340.136 160.766C337.014 160.766 334.451 159.843 332.445 157.997C330.44 156.129 329.438 153.485 329.438 150.067ZM338.529 149.931C338.529 150.865 338.837 151.674 339.452 152.357C340.09 153.018 341.002 153.349 342.187 153.349C344.328 153.349 346.22 152.676 347.86 151.332C349.524 149.988 350.355 148.233 350.355 146.068V145.385H344.545C340.535 145.385 338.529 146.9 338.529 149.931ZM384.638 141.796V134.242H429.516V141.796H384.638ZM66.7324 230.219V194.945H75.4141V208.788L86.8984 194.945H97.5967L83.4463 211.181L98.5195 230.219H87.8555L75.4141 213.573V230.219H66.7324ZM104.33 230.219V194.945H117.899C121.591 194.945 124.496 195.743 126.615 197.338C128.734 198.91 129.794 201.326 129.794 204.584C129.794 205.837 129.475 207.056 128.837 208.241C128.222 209.403 127.424 210.315 126.444 210.976C128.085 211.773 129.429 212.958 130.478 214.53C131.526 216.08 132.05 217.857 132.05 219.862C132.05 223.326 130.979 225.924 128.837 227.655C126.718 229.364 123.801 230.219 120.087 230.219H104.33ZM113.012 222.802H117.763C121.409 222.802 123.231 221.583 123.231 219.145C123.231 216.615 121.409 215.362 117.763 215.385H113.012V222.802ZM113.012 207.831H117.421C120.087 207.831 121.42 206.851 121.42 204.892C121.42 202.932 120.087 201.952 117.421 201.952H113.012V207.831ZM138.646 218.974C138.008 216.9 137.689 214.77 137.689 212.582C137.689 210.395 138.008 208.264 138.646 206.19C139.307 204.094 140.276 202.157 141.552 200.38C142.851 198.58 144.628 197.133 146.884 196.039C149.162 194.923 151.749 194.364 154.643 194.364C157.445 194.364 159.94 194.911 162.128 196.005C164.315 197.076 166.036 198.489 167.289 200.243C168.565 201.975 169.511 203.832 170.126 205.814C170.764 207.797 171.083 209.791 171.083 211.796V215.385H146.781C146.872 217.527 147.647 219.395 149.105 220.99C150.587 222.562 152.592 223.349 155.121 223.349C158.721 223.349 161.57 221.537 163.666 217.914L170.673 220.478C167.688 227.336 162.344 230.766 154.643 230.766C151.749 230.766 149.162 230.219 146.884 229.125C144.628 228.031 142.851 226.584 141.552 224.784C140.276 222.984 139.307 221.047 138.646 218.974ZM146.986 208.515H162.196C161.216 204.026 158.699 201.793 154.643 201.815C152.592 201.815 150.883 202.465 149.516 203.764C148.148 205.062 147.305 206.646 146.986 208.515ZM181.063 225.604C178.078 222.141 176.586 217.8 176.586 212.582C176.586 207.364 178.078 203.023 181.063 199.56C184.049 196.096 188.298 194.364 193.812 194.364C201.788 194.364 207.131 197.725 209.843 204.447L202.084 207.592C200.17 203.718 197.413 201.793 193.812 201.815C191.146 201.815 189.118 202.807 187.729 204.789C186.361 206.771 185.678 209.369 185.678 212.582C185.678 215.795 186.361 218.393 187.729 220.375C189.118 222.357 191.146 223.349 193.812 223.349C197.413 223.349 200.17 221.412 202.084 217.538L209.843 220.683C207.131 227.405 201.788 230.766 193.812 230.766C188.298 230.766 184.049 229.045 181.063 225.604ZM214.286 202.362V194.945H241.869V202.362H232.436V230.219H223.754V202.362H214.286ZM248.5 244.506V194.945H257.182V198.568C257.751 197.543 258.811 196.586 260.36 195.697C261.933 194.809 263.721 194.364 265.727 194.364C270.899 194.364 274.875 196.016 277.655 199.32C280.435 202.602 281.825 207.022 281.825 212.582C281.825 218.142 280.435 222.562 277.655 225.844C274.875 229.125 270.899 230.766 265.727 230.766C263.995 230.766 262.331 230.401 260.736 229.672C259.164 228.92 257.979 228.031 257.182 227.006V244.506H248.5ZM258.651 204.652C257.147 206.521 256.396 209.164 256.396 212.582C256.396 215.977 257.147 218.62 258.651 220.512C260.178 222.403 262.126 223.349 264.496 223.349C266.889 223.349 268.848 222.392 270.375 220.478C271.924 218.563 272.699 215.932 272.699 212.582C272.699 209.21 271.924 206.578 270.375 204.687C268.848 202.772 266.889 201.815 264.496 201.815C262.126 201.815 260.178 202.761 258.651 204.652ZM285.004 194.945H293.754L301.957 217.06L309.647 194.945H318.329L300.146 244.506H291.737L297.821 227.963L285.004 194.945ZM323.832 230.219V194.945H332.924L340.922 215.248L348.886 194.945H357.978V230.219H349.296V212.582L343.93 227.006H337.88L332.514 212.582V230.219H323.832ZM64.2031 281.386V275.644L85.8389 260.399V269.354L72.8848 278.515L85.8389 287.675V296.664L64.2031 281.386ZM85.2236 281.386V275.644L106.825 260.399V269.354L93.8711 278.515L106.825 287.675V296.664L85.2236 281.386ZM115.951 300.219V264.945H144.867V300.219H136.186V272.362H124.633V300.219H115.951ZM157.89 295.639C154.677 292.198 153.07 287.846 153.07 282.582C153.07 277.296 154.677 272.943 157.89 269.525C161.125 266.085 165.489 264.364 170.98 264.364C176.495 264.364 180.858 266.085 184.071 269.525C187.307 272.943 188.925 277.296 188.925 282.582C188.925 287.846 187.307 292.198 184.071 295.639C180.858 299.057 176.495 300.766 170.98 300.766C165.489 300.766 161.125 299.057 157.89 295.639ZM164.555 274.926C162.96 276.999 162.162 279.551 162.162 282.582C162.162 285.613 162.96 288.165 164.555 290.238C166.15 292.312 168.292 293.349 170.98 293.349C173.692 293.349 175.834 292.312 177.406 290.238C179.001 288.165 179.799 285.613 179.799 282.582C179.799 279.551 179.001 276.999 177.406 274.926C175.834 272.852 173.692 271.815 170.98 271.815C168.292 271.815 166.15 272.852 164.555 274.926ZM199.384 295.604C196.399 292.141 194.906 287.8 194.906 282.582C194.906 277.364 196.399 273.023 199.384 269.56C202.369 266.096 206.618 264.364 212.133 264.364C220.108 264.364 225.451 267.725 228.163 274.447L220.404 277.592C218.49 273.718 215.733 271.793 212.133 271.815C209.467 271.815 207.439 272.807 206.049 274.789C204.682 276.771 203.998 279.369 203.998 282.582C203.998 285.795 204.682 288.393 206.049 290.375C207.439 292.357 209.467 293.349 212.133 293.349C215.733 293.349 218.49 291.412 220.404 287.538L228.163 290.683C225.451 297.405 220.108 300.766 212.133 300.766C206.618 300.766 202.369 299.045 199.384 295.604ZM232.538 300.219V292.802C234.589 292.802 236.104 292.426 237.084 291.674C238.087 290.922 238.679 289.646 238.861 287.846L241.151 264.945H266.854V300.219H258.173V272.362H249.218L247.099 290.99C246.871 293.041 246.369 294.704 245.595 295.98C244.843 297.257 243.749 298.202 242.313 298.817C240.901 299.433 239.488 299.82 238.075 299.979C236.662 300.139 234.817 300.219 232.538 300.219ZM275.844 288.974C275.206 286.9 274.887 284.77 274.887 282.582C274.887 280.395 275.206 278.264 275.844 276.19C276.505 274.094 277.473 272.157 278.749 270.38C280.048 268.58 281.825 267.133 284.081 266.039C286.36 264.923 288.946 264.364 291.84 264.364C294.643 264.364 297.138 264.911 299.325 266.005C301.513 267.076 303.233 268.489 304.486 270.243C305.762 271.975 306.708 273.832 307.323 275.814C307.961 277.797 308.28 279.791 308.28 281.796V285.385H283.979C284.07 287.527 284.844 289.395 286.303 290.99C287.784 292.562 289.789 293.349 292.318 293.349C295.919 293.349 298.767 291.537 300.863 287.914L307.87 290.478C304.885 297.336 299.542 300.766 291.84 300.766C288.946 300.766 286.36 300.219 284.081 299.125C281.825 298.031 280.048 296.584 278.749 294.784C277.473 292.984 276.505 291.047 275.844 288.974ZM284.184 278.515H299.394C298.414 274.026 295.896 271.793 291.84 271.815C289.789 271.815 288.08 272.465 286.713 273.764C285.346 275.062 284.503 276.646 284.184 278.515ZM332.89 269.149V259.613L347.245 251.205H351.107V300.219H342.289V263.544L332.89 269.149ZM360.097 286.649L368.539 285.521C369.701 290.284 372.344 292.665 376.469 292.665C378.747 292.665 380.604 291.924 382.04 290.443C383.498 288.939 384.228 286.946 384.228 284.462C384.228 281.705 383.51 279.586 382.074 278.104C380.661 276.601 378.816 275.849 376.537 275.849C375.033 275.849 373.609 276.202 372.265 276.908L368.778 272.021L378.007 259.34H362.387V251.205H390.482V254.315L378.93 269.901C379.773 269.81 380.422 269.765 380.878 269.765C384.615 269.765 387.577 271.109 389.765 273.798C391.952 276.487 393.046 279.996 393.046 284.325C393.046 289.315 391.485 293.303 388.363 296.288C385.242 299.273 381.277 300.766 376.469 300.766C371.98 300.766 368.231 299.455 365.224 296.835C362.216 294.192 360.507 290.797 360.097 286.649ZM66.7324 370.219V334.945H95.6484V370.219H86.9668V342.362H75.4141V370.219H66.7324ZM105.219 384.506V334.945H113.9V338.568C114.47 337.543 115.53 336.586 117.079 335.697C118.651 334.809 120.44 334.364 122.445 334.364C127.618 334.364 131.594 336.016 134.374 339.32C137.154 342.602 138.544 347.022 138.544 352.582C138.544 358.142 137.154 362.562 134.374 365.844C131.594 369.125 127.618 370.766 122.445 370.766C120.714 370.766 119.05 370.401 117.455 369.672C115.883 368.92 114.698 368.031 113.9 367.006V384.506H105.219ZM115.37 344.652C113.866 346.521 113.114 349.164 113.114 352.582C113.114 355.977 113.866 358.62 115.37 360.512C116.897 362.403 118.845 363.349 121.215 363.349C123.607 363.349 125.567 362.392 127.094 360.478C128.643 358.563 129.418 355.932 129.418 352.582C129.418 349.21 128.643 346.578 127.094 344.687C125.567 342.772 123.607 341.815 121.215 341.815C118.845 341.815 116.897 342.761 115.37 344.652ZM146.576 370.219V334.945H155.258V356.718L167.357 334.945H176.825V370.219H168.144V348.446L156.01 370.219H146.576ZM186.361 370.219V334.945H195.453L203.451 355.248L211.415 334.945H220.507V370.219H211.825V352.582L206.459 367.006H200.409L195.043 352.582V370.219H186.361ZM229.018 358.974C228.38 356.9 228.061 354.77 228.061 352.582C228.061 350.395 228.38 348.264 229.018 346.19C229.678 344.094 230.647 342.157 231.923 340.38C233.222 338.58 234.999 337.133 237.255 336.039C239.534 334.923 242.12 334.364 245.014 334.364C247.816 334.364 250.312 334.911 252.499 336.005C254.687 337.076 256.407 338.489 257.66 340.243C258.936 341.975 259.882 343.832 260.497 345.814C261.135 347.797 261.454 349.791 261.454 351.796V355.385H237.152C237.243 357.527 238.018 359.395 239.477 360.99C240.958 362.562 242.963 363.349 245.492 363.349C249.092 363.349 251.941 361.537 254.037 357.914L261.044 360.478C258.059 367.336 252.715 370.766 245.014 370.766C242.12 370.766 239.534 370.219 237.255 369.125C234.999 368.031 233.222 366.584 231.923 364.784C230.647 362.984 229.678 361.047 229.018 358.974ZM237.357 348.515H252.567C251.588 344.026 249.07 341.793 245.014 341.815C242.963 341.815 241.254 342.465 239.887 343.764C238.52 345.062 237.676 346.646 237.357 348.515ZM265.829 342.362V334.945H293.412V342.362H283.979V370.219H275.297V342.362H265.829ZM299.086 366.664V357.675L312.04 348.515L299.086 339.354V330.399L320.722 345.644V351.386L299.086 366.664ZM320.106 366.664V357.675L333.061 348.515L320.106 339.354V330.399L341.742 345.644V351.386L320.106 366.664Z" fill="white"/>
</svg>
