<svg width="353" height="380" viewBox="0 0 353 380" fill="none" xmlns="http://www.w3.org/2000/svg">
<g clip-path="url(#clip0)">
<path d="M0.0995851 240.771C0.299585 229.071 -0.400415 217.371 0.299585 205.771C0.999585 193.971 4.89959 183.171 10.2996 172.971C16.5996 161.171 24.7996 151.071 34.3996 142.471C36.9996 140.171 38.1996 137.771 38.2996 134.171C38.6996 123.871 39.2996 113.671 39.9996 103.371C40.4996 96.4711 41.2996 89.5711 41.8996 82.7711C42.4996 76.2711 42.9996 69.7711 43.7996 63.2711C44.9996 53.4711 49.3996 45.4711 55.7996 38.7711C64.7996 29.1711 75.6996 22.7711 87.2996 17.7711C101.1 11.7711 115.4 7.87113 130 5.27113C141.7 3.17113 153.4 1.87113 165.2 1.47113C171.2 1.27113 177.2 1.07113 183.2 1.17113C195.1 1.27113 207 2.27113 218.9 3.77113C234.2 5.77113 249.4 8.97113 264.2 13.8711C278.2 18.4711 291.7 24.2711 304.1 32.7711C312.4 38.4711 319.6 45.2711 325.1 54.1711C330 62.1711 331.7 70.8711 329.9 80.4711C329 85.4711 329.1 90.6711 328.7 95.7711C327.5 109.971 326.3 124.071 325.1 138.171C325 139.771 324.6 141.471 324.7 143.071C324.8 144.071 325.4 145.171 326 145.971C333.3 153.971 339.6 162.771 344.3 172.971C350.7 186.871 353.2 201.471 351.6 216.871C350.4 229.171 350.4 241.471 350.4 253.771C350.4 259.771 350.4 265.971 349.3 271.771C347.1 283.071 343.1 293.671 337.2 303.371C329.2 316.671 318.9 327.471 307.2 336.771C288.7 351.371 268 361.071 246.2 367.971C228.9 373.371 211.3 376.571 193.4 378.271C176.6 379.871 159.9 379.571 143.2 377.771C117.2 374.971 91.9996 368.571 68.1996 356.571C64.1996 354.571 60.0996 352.871 56.3996 350.371C47.3996 344.371 38.4996 338.071 30.5996 330.271C23.0996 322.871 16.4996 314.771 11.2996 305.371C9.39959 301.971 7.89959 298.471 6.29959 294.871C4.79959 291.571 3.19958 288.271 2.29959 284.771C0.399585 277.571 0.0995851 270.171 0.0995851 262.671C0.0995851 255.471 0.0995851 248.171 0.0995851 240.771C-0.0004149 240.771 0.299585 240.771 0.0995851 240.771ZM45.6996 76.5711C45.5996 77.1711 45.3996 77.5711 45.3996 77.9711C44.7996 85.2711 44.0996 92.4711 43.5996 99.7711C42.7996 111.071 42.1996 122.271 41.5996 133.571C40.7996 147.871 40.0996 162.171 39.3996 176.571C39.0996 183.271 38.6996 189.971 38.3996 196.671C38.1996 201.071 37.3996 205.471 38.7996 209.871C40.9996 217.071 44.8996 222.971 49.8996 228.071C59.2996 237.871 70.3996 244.471 82.1996 249.871C95.2996 255.871 108.9 260.071 122.7 263.171C139.3 266.871 156.1 269.071 173.1 269.771C195.8 270.671 218.4 269.271 240.7 264.671C255.6 261.571 270.2 257.171 283.9 250.071C290.7 246.571 297.5 242.871 302.9 237.071C307 232.671 310.6 227.771 314.4 223.071C317.3 219.571 318.6 215.371 318.8 210.771C319.2 198.671 319.8 186.571 320 174.471C320.3 157.571 321.5 140.771 323.3 123.971C324.4 113.971 324.9 103.871 325.7 93.7711C325.7 93.1711 325.6 92.5711 325.6 91.5711C325 92.2711 324.8 92.5711 324.5 92.8711C322.1 95.7711 320 98.8711 317.4 101.471C309 110.071 299 115.771 288.4 120.471C264.2 131.071 238.8 135.471 212.9 137.071C199.8 137.871 186.6 137.971 173.5 136.771C163.8 135.771 154 134.771 144.4 133.171C131.6 131.171 118.9 127.871 106.6 123.471C94.3996 119.171 82.5996 113.871 71.5996 106.371C63.5996 100.871 56.2996 94.5711 50.7996 86.0711C48.9996 83.0711 47.4996 79.8711 45.6996 76.5711ZM173.1 4.47113C161.4 4.47113 143.2 6.07113 125.1 9.77113C108.9 13.0711 93.0996 17.8711 78.2996 25.8711C69.6996 30.5711 61.6996 36.1711 55.3996 44.2711C46.7996 55.2711 44.5996 68.9711 52.0996 81.9711C57.2996 90.9711 64.4996 97.3711 72.5996 102.971C86.7996 112.771 102.4 118.971 118.6 123.571C133 127.771 147.5 130.771 162.4 132.071C174 133.071 185.6 133.971 197.3 134.071C216 134.171 234.5 132.271 252.8 128.271C267.7 124.971 282.3 120.371 296 113.071C305 108.271 313.4 102.371 319.9 93.9711C324 88.6711 327 82.8711 326.8 75.5711C326.7 70.7711 327 66.0711 325.2 61.4711C322.5 54.8711 318.4 49.2711 313.4 44.6711C304.6 36.4711 294.6 30.1711 283.9 25.2711C265.5 16.7711 246.2 11.5711 226.4 8.37113C211 5.67113 195.5 4.47113 173.1 4.47113ZM324.4 149.071C324.3 150.071 324.2 150.671 324.2 151.271C323.9 157.471 323.6 163.671 323.4 169.871C323.1 182.471 322.7 194.971 322.8 207.571C322.9 213.571 321.5 218.771 318.7 223.771C313.3 233.171 305.8 240.271 297.3 246.071C282 256.571 265.1 262.471 247.6 266.571C233.4 269.971 219.1 271.871 204.6 272.771C185.4 274.071 166.3 273.371 147.3 270.971C135 269.471 122.8 266.971 110.8 263.671C94.8996 259.171 79.4996 253.371 65.1996 244.371C56.3996 238.771 48.1996 232.271 41.9996 223.271C36.5996 215.371 33.2996 206.671 34.8996 196.471C35.1996 194.271 35.6996 192.071 35.7996 189.871C36.4996 175.271 36.9996 160.671 37.5996 146.171C37.5996 145.571 37.4996 144.871 37.3996 143.871C36.5996 144.471 36.0996 144.871 35.6996 145.271C29.9996 150.571 24.6996 156.371 19.9996 162.871C14.7996 170.171 10.3996 177.971 7.49959 186.671C4.79959 194.771 3.19959 202.971 3.19959 211.771C3.19959 219.471 3.89959 226.971 5.99959 234.271C10.0996 248.271 17.4996 260.071 26.7996 270.571C38.1996 283.371 51.8996 292.471 66.3996 300.271C80.6996 307.971 95.8996 313.271 111.5 317.171C127.6 321.171 143.9 323.571 160.4 324.171C174.5 324.671 188.7 324.671 202.8 322.471C213.2 320.871 223.6 319.171 233.9 316.771C248.3 313.471 262.3 308.271 275.8 301.771C294.8 292.471 312.2 280.571 326.5 263.771C335 253.771 341.8 242.471 345.6 229.371C350.2 213.471 350.1 197.671 344.7 181.971C340.6 169.971 334 159.771 326 150.571C325.7 150.071 325.2 149.771 324.4 149.071ZM3.89959 237.871C3.79959 237.871 3.69958 237.871 3.59959 237.871C3.49959 238.371 3.39959 238.771 3.39959 239.271C3.39959 248.071 3.59959 256.771 3.49959 265.571C3.49959 275.471 5.29958 284.971 8.89958 294.071C14.0996 307.171 22.0996 317.971 31.6996 327.571C41.7996 337.671 53.4996 345.071 65.5996 351.771C74.3996 356.671 83.5996 360.471 92.9996 363.671C114.6 371.071 136.7 375.171 159.2 375.971C175.4 376.571 191.7 375.971 207.8 373.571C227.2 370.671 246.1 365.771 264.4 358.071C280.7 351.271 296.1 342.471 309.9 330.671C321.2 320.971 331 309.771 338 295.971C342.6 286.971 345.7 277.471 346.3 267.171C346.8 257.471 346.7 247.671 346.9 237.871C346.9 237.571 346.7 237.271 346.6 236.871C346.4 236.971 346.2 236.971 346.2 237.071C346.1 237.271 345.9 237.471 345.9 237.671C341.3 249.371 334.6 259.371 326.5 268.371C316.8 279.271 305.7 288.071 293.6 295.471C274.8 306.971 254.7 314.871 233.7 320.071C215.8 324.471 197.7 326.871 179.4 327.471C162.9 327.971 146.5 326.871 130.1 324.271C118.6 322.471 107.3 319.771 96.1996 316.171C80.8996 311.071 65.8996 304.871 52.1996 295.771C44.0996 290.371 36.3996 284.471 29.3996 277.571C20.3996 268.771 12.8996 258.671 7.49959 246.771C6.19958 243.971 5.09959 240.871 3.89959 237.871Z" fill="black"/>
<path d="M45.701 76.5742C47.501 79.8742 48.901 83.0742 50.801 85.9742C56.201 94.5742 63.601 100.874 71.601 106.274C82.501 113.774 94.301 119.074 106.601 123.374C119.001 127.774 131.601 131.074 144.401 133.074C154.101 134.574 163.801 135.674 173.501 136.674C186.601 137.974 199.801 137.874 212.901 136.974C238.801 135.374 264.201 130.974 288.401 120.374C299.001 115.774 309.001 109.974 317.401 101.374C320.001 98.7742 322.201 95.6742 324.501 92.7742C324.801 92.4742 325.001 92.1742 325.601 91.4742C325.701 92.4742 325.801 93.0742 325.701 93.6742C324.901 103.774 324.401 113.774 323.301 123.874C321.501 140.674 320.301 157.474 320.001 174.374C319.801 186.474 319.201 198.574 318.801 210.674C318.601 215.374 317.301 219.474 314.401 222.974C310.601 227.674 307.001 232.574 302.901 236.974C297.501 242.774 290.701 246.474 283.901 249.974C270.101 257.074 255.601 261.474 240.701 264.574C218.301 269.274 195.801 270.574 173.101 269.674C156.201 268.974 139.401 266.874 122.701 263.074C108.801 259.974 95.201 255.774 82.201 249.774C70.401 244.374 59.201 237.774 49.901 227.974C45.001 222.774 41.001 216.974 38.801 209.774C37.401 205.374 38.201 200.974 38.401 196.574C38.701 189.874 39.001 183.174 39.401 176.474C40.101 162.174 40.801 147.874 41.601 133.474C42.201 122.174 42.901 110.974 43.601 99.6742C44.101 92.3742 44.801 85.1742 45.401 77.8742C45.501 77.5742 45.601 77.1742 45.701 76.5742Z" fill="white"/>
<path d="M173.099 4.47266C195.399 4.57266 210.999 5.67266 226.399 8.27266C246.199 11.4727 265.399 16.6727 283.899 25.1727C294.599 30.0727 304.499 36.3727 313.399 44.5727C318.399 49.2727 322.499 54.7727 325.199 61.3727C326.999 65.8727 326.699 70.6727 326.799 75.4727C326.999 82.7727 323.999 88.5727 319.899 93.8727C313.399 102.373 304.999 108.173 295.999 112.973C282.299 120.373 267.699 124.973 252.799 128.173C234.499 132.173 215.899 134.073 197.299 133.973C185.699 133.873 173.999 132.973 162.399 131.973C147.599 130.673 132.999 127.673 118.599 123.473C102.399 118.773 86.7995 112.673 72.5995 102.873C64.5995 97.3727 57.2995 90.8727 52.1995 81.9727C44.6995 68.8727 46.7995 55.1727 55.4995 44.1727C61.7995 36.1727 69.7995 30.4727 78.3995 25.7727C93.1995 17.7727 108.999 12.9727 125.199 9.67266C143.199 6.07266 161.499 4.47266 173.099 4.47266Z" fill="white"/>
<path d="M324.401 149.071C325.201 149.771 325.701 150.071 326.101 150.571C334.101 159.771 340.701 169.971 344.801 181.971C350.201 197.671 350.301 213.471 345.701 229.371C341.901 242.471 335.101 253.771 326.601 263.771C312.301 280.571 294.901 292.471 275.901 301.771C262.401 308.371 248.501 313.471 234.001 316.771C223.701 319.171 213.301 320.871 202.901 322.471C188.901 324.671 174.701 324.671 160.501 324.171C144.001 323.571 127.701 321.171 111.601 317.171C96.0008 313.271 80.8008 307.971 66.5008 300.271C52.0008 292.471 38.3008 283.371 26.9008 270.571C17.6008 260.071 10.2008 248.371 6.10078 234.271C4.00078 226.971 3.30078 219.471 3.30078 211.771C3.30078 203.071 4.80078 194.771 7.60078 186.671C10.6008 177.971 14.9008 170.071 20.1008 162.871C24.8008 156.371 30.0008 150.571 35.8008 145.271C36.2008 144.871 36.7008 144.571 37.5008 143.871C37.6008 144.971 37.7008 145.571 37.7008 146.171C37.1008 160.771 36.6008 175.371 35.9008 189.871C35.8008 192.071 35.3008 194.271 35.0008 196.471C33.4008 206.671 36.7008 215.371 42.1008 223.271C48.3008 232.271 56.4008 238.771 65.3008 244.371C79.6008 253.371 95.0008 259.171 110.901 263.671C122.901 267.071 135.101 269.471 147.401 270.971C166.501 273.371 185.601 274.071 204.701 272.771C219.201 271.771 233.601 269.971 247.701 266.571C265.201 262.371 282.101 256.571 297.401 246.071C305.901 240.171 313.401 233.171 318.801 223.771C321.601 218.771 323.001 213.571 322.901 207.571C322.801 194.971 323.201 182.471 323.501 169.871C323.701 163.671 324.001 157.471 324.301 151.271C324.201 150.671 324.301 150.071 324.401 149.071Z" fill="white"/>
<path d="M3.9 237.873C5.1 240.873 6.2 243.973 7.6 246.873C13 258.773 20.6 268.773 29.5 277.673C36.5 284.573 44.2 290.473 52.3 295.873C66.1 304.973 81 311.173 96.3 316.273C107.4 319.973 118.7 322.573 130.2 324.373C146.5 326.973 163 328.173 179.5 327.573C197.8 326.973 215.9 324.573 233.8 320.173C254.8 314.973 274.9 307.073 293.7 295.573C305.8 288.173 316.9 279.373 326.6 268.473C334.6 259.373 341.4 249.373 346 237.773C346.1 237.573 346.2 237.373 346.3 237.173C346.4 237.073 346.5 237.073 346.7 236.973C346.8 237.273 347 237.673 347 237.973C346.8 247.773 346.9 257.573 346.4 267.273C345.8 277.573 342.7 287.073 338.1 296.073C331.1 309.873 321.3 321.073 310 330.773C296.2 342.573 280.8 351.373 264.5 358.173C246.2 365.873 227.3 370.773 207.9 373.673C191.8 376.073 175.5 376.673 159.3 376.073C136.7 375.173 114.6 371.173 93.1 363.773C83.7 360.573 74.5 356.773 65.7 351.873C53.6 345.173 41.9 337.773 31.8 327.673C22.2 318.073 14.1 307.273 9 294.173C5.4 285.073 3.6 275.573 3.6 265.673C3.6 256.873 3.5 248.173 3.5 239.373C3.5 238.873 3.6 238.473 3.7 237.973C3.7 237.873 3.8 237.873 3.9 237.873Z" fill="white"/>
<g clip-path="url(#clip1)">
<path d="M168.858 185.83C169.865 185.83 170.441 185.83 171.016 185.83C171.16 185.83 171.448 185.686 171.448 185.83C172.599 187.124 174.613 187.843 174.9 189.713C175.476 193.883 176.051 198.053 176.483 202.223C176.914 206.249 177.202 210.419 177.634 214.445C178.065 219.478 178.641 224.511 178.928 229.688C179.072 232.276 178.928 234.865 178.928 237.453C179.216 237.453 179.36 237.453 179.648 237.597C180.223 236.159 180.942 234.865 181.374 233.283C182.237 230.263 182.813 227.243 183.82 224.224C184.827 221.204 185.978 218.328 187.129 215.308C187.992 213.008 188.999 210.563 189.862 208.262C192.595 200.929 195.185 193.451 198.062 186.118C198.637 184.536 199.645 182.81 201.515 182.379C202.666 183.673 203.816 184.68 204.536 185.974C205.111 186.837 205.255 188.131 205.399 189.137C205.687 190.575 205.831 192.013 205.831 193.451C205.974 196.471 206.118 199.491 206.406 202.51C206.694 206.249 207.269 209.988 207.557 213.726C207.845 217.321 207.701 220.772 207.845 224.367C207.988 228.106 207.988 231.845 208.276 235.584C208.42 239.035 208.852 242.486 209.139 245.793C209.283 246.943 209.571 248.238 209.715 249.388C209.715 250.251 209.859 251.257 209.427 251.689C208.852 252.264 207.701 252.264 206.838 252.551C206.406 252.695 205.974 252.551 205.543 252.695C204.104 253.127 202.666 252.264 202.666 250.826C202.09 244.067 201.515 237.165 200.939 230.407C200.508 225.374 200.22 220.197 199.932 215.164C199.788 212.576 199.788 209.988 199.645 207.399C199.645 207.112 199.501 206.824 199.069 205.961C197.918 209.7 197.055 213.008 195.76 216.315C194.465 219.622 192.883 222.929 191.588 226.237C190.006 230.119 188.711 234.002 187.272 237.884C185.978 241.335 184.827 244.93 183.532 248.381C183.244 249.1 182.381 249.532 182.093 250.251C181.518 251.257 181.086 252.264 180.943 253.414C180.655 255.715 179.935 256.29 177.49 256.29C177.058 256.29 176.627 256.29 176.339 256.434C174.613 256.865 173.174 256.146 173.03 254.277C172.599 249.963 172.311 245.505 171.879 241.048C171.448 236.734 171.016 232.42 170.728 228.106C170.584 226.524 170.872 225.086 170.872 223.505C170.872 219.191 171.016 214.733 170.584 210.419C170.297 206.968 169.146 203.373 169.002 199.922C169.002 197.621 168.283 195.464 168.139 193.164C167.995 191.15 168.283 188.994 168.427 186.98C168.57 186.261 168.858 185.974 168.858 185.83Z" fill="black"/>
<path d="M312.001 222.211C310.563 222.786 309.412 223.217 308.261 223.649C306.535 224.368 305.528 223.936 305.384 222.211C304.521 216.89 303.945 211.57 303.226 206.249C302.938 204.38 302.794 202.367 302.65 200.498C302.506 200.498 302.219 200.498 302.075 200.354C299.917 208.263 297.759 216.171 295.601 223.936C295.026 225.95 294.738 228.106 294.306 230.12C294.019 232.277 292.148 232.708 290.566 233.427C289.991 233.715 289.559 233.858 288.84 234.146C286.538 232.852 287.113 230.407 286.969 228.394C286.682 224.224 286.394 220.054 285.531 215.884C284.524 210.707 283.661 205.53 282.654 200.354C281.79 196.04 280.927 191.87 280.064 187.556C279.776 185.83 279.489 183.961 279.201 182.092C278.913 180.51 278.338 178.784 277.762 177.203C277.618 176.771 277.043 176.627 276.899 176.34C276.18 174.327 275.461 172.17 274.885 170.157C274.741 169.725 275.604 169.006 276.18 168.575C276.611 168.287 277.331 168.287 277.906 168.431C278.769 168.719 279.776 169.006 280.783 169.294C283.661 175.189 285.962 181.516 287.545 187.987C289.271 194.746 291.861 201.36 292.005 208.406C292.148 208.406 292.436 208.406 292.58 208.406C293.155 206.681 293.875 204.811 294.306 203.086C295.601 198.197 297.184 193.452 298.047 188.562C299.342 181.948 300.061 175.189 301.068 168.431C301.356 166.274 301.499 164.117 301.931 162.104C302.219 160.954 303.801 160.522 304.808 161.097C305.528 161.529 306.391 161.96 307.11 162.535C307.542 162.967 308.117 163.686 308.117 164.261C308.405 167.712 308.549 171.163 308.693 174.614C308.836 178.353 309.124 182.092 309.124 185.83C309.268 188.994 309.124 192.014 309.268 195.177C309.412 198.341 309.7 201.36 310.131 204.524C310.563 208.55 310.994 212.433 311.426 216.459C311.426 218.616 311.714 220.485 312.001 222.211Z" fill="black"/>
<path d="M71.3196 152.039C72.1828 152.758 72.9021 153.477 73.9091 153.908C75.9232 155.059 75.2038 156.928 75.06 158.51C74.7723 160.523 74.053 162.392 73.6214 164.405C73.0459 166.706 72.6143 169.151 72.1828 171.451C71.895 172.889 72.1828 174.471 72.0389 175.909C71.7512 177.922 70.888 179.935 71.1757 181.805C71.4634 183.962 70.6003 185.687 70.4564 187.556C70.4564 189.426 70.3126 191.439 70.0248 193.308C69.881 195.178 69.3055 197.047 69.1617 198.916C69.0178 202.367 68.8739 205.819 69.0178 209.126C69.1617 214.734 69.5932 220.486 67.723 225.95C67.2915 227.388 66.716 228.251 64.9897 228.107C64.4142 228.107 63.9826 228.107 63.4072 228.251C61.2493 228.538 60.9616 228.538 60.9616 226.525C60.8177 223.074 60.9616 219.479 61.2493 216.028C61.2493 215.022 62.2563 213.871 61.9686 212.865C61.3931 210.851 61.8247 208.838 61.9686 206.825C62.1124 203.949 62.6879 201.217 62.9756 198.341C63.2633 195.609 63.4072 192.733 63.6949 190.001C63.6949 189.282 63.8388 188.563 63.9826 187.413C62.9756 187.844 62.1124 188.132 61.3931 188.419C59.8107 188.994 58.2282 189.857 56.358 188.994C55.4948 188.563 55.2071 189.138 55.0632 190.001C54.7755 193.883 54.4878 197.766 54.2001 201.648C53.9123 206.25 53.4808 210.995 53.193 215.597C53.0492 216.891 52.7614 217.897 51.0351 217.897C50.0281 217.897 49.1649 218.329 48.1579 218.329C46.7193 218.329 45.8561 217.754 45.9999 216.316C46.4315 212.289 46.7193 208.119 47.007 204.093C47.1508 201.217 47.2947 198.485 47.4386 195.609C47.5824 193.165 48.014 190.864 48.3017 188.419C48.7333 184.824 49.021 181.229 49.5965 177.635C50.1719 173.896 51.0351 170.301 51.6106 166.562C52.0421 163.111 52.186 159.66 52.6176 156.209C52.9053 153.189 53.4808 150.313 53.9123 147.437C53.9123 147.006 53.9123 146.575 53.9123 146.287C56.2141 144.561 57.9405 145.856 59.5229 147.006C59.8107 147.294 60.0984 148.156 59.9545 148.444C59.0914 150.313 59.5229 152.326 59.3791 154.196C59.3791 154.483 59.3791 154.771 59.3791 155.059C58.9475 157.647 58.8036 160.379 58.2282 163.111C57.7966 165.124 57.5089 167.137 57.0773 169.151C56.6457 171.451 56.7896 173.896 56.6457 176.197C56.6457 176.772 56.6457 177.347 56.358 177.922C55.6387 180.223 56.2141 182.092 57.9405 184.105C60.2422 182.092 61.3931 179.504 62.4002 176.916C63.4072 174.471 64.2704 171.883 64.9897 169.438C65.9967 165.699 66.8599 161.961 67.5792 158.078C67.8669 156.928 68.0108 155.777 68.1546 154.627C68.5862 153.045 69.4494 152.039 71.3196 152.039Z" fill="black"/>
<path d="M267.691 211.713C265.101 212.863 262.799 214.014 260.354 215.02C260.066 215.164 259.778 215.452 259.634 215.308C257.189 214.589 258.052 216.602 258.052 217.321C258.052 219.478 258.339 221.491 258.483 223.648C258.771 226.812 258.771 230.119 259.203 233.282C259.49 236.733 260.21 240.041 260.497 243.492C260.497 243.923 260.066 244.642 259.634 244.93C258.915 245.505 257.908 245.793 257.189 246.368C255.606 247.374 254.168 246.799 253.736 244.93C253.448 243.204 253.017 241.479 252.729 239.609C252.297 236.446 252.01 233.426 251.722 230.263C251.434 227.099 251.146 223.936 251.003 220.772C251.003 219.622 251.29 218.615 251.29 217.465C251.29 217.033 250.859 216.602 250.859 216.171C250.859 213.438 250.859 210.706 250.859 207.974C250.859 205.673 250.715 203.373 250.715 201.216C250.715 200.353 250.859 199.346 251.003 198.484C251.578 192.3 252.153 186.117 252.873 180.078C253.16 178.352 253.88 176.77 254.743 175.189C255.462 173.894 256.613 173.894 257.908 174.47C259.347 175.189 260.21 176.339 260.929 177.633C262.655 180.509 264.526 183.097 266.252 185.973C267.834 188.706 269.129 191.581 270.712 194.314C272.294 197.046 272.87 200.065 273.589 203.085C274.164 205.386 275.459 207.687 276.178 209.987C277.042 212.863 277.473 215.883 278.049 218.759C278.768 222.498 279.487 226.236 280.35 229.831C280.782 231.844 281.357 233.858 281.789 235.871C281.933 237.165 281.357 238.171 280.063 238.747C279.199 239.034 278.049 239.178 277.329 239.609C276.178 240.472 276.034 239.609 275.747 239.034C274.74 235.727 273.733 232.563 272.87 229.256C272.006 226.093 271.143 222.929 270.28 219.622C269.705 217.752 269.273 215.739 268.698 213.87C268.41 213.438 268.122 212.719 267.691 211.713ZM266.108 205.53C265.82 201.503 260.641 188.418 258.483 187.124C258.483 194.026 258.483 200.641 258.483 207.399C261.073 206.824 263.519 206.249 266.108 205.53Z" fill="black"/>
<path d="M111.026 176.917C109.299 187.702 110.307 198.774 110.594 209.846C111.601 207.546 112.608 205.389 113.471 203.088C114.91 199.493 116.349 195.754 117.787 192.016C118.65 189.859 119.226 187.558 120.233 185.545C120.808 184.538 121.959 183.675 122.679 182.956C123.686 183.532 124.405 183.819 125.268 184.394C126.275 184.969 127.282 185.688 126.851 186.983C125.987 189.859 125.124 192.591 124.117 195.467C123.398 197.767 122.535 200.068 121.528 202.225C119.945 205.82 118.075 209.415 116.493 213.154C116.205 213.873 115.773 214.592 115.629 215.167C117.356 216.605 119.082 217.755 120.233 219.337C122.535 222.644 125.556 225.664 126.563 229.834C127.138 232.135 128.289 234.148 129.008 236.449C129.44 237.599 129.44 239.037 129.584 240.187C129.728 240.906 129.728 241.769 129.728 242.488C130.016 244.789 130.447 246.946 130.735 249.246C130.735 249.822 130.447 250.253 130.303 250.972C129.296 251.403 128.001 251.835 126.851 252.266C125.124 252.841 124.261 252.41 123.973 250.684C123.686 248.24 123.542 245.795 123.254 243.351C122.966 240.762 122.535 238.318 121.384 236.017C120.808 234.867 120.952 233.429 120.521 232.278C119.801 230.553 118.65 229.115 117.931 227.389C116.924 224.945 115.054 223.075 112.896 221.638C112.608 221.35 111.314 221.781 111.17 222.069C110.738 223.651 110.45 225.376 110.307 226.958C110.163 228.971 110.163 231.128 110.163 233.285C110.306 236.592 110.594 239.9 110.738 243.207C110.738 244.214 110.738 245.22 110.594 246.227C110.594 246.658 110.163 247.089 109.875 247.233C108.58 247.665 107.285 248.24 105.991 248.096C105.415 248.096 104.408 246.802 104.264 246.083C103.833 242.344 103.689 238.605 103.545 235.011C103.257 231.128 102.97 227.246 102.826 223.363C102.682 219.768 102.682 216.173 102.682 212.578C102.682 207.977 102.394 203.519 102.826 198.918C103.257 195.035 102.682 191.153 103.401 187.27C103.833 184.682 103.689 182.094 104.12 179.505C104.408 177.923 104.984 176.342 105.559 174.904C105.991 174.041 108.436 174.329 109.299 175.191C109.587 175.91 110.307 176.342 111.026 176.917Z" fill="black"/>
<path d="M234.891 180.223C235.898 180.366 236.473 180.51 236.905 180.51C238.631 180.51 240.358 182.092 240.358 183.818C240.358 183.961 240.358 184.105 240.358 184.105C238.488 186.262 238.2 189.138 236.905 191.726C234.316 197.047 232.445 202.655 230 207.975C228.417 211.283 227.842 214.878 226.835 218.329C226.547 219.479 226.259 220.773 227.986 221.348C228.273 221.492 228.561 221.924 228.705 222.355C228.993 223.649 230.144 224.368 231.151 225.375C233.309 227.532 235.179 229.976 237.049 232.421C238.919 234.721 240.645 237.166 242.228 239.61C242.947 240.617 243.235 241.911 243.667 243.062C244.386 244.787 244.961 246.513 246.112 248.094C247.119 249.389 246.256 250.108 245.681 250.827C245.105 251.546 244.242 252.408 243.235 252.552C242.372 252.696 241.365 251.977 240.645 251.402C240.07 251.114 239.782 250.395 239.495 249.82C237.049 245.506 234.747 240.905 231.87 236.735C230 234.002 227.41 231.702 224.965 228.97C223.958 232.421 223.814 235.728 224.101 239.035C224.389 242.486 224.677 245.938 224.965 249.532C225.108 250.97 225.108 252.408 225.108 253.703C225.108 253.99 224.821 254.565 224.389 254.709C223.094 255.14 221.8 255.428 220.649 255.859C218.922 255.14 218.491 253.703 218.347 251.977C218.203 250.251 218.059 248.526 217.915 246.944C217.34 242.343 216.764 237.741 216.333 232.996C215.901 228.97 215.757 224.799 215.47 220.773C215.326 219.767 215.038 218.76 215.038 217.753C215.038 217.466 215.47 217.034 215.757 216.603C214.894 216.316 215.326 215.453 215.182 214.59C214.894 212.433 214.463 210.276 214.319 208.119C214.175 206.106 214.175 203.949 214.031 201.936C214.031 201.217 213.599 200.642 213.599 199.923C213.312 195.753 212.88 191.439 212.736 187.269C212.736 186.406 213.456 185.256 214.175 184.537C215.182 183.53 216.477 184.537 216.764 185.687C217.771 186.55 218.635 186.981 218.779 187.556C219.066 188.563 218.922 189.713 218.922 190.864C219.066 192.589 219.21 194.315 219.354 196.04C219.642 198.197 219.786 200.498 220.073 202.655C220.361 205.675 220.793 208.694 221.368 211.714C225.684 200.929 229.137 190.145 234.891 180.223Z" fill="black"/>
<path d="M138.071 256.145C137.927 254.995 137.783 253.557 137.639 252.263C137.352 249.818 136.776 247.517 136.632 245.073C136.488 242.916 136.632 240.759 136.632 238.602C136.632 236.301 136.776 234.001 136.776 231.7C136.92 228.824 136.92 225.804 137.064 222.928C137.208 219.621 137.352 216.17 137.927 213.006C138.503 209.699 138.359 206.248 139.51 202.941C140.66 199.633 140.804 195.895 141.811 192.587C142.674 189.999 143.969 187.411 145.408 184.966C145.839 184.103 146.846 183.097 148.285 183.816C148.573 183.959 148.717 184.247 148.861 184.535C149.004 184.678 149.004 184.966 149.004 185.11C149.292 184.966 149.436 184.822 149.868 184.535C150.155 184.966 150.443 185.397 150.587 185.829C151.594 187.842 152.601 189.999 153.608 192.012C153.896 192.587 154.04 193.306 154.327 194.025C155.334 195.895 156.341 197.764 157.205 199.489C157.636 200.208 157.78 201.215 158.068 201.934C158.787 203.947 159.794 205.96 160.369 208.117C161.233 211.137 161.808 214.3 162.384 217.464C163.391 221.922 164.398 226.379 165.405 230.837C166.124 234.288 166.987 237.739 167.275 241.19C167.706 244.785 167.706 248.38 167.85 251.975C167.994 254.707 167.419 255.282 164.541 254.995C164.398 254.995 164.11 255.139 163.966 255.282C162.527 256.433 161.808 256.289 161.52 254.707C161.089 252.55 160.801 250.25 160.801 247.949C160.945 243.635 159.794 239.609 159.075 235.438C158.355 231.268 157.492 227.098 156.629 222.928C155.91 219.621 155.334 216.314 154.471 213.15C153.608 209.699 152.457 206.248 151.306 202.797C150.875 201.359 150.155 200.065 149.436 198.77C149.292 198.483 148.717 198.339 148.429 198.051C148.141 198.483 147.853 198.77 147.71 199.202C147.134 202.509 146.415 205.816 145.983 209.124C145.408 212.862 144.832 216.601 144.545 220.34C144.113 225.085 143.969 229.974 143.825 234.72C143.682 238.171 143.538 241.766 143.682 245.217C143.825 247.949 144.257 250.537 144.689 253.125C145.12 256.001 142.674 257.583 139.797 256.577C139.222 256.433 138.79 256.289 138.071 256.145Z" fill="black"/>
<path d="M93.1857 240.328C91.4593 239.753 91.1716 238.459 91.1716 236.877C91.3155 235.008 91.0277 233.282 90.8839 231.413C90.74 228.969 90.74 226.524 90.74 223.936C90.74 220.916 90.74 217.896 90.5962 214.877C90.5962 214.589 90.4523 214.158 90.1646 214.014C87.7189 212.72 85.8487 210.563 82.8276 210.419C82.1083 210.419 81.389 209.987 80.5259 209.7C80.2381 211.425 79.9504 213.295 79.8065 215.164C79.5188 218.328 79.375 221.491 78.9434 224.655C78.7995 225.374 78.7995 225.949 78.7995 226.812C78.9434 229.112 78.7995 231.413 78.6557 233.714C78.6557 234.577 78.0802 235.152 76.7855 234.72C76.21 234.433 75.3468 234.72 74.6275 234.72C72.7573 234.577 72.038 234.001 72.1819 232.276C72.3257 226.955 72.4696 221.635 72.9012 216.314C73.3328 211.425 73.7644 206.393 74.6275 201.503C75.6346 195.895 77.0732 190.431 78.6557 184.967C79.375 182.379 80.8136 180.078 81.9645 177.49C82.6838 175.62 83.2592 173.751 84.1224 171.881C84.554 171.019 85.2733 170.156 86.1365 169.581C87.1435 169.006 87.8628 170.156 88.726 170.443C90.8839 171.162 90.8839 172.744 91.1716 174.47C91.6032 176.627 92.3225 178.64 92.8979 180.653C93.7611 183.817 94.7682 187.124 95.1997 190.431C95.919 196.758 96.3506 203.085 96.9261 209.412C97.2138 212.576 97.5015 215.739 97.5015 219.047C97.5015 222.498 97.2138 225.949 97.3577 229.544C97.3577 231.844 97.7892 234.289 98.2208 236.59C98.6524 238.747 97.5015 240.041 95.1997 240.185C94.3366 239.753 93.7611 240.185 93.1857 240.328ZM87.1435 182.379C86.9996 182.379 86.8558 182.235 86.568 182.235C86.2803 182.954 85.8487 183.673 85.7049 184.392C85.4171 185.686 85.2733 186.98 84.6978 188.13C82.9715 192.444 82.1083 196.902 81.6767 201.503C81.5329 202.51 81.8206 202.798 82.6838 203.229C84.4101 204.092 85.9926 205.242 87.5751 206.105C88.1505 206.393 88.8698 206.68 89.733 207.112C89.8769 198.628 88.726 190.431 87.1435 182.379Z" fill="black"/>
<path d="M169.002 304.03C171.017 306.762 172.887 308.919 174.613 311.364C175.332 312.37 175.764 313.664 175.908 314.958C176.052 315.39 175.476 316.253 174.901 316.54C174.038 316.972 172.887 316.972 172.024 317.115C171.88 317.115 171.736 316.972 171.736 316.972C172.311 315.246 169.578 315.534 169.578 313.808C169.578 312.945 167.852 312.083 166.988 311.076C165.406 309.207 163.823 307.337 162.241 305.468C161.666 304.749 161.09 304.03 160.946 303.167C160.658 302.161 160.515 300.866 160.946 299.86C161.234 298.853 162.097 298.422 163.536 298.278C165.838 298.278 168.283 297.703 170.441 296.984C171.736 296.553 172.743 295.258 173.606 294.108C176.627 290.369 179.648 286.487 182.669 282.604C183.389 281.598 184.396 280.879 185.115 280.016C186.554 278.578 187.704 278.578 189.287 280.016C190.006 280.591 191.157 280.879 191.733 281.454C192.74 282.604 193.603 284.042 194.322 285.336C196.192 288.356 198.206 291.232 199.789 294.252C200.22 295.115 200.796 295.258 201.371 295.115C203.529 294.971 205.831 294.827 207.989 294.683C208.852 294.683 209.859 294.683 210.435 294.683C210.866 295.977 211.154 297.128 211.729 297.991C212.449 299.141 212.161 300.004 211.154 300.435C210.003 300.866 209.715 301.729 209.284 302.736C207.557 306.331 205.831 309.926 203.817 313.377C203.529 313.808 202.666 314.096 202.091 314.24C200.94 314.24 197.919 311.939 197.919 310.932C197.919 309.926 198.35 308.775 198.782 307.769C199.357 306.475 200.077 305.324 200.652 304.03C201.084 303.023 200.652 302.448 199.645 302.448C197.919 302.448 196.336 302.592 194.61 302.592C188.568 302.88 182.525 303.023 176.627 303.311C176.196 303.311 175.476 303.742 175.189 304.03C174.038 305.18 172.743 305.324 171.448 304.318C170.729 304.174 169.866 304.174 169.002 304.03ZM188.999 285.768C186.122 289.65 183.532 292.958 180.943 296.409C180.943 296.553 181.087 296.84 181.087 296.984C185.834 296.696 190.582 296.553 195.761 296.265C193.315 292.67 191.301 289.363 188.999 285.768Z" fill="black"/>
<path d="M131.741 285.479C134.618 285.623 137.207 285.767 139.653 285.911C142.53 286.198 145.408 286.342 148.141 286.63C149.004 286.774 149.436 287.349 149.723 288.212C150.155 289.506 150.73 290.8 149.867 292.094C149.723 292.382 149.292 292.957 149.148 292.957C147.997 292.525 146.558 293.963 145.408 292.525C145.264 292.382 144.976 292.382 144.832 292.382C140.516 292.094 136.344 291.95 132.028 291.663C131.021 291.663 129.87 291.519 128.863 291.231C127.425 290.8 126.849 291.806 126.13 292.669C124.691 294.539 123.253 296.264 121.67 298.277C121.958 299.428 122.677 299.14 123.828 299.284C127.425 299.571 131.021 300.003 134.618 300.434C136.057 300.578 137.639 300.866 139.078 301.153C140.372 301.441 141.811 301.872 143.106 302.304C143.393 302.304 143.537 302.591 143.681 302.879C143.969 303.742 144.4 304.317 145.408 304.748C146.558 305.323 145.839 307.912 144.4 308.055C142.818 308.343 141.092 308.487 139.653 307.912C138.071 307.336 136.488 307.48 134.762 307.336C133.035 307.193 131.165 306.905 129.439 306.761C129.151 306.761 128.863 306.761 128.432 306.905C127.281 307.049 126.13 307.193 125.267 306.186C124.979 305.755 124.116 305.611 123.541 305.755C122.39 305.755 121.239 306.186 120.088 306.186C118.649 306.186 117.067 306.186 115.628 306.042C115.053 305.899 114.621 305.323 114.046 304.892C113.902 304.748 113.758 304.461 113.47 304.317C111.456 303.742 111.312 303.598 112.032 301.728C113.326 297.846 116.204 294.826 118.649 291.663C121.239 288.355 123.541 284.904 125.986 281.453C126.993 280.015 128 278.577 129.007 277.139C129.583 276.276 130.158 275.27 130.734 274.407C131.021 274.12 131.597 273.832 132.028 273.976C136.2 274.263 140.372 274.695 144.544 274.982C147.422 275.126 150.443 275.126 153.32 275.27C155.622 275.27 156.197 275.845 156.773 278.146C157.06 279.296 157.636 280.59 155.909 281.166C155.622 281.309 155.334 281.453 154.902 281.453C151.45 281.453 147.997 281.453 144.688 281.309C142.099 281.166 139.365 280.878 136.776 280.878C135.481 280.878 134.186 281.166 133.467 282.604C133.179 283.323 132.46 284.185 131.741 285.479Z" fill="black"/>
<path d="M77.2188 292.238C76.3557 292.957 75.3486 292.525 74.4855 291.807C74.3416 291.663 74.0539 291.519 73.7662 291.375C71.0328 290.369 70.7451 289.218 72.7591 287.061C76.7873 282.891 80.9592 278.865 85.419 274.982C87.1453 273.401 88.4401 271.531 90.1664 269.949C90.8857 269.231 91.605 268.655 92.4682 268.224C94.3384 267.217 96.2086 266.067 98.6542 266.642C101.244 267.217 103.833 267.793 106.423 268.368C109.156 268.799 111.746 269.087 114.479 269.662C115.486 269.806 117.068 269.518 117.356 271.244C117.5 271.531 118.076 271.675 118.219 271.675C118.507 272.682 118.795 273.544 118.795 274.263C118.795 274.982 118.939 276.133 118.507 276.564C117.932 277.139 116.637 277.283 115.774 277.139C113.328 276.564 110.882 275.701 108.293 275.126C104.984 274.407 101.531 273.832 98.2226 273.257C97.6472 273.113 96.784 273.401 96.3524 273.832C95.2015 274.839 94.3384 275.989 93.0436 277.283C95.777 277.283 97.6472 277.571 98.9419 279.296C99.0858 279.584 99.5174 279.584 99.8051 279.728C100.812 280.303 101.819 281.022 102.97 281.597C103.546 281.885 104.265 282.172 104.984 282.46C104.984 282.747 104.984 283.179 104.984 283.466C105.56 283.754 106.135 283.898 106.567 284.329C109.3 287.061 109.732 293.532 106.71 295.833C105.128 297.127 102.538 297.271 100.381 297.846C96.4963 298.709 92.612 297.415 88.8716 296.983C87.433 296.839 86.1383 295.977 84.8435 295.401C84.4119 295.258 84.1242 295.114 83.6926 294.97C82.254 294.682 80.8154 294.395 79.3768 293.963C78.5136 293.676 77.9382 292.957 77.2188 292.238ZM102.97 289.793C102.251 289.218 101.244 288.643 100.812 287.78C99.8051 285.767 97.791 285.623 96.0647 285.048C93.9068 284.185 91.7489 283.61 89.4471 282.891C89.7348 282.604 90.0225 282.316 90.4541 281.741C89.0155 282.028 87.8646 281.885 87.2892 282.46C85.2751 284.042 83.5488 285.911 81.247 287.924C82.8294 288.212 83.8365 288.499 84.9874 288.787C87.2892 289.506 89.5909 290.369 91.8927 290.944C94.1945 291.375 96.6402 291.519 98.9419 291.519C100.524 291.375 102.251 291.807 102.97 289.793Z" fill="black"/>
<path d="M258.197 273.259C258.629 275.128 259.06 276.71 259.204 278.292C259.204 280.305 259.204 282.462 258.773 284.475C258.053 288.07 256.902 291.521 256.183 295.116C255.608 297.848 253.881 300.005 252.011 301.73C249.853 303.743 247.408 305.613 244.674 306.907C242.948 307.77 240.646 307.482 238.632 307.626C237.481 307.77 236.186 307.914 235.035 307.914C233.309 307.77 231.727 307.626 230 307.338C228.274 307.051 226.548 306.619 224.821 306.188C224.534 306.044 224.102 306.044 223.958 305.9C223.239 304.75 222.52 303.456 221.8 302.305C221.225 301.011 222.663 299.43 224.39 299.573C224.821 299.573 225.397 299.573 225.684 299.861C227.699 301.155 230.144 301.443 232.446 301.587C234.748 301.73 237.481 302.162 239.351 301.299C241.078 300.436 243.236 301.443 244.53 299.573C245.106 298.711 246.544 298.135 246.976 297.129C248.415 294.541 250.285 292.096 249.997 288.932C249.997 288.789 249.853 288.501 249.853 288.213C247.695 289.508 245.681 290.946 243.379 292.096C242.085 292.815 240.646 293.103 239.207 293.534C233.597 295.116 229.281 292.527 225.109 289.508C224.534 289.076 223.814 288.789 223.527 288.357C222.52 286.919 221.512 285.625 220.937 284.043C220.505 282.893 220.793 281.599 220.793 280.305C220.793 279.73 220.937 279.011 221.225 278.435C221.656 277.573 222.088 276.566 223.383 277.716C223.527 277.86 224.246 277.716 224.677 277.716C226.26 277.716 227.123 278.579 227.267 280.017C227.411 281.455 227.699 283.037 228.13 284.475C228.274 284.906 228.706 285.338 229.137 285.481C230.863 285.913 232.734 286.488 234.46 286.488C235.899 286.488 237.337 285.913 238.92 285.769C242.516 285.625 244.674 283.612 246.544 281.024C248.271 278.723 249.565 276.278 250.285 273.402C250.573 272.396 252.011 271.533 253.162 271.102C254.169 270.67 255.464 270.67 256.327 271.965C257.046 272.54 257.909 272.971 258.197 273.259Z" fill="black"/>
<path d="M305.814 144.418C306.102 144.131 306.39 143.843 306.533 143.556C307.541 144.706 307.253 146.432 305.814 147.438C302.362 149.595 299.053 151.896 295.6 154.053C294.737 154.628 293.73 155.203 292.867 155.635C290.565 156.785 289.126 158.367 288.695 160.955C289.414 161.243 290.277 161.674 290.996 161.962C291.716 163.687 290.421 164.838 288.982 164.694C287.256 164.694 285.386 164.119 284.091 162.681C283.803 162.393 283.516 162.249 283.228 161.962C282.509 161.243 281.214 160.811 281.07 159.948C280.782 158.223 281.358 156.497 282.796 155.347C284.523 153.765 286.537 152.327 288.407 151.033C291.284 149.02 294.449 147.151 297.326 145.281C298.477 144.562 299.772 143.699 300.923 142.837C302.937 141.255 305.095 141.974 305.814 144.418Z" fill="black"/>
</g>
<path d="M0.119116 240.599C0.319116 228.899 -0.380884 217.199 0.319116 205.599C1.01912 193.799 4.91912 182.999 10.3191 172.799C16.6191 160.999 24.8191 150.899 34.4191 142.299C37.0191 139.999 38.2191 137.599 38.3191 133.999C38.7191 123.699 39.3191 113.499 40.0191 103.199C40.5191 96.2993 41.3191 89.3993 41.9191 82.5993C42.5191 76.0993 43.0191 69.5993 43.8191 63.0993C45.0191 53.2993 49.4191 45.2993 55.8191 38.5993C64.8191 28.9993 75.7191 22.5993 87.3191 17.5993C101.119 11.5993 115.419 7.69925 130.019 5.09926C141.719 2.99926 153.419 1.69925 165.219 1.29925C171.219 1.09925 177.219 0.899255 183.219 0.999255C195.119 1.09925 207.019 2.09925 218.919 3.59925C234.219 5.59925 249.419 8.79925 264.219 13.6993C278.219 18.2993 291.719 24.0993 304.119 32.5993C312.419 38.2993 319.619 45.0993 325.119 53.9993C330.019 61.9993 331.719 70.6993 329.919 80.2993C329.019 85.2993 329.119 90.4993 328.719 95.5993C327.519 109.799 326.319 123.899 325.119 137.999C325.019 139.599 324.619 141.299 324.719 142.899C324.819 143.899 325.419 144.999 326.019 145.799C333.319 153.799 339.619 162.599 344.319 172.799C350.719 186.699 353.219 201.299 351.619 216.699C350.419 228.999 350.419 241.299 350.419 253.599C350.419 259.599 350.419 265.799 349.319 271.599C347.119 282.899 343.119 293.499 337.219 303.199C329.219 316.499 318.919 327.299 307.219 336.599C288.719 351.199 268.019 360.899 246.219 367.799C228.919 373.199 211.319 376.399 193.419 378.099C176.619 379.699 159.919 379.399 143.219 377.599C117.219 374.799 92.0191 368.399 68.2191 356.399C64.2191 354.399 60.1191 352.699 56.4191 350.199C47.4191 344.199 38.5191 337.899 30.6191 330.099C23.1191 322.699 16.5191 314.599 11.3191 305.199C9.41912 301.799 7.91912 298.299 6.31912 294.699C4.81912 291.399 3.21912 288.099 2.31912 284.599C0.419116 277.399 0.119116 269.999 0.119116 262.499C0.119116 255.299 0.119116 247.999 0.119116 240.599C0.0191163 240.599 0.319116 240.599 0.119116 240.599ZM45.7191 76.3993C45.6191 76.9993 45.4191 77.3993 45.4191 77.7993C44.8191 85.0993 44.1191 92.2993 43.6191 99.5993C42.8191 110.899 42.2191 122.099 41.6191 133.399C40.8191 147.699 40.1191 161.999 39.4191 176.399C39.1191 183.099 38.7191 189.799 38.4191 196.499C38.2191 200.899 37.4191 205.299 38.8191 209.699C41.0191 216.899 44.9191 222.799 49.9191 227.899C59.3191 237.699 70.4191 244.299 82.2191 249.699C95.3191 255.699 108.919 259.899 122.719 262.999C139.319 266.699 156.119 268.899 173.119 269.599C195.819 270.499 218.419 269.099 240.719 264.499C255.619 261.399 270.219 256.999 283.919 249.899C290.719 246.399 297.519 242.699 302.919 236.899C307.019 232.499 310.619 227.599 314.419 222.899C317.319 219.399 318.619 215.199 318.819 210.599C319.219 198.499 319.819 186.399 320.019 174.299C320.319 157.399 321.519 140.599 323.319 123.799C324.419 113.799 324.919 103.699 325.719 93.5993C325.719 92.9993 325.619 92.3993 325.619 91.3993C325.019 92.0993 324.819 92.3993 324.519 92.6993C322.119 95.5993 320.019 98.6993 317.419 101.299C309.019 109.899 299.019 115.599 288.419 120.299C264.219 130.899 238.819 135.299 212.919 136.899C199.819 137.699 186.619 137.799 173.519 136.599C163.819 135.599 154.019 134.599 144.419 132.999C131.619 130.999 118.919 127.699 106.619 123.299C94.4191 118.999 82.6191 113.699 71.6191 106.199C63.6191 100.699 56.3191 94.3993 50.8191 85.8993C49.0191 82.8993 47.5191 79.6993 45.7191 76.3993ZM173.119 4.29925C161.419 4.29925 143.219 5.89925 125.119 9.59925C108.919 12.8993 93.1191 17.6993 78.3191 25.6993C69.7191 30.3993 61.7191 35.9993 55.4191 44.0993C46.8191 55.0993 44.6191 68.7993 52.1191 81.7993C57.3191 90.7993 64.5191 97.1993 72.6191 102.799C86.8191 112.599 102.419 118.799 118.619 123.399C133.019 127.599 147.519 130.599 162.419 131.899C174.019 132.899 185.619 133.799 197.319 133.899C216.019 133.999 234.519 132.099 252.819 128.099C267.719 124.799 282.319 120.199 296.019 112.899C305.019 108.099 313.419 102.199 319.919 93.7993C324.019 88.4993 327.019 82.6993 326.819 75.3993C326.719 70.5993 327.019 65.8993 325.219 61.2993C322.519 54.6993 318.419 49.0993 313.419 44.4993C304.619 36.2993 294.619 29.9993 283.919 25.0993C265.519 16.5993 246.219 11.3993 226.419 8.19925C211.019 5.49926 195.519 4.29925 173.119 4.29925ZM324.419 148.899C324.319 149.899 324.219 150.499 324.219 151.099C323.919 157.299 323.619 163.499 323.419 169.699C323.119 182.299 322.719 194.799 322.819 207.399C322.919 213.399 321.519 218.599 318.719 223.599C313.319 232.999 305.819 240.099 297.319 245.899C282.019 256.399 265.119 262.299 247.619 266.399C233.419 269.799 219.119 271.699 204.619 272.599C185.419 273.899 166.319 273.199 147.319 270.799C135.019 269.299 122.819 266.799 110.819 263.499C94.9191 258.999 79.5191 253.199 65.2191 244.199C56.4191 238.599 48.2191 232.099 42.0191 223.099C36.6191 215.199 33.3191 206.499 34.9191 196.299C35.2191 194.099 35.7191 191.899 35.8191 189.699C36.5191 175.099 37.0191 160.499 37.6191 145.999C37.6191 145.399 37.5191 144.699 37.4191 143.699C36.6191 144.299 36.1191 144.699 35.7191 145.099C30.0191 150.399 24.7191 156.199 20.0191 162.699C14.8191 169.999 10.4191 177.799 7.51912 186.499C4.81912 194.599 3.21912 202.799 3.21912 211.599C3.21912 219.299 3.91912 226.799 6.01912 234.099C10.1191 248.099 17.5191 259.899 26.8191 270.399C38.2191 283.199 51.9191 292.299 66.4191 300.099C80.7191 307.799 95.9191 313.099 111.519 316.999C127.619 320.999 143.919 323.399 160.419 323.999C174.519 324.499 188.719 324.499 202.819 322.299C213.219 320.699 223.619 318.999 233.919 316.599C248.319 313.299 262.319 308.099 275.819 301.599C294.819 292.299 312.219 280.399 326.519 263.599C335.019 253.599 341.819 242.299 345.619 229.199C350.219 213.299 350.119 197.499 344.719 181.799C340.619 169.799 334.019 159.599 326.019 150.399C325.719 149.899 325.219 149.599 324.419 148.899ZM3.91912 237.699C3.81912 237.699 3.71912 237.699 3.61912 237.699C3.51912 238.199 3.41912 238.599 3.41912 239.099C3.41912 247.899 3.61912 256.599 3.51912 265.399C3.51912 275.299 5.31912 284.799 8.91912 293.899C14.1191 306.999 22.1191 317.799 31.7191 327.399C41.8191 337.499 53.5191 344.899 65.6191 351.599C74.4191 356.499 83.6191 360.299 93.0191 363.499C114.619 370.899 136.719 374.999 159.219 375.799C175.419 376.399 191.719 375.799 207.819 373.399C227.219 370.499 246.119 365.599 264.419 357.899C280.719 351.099 296.119 342.299 309.919 330.499C321.219 320.799 331.019 309.599 338.019 295.799C342.619 286.799 345.719 277.299 346.319 266.999C346.819 257.299 346.719 247.499 346.919 237.699C346.919 237.399 346.719 237.099 346.619 236.699C346.419 236.799 346.219 236.799 346.219 236.899C346.119 237.099 345.919 237.299 345.919 237.499C341.319 249.199 334.619 259.199 326.519 268.199C316.819 279.099 305.719 287.899 293.619 295.299C274.819 306.799 254.719 314.699 233.719 319.899C215.819 324.299 197.719 326.699 179.419 327.299C162.919 327.799 146.519 326.699 130.119 324.099C118.619 322.299 107.319 319.599 96.2191 315.999C80.9191 310.899 65.9191 304.699 52.2191 295.599C44.1191 290.199 36.4191 284.299 29.4191 277.399C20.4191 268.599 12.9191 258.499 7.51912 246.599C6.21912 243.799 5.11912 240.699 3.91912 237.699Z" fill="white"/>
<path d="M45.7205 76.4023C47.5205 79.7023 48.9205 82.9023 50.8205 85.8023C56.2205 94.4023 63.6205 100.702 71.6205 106.102C82.5205 113.602 94.3205 118.902 106.62 123.202C119.021 127.602 131.62 130.902 144.42 132.902C154.12 134.402 163.821 135.502 173.521 136.502C186.621 137.802 199.82 137.702 212.921 136.802C238.82 135.202 264.221 130.802 288.421 120.202C299.021 115.602 309.021 109.802 317.421 101.202C320.021 98.6023 322.221 95.5023 324.521 92.6023C324.82 92.3023 325.021 92.0023 325.621 91.3023C325.721 92.3023 325.821 92.9023 325.721 93.5023C324.921 103.602 324.421 113.602 323.32 123.702C321.521 140.502 320.32 157.302 320.021 174.202C319.82 186.302 319.22 198.402 318.82 210.502C318.62 215.202 317.32 219.302 314.421 222.802C310.621 227.502 307.021 232.402 302.921 236.802C297.521 242.602 290.721 246.302 283.921 249.802C270.12 256.902 255.62 261.302 240.721 264.402C218.321 269.102 195.821 270.402 173.121 269.502C156.221 268.802 139.421 266.702 122.72 262.902C108.82 259.802 95.2205 255.602 82.2205 249.602C70.4205 244.202 59.2205 237.602 49.9205 227.802C45.0205 222.602 41.0205 216.802 38.8205 209.602C37.4205 205.202 38.2205 200.802 38.4205 196.402C38.7205 189.702 39.0205 183.002 39.4205 176.302C40.1205 162.002 40.8205 147.702 41.6205 133.302C42.2205 122.002 42.9205 110.802 43.6205 99.5023C44.1205 92.2023 44.8205 85.0023 45.4205 77.7023C45.5205 77.4023 45.6205 77.0023 45.7205 76.4023Z" fill="black"/>
<path d="M173.119 4.30078C195.419 4.40078 211.019 5.50078 226.419 8.10078C246.219 11.3008 265.419 16.5008 283.919 25.0008C294.619 29.9008 304.519 36.2008 313.419 44.4008C318.419 49.1008 322.519 54.6008 325.219 61.2008C327.019 65.7008 326.719 70.5008 326.819 75.3008C327.019 82.6008 324.019 88.4008 319.919 93.7008C313.419 102.201 305.019 108.001 296.019 112.801C282.319 120.201 267.719 124.801 252.819 128.001C234.519 132.001 215.919 133.901 197.319 133.801C185.719 133.701 174.019 132.801 162.419 131.801C147.619 130.501 133.019 127.501 118.619 123.301C102.419 118.601 86.819 112.501 72.619 102.701C64.619 97.2008 57.319 90.7008 52.219 81.8008C44.719 68.7008 46.819 55.0008 55.519 44.0008C61.819 36.0008 69.819 30.3008 78.419 25.6008C93.219 17.6008 109.019 12.8008 125.219 9.50078C143.219 5.90078 161.519 4.30078 173.119 4.30078Z" fill="black"/>
<path d="M324.42 148.899C325.22 149.599 325.72 149.899 326.12 150.399C334.12 159.599 340.72 169.799 344.82 181.799C350.22 197.499 350.32 213.299 345.72 229.199C341.92 242.299 335.12 253.599 326.62 263.599C312.32 280.399 294.92 292.299 275.92 301.599C262.42 308.199 248.52 313.299 234.02 316.599C223.72 318.999 213.32 320.699 202.92 322.299C188.92 324.499 174.72 324.499 160.52 323.999C144.02 323.399 127.72 320.999 111.62 316.999C96.0203 313.099 80.8203 307.799 66.5203 300.099C52.0203 292.299 38.3203 283.199 26.9203 270.399C17.6203 259.899 10.2203 248.199 6.12031 234.099C4.02031 226.799 3.32031 219.299 3.32031 211.599C3.32031 202.899 4.82031 194.599 7.62031 186.499C10.6203 177.799 14.9203 169.899 20.1203 162.699C24.8203 156.199 30.0203 150.399 35.8203 145.099C36.2203 144.699 36.7203 144.399 37.5203 143.699C37.6203 144.799 37.7203 145.399 37.7203 145.999C37.1203 160.599 36.6203 175.199 35.9203 189.699C35.8203 191.899 35.3203 194.099 35.0203 196.299C33.4203 206.499 36.7203 215.199 42.1203 223.099C48.3203 232.099 56.4203 238.599 65.3203 244.199C79.6203 253.199 95.0203 258.999 110.92 263.499C122.92 266.899 135.12 269.299 147.42 270.799C166.52 273.199 185.62 273.899 204.72 272.599C219.22 271.599 233.62 269.799 247.72 266.399C265.22 262.199 282.12 256.399 297.42 245.899C305.92 239.999 313.42 232.999 318.82 223.599C321.62 218.599 323.02 213.399 322.92 207.399C322.82 194.799 323.22 182.299 323.52 169.699C323.72 163.499 324.02 157.299 324.32 151.099C324.22 150.499 324.32 149.899 324.42 148.899Z" fill="black"/>
<path d="M3.91953 237.701C5.11953 240.701 6.21953 243.801 7.61953 246.701C13.0195 258.601 20.6195 268.601 29.5195 277.501C36.5195 284.401 44.2195 290.301 52.3195 295.701C66.1195 304.801 81.0195 311.001 96.3195 316.101C107.42 319.801 118.72 322.401 130.22 324.201C146.52 326.801 163.02 328.001 179.52 327.401C197.82 326.801 215.92 324.401 233.82 320.001C254.82 314.801 274.92 306.901 293.72 295.401C305.82 288.001 316.92 279.201 326.62 268.301C334.62 259.201 341.42 249.201 346.02 237.601C346.12 237.401 346.22 237.201 346.32 237.001C346.42 236.901 346.52 236.901 346.72 236.801C346.82 237.101 347.02 237.501 347.02 237.801C346.82 247.601 346.92 257.401 346.42 267.101C345.82 277.401 342.72 286.901 338.12 295.901C331.12 309.701 321.32 320.901 310.02 330.601C296.22 342.401 280.82 351.201 264.52 358.001C246.22 365.701 227.32 370.601 207.92 373.501C191.82 375.901 175.52 376.501 159.32 375.901C136.72 375.001 114.62 371.001 93.1195 363.601C83.7195 360.401 74.5195 356.601 65.7195 351.701C53.6195 345.001 41.9195 337.601 31.8195 327.501C22.2195 317.901 14.1195 307.101 9.01953 294.001C5.41953 284.901 3.61953 275.401 3.61953 265.501C3.61953 256.701 3.51953 248.001 3.51953 239.201C3.51953 238.701 3.61953 238.301 3.71953 237.801C3.71953 237.701 3.81953 237.701 3.91953 237.701Z" fill="black"/>
<path d="M168.878 185.658C169.885 185.658 170.46 185.658 171.036 185.658C171.179 185.658 171.467 185.514 171.467 185.658C172.618 186.952 174.632 187.671 174.92 189.541C175.495 193.711 176.071 197.881 176.502 202.051C176.934 206.077 177.222 210.247 177.653 214.274C178.085 219.306 178.66 224.339 178.948 229.516C179.092 232.104 178.948 234.693 178.948 237.281C179.236 237.281 179.38 237.281 179.667 237.425C180.243 235.987 180.962 234.693 181.394 233.111C182.257 230.091 182.832 227.071 183.839 224.052C184.846 221.032 185.997 218.156 187.148 215.136C188.011 212.836 189.018 210.391 189.881 208.09C192.615 200.757 195.204 193.279 198.082 185.946C198.657 184.364 199.664 182.638 201.534 182.207C202.685 183.501 203.836 184.508 204.555 185.802C205.131 186.665 205.275 187.959 205.419 188.965C205.706 190.403 205.85 191.841 205.85 193.279C205.994 196.299 206.138 199.319 206.426 202.339C206.713 206.077 207.289 209.816 207.576 213.555C207.864 217.15 207.72 220.601 207.864 224.196C208.008 227.934 208.008 231.673 208.296 235.412C208.44 238.863 208.871 242.314 209.159 245.621C209.303 246.772 209.59 248.066 209.734 249.216C209.734 250.079 209.878 251.085 209.447 251.517C208.871 252.092 207.72 252.092 206.857 252.38C206.426 252.523 205.994 252.38 205.562 252.523C204.124 252.955 202.685 252.092 202.685 250.654C202.11 243.896 201.534 236.993 200.959 230.235C200.527 225.202 200.239 220.025 199.952 214.993C199.808 212.404 199.808 209.816 199.664 207.228C199.664 206.94 199.52 206.652 199.089 205.79C197.938 209.528 197.075 212.836 195.78 216.143C194.485 219.45 192.903 222.758 191.608 226.065C190.025 229.947 188.731 233.83 187.292 237.712C185.997 241.163 184.846 244.758 183.552 248.21C183.264 248.928 182.401 249.36 182.113 250.079C181.537 251.085 181.106 252.092 180.962 253.242C180.674 255.543 179.955 256.118 177.509 256.118C177.078 256.118 176.646 256.118 176.358 256.262C174.632 256.693 173.194 255.974 173.05 254.105C172.618 249.791 172.33 245.334 171.899 240.876C171.467 236.562 171.036 232.248 170.748 227.934C170.604 226.352 170.892 224.915 170.892 223.333C170.892 219.019 171.036 214.561 170.604 210.247C170.316 206.796 169.165 203.201 169.022 199.75C169.022 197.449 168.302 195.292 168.158 192.992C168.014 190.979 168.302 188.822 168.446 186.809C168.59 186.09 168.878 185.802 168.878 185.658Z" fill="white"/>
<path d="M312.021 222.039C310.582 222.614 309.431 223.046 308.28 223.477C306.554 224.196 305.547 223.764 305.403 222.039C304.54 216.718 303.965 211.398 303.245 206.078C302.958 204.208 302.814 202.195 302.67 200.326C302.526 200.326 302.238 200.326 302.094 200.182C299.937 208.091 297.779 215.999 295.621 223.764C295.045 225.778 294.758 227.935 294.326 229.948C294.038 232.105 292.168 232.536 290.586 233.255C290.01 233.543 289.578 233.686 288.859 233.974C286.557 232.68 287.133 230.235 286.989 228.222C286.701 224.052 286.414 219.882 285.55 215.712C284.543 210.535 283.68 205.359 282.673 200.182C281.81 195.868 280.947 191.698 280.084 187.384C279.796 185.658 279.508 183.789 279.22 181.92C278.933 180.338 278.357 178.612 277.782 177.031C277.638 176.599 277.063 176.456 276.919 176.168C276.199 174.155 275.48 171.998 274.905 169.985C274.761 169.553 275.624 168.834 276.199 168.403C276.631 168.115 277.35 168.115 277.926 168.259C278.789 168.547 279.796 168.834 280.803 169.122C283.68 175.018 285.982 181.345 287.564 187.815C289.291 194.574 291.88 201.188 292.024 208.234C292.168 208.234 292.456 208.234 292.6 208.234C293.175 206.509 293.894 204.64 294.326 202.914C295.621 198.025 297.203 193.28 298.066 188.391C299.361 181.776 300.08 175.018 301.087 168.259C301.375 166.102 301.519 163.945 301.951 161.932C302.238 160.782 303.821 160.35 304.828 160.926C305.547 161.357 306.41 161.788 307.13 162.364C307.561 162.795 308.137 163.514 308.137 164.089C308.424 167.54 308.568 170.991 308.712 174.442C308.856 178.181 309.144 181.92 309.144 185.658C309.288 188.822 309.144 191.842 309.288 195.005C309.431 198.169 309.719 201.188 310.151 204.352C310.582 208.378 311.014 212.261 311.445 216.287C311.445 218.444 311.733 220.313 312.021 222.039Z" fill="white"/>
<path d="M71.3391 151.863C72.2023 152.582 72.9216 153.301 73.9286 153.732C75.9427 154.883 75.2234 156.752 75.0795 158.334C74.7918 160.347 74.0725 162.216 73.6409 164.229C73.0655 166.53 72.6339 168.975 72.2023 171.275C71.9146 172.713 72.2023 174.295 72.0584 175.733C71.7707 177.746 70.9075 179.759 71.1953 181.629C71.483 183.786 70.6198 185.511 70.4759 187.381C70.4759 189.25 70.3321 191.263 70.0444 193.133C69.9005 195.002 69.3251 196.871 69.1812 198.741C69.0373 202.192 68.8935 205.643 69.0373 208.95C69.1812 214.558 69.6128 220.31 67.7426 225.774C67.311 227.212 66.7355 228.075 65.0092 227.931C64.4338 227.931 64.0022 227.931 63.4267 228.075C61.2688 228.363 60.9811 228.363 60.9811 226.349C60.8372 222.898 60.9811 219.303 61.2688 215.852C61.2688 214.846 62.2758 213.695 61.9881 212.689C61.4127 210.676 61.8443 208.663 61.9881 206.649C62.132 203.773 62.7074 201.041 62.9951 198.165C63.2829 195.433 63.4267 192.557 63.7145 189.825C63.7145 189.106 63.8583 188.387 64.0022 187.237C62.9951 187.668 62.132 187.956 61.4127 188.243C59.8302 188.819 58.2477 189.681 56.3775 188.819C55.5143 188.387 55.2266 188.962 55.0828 189.825C54.795 193.708 54.5073 197.59 54.2196 201.473C53.9319 206.074 53.5003 210.819 53.2126 215.421C53.0687 216.715 52.781 217.722 51.0546 217.722C50.0476 217.722 49.1844 218.153 48.1774 218.153C46.7388 218.153 45.8756 217.578 46.0195 216.14C46.4511 212.114 46.7388 207.944 47.0265 203.917C47.1704 201.041 47.3142 198.309 47.4581 195.433C47.602 192.989 48.0335 190.688 48.3213 188.243C48.7529 184.649 49.0406 181.054 49.616 177.459C50.1915 173.72 51.0546 170.125 51.6301 166.386C52.0617 162.935 52.2055 159.484 52.6371 156.033C52.9248 153.013 53.5003 150.137 53.9319 147.262C53.9319 146.83 53.9319 146.399 53.9319 146.111C56.2337 144.386 57.96 145.68 59.5425 146.83C59.8302 147.118 60.1179 147.981 59.9741 148.268C59.1109 150.137 59.5425 152.151 59.3986 154.02C59.3986 154.308 59.3986 154.595 59.3986 154.883C58.967 157.471 58.8232 160.203 58.2477 162.935C57.8161 164.948 57.5284 166.962 57.0968 168.975C56.6652 171.275 56.8091 173.72 56.6652 176.021C56.6652 176.596 56.6652 177.171 56.3775 177.746C55.6582 180.047 56.2337 181.916 57.96 183.93C60.2618 181.916 61.4127 179.328 62.4197 176.74C63.4267 174.295 64.2899 171.707 65.0092 169.262C66.0162 165.524 66.8794 161.785 67.5987 157.902C67.8864 156.752 68.0303 155.602 68.1742 154.451C68.6057 152.87 69.4689 151.863 71.3391 151.863Z" fill="white"/>
<path d="M267.71 211.541C265.121 212.691 262.819 213.842 260.373 214.848C260.085 214.992 259.798 215.28 259.654 215.136C257.208 214.417 258.071 216.43 258.071 217.149C258.071 219.306 258.359 221.319 258.503 223.476C258.791 226.64 258.791 229.947 259.222 233.11C259.51 236.562 260.229 239.869 260.517 243.32C260.517 243.751 260.085 244.47 259.654 244.758C258.934 245.333 257.927 245.621 257.208 246.196C255.626 247.202 254.187 246.627 253.755 244.758C253.468 243.032 253.036 241.307 252.748 239.438C252.317 236.274 252.029 233.254 251.741 230.091C251.454 226.927 251.166 223.764 251.022 220.6C251.022 219.45 251.31 218.443 251.31 217.293C251.31 216.861 250.878 216.43 250.878 215.999C250.878 213.267 250.878 210.534 250.878 207.802C250.878 205.502 250.734 203.201 250.734 201.044C250.734 200.181 250.878 199.175 251.022 198.312C251.598 192.129 252.173 185.945 252.892 179.906C253.18 178.18 253.899 176.599 254.763 175.017C255.482 173.723 256.633 173.723 257.927 174.298C259.366 175.017 260.229 176.167 260.949 177.461C262.675 180.337 264.545 182.926 266.271 185.802C267.854 188.534 269.149 191.41 270.731 194.142C272.314 196.874 272.889 199.894 273.608 202.913C274.184 205.214 275.479 207.515 276.198 209.815C277.061 212.691 277.493 215.711 278.068 218.587C278.787 222.326 279.507 226.064 280.37 229.659C280.801 231.672 281.377 233.686 281.808 235.699C281.952 236.993 281.377 238 280.082 238.575C279.219 238.862 278.068 239.006 277.349 239.438C276.198 240.3 276.054 239.437 275.766 238.862C274.759 235.555 273.752 232.391 272.889 229.084C272.026 225.921 271.163 222.757 270.3 219.45C269.724 217.58 269.293 215.567 268.717 213.698C268.429 213.267 268.142 212.548 267.71 211.541ZM266.128 205.358C265.84 201.331 260.661 188.246 258.503 186.952C258.503 193.854 258.503 200.469 258.503 207.227C261.092 206.652 263.538 206.077 266.128 205.358Z" fill="white"/>
<path d="M111.045 176.741C109.319 187.526 110.326 198.598 110.614 209.67C111.621 207.37 112.628 205.213 113.491 202.912C114.93 199.317 116.368 195.578 117.807 191.84C118.67 189.683 119.245 187.382 120.252 185.369C120.828 184.362 121.979 183.5 122.698 182.781C123.705 183.356 124.424 183.643 125.288 184.219C126.295 184.794 127.302 185.513 126.87 186.807C126.007 189.683 125.144 192.415 124.137 195.291C123.417 197.592 122.554 199.892 121.547 202.049C119.965 205.644 118.095 209.239 116.512 212.978C116.224 213.697 115.793 214.416 115.649 214.991C117.375 216.429 119.102 217.579 120.252 219.161C122.554 222.468 125.575 225.488 126.582 229.658C127.158 231.959 128.309 233.972 129.028 236.273C129.46 237.423 129.46 238.861 129.603 240.011C129.747 240.73 129.747 241.593 129.747 242.312C130.035 244.613 130.467 246.77 130.754 249.071C130.754 249.646 130.467 250.077 130.323 250.796C129.316 251.228 128.021 251.659 126.87 252.09C125.144 252.666 124.281 252.234 123.993 250.509C123.705 248.064 123.561 245.62 123.274 243.175C122.986 240.587 122.554 238.142 121.403 235.841C120.828 234.691 120.972 233.253 120.54 232.103C119.821 230.377 118.67 228.939 117.951 227.214C116.944 224.769 115.073 222.9 112.916 221.462C112.628 221.174 111.333 221.606 111.189 221.893C110.758 223.475 110.47 225.2 110.326 226.782C110.182 228.795 110.182 230.952 110.182 233.109C110.326 236.417 110.614 239.724 110.758 243.031C110.758 244.038 110.758 245.044 110.614 246.051C110.614 246.482 110.182 246.914 109.894 247.057C108.6 247.489 107.305 248.064 106.01 247.92C105.435 247.92 104.428 246.626 104.284 245.907C103.852 242.168 103.708 238.43 103.565 234.835C103.277 230.952 102.989 227.07 102.845 223.187C102.701 219.592 102.701 215.997 102.701 212.403C102.701 207.801 102.414 203.343 102.845 198.742C103.277 194.859 102.701 190.977 103.421 187.094C103.852 184.506 103.708 181.918 104.14 179.329C104.428 177.748 105.003 176.166 105.579 174.728C106.01 173.865 108.456 174.153 109.319 175.016C109.607 175.735 110.326 176.166 111.045 176.741Z" fill="white"/>
<path d="M234.911 180.047C235.918 180.191 236.493 180.334 236.925 180.334C238.651 180.334 240.377 181.916 240.377 183.642C240.377 183.786 240.377 183.929 240.377 183.929C238.507 186.086 238.219 188.962 236.925 191.551C234.335 196.871 232.465 202.479 230.019 207.8C228.437 211.107 227.861 214.702 226.854 218.153C226.567 219.303 226.279 220.597 228.005 221.173C228.293 221.316 228.581 221.748 228.724 222.179C229.012 223.473 230.163 224.192 231.17 225.199C233.328 227.356 235.198 229.8 237.068 232.245C238.939 234.546 240.665 236.99 242.247 239.435C242.967 240.441 243.255 241.735 243.686 242.886C244.405 244.611 244.981 246.337 246.132 247.919C247.139 249.213 246.276 249.932 245.7 250.651C245.125 251.37 244.262 252.233 243.255 252.376C242.391 252.52 241.384 251.801 240.665 251.226C240.09 250.938 239.802 250.219 239.514 249.644C237.068 245.33 234.767 240.729 231.889 236.559C230.019 233.827 227.43 231.526 224.984 228.794C223.977 232.245 223.833 235.552 224.121 238.86C224.409 242.311 224.696 245.762 224.984 249.357C225.128 250.795 225.128 252.233 225.128 253.527C225.128 253.814 224.84 254.39 224.409 254.533C223.114 254.965 221.819 255.252 220.668 255.684C218.942 254.965 218.51 253.527 218.366 251.801C218.223 250.076 218.079 248.35 217.935 246.768C217.359 242.167 216.784 237.565 216.352 232.82C215.921 228.794 215.777 224.624 215.489 220.597C215.345 219.591 215.058 218.584 215.058 217.578C215.058 217.29 215.489 216.859 215.777 216.427C214.914 216.14 215.345 215.277 215.202 214.414C214.914 212.257 214.482 210.1 214.338 207.943C214.194 205.93 214.194 203.773 214.051 201.76C214.051 201.041 213.619 200.466 213.619 199.747C213.331 195.577 212.9 191.263 212.756 187.093C212.756 186.23 213.475 185.08 214.194 184.361C215.202 183.354 216.496 184.361 216.784 185.511C217.791 186.374 218.654 186.805 218.798 187.38C219.086 188.387 218.942 189.537 218.942 190.688C219.086 192.413 219.23 194.139 219.373 195.864C219.661 198.021 219.805 200.322 220.093 202.479C220.381 205.499 220.812 208.519 221.388 211.538C225.703 200.754 229.156 189.969 234.911 180.047Z" fill="white"/>
<path d="M138.09 255.973C137.947 254.823 137.803 253.385 137.659 252.091C137.371 249.646 136.796 247.346 136.652 244.901C136.508 242.744 136.652 240.587 136.652 238.43C136.652 236.129 136.796 233.829 136.796 231.528C136.94 228.652 136.94 225.632 137.083 222.756C137.227 219.449 137.371 215.998 137.947 212.834C138.522 209.527 138.378 206.076 139.529 202.769C140.68 199.461 140.824 195.723 141.831 192.415C142.694 189.827 143.989 187.239 145.427 184.794C145.859 183.931 146.866 182.925 148.305 183.644C148.592 183.788 148.736 184.075 148.88 184.363C149.024 184.507 149.024 184.794 149.024 184.938C149.312 184.794 149.456 184.65 149.887 184.363C150.175 184.794 150.463 185.226 150.606 185.657C151.613 187.67 152.62 189.827 153.627 191.84C153.915 192.415 154.059 193.134 154.347 193.853C155.354 195.723 156.361 197.592 157.224 199.318C157.656 200.037 157.799 201.043 158.087 201.762C158.807 203.775 159.814 205.788 160.389 207.945C161.252 210.965 161.828 214.129 162.403 217.292C163.41 221.75 164.417 226.207 165.424 230.665C166.143 234.116 167.007 237.567 167.294 241.018C167.726 244.613 167.726 248.208 167.87 251.803C168.014 254.535 167.438 255.111 164.561 254.823C164.417 254.823 164.129 254.967 163.986 255.111C162.547 256.261 161.828 256.117 161.54 254.535C161.108 252.378 160.821 250.078 160.821 247.777C160.964 243.463 159.814 239.437 159.094 235.267C158.375 231.097 157.512 226.926 156.649 222.756C155.929 219.449 155.354 216.142 154.491 212.978C153.627 209.527 152.477 206.076 151.326 202.625C150.894 201.187 150.175 199.893 149.456 198.599C149.312 198.311 148.736 198.167 148.448 197.88C148.161 198.311 147.873 198.599 147.729 199.03C147.154 202.337 146.434 205.645 146.003 208.952C145.427 212.691 144.852 216.429 144.564 220.168C144.133 224.913 143.989 229.802 143.845 234.548C143.701 237.999 143.557 241.594 143.701 245.045C143.845 247.777 144.276 250.365 144.708 252.954C145.14 255.829 142.694 257.411 139.817 256.405C139.241 256.261 138.81 256.117 138.09 255.973Z" fill="white"/>
<path d="M93.2052 240.157C91.4789 239.581 91.1911 238.287 91.1911 236.705C91.335 234.836 91.0473 233.111 90.9034 231.241C90.7596 228.797 90.7596 226.352 90.7596 223.764C90.7596 220.744 90.7596 217.724 90.6157 214.705C90.6157 214.417 90.4718 213.986 90.1841 213.842C87.7385 212.548 85.8683 210.391 82.8472 210.247C82.1279 210.247 81.4086 209.816 80.5454 209.528C80.2577 211.254 79.9699 213.123 79.8261 214.992C79.5384 218.156 79.3945 221.319 78.9629 224.483C78.819 225.202 78.819 225.777 78.819 226.64C78.9629 228.94 78.819 231.241 78.6752 233.542C78.6752 234.405 78.0997 234.98 76.805 234.549C76.2295 234.261 75.3664 234.549 74.6471 234.549C72.7769 234.405 72.0576 233.83 72.2014 232.104C72.3453 226.784 72.4891 221.463 72.9207 216.143C73.3523 211.254 73.7839 206.221 74.6471 201.332C75.6541 195.724 77.0927 190.259 78.6752 184.795C79.3945 182.207 80.8331 179.906 81.984 177.318C82.7033 175.448 83.2788 173.579 84.1419 171.71C84.5735 170.847 85.2928 169.984 86.156 169.409C87.163 168.834 87.8823 169.984 88.7455 170.272C90.9034 170.991 90.9034 172.572 91.1911 174.298C91.6227 176.455 92.342 178.468 92.9175 180.481C93.7806 183.645 94.7877 186.952 95.2193 190.259C95.9386 196.586 96.3702 202.913 96.9456 209.24C97.2333 212.404 97.521 215.567 97.521 218.875C97.521 222.326 97.2333 225.777 97.3772 229.372C97.3772 231.673 97.8088 234.117 98.2404 236.418C98.6719 238.575 97.5211 239.869 95.2193 240.013C94.3561 239.581 93.7806 240.013 93.2052 240.157ZM87.163 182.207C87.0192 182.207 86.8753 182.063 86.5876 182.063C86.2998 182.782 85.8683 183.501 85.7244 184.22C85.4367 185.514 85.2928 186.808 84.7174 187.959C82.991 192.272 82.1279 196.73 81.6963 201.332C81.5524 202.338 81.8401 202.626 82.7033 203.057C84.4296 203.92 86.0121 205.07 87.5946 205.933C88.17 206.221 88.8894 206.508 89.7525 206.94C89.8964 198.456 88.7455 190.259 87.163 182.207Z" fill="white"/>
<path d="M169.022 303.858C171.036 306.59 172.906 308.747 174.633 311.192C175.352 312.198 175.783 313.492 175.927 314.787C176.071 315.218 175.496 316.081 174.92 316.368C174.057 316.8 172.906 316.8 172.043 316.944C171.899 316.944 171.755 316.8 171.755 316.8C172.331 315.074 169.597 315.362 169.597 313.636C169.597 312.773 167.871 311.911 167.008 310.904C165.425 309.035 163.843 307.165 162.261 305.296C161.685 304.577 161.11 303.858 160.966 302.995C160.678 301.989 160.534 300.695 160.966 299.688C161.253 298.681 162.117 298.25 163.555 298.106C165.857 298.106 168.303 297.531 170.461 296.812C171.755 296.381 172.762 295.087 173.626 293.936C176.647 290.197 179.668 286.315 182.689 282.432C183.408 281.426 184.415 280.707 185.134 279.844C186.573 278.406 187.724 278.406 189.306 279.844C190.026 280.419 191.177 280.707 191.752 281.282C192.759 282.432 193.622 283.87 194.342 285.165C196.212 288.184 198.226 291.06 199.808 294.08C200.24 294.943 200.815 295.087 201.391 294.943C203.549 294.799 205.851 294.655 208.008 294.511C208.872 294.511 209.879 294.511 210.454 294.511C210.886 295.805 211.173 296.956 211.749 297.819C212.468 298.969 212.18 299.832 211.173 300.263C210.023 300.695 209.735 301.557 209.303 302.564C207.577 306.159 205.851 309.754 203.836 313.205C203.549 313.636 202.686 313.924 202.11 314.068C200.959 314.068 197.938 311.767 197.938 310.76C197.938 309.754 198.37 308.603 198.801 307.597C199.377 306.303 200.096 305.152 200.672 303.858C201.103 302.852 200.672 302.276 199.665 302.276C197.938 302.276 196.356 302.42 194.629 302.42C188.587 302.708 182.545 302.852 176.647 303.139C176.215 303.139 175.496 303.57 175.208 303.858C174.057 305.008 172.762 305.152 171.468 304.146C170.748 304.002 169.885 304.002 169.022 303.858ZM189.019 285.596C186.142 289.478 183.552 292.786 180.963 296.237C180.963 296.381 181.106 296.668 181.106 296.812C185.854 296.524 190.601 296.381 195.78 296.093C193.335 292.498 191.321 289.191 189.019 285.596Z" fill="white"/>
<path d="M131.76 285.308C134.637 285.451 137.227 285.595 139.673 285.739C142.55 286.027 145.427 286.17 148.16 286.458C149.024 286.602 149.455 287.177 149.743 288.04C150.174 289.334 150.75 290.628 149.887 291.922C149.743 292.21 149.311 292.785 149.167 292.785C148.017 292.354 146.578 293.792 145.427 292.354C145.283 292.21 144.995 292.21 144.852 292.21C140.536 291.922 136.364 291.778 132.048 291.491C131.041 291.491 129.89 291.347 128.883 291.059C127.444 290.628 126.869 291.635 126.15 292.497C124.711 294.367 123.272 296.092 121.69 298.105C121.978 299.256 122.697 298.968 123.848 299.112C127.444 299.4 131.041 299.831 134.637 300.262C136.076 300.406 137.659 300.694 139.097 300.981C140.392 301.269 141.831 301.7 143.125 302.132C143.413 302.132 143.557 302.419 143.701 302.707C143.988 303.57 144.42 304.145 145.427 304.576C146.578 305.151 145.859 307.74 144.42 307.884C142.838 308.171 141.111 308.315 139.673 307.74C138.09 307.165 136.508 307.308 134.781 307.165C133.055 307.021 131.185 306.733 129.458 306.589C129.171 306.589 128.883 306.589 128.451 306.733C127.3 306.877 126.15 307.021 125.286 306.014C124.999 305.583 124.136 305.439 123.56 305.583C122.409 305.583 121.258 306.014 120.107 306.014C118.669 306.014 117.086 306.014 115.648 305.87C115.072 305.727 114.641 305.151 114.065 304.72C113.921 304.576 113.778 304.289 113.49 304.145C111.476 303.57 111.332 303.426 112.051 301.557C113.346 297.674 116.223 294.654 118.669 291.491C121.258 288.183 123.56 284.732 126.006 281.281C127.013 279.843 128.02 278.405 129.027 276.967C129.602 276.105 130.178 275.098 130.753 274.235C131.041 273.948 131.616 273.66 132.048 273.804C136.22 274.091 140.392 274.523 144.564 274.81C147.441 274.954 150.462 274.954 153.339 275.098C155.641 275.098 156.217 275.673 156.792 277.974C157.08 279.124 157.655 280.419 155.929 280.994C155.641 281.137 155.353 281.281 154.922 281.281C151.469 281.281 148.017 281.281 144.708 281.137C142.118 280.994 139.385 280.706 136.795 280.706C135.501 280.706 134.206 280.994 133.487 282.432C133.199 283.151 132.48 284.013 131.76 285.308Z" fill="white"/>
<path d="M77.2384 292.066C76.3752 292.785 75.3682 292.354 74.505 291.635C74.3611 291.491 74.0734 291.347 73.7857 291.203C71.0523 290.197 70.7646 289.046 72.7787 286.889C76.8068 282.719 80.9788 278.693 85.4385 274.81C87.1648 273.229 88.4596 271.359 90.1859 269.778C90.9052 269.059 91.6245 268.483 92.4877 268.052C94.3579 267.045 96.2281 265.895 98.6737 266.47C101.263 267.045 103.853 267.621 106.442 268.196C109.176 268.627 111.765 268.915 114.499 269.49C115.506 269.634 117.088 269.346 117.376 271.072C117.52 271.359 118.095 271.503 118.239 271.503C118.527 272.51 118.814 273.373 118.814 274.092C118.814 274.81 118.958 275.961 118.527 276.392C117.951 276.967 116.656 277.111 115.793 276.967C113.348 276.392 110.902 275.529 108.312 274.954C105.004 274.235 101.551 273.66 98.2422 273.085C97.6667 272.941 96.8036 273.229 96.372 273.66C95.2211 274.667 94.3579 275.817 93.0632 277.111C95.7965 277.111 97.6667 277.399 98.9615 279.124C99.1053 279.412 99.5369 279.412 99.8246 279.556C100.832 280.131 101.839 280.85 102.99 281.425C103.565 281.713 104.284 282 105.004 282.288C105.004 282.575 105.004 283.007 105.004 283.294C105.579 283.582 106.155 283.726 106.586 284.157C109.32 286.889 109.751 293.36 106.73 295.661C105.148 296.955 102.558 297.099 100.4 297.674C96.5158 298.537 92.6316 297.243 88.8912 296.811C87.4525 296.668 86.1578 295.805 84.863 295.23C84.4315 295.086 84.1437 294.942 83.7122 294.798C82.2735 294.511 80.8349 294.223 79.3963 293.792C78.5331 293.504 77.9577 292.785 77.2384 292.066ZM102.99 289.621C102.27 289.046 101.263 288.471 100.832 287.608C99.8246 285.595 97.8106 285.451 96.0842 284.876C93.9263 284.013 91.7684 283.438 89.4666 282.719C89.7543 282.432 90.0421 282.144 90.4736 281.569C89.035 281.856 87.8841 281.713 87.3087 282.288C85.2946 283.87 83.5683 285.739 81.2665 287.752C82.849 288.04 83.856 288.327 85.0069 288.615C87.3087 289.334 89.6105 290.197 91.9123 290.772C94.214 291.203 96.6597 291.347 98.9615 291.347C100.544 291.203 102.27 291.635 102.99 289.621Z" fill="white"/>
<path d="M258.217 273.087C258.648 274.956 259.08 276.538 259.224 278.12C259.224 280.133 259.224 282.29 258.792 284.303C258.073 287.898 256.922 291.349 256.203 294.944C255.627 297.676 253.901 299.833 252.031 301.558C249.873 303.572 247.427 305.441 244.694 306.735C242.967 307.598 240.666 307.31 238.652 307.454C237.501 307.598 236.206 307.742 235.055 307.742C233.329 307.598 231.746 307.454 230.02 307.166C228.294 306.879 226.567 306.447 224.841 306.016C224.553 305.872 224.122 305.872 223.978 305.729C223.258 304.578 222.539 303.284 221.82 302.134C221.244 300.839 222.683 299.258 224.409 299.401C224.841 299.401 225.416 299.402 225.704 299.689C227.718 300.983 230.164 301.271 232.465 301.415C234.767 301.558 237.501 301.99 239.371 301.127C241.097 300.264 243.255 301.271 244.55 299.401C245.125 298.539 246.564 297.964 246.996 296.957C248.434 294.369 250.304 291.924 250.017 288.761C250.017 288.617 249.873 288.329 249.873 288.042C247.715 289.336 245.701 290.774 243.399 291.924C242.104 292.643 240.666 292.931 239.227 293.362C233.616 294.944 229.301 292.355 225.129 289.336C224.553 288.904 223.834 288.617 223.546 288.185C222.539 286.747 221.532 285.453 220.957 283.872C220.525 282.721 220.813 281.427 220.813 280.133C220.813 279.558 220.957 278.839 221.244 278.263C221.676 277.401 222.107 276.394 223.402 277.544C223.546 277.688 224.265 277.544 224.697 277.544C226.279 277.544 227.143 278.407 227.286 279.845C227.43 281.283 227.718 282.865 228.15 284.303C228.294 284.734 228.725 285.166 229.157 285.309C230.883 285.741 232.753 286.316 234.48 286.316C235.918 286.316 237.357 285.741 238.939 285.597C242.536 285.453 244.694 283.44 246.564 280.852C248.29 278.551 249.585 276.107 250.304 273.231C250.592 272.224 252.031 271.361 253.182 270.93C254.189 270.498 255.483 270.498 256.347 271.793C257.066 272.368 257.929 272.799 258.217 273.087Z" fill="white"/>
<path d="M305.834 144.243C306.121 143.955 306.409 143.667 306.553 143.38C307.56 144.53 307.272 146.256 305.834 147.262C302.381 149.419 299.072 151.72 295.62 153.877C294.756 154.452 293.749 155.027 292.886 155.459C290.584 156.609 289.146 158.191 288.714 160.779C289.433 161.067 290.297 161.498 291.016 161.786C291.735 163.511 290.441 164.662 289.002 164.518C287.276 164.518 285.405 163.943 284.111 162.505C283.823 162.217 283.535 162.073 283.247 161.786C282.528 161.067 281.233 160.635 281.09 159.773C280.802 158.047 281.377 156.322 282.816 155.171C284.542 153.589 286.556 152.151 288.426 150.857C291.304 148.844 294.469 146.975 297.346 145.105C298.497 144.386 299.792 143.524 300.942 142.661C302.956 141.079 305.114 141.798 305.834 144.243Z" fill="white"/>
</g>
<defs>
<clipPath id="clip0">
<rect y="0.972656" width="352.2" height="378.4" fill="white"/>
</clipPath>
<clipPath id="clip1">
<rect x="46" y="141.973" width="266" height="175" fill="white"/>
</clipPath>
</defs>
</svg>
