<svg width="353" height="379" viewBox="0 0 353 379" fill="none" xmlns="http://www.w3.org/2000/svg">
<g clip-path="url(#clip0)">
<path d="M0.478491 239.798C0.678491 228.098 -0.0215086 216.398 0.678491 204.798C1.37849 192.998 5.27849 182.198 10.6785 171.998C16.9785 160.198 25.1785 150.098 34.7785 141.498C37.3785 139.198 38.5785 136.798 38.6785 133.198C39.0785 122.898 39.6785 112.698 40.3785 102.398C40.8785 95.4985 41.6785 88.5985 42.2785 81.7985C42.8785 75.2985 43.3785 68.7985 44.1785 62.2985C45.3785 52.4985 49.7785 44.4985 56.1785 37.7985C65.1785 28.1985 76.0785 21.7985 87.6785 16.7985C101.479 10.7985 115.778 6.89847 130.378 4.29847C142.078 2.19847 153.778 0.898474 165.578 0.498474C171.578 0.298474 177.578 0.0984736 183.578 0.198474C195.478 0.298474 207.378 1.29847 219.278 2.79847C234.578 4.79847 249.778 7.99847 264.578 12.8985C278.578 17.4985 292.078 23.2985 304.478 31.7985C312.778 37.4985 319.978 44.2985 325.478 53.1985C330.378 61.1985 332.078 69.8985 330.278 79.4985C329.378 84.4985 329.478 89.6985 329.078 94.7985C327.878 108.998 326.678 123.098 325.478 137.198C325.378 138.798 324.978 140.498 325.078 142.098C325.178 143.098 325.778 144.198 326.378 144.998C333.678 152.998 339.978 161.798 344.678 171.998C351.078 185.898 353.578 200.498 351.978 215.898C350.778 228.198 350.778 240.498 350.778 252.798C350.778 258.798 350.778 264.998 349.678 270.798C347.478 282.098 343.478 292.698 337.578 302.398C329.578 315.698 319.279 326.498 307.578 335.798C289.078 350.398 268.378 360.098 246.578 366.998C229.278 372.398 211.678 375.598 193.778 377.298C176.978 378.898 160.278 378.598 143.578 376.798C117.578 373.998 92.3785 367.598 68.5785 355.598C64.5785 353.598 60.4785 351.898 56.7785 349.398C47.7785 343.398 38.8785 337.098 30.9785 329.298C23.4785 321.898 16.8785 313.798 11.6785 304.398C9.77849 300.998 8.27849 297.498 6.67849 293.898C5.17849 290.598 3.57849 287.298 2.67849 283.798C0.778491 276.598 0.478491 269.198 0.478491 261.698C0.478491 254.498 0.478491 247.198 0.478491 239.798C0.378491 239.798 0.678491 239.798 0.478491 239.798ZM46.0785 75.5985C45.9785 76.1985 45.7785 76.5985 45.7785 76.9985C45.1785 84.2985 44.4785 91.4985 43.9785 98.7985C43.1785 110.098 42.5785 121.298 41.9785 132.598C41.1785 146.898 40.4785 161.198 39.7785 175.598C39.4785 182.298 39.0785 188.998 38.7785 195.698C38.5785 200.098 37.7785 204.498 39.1785 208.898C41.3785 216.098 45.2785 221.998 50.2785 227.098C59.6785 236.898 70.7785 243.498 82.5785 248.898C95.6785 254.898 109.278 259.098 123.078 262.198C139.678 265.898 156.479 268.098 173.479 268.798C196.178 269.698 218.778 268.298 241.078 263.698C255.978 260.598 270.578 256.198 284.278 249.098C291.078 245.598 297.878 241.898 303.278 236.098C307.378 231.698 310.978 226.798 314.778 222.098C317.678 218.598 318.978 214.398 319.178 209.798C319.578 197.698 320.178 185.598 320.378 173.498C320.678 156.598 321.878 139.798 323.678 122.998C324.778 112.998 325.279 102.898 326.078 92.7985C326.078 92.1985 325.978 91.5985 325.978 90.5985C325.378 91.2985 325.178 91.5985 324.878 91.8985C322.478 94.7985 320.378 97.8985 317.778 100.498C309.378 109.098 299.378 114.798 288.778 119.498C264.578 130.098 239.178 134.498 213.278 136.098C200.178 136.898 186.979 136.998 173.878 135.798C164.178 134.798 154.378 133.798 144.778 132.198C131.978 130.198 119.278 126.898 106.978 122.498C94.7785 118.198 82.9785 112.898 71.9785 105.398C63.9785 99.8985 56.6785 93.5985 51.1785 85.0985C49.3785 82.0985 47.8785 78.8985 46.0785 75.5985ZM173.479 3.49847C161.779 3.49847 143.578 5.09847 125.478 8.79847C109.278 12.0985 93.4785 16.8985 78.6785 24.8985C70.0785 29.5985 62.0785 35.1985 55.7785 43.2985C47.1785 54.2985 44.9785 67.9985 52.4785 80.9985C57.6785 89.9985 64.8785 96.3985 72.9785 101.998C87.1785 111.798 102.778 117.998 118.978 122.598C133.378 126.798 147.878 129.798 162.778 131.098C174.378 132.098 185.979 132.998 197.678 133.098C216.378 133.198 234.878 131.298 253.178 127.298C268.078 123.998 282.678 119.398 296.378 112.098C305.378 107.298 313.778 101.398 320.278 92.9985C324.378 87.6985 327.378 81.8985 327.178 74.5985C327.078 69.7985 327.378 65.0985 325.578 60.4985C322.878 53.8985 318.778 48.2985 313.778 43.6985C304.978 35.4985 294.978 29.1985 284.278 24.2985C265.878 15.7985 246.578 10.5985 226.778 7.39847C211.378 4.69847 195.878 3.49847 173.479 3.49847ZM324.778 148.098C324.678 149.098 324.578 149.698 324.578 150.298C324.279 156.498 323.978 162.698 323.778 168.898C323.478 181.498 323.078 193.998 323.178 206.598C323.278 212.598 321.878 217.798 319.078 222.798C313.678 232.198 306.178 239.298 297.678 245.098C282.378 255.598 265.479 261.498 247.979 265.598C233.779 268.998 219.479 270.898 204.979 271.798C185.779 273.098 166.678 272.398 147.678 269.998C135.378 268.498 123.178 265.998 111.178 262.698C95.2785 258.198 79.8785 252.398 65.5785 243.398C56.7785 237.798 48.5785 231.298 42.3785 222.298C36.9785 214.398 33.6785 205.698 35.2785 195.498C35.5785 193.298 36.0785 191.098 36.1785 188.898C36.8785 174.298 37.3785 159.698 37.9785 145.198C37.9785 144.598 37.8785 143.898 37.7785 142.898C36.9785 143.498 36.4785 143.898 36.0785 144.298C30.3785 149.598 25.0785 155.398 20.3785 161.898C15.1785 169.198 10.7785 176.998 7.87849 185.698C5.17849 193.798 3.57849 201.998 3.57849 210.798C3.57849 218.498 4.27849 225.998 6.37849 233.298C10.4785 247.298 17.8785 259.098 27.1785 269.598C38.5785 282.398 52.2785 291.498 66.7785 299.298C81.0785 306.998 96.2785 312.298 111.878 316.198C127.978 320.198 144.278 322.598 160.778 323.198C174.878 323.698 189.078 323.698 203.178 321.498C213.578 319.898 223.978 318.198 234.278 315.798C248.678 312.498 262.678 307.298 276.178 300.798C295.178 291.498 312.578 279.598 326.878 262.798C335.378 252.798 342.178 241.498 345.978 228.398C350.578 212.498 350.478 196.698 345.078 180.998C340.978 168.998 334.378 158.798 326.378 149.598C326.078 149.098 325.578 148.798 324.778 148.098ZM4.27849 236.898C4.17849 236.898 4.07849 236.898 3.97849 236.898C3.87849 237.398 3.77849 237.798 3.77849 238.298C3.77849 247.098 3.97849 255.798 3.87849 264.598C3.87849 274.498 5.67849 283.998 9.27849 293.098C14.4785 306.198 22.4785 316.998 32.0785 326.598C42.1785 336.698 53.8785 344.098 65.9785 350.798C74.7785 355.698 83.9785 359.498 93.3785 362.698C114.978 370.098 137.078 374.198 159.578 374.998C175.778 375.598 192.078 374.998 208.178 372.598C227.578 369.698 246.478 364.798 264.778 357.098C281.078 350.298 296.478 341.498 310.278 329.698C321.578 319.998 331.378 308.798 338.378 294.998C342.978 285.998 346.078 276.498 346.678 266.198C347.178 256.498 347.078 246.698 347.278 236.898C347.278 236.598 347.078 236.298 346.978 235.898C346.778 235.998 346.578 235.998 346.578 236.098C346.478 236.298 346.278 236.498 346.278 236.698C341.678 248.398 334.978 258.398 326.878 267.398C317.178 278.298 306.078 287.098 293.978 294.498C275.178 305.998 255.078 313.898 234.078 319.098C216.178 323.498 198.078 325.898 179.778 326.498C163.278 326.998 146.878 325.898 130.479 323.298C118.979 321.498 107.678 318.798 96.5785 315.198C81.2785 310.098 66.2785 303.898 52.5785 294.798C44.4785 289.398 36.7785 283.498 29.7785 276.598C20.7785 267.798 13.2785 257.698 7.87849 245.798C6.57849 242.998 5.47849 239.898 4.27849 236.898Z" fill="black"/>
<path d="M46.0799 75.6016C47.8799 78.9016 49.2799 82.1016 51.1799 85.0016C56.5799 93.6016 63.9799 99.9016 71.9799 105.302C82.8799 112.802 94.6799 118.102 106.98 122.402C119.38 126.802 131.98 130.102 144.78 132.102C154.48 133.602 164.18 134.702 173.88 135.702C186.98 137.002 200.18 136.902 213.28 136.002C239.18 134.402 264.58 130.002 288.78 119.402C299.38 114.802 309.38 109.002 317.78 100.402C320.38 97.8016 322.58 94.7016 324.88 91.8016C325.18 91.5016 325.38 91.2016 325.98 90.5016C326.08 91.5016 326.18 92.1016 326.08 92.7016C325.28 102.802 324.78 112.802 323.68 122.902C321.88 139.702 320.68 156.502 320.38 173.402C320.18 185.502 319.58 197.602 319.18 209.702C318.98 214.402 317.68 218.502 314.78 222.002C310.98 226.702 307.38 231.602 303.28 236.002C297.88 241.802 291.08 245.502 284.28 249.002C270.48 256.102 255.98 260.502 241.08 263.602C218.68 268.302 196.18 269.602 173.48 268.702C156.58 268.002 139.78 265.902 123.08 262.102C109.18 259.002 95.5799 254.802 82.5799 248.802C70.7799 243.402 59.5799 236.802 50.2799 227.002C45.3799 221.802 41.3799 216.002 39.1799 208.802C37.7799 204.402 38.5799 200.002 38.7799 195.602C39.0799 188.902 39.3799 182.202 39.7799 175.502C40.4799 161.202 41.1799 146.902 41.9799 132.502C42.5799 121.202 43.2799 110.002 43.9799 98.7016C44.4799 91.4016 45.1799 84.2016 45.7799 76.9016C45.8799 76.6016 45.9799 76.2016 46.0799 75.6016Z" fill="white"/>
<path d="M173.478 3.5C195.778 3.6 211.378 4.7 226.778 7.3C246.578 10.5 265.778 15.7 284.278 24.2C294.978 29.1 304.878 35.4 313.778 43.6C318.778 48.3 322.878 53.8 325.578 60.4C327.378 64.9 327.078 69.7 327.178 74.5C327.378 81.8 324.378 87.6 320.278 92.9C313.778 101.4 305.378 107.2 296.378 112C282.678 119.4 268.078 124 253.178 127.2C234.878 131.2 216.278 133.1 197.678 133C186.078 132.9 174.378 132 162.778 131C147.978 129.7 133.378 126.7 118.978 122.5C102.778 117.8 87.1784 111.7 72.9784 101.9C64.9784 96.4 57.6784 89.9 52.5784 81C45.0784 67.9 47.1784 54.2 55.8784 43.2C62.1784 35.2 70.1784 29.5 78.7784 24.8C93.5784 16.8 109.378 12 125.578 8.7C143.578 5.1 161.878 3.5 173.478 3.5Z" fill="white"/>
<path d="M324.78 148.098C325.58 148.798 326.08 149.098 326.48 149.598C334.48 158.798 341.08 168.998 345.18 180.998C350.58 196.698 350.68 212.498 346.08 228.398C342.28 241.498 335.48 252.798 326.98 262.798C312.68 279.598 295.28 291.498 276.28 300.798C262.78 307.398 248.88 312.498 234.38 315.798C224.08 318.198 213.68 319.898 203.28 321.498C189.28 323.698 175.08 323.698 160.88 323.198C144.38 322.598 128.08 320.198 111.98 316.198C96.3797 312.298 81.1797 306.998 66.8797 299.298C52.3797 291.498 38.6797 282.398 27.2797 269.598C17.9797 259.098 10.5797 247.398 6.47969 233.298C4.37969 225.998 3.67969 218.498 3.67969 210.798C3.67969 202.098 5.17969 193.798 7.97969 185.698C10.9797 176.998 15.2797 169.098 20.4797 161.898C25.1797 155.398 30.3797 149.598 36.1797 144.298C36.5797 143.898 37.0797 143.598 37.8797 142.898C37.9797 143.998 38.0797 144.598 38.0797 145.198C37.4797 159.798 36.9797 174.398 36.2797 188.898C36.1797 191.098 35.6797 193.298 35.3797 195.498C33.7797 205.698 37.0797 214.398 42.4797 222.298C48.6797 231.298 56.7797 237.798 65.6797 243.398C79.9797 252.398 95.3797 258.198 111.28 262.698C123.28 266.098 135.48 268.498 147.78 269.998C166.88 272.398 185.98 273.098 205.08 271.798C219.58 270.798 233.98 268.998 248.08 265.598C265.58 261.398 282.48 255.598 297.78 245.098C306.28 239.198 313.78 232.198 319.18 222.798C321.98 217.798 323.38 212.598 323.28 206.598C323.18 193.998 323.58 181.498 323.88 168.898C324.08 162.698 324.38 156.498 324.68 150.298C324.58 149.698 324.68 149.098 324.78 148.098Z" fill="white"/>
<path d="M4.27891 236.9C5.47891 239.9 6.57891 243 7.97891 245.9C13.3789 257.8 20.9789 267.8 29.8789 276.7C36.8789 283.6 44.5789 289.5 52.6789 294.9C66.4789 304 81.3789 310.2 96.6789 315.3C107.779 319 119.079 321.6 130.579 323.4C146.879 326 163.379 327.2 179.879 326.6C198.179 326 216.279 323.6 234.179 319.2C255.179 314 275.279 306.1 294.079 294.6C306.179 287.2 317.279 278.4 326.979 267.5C334.979 258.4 341.779 248.4 346.379 236.8C346.479 236.6 346.579 236.4 346.679 236.2C346.779 236.1 346.879 236.1 347.079 236C347.179 236.3 347.379 236.7 347.379 237C347.179 246.8 347.279 256.6 346.779 266.3C346.179 276.6 343.079 286.1 338.479 295.1C331.479 308.9 321.679 320.1 310.379 329.8C296.579 341.6 281.179 350.4 264.879 357.2C246.579 364.9 227.679 369.8 208.279 372.7C192.179 375.1 175.879 375.7 159.679 375.1C137.079 374.2 114.979 370.2 93.4789 362.8C84.0789 359.6 74.8789 355.8 66.0789 350.9C53.9789 344.2 42.2789 336.8 32.1789 326.7C22.5789 317.1 14.4789 306.3 9.37891 293.2C5.77891 284.1 3.97891 274.6 3.97891 264.7C3.97891 255.9 3.87891 247.2 3.87891 238.4C3.87891 237.9 3.97891 237.5 4.07891 237C4.07891 236.9 4.17891 236.9 4.27891 236.9Z" fill="white"/>
</g>
<g clip-path="url(#clip1)">
<path d="M169.237 184.857C170.244 184.857 170.82 184.857 171.395 184.857C171.539 184.857 171.827 184.714 171.827 184.857C172.977 186.152 174.991 186.871 175.279 188.74C175.855 192.91 176.43 197.08 176.862 201.25C177.293 205.276 177.581 209.447 178.013 213.473C178.444 218.506 179.02 223.539 179.307 228.715C179.451 231.304 179.307 233.892 179.307 236.48C179.595 236.48 179.739 236.48 180.027 236.624C180.602 235.186 181.321 233.892 181.753 232.31C182.616 229.29 183.192 226.271 184.199 223.251C185.206 220.231 186.357 217.355 187.507 214.336C188.371 212.035 189.378 209.59 190.241 207.29C192.974 199.956 195.564 192.479 198.441 185.145C199.016 183.563 200.023 181.838 201.894 181.406C203.045 182.7 204.195 183.707 204.915 185.001C205.49 185.864 205.634 187.158 205.778 188.165C206.066 189.603 206.209 191.041 206.209 192.479C206.353 195.498 206.497 198.518 206.785 201.538C207.073 205.276 207.648 209.015 207.936 212.754C208.224 216.349 208.08 219.8 208.224 223.395C208.367 227.133 208.367 230.872 208.655 234.611C208.799 238.062 209.231 241.513 209.518 244.82C209.662 245.971 209.95 247.265 210.094 248.415C210.094 249.278 210.238 250.285 209.806 250.716C209.231 251.291 208.08 251.291 207.216 251.579C206.785 251.723 206.353 251.579 205.922 251.723C204.483 252.154 203.045 251.291 203.045 249.853C202.469 243.095 201.894 236.193 201.318 229.434C200.887 224.401 200.599 219.225 200.311 214.192C200.167 211.603 200.167 209.015 200.023 206.427C200.023 206.139 199.88 205.852 199.448 204.989C198.297 208.728 197.434 212.035 196.139 215.342C194.844 218.649 193.262 221.957 191.967 225.264C190.385 229.147 189.09 233.029 187.651 236.912C186.357 240.363 185.206 243.958 183.911 247.409C183.623 248.128 182.76 248.559 182.472 249.278C181.897 250.285 181.465 251.291 181.321 252.442C181.034 254.742 180.314 255.318 177.869 255.318C177.437 255.318 177.006 255.318 176.718 255.461C174.991 255.893 173.553 255.174 173.409 253.304C172.977 248.99 172.69 244.533 172.258 240.075C171.827 235.761 171.395 231.447 171.107 227.133C170.963 225.552 171.251 224.114 171.251 222.532C171.251 218.218 171.395 213.76 170.963 209.447C170.676 205.995 169.525 202.4 169.381 198.949C169.381 196.649 168.662 194.492 168.518 192.191C168.374 190.178 168.662 188.021 168.805 186.008C168.949 185.289 169.237 185.001 169.237 184.857Z" fill="black"/>
<path d="M312.38 221.238C310.942 221.813 309.791 222.245 308.64 222.676C306.914 223.395 305.907 222.964 305.763 221.238C304.899 215.918 304.324 210.597 303.605 205.277C303.317 203.407 303.173 201.394 303.029 199.525C302.885 199.525 302.598 199.525 302.454 199.381C300.296 207.29 298.138 215.199 295.98 222.964C295.405 224.977 295.117 227.134 294.685 229.147C294.398 231.304 292.527 231.735 290.945 232.454C290.369 232.742 289.938 232.886 289.219 233.173C286.917 231.879 287.492 229.435 287.348 227.421C287.061 223.251 286.773 219.081 285.91 214.911C284.903 209.734 284.04 204.558 283.032 199.381C282.169 195.067 281.306 190.897 280.443 186.583C280.155 184.858 279.868 182.988 279.58 181.119C279.292 179.537 278.717 177.812 278.141 176.23C277.997 175.799 277.422 175.655 277.278 175.367C276.559 173.354 275.839 171.197 275.264 169.184C275.12 168.753 275.983 168.034 276.559 167.602C276.99 167.315 277.71 167.315 278.285 167.458C279.148 167.746 280.155 168.034 281.162 168.321C284.04 174.217 286.341 180.544 287.924 187.015C289.65 193.773 292.24 200.388 292.384 207.434C292.527 207.434 292.815 207.434 292.959 207.434C293.534 205.708 294.254 203.839 294.685 202.113C295.98 197.224 297.563 192.479 298.426 187.59C299.72 180.975 300.44 174.217 301.447 167.458C301.735 165.301 301.878 163.144 302.31 161.131C302.598 159.981 304.18 159.55 305.187 160.125C305.906 160.556 306.77 160.988 307.489 161.563C307.921 161.994 308.496 162.713 308.496 163.288C308.784 166.739 308.928 170.19 309.071 173.642C309.215 177.38 309.503 181.119 309.503 184.858C309.647 188.021 309.503 191.041 309.647 194.204C309.791 197.368 310.078 200.388 310.51 203.551C310.942 207.578 311.373 211.46 311.805 215.486C311.805 217.643 312.093 219.513 312.38 221.238Z" fill="black"/>
<path d="M71.6985 151.066C72.5617 151.785 73.281 152.504 74.288 152.935C76.3021 154.086 75.5828 155.955 75.4389 157.537C75.1512 159.55 74.4319 161.419 74.0003 163.433C73.4248 165.733 72.9932 168.178 72.5617 170.479C72.2739 171.917 72.5617 173.498 72.4178 174.936C72.1301 176.949 71.2669 178.963 71.5546 180.832C71.8424 182.989 70.9792 184.714 70.8353 186.584C70.8353 188.453 70.6915 190.466 70.4037 192.336C70.2599 194.205 69.6844 196.074 69.5406 197.944C69.3967 201.395 69.2528 204.846 69.3967 208.153C69.5406 213.761 69.9722 219.513 68.102 224.977C67.6704 226.415 67.0949 227.278 65.3686 227.134C64.7931 227.134 64.3616 227.134 63.7861 227.278C61.6282 227.566 61.3405 227.566 61.3405 225.553C61.1966 222.101 61.3405 218.507 61.6282 215.055C61.6282 214.049 62.6352 212.899 62.3475 211.892C61.772 209.879 62.2036 207.866 62.3475 205.852C62.4914 202.977 63.0668 200.244 63.3545 197.369C63.6422 194.636 63.7861 191.76 64.0738 189.028C64.0738 188.309 64.2177 187.59 64.3616 186.44C63.3545 186.871 62.4914 187.159 61.772 187.447C60.1896 188.022 58.6071 188.885 56.7369 188.022C55.8737 187.59 55.586 188.166 55.4421 189.028C55.1544 192.911 54.8667 196.793 54.579 200.676C54.2912 205.277 53.8597 210.023 53.5719 214.624C53.4281 215.918 53.1403 216.925 51.414 216.925C50.407 216.925 49.5438 217.356 48.5368 217.356C47.0982 217.356 46.235 216.781 46.3789 215.343C46.8104 211.317 47.0982 207.147 47.3859 203.12C47.5297 200.244 47.6736 197.512 47.8175 194.636C47.9613 192.192 48.3929 189.891 48.6806 187.447C49.1122 183.852 49.3999 180.257 49.9754 176.662C50.5508 172.923 51.414 169.328 51.9895 165.59C52.421 162.138 52.5649 158.687 52.9965 155.236C53.2842 152.217 53.8597 149.341 54.2912 146.465C54.2912 146.033 54.2912 145.602 54.2912 145.314C56.593 143.589 58.3194 144.883 59.9018 146.033C60.1896 146.321 60.4773 147.184 60.3334 147.471C59.4703 149.341 59.9018 151.354 59.758 153.223C59.758 153.511 59.758 153.798 59.758 154.086C59.3264 156.674 59.1825 159.406 58.6071 162.138C58.1755 164.152 57.8878 166.165 57.4562 168.178C57.0246 170.479 57.1685 172.923 57.0246 175.224C57.0246 175.799 57.0246 176.374 56.7369 176.949C56.0176 179.25 56.593 181.12 58.3194 183.133C60.6212 181.12 61.772 178.531 62.7791 175.943C63.7861 173.498 64.6493 170.91 65.3686 168.465C66.3756 164.727 67.2388 160.988 67.9581 157.106C68.2458 155.955 68.3897 154.805 68.5335 153.654C68.9651 152.073 69.8283 151.066 71.6985 151.066Z" fill="black"/>
<path d="M268.069 210.74C265.48 211.891 263.178 213.041 260.732 214.048C260.445 214.191 260.157 214.479 260.013 214.335C257.568 213.616 258.431 215.629 258.431 216.348C258.431 218.505 258.718 220.518 258.862 222.675C259.15 225.839 259.15 229.146 259.582 232.31C259.869 235.761 260.589 239.068 260.876 242.519C260.876 242.951 260.445 243.67 260.013 243.957C259.294 244.532 258.287 244.82 257.568 245.395C255.985 246.402 254.546 245.827 254.115 243.957C253.827 242.232 253.396 240.506 253.108 238.637C252.676 235.473 252.389 232.453 252.101 229.29C251.813 226.126 251.525 222.963 251.381 219.799C251.381 218.649 251.669 217.642 251.669 216.492C251.669 216.061 251.238 215.629 251.238 215.198C251.238 212.466 251.238 209.734 251.238 207.002C251.238 204.701 251.094 202.4 251.094 200.243C251.094 199.38 251.238 198.374 251.381 197.511C251.957 191.328 252.532 185.145 253.252 179.105C253.539 177.38 254.259 175.798 255.122 174.216C255.841 172.922 256.992 172.922 258.287 173.497C259.725 174.216 260.589 175.366 261.308 176.661C263.034 179.536 264.904 182.125 266.631 185.001C268.213 187.733 269.508 190.609 271.091 193.341C272.673 196.073 273.248 199.093 273.968 202.112C274.543 204.413 275.838 206.714 276.557 209.015C277.42 211.891 277.852 214.91 278.427 217.786C279.147 221.525 279.866 225.264 280.729 228.859C281.161 230.872 281.736 232.885 282.168 234.898C282.312 236.192 281.736 237.199 280.442 237.774C279.578 238.062 278.427 238.205 277.708 238.637C276.557 239.499 276.413 238.637 276.126 238.062C275.119 234.754 274.112 231.591 273.248 228.283C272.385 225.12 271.522 221.956 270.659 218.649C270.083 216.78 269.652 214.767 269.076 212.897C268.789 212.466 268.501 211.747 268.069 210.74ZM266.487 204.557C266.199 200.531 261.02 187.445 258.862 186.151C258.862 193.053 258.862 199.668 258.862 206.426C261.452 205.851 263.897 205.276 266.487 204.557Z" fill="black"/>
<path d="M111.405 175.944C109.678 186.729 110.685 197.801 110.973 208.874C111.98 206.573 112.987 204.416 113.85 202.115C115.289 198.52 116.728 194.782 118.166 191.043C119.029 188.886 119.605 186.585 120.612 184.572C121.187 183.565 122.338 182.703 123.057 181.984C124.065 182.559 124.784 182.846 125.647 183.422C126.654 183.997 127.661 184.716 127.229 186.01C126.366 188.886 125.503 191.618 124.496 194.494C123.777 196.795 122.914 199.095 121.907 201.252C120.324 204.847 118.454 208.442 116.871 212.181C116.584 212.9 116.152 213.619 116.008 214.194C117.735 215.632 119.461 216.782 120.612 218.364C122.914 221.671 125.935 224.691 126.942 228.861C127.517 231.162 128.668 233.175 129.387 235.476C129.819 236.626 129.819 238.064 129.963 239.215C130.107 239.934 130.107 240.796 130.107 241.515C130.394 243.816 130.826 245.973 131.114 248.274C131.114 248.849 130.826 249.28 130.682 249.999C129.675 250.431 128.38 250.862 127.229 251.293C125.503 251.869 124.64 251.437 124.352 249.712C124.065 247.267 123.921 244.823 123.633 242.378C123.345 239.79 122.914 237.345 121.763 235.044C121.187 233.894 121.331 232.456 120.9 231.306C120.18 229.58 119.029 228.142 118.31 226.417C117.303 223.972 115.433 222.103 113.275 220.665C112.987 220.377 111.692 220.809 111.549 221.096C111.117 222.678 110.829 224.404 110.685 225.985C110.542 227.998 110.542 230.155 110.542 232.312C110.685 235.62 110.973 238.927 111.117 242.234C111.117 243.241 111.117 244.247 110.973 245.254C110.973 245.685 110.542 246.117 110.254 246.261C108.959 246.692 107.664 247.267 106.37 247.123C105.794 247.123 104.787 245.829 104.643 245.11C104.212 241.372 104.068 237.633 103.924 234.038C103.636 230.155 103.348 226.273 103.205 222.39C103.061 218.796 103.061 215.201 103.061 211.606C103.061 207.004 102.773 202.547 103.205 197.945C103.636 194.063 103.061 190.18 103.78 186.298C104.212 183.709 104.068 181.121 104.499 178.533C104.787 176.951 105.363 175.369 105.938 173.931C106.37 173.068 108.815 173.356 109.678 174.219C109.966 174.938 110.685 175.369 111.405 175.944Z" fill="black"/>
<path d="M235.27 179.25C236.277 179.394 236.852 179.538 237.284 179.538C239.01 179.538 240.737 181.119 240.737 182.845C240.737 182.989 240.737 183.132 240.737 183.132C238.866 185.289 238.579 188.165 237.284 190.754C234.694 196.074 232.824 201.682 230.379 207.003C228.796 210.31 228.221 213.905 227.214 217.356C226.926 218.506 226.638 219.801 228.365 220.376C228.652 220.52 228.94 220.951 229.084 221.382C229.372 222.676 230.522 223.395 231.53 224.402C233.687 226.559 235.558 229.003 237.428 231.448C239.298 233.749 241.024 236.193 242.607 238.638C243.326 239.644 243.614 240.939 244.045 242.089C244.765 243.815 245.34 245.54 246.491 247.122C247.498 248.416 246.635 249.135 246.06 249.854C245.484 250.573 244.621 251.436 243.614 251.579C242.751 251.723 241.744 251.004 241.024 250.429C240.449 250.142 240.161 249.423 239.873 248.847C237.428 244.533 235.126 239.932 232.249 235.762C230.379 233.03 227.789 230.729 225.343 227.997C224.336 231.448 224.193 234.755 224.48 238.063C224.768 241.514 225.056 244.965 225.343 248.56C225.487 249.998 225.487 251.436 225.487 252.73C225.487 253.017 225.2 253.593 224.768 253.736C223.473 254.168 222.179 254.455 221.028 254.887C219.301 254.168 218.87 252.73 218.726 251.004C218.582 249.279 218.438 247.553 218.294 245.971C217.719 241.37 217.143 236.768 216.712 232.023C216.28 227.997 216.136 223.827 215.849 219.801C215.705 218.794 215.417 217.787 215.417 216.781C215.417 216.493 215.849 216.062 216.136 215.63C215.273 215.343 215.705 214.48 215.561 213.617C215.273 211.46 214.842 209.303 214.698 207.146C214.554 205.133 214.554 202.976 214.41 200.963C214.41 200.244 213.978 199.669 213.978 198.95C213.691 194.78 213.259 190.466 213.115 186.296C213.115 185.433 213.835 184.283 214.554 183.564C215.561 182.557 216.856 183.564 217.143 184.714C218.15 185.577 219.014 186.008 219.157 186.584C219.445 187.59 219.301 188.741 219.301 189.891C219.445 191.616 219.589 193.342 219.733 195.068C220.021 197.225 220.164 199.525 220.452 201.682C220.74 204.702 221.171 207.722 221.747 210.741C226.063 199.957 229.515 189.172 235.27 179.25Z" fill="black"/>
<path d="M138.45 255.173C138.306 254.022 138.162 252.584 138.018 251.29C137.731 248.845 137.155 246.545 137.011 244.1C136.867 241.943 137.011 239.786 137.011 237.629C137.011 235.329 137.155 233.028 137.155 230.727C137.299 227.851 137.299 224.831 137.443 221.956C137.587 218.648 137.731 215.197 138.306 212.034C138.881 208.726 138.738 205.275 139.888 201.968C141.039 198.661 141.183 194.922 142.19 191.615C143.053 189.026 144.348 186.438 145.787 183.993C146.218 183.131 147.225 182.124 148.664 182.843C148.952 182.987 149.096 183.274 149.239 183.562C149.383 183.706 149.383 183.993 149.383 184.137C149.671 183.993 149.815 183.85 150.246 183.562C150.534 183.993 150.822 184.425 150.966 184.856C151.973 186.869 152.98 189.026 153.987 191.039C154.275 191.615 154.418 192.334 154.706 193.053C155.713 194.922 156.72 196.791 157.583 198.517C158.015 199.236 158.159 200.242 158.447 200.961C159.166 202.974 160.173 204.988 160.748 207.145C161.612 210.164 162.187 213.328 162.762 216.491C163.769 220.949 164.776 225.407 165.784 229.864C166.503 233.315 167.366 236.767 167.654 240.218C168.085 243.813 168.085 247.408 168.229 251.002C168.373 253.735 167.798 254.31 164.92 254.022C164.776 254.022 164.489 254.166 164.345 254.31C162.906 255.46 162.187 255.316 161.899 253.735C161.468 251.578 161.18 249.277 161.18 246.976C161.324 242.662 160.173 238.636 159.454 234.466C158.734 230.296 157.871 226.126 157.008 221.956C156.289 218.648 155.713 215.341 154.85 212.177C153.987 208.726 152.836 205.275 151.685 201.824C151.253 200.386 150.534 199.092 149.815 197.798C149.671 197.51 149.096 197.366 148.808 197.079C148.52 197.51 148.232 197.798 148.089 198.229C147.513 201.537 146.794 204.844 146.362 208.151C145.787 211.89 145.211 215.629 144.924 219.367C144.492 224.113 144.348 229.002 144.204 233.747C144.06 237.198 143.917 240.793 144.06 244.244C144.204 246.976 144.636 249.564 145.067 252.153C145.499 255.029 143.053 256.61 140.176 255.604C139.601 255.46 139.169 255.316 138.45 255.173Z" fill="black"/>
<path d="M93.5646 239.356C91.8382 238.781 91.5505 237.486 91.5505 235.905C91.6944 234.035 91.4067 232.31 91.2628 230.44C91.1189 227.996 91.1189 225.551 91.1189 222.963C91.1189 219.943 91.1189 216.924 90.9751 213.904C90.9751 213.616 90.8312 213.185 90.5435 213.041C88.0978 211.747 86.2276 209.59 83.2065 209.446C82.4872 209.446 81.7679 209.015 80.9048 208.727C80.617 210.453 80.3293 212.322 80.1855 214.191C79.8977 217.355 79.7539 220.518 79.3223 223.682C79.1784 224.401 79.1784 224.976 79.1784 225.839C79.3223 228.14 79.1784 230.44 79.0346 232.741C79.0346 233.604 78.4591 234.179 77.1644 233.748C76.5889 233.46 75.7257 233.748 75.0064 233.748C73.1362 233.604 72.4169 233.029 72.5608 231.303C72.7046 225.983 72.8485 220.662 73.2801 215.342C73.7117 210.453 74.1433 205.42 75.0064 200.531C76.0135 194.923 77.4521 189.459 79.0346 183.994C79.7539 181.406 81.1925 179.105 82.3434 176.517C83.0627 174.647 83.6381 172.778 84.5013 170.909C84.9329 170.046 85.6522 169.183 86.5154 168.608C87.5224 168.033 88.2417 169.183 89.1049 169.471C91.2628 170.19 91.2628 171.772 91.5505 173.497C91.9821 175.654 92.7014 177.667 93.2769 179.68C94.14 182.844 95.1471 186.151 95.5786 189.459C96.2979 195.786 96.7295 202.113 97.305 208.44C97.5927 211.603 97.8804 214.767 97.8804 218.074C97.8804 221.525 97.5927 224.976 97.7366 228.571C97.7366 230.872 98.1681 233.316 98.5997 235.617C99.0313 237.774 97.8804 239.068 95.5786 239.212C94.7155 238.781 94.14 239.212 93.5646 239.356ZM87.5224 181.406C87.3785 181.406 87.2347 181.262 86.9469 181.262C86.6592 181.981 86.2276 182.7 86.0838 183.419C85.7961 184.713 85.6522 186.007 85.0767 187.158C83.3504 191.472 82.4872 195.929 82.0557 200.531C81.9118 201.537 82.1995 201.825 83.0627 202.256C84.789 203.119 86.3715 204.27 87.954 205.132C88.5294 205.42 89.2487 205.707 90.1119 206.139C90.2558 197.655 89.1049 189.459 87.5224 181.406Z" fill="black"/>
<path d="M169.381 303.057C171.395 305.789 173.266 307.946 174.992 310.391C175.711 311.397 176.143 312.692 176.287 313.986C176.431 314.417 175.855 315.28 175.28 315.568C174.417 315.999 173.266 315.999 172.402 316.143C172.259 316.143 172.115 315.999 172.115 315.999C172.69 314.273 169.957 314.561 169.957 312.835C169.957 311.973 168.23 311.11 167.367 310.103C165.785 308.234 164.202 306.365 162.62 304.495C162.044 303.776 161.469 303.057 161.325 302.195C161.037 301.188 160.894 299.894 161.325 298.887C161.613 297.881 162.476 297.449 163.915 297.305C166.216 297.305 168.662 296.73 170.82 296.011C172.115 295.58 173.122 294.286 173.985 293.135C177.006 289.397 180.027 285.514 183.048 281.632C183.768 280.625 184.775 279.906 185.494 279.043C186.932 277.605 188.083 277.605 189.666 279.043C190.385 279.619 191.536 279.906 192.111 280.481C193.119 281.632 193.982 283.07 194.701 284.364C196.571 287.383 198.585 290.259 200.168 293.279C200.599 294.142 201.175 294.286 201.75 294.142C203.908 293.998 206.21 293.854 208.368 293.711C209.231 293.711 210.238 293.711 210.813 293.711C211.245 295.005 211.533 296.155 212.108 297.018C212.828 298.168 212.54 299.031 211.533 299.462C210.382 299.894 210.094 300.757 209.663 301.763C207.936 305.358 206.21 308.953 204.196 312.404C203.908 312.835 203.045 313.123 202.47 313.267C201.319 313.267 198.298 310.966 198.298 309.96C198.298 308.953 198.729 307.803 199.161 306.796C199.736 305.502 200.455 304.351 201.031 303.057C201.462 302.051 201.031 301.476 200.024 301.476C198.298 301.476 196.715 301.619 194.989 301.619C188.947 301.907 182.904 302.051 177.006 302.338C176.574 302.338 175.855 302.77 175.567 303.057C174.417 304.208 173.122 304.351 171.827 303.345C171.108 303.201 170.245 303.201 169.381 303.057ZM189.378 284.795C186.501 288.678 183.911 291.985 181.322 295.436C181.322 295.58 181.466 295.867 181.466 296.011C186.213 295.724 190.961 295.58 196.14 295.292C193.694 291.697 191.68 288.39 189.378 284.795Z" fill="black"/>
<path d="M132.12 284.507C134.997 284.651 137.586 284.794 140.032 284.938C142.909 285.226 145.786 285.37 148.52 285.657C149.383 285.801 149.815 286.376 150.102 287.239C150.534 288.533 151.109 289.827 150.246 291.121C150.102 291.409 149.671 291.984 149.527 291.984C148.376 291.553 146.937 292.991 145.786 291.553C145.643 291.409 145.355 291.409 145.211 291.409C140.895 291.121 136.723 290.978 132.407 290.69C131.4 290.69 130.249 290.546 129.242 290.259C127.804 289.827 127.228 290.834 126.509 291.697C125.07 293.566 123.632 295.292 122.049 297.305C122.337 298.455 123.056 298.167 124.207 298.311C127.804 298.599 131.4 299.03 134.997 299.462C136.435 299.605 138.018 299.893 139.457 300.181C140.751 300.468 142.19 300.9 143.485 301.331C143.772 301.331 143.916 301.619 144.06 301.906C144.348 302.769 144.779 303.344 145.786 303.775C146.937 304.351 146.218 306.939 144.779 307.083C143.197 307.37 141.471 307.514 140.032 306.939C138.449 306.364 136.867 306.508 135.141 306.364C133.414 306.22 131.544 305.932 129.818 305.789C129.53 305.789 129.242 305.789 128.811 305.932C127.66 306.076 126.509 306.22 125.646 305.213C125.358 304.782 124.495 304.638 123.919 304.782C122.769 304.782 121.618 305.213 120.467 305.213C119.028 305.213 117.446 305.213 116.007 305.07C115.432 304.926 115 304.351 114.425 303.919C114.281 303.776 114.137 303.488 113.849 303.344C111.835 302.769 111.691 302.625 112.411 300.756C113.705 296.873 116.583 293.854 119.028 290.69C121.618 287.383 123.919 283.932 126.365 280.48C127.372 279.043 128.379 277.605 129.386 276.167C129.962 275.304 130.537 274.297 131.113 273.434C131.4 273.147 131.976 272.859 132.407 273.003C136.579 273.291 140.751 273.722 144.923 274.01C147.8 274.153 150.822 274.153 153.699 274.297C156.001 274.297 156.576 274.872 157.151 277.173C157.439 278.324 158.015 279.618 156.288 280.193C156.001 280.337 155.713 280.48 155.281 280.48C151.829 280.48 148.376 280.48 145.067 280.337C142.478 280.193 139.744 279.905 137.155 279.905C135.86 279.905 134.565 280.193 133.846 281.631C133.558 282.35 132.839 283.213 132.12 284.507Z" fill="black"/>
<path d="M77.5978 291.265C76.7346 291.984 75.7276 291.553 74.8644 290.834C74.7205 290.69 74.4328 290.546 74.1451 290.402C71.4117 289.396 71.124 288.246 73.138 286.089C77.1662 281.918 81.3382 277.892 85.7979 274.01C87.5242 272.428 88.819 270.559 90.5453 268.977C91.2646 268.258 91.9839 267.683 92.8471 267.251C94.7173 266.245 96.5875 265.094 99.0331 265.67C101.623 266.245 104.212 266.82 106.802 267.395C109.535 267.826 112.125 268.114 114.858 268.689C115.865 268.833 117.447 268.545 117.735 270.271C117.879 270.559 118.454 270.702 118.598 270.702C118.886 271.709 119.174 272.572 119.174 273.291C119.174 274.01 119.318 275.16 118.886 275.591C118.311 276.167 117.016 276.31 116.153 276.167C113.707 275.591 111.261 274.729 108.672 274.153C105.363 273.435 101.91 272.859 98.6015 272.284C98.0261 272.14 97.1629 272.428 96.7313 272.859C95.5805 273.866 94.7173 275.016 93.4225 276.31C96.1559 276.31 98.0261 276.598 99.3208 278.324C99.4647 278.611 99.8963 278.611 100.184 278.755C101.191 279.33 102.198 280.049 103.349 280.624C103.924 280.912 104.644 281.2 105.363 281.487C105.363 281.775 105.363 282.206 105.363 282.494C105.938 282.781 106.514 282.925 106.946 283.356C109.679 286.089 110.11 292.559 107.089 294.86C105.507 296.154 102.917 296.298 100.759 296.873C96.8752 297.736 92.9909 296.442 89.2505 296.011C87.8119 295.867 86.5172 295.004 85.2224 294.429C84.7908 294.285 84.5031 294.141 84.0715 293.997C82.6329 293.71 81.1943 293.422 79.7557 292.991C78.8925 292.703 78.3171 291.984 77.5978 291.265ZM103.349 288.821C102.63 288.246 101.623 287.67 101.191 286.808C100.184 284.794 98.17 284.651 96.4436 284.075C94.2857 283.213 92.1278 282.637 89.826 281.918C90.1137 281.631 90.4014 281.343 90.833 280.768C89.3944 281.056 88.2435 280.912 87.6681 281.487C85.654 283.069 83.9277 284.938 81.6259 286.951C83.2084 287.239 84.2154 287.527 85.3663 287.814C87.6681 288.533 89.9698 289.396 92.2716 289.971C94.5734 290.402 97.0191 290.546 99.3208 290.546C100.903 290.402 102.63 290.834 103.349 288.821Z" fill="black"/>
<path d="M258.576 272.286C259.008 274.155 259.439 275.737 259.583 277.319C259.583 279.332 259.583 281.489 259.152 283.502C258.432 287.097 257.281 290.548 256.562 294.143C255.987 296.875 254.26 299.032 252.39 300.758C250.232 302.771 247.786 304.64 245.053 305.934C243.327 306.797 241.025 306.509 239.011 306.653C237.86 306.797 236.565 306.941 235.414 306.941C233.688 306.797 232.106 306.653 230.379 306.366C228.653 306.078 226.927 305.647 225.2 305.215C224.912 305.072 224.481 305.072 224.337 304.928C223.618 303.777 222.898 302.483 222.179 301.333C221.604 300.039 223.042 298.457 224.769 298.601C225.2 298.601 225.776 298.601 226.063 298.888C228.077 300.182 230.523 300.47 232.825 300.614C235.127 300.758 237.86 301.189 239.73 300.326C241.457 299.463 243.614 300.47 244.909 298.601C245.485 297.738 246.923 297.163 247.355 296.156C248.793 293.568 250.664 291.123 250.376 287.96C250.376 287.816 250.232 287.528 250.232 287.241C248.074 288.535 246.06 289.973 243.758 291.123C242.464 291.842 241.025 292.13 239.586 292.561C233.976 294.143 229.66 291.555 225.488 288.535C224.912 288.104 224.193 287.816 223.905 287.385C222.898 285.947 221.891 284.653 221.316 283.071C220.884 281.92 221.172 280.626 221.172 279.332C221.172 278.757 221.316 278.038 221.604 277.463C222.035 276.6 222.467 275.593 223.762 276.744C223.905 276.888 224.625 276.744 225.056 276.744C226.639 276.744 227.502 277.606 227.646 279.044C227.79 280.482 228.077 282.064 228.509 283.502C228.653 283.934 229.084 284.365 229.516 284.509C231.242 284.94 233.113 285.515 234.839 285.515C236.278 285.515 237.716 284.94 239.299 284.796C242.895 284.652 245.053 282.639 246.923 280.051C248.65 277.75 249.944 275.306 250.664 272.43C250.951 271.423 252.39 270.56 253.541 270.129C254.548 269.698 255.843 269.698 256.706 270.992C257.425 271.567 258.288 271.998 258.576 272.286Z" fill="black"/>
<path d="M306.193 143.446C306.481 143.158 306.769 142.871 306.912 142.583C307.919 143.733 307.632 145.459 306.193 146.466C302.74 148.622 299.432 150.923 295.979 153.08C295.116 153.655 294.109 154.231 293.246 154.662C290.944 155.812 289.505 157.394 289.074 159.982C289.793 160.27 290.656 160.701 291.375 160.989C292.095 162.714 290.8 163.865 289.361 163.721C287.635 163.721 285.765 163.146 284.47 161.708C284.182 161.42 283.895 161.277 283.607 160.989C282.887 160.27 281.593 159.839 281.449 158.976C281.161 157.25 281.737 155.525 283.175 154.374C284.902 152.793 286.916 151.355 288.786 150.06C291.663 148.047 294.828 146.178 297.705 144.309C298.856 143.59 300.151 142.727 301.302 141.864C303.316 140.282 305.474 141.001 306.193 143.446Z" fill="black"/>
</g>
<defs>
<clipPath id="clip0">
<rect x="0.378906" width="352.2" height="378.4" fill="white"/>
</clipPath>
<clipPath id="clip1">
<rect x="46.3789" y="141" width="266" height="175" fill="white"/>
</clipPath>
</defs>
</svg>
