<?xml version="1.0" encoding="utf-8"?>
<!-- Generator: Adobe Illustrator 23.0.5, SVG Export Plug-In . SVG Version: 6.00 Build 0)  -->
<svg version="1.1" id="Слой_1" xmlns="http://www.w3.org/2000/svg" xmlns:xlink="http://www.w3.org/1999/xlink" x="0px" y="0px"
	 viewBox="0 0 685.5 543.6" style="enable-background:new 0 0 685.5 543.6;" xml:space="preserve">
<style type="text/css">
	.st0{fill:#FFFFFF;}
</style>
<title>Ресурс 5cat_first</title>
<g>
	<g id="Слой_1-2">
		<path class="st0" d="M471.4,115.5c-0.4-4.9-0.1-9.9,0.6-14.8c0.6-4.5,0.3-9.1,0.4-13.6c0.2-13.9,0.3-27.7,0.6-41.6
			c0.1-6.1,0.8-12,3.2-17.7c1.3-3.1,2-6.3,3.3-9.4c0.7-1.4,1.6-2.6,2.7-3.8c1.1-1.4,2.5-2.7,3.6-4.1c2.1-2.6,5-3.1,8-3.3
			c8.4-0.5,16.1,1.9,23.4,5.7c6.9,3.6,12.9,8.8,17.5,15.1c2.6,3.6,5.5,7.1,8.2,10.7c1.4,1.9,2.4,4,3.7,5.9c2.5,3.5,5.3,6.8,7.9,10.2
			c1.5,2,3.2,2.4,5.6,2.1c11.8-1.2,23.6-0.4,35.4,1c1.1,0.1,2.2,0.2,3.3,0.4c1.8,0.4,3-0.3,4-1.8c7.6-11.3,15.2-22.5,22.9-33.7
			c4.3-6.3,10.6-10,17.4-12.9c3.2-1.4,6.9-1.3,10,0.5c10.6,5.7,19.5,13.1,23.9,24.8c1,2.9,1.7,5.9,2.1,9c0.8,5.3,1.3,10.6,1.5,16
			c0,12.6,2.1,25,2.4,37.5c0.4,16.5-1.5,32.7-7.8,48.3c-3.1,7.6-5.2,15.7-8.2,23.3c-3.7,9.2-7.9,18.2-11.8,27.3
			c-2.6,6-4.8,12.2-7.8,18c-4.7,9.2-9.4,18.5-15.4,27c-2.2,3.2-5,5.9-8.3,8c-0.5,0.3-1,0.7-1.4,1.2c-7,7.7-16,11.7-26,13.4
			c-9.2,1.5-18.5,1.6-27.7,0.1c-5.9-1-11.6-3.4-16.3-7.1c-10.1-7.6-19.6-16.1-28.4-25.3c-3.4-3.6-6.3-7.8-9.3-11.7
			c-3.8-5-7.8-9.8-11.1-15.1c-3.5-5.5-6.3-11.4-9.3-17.2c-6.5-12.5-10.5-25.9-14.5-39.4c-1.2-4.1-3-8-4.5-12
			C472.5,129.7,471.2,122.7,471.4,115.5z M548.9,78.5c-2.8-5.2-5.7-10.7-8.7-16.1c-3.8-6.9-7.8-13.8-13-19.8
			c-3.1-3.6-6.9-4.8-11.5-4.6c-5.6,0.4-11.1,1.5-16.4,3.4c-1.8,0.6-3.4,1.6-4.8,2.8c-3.2,2.9-5.4,6.9-6.2,11.2
			c-1.4,7.2-1.4,14.6-0.2,21.9c2.1,15,5.3,29.8,9.5,44.3c3,10,5.8,20.1,10.3,29.6c2.6,5.5,5,11,8.8,15.8c1.7,2.3,3.2,4.8,4.5,7.4
			c2.6,5.3,5.8,10.3,9.6,14.9c2,2.3,3.7,4.9,5.7,7.2c3.2,3.8,6.2,8,10,11.1c10.1,8.2,22.7,12.6,35.7,12.2c7.9-0.1,15.3-1.6,21.6-6.3
			c7.1-5.1,13.3-11.3,18.4-18.4c9-12.6,15.7-26.6,20.1-41.4c1.7-5.7,2.4-11.7,3.9-17.5c3.3-12.5,6.2-25.2,9.1-37.8
			c2.6-11.1,4.1-22.1,3.1-33.5c-0.3-2.7-1-5.3-2.3-7.7c-1.1-2.2-2.9-4-4.5-6c-2.9-3.7-6.6-6.6-10.8-8.7c-1-0.5-2.1-0.5-3.1-0.2
			c-4.7,2.7-9.3,5.4-13.1,9.3c-7.3,7.8-13.9,16.1-19.8,25c-1.5,2.2-3,2.7-5.6,2.5c-10.1-0.8-20.2-1.7-30.4-2
			C562.4,77.2,555.8,78.1,548.9,78.5z"/>
		<path class="st0" d="M553.6,141c0.4-2.7,0.7-5.4,1.3-8c0.5-2.2,1.9-4.1,3.8-5.2c0.9-0.5,1.8-1.2,2.6-1.8c5-4,10.7-4.8,16.8-3.4
			c7.5,1.7,14.6,5,20.8,9.6c3.6,2.6,5.6,6.9,5.1,11.3c-0.5,6.4-2.5,12.6-5.9,18c-2.8,4.8-8,7.6-13.5,7.3c-7.9,0-15.7-1.9-22.7-5.6
			c-2.8-1.5-4.8-4.1-5.6-7.1C554.9,151.2,553.9,146.1,553.6,141z"/>
	</g>
</g>
</svg>
