<?xml version="1.0" encoding="utf-8"?>
<!-- Generator: Adobe Illustrator 23.0.5, SVG Export Plug-In . SVG Version: 6.00 Build 0)  -->
<svg version="1.1" id="Слой_1" xmlns="http://www.w3.org/2000/svg" xmlns:xlink="http://www.w3.org/1999/xlink" x="0px" y="0px"
	 viewBox="0 0 685.5 543.6" style="enable-background:new 0 0 685.5 543.6;" xml:space="preserve">
<style type="text/css">
	.st0{fill:#FFFFFF;}
</style>
<g>
	<g>
		<g id="Слой_1-2_3_">
			<path class="st0" d="M240.2,330.7c-0.2-2.4-0.1-4.8,0.3-7.1c0.3-2.1,0.1-4.4,0.2-6.5c0.1-6.7,0.2-13.3,0.3-20
				c0.1-2.9,0.4-5.8,1.5-8.5c0.6-1.5,1-3,1.6-4.5c0.3-0.7,0.8-1.3,1.3-1.8c0.6-0.7,1.2-1.3,1.7-2c1-1.2,2.4-1.5,3.8-1.6
				c4-0.3,7.7,0.9,11.2,2.8c3.3,1.7,6.2,4.2,8.4,7.2c1.3,1.8,2.7,3.4,3.9,5.1c0.7,0.9,1.1,1.9,1.8,2.8c1.2,1.7,2.6,3.3,3.8,4.9
				c0.7,1,1.5,1.1,2.7,1c5.7-0.6,11.3-0.2,17,0.5c0.5,0.1,1.1,0.1,1.6,0.2c0.9,0.2,1.4-0.1,1.9-0.9c3.6-5.4,7.3-10.8,11-16.2
				c2.1-3,5.1-4.8,8.4-6.2c1.5-0.7,3.3-0.6,4.8,0.2c5.1,2.7,9.4,6.3,11.5,11.9c0.5,1.4,0.8,2.8,1,4.3c0.4,2.5,0.6,5.1,0.7,7.7
				c0,6,1,12,1.2,18c0.2,7.9-0.7,15.7-3.7,23.2c-1.5,3.7-2.5,7.5-3.9,11.2c-1.8,4.4-3.8,8.7-5.7,13.1c-1.2,2.9-2.3,5.8-3.7,8.6
				c-2.3,4.4-4.5,8.9-7.4,13c-1,1.5-2.4,2.9-4,3.8c-0.2,0.2-0.5,0.4-0.7,0.6c-3.4,3.7-7.7,5.6-12.5,6.4c-4.4,0.7-8.9,0.8-13.3,0.1
				c-2.9-0.5-5.5-1.6-7.8-3.4c-4.9-3.7-9.4-7.7-13.6-12.2c-1.6-1.7-3-3.7-4.5-5.6c-1.8-2.4-3.7-4.7-5.3-7.3c-1.7-2.6-3-5.5-4.5-8.3
				c-3.1-6-5.1-12.4-6.9-18.9c-0.6-2-1.4-3.8-2.2-5.8C240.8,337.5,240.1,334.1,240.2,330.7z M277.4,312.9c-1.3-2.5-2.7-5.1-4.2-7.7
				c-1.8-3.3-3.7-6.6-6.2-9.5c-1.5-1.7-3.3-2.3-5.5-2.2c-2.7,0.2-5.3,0.7-7.9,1.6c-0.8,0.3-1.6,0.8-2.3,1.4c-1.6,1.4-2.6,3.3-3,5.4
				c-0.7,3.5-0.7,7-0.1,10.5c1,7.2,2.5,14.3,4.6,21.3c1.4,4.8,2.8,9.7,5,14.2c1.2,2.6,2.4,5.3,4.2,7.6c0.8,1.1,1.5,2.3,2.1,3.5
				c1.2,2.6,2.8,5,4.6,7.2c1,1.1,1.8,2.3,2.7,3.4c1.6,1.8,3,3.8,4.8,5.3c4.8,3.9,10.9,6,17.2,5.9c3.8-0.1,7.3-0.8,10.4-3
				c3.4-2.4,6.4-5.4,8.8-8.8c4.3-6,7.6-12.7,9.6-19.9c0.8-2.7,1.1-5.6,1.9-8.4c1.6-6,3-12.1,4.4-18.1c1.2-5.3,2-10.6,1.5-16.1
				c-0.1-1.3-0.5-2.5-1.1-3.7c-0.5-1.1-1.4-1.9-2.1-2.9c-1.4-1.8-3.2-3.2-5.2-4.2c-0.5-0.2-1-0.3-1.5-0.1c-2.2,1.3-4.5,2.6-6.3,4.5
				c-3.5,3.7-6.7,7.7-9.5,12c-0.7,1.1-1.4,1.3-2.7,1.2c-4.9-0.4-9.7-0.8-14.6-1C283.9,312.3,280.7,312.7,277.4,312.9z"/>
			<path class="st0" d="M279.7,342.9c0.2-1.3,0.3-2.6,0.6-3.8c0.2-1.1,0.9-2,1.8-2.5c0.4-0.3,0.9-0.6,1.2-0.9
				c2.4-1.9,5.1-2.3,8.1-1.7c3.6,0.8,7,2.4,10,4.6c1.7,1.2,2.7,3.3,2.4,5.4c-0.2,3.1-1.2,6-2.8,8.6c-1.3,2.3-3.8,3.6-6.5,3.5
				c-3.8,0-7.5-0.9-10.9-2.7c-1.3-0.7-2.3-1.9-2.7-3.4C280.3,347.8,279.8,345.4,279.7,342.9z"/>
		</g>
	</g>
</g>
</svg>
