<svg width="439" height="260" viewBox="0 0 439 260" fill="none" xmlns="http://www.w3.org/2000/svg">
<rect x="0.730469" y="51.0781" width="415.678" height="210.445" transform="rotate(-7.05854 0.730469 51.0781)" fill="#FF7B7B"/>
<path d="M68.1229 184.403L74.9793 183.879L80.4258 117.667L139.344 113.165L144.341 178.58L150.4 178.117L150.688 214.424L133.069 215.77L131.64 197.069L89.5445 200.285L90.9733 218.986L73.4335 220.326L68.1229 184.403ZM94.7515 182.368L124.091 180.127L120.424 132.129L98.4193 133.811L94.7515 182.368Z" fill="white"/>
<path d="M175.183 190.755C172.378 188.332 170.827 185.167 170.528 181.261C170.226 177.302 171.276 173.911 173.681 171.091C176.08 168.216 179.247 166.629 183.18 166.328C187.113 166.028 190.484 167.116 193.293 169.592C196.098 172.015 197.652 175.206 197.954 179.166C198.253 183.072 197.2 186.436 194.796 189.257C192.391 192.077 189.223 193.638 185.29 193.939C181.357 194.239 177.988 193.178 175.183 190.755Z" fill="white"/>
<path d="M217.512 117.123L215.801 94.7299L247.778 72.4269L256.787 71.7387L265.58 186.836L245.011 188.407L238.431 102.285L217.512 117.123Z" fill="white"/>
<path d="M284.114 153.369L303.604 149.216C307.169 160.192 313.762 165.313 323.382 164.578C328.697 164.172 332.896 162.102 335.979 158.368C339.111 154.577 340.454 149.765 340.008 143.932C339.514 137.458 337.459 132.609 333.845 129.387C330.28 126.107 325.84 124.67 320.524 125.076C317.016 125.345 313.758 126.428 310.749 128.326L301.74 117.47L320.991 86.0476L284.556 88.8312L283.097 69.7286L348.632 64.7218L349.19 72.0257L325.038 110.684C326.989 110.32 328.495 110.097 329.558 110.016C338.275 109.35 345.426 111.979 351.011 117.903C356.595 123.828 359.776 131.873 360.553 142.04C361.448 153.758 358.523 163.4 351.777 170.966C345.031 178.532 336.05 182.744 324.835 183.6C314.365 184.4 305.386 181.992 297.9 176.374C290.41 170.703 285.815 163.035 284.114 153.369Z" fill="white"/>
</svg>
