<svg xmlns="http://www.w3.org/2000/svg" viewBox="0 0 646.61 781.76"><defs><style>.cls-1{fill:#fff;}</style></defs><title>Ресурс 3</title><g id="Слой_2" data-name="Слой 2"><g id="Слой_1-2" data-name="Слой 1"><path d="M646.41,188.12c0,5.92,0,17.24,0,28.57,0,1.2.19,4.32.19,4.32s-.2,3.55-.23,4.19c-1.16,23.21-.12,43.15-2.29,66.26-2,20.94-5.39,41.77-9,62.51-6.45,37-13.79,73.94-20.23,111-6,34.68-17.76,67.47-31.36,99.73-5.13,12.18-10.11,24.43-14.8,36.79-7.27,19.11-18,36.15-30.48,52.17-19.33,24.76-41.1,46.93-67,64.93a342.9,342.9,0,0,1-69.28,36.8c-18.38,7.3-36.85,14.48-55.61,20.71-20.55,6.82-41.78,6.93-63,3.25-15.66-2.72-31.24-5.83-46.86-8.72a127,127,0,0,1-44.32-17.37c-9-5.62-18.65-10.25-28.11-15.15a111.59,111.59,0,0,1-37.54-31.5C112.65,688.71,99,670.66,89.67,650c-7.86-17.41-14.74-35.3-21.19-53.29-15.17-42.32-26.7-85.76-38.64-129.06a769.07,769.07,0,0,1-19.32-93.56c-4.14-28.35-7.79-56.77-9.45-85.39-1.73-29.9-1.75-59.8,2.92-89.5,3.35-21.29,7-42.53,10.69-63.76,2.73-15.82,5.79-31.59,8.56-47.41,3.1-17.65,9.69-34,17.93-49.8,3.41-6.55,7.26-12.73,13-17.55,9-7.61,19.74-10.51,31.27-10.59C102.51,10,119,13.69,135,19.28c28.31,9.88,51.81,26.91,71.92,48.9A282.81,282.81,0,0,1,232.26,101a23.72,23.72,0,0,1,2.71,4.76c4.51,12.06,13.54,17.29,26,17,10.58-.23,21.14-1,31.71-1.29,25.9-.73,51.8-1.68,77.7-1.81,9.67,0,16.73-2.81,23.12-10.39,15.71-18.65,32.25-36.61,48.4-54.88,17.06-19.3,36.31-35.94,58.71-48.83C509.83.21,519.81-.54,530.09.28c27.61,2.2,49.74,15,66.62,36.34a293.53,293.53,0,0,1,41,69.73c4.67,11.3,6.11,23.29,6.65,35.41C644.94,155.41,645.55,169.05,646.41,188.12ZM93.77,455.21l-.62.17c.92,3.6,1.78,7.23,2.76,10.82,11.7,42.94,23.67,85.79,38.4,127.82,13.15,37.53,30.36,72.77,56.54,103.16,8,9.3,15.85,18.73,26.43,25.26,6.65,4.1,13.65,7.65,20.2,11.91,13.42,8.72,27,17.07,42,22.92,12.44,4.86,25.37,7.35,38.36,3.39,10.36-3.16,20.85-6.84,30.19-12.19,15.94-9.13,31.14-19.58,46.42-29.82a249.68,249.68,0,0,0,24.86-18.43c7.14-6.19,13.31-13.52,19.81-20.43,9.25-9.82,18.64-19.52,27.56-29.63,13.76-15.61,25.85-32.48,34.39-51.54,7.1-15.85,13.65-32,20.07-48.11,11.12-28,23.13-55.61,30.45-84.94.89-3.61,2-7.15,3-10.72l-.53-.56c-17.74,11.46-35.35,23.17-55.5,30.34.15-.93.37-2,.51-3,1.41-10.64,3.33-21.24,4.12-31.93,2.29-31.35-2-61.95-11.63-91.84-8.84-27.49-21.65-53.1-36.68-77.66-3.55-5.81-7.24-11.54-10.95-17.43,2-.95,3.86-1.86,5.74-2.73,18-8.39,36.29-15.84,55.55-20.75,24.56-6.26,49.29-7.76,74.25-2.7,5.35,1.09,10.63,2.53,16.1,3.84V156.5a4.3,4.3,0,0,0-.39.79c-.14.57-.24,1.14-.34,1.71-1.53,8.27-4.07,16.13-9.37,22.86-11.88,15.08-35,21.69-54.13,15.49-11.07-3.6-20.37-10-29-17.67-6.7-5.92-7.6-10.18-3.38-18q14.19-26.22,28.48-52.4a185.72,185.72,0,0,1,10.18-17.16c4.65-6.64,11.47-8,18.76-4.5a43.26,43.26,0,0,1,5.36,3.19c17.8,11.89,30,27.4,32.14,49.5.12,1.35.94,2.64,1.44,4l.94-.15c.19-4.13.69-8.28.5-12.4-.48-10.48-1.07-21-2-31.42-.95-10.92-3.26-21.58-8.41-31.39a16.7,16.7,0,0,0-13.3-9.39c-2.31-.28-4.63-.62-7-.75-15.59-.93-29.66,3-40.11,15a165.83,165.83,0,0,0-17.93,24.86c-4.74,8.13-8.17,17.09-11.58,25.92-6.92,17.91-13.46,36-20.12,54-2.66,7.2-7.15,12.72-14.3,15.83a60.86,60.86,0,0,1-21,5.1c-21.69,1.25-41.08-6.22-59.57-16.42-7.12-3.93-10.43-10.54-9.71-18.87.06-.8,0-1.6,0-2.45h-104c.16.57.24,1,.37,1.33,4,10.76,8.06,21.49,12,32.27,3.16,8.67,6.43,17.32,9.16,26.13,2.2,7.13,0,11.81-6.32,15.61a84.69,84.69,0,0,1-7.9,4.27c-15.27,7-31,9.25-47,3.08a142.35,142.35,0,0,1-47.43-30.37c-18.62-17.84-31.13-39.47-39.32-63.76-6.84-20.31-9.69-41.44-13-62.48-1.63-10.35-2.79-20.8-6.44-30.73-1.36-3.69-2.59-7.43-4-11.35-9.42,6.61-17.3,14.1-22.41,24.19-3.94,7.76-5.44,16.25-7.13,24.61C82.73,122.8,77.07,151,71.83,179.33c-5.53,29.88-8.95,60-6.46,90.44.55,6.77,1,13.55,1.56,20.27.28.06.39.11.44.08.81-.58,1.62-1.15,2.42-1.76,15.14-11.55,32.07-16.89,51.17-14.93,12,1.23,23.46,4.69,34.68,9,6.1,2.33,12.14,4.84,18.55,7.41-48.6,56.06-62.54,120-45.06,192Z"/><path class="cls-1" d="M93.77,455.21l35.36,26.57c-17.48-71.93-3.54-135.9,45.06-192-6.41-2.57-12.45-5.08-18.55-7.41-11.22-4.29-22.65-7.75-34.68-9-19.1-2-36,3.38-51.17,14.93-.8.61-1.61,1.18-2.42,1.76-.05,0-.16,0-.44-.08-.51-6.72-1-13.5-1.56-20.27-2.49-30.48.93-60.56,6.46-90.44,5.24-28.3,10.9-56.53,16.61-84.75,1.69-8.36,3.19-16.85,7.13-24.61,5.11-10.09,13-17.58,22.41-24.19,1.36,3.92,2.59,7.66,4,11.35,3.65,9.93,4.81,20.38,6.44,30.73,3.31,21,6.16,42.17,13,62.48,8.19,24.29,20.7,45.92,39.32,63.76a142.35,142.35,0,0,0,47.43,30.37c16,6.17,31.74,3.95,47-3.08a84.69,84.69,0,0,0,7.9-4.27c6.36-3.8,8.52-8.48,6.32-15.61-2.73-8.81-6-17.46-9.16-26.13-3.93-10.78-8-21.51-12-32.27-.13-.37-.21-.76-.37-1.33h104c0,.85.06,1.65,0,2.45-.72,8.33,2.59,14.94,9.71,18.87,18.49,10.2,37.88,17.67,59.57,16.42a60.86,60.86,0,0,0,21-5.1c7.15-3.11,11.64-8.63,14.3-15.83,6.66-18,13.2-36.07,20.12-54,3.41-8.83,6.84-17.79,11.58-25.92A165.83,165.83,0,0,1,526,73.83c10.45-12.08,24.52-16,40.11-15,2.32.13,4.64.47,7,.75a16.7,16.7,0,0,1,13.3,9.39c5.15,9.81,7.46,20.47,8.41,31.39.9,10.46,1.49,20.94,2,31.42.19,4.12-.31,8.27-.5,12.4l-.94.15c-.5-1.32-1.32-2.61-1.44-4-2.12-22.1-14.34-37.61-32.14-49.5a43.26,43.26,0,0,0-5.36-3.19c-7.29-3.53-14.11-2.14-18.76,4.5a185.72,185.72,0,0,0-10.18,17.16Q513.11,135.45,499,161.7c-4.22,7.8-3.32,12.06,3.38,18,8.62,7.62,17.92,14.07,29,17.67,19.11,6.2,42.25-.41,54.13-15.49,5.3-6.73,7.84-14.59,9.37-22.86.1-.57.2-1.14.34-1.71a4.3,4.3,0,0,1,.39-.79v83.91c-5.47-1.31-10.75-2.75-16.1-3.84-25-5.06-49.69-3.56-74.25,2.7C486,244.18,467.65,251.63,449.68,260c-1.88.87-3.74,1.78-5.74,2.73,3.71,5.89,7.4,11.62,10.95,17.43,15,24.56,27.84,50.17,36.68,77.66,9.61,29.89,13.92,60.49,11.63,91.84-.79,10.69-2.71,21.29-4.12,31.93-.14,1.05-.36,2.09-.51,3,20.15-7.17,37.76-18.88,55.5-30.34l.53.56c-1,3.57-2.14,7.11-3,10.72-7.32,29.33-19.33,57-30.45,84.94-6.42,16.15-13,32.26-20.07,48.11-8.54,19.06-20.63,35.93-34.39,51.54-8.92,10.11-18.31,19.81-27.56,29.63-6.5,6.91-12.67,14.24-19.81,20.43a249.68,249.68,0,0,1-24.86,18.43C379.15,728.89,364,739.34,348,748.47c-9.34,5.35-19.83,9-30.19,12.19-13,4-25.92,1.47-38.36-3.39-15-5.85-28.56-14.2-42-22.92-6.55-4.26-13.55-7.81-20.2-11.91-10.58-6.53-18.41-16-26.43-25.26-26.18-30.39-43.39-65.63-56.54-103.16-14.73-42-26.7-84.88-38.4-127.82-1-3.59-1.84-7.22-2.76-10.82ZM188,507c4.93.51,10,1.33,15.15,1.49,21.22.68,41.7-3.56,61.76-10.06,16.77-5.44,29.52-16,38.62-31.05,5.81-9.63,7.12-19.62,3.62-30.39a194.56,194.56,0,0,0-32.48-60.86c-11.63-14.77-24.8-28.08-38.55-40.82-5.46-5.06-11.46-9.53-17.31-14.34-.26.54-.38.68-.37.81.16,1.9.35,3.81.53,5.72,2.76,28.58,3.49,57.16-.07,85.74-2.68,21.49-7.59,42.42-16.07,62.37C198.41,486,193.17,496.14,188,507ZM395.36,303.51a20.19,20.19,0,0,0-9.75,5.32c-21.77,20-38.61,43.4-49.57,71-7.8,19.67-14.1,39.62-16,60.82-.9,10.19,2.12,18.12,11.19,23.75a153,153,0,0,0,33.05,15.67c17.1,5.59,34.74,8.44,52.56,10.37,5.51.59,11.05,1,17.05,1.57C400.44,433.23,383.85,371.3,395.36,303.51ZM339.53,638c.64.84,1.13,1.51,1.63,2.17,5.59,7.21,12.76,12.63,20.3,17.57,9.09,6,19,9.69,30,9.35,9.08-.29,14.4-5.86,14.57-15,0-1.66-.49-2.3-2.15-2.59-8.93-1.6-17.88-3.09-26.72-5.06A139,139,0,0,1,358.59,639a11.29,11.29,0,0,1-5.74-5.47,136.73,136.73,0,0,1-6.26-17.34c-3.27-11-1.52-21,6.5-29.7a11,11,0,0,0,2.62-4.74c1.41-6.07,5.35-9.14,11.2-10.23,4.57-.85,9.23-1.39,13.68-2.66,7.51-2.13,10.91-8,8.62-15.42-3-9.67-6.28-19.28-10-28.7-3-7.63-9-12.67-17.18-13.61a89.49,89.49,0,0,0-19.63.18c-23.07,2.5-44.58,10.61-65.85,19.33-6.42,2.63-8.57,8.86-5.06,14.84,5.33,9.08,11.27,17.73,20.61,23.34,2.35,1.41,4.56,3.06,6.79,4.66,8.24,5.88,16,12.29,21.23,21.18a26.22,26.22,0,0,0,3,3.93c3.08,3.5,5,7.56,3.75,12.14a35.74,35.74,0,0,1-4.47,9.85c-10.2,15.87-22.18,30.15-37.61,41.28-15.79,11.39-33.2,17-52.75,15.25-4.29-.38-8.55-1-12.82-1.48a16.6,16.6,0,0,0,4.69,3c8.8,3.75,18,3.75,27.27,2.66,16.54-1.93,32-7.38,46.92-14.65A159.19,159.19,0,0,0,339.53,638ZM423.79,279.6l-.8-.24a82.35,82.35,0,0,0-3.53,8.58c-2.76,9.64-2.88,19.56-2.7,29.48.36,20.79,3.24,41.3,7.14,61.68,4.8,25,11.09,49.66,20.49,73.4,4.17,10.54,8.84,20.84,16.09,29.72.85,1,1.88,1.93,3.17,3.23C462.89,414,454.38,344.64,423.79,279.6ZM78.39,196.3l.65.08c0,2.17-.11,4.34,0,6.49a75.3,75.3,0,0,0,.88,7.94c1.62,9.41,7.84,14.78,16.58,14.19,2.46-.17,4.87-1,7.32-1.48,8.38-1.64,16.49-4,23.56-9.06,7.32-5.22,10.7-12.14,8.93-21.17A584.37,584.37,0,0,0,121.71,135c-1.92-6.28-6.42-10.24-13-10.89a64.7,64.7,0,0,0-13.62.41c-4.54.51-7.21,3.59-8.18,8-.59,2.68-.92,5.41-1.28,8.13Q82,168.46,78.39,196.3ZM195.07,305.54l-.76-.49c-.55.72-1.05,1.5-1.67,2.17-8.36,9.07-14.13,19.73-18.81,31-14.26,34.34-20.74,70.27-21.42,107.32-.27,14.7.83,29.31,5,43.51,1.08,3.67,2.63,7.21,4,10.81l.75-.16C182.2,436.53,195.45,372.19,195.07,305.54Z"/><path d="M188,507c5.14-10.82,10.38-20.94,14.83-31.39,8.48-19.95,13.39-40.88,16.07-62.37,3.56-28.58,2.83-57.16.07-85.74-.18-1.91-.37-3.82-.53-5.72,0-.13.11-.27.37-.81,5.85,4.81,11.85,9.28,17.31,14.34,13.75,12.74,26.92,26.05,38.55,40.82A194.56,194.56,0,0,1,307.18,437c3.5,10.77,2.19,20.76-3.62,30.39-9.1,15.09-21.85,25.61-38.62,31.05-20.06,6.5-40.54,10.74-61.76,10.06C198.06,508.29,193,507.47,188,507Z"/><path d="M395.36,303.51C383.85,371.3,400.44,433.23,433.93,492c-6-.55-11.54-1-17.05-1.57-17.82-1.93-35.46-4.78-52.56-10.37a153,153,0,0,1-33.05-15.67c-9.07-5.63-12.09-13.56-11.19-23.75,1.86-21.2,8.16-41.15,16-60.82,11-27.63,27.8-51,49.57-71A20.19,20.19,0,0,1,395.36,303.51Z"/><path d="M339.53,638a159.19,159.19,0,0,1-41.44,28.67c-14.89,7.27-30.38,12.72-46.92,14.65-9.26,1.09-18.47,1.09-27.27-2.66a16.6,16.6,0,0,1-4.69-3c4.27.5,8.53,1.1,12.82,1.48,19.55,1.75,37-3.86,52.75-15.25,15.43-11.13,27.41-25.41,37.61-41.28a35.74,35.74,0,0,0,4.47-9.85c1.21-4.58-.67-8.64-3.75-12.14a26.22,26.22,0,0,1-3-3.93c-5.26-8.89-13-15.3-21.23-21.18-2.23-1.6-4.44-3.25-6.79-4.66-9.34-5.61-15.28-14.26-20.61-23.34-3.51-6-1.36-12.21,5.06-14.84,21.27-8.72,42.78-16.83,65.85-19.33a89.49,89.49,0,0,1,19.63-.18c8.18.94,14.17,6,17.18,13.61,3.71,9.42,7,19,10,28.7,2.29,7.41-1.11,13.29-8.62,15.42-4.45,1.27-9.11,1.81-13.68,2.66-5.85,1.09-9.79,4.16-11.2,10.23a11,11,0,0,1-2.62,4.74c-8,8.66-9.77,18.69-6.5,29.7a136.73,136.73,0,0,0,6.26,17.34,11.29,11.29,0,0,0,5.74,5.47,139,139,0,0,0,18.59,5.46c8.84,2,17.79,3.46,26.72,5.06,1.66.29,2.18.93,2.15,2.59-.17,9.1-5.49,14.67-14.57,15-11.07.34-20.93-3.38-30-9.35-7.54-4.94-14.71-10.36-20.3-17.57C340.66,639.49,340.17,638.82,339.53,638Z"/><path d="M423.79,279.6c30.59,65,39.1,134.38,39.86,205.85-1.29-1.3-2.32-2.19-3.17-3.23-7.25-8.88-11.92-19.18-16.09-29.72-9.4-23.74-15.69-48.37-20.49-73.4-3.9-20.38-6.78-40.89-7.14-61.68-.18-9.92-.06-19.84,2.7-29.48a82.35,82.35,0,0,1,3.53-8.58Z"/><path d="M78.39,196.3q3.63-27.84,7.26-55.68c.36-2.72.69-5.45,1.28-8.13,1-4.38,3.64-7.46,8.18-8a64.7,64.7,0,0,1,13.62-.41c6.56.65,11.06,4.61,13,10.89a584.37,584.37,0,0,1,14.63,58.29c1.77,9-1.61,16-8.93,21.17-7.07,5-15.18,7.42-23.56,9.06-2.45.47-4.86,1.31-7.32,1.48-8.74.59-15-4.78-16.58-14.19a75.3,75.3,0,0,1-.88-7.94c-.14-2.15,0-4.32,0-6.49Z"/><path d="M195.07,305.54c.38,66.65-12.87,131-32.95,194.16l-.75.16c-1.33-3.6-2.88-7.14-4-10.81-4.17-14.2-5.27-28.81-5-43.51.68-37.05,7.16-73,21.42-107.32,4.68-11.27,10.45-21.93,18.81-31,.62-.67,1.12-1.45,1.67-2.17Z"/></g></g></svg>