<svg width="412" height="485" viewBox="0 0 412 485" fill="none" xmlns="http://www.w3.org/2000/svg">
<rect x="0.730469" y="399.438" width="497.183" height="143.088" transform="rotate(-53.456 0.730469 399.438)" fill="#FF7B7B"/>
<path d="M125.035 408.743L68.859 366.698L79.7041 352.208L121.578 363.662L98.7443 326.769L109.589 312.279L165.765 354.324L155.409 368.16L127.321 347.138L143.891 372.883L136.675 382.525L107.303 373.884L135.391 394.907L125.035 408.743Z" fill="white"/>
<path d="M115.338 304.598L125.776 290.653L170.779 303.939L144.734 265.322L155.09 251.486L212.329 339.541L202.299 352.941L183.211 323.526L115.338 304.598Z" fill="white"/>
<path d="M198.7 276.392L206.35 262.655C209.089 264.138 211.724 264.779 214.254 264.576C216.783 264.373 218.945 263.073 220.739 260.676C222.452 258.388 223.049 256.002 222.53 253.518C222.012 251.033 220.555 248.895 218.16 247.102C215.692 245.255 213.193 244.433 210.664 244.636C208.097 244.812 206.012 245.971 204.409 248.114C203.023 249.966 202.135 252.135 201.747 254.62L189.492 255.222L184.229 235.815L172.12 251.994L160.961 243.642L186.769 209.16L191.015 212.337L198.078 238.871C198.332 238.381 198.798 237.682 199.478 236.774C202.821 232.307 206.977 229.893 211.946 229.533C216.942 229.136 221.999 230.853 227.116 234.682C232.849 238.974 236.013 244.316 236.606 250.71C237.227 257.067 235.458 263.024 231.299 268.58C227.304 273.918 222.278 277.381 216.221 278.967C210.165 280.553 204.325 279.695 198.7 276.392Z" fill="white"/>
<path d="M235.229 224.182C231.166 222.727 227.392 220.696 223.909 218.089C220.425 215.481 217.412 212.434 214.871 208.945C212.321 205.393 210.391 201.541 209.083 197.389C207.765 193.173 207.581 188.616 208.53 183.717C209.47 178.754 211.666 173.967 215.118 169.355C218.461 164.888 222.308 161.563 226.66 159.381C230.974 157.171 235.277 156.113 239.566 156.207C243.846 156.237 247.931 156.944 251.823 158.326C255.741 159.673 259.297 161.541 262.49 163.931L268.206 168.209L239.217 206.94C242.737 209.347 246.637 210.34 250.917 209.917C255.188 209.431 258.831 207.172 261.849 203.141C266.143 197.403 266.656 190.704 263.386 183.044L275.827 174.933C283.189 187.866 282.277 200.469 273.09 212.744C269.638 217.356 265.682 220.826 261.222 223.154C256.789 225.446 252.365 226.554 247.949 226.478C243.56 226.366 239.32 225.601 235.229 224.182ZM228.521 198.424L246.664 174.183C238.346 170.394 231.786 171.745 226.984 178.236C224.538 181.505 223.534 185.003 223.971 188.73C224.409 192.457 225.925 195.688 228.521 198.424Z" fill="white"/>
<path d="M300.84 173.852L244.665 131.807L255.02 117.97L289.695 143.922L269.453 98.6865L280.747 83.5972L336.923 125.642L326.567 139.479L291.893 113.526L312.093 158.817L300.84 173.852ZM230.977 104.479L238.561 94.3472C239.468 95.0262 240.434 95.3243 241.458 95.2413C242.474 95.0948 243.308 94.5857 243.96 93.7142C244.64 92.8063 244.893 91.8626 244.72 90.8833C244.538 89.8405 243.993 88.9796 243.086 88.3006L250.67 78.1685C254.008 80.6673 255.965 84.0296 256.539 88.2553C257.14 92.4448 255.959 96.5188 252.996 100.477C250.061 104.399 246.485 106.681 242.269 107.321C238.08 107.925 234.316 106.978 230.977 104.479Z" fill="white"/>
</svg>
