<?xml version="1.0" encoding="utf-8"?>
<!-- Generator: Adobe Illustrator 23.0.5, SVG Export Plug-In . SVG Version: 6.00 Build 0)  -->
<svg version="1.1" id="Слой_1" xmlns="http://www.w3.org/2000/svg" xmlns:xlink="http://www.w3.org/1999/xlink" x="0px" y="0px"
	 viewBox="0 0 412 485" style="enable-background:new 0 0 412 485;" xml:space="preserve">
<style type="text/css">
	.st0{fill:#FF7B7B;}
	.st1{fill:#FFFFFF;}
</style>
<rect x="-42.4" y="170.8" transform="matrix(0.5954 -0.8034 0.8034 0.5954 -111.2471 263.7183)" class="st0" width="497.2" height="143.1"/>
<path class="st1" d="M143.6,378.8l-45.7-34.2l8.8-11.8l34.1,9.3l-18.6-30l8.8-11.8l45.7,34.2l-8.4,11.3l-22.9-17.1l13.5,21l-5.9,7.8
	l-23.9-7l22.9,17.1L143.6,378.8z"/>
<path class="st1" d="M135.7,294l8.5-11.4l36.6,10.8l-21.2-31.4l8.4-11.3l46.6,71.7l-8.2,10.9L191,309.4L135.7,294z"/>
<path class="st1" d="M203.6,271.1l6.2-11.2c2.2,1.2,4.4,1.7,6.4,1.6c2.1-0.2,3.8-1.2,5.3-3.2c1.4-1.9,1.9-3.8,1.5-5.8
	c-0.4-2-1.6-3.8-3.6-5.2c-2-1.5-4-2.2-6.1-2c-2.1,0.1-3.8,1.1-5.1,2.8c-1.1,1.5-1.9,3.3-2.2,5.3l-10,0.5l-4.3-15.8l-9.9,13.2
	l-9.1-6.8l21-28.1l3.5,2.6l5.7,21.6c0.2-0.4,0.6-1,1.1-1.7c2.7-3.6,6.1-5.6,10.1-5.9c4.1-0.3,8.2,1.1,12.3,4.2
	c4.7,3.5,7.2,7.8,7.7,13c0.5,5.2-0.9,10-4.3,14.5c-3.3,4.3-7.3,7.2-12.3,8.5C212.9,274.5,208.2,273.8,203.6,271.1z"/>
<path class="st1" d="M233.3,228.6c-3.3-1.2-6.4-2.8-9.2-5c-2.8-2.1-5.3-4.6-7.4-7.4c-2.1-2.9-3.6-6-4.7-9.4
	c-1.1-3.4-1.2-7.1-0.5-11.1c0.8-4,2.6-7.9,5.4-11.7c2.7-3.6,5.9-6.3,9.4-8.1c3.5-1.8,7-2.7,10.5-2.6c3.5,0,6.8,0.6,10,1.7
	c3.2,1.1,6.1,2.6,8.7,4.6l4.7,3.5l-23.6,31.5c2.9,2,6,2.8,9.5,2.4c3.5-0.4,6.4-2.2,8.9-5.5c3.5-4.7,3.9-10.1,1.3-16.4l10.1-6.6
	c6,10.5,5.3,20.8-2.2,30.8c-2.8,3.8-6,6.6-9.7,8.5c-3.6,1.9-7.2,2.8-10.8,2.7C240.1,230.4,236.7,229.7,233.3,228.6z M227.9,207.6
	l14.8-19.7c-6.8-3.1-12.1-2-16,3.3c-2,2.7-2.8,5.5-2.5,8.5C224.5,202.7,225.7,205.4,227.9,207.6z"/>
<path class="st1" d="M286.7,187.6L241,153.4l8.4-11.3l28.2,21.1l-16.5-36.8l9.2-12.3l45.7,34.2l-8.4,11.3l-28.2-21.1l16.4,36.9
	L286.7,187.6z M229.9,131.1l6.2-8.2c0.7,0.6,1.5,0.8,2.4,0.7c0.8-0.1,1.5-0.5,2-1.2c0.6-0.7,0.8-1.5,0.6-2.3
	c-0.1-0.8-0.6-1.5-1.3-2.1l6.2-8.2c2.7,2,4.3,4.8,4.8,8.2c0.5,3.4-0.5,6.7-2.9,9.9c-2.4,3.2-5.3,5.1-8.7,5.6
	C235.6,133.9,232.6,133.2,229.9,131.1z"/>
</svg>
