<svg width="1454" height="108" viewBox="0 0 1454 108" fill="none" xmlns="http://www.w3.org/2000/svg">
<path d="M0.876953 77.2147V1.62878H62.8398V77.2147H44.2363V17.5223H19.4805V77.2147H0.876953Z" fill="white"/>
<path d="M77.3477 107.83V1.62878H95.9512V9.39246C97.1719 7.19519 99.4424 5.14441 102.763 3.24011C106.132 1.33582 109.965 0.383667 114.262 0.383667C125.346 0.383667 133.866 3.92371 139.823 11.0038C145.78 18.035 148.759 27.5077 148.759 39.4218C148.759 51.3358 145.78 60.8085 139.823 67.8397C133.866 74.871 125.346 78.3866 114.262 78.3866C110.551 78.3866 106.986 77.6053 103.568 76.0428C100.199 74.4315 97.6602 72.5272 95.9512 70.33V107.83H77.3477ZM99.1006 22.4296C95.8779 26.4335 94.2666 32.0975 94.2666 39.4218C94.2666 46.6971 95.8779 52.3612 99.1006 56.4139C102.372 60.4667 106.547 62.493 111.625 62.493C116.752 62.493 120.951 60.4423 124.223 56.3407C127.543 52.2391 129.203 46.5995 129.203 39.4218C129.203 32.1952 127.543 26.5555 124.223 22.5028C120.951 18.4012 116.752 16.3505 111.625 16.3505C106.547 16.3505 102.372 18.3768 99.1006 22.4296Z" fill="white"/>
<path d="M159.971 77.2147V1.62878H178.574V48.2841L204.502 1.62878H224.79V77.2147H206.187V30.5594L180.186 77.2147H159.971Z" fill="white"/>
<path d="M239.225 77.2147V1.62878H258.707L275.846 45.1346L292.911 1.62878H312.394V77.2147H293.79V39.4218L282.291 70.33H269.327L257.828 39.4218V77.2147H239.225Z" fill="white"/>
<path d="M324.631 53.118C323.264 48.6747 322.58 44.1093 322.58 39.4218C322.58 34.7343 323.264 30.1688 324.631 25.7255C326.047 21.2333 328.122 17.0829 330.856 13.2743C333.64 9.41687 337.448 6.31628 342.282 3.97253C347.165 1.57996 352.707 0.383667 358.908 0.383667C364.914 0.383667 370.261 1.55554 374.948 3.89929C379.636 6.19421 383.322 9.22156 386.008 12.9813C388.742 16.6923 390.769 20.6718 392.087 24.9198C393.454 29.1678 394.138 33.4403 394.138 37.7372V45.4276H342.062C342.258 50.0175 343.918 54.0214 347.043 57.4393C350.217 60.8085 354.514 62.493 359.934 62.493C367.648 62.493 373.752 58.6112 378.244 50.8475L393.259 56.3407C386.862 71.038 375.412 78.3866 358.908 78.3866C352.707 78.3866 347.165 77.2147 342.282 74.871C337.448 72.5272 333.64 69.4266 330.856 65.5692C328.122 61.7118 326.047 57.5614 324.631 53.118ZM342.502 30.7059H375.095C372.995 21.0868 367.6 16.3016 358.908 16.3505C354.514 16.3505 350.852 17.7421 347.922 20.5253C344.992 23.3085 343.186 26.702 342.502 30.7059Z" fill="white"/>
<path d="M397.513 17.5223V1.62878H456.619V17.5223H436.404V77.2147H417.801V17.5223H397.513Z" fill="white"/>
<path d="M498.525 77.2147V1.62878H517.129V29.0946H542.324V1.62878H560.928V77.2147H542.324V44.9882H517.129V77.2147H498.525Z" fill="white"/>
<path d="M574.264 53.118C572.896 48.6747 572.213 44.1093 572.213 39.4218C572.213 34.7343 572.896 30.1688 574.264 25.7255C575.68 21.2333 577.755 17.0829 580.489 13.2743C583.272 9.41687 587.081 6.31628 591.915 3.97253C596.798 1.57996 602.34 0.383667 608.541 0.383667C614.547 0.383667 619.894 1.55554 624.581 3.89929C629.269 6.19421 632.955 9.22156 635.641 12.9813C638.375 16.6923 640.401 20.6718 641.72 24.9198C643.087 29.1678 643.771 33.4403 643.771 37.7372V45.4276H591.695C591.891 50.0175 593.551 54.0214 596.676 57.4393C599.85 60.8085 604.146 62.493 609.566 62.493C617.281 62.493 623.385 58.6112 627.877 50.8475L642.892 56.3407C636.495 71.038 625.045 78.3866 608.541 78.3866C602.34 78.3866 596.798 77.2147 591.915 74.871C587.081 72.5272 583.272 69.4266 580.489 65.5692C577.755 61.7118 575.68 57.5614 574.264 53.118ZM592.135 30.7059H624.728C622.628 21.0868 617.232 16.3016 608.541 16.3505C604.146 16.3505 600.484 17.7421 597.555 20.5253C594.625 23.3085 592.818 26.702 592.135 30.7059Z" fill="white"/>
<path d="M647.146 17.5223V1.62878H706.252V17.5223H686.037V77.2147H667.434V17.5223H647.146Z" fill="white"/>
<path d="M748.158 77.2147V1.62878H810.121V77.2147H791.518V17.5223H766.762V77.2147H748.158Z" fill="white"/>
<path d="M824.629 107.83V1.62878H843.232V9.39246C844.453 7.19519 846.724 5.14441 850.044 3.24011C853.413 1.33582 857.246 0.383667 861.543 0.383667C872.627 0.383667 881.147 3.92371 887.104 11.0038C893.062 18.035 896.04 27.5077 896.04 39.4218C896.04 51.3358 893.062 60.8085 887.104 67.8397C881.147 74.871 872.627 78.3866 861.543 78.3866C857.832 78.3866 854.268 77.6053 850.85 76.0428C847.48 74.4315 844.941 72.5272 843.232 70.33V107.83H824.629ZM846.382 22.4296C843.159 26.4335 841.548 32.0975 841.548 39.4218C841.548 46.6971 843.159 52.3612 846.382 56.4139C849.653 60.4667 853.828 62.493 858.906 62.493C864.033 62.493 868.232 60.4423 871.504 56.3407C874.824 52.2391 876.484 46.5995 876.484 39.4218C876.484 32.1952 874.824 26.5555 871.504 22.5028C868.232 18.4012 864.033 16.3505 858.906 16.3505C853.828 16.3505 849.653 18.3768 846.382 22.4296Z" fill="white"/>
<path d="M907.252 77.2147V1.62878H925.855V48.2841L951.783 1.62878H972.071V77.2147H953.468V30.5594L927.467 77.2147H907.252Z" fill="white"/>
<path d="M986.506 77.2147V1.62878H1005.99L1023.13 45.1346L1040.19 1.62878H1059.67V77.2147H1041.07V39.4218L1029.57 70.33H1016.61L1005.11 39.4218V77.2147H986.506Z" fill="white"/>
<path d="M1071.91 53.118C1070.54 48.6747 1069.86 44.1093 1069.86 39.4218C1069.86 34.7343 1070.54 30.1688 1071.91 25.7255C1073.33 21.2333 1075.4 17.0829 1078.14 13.2743C1080.92 9.41687 1084.73 6.31628 1089.56 3.97253C1094.45 1.57996 1099.99 0.383667 1106.19 0.383667C1112.2 0.383667 1117.54 1.55554 1122.23 3.89929C1126.92 6.19421 1130.6 9.22156 1133.29 12.9813C1136.02 16.6923 1138.05 20.6718 1139.37 24.9198C1140.74 29.1678 1141.42 33.4403 1141.42 37.7372V45.4276H1089.34C1089.54 50.0175 1091.2 54.0214 1094.32 57.4393C1097.5 60.8085 1101.79 62.493 1107.21 62.493C1114.93 62.493 1121.03 58.6112 1125.53 50.8475L1140.54 56.3407C1134.14 71.038 1122.69 78.3866 1106.19 78.3866C1099.99 78.3866 1094.45 77.2147 1089.56 74.871C1084.73 72.5272 1080.92 69.4266 1078.14 65.5692C1075.4 61.7118 1073.33 57.5614 1071.91 53.118ZM1089.78 30.7059H1122.38C1120.28 21.0868 1114.88 16.3016 1106.19 16.3505C1101.79 16.3505 1098.13 17.7421 1095.2 20.5253C1092.27 23.3085 1090.47 26.702 1089.78 30.7059Z" fill="white"/>
<path d="M1144.79 17.5223V1.62878H1203.9V17.5223H1183.69V77.2147H1165.08V17.5223H1144.79Z" fill="white"/>
<path d="M1245.81 77.2147V1.62878H1264.41V29.0946H1289.61V1.62878H1308.21V77.2147H1289.61V44.9882H1264.41V77.2147H1245.81Z" fill="white"/>
<path d="M1321.54 53.118C1320.18 48.6747 1319.49 44.1093 1319.49 39.4218C1319.49 34.7343 1320.18 30.1688 1321.54 25.7255C1322.96 21.2333 1325.04 17.0829 1327.77 13.2743C1330.55 9.41687 1334.36 6.31628 1339.2 3.97253C1344.08 1.57996 1349.62 0.383667 1355.82 0.383667C1361.83 0.383667 1367.17 1.55554 1371.86 3.89929C1376.55 6.19421 1380.24 9.22156 1382.92 12.9813C1385.66 16.6923 1387.68 20.6718 1389 24.9198C1390.37 29.1678 1391.05 33.4403 1391.05 37.7372V45.4276H1338.98C1339.17 50.0175 1340.83 54.0214 1343.96 57.4393C1347.13 60.8085 1351.43 62.493 1356.85 62.493C1364.56 62.493 1370.67 58.6112 1375.16 50.8475L1390.17 56.3407C1383.78 71.038 1372.33 78.3866 1355.82 78.3866C1349.62 78.3866 1344.08 77.2147 1339.2 74.871C1334.36 72.5272 1330.55 69.4266 1327.77 65.5692C1325.04 61.7118 1322.96 57.5614 1321.54 53.118ZM1339.42 30.7059H1372.01C1369.91 21.0868 1364.51 16.3016 1355.82 16.3505C1351.43 16.3505 1347.77 17.7421 1344.84 20.5253C1341.91 23.3085 1340.1 26.702 1339.42 30.7059Z" fill="white"/>
<path d="M1394.43 17.5223V1.62878H1453.53V17.5223H1433.32V77.2147H1414.71V17.5223H1394.43Z" fill="white"/>
</svg>
