<svg width="788" height="382" viewBox="0 0 788 382" fill="none" xmlns="http://www.w3.org/2000/svg">
<rect x="0.730469" y="220.289" width="771.182" height="167.865" transform="rotate(-16.5979 0.730469 220.289)" fill="#FF7B7B"/>
<path d="M52.7326 292.249L49.7386 282.328L79.0326 244.751L83.7018 260.223L66.1796 282.778L93.2542 291.875L97.9413 307.406L52.7326 292.249ZM88.916 281.329L85.922 271.408L115.157 233.849L119.826 249.321L102.304 271.876L129.379 280.973L134.066 296.504L88.916 281.329Z" fill="white"/>
<path d="M133.957 244.669L128.985 228.194L149.312 206.209L155.96 204.203L181.516 288.884L166.337 293.465L147.214 230.102L133.957 244.669Z" fill="white"/>
<path d="M189.915 260.771L203.859 254.436C208.342 262.06 214.134 264.801 221.233 262.659C225.155 261.475 227.966 259.231 229.665 255.926C231.391 252.57 231.607 248.747 230.311 244.456C228.874 239.692 226.533 236.404 223.29 234.59C220.074 232.726 216.505 232.386 212.583 233.569C209.994 234.351 207.727 235.701 205.781 237.62L197.231 230.986L206.505 204.284L179.617 212.398L175.376 198.343L223.738 183.748L225.36 189.122L213.6 222.051C215.004 221.456 216.098 221.04 216.882 220.803C223.315 218.862 229.115 219.646 234.282 223.155C239.45 226.664 243.162 232.158 245.42 239.638C248.022 248.26 247.414 255.96 243.597 262.739C239.78 269.518 233.733 274.157 225.457 276.654C217.73 278.986 210.595 278.67 204.051 275.705C197.495 272.701 192.783 267.723 189.915 260.771Z" fill="white"/>
<path d="M270.828 261.931L252.436 200.989L302.21 185.967L320.602 246.909L305.658 251.419L291.133 203.291L271.247 209.293L285.772 257.421L270.828 261.931Z" fill="white"/>
<path d="M344.525 266.621L318.684 180.995L333.628 176.485L335.517 182.745C335.963 180.677 337.288 178.473 339.491 176.133C341.734 173.781 344.582 172.084 348.033 171.042C356.937 168.355 364.643 169.144 371.151 173.408C377.647 177.633 382.345 184.549 385.244 194.154C388.143 203.76 388.055 212.12 384.98 219.233C381.906 226.346 375.917 231.246 367.013 233.933C364.032 234.833 360.979 235.067 357.853 234.636C354.755 234.154 352.252 233.234 350.344 231.877L359.469 262.111L344.525 266.621ZM341.219 192.493C339.604 196.502 339.688 201.46 341.47 207.365C343.241 213.231 345.913 217.407 349.488 219.893C353.102 222.368 356.949 222.989 361.028 221.758C365.147 220.515 368.021 217.844 369.651 213.744C371.32 209.632 371.281 204.682 369.535 198.895C367.776 193.069 365.07 188.924 361.417 186.461C357.791 183.948 353.919 183.312 349.8 184.555C345.721 185.786 342.861 188.432 341.219 192.493Z" fill="white"/>
<path d="M408.266 220.453L389.874 159.511L404.818 155.001L416.17 192.617L425.645 148.715L441.943 143.797L460.334 204.739L445.39 209.249L434.038 171.632L424.504 215.552L408.266 220.453Z" fill="white"/>
<path d="M476.749 199.785L458.357 138.843L474.008 134.12L498.361 165.042L501.483 125.828L517.133 121.105L535.525 182.047L520.581 186.557L511.385 156.086L509.669 183.793L499.255 186.936L482.497 164.804L491.693 195.275L476.749 199.785Z" fill="white"/>
<path d="M544.312 158.197C542.132 154.946 540.472 151.431 539.332 147.652C538.191 143.872 537.63 140.026 537.647 136.112C537.691 132.146 538.348 128.297 539.618 124.563C540.915 120.779 543.22 117.355 546.533 114.294C549.873 111.181 554.034 108.873 559.015 107.37C563.839 105.914 568.42 105.562 572.755 106.316C577.079 107.03 580.777 108.577 583.849 110.957C586.949 113.286 589.545 116.003 591.637 119.109C593.769 122.202 595.358 125.481 596.404 128.946L598.275 135.146L556.443 147.771C557.717 151.424 560.025 154.25 563.367 156.248C566.736 158.195 570.598 158.512 574.951 157.198C581.149 155.327 585.107 150.718 586.827 143.369L600.224 144.158C598.662 157.559 591.253 166.26 577.995 170.261C573.014 171.764 568.277 172.163 563.784 171.457C559.331 170.739 555.517 169.162 552.343 166.727C549.207 164.28 546.531 161.436 544.312 158.197ZM553.214 135.795L579.396 127.893C575.369 120.647 569.87 118.097 562.9 120.243C559.37 121.308 556.767 123.318 555.091 126.272C553.415 129.227 552.789 132.401 553.214 135.795Z" fill="white"/>
<path d="M599.016 110.375L595.148 97.5601L642.628 83.2311L646.495 96.0455L630.257 100.946L644.782 149.074L629.838 153.584L615.313 105.456L599.016 110.375Z" fill="white"/>
<path d="M668.933 135.084L664.246 119.554L681.768 96.998L654.694 87.9014L650.024 72.4296L695.215 87.5275L698.209 97.4484L668.933 135.084ZM705.117 124.164L700.429 108.634L717.952 86.078L690.877 76.9815L686.208 61.5097L731.399 76.6076L734.393 86.5284L705.117 124.164Z" fill="white"/>
</svg>
