<svg width="637" height="323" viewBox="0 0 637 323" fill="none" xmlns="http://www.w3.org/2000/svg">
<rect x="36.5898" width="640.827" height="105.257" transform="rotate(20.4986 36.5898 0)" fill="#FF7B7B"/>
<path d="M37.5101 26.8184L48.3027 30.9964L47.8026 62.3422L67.9066 38.5855L78.615 42.7309L32.3897 95.5196L22.0186 91.5047L37.4661 73.8911L37.5101 26.8184Z" fill="white"/>
<path d="M58.9801 85.437L62.5414 76.2375C65.0709 77.2167 67.1205 77.4739 68.6901 77.0091C70.2878 76.5552 71.6313 75.2554 72.7205 73.1097L86.5409 45.7992L118.244 58.0723L101.308 101.823L90.5992 97.6774L103.975 63.1263L92.929 58.8503L81.3709 80.9432C80.1051 83.378 78.6881 85.2018 77.1198 86.4146C75.5796 87.6382 73.7765 88.2889 71.7104 88.3665C69.6724 88.455 67.7438 88.2609 65.9247 87.7841C64.1055 87.3074 61.7907 86.525 58.9801 85.437Z" fill="white"/>
<path d="M117.767 106.391C116.925 104.473 116.904 102.482 117.703 100.419C118.513 98.3276 119.874 96.856 121.787 96.0043C123.712 95.1243 125.714 95.0869 127.794 95.892C129.873 96.6972 131.328 98.0729 132.158 100.019C133 101.937 133.015 103.942 132.206 106.033C131.407 108.096 130.051 109.554 128.138 110.406C126.224 111.257 124.228 111.281 122.148 110.476C120.068 109.67 118.608 108.309 117.767 106.391Z" fill="white"/>
<path d="M164.841 126.418L181.778 82.6674L217.444 96.4746L200.507 140.225L189.799 136.08L203.175 101.529L188.925 96.0123L175.549 130.563L164.841 126.418Z" fill="white"/>
<path d="M205.452 162.516L229.249 101.044L239.957 105.19L238.217 109.684C239.412 108.684 241.179 108.003 243.517 107.64C245.883 107.289 248.302 107.592 250.776 108.549C257.156 111.019 261.267 114.967 263.11 120.392C264.963 125.789 264.555 131.936 261.885 138.832C259.216 145.728 255.379 150.548 250.374 153.29C245.37 156.032 239.678 156.169 233.297 153.699C231.161 152.872 229.285 151.625 227.667 149.959C226.089 148.276 225.054 146.608 224.563 144.955L216.16 166.661L205.452 162.516ZM237.109 117.931C234.357 119.531 232.16 122.45 230.519 126.69C228.889 130.901 228.547 134.538 229.494 137.602C230.469 140.677 232.418 142.78 235.341 143.912C238.292 145.054 241.169 144.803 243.971 143.158C246.801 141.524 249.021 138.629 250.629 134.475C252.248 130.292 252.556 126.657 251.553 123.572C250.589 120.469 248.631 118.346 245.68 117.204C242.757 116.072 239.9 116.315 237.109 117.931Z" fill="white"/>
<path d="M263.324 164.543L280.261 120.792L290.969 124.938L280.515 151.943L305.894 130.715L317.572 135.236L300.635 178.987L289.926 174.841L300.381 147.836L274.96 169.047L263.324 164.543Z" fill="white"/>
<path d="M312.397 183.54L329.334 139.789L340.548 144.131L340.665 173.132L360.236 151.752L371.451 156.094L354.514 199.844L343.806 195.699L352.274 173.824L338.729 189.151L331.267 186.263L331.574 165.81L323.106 187.685L312.397 183.54Z" fill="white"/>
<path d="M370.411 189.96C370.62 187.084 371.249 184.289 372.299 181.576C373.35 178.863 374.766 176.372 376.549 174.105C378.37 171.821 380.495 169.881 382.922 168.285C385.389 166.673 388.276 165.727 391.583 165.447C394.93 165.151 398.388 165.693 401.958 167.075C405.415 168.413 408.23 170.283 410.403 172.684C412.587 175.057 414.03 177.631 414.734 180.405C415.476 183.163 415.751 185.917 415.558 188.67C415.393 191.434 414.829 194.059 413.866 196.546L412.143 200.997L382.168 189.393C381.252 192.094 381.31 194.781 382.343 197.456C383.415 200.113 385.511 202.046 388.631 203.253C393.072 204.973 397.455 204.086 401.78 200.593L409.192 207.118C402.217 214.2 393.979 215.902 384.479 212.224C380.91 210.843 377.982 208.929 375.697 206.485C373.44 204.051 371.942 201.408 371.204 198.555C370.495 195.713 370.23 192.848 370.411 189.96ZM385.72 180.97L404.48 188.233C405.427 182.197 403.394 178.225 398.38 176.317C395.85 175.338 393.431 175.327 391.121 176.285C388.811 177.243 387.01 178.805 385.72 180.97Z" fill="white"/>
<path d="M423.792 186.934L427.353 177.735L461.376 190.906L457.814 200.105L446.178 195.601L432.803 230.152L422.095 226.006L435.47 191.455L423.792 186.934Z" fill="white"/>
<path d="M452.618 237.822L469.554 194.072L480.263 198.217L474.108 214.115L488.611 219.729L494.765 203.831L505.474 207.977L488.537 251.727L477.829 247.582L485.05 228.929L470.547 223.314L463.326 241.968L452.618 237.822Z" fill="white"/>
<path d="M502.602 242.694C504.287 238.342 507.347 235.529 511.783 234.257C516.218 232.984 521.19 233.414 526.699 235.546L533.95 238.353L534.689 236.446C536.352 232.15 534.648 229.037 529.578 227.106C525.728 225.616 522.581 226.315 520.138 229.204L511.878 223.618C513.992 220.244 516.97 218.017 520.814 216.938C524.658 215.858 528.772 216.167 533.156 217.865C545.354 222.587 549.084 231.067 544.347 243.304L534.237 269.419L525.426 266.008L526.48 260.03C521.471 262.868 516.198 263.215 510.661 261.072C506.81 259.581 504.092 257.213 502.504 253.966C500.928 250.691 500.961 246.934 502.602 242.694ZM513.882 246.866C513.433 248.025 513.424 249.175 513.855 250.317C514.325 251.441 515.29 252.286 516.752 252.852C519.394 253.874 522.049 253.944 524.718 253.06C527.416 252.186 529.284 250.407 530.323 247.722L530.652 246.875L523.485 244.1C518.538 242.185 515.337 243.107 513.882 246.866Z" fill="white"/>
<path d="M540.013 271.655L558.929 256.603C556.604 254.76 555.068 252.508 554.321 249.847C553.613 247.168 553.828 244.359 554.966 241.419C556.377 237.773 558.895 235.319 562.518 234.057C566.17 232.806 570.061 232.98 574.193 234.579L590.803 241.01L573.867 284.76L563.158 280.615L570.478 261.707L569.255 261.234L551.396 276.061L540.013 271.655ZM570.041 243.55C567.737 242.658 566.169 243.286 565.337 245.434C564.516 247.554 565.258 249.06 567.563 249.952L574.056 252.465L576.534 246.064L570.041 243.55Z" fill="white"/>
</svg>
