<svg width="415" height="201" viewBox="0 0 415 201" fill="none" xmlns="http://www.w3.org/2000/svg">
<path d="M0.335938 58.9922L393.441 0.55078L414.482 142.084L21.3771 200.525L0.335938 58.9922Z" fill="#FF7B7B"/>
<path d="M49.9067 111.883L47.335 94.6307L71.0385 75.5476L78.026 74.506L91.2442 163.179L75.2905 165.557L65.3999 99.207L49.9067 111.883Z" fill="white"/>
<path d="M106.159 133.902C104.696 124.09 107.535 116.419 114.675 110.888C108.553 107.418 104.93 101.911 103.805 94.3669C102.798 87.6062 104.317 81.5433 108.363 76.1783C112.445 70.7659 118.196 67.5067 125.616 66.4006C133.036 65.2944 139.488 66.7347 144.97 70.7214C150.447 74.6669 153.689 80.02 154.697 86.7808C155.803 94.2011 153.902 100.532 148.994 105.772C157.478 108.974 162.451 115.481 163.914 125.292C165.161 133.661 163.354 140.757 158.491 146.581C153.622 152.363 147.168 155.854 139.129 157.052C131.132 158.244 123.94 156.788 117.555 152.683C111.205 148.531 107.407 142.27 106.159 133.902ZM124.369 121.642C122.275 124.272 121.523 127.566 122.113 131.524C122.703 135.481 124.386 138.433 127.162 140.379C129.974 142.277 133.234 142.95 136.945 142.397C140.655 141.844 143.557 140.253 145.651 137.623C147.78 134.945 148.55 131.628 147.96 127.67C147.37 123.713 145.67 120.785 142.858 118.886C140.082 116.94 136.839 116.244 133.128 116.797C129.418 117.35 126.499 118.965 124.369 121.642ZM118.621 92.4112C119.125 95.7916 120.502 98.3886 122.753 100.202C124.998 101.975 127.728 102.621 130.944 102.142C134.159 101.662 136.582 100.248 138.212 97.8978C139.837 95.5065 140.397 92.6207 139.893 89.2403C139.401 85.9424 138.036 83.4279 135.797 81.6967C133.559 79.9656 130.832 79.3397 127.616 79.819C124.401 80.2983 121.975 81.6924 120.338 84.0012C118.702 86.31 118.13 89.1133 118.621 92.4112Z" fill="white"/>
<path d="M185.822 146.742C183.5 145.023 182.116 142.659 181.667 139.649C181.212 136.599 181.844 133.913 183.563 131.592C185.276 129.23 187.658 127.821 190.708 127.366C193.759 126.912 196.448 127.564 198.775 129.324C201.096 131.043 202.484 133.428 202.939 136.479C203.387 139.488 202.752 142.153 201.033 144.474C199.314 146.795 196.93 148.183 193.879 148.638C190.828 149.093 188.143 148.461 185.822 146.742ZM179.212 102.405C176.891 100.686 175.506 98.3223 175.058 95.313C174.603 92.2624 175.235 89.5766 176.954 87.2555C178.667 84.8932 181.048 83.4847 184.099 83.0299C187.15 82.5752 189.838 83.2278 192.166 84.9879C194.487 86.7068 195.875 89.0915 196.329 92.1421C196.778 95.1515 196.143 97.8167 194.424 100.138C192.705 102.459 190.32 103.847 187.27 104.302C184.219 104.756 181.533 104.124 179.212 102.405Z" fill="white"/>
<path d="M230.228 131.273C223.388 124.117 218.905 113.408 216.779 99.1442C214.653 84.8807 215.82 73.3499 220.282 64.5517C224.737 55.7124 232.201 50.5123 242.672 48.9514C253.142 47.3905 261.798 50.1879 268.638 57.3435C275.513 64.4517 280.013 75.1375 282.139 89.4011C284.266 103.665 283.08 115.219 278.584 124.065C274.122 132.863 266.656 138.042 256.185 139.603C245.714 141.164 237.062 138.387 230.228 131.273ZM244.865 63.6684C233.57 65.3522 229.446 76.4176 232.494 96.8647C235.536 117.271 242.705 126.632 254 124.948C265.337 123.258 269.484 112.21 266.442 91.8042C263.394 71.3571 256.202 61.9785 244.865 63.6684Z" fill="white"/>
<path d="M311.233 119.198C304.393 112.042 299.91 101.332 297.784 87.069C295.658 72.8055 296.825 61.2746 301.287 52.4765C305.743 43.6372 313.206 38.4371 323.677 36.8762C334.148 35.3153 342.803 38.1127 349.643 45.2683C356.518 52.3765 361.018 63.0623 363.145 77.3258C365.271 91.5894 364.086 103.144 359.589 111.989C355.127 120.787 347.661 125.967 337.19 127.528C326.719 129.089 318.067 126.312 311.233 119.198ZM325.871 51.5932C314.575 53.2769 310.452 64.3424 313.5 84.7895C316.541 105.195 323.71 114.556 335.005 112.873C346.342 111.183 350.489 100.135 347.448 79.729C344.4 59.2819 337.207 49.9033 325.871 51.5932Z" fill="white"/>
</svg>
