<svg width="501" height="444" viewBox="0 0 501 444" fill="none" xmlns="http://www.w3.org/2000/svg">
<path d="M497.124 3.54492H3.91016V440.909H497.124V3.54492Z" fill="white"/>
<path fill-rule="evenodd" clip-rule="evenodd" d="M0.835938 0.470703H500.198V443.984H0.835938V0.470703ZM6.98445 6.61922V437.835H494.049V6.61922H6.98445Z" fill="black"/>
<path fill-rule="evenodd" clip-rule="evenodd" d="M0.835938 0.470703H500.198V73.3306H0.835938V0.470703ZM6.98445 6.61922V67.1821H494.049V6.61922H6.98445Z" fill="black"/>
<path fill-rule="evenodd" clip-rule="evenodd" d="M57.4011 57.6931L11.4922 19.7773L18.6703 11.0859L64.5792 49.0018L57.4011 57.6931Z" fill="black"/>
<path fill-rule="evenodd" clip-rule="evenodd" d="M11.4922 49.9241L58.5283 11.0859L65.7055 19.7781L18.6693 58.6162L11.4922 49.9241Z" fill="black"/>
<path d="M91.293 41.9023V31.321H95.3635C96.4708 31.321 97.3423 31.5602 97.978 32.0387C98.6137 32.5104 98.9316 33.2349 98.9316 34.2124C98.9316 34.5883 98.8359 34.954 98.6445 35.3095C98.4599 35.6581 98.2207 35.9315 97.9268 36.1297C98.4189 36.369 98.8222 36.7244 99.1367 37.1961C99.4511 37.6609 99.6083 38.194 99.6083 38.7956C99.6083 39.8345 99.287 40.6138 98.6445 41.1333C98.0088 41.6459 97.1339 41.9023 96.0197 41.9023H91.293ZM93.8973 39.6773H95.3225C96.4161 39.6773 96.963 39.3116 96.963 38.5802C96.963 37.8215 96.4161 37.4456 95.3225 37.4524H93.8973V39.6773ZM93.8973 35.1864H95.2199C96.0197 35.1864 96.4196 34.8925 96.4196 34.3047C96.4196 33.7168 96.0197 33.4229 95.2199 33.4229H93.8973V35.1864Z" fill="black"/>
<path d="M101.792 41.9023V31.321H104.397V35.3505H106.324C107.445 35.3505 108.334 35.6478 108.99 36.2425C109.653 36.8372 109.985 37.6335 109.985 38.6315C109.985 39.6226 109.653 40.4156 108.99 41.0102C108.334 41.6049 107.445 41.9023 106.324 41.9023H101.792ZM104.397 39.6773H105.863C106.84 39.6773 107.329 39.3287 107.329 38.6315C107.336 37.9275 106.847 37.5754 105.863 37.5754H104.397V39.6773ZM112.189 41.9023V31.321H114.793V41.9023H112.189Z" fill="black"/>
<path d="M121.745 31.321H124.37L126.831 37.9548L129.137 31.321H131.742L126.287 46.1881H123.765L125.59 41.2256L121.745 31.321Z" fill="black"/>
<path d="M133.475 41.9023V31.321H137.545C138.652 31.321 139.524 31.5602 140.16 32.0387C140.795 32.5104 141.113 33.2349 141.113 34.2124C141.113 34.5883 141.017 34.954 140.826 35.3095C140.642 35.6581 140.402 35.9315 140.108 36.1297C140.601 36.369 141.004 36.7244 141.318 37.1961C141.633 37.6609 141.79 38.194 141.79 38.7956C141.79 39.8345 141.469 40.6138 140.826 41.1333C140.19 41.6459 139.315 41.9023 138.201 41.9023H133.475ZM136.079 39.6773H137.504C138.598 39.6773 139.145 39.3116 139.145 38.5802C139.145 37.8215 138.598 37.4456 137.504 37.4524H136.079V39.6773ZM136.079 35.1864H137.402C138.201 35.1864 138.601 34.8925 138.601 34.3047C138.601 33.7168 138.201 33.4229 137.402 33.4229H136.079V35.1864Z" fill="black"/>
<path d="M143.769 38.529C143.577 37.9069 143.482 37.2678 143.482 36.6116C143.482 35.9554 143.577 35.3163 143.769 34.6943C143.967 34.0654 144.257 33.4844 144.64 32.9512C145.03 32.4112 145.563 31.9772 146.24 31.6491C146.923 31.3142 147.699 31.1467 148.567 31.1467C149.408 31.1467 150.156 31.3107 150.813 31.6388C151.469 31.9601 151.985 32.3839 152.361 32.9102C152.744 33.4297 153.027 33.9868 153.212 34.5815C153.403 35.1762 153.499 35.7743 153.499 36.3758V37.4524H146.209C146.236 38.0949 146.469 38.6554 146.906 39.1339C147.351 39.6056 147.952 39.8414 148.711 39.8414C149.791 39.8414 150.645 39.298 151.274 38.2111L153.376 38.9801C152.481 41.0376 150.878 42.0663 148.567 42.0663C147.699 42.0663 146.923 41.9023 146.24 41.5742C145.563 41.2461 145.03 40.812 144.64 40.272C144.257 39.732 143.967 39.151 143.769 38.529ZM146.271 35.3915H150.833C150.539 34.0449 149.784 33.375 148.567 33.3819C147.952 33.3819 147.439 33.5767 147.029 33.9663C146.619 34.3559 146.366 34.831 146.271 35.3915Z" fill="black"/>
<path d="M155.847 46.1881V31.321H158.451V32.4078C158.622 32.1002 158.94 31.8131 159.405 31.5466C159.877 31.28 160.413 31.1467 161.015 31.1467C162.566 31.1467 163.759 31.6423 164.593 32.6334C165.427 33.6177 165.844 34.9438 165.844 36.6116C165.844 38.2795 165.427 39.6056 164.593 40.5899C163.759 41.5742 162.566 42.0663 161.015 42.0663C160.495 42.0663 159.996 41.957 159.518 41.7382C159.046 41.5126 158.691 41.2461 158.451 40.9385V46.1881H155.847ZM158.892 34.2329C158.441 34.7934 158.215 35.5863 158.215 36.6116C158.215 37.6301 158.441 38.423 158.892 38.9904C159.35 39.5577 159.935 39.8414 160.646 39.8414C161.363 39.8414 161.951 39.5543 162.409 38.9801C162.874 38.4059 163.106 37.6164 163.106 36.6116C163.106 35.6 162.874 34.8105 162.409 34.2431C161.951 33.669 161.363 33.3819 160.646 33.3819C159.935 33.3819 159.35 33.6655 158.892 34.2329Z" fill="black"/>
<path d="M167.925 38.529C167.734 37.9069 167.638 37.2678 167.638 36.6116C167.638 35.9554 167.734 35.3163 167.925 34.6943C168.123 34.0654 168.414 33.4844 168.797 32.9512C169.186 32.4112 169.72 31.9772 170.396 31.6491C171.08 31.3142 171.856 31.1467 172.724 31.1467C173.565 31.1467 174.313 31.3107 174.969 31.6388C175.625 31.9601 176.141 32.3839 176.517 32.9102C176.9 33.4297 177.184 33.9868 177.368 34.5815C177.56 35.1762 177.656 35.7743 177.656 36.3758V37.4524H170.366C170.393 38.0949 170.625 38.6554 171.063 39.1339C171.507 39.6056 172.109 39.8414 172.867 39.8414C173.947 39.8414 174.802 39.298 175.431 38.2111L177.532 38.9801C176.637 41.0376 175.034 42.0663 172.724 42.0663C171.856 42.0663 171.08 41.9023 170.396 41.5742C169.72 41.2461 169.186 40.812 168.797 40.272C168.414 39.732 168.123 39.151 167.925 38.529ZM170.427 35.3915H174.99C174.696 34.0449 173.94 33.375 172.724 33.3819C172.109 33.3819 171.596 33.5767 171.186 33.9663C170.776 34.3559 170.523 34.831 170.427 35.3915Z" fill="black"/>
<path d="M180.086 41.9023V31.321H182.69V35.1659H186.217V31.321H188.821V41.9023H186.217V37.3909H182.69V41.9023H180.086Z" fill="black"/>
<path d="M191.692 41.9023V31.321H194.296V35.3505H196.224C197.345 35.3505 198.234 35.6478 198.89 36.2425C199.553 36.8372 199.884 37.6335 199.884 38.6315C199.884 39.6226 199.553 40.4156 198.89 41.0102C198.234 41.6049 197.345 41.9023 196.224 41.9023H191.692ZM194.296 39.6773H195.763C196.74 39.6773 197.229 39.3287 197.229 38.6315C197.236 37.9275 196.747 37.5754 195.763 37.5754H194.296V39.6773ZM202.089 41.9023V31.321H204.693V41.9023H202.089Z" fill="black"/>
<path d="M206.898 45.173L208.466 38.8366H211.973L208.723 45.173H206.898Z" fill="black"/>
<path d="M220.001 36.7962V31.321H222.605V35.8529C222.605 37.0286 223.111 37.6164 224.123 37.6164C224.977 37.6164 225.719 36.9807 226.348 35.7093V31.321H228.952V41.9023H226.348V38.8161C225.856 39.2467 225.377 39.5475 224.912 39.7183C224.454 39.8892 223.897 39.9747 223.241 39.9747C222.264 39.9747 221.478 39.6978 220.883 39.1442C220.295 38.5837 220.001 37.801 220.001 36.7962Z" fill="black"/>
<path d="M231.485 33.5459V31.321H239.759V33.5459H236.929V41.9023H234.325V33.5459H231.485Z" fill="black"/>
<path d="M242.435 40.5283C241.471 39.4962 240.989 38.1906 240.989 36.6116C240.989 35.0258 241.471 33.7202 242.435 32.6949C243.406 31.6628 244.715 31.1467 246.362 31.1467C248.016 31.1467 249.325 31.6628 250.289 32.6949C251.26 33.7202 251.745 35.0258 251.745 36.6116C251.745 38.1906 251.26 39.4962 250.289 40.5283C249.325 41.5537 248.016 42.0663 246.362 42.0663C244.715 42.0663 243.406 41.5537 242.435 40.5283ZM244.435 34.3149C243.956 34.9369 243.717 35.7025 243.717 36.6116C243.717 37.5207 243.956 38.2863 244.435 38.9083C244.913 39.5304 245.556 39.8414 246.362 39.8414C247.176 39.8414 247.818 39.5304 248.29 38.9083C248.768 38.2863 249.007 37.5207 249.007 36.6116C249.007 35.7025 248.768 34.9369 248.29 34.3149C247.818 33.6929 247.176 33.3819 246.362 33.3819C245.556 33.3819 244.913 33.6929 244.435 34.3149Z" fill="black"/>
<path d="M258.01 41.9023L261.516 36.2528L258.451 31.321H261.188L262.911 34.0688L264.633 31.321H267.361L264.295 36.2528L267.802 41.9023H265.074L262.911 38.4572L260.747 41.9023H258.01Z" fill="black"/>
<path d="M270.324 40.5283C269.36 39.4962 268.878 38.1906 268.878 36.6116C268.878 35.0258 269.36 33.7202 270.324 32.6949C271.294 31.6628 272.603 31.1467 274.251 31.1467C275.905 31.1467 277.214 31.6628 278.178 32.6949C279.148 33.7202 279.634 35.0258 279.634 36.6116C279.634 38.1906 279.148 39.4962 278.178 40.5283C277.214 41.5537 275.905 42.0663 274.251 42.0663C272.603 42.0663 271.294 41.5537 270.324 40.5283ZM272.323 34.3149C271.845 34.9369 271.605 35.7025 271.605 36.6116C271.605 37.5207 271.845 38.2863 272.323 38.9083C272.802 39.5304 273.444 39.8414 274.251 39.8414C275.064 39.8414 275.707 39.5304 276.178 38.9083C276.657 38.2863 276.896 37.5207 276.896 36.6116C276.896 35.7025 276.657 34.9369 276.178 34.3149C275.707 33.6929 275.064 33.3819 274.251 33.3819C273.444 33.3819 272.802 33.6929 272.323 34.3149Z" fill="black"/>
<path d="M280.413 33.5459V31.321H288.687V33.5459H285.857V41.9023H283.253V33.5459H280.413Z" fill="black"/>
<path d="M290.758 41.9023V31.321H293.363V37.8523L296.992 31.321H299.832V41.9023H297.228V35.371L293.588 41.9023H290.758Z" fill="black"/>
<path d="M301.699 33.5459V31.321H309.973V33.5459H307.143V41.9023H304.539V33.5459H301.699Z" fill="black"/>
<path d="M311.49 38.529C311.299 37.9069 311.203 37.2678 311.203 36.6116C311.203 35.9554 311.299 35.3163 311.49 34.6943C311.689 34.0654 311.979 33.4844 312.362 32.9512C312.751 32.4112 313.285 31.9772 313.961 31.6491C314.645 31.3142 315.421 31.1467 316.289 31.1467C317.13 31.1467 317.878 31.3107 318.534 31.6388C319.19 31.9601 319.707 32.3839 320.082 32.9102C320.465 33.4297 320.749 33.9868 320.934 34.5815C321.125 35.1762 321.221 35.7743 321.221 36.3758V37.4524H313.931C313.958 38.0949 314.19 38.6554 314.628 39.1339C315.072 39.6056 315.674 39.8414 316.432 39.8414C317.512 39.8414 318.367 39.298 318.996 38.2111L321.098 38.9801C320.202 41.0376 318.599 42.0663 316.289 42.0663C315.421 42.0663 314.645 41.9023 313.961 41.5742C313.285 41.2461 312.751 40.812 312.362 40.272C311.979 39.732 311.689 39.151 311.49 38.529ZM313.992 35.3915H318.555C318.261 34.0449 317.506 33.375 316.289 33.3819C315.674 33.3819 315.161 33.5767 314.751 33.9663C314.341 34.3559 314.088 34.831 313.992 35.3915Z" fill="black"/>
<path d="M329.423 40.5181C328.528 39.4791 328.08 38.1769 328.08 36.6116C328.08 35.0463 328.528 33.7442 329.423 32.7052C330.319 31.6662 331.593 31.1467 333.248 31.1467C335.64 31.1467 337.243 32.1549 338.056 34.1714L335.729 35.1147C335.155 33.9526 334.328 33.375 333.248 33.3819C332.448 33.3819 331.839 33.6792 331.423 34.2739C331.012 34.8686 330.807 35.6478 330.807 36.6116C330.807 37.5754 331.012 38.3547 331.423 38.9494C331.839 39.544 332.448 39.8414 333.248 39.8414C334.328 39.8414 335.155 39.2604 335.729 38.0983L338.056 39.0416C337.243 41.0581 335.64 42.0663 333.248 42.0663C331.593 42.0663 330.319 41.5502 329.423 40.5181Z" fill="black"/>
<path d="M339.953 41.9023V31.321H342.557V35.494H343.983C344.208 34.209 344.786 33.1631 345.715 32.3566C346.645 31.55 347.831 31.1467 349.273 31.1467C350.927 31.1467 352.236 31.6628 353.2 32.6949C354.164 33.7202 354.646 35.0258 354.646 36.6116C354.646 38.1906 354.164 39.4962 353.2 40.5283C352.236 41.5537 350.927 42.0663 349.273 42.0663C347.817 42.0663 346.625 41.6699 345.695 40.877C344.765 40.0772 344.195 39.0245 343.983 37.719H342.557V41.9023H339.953ZM347.335 34.3149C346.864 34.9369 346.628 35.7025 346.628 36.6116C346.628 37.5207 346.864 38.2863 347.335 38.9083C347.814 39.5304 348.46 39.8414 349.273 39.8414C350.087 39.8414 350.729 39.5304 351.201 38.9083C351.679 38.2863 351.919 37.5207 351.919 36.6116C351.919 35.7025 351.679 34.9369 351.201 34.3149C350.729 33.6929 350.087 33.3819 349.273 33.3819C348.46 33.3819 347.814 33.6929 347.335 34.3149Z" fill="black"/>
<path d="M356.297 39.6773H357.179L358.522 31.321H366.099V39.6773H366.878L366.56 44.2913H364.294V41.9023H358.881V44.2913H356.625L356.297 39.6773ZM359.721 39.6773H363.494V33.5459H360.665L359.721 39.6773Z" fill="black"/>
<path d="M368.539 38.8571C368.539 37.8044 368.956 36.9637 369.79 36.3348C370.624 35.7059 371.711 35.3915 373.05 35.3915H374.814V34.9301C374.814 33.8911 374.199 33.375 372.968 33.3819C372.032 33.3819 371.424 33.7852 371.143 34.5918L368.939 34.0893C369.11 33.2076 369.557 32.4967 370.282 31.9567C371.007 31.4167 371.902 31.1467 372.968 31.1467C375.935 31.1467 377.418 32.6266 377.418 35.5863V41.9023H375.275L375.009 40.5591C374.182 41.5639 373.095 42.0663 371.748 42.0663C370.812 42.0663 370.043 41.7895 369.441 41.2358C368.84 40.6753 368.539 39.8824 368.539 38.8571ZM371.266 38.8161C371.266 39.0963 371.359 39.339 371.543 39.544C371.735 39.7423 372.008 39.8414 372.363 39.8414C373.006 39.8414 373.573 39.6397 374.065 39.2364C374.564 38.8332 374.814 38.3068 374.814 37.6575V37.4524H373.071C371.868 37.4524 371.266 37.9069 371.266 38.8161Z" fill="black"/>
<path d="M385.416 41.9023V31.321H394.09V41.9023H391.486V33.5459H388.02V41.9023H385.416Z" fill="black"/>
<path d="M396.961 46.1881V31.321H399.565V32.4078C399.736 32.1002 400.054 31.8131 400.519 31.5466C400.99 31.28 401.527 31.1467 402.128 31.1467C403.68 31.1467 404.873 31.6423 405.707 32.6334C406.541 33.6177 406.958 34.9438 406.958 36.6116C406.958 38.2795 406.541 39.6056 405.707 40.5899C404.873 41.5742 403.68 42.0663 402.128 42.0663C401.609 42.0663 401.11 41.957 400.631 41.7382C400.16 41.5126 399.804 41.2461 399.565 40.9385V46.1881H396.961ZM400.006 34.2329C399.555 34.7934 399.329 35.5863 399.329 36.6116C399.329 37.6301 399.555 38.423 400.006 38.9904C400.464 39.5577 401.048 39.8414 401.759 39.8414C402.477 39.8414 403.065 39.5543 403.523 38.9801C403.988 38.4059 404.22 37.6164 404.22 36.6116C404.22 35.6 403.988 34.8105 403.523 34.2431C403.065 33.669 402.477 33.3819 401.759 33.3819C401.048 33.3819 400.464 33.6655 400.006 34.2329Z" fill="black"/>
<path d="M409.367 41.9023V31.321H411.972V37.8523L415.601 31.321H418.441V41.9023H415.837V35.371L412.197 41.9023H409.367Z" fill="black"/>
<path d="M421.302 41.9023V31.321H423.906V37.8523L427.536 31.321H430.376V41.9023H427.772V35.371L424.132 41.9023H421.302ZM423.363 27.1992H425.27C425.27 27.3701 425.321 27.5136 425.424 27.6298C425.533 27.7392 425.67 27.7939 425.834 27.7939C426.005 27.7939 426.141 27.7392 426.244 27.6298C426.353 27.5136 426.408 27.3701 426.408 27.1992H428.315C428.315 27.8281 428.086 28.3681 427.628 28.8192C427.177 29.2703 426.579 29.4959 425.834 29.4959C425.096 29.4959 424.497 29.2703 424.04 28.8192C423.588 28.3681 423.363 27.8281 423.363 27.1992Z" fill="black"/>
<path d="M432.693 33.5459V31.321H440.968V33.5459H438.138V41.9023H435.533V33.5459H432.693Z" fill="black"/>
<path d="M443.039 41.9023V31.321H445.643V37.8523L449.273 31.321H452.113V41.9023H449.508V35.371L445.869 41.9023H443.039Z" fill="black"/>
<path d="M454.666 30.2444C454.837 29.3216 455.274 28.556 455.978 27.9477C456.682 27.3393 457.581 27.0352 458.675 27.0352C459.85 27.0352 460.79 27.3359 461.494 27.9374C462.205 28.539 462.561 29.3455 462.561 30.3572C462.561 31.1433 462.332 31.7516 461.874 32.1823C461.423 32.6129 460.684 33.0264 459.659 33.4229C458.962 33.7031 458.49 33.9355 458.244 34.1201C457.998 34.2978 457.875 34.5268 457.875 34.8071C457.875 35.0326 457.947 35.2104 458.09 35.3402C458.241 35.4701 458.422 35.535 458.634 35.535C459.208 35.535 459.608 35.2138 459.833 34.5712L461.679 35.2685C461.44 35.9383 461.057 36.4681 460.531 36.8577C460.011 37.2405 459.379 37.4319 458.634 37.4319C457.779 37.4319 457.082 37.1824 456.542 36.6834C456.002 36.1844 455.732 35.5385 455.732 34.7455C455.732 33.5015 456.491 32.589 458.008 32.0079C458.822 31.7004 459.372 31.4235 459.659 31.1774C459.953 30.9245 460.1 30.6238 460.1 30.2752C460.1 29.9197 459.973 29.6566 459.721 29.4857C459.475 29.3079 459.146 29.2191 458.736 29.2191C457.827 29.2191 457.232 29.6873 456.952 30.6238L454.666 30.2444ZM456.891 40.3028C456.891 39.8106 457.062 39.3937 457.403 39.0519C457.745 38.7101 458.155 38.5392 458.634 38.5392C459.112 38.5392 459.522 38.7135 459.864 39.0621C460.206 39.4039 460.377 39.8175 460.377 40.3028C460.377 40.7813 460.209 41.188 459.874 41.5229C459.539 41.8578 459.126 42.0253 458.634 42.0253C458.142 42.0253 457.728 41.8578 457.393 41.5229C457.058 41.188 456.891 40.7813 456.891 40.3028Z" fill="black"/>
<path d="M52.0716 120.776H56.9904C60.782 120.776 62.6266 119.546 62.6266 116.985C62.6266 114.423 60.782 113.091 56.9904 113.091H52.0716V120.776ZM52.0716 105.507H56.5805C59.3473 105.507 60.6795 104.483 60.6795 102.331C60.6795 100.179 59.3473 99.1539 56.5805 99.1539H52.0716V105.507ZM43.1562 128.462V92.1855H56.9904C60.782 92.1855 63.7538 93.0054 65.9058 94.645C68.0577 96.2846 69.185 98.744 69.185 102.126C69.185 103.458 68.8775 104.688 68.2627 105.917C67.6478 107.147 66.828 108.069 65.8033 108.787C67.4429 109.606 68.8775 110.836 69.9023 112.373C70.9271 114.013 71.5419 115.755 71.5419 117.804C71.5419 121.391 70.4147 124.055 68.2627 125.797C66.1107 127.54 63.1389 128.462 59.2449 128.462H43.1562Z" fill="black"/>
<path d="M116.219 92.1855H125.134V128.462H116.219V92.1855ZM89.5755 120.776H94.5968C97.9785 120.776 99.6181 119.546 99.6181 117.19C99.6181 114.833 97.9785 113.603 94.5968 113.603H89.5755V120.776ZM80.6602 128.462V92.1855H89.5755V106.02H96.1339C99.9255 106.02 103 107.044 105.254 109.094C107.509 111.143 108.636 113.91 108.636 117.292C108.636 120.674 107.509 123.441 105.254 125.49C103 127.54 99.9255 128.564 96.1339 128.564H80.6602V128.462Z" fill="black"/>
<path d="M138.662 123.646C135.588 120.059 134.051 115.653 134.051 110.222C134.051 104.791 135.588 100.384 138.662 96.7974C141.736 93.2108 146.143 91.4688 151.779 91.4688C159.977 91.4688 165.511 94.9529 168.278 101.819L160.284 105.098C158.337 101.101 155.468 99.1544 151.779 99.1544C149.012 99.1544 146.963 100.179 145.528 102.229C144.093 104.278 143.376 106.943 143.376 110.222C143.376 113.501 144.093 116.165 145.528 118.215C146.963 120.264 149.012 121.289 151.779 121.289C155.468 121.289 158.337 119.342 160.284 115.345L168.278 118.625C165.511 125.593 159.977 128.975 151.779 128.975C146.143 128.975 141.736 127.233 138.662 123.646Z" fill="black"/>
<path d="M172.891 99.7687V92.1855H201.276V99.7687H191.541V128.462H182.626V99.7687H172.891Z" fill="black"/>
<path d="M215.623 117.804C215.623 118.726 215.93 119.546 216.545 120.263C217.16 120.981 218.082 121.288 219.312 121.288C221.567 121.288 223.514 120.571 225.153 119.239C226.895 117.906 227.715 116.062 227.715 113.807V113.09H221.772C217.673 113.193 215.623 114.73 215.623 117.804ZM206.195 118.009C206.195 114.422 207.63 111.553 210.499 109.401C213.369 107.249 217.058 106.122 221.669 106.122H227.715V104.482C227.715 100.896 225.563 99.1535 221.362 99.1535C218.185 99.1535 216.033 100.588 215.111 103.355L207.527 101.613C208.142 98.6411 209.679 96.1817 212.139 94.3371C214.598 92.4926 217.673 91.5703 221.362 91.5703C231.507 91.5703 236.63 96.6941 236.63 106.839V128.461H229.252L228.33 123.85C225.461 127.334 221.772 128.974 217.16 128.974C213.983 128.974 211.319 128.051 209.27 126.104C207.323 124.26 206.195 121.493 206.195 118.009Z" fill="black"/>
<path d="M255.177 120.776H260.096C263.887 120.776 265.732 119.546 265.732 116.985C265.732 114.423 263.887 113.091 260.096 113.091H255.177V120.776ZM255.177 105.507H259.686C262.453 105.507 263.785 104.483 263.785 102.331C263.785 100.179 262.453 99.1539 259.686 99.1539H255.177V105.507ZM246.262 128.462V92.1855H260.096C263.887 92.1855 266.859 93.0054 269.011 94.645C271.163 96.2846 272.29 98.744 272.29 102.126C272.29 103.458 271.983 104.688 271.368 105.917C270.753 107.147 269.933 108.069 268.909 108.787C270.548 109.606 271.983 110.836 273.008 112.373C274.032 114.013 274.647 115.755 274.647 117.804C274.647 121.391 273.52 124.055 271.368 125.797C269.216 127.54 266.244 128.462 262.35 128.462H246.262Z" fill="black"/>
<path d="M283.77 128.462V92.1855H292.787V106.43L304.572 92.1855H315.537L300.985 108.889L316.562 128.462H305.494L292.787 111.348V128.462H283.77Z" fill="black"/>
<path d="M328.759 117.804C328.759 118.726 329.066 119.546 329.681 120.263C330.296 120.981 331.218 121.288 332.448 121.288C334.702 121.288 336.649 120.571 338.289 119.239C340.031 117.906 340.851 116.062 340.851 113.807V113.09H334.907C330.808 113.193 328.759 114.73 328.759 117.804ZM319.434 118.009C319.434 114.422 320.868 111.553 323.738 109.401C326.607 107.249 330.296 106.122 334.907 106.122H340.953V104.482C340.953 100.896 338.801 99.1535 334.6 99.1535C331.423 99.1535 329.271 100.588 328.349 103.355L320.766 101.613C321.381 98.6411 322.918 96.1817 325.377 94.3371C327.837 92.4926 330.911 91.5703 334.6 91.5703C344.745 91.5703 349.869 96.6941 349.869 106.839V128.461H342.491L341.568 123.85C338.699 127.334 335.01 128.974 330.398 128.974C327.222 128.974 324.557 128.051 322.508 126.104C320.458 124.26 319.434 121.493 319.434 118.009Z" fill="black"/>
<path d="M52.0742 183.491V147.215H60.9896V161.459L72.8767 147.215H83.8416L69.2901 163.918L84.7638 183.491H73.799L60.9896 166.378V183.491H52.0742Z" fill="black"/>
<path d="M99.9301 157.462C98.2905 159.614 97.4707 162.278 97.4707 165.353C97.4707 168.427 98.2905 171.091 99.9301 173.243C101.57 175.395 103.824 176.42 106.591 176.42C109.358 176.42 111.612 175.395 113.252 173.243C114.891 171.091 115.711 168.427 115.711 165.353C115.711 162.278 114.891 159.614 113.252 157.462C111.612 155.31 109.46 154.285 106.591 154.285C103.722 154.183 101.57 155.31 99.9301 157.462ZM93.0643 178.777C89.785 175.293 88.043 170.784 88.043 165.353C88.043 159.921 89.6826 155.412 93.0643 151.928C96.3435 148.444 100.852 146.6 106.489 146.6C112.125 146.6 116.634 148.342 119.913 151.928C123.192 155.412 124.832 159.921 124.832 165.353C124.832 170.784 123.192 175.293 119.913 178.777C116.634 182.261 112.125 184.106 106.489 184.106C100.852 184.106 96.3435 182.261 93.0643 178.777Z" fill="black"/>
<path d="M133.848 183.491V147.215H142.763V160.434H154.855V147.215H163.77V183.491H154.855V168.017H142.763V183.491H133.848Z" fill="black"/>
<path d="M175.25 183.491V147.215H184.268V161.459L196.052 147.215H207.017L192.466 163.918L208.042 183.491H196.975L184.268 166.378V183.491H175.25Z" fill="black"/>
<path d="M208.348 147.215H217.365L225.871 169.964L233.762 147.215H242.677L223.924 198.248H215.316L221.567 181.134L208.348 147.215Z" fill="black"/>
<path d="M259.074 157.155C257.536 159.102 256.717 161.766 256.717 165.353C256.717 168.837 257.536 171.604 259.074 173.551C260.611 175.498 262.66 176.522 265.12 176.522C267.579 176.522 269.629 175.498 271.166 173.551C272.703 171.604 273.523 168.837 273.523 165.353C273.523 161.868 272.703 159.204 271.166 157.257C269.629 155.31 267.579 154.285 265.12 154.285C262.66 154.183 260.611 155.208 259.074 157.155ZM248.621 198.247V147.214H257.536V150.904C258.151 149.879 259.176 148.854 260.816 147.932C262.455 147.01 264.3 146.6 266.349 146.6C271.678 146.6 275.777 148.239 278.646 151.621C281.516 155.003 282.95 159.512 282.95 165.25C282.95 170.989 281.516 175.498 278.646 178.879C275.777 182.261 271.678 183.901 266.349 183.901C264.607 183.901 262.865 183.491 261.226 182.773C259.586 182.056 258.356 181.134 257.536 180.007V198.042H248.621V198.247Z" fill="black"/>
<path d="M293.607 178.777C290.533 175.19 288.996 170.784 288.996 165.353C288.996 159.921 290.533 155.515 293.607 151.928C296.682 148.342 301.088 146.6 306.724 146.6C314.922 146.6 320.456 150.084 323.223 156.95L315.23 160.229C313.283 156.232 310.413 154.285 306.724 154.285C303.958 154.285 301.908 155.31 300.473 157.36C299.039 159.409 298.321 162.073 298.321 165.353C298.321 168.632 299.039 171.296 300.473 173.346C301.908 175.395 303.958 176.42 306.724 176.42C310.413 176.42 313.283 174.473 315.23 170.476L323.223 173.756C320.456 180.724 314.922 184.106 306.724 184.106C301.088 184.106 296.682 182.261 293.607 178.777Z" fill="black"/>
<path d="M331.422 183.491V147.215H340.337V160.434H352.429V147.215H361.345V183.491H352.429V168.017H340.337V183.491H331.422Z" fill="black"/>
<path d="M408.379 147.215H417.295V183.491H408.379V147.215ZM381.838 175.908H386.859C390.241 175.908 391.881 174.678 391.881 172.321C391.881 169.964 390.241 168.735 386.859 168.735H381.838V175.908ZM372.82 183.491V147.215H381.736V161.049H388.294C392.086 161.049 395.16 162.074 397.414 164.123C399.669 166.173 400.796 168.94 400.796 172.321C400.796 175.703 399.669 178.47 397.414 180.519C395.16 182.569 392.086 183.594 388.294 183.594H372.82V183.491Z" fill="black"/>
<path d="M423.75 183.491L435.74 164.123L425.287 147.215H434.612L440.556 156.643L446.5 147.215H455.825L445.27 164.123L457.362 183.491H448.037L440.556 171.706L433.178 183.491H423.75Z" fill="black"/>
<path d="M53.6087 226.018C52.0716 227.965 51.2518 230.629 51.2518 234.216C51.2518 237.7 52.0716 240.467 53.6087 242.414C55.1459 244.361 57.1954 245.386 59.6548 245.386C62.1142 245.386 64.1637 244.361 65.7008 242.414C67.2379 240.467 68.0577 237.7 68.0577 234.216C68.0577 230.732 67.2379 228.067 65.7008 226.12C64.1637 224.173 62.1142 223.149 59.6548 223.149C57.1954 223.149 55.1459 224.071 53.6087 226.018ZM43.1562 267.11V216.078H52.0716V219.767C52.6864 218.742 53.7112 217.717 55.3508 216.795C56.9904 215.873 58.835 215.463 60.8845 215.463C66.2132 215.463 70.3122 217.102 73.1815 220.484C76.0508 223.866 77.4855 228.375 77.4855 234.113C77.4855 239.852 76.0508 244.361 73.1815 247.743C70.3122 251.124 66.2132 252.764 60.8845 252.764C59.1424 252.764 57.4003 252.354 55.7607 251.637C54.1211 250.919 52.8914 249.997 52.0716 248.87V267.11H43.1562Z" fill="black"/>
<path d="M92.5479 241.799C92.5479 242.721 92.8553 243.541 93.4702 244.258C94.085 244.976 95.0073 245.283 96.237 245.283C98.4915 245.283 100.438 244.566 102.078 243.234C103.82 241.902 104.64 240.057 104.64 237.802V237.085H98.6964C94.6999 237.085 92.5479 238.622 92.5479 241.799ZM83.2227 241.902C83.2227 238.315 84.6573 235.446 87.5266 233.294C90.3959 231.142 94.085 230.014 98.6964 230.014H104.742V228.375C104.742 224.788 102.59 223.046 98.389 223.046C95.2123 223.046 93.0603 224.481 92.138 227.248L84.5548 225.505C85.1697 222.534 86.7068 220.074 89.1662 218.23C91.6256 216.385 94.6999 215.463 98.389 215.463C108.534 215.463 113.658 220.587 113.658 230.732V252.354H106.28L105.357 247.743C102.488 251.227 98.7989 252.866 94.1875 252.866C91.0108 252.866 88.3464 251.944 86.2969 249.997C84.2474 248.152 83.2227 245.488 83.2227 241.902Z" fill="black"/>
<path d="M132.414 226.325C130.774 228.477 129.954 231.142 129.954 234.216C129.954 237.29 130.774 239.955 132.414 242.107C134.053 244.259 136.308 245.283 139.074 245.283C141.841 245.283 144.096 244.259 145.735 242.107C147.375 239.955 148.195 237.29 148.195 234.216C148.195 231.142 147.375 228.477 145.735 226.325C144.096 224.173 141.944 223.149 139.074 223.149C136.205 223.149 134.053 224.173 132.414 226.325ZM120.629 230.014C120.629 219.972 122.268 212.696 125.548 208.392C128.827 204.088 133.541 201.936 139.484 201.936H142.046C144.711 201.936 146.555 200.707 147.477 198.35H153.011C153.011 205.83 149.527 209.519 142.559 209.519H139.792C133.643 209.519 130.364 212.799 129.954 219.255C132.721 216.693 136.103 215.463 140.304 215.463C145.633 215.463 149.834 217.205 152.909 220.689C155.983 224.173 157.52 228.682 157.52 234.216C157.52 239.647 155.778 244.156 152.396 247.64C149.015 251.124 144.506 252.866 138.972 252.866C133.438 252.866 128.929 250.817 125.65 246.718C122.269 242.619 120.629 236.983 120.629 230.014Z" fill="black"/>
<path d="M175.454 226.325C173.814 228.477 172.994 231.142 172.994 234.216C172.994 237.29 173.814 239.954 175.454 242.106C177.093 244.258 179.348 245.283 182.114 245.283C184.881 245.283 187.136 244.258 188.775 242.106C190.415 239.954 191.235 237.29 191.235 234.216C191.235 231.142 190.415 228.477 188.775 226.325C187.136 224.173 184.984 223.149 182.114 223.149C179.348 223.149 177.093 224.173 175.454 226.325ZM168.588 247.64C165.308 244.156 163.566 239.647 163.566 234.216C163.566 228.785 165.206 224.276 168.588 220.792C171.867 217.307 176.376 215.463 182.012 215.463C187.648 215.463 192.157 217.205 195.436 220.792C198.715 224.276 200.355 228.785 200.355 234.216C200.355 239.647 198.715 244.156 195.436 247.64C192.157 251.124 187.648 252.969 182.012 252.969C176.478 252.969 171.969 251.124 168.588 247.64Z" fill="black"/>
<path d="M205.785 223.661V216.078H234.171V223.661H224.538V252.354H215.52V223.661H205.785Z" fill="black"/>
<path d="M64.7785 316.402V310.458L87.0157 294.779V304.002L73.6939 313.43L87.0157 322.858V332.08L64.7785 316.402ZM43.1562 316.402V310.458L65.3934 294.779V304.002L52.0716 313.43L65.3934 322.858V332.08L43.1562 316.402Z" fill="black"/>
<path d="M95.9336 302.567V285.352H105.259V302.67C105.259 305.949 105.976 308.511 107.308 310.151C108.641 311.893 110.588 312.712 112.944 312.712C115.404 312.712 117.351 312.405 118.683 311.688C120.118 310.97 121.552 309.843 123.09 308.306V285.352H132.415V335.769H123.09V318.349C120.118 320.398 116.224 321.32 111.305 321.32C106.591 321.32 102.799 319.783 100.033 316.709C97.2658 313.635 95.9336 308.921 95.9336 302.567Z" fill="black"/>
<path d="M141.227 307.18V299.494H169.612V307.18H159.877V335.873H150.962V307.18H141.227Z" fill="black"/>
<path d="M186.727 309.741C185.087 311.893 184.268 314.558 184.268 317.632C184.268 320.706 185.087 323.371 186.727 325.522C188.367 327.674 190.621 328.699 193.388 328.699C196.155 328.699 198.409 327.674 200.049 325.522C201.688 323.371 202.508 320.706 202.508 317.632C202.508 314.558 201.688 311.893 200.049 309.741C198.409 307.589 196.257 306.565 193.388 306.565C190.621 306.565 188.367 307.589 186.727 309.741ZM179.861 331.056C176.582 327.572 174.84 323.063 174.84 317.632C174.84 312.201 176.479 307.692 179.861 304.208C183.14 300.723 187.649 298.879 193.285 298.879C198.922 298.879 203.43 300.621 206.71 304.208C209.989 307.692 211.628 312.201 211.628 317.632C211.628 323.063 209.989 327.572 206.71 331.056C203.43 334.54 198.922 336.385 193.285 336.385C187.649 336.385 183.243 334.643 179.861 331.056Z" fill="black"/>
<path d="M247.597 309.741C245.958 311.893 245.138 314.558 245.138 317.632C245.138 320.706 245.958 323.371 247.597 325.523C249.237 327.675 251.491 328.699 254.258 328.699C257.025 328.699 259.279 327.675 260.919 325.523C262.559 323.371 263.378 320.706 263.378 317.632C263.378 314.558 262.559 311.893 260.919 309.741C259.279 307.589 257.127 306.565 254.258 306.565C251.491 306.565 249.237 307.589 247.597 309.741ZM235.812 313.431C235.812 303.388 237.452 296.112 240.731 291.808C244.011 287.504 248.724 285.352 254.668 285.352H257.23C259.894 285.352 261.739 284.123 262.661 281.766H268.195C268.195 289.246 264.711 292.935 257.742 292.935H254.975C248.827 292.935 245.548 296.215 245.138 302.671C247.905 300.109 251.286 298.879 255.488 298.879C260.816 298.879 265.018 300.621 268.092 304.105C271.166 307.589 272.704 312.098 272.704 317.632C272.704 323.063 270.962 327.572 267.58 331.056C264.198 334.54 259.689 336.282 254.156 336.282C248.622 336.282 244.113 334.233 240.834 330.134C237.452 326.035 235.812 320.501 235.812 313.431Z" fill="black"/>
<path d="M317.075 299.494H325.99V335.77H317.075V299.494ZM290.431 328.187H295.452C298.834 328.187 300.474 326.958 300.474 324.601C300.474 322.244 298.834 321.014 295.452 321.014H290.431V328.187ZM281.516 335.873V299.597H290.431V313.431H296.989C300.781 313.431 303.855 314.456 306.11 316.505C308.364 318.555 309.491 321.321 309.491 324.703C309.491 328.085 308.364 330.852 306.11 332.901C303.855 334.951 300.781 335.975 296.989 335.975H281.516V335.873Z" fill="black"/>
<path d="M333.984 335.873V328.29C336.136 328.29 337.673 327.88 338.698 327.163C339.723 326.343 340.338 325.113 340.543 323.269L342.9 299.699H369.338V335.975H360.423V307.282H350.893L348.741 326.445C348.536 328.597 348.023 330.237 347.306 331.569C346.589 332.901 345.462 333.823 344.027 334.541C342.592 335.156 341.158 335.566 339.723 335.771C338.288 335.771 336.341 335.873 333.984 335.873Z" fill="black"/>
<path d="M389.937 309.741C388.297 311.893 387.478 314.558 387.478 317.632C387.478 320.706 388.297 323.371 389.937 325.522C391.577 327.674 393.831 328.699 396.598 328.699C399.365 328.699 401.619 327.674 403.259 325.522C404.898 323.371 405.718 320.706 405.718 317.632C405.718 314.558 404.898 311.893 403.259 309.741C401.619 307.589 399.467 306.565 396.598 306.565C393.831 306.565 391.577 307.589 389.937 309.741ZM383.174 331.056C379.894 327.572 378.152 323.063 378.152 317.632C378.152 312.201 379.792 307.692 383.174 304.208C386.453 300.723 390.962 298.879 396.598 298.879C402.234 298.879 406.743 300.621 410.022 304.208C413.301 307.692 414.941 312.201 414.941 317.632C414.941 323.063 413.301 327.572 410.022 331.056C406.743 334.54 402.234 336.385 396.598 336.385C390.962 336.385 386.453 334.643 383.174 331.056Z" fill="black"/>
<path d="M142.355 395.718V359.441H172.073V395.718H163.158V367.127H151.271V395.718H142.355Z" fill="black"/>
<path d="M192.774 369.69C191.134 371.842 190.314 374.507 190.314 377.581C190.314 380.655 191.134 383.32 192.774 385.472C194.413 387.624 196.668 388.648 199.435 388.648C202.202 388.648 204.456 387.624 206.096 385.472C207.735 383.32 208.555 380.655 208.555 377.581C208.555 374.507 207.735 371.842 206.096 369.69C204.456 367.538 202.304 366.514 199.435 366.514C196.565 366.514 194.413 367.538 192.774 369.69ZM185.908 391.005C182.629 387.521 180.887 383.012 180.887 377.581C180.887 372.15 182.526 367.641 185.908 364.157C189.187 360.673 193.696 358.828 199.332 358.828C204.968 358.828 209.477 360.57 212.757 364.157C216.036 367.641 217.675 372.15 217.675 377.581C217.675 383.012 216.036 387.521 212.757 391.005C209.477 394.49 204.968 396.334 199.332 396.334C193.696 396.334 189.187 394.592 185.908 391.005Z" fill="black"/>
<path d="M228.537 391.005C225.463 387.419 223.926 383.012 223.926 377.581C223.926 372.252 225.463 367.743 228.537 364.157C231.611 360.57 236.018 358.828 241.654 358.828C249.852 358.828 255.386 362.312 258.153 369.178L250.159 372.457C248.212 368.461 245.343 366.514 241.654 366.514C238.887 366.514 236.838 367.539 235.403 369.588C233.968 371.638 233.251 374.302 233.251 377.581C233.251 380.86 233.968 383.525 235.403 385.574C236.838 387.624 238.887 388.648 241.654 388.648C245.343 388.648 248.212 386.701 250.159 382.705L258.153 385.984C255.386 392.952 249.852 396.334 241.654 396.334C236.018 396.334 231.611 394.49 228.537 391.005Z" fill="black"/>
<path d="M262.66 395.719V388.135C264.812 388.135 266.349 387.726 267.374 387.008C268.399 386.188 269.014 384.959 269.219 383.114L271.575 359.545H298.014V395.821H289.099V367.128H279.569L277.417 386.291C277.212 388.443 276.699 390.083 275.982 391.415C275.265 392.747 274.137 393.669 272.703 394.387C271.268 395.001 269.833 395.411 268.399 395.616C266.964 395.616 265.017 395.719 262.66 395.719Z" fill="black"/>
<path d="M316.461 373.38H332.14C331.115 368.768 328.553 366.411 324.351 366.411C322.199 366.411 320.457 367.129 319.125 368.461C317.588 369.793 316.768 371.433 316.461 373.38ZM307.853 384.14C307.136 381.988 306.828 379.836 306.828 377.581C306.828 375.327 307.136 373.175 307.853 371.023C308.57 368.871 309.493 366.924 310.825 365.079C312.157 363.235 314.001 361.8 316.358 360.57C318.715 359.443 321.38 358.828 324.351 358.828C327.221 358.828 329.783 359.34 332.037 360.468C334.292 361.595 336.034 363.03 337.366 364.874C338.698 366.719 339.62 368.563 340.235 370.613C340.85 372.662 341.157 374.712 341.157 376.761V380.45H316.153C316.256 382.705 317.076 384.549 318.613 386.189C320.15 387.829 322.199 388.648 324.761 388.648C328.45 388.648 331.422 386.804 333.574 383.012L340.747 385.677C337.673 392.747 332.14 396.232 324.249 396.232C321.277 396.232 318.613 395.719 316.256 394.592C313.899 393.465 312.054 391.928 310.722 390.083C309.493 388.341 308.468 386.292 307.853 384.14Z" fill="black"/>
<path d="M354.479 390.492C354.479 388.852 355.093 387.52 356.221 386.393C357.348 385.266 358.68 384.651 360.32 384.651C361.857 384.651 363.292 385.266 364.419 386.393C365.546 387.52 366.161 388.955 366.161 390.492C366.161 392.029 365.648 393.464 364.521 394.489C363.394 395.616 362.062 396.128 360.422 396.128C358.783 396.128 357.45 395.616 356.323 394.489C355.196 393.361 354.479 392.029 354.479 390.492ZM346.793 355.855C347.408 352.679 348.842 350.014 351.302 347.862C353.761 345.71 356.733 344.686 360.32 344.686C364.316 344.686 367.493 345.71 369.85 347.862C372.207 349.912 373.437 352.781 373.437 356.265C373.437 358.93 372.617 360.979 371.08 362.516C369.542 363.951 366.981 365.386 363.496 366.718C361.242 367.64 359.602 368.46 358.783 369.075C357.963 369.69 357.553 370.509 357.553 371.432C357.553 372.251 357.758 372.764 358.27 373.276C358.783 373.686 359.397 373.891 360.012 373.891C361.959 373.891 363.189 372.764 364.009 370.612L370.26 372.969C369.44 375.428 368.21 377.375 366.366 378.81C364.624 380.244 362.472 380.962 360.012 380.962C356.938 380.962 354.479 380.04 352.532 378.195C350.585 376.35 349.662 373.993 349.662 371.124C349.662 366.923 352.429 363.746 357.963 361.799C360.627 360.774 362.472 359.852 363.394 358.93C364.316 358.11 364.829 357.085 364.829 355.855C364.829 354.626 364.419 353.806 363.599 353.191C362.779 352.576 361.652 352.269 360.32 352.269C357.348 352.269 355.298 353.908 354.376 357.085L346.793 355.855Z" fill="black"/>
<path d="M402.13 392.131V382.908L415.452 373.481L402.13 364.053V354.83L424.367 370.509V376.452L402.13 392.131ZM380.508 392.131V382.908L393.83 373.481L380.508 364.053V354.83L402.745 370.509V376.452L380.508 392.131Z" fill="black"/>
</svg>
